G75*
%MOIN*%
%OFA0B0*%
%FSLAX24Y24*%
%IPPOS*%
%LPD*%
%AMOC8*
5,1,8,0,0,1.08239X$1,22.5*
%
%ADD10C,0.0040*%
%ADD11C,0.0080*%
%ADD12C,0.0060*%
%ADD13C,0.0050*%
%ADD14R,0.0010X0.0730*%
%ADD15R,0.0010X0.0700*%
%ADD16R,0.0010X0.0860*%
%ADD17R,0.0010X0.0810*%
%ADD18R,0.0010X0.0780*%
%ADD19R,0.0010X0.0940*%
%ADD20R,0.0010X0.0800*%
%ADD21R,0.0010X0.0830*%
%ADD22R,0.0010X0.0980*%
%ADD23R,0.0010X0.0850*%
%ADD24R,0.0010X0.0880*%
%ADD25R,0.0010X0.1010*%
%ADD26R,0.0010X0.0900*%
%ADD27R,0.0010X0.1030*%
%ADD28R,0.0010X0.0910*%
%ADD29R,0.0010X0.0930*%
%ADD30R,0.0010X0.1060*%
%ADD31R,0.0010X0.1070*%
%ADD32R,0.0010X0.0950*%
%ADD33R,0.0010X0.0960*%
%ADD34R,0.0010X0.1090*%
%ADD35R,0.0010X0.0970*%
%ADD36R,0.0010X0.1100*%
%ADD37R,0.0010X0.0990*%
%ADD38R,0.0010X0.1120*%
%ADD39R,0.0010X0.1000*%
%ADD40R,0.0010X0.1130*%
%ADD41R,0.0010X0.1020*%
%ADD42R,0.0010X0.0100*%
%ADD43R,0.0010X0.0010*%
%ADD44R,0.0010X0.0020*%
%ADD45R,0.0010X0.0230*%
%ADD46R,0.0010X0.0210*%
%ADD47R,0.0010X0.0120*%
%ADD48R,0.0010X0.0220*%
%ADD49R,0.0010X0.0080*%
%ADD50R,0.0010X0.0190*%
%ADD51R,0.0010X0.0180*%
%ADD52R,0.0010X0.0200*%
%ADD53R,0.0010X0.0070*%
%ADD54R,0.0010X0.0170*%
%ADD55R,0.0010X0.0060*%
%ADD56R,0.0010X0.0030*%
%ADD57R,0.0010X0.0040*%
%ADD58R,0.0010X0.0050*%
%ADD59R,0.0010X0.0650*%
%ADD60R,0.0010X0.0640*%
%ADD61R,0.0010X0.0790*%
%ADD62R,0.0010X0.0760*%
%ADD63R,0.0010X0.0920*%
%ADD64R,0.0010X0.0740*%
%ADD65R,0.0010X0.0710*%
%ADD66R,0.0010X0.0870*%
%ADD67R,0.0010X0.0520*%
%ADD68R,0.0010X0.0610*%
%ADD69R,0.0010X0.0890*%
%ADD70R,0.0010X0.0260*%
%ADD71R,0.0010X0.0160*%
%ADD72R,0.0010X0.0150*%
%ADD73R,0.0010X0.0660*%
%ADD74R,0.0010X0.0090*%
%ADD75R,0.0010X0.0750*%
%ADD76R,0.0010X0.0820*%
%ADD77R,0.0010X0.0720*%
%ADD78R,0.0010X0.0680*%
%ADD79R,0.0010X0.0590*%
%ADD80R,0.0010X0.0670*%
%ADD81R,0.0010X0.0690*%
%ADD82R,0.0010X0.0110*%
%ADD83R,0.0010X0.0130*%
%ADD84R,0.0010X0.0240*%
%ADD85R,0.0010X0.0840*%
%ADD86R,0.0010X0.0140*%
%ADD87C,0.0030*%
%ADD88C,0.0100*%
%ADD89C,0.0020*%
D10*
X012795Y008020D02*
X012795Y008260D01*
X012795Y008140D02*
X012915Y008260D01*
X012975Y008260D01*
X013102Y008200D02*
X013102Y008080D01*
X013162Y008020D01*
X013282Y008020D01*
X013342Y008140D02*
X013102Y008140D01*
X013102Y008200D02*
X013162Y008260D01*
X013282Y008260D01*
X013342Y008200D01*
X013342Y008140D01*
X013470Y008260D02*
X013590Y008020D01*
X013710Y008260D01*
X013839Y008080D02*
X013899Y008080D01*
X013899Y008020D01*
X013839Y008020D01*
X013839Y008080D01*
X013900Y008620D02*
X014140Y008620D01*
X014020Y008620D02*
X014020Y008980D01*
X013900Y008860D01*
X013772Y008980D02*
X013532Y008620D01*
X013404Y008920D02*
X013163Y008680D01*
X013163Y008620D01*
X013035Y008680D02*
X013035Y008920D01*
X012795Y008680D01*
X012855Y008620D01*
X012975Y008620D01*
X013035Y008680D01*
X012795Y008680D02*
X012795Y008920D01*
X012855Y008980D01*
X012975Y008980D01*
X013035Y008920D01*
X013163Y008980D02*
X013404Y008980D01*
X013404Y008920D01*
X014268Y008800D02*
X014268Y008680D01*
X014328Y008620D01*
X014448Y008620D01*
X014508Y008680D01*
X014508Y008740D01*
X014448Y008800D01*
X014268Y008800D01*
X014388Y008920D01*
X014508Y008980D01*
X014511Y008380D02*
X014631Y008260D01*
X014631Y008020D01*
X014759Y008020D02*
X015000Y008260D01*
X015000Y008320D01*
X014939Y008380D01*
X014819Y008380D01*
X014759Y008320D01*
X014631Y008200D02*
X014391Y008200D01*
X014391Y008260D02*
X014511Y008380D01*
X014391Y008260D02*
X014391Y008020D01*
X014759Y008020D02*
X015000Y008020D01*
X016268Y022100D02*
X016388Y022220D01*
X016328Y022220D01*
X016328Y022280D01*
X016388Y022280D01*
X016388Y022220D01*
X016140Y022220D02*
X016140Y022580D01*
X016020Y022460D01*
X015900Y022580D01*
X015900Y022220D01*
X015772Y022280D02*
X015772Y022520D01*
X015712Y022580D01*
X015532Y022580D01*
X015532Y022220D01*
X015712Y022220D01*
X015772Y022280D01*
X015404Y022400D02*
X015163Y022400D01*
X015343Y022580D01*
X015343Y022220D01*
X015035Y022280D02*
X014975Y022220D01*
X014855Y022220D01*
X014795Y022280D01*
X014795Y022520D01*
X014855Y022580D01*
X014975Y022580D01*
X015035Y022520D01*
X015035Y022820D02*
X015035Y023060D01*
X014915Y023180D01*
X014795Y023060D01*
X014795Y022820D01*
X014795Y023000D02*
X015035Y023000D01*
X015163Y022820D02*
X015163Y023180D01*
X015283Y023060D01*
X015404Y023180D01*
X015404Y022820D01*
X015532Y022880D02*
X015592Y022820D01*
X015772Y022820D01*
X015900Y022820D02*
X015900Y023180D01*
X016080Y023180D01*
X016140Y023120D01*
X016140Y023000D01*
X016080Y022940D01*
X015900Y022940D01*
X015772Y023060D02*
X015592Y023060D01*
X015532Y023000D01*
X015532Y022880D01*
X015532Y023420D02*
X015532Y023780D01*
X015712Y023780D01*
X015772Y023720D01*
X015772Y023600D01*
X015712Y023540D01*
X015532Y023540D01*
X015404Y023480D02*
X015343Y023540D01*
X015223Y023540D01*
X015163Y023600D01*
X015223Y023660D01*
X015404Y023660D01*
X015404Y023480D02*
X015343Y023420D01*
X015163Y023420D01*
X015035Y023420D02*
X014795Y023420D01*
X014795Y023780D01*
X014915Y024020D02*
X014795Y024140D01*
X014795Y024260D01*
X014915Y024380D01*
X015041Y024200D02*
X015041Y024080D01*
X015101Y024020D01*
X015281Y024020D01*
X015409Y024020D02*
X015529Y024140D01*
X015529Y024260D01*
X015409Y024380D01*
X015281Y024260D02*
X015101Y024260D01*
X015041Y024200D01*
X016023Y024320D02*
X016083Y024380D01*
X016203Y024380D01*
X016263Y024320D01*
X016263Y024260D01*
X016023Y024020D01*
X016263Y024020D01*
X016391Y024080D02*
X016391Y024320D01*
X016451Y024380D01*
X016571Y024380D01*
X016631Y024320D01*
X016391Y024080D01*
X016451Y024020D01*
X016571Y024020D01*
X016631Y024080D01*
X016631Y024320D01*
X016759Y024260D02*
X016879Y024380D01*
X016879Y024020D01*
X016759Y024020D02*
X017000Y024020D01*
X017128Y024080D02*
X017188Y024020D01*
X017308Y024020D01*
X017368Y024080D01*
X017368Y024140D01*
X017308Y024200D01*
X017128Y024200D01*
X017128Y024080D01*
X017128Y024200D02*
X017248Y024320D01*
X017368Y024380D01*
X017372Y023660D02*
X017492Y023660D01*
X017552Y023600D01*
X017552Y023540D01*
X017312Y023540D01*
X017312Y023480D02*
X017312Y023600D01*
X017372Y023660D01*
X017184Y023660D02*
X017184Y023420D01*
X017004Y023420D01*
X016944Y023480D01*
X016944Y023660D01*
X016815Y023660D02*
X016635Y023660D01*
X016575Y023600D01*
X016575Y023480D01*
X016635Y023420D01*
X016815Y023420D01*
X016815Y023780D01*
X016448Y023660D02*
X016388Y023660D01*
X016268Y023540D01*
X016268Y023420D02*
X016268Y023660D01*
X016140Y023600D02*
X016140Y023420D01*
X015960Y023420D01*
X015900Y023480D01*
X015960Y023540D01*
X016140Y023540D01*
X016140Y023600D02*
X016080Y023660D01*
X015960Y023660D01*
X016268Y023180D02*
X016268Y022820D01*
X016268Y023000D02*
X016328Y023060D01*
X016448Y023060D01*
X016508Y023000D01*
X016508Y022820D01*
X016637Y022880D02*
X016637Y023000D01*
X016697Y023060D01*
X016817Y023060D01*
X016877Y023000D01*
X016877Y022940D01*
X016637Y022940D01*
X016637Y022880D02*
X016697Y022820D01*
X016817Y022820D01*
X017005Y022820D02*
X017005Y023060D01*
X017005Y022940D02*
X017125Y023060D01*
X017185Y023060D01*
X017312Y023000D02*
X017372Y023060D01*
X017552Y023060D01*
X017492Y022940D02*
X017372Y022940D01*
X017312Y023000D01*
X017312Y022820D02*
X017492Y022820D01*
X017552Y022880D01*
X017492Y022940D01*
X017680Y022880D02*
X017740Y022820D01*
X017860Y022820D01*
X017920Y022880D01*
X017920Y023000D01*
X017860Y023060D01*
X017740Y023060D01*
X017680Y023000D01*
X017680Y022880D01*
X017619Y022580D02*
X017619Y022280D01*
X017679Y022220D01*
X017799Y022220D01*
X017859Y022280D01*
X017859Y022580D01*
X017987Y022580D02*
X017987Y022220D01*
X018227Y022220D01*
X018289Y022820D02*
X018289Y023000D01*
X018229Y023060D01*
X018048Y023060D01*
X018048Y022820D01*
X017491Y022580D02*
X017491Y022220D01*
X017250Y022220D02*
X017250Y022580D01*
X017371Y022460D01*
X017491Y022580D01*
X017122Y022520D02*
X017122Y022280D01*
X017062Y022220D01*
X016942Y022220D01*
X016882Y022280D01*
X016882Y022520D01*
X016942Y022580D01*
X017062Y022580D01*
X017122Y022520D01*
X017002Y022340D02*
X017122Y022220D01*
X017372Y023420D02*
X017312Y023480D01*
X017372Y023420D02*
X017492Y023420D01*
X005141Y024253D02*
X005141Y024487D01*
X005001Y024487D01*
X004954Y024440D01*
X004954Y024347D01*
X005001Y024300D01*
X005141Y024300D01*
X005141Y024253D02*
X005094Y024207D01*
X005047Y024207D01*
X004846Y024347D02*
X004846Y024440D01*
X004799Y024487D01*
X004706Y024487D01*
X004659Y024440D01*
X004659Y024347D01*
X004706Y024300D01*
X004799Y024300D01*
X004846Y024347D01*
X004556Y024300D02*
X004463Y024300D01*
X004510Y024300D02*
X004510Y024580D01*
X004463Y024580D01*
X004355Y024440D02*
X004308Y024487D01*
X004215Y024487D01*
X004215Y024393D02*
X004355Y024393D01*
X004355Y024440D02*
X004355Y024300D01*
X004215Y024300D01*
X004168Y024347D01*
X004215Y024393D01*
X004060Y024440D02*
X004060Y024300D01*
X004060Y024440D02*
X004014Y024487D01*
X003874Y024487D01*
X003874Y024300D01*
X003766Y024300D02*
X003766Y024487D01*
X003672Y024580D01*
X003579Y024487D01*
X003579Y024300D01*
X003579Y024440D02*
X003766Y024440D01*
X003822Y024054D02*
X003822Y023867D01*
X003869Y023820D01*
X003972Y023820D02*
X004112Y023820D01*
X004159Y023867D01*
X004112Y023913D01*
X004019Y023913D01*
X003972Y023960D01*
X004019Y024007D01*
X004159Y024007D01*
X003869Y024007D02*
X003775Y024007D01*
X003668Y024007D02*
X003668Y023820D01*
X003527Y023820D01*
X003481Y023867D01*
X003481Y024007D01*
X003373Y023960D02*
X003373Y023867D01*
X003326Y023820D01*
X003186Y023820D01*
X003186Y023727D02*
X003186Y024007D01*
X003326Y024007D01*
X003373Y023960D01*
X003078Y023960D02*
X003078Y023820D01*
X003078Y023960D02*
X003032Y024007D01*
X002891Y024007D01*
X002891Y023820D01*
X002788Y023820D02*
X002695Y023820D01*
X002742Y023820D02*
X002742Y024100D01*
X002788Y024100D02*
X002695Y024100D01*
X002788Y024300D02*
X002788Y024580D01*
X002695Y024580D02*
X002882Y024580D01*
X002990Y024440D02*
X002990Y024347D01*
X003036Y024300D01*
X003130Y024300D01*
X003176Y024347D01*
X003176Y024440D01*
X003130Y024487D01*
X003036Y024487D01*
X002990Y024440D01*
D11*
X003055Y026740D02*
X002735Y026740D01*
X002655Y026820D01*
X002655Y026980D01*
X002735Y027060D01*
X003055Y027060D01*
X003135Y026980D01*
X003135Y026820D01*
X003055Y026740D01*
X003055Y027256D02*
X002655Y027256D01*
X002655Y027576D02*
X003055Y027576D01*
X003135Y027496D01*
X003135Y027336D01*
X003055Y027256D01*
X002655Y027771D02*
X002655Y028092D01*
X002655Y027931D02*
X003135Y027931D01*
X005625Y024500D02*
X006125Y024500D01*
X006375Y024250D01*
X006625Y024500D01*
X007125Y024500D01*
X007375Y024250D01*
X007625Y024500D01*
X008125Y024500D01*
X008375Y024250D01*
X008625Y024500D01*
X009125Y024500D01*
X009375Y024250D01*
X009625Y024500D01*
X010125Y024500D01*
X010375Y024250D01*
X010625Y024500D01*
X011125Y024500D01*
X011375Y024250D01*
X011625Y024500D01*
X012125Y024500D01*
X012375Y024250D01*
X012625Y024500D01*
X013125Y024500D01*
X013375Y024250D01*
X013375Y023750D01*
X013125Y023500D01*
X012625Y023500D01*
X012375Y023750D01*
X012125Y023500D01*
X011625Y023500D01*
X011375Y023750D01*
X011125Y023500D01*
X010625Y023500D01*
X010375Y023750D01*
X010125Y023500D01*
X009625Y023500D01*
X009375Y023750D01*
X009125Y023500D01*
X008625Y023500D01*
X008375Y023750D01*
X008125Y023500D01*
X007625Y023500D01*
X007375Y023750D01*
X007125Y023500D01*
X006625Y023500D01*
X006375Y023750D01*
X006125Y023500D01*
X005625Y023500D01*
X005375Y023750D01*
X005375Y024250D01*
X005625Y024500D01*
X006735Y026740D02*
X007055Y026740D01*
X007135Y026820D01*
X007135Y026980D01*
X007055Y027060D01*
X006735Y027060D01*
X006655Y026980D01*
X006655Y026820D01*
X006735Y026740D01*
X006655Y027256D02*
X007055Y027256D01*
X007135Y027336D01*
X007135Y027496D01*
X007055Y027576D01*
X006655Y027576D01*
X006655Y027771D02*
X006655Y028092D01*
X006655Y027931D02*
X007135Y027931D01*
X010655Y027604D02*
X011135Y027604D01*
X010655Y027284D01*
X011135Y027284D01*
X011135Y027100D02*
X011135Y026940D01*
X011135Y027020D02*
X010655Y027020D01*
X010655Y026940D02*
X010655Y027100D01*
X014655Y027100D02*
X014655Y026940D01*
X014655Y027020D02*
X015135Y027020D01*
X015135Y026940D02*
X015135Y027100D01*
X015135Y027284D02*
X014655Y027284D01*
X015135Y027604D01*
X014655Y027604D01*
X014825Y020800D02*
X014325Y020800D01*
X014075Y020550D01*
X014075Y020050D01*
X014325Y019800D01*
X014075Y019550D01*
X014075Y019050D01*
X014325Y018800D01*
X014825Y018800D01*
X015075Y019050D01*
X015325Y018800D01*
X015825Y018800D01*
X016075Y019050D01*
X016325Y018800D01*
X016825Y018800D01*
X017075Y019050D01*
X017325Y018800D01*
X017825Y018800D01*
X018075Y019050D01*
X018325Y018800D01*
X018825Y018800D01*
X019075Y019050D01*
X019075Y019550D01*
X018825Y019800D01*
X019075Y020050D01*
X019075Y020550D01*
X018825Y020800D01*
X018325Y020800D01*
X018075Y020550D01*
X018075Y020050D01*
X018325Y019800D01*
X018075Y019550D01*
X018075Y019050D01*
X018075Y019550D01*
X017825Y019800D01*
X018075Y020050D01*
X018075Y020550D01*
X017825Y020800D01*
X017325Y020800D01*
X017075Y020550D01*
X017075Y020050D01*
X017325Y019800D01*
X017075Y019550D01*
X017075Y019050D01*
X017075Y019550D01*
X016825Y019800D01*
X017075Y020050D01*
X017075Y020550D01*
X016825Y020800D01*
X016325Y020800D01*
X016075Y020550D01*
X016075Y020050D01*
X016325Y019800D01*
X016075Y019550D01*
X016075Y019050D01*
X016075Y019550D01*
X015825Y019800D01*
X016075Y020050D01*
X016075Y020550D01*
X015825Y020800D01*
X015325Y020800D01*
X015075Y020550D01*
X015075Y020050D01*
X015325Y019800D01*
X015075Y019550D01*
X015075Y019050D01*
X015075Y019550D01*
X014825Y019800D01*
X015075Y020050D01*
X015075Y020550D01*
X014825Y020800D01*
X014075Y020550D02*
X014075Y020050D01*
X013825Y019800D01*
X014075Y019550D01*
X014075Y019050D01*
X013825Y018800D01*
X013325Y018800D01*
X013075Y019050D01*
X013075Y019550D01*
X013325Y019800D01*
X013075Y020050D01*
X013075Y020550D01*
X013325Y020800D01*
X013825Y020800D01*
X014075Y020550D01*
X013075Y020550D02*
X013075Y020050D01*
X012825Y019800D01*
X013075Y019550D01*
X013075Y019050D01*
X012825Y018800D01*
X012325Y018800D01*
X012075Y019050D01*
X012075Y019550D01*
X012325Y019800D01*
X012075Y020050D01*
X012075Y020550D01*
X012325Y020800D01*
X012825Y020800D01*
X013075Y020550D01*
X012075Y020550D02*
X012075Y020050D01*
X011825Y019800D01*
X012075Y019550D01*
X012075Y019050D01*
X011825Y018800D01*
X011325Y018800D01*
X011075Y019050D01*
X011075Y019550D01*
X011325Y019800D01*
X011075Y020050D01*
X011075Y020550D01*
X011325Y020800D01*
X011825Y020800D01*
X012075Y020550D01*
X007621Y020564D02*
X007621Y018636D01*
X005929Y018636D01*
X005929Y020564D01*
X007621Y020564D01*
X007011Y020564D02*
X007009Y020534D01*
X007004Y020505D01*
X006994Y020477D01*
X006982Y020450D01*
X006966Y020425D01*
X006947Y020402D01*
X006925Y020382D01*
X006901Y020365D01*
X006875Y020350D01*
X006848Y020340D01*
X006819Y020332D01*
X006790Y020328D01*
X006760Y020328D01*
X006731Y020332D01*
X006702Y020340D01*
X006675Y020350D01*
X006649Y020365D01*
X006625Y020382D01*
X006603Y020402D01*
X006584Y020425D01*
X006568Y020450D01*
X006556Y020477D01*
X006546Y020505D01*
X006541Y020534D01*
X006539Y020564D01*
X009411Y012746D02*
X009411Y011054D01*
X011339Y011054D01*
X011339Y012746D01*
X009411Y012746D01*
X009411Y012136D02*
X009441Y012134D01*
X009470Y012129D01*
X009498Y012119D01*
X009525Y012107D01*
X009550Y012091D01*
X009573Y012072D01*
X009593Y012050D01*
X009610Y012026D01*
X009625Y012000D01*
X009635Y011973D01*
X009643Y011944D01*
X009647Y011915D01*
X009647Y011885D01*
X009643Y011856D01*
X009635Y011827D01*
X009625Y011800D01*
X009610Y011774D01*
X009593Y011750D01*
X009573Y011728D01*
X009550Y011709D01*
X009525Y011693D01*
X009498Y011681D01*
X009470Y011671D01*
X009441Y011666D01*
X009411Y011664D01*
X006035Y010169D02*
X006035Y009831D01*
X005581Y009681D02*
X005369Y009681D01*
X004915Y009831D02*
X004915Y010169D01*
X015011Y012254D02*
X016939Y012254D01*
X016939Y013946D01*
X015011Y013946D01*
X015011Y012254D01*
X015011Y012864D02*
X015041Y012866D01*
X015070Y012871D01*
X015098Y012881D01*
X015125Y012893D01*
X015150Y012909D01*
X015173Y012928D01*
X015193Y012950D01*
X015210Y012974D01*
X015225Y013000D01*
X015235Y013027D01*
X015243Y013056D01*
X015247Y013085D01*
X015247Y013115D01*
X015243Y013144D01*
X015235Y013173D01*
X015225Y013200D01*
X015210Y013226D01*
X015193Y013250D01*
X015173Y013272D01*
X015150Y013291D01*
X015125Y013307D01*
X015098Y013319D01*
X015070Y013329D01*
X015041Y013334D01*
X015011Y013336D01*
D12*
X012586Y017330D02*
X012420Y017330D01*
X012336Y017413D01*
X012670Y017747D01*
X012670Y017413D01*
X012586Y017330D01*
X012336Y017413D02*
X012336Y017747D01*
X012420Y017830D01*
X012586Y017830D01*
X012670Y017747D01*
X012739Y018130D02*
X012405Y018130D01*
X012572Y018130D02*
X012572Y018630D01*
X012405Y018464D01*
X011987Y017830D02*
X011987Y017330D01*
X011821Y017330D02*
X012154Y017330D01*
X011821Y017664D02*
X011987Y017830D01*
X011639Y017664D02*
X011305Y017330D01*
X011305Y017664D02*
X011639Y017330D01*
X011655Y018130D02*
X011488Y018130D01*
X011405Y018213D01*
X011739Y018547D01*
X011739Y018213D01*
X011655Y018130D01*
X011405Y018213D02*
X011405Y018547D01*
X011488Y018630D01*
X011655Y018630D01*
X011739Y018547D01*
X010945Y018574D02*
X010445Y018574D01*
X010945Y018907D01*
X010445Y018907D01*
X010695Y019089D02*
X010695Y019423D01*
X010528Y019605D02*
X010862Y019605D01*
X010945Y019688D01*
X010945Y019855D01*
X010862Y019939D01*
X010695Y019939D01*
X010695Y019772D01*
X010528Y019939D02*
X010445Y019855D01*
X010445Y019688D01*
X010528Y019605D01*
X010611Y020204D02*
X010611Y020371D01*
X010695Y020454D01*
X010945Y020454D01*
X010945Y020204D01*
X010862Y020121D01*
X010778Y020204D01*
X010778Y020454D01*
X010611Y020636D02*
X010611Y020720D01*
X010945Y020720D01*
X010945Y020803D02*
X010945Y020636D01*
X010945Y020980D02*
X010611Y020980D01*
X010611Y021230D01*
X010695Y021314D01*
X010945Y021314D01*
X010445Y020720D02*
X010361Y020720D01*
X010445Y018397D02*
X010445Y018230D01*
X010445Y018313D02*
X010945Y018313D01*
X010945Y018230D02*
X010945Y018397D01*
X013405Y018547D02*
X013488Y018630D01*
X013655Y018630D01*
X013739Y018547D01*
X013739Y018464D01*
X013405Y018130D01*
X013739Y018130D01*
X014405Y018213D02*
X014488Y018130D01*
X014655Y018130D01*
X014739Y018213D01*
X014739Y018297D01*
X014655Y018380D01*
X014572Y018380D01*
X014655Y018380D02*
X014739Y018464D01*
X014739Y018547D01*
X014655Y018630D01*
X014488Y018630D01*
X014405Y018547D01*
X015405Y018380D02*
X015739Y018380D01*
X015655Y018130D02*
X015655Y018630D01*
X015405Y018380D01*
X016405Y018380D02*
X016572Y018464D01*
X016655Y018464D01*
X016739Y018380D01*
X016739Y018213D01*
X016655Y018130D01*
X016488Y018130D01*
X016405Y018213D01*
X016405Y018380D02*
X016405Y018630D01*
X016739Y018630D01*
X017405Y018380D02*
X017405Y018213D01*
X017488Y018130D01*
X017655Y018130D01*
X017739Y018213D01*
X017739Y018297D01*
X017655Y018380D01*
X017405Y018380D01*
X017572Y018547D01*
X017739Y018630D01*
X018405Y018630D02*
X018739Y018630D01*
X018739Y018547D01*
X018405Y018213D01*
X018405Y018130D01*
X019375Y018250D02*
X019375Y017750D01*
X019625Y017500D01*
X021125Y017500D01*
X021375Y017250D01*
X021375Y016750D01*
X021125Y016500D01*
X019625Y016500D01*
X019375Y016750D01*
X019375Y017250D01*
X019625Y017500D01*
X019375Y018250D02*
X019625Y018500D01*
X021125Y018500D01*
X021375Y018250D01*
X021375Y017750D01*
X021125Y017500D01*
X021125Y016500D02*
X021375Y016250D01*
X021375Y015750D01*
X021125Y015500D01*
X019625Y015500D01*
X019375Y015750D01*
X019375Y016250D01*
X019625Y016500D01*
X019625Y015500D02*
X019375Y015250D01*
X019375Y014750D01*
X019625Y014500D01*
X021125Y014500D01*
X021375Y014250D01*
X021375Y013750D01*
X021125Y013500D01*
X019625Y013500D01*
X019375Y013750D01*
X019375Y014250D01*
X019625Y014500D01*
X019625Y013500D02*
X019375Y013250D01*
X019375Y012750D01*
X019625Y012500D01*
X021125Y012500D01*
X021375Y012750D01*
X021375Y013250D01*
X021125Y013500D01*
X021125Y012500D02*
X021375Y012250D01*
X021375Y011750D01*
X021125Y011500D01*
X019625Y011500D01*
X019375Y011750D01*
X019375Y012250D01*
X019625Y012500D01*
X019625Y011500D02*
X019375Y011250D01*
X019375Y010750D01*
X019625Y010500D01*
X021125Y010500D01*
X021375Y010750D01*
X021375Y011250D01*
X021125Y011500D01*
X021125Y010500D02*
X021375Y010250D01*
X021375Y009750D01*
X021125Y009500D01*
X019625Y009500D01*
X019375Y009750D01*
X019375Y010250D01*
X019625Y010500D01*
X019625Y009500D02*
X019375Y009250D01*
X019375Y008750D01*
X019625Y008500D01*
X021125Y008500D01*
X021375Y008750D01*
X021375Y009250D01*
X021125Y009500D01*
X021125Y008500D02*
X021375Y008250D01*
X021375Y007750D01*
X021125Y007500D01*
X019625Y007500D01*
X019375Y007750D01*
X019375Y008250D01*
X019625Y008500D01*
X019625Y007500D02*
X019375Y007250D01*
X019375Y006750D01*
X019625Y006500D01*
X021125Y006500D01*
X021375Y006750D01*
X021375Y007250D01*
X021125Y007500D01*
X021125Y014500D02*
X021375Y014750D01*
X021375Y015250D01*
X021125Y015500D01*
X021125Y018500D02*
X021375Y018750D01*
X021375Y019250D01*
X021125Y019500D01*
X019625Y019500D01*
X019375Y019750D01*
X019375Y020250D01*
X019625Y020500D01*
X021125Y020500D01*
X021375Y020250D01*
X021375Y019750D01*
X021125Y019500D01*
X021125Y020500D02*
X021375Y020750D01*
X021375Y021250D01*
X021125Y021500D01*
X019625Y021500D01*
X019375Y021750D01*
X019375Y022250D01*
X019625Y022500D01*
X019375Y022750D01*
X019375Y023250D01*
X019625Y023500D01*
X019375Y023750D01*
X019375Y024250D01*
X019625Y024500D01*
X019375Y024750D01*
X019375Y025250D01*
X019625Y025500D01*
X019375Y025750D01*
X019375Y026250D01*
X019625Y026500D01*
X019375Y026750D01*
X019375Y027250D01*
X019625Y027500D01*
X019375Y027750D01*
X019375Y028250D01*
X019625Y028500D01*
X019375Y028750D01*
X019375Y029250D01*
X019625Y029500D01*
X021125Y029500D01*
X021375Y029250D01*
X021375Y028750D01*
X021125Y028500D01*
X019625Y028500D01*
X019625Y027500D02*
X021125Y027500D01*
X021375Y027750D01*
X021375Y028250D01*
X021125Y028500D01*
X021125Y027500D02*
X021375Y027250D01*
X021375Y026750D01*
X021125Y026500D01*
X019625Y026500D01*
X019625Y025500D02*
X021125Y025500D01*
X021375Y025750D01*
X021375Y026250D01*
X021125Y026500D01*
X021125Y025500D02*
X021375Y025250D01*
X021375Y024750D01*
X021125Y024500D01*
X019625Y024500D01*
X019625Y023500D02*
X021125Y023500D01*
X021375Y023750D01*
X021375Y024250D01*
X021125Y024500D01*
X021125Y023500D02*
X021375Y023250D01*
X021375Y022750D01*
X021125Y022500D01*
X019625Y022500D01*
X019625Y021500D02*
X019375Y021250D01*
X019375Y020750D01*
X019625Y020500D01*
X019625Y019500D02*
X019375Y019250D01*
X019375Y018750D01*
X019625Y018500D01*
X021125Y021500D02*
X021375Y021750D01*
X021375Y022250D01*
X021125Y022500D01*
X015245Y024913D02*
X015245Y025080D01*
X015162Y025164D01*
X015078Y025164D01*
X014995Y025080D01*
X014995Y024830D01*
X015162Y024830D01*
X015245Y024913D01*
X014995Y024830D02*
X014828Y024997D01*
X014745Y025164D01*
X014995Y025346D02*
X014995Y025679D01*
X015162Y025861D02*
X015245Y025861D01*
X015162Y025861D02*
X014828Y026195D01*
X014745Y026195D01*
X014745Y025861D01*
X013375Y023500D02*
X013375Y022500D01*
X003375Y022500D01*
X003375Y023500D01*
X013375Y023500D01*
X011145Y025080D02*
X010645Y025080D01*
X010895Y024830D01*
X010895Y025164D01*
X010895Y025346D02*
X010895Y025679D01*
X010895Y025861D02*
X010811Y026028D01*
X010811Y026111D01*
X010895Y026195D01*
X011062Y026195D01*
X011145Y026111D01*
X011145Y025945D01*
X011062Y025861D01*
X010895Y025861D02*
X010645Y025861D01*
X010645Y026195D01*
X010728Y028630D02*
X010645Y028713D01*
X010645Y028880D01*
X010728Y028964D01*
X011062Y028630D01*
X011145Y028713D01*
X011145Y028880D01*
X011062Y028964D01*
X010728Y028964D01*
X010895Y029146D02*
X010895Y029479D01*
X010811Y029661D02*
X010645Y029828D01*
X011145Y029828D01*
X011145Y029661D02*
X011145Y029995D01*
X011062Y028630D02*
X010728Y028630D01*
X007145Y028630D02*
X006811Y028964D01*
X006728Y028964D01*
X006645Y028880D01*
X006645Y028713D01*
X006728Y028630D01*
X006895Y029146D02*
X006895Y029479D01*
X007062Y029661D02*
X007145Y029745D01*
X007145Y029911D01*
X007062Y029995D01*
X006978Y029995D01*
X006895Y029911D01*
X006895Y029828D01*
X006895Y029911D02*
X006811Y029995D01*
X006728Y029995D01*
X006645Y029911D01*
X006645Y029745D01*
X006728Y029661D01*
X007145Y028964D02*
X007145Y028630D01*
X006728Y026195D02*
X007062Y025861D01*
X007145Y025861D01*
X006895Y025679D02*
X006895Y025346D01*
X006978Y025164D02*
X006895Y025080D01*
X006895Y024830D01*
X007062Y024830D01*
X007145Y024913D01*
X007145Y025080D01*
X007062Y025164D01*
X006978Y025164D01*
X006728Y024997D02*
X006895Y024830D01*
X006728Y024997D02*
X006645Y025164D01*
X006645Y025861D02*
X006645Y026195D01*
X006728Y026195D01*
X003145Y026111D02*
X003145Y025945D01*
X003062Y025861D01*
X002895Y025861D02*
X002811Y026028D01*
X002811Y026111D01*
X002895Y026195D01*
X003062Y026195D01*
X003145Y026111D01*
X002895Y025861D02*
X002645Y025861D01*
X002645Y026195D01*
X002375Y026250D02*
X002375Y025750D01*
X002125Y025500D01*
X000625Y025500D01*
X000375Y025750D01*
X000375Y026250D01*
X000625Y026500D01*
X000375Y026750D01*
X000375Y027250D01*
X000625Y027500D01*
X000375Y027750D01*
X000375Y028250D01*
X000625Y028500D01*
X000375Y028750D01*
X000375Y029250D01*
X000625Y029500D01*
X002125Y029500D01*
X002375Y029250D01*
X002375Y028750D01*
X002125Y028500D01*
X000625Y028500D01*
X000625Y027500D02*
X002125Y027500D01*
X002375Y027750D01*
X002375Y028250D01*
X002125Y028500D01*
X002645Y028713D02*
X002645Y028880D01*
X002728Y028964D01*
X003062Y028630D01*
X003145Y028713D01*
X003145Y028880D01*
X003062Y028964D01*
X002728Y028964D01*
X002895Y029146D02*
X002895Y029479D01*
X002811Y029661D02*
X002645Y029828D01*
X003145Y029828D01*
X003145Y029661D02*
X003145Y029995D01*
X003062Y028630D02*
X002728Y028630D01*
X002645Y028713D01*
X002125Y027500D02*
X002375Y027250D01*
X002375Y026750D01*
X002125Y026500D01*
X000625Y026500D01*
X000625Y025500D02*
X000375Y025250D01*
X000375Y024750D01*
X000625Y024500D01*
X002125Y024500D01*
X002375Y024750D01*
X002375Y025250D01*
X002125Y025500D01*
X002645Y025080D02*
X002895Y024830D01*
X002895Y025164D01*
X002895Y025346D02*
X002895Y025679D01*
X003145Y025080D02*
X002645Y025080D01*
X002125Y024500D02*
X002375Y024250D01*
X002375Y023750D01*
X002125Y023500D01*
X000625Y023500D01*
X000375Y023750D01*
X000375Y024250D01*
X000625Y024500D01*
X000625Y023500D02*
X000375Y023250D01*
X000375Y022750D01*
X000625Y022500D01*
X002125Y022500D01*
X002375Y022750D01*
X002375Y023250D01*
X002125Y023500D01*
X002125Y022500D02*
X002375Y022250D01*
X002375Y021750D01*
X002125Y021500D01*
X000625Y021500D01*
X000375Y021750D01*
X000375Y022250D01*
X000625Y022500D01*
X000625Y021500D02*
X000375Y021250D01*
X000375Y020750D01*
X000625Y020500D01*
X002125Y020500D01*
X002375Y020250D01*
X002375Y019750D01*
X002125Y019500D01*
X000625Y019500D01*
X000375Y019750D01*
X000375Y020250D01*
X000625Y020500D01*
X000625Y019500D02*
X000375Y019250D01*
X000375Y018750D01*
X000625Y018500D01*
X002125Y018500D01*
X002375Y018250D01*
X002375Y017750D01*
X002125Y017500D01*
X000625Y017500D01*
X000375Y017750D01*
X000375Y018250D01*
X000625Y018500D01*
X000625Y017500D02*
X000375Y017250D01*
X000375Y016750D01*
X000625Y016500D01*
X002125Y016500D01*
X002375Y016250D01*
X002375Y015750D01*
X002125Y015500D01*
X000625Y015500D01*
X000375Y015750D01*
X000375Y016250D01*
X000625Y016500D01*
X000625Y015500D02*
X000375Y015250D01*
X000375Y014750D01*
X000625Y014500D01*
X002125Y014500D01*
X002375Y014250D01*
X002375Y013750D01*
X002125Y013500D01*
X000625Y013500D01*
X000375Y013750D01*
X000375Y014250D01*
X000625Y014500D01*
X000625Y013500D02*
X000375Y013250D01*
X000375Y012750D01*
X000625Y012500D01*
X002125Y012500D01*
X002375Y012750D01*
X002375Y013250D01*
X002125Y013500D01*
X002125Y012500D02*
X002375Y012250D01*
X002375Y011750D01*
X002125Y011500D01*
X000625Y011500D01*
X000375Y011750D01*
X000375Y012250D01*
X000625Y012500D01*
X000625Y011500D02*
X000375Y011250D01*
X000375Y010750D01*
X000625Y010500D01*
X002125Y010500D01*
X002375Y010750D01*
X002375Y011250D01*
X002125Y011500D01*
X002125Y010500D02*
X002375Y010250D01*
X002375Y009750D01*
X002125Y009500D01*
X000625Y009500D01*
X000375Y009750D01*
X000375Y010250D01*
X000625Y010500D01*
X000625Y009500D02*
X000375Y009250D01*
X000375Y008750D01*
X000625Y008500D01*
X002125Y008500D01*
X002375Y008750D01*
X002375Y009250D01*
X002125Y009500D01*
X002125Y008500D02*
X002375Y008250D01*
X002375Y007750D01*
X002125Y007500D01*
X000625Y007500D01*
X000375Y007750D01*
X000375Y008250D01*
X000625Y008500D01*
X000625Y007500D02*
X000375Y007250D01*
X000375Y006750D01*
X000625Y006500D01*
X002125Y006500D01*
X002375Y006750D01*
X002375Y007250D01*
X002125Y007500D01*
X003375Y006500D02*
X003375Y016500D01*
X004375Y016500D01*
X004375Y006500D01*
X003375Y006500D01*
X002125Y014500D02*
X002375Y014750D01*
X002375Y015250D01*
X002125Y015500D01*
X002125Y016500D02*
X002375Y016750D01*
X002375Y017250D01*
X002125Y017500D01*
X002125Y018500D02*
X002375Y018750D01*
X002375Y019250D01*
X002125Y019500D01*
X002125Y020500D02*
X002375Y020750D01*
X002375Y021250D01*
X002125Y021500D01*
X002375Y026250D02*
X002125Y026500D01*
X014645Y028713D02*
X014728Y028630D01*
X014645Y028713D02*
X014645Y028880D01*
X014728Y028964D01*
X014811Y028964D01*
X015145Y028630D01*
X015145Y028964D01*
X014895Y029146D02*
X014895Y029479D01*
X015062Y029661D02*
X015145Y029745D01*
X015145Y029911D01*
X015062Y029995D01*
X014978Y029995D01*
X014895Y029911D01*
X014895Y029828D01*
X014895Y029911D02*
X014811Y029995D01*
X014728Y029995D01*
X014645Y029911D01*
X014645Y029745D01*
X014728Y029661D01*
D13*
X005125Y005250D02*
X000125Y005250D01*
X000125Y029500D01*
X001875Y029500D01*
X002875Y030100D01*
X018875Y030100D01*
X019875Y029500D01*
X021625Y029500D01*
X021625Y005250D01*
X016625Y005250D01*
X017450Y007725D02*
X017600Y007875D01*
X017600Y008175D01*
X017760Y008025D02*
X017760Y007725D01*
X017760Y007875D02*
X017911Y008025D01*
X017986Y008025D01*
X018144Y007950D02*
X018219Y008025D01*
X018369Y008025D01*
X018444Y007950D01*
X018444Y007875D01*
X018144Y007875D01*
X018144Y007800D02*
X018144Y007950D01*
X018144Y007800D02*
X018219Y007725D01*
X018369Y007725D01*
X018680Y007725D02*
X018680Y008100D01*
X018755Y008175D01*
X018755Y007950D02*
X018604Y007950D01*
X017450Y007725D02*
X017300Y007875D01*
X017300Y008175D01*
X014375Y007500D02*
X007375Y007500D01*
X007282Y007498D01*
X007189Y007492D01*
X007097Y007483D01*
X007005Y007469D01*
X006913Y007452D01*
X006823Y007431D01*
X006733Y007406D01*
X006644Y007378D01*
X006557Y007346D01*
X006471Y007310D01*
X006387Y007271D01*
X006304Y007229D01*
X006223Y007183D01*
X006144Y007134D01*
X006068Y007081D01*
X005993Y007026D01*
X005921Y006967D01*
X005851Y006905D01*
X005784Y006841D01*
X005720Y006774D01*
X005658Y006704D01*
X005599Y006632D01*
X005544Y006557D01*
X005491Y006481D01*
X005442Y006402D01*
X005396Y006321D01*
X005354Y006238D01*
X005315Y006154D01*
X005279Y006068D01*
X005247Y005981D01*
X005219Y005892D01*
X005194Y005802D01*
X005173Y005712D01*
X005156Y005620D01*
X005142Y005528D01*
X005133Y005436D01*
X005127Y005343D01*
X005125Y005250D01*
X006986Y011589D02*
X006870Y011706D01*
X006986Y011822D01*
X007220Y011822D01*
X007162Y011957D02*
X007220Y012016D01*
X007220Y012191D01*
X006986Y012191D01*
X007045Y012326D02*
X006986Y012384D01*
X006986Y012559D01*
X006870Y012559D02*
X007220Y012559D01*
X007220Y012384D01*
X007162Y012326D01*
X007045Y012326D01*
X006986Y012694D02*
X006986Y012752D01*
X007220Y012752D01*
X007220Y012694D02*
X007220Y012811D01*
X007162Y012939D02*
X007220Y012998D01*
X007220Y013115D01*
X007162Y013173D01*
X007045Y013173D01*
X006986Y013115D01*
X006986Y012998D01*
X007045Y012939D01*
X007162Y012939D01*
X007370Y012967D02*
X007370Y013084D01*
X007428Y013142D01*
X007370Y012967D02*
X007428Y012909D01*
X007662Y012909D01*
X007720Y012967D01*
X007720Y013084D01*
X007662Y013142D01*
X007662Y013277D02*
X007603Y013335D01*
X007603Y013511D01*
X007545Y013511D02*
X007720Y013511D01*
X007720Y013335D01*
X007662Y013277D01*
X007486Y013335D02*
X007486Y013452D01*
X007545Y013511D01*
X007486Y013645D02*
X007486Y013820D01*
X007545Y013879D01*
X007662Y013879D01*
X007720Y013820D01*
X007720Y013645D01*
X007837Y013645D02*
X007486Y013645D01*
X007220Y013676D02*
X007220Y013910D01*
X007220Y014044D02*
X006986Y014278D01*
X006986Y014413D02*
X006986Y014588D01*
X007045Y014646D01*
X007162Y014646D01*
X007220Y014588D01*
X007220Y014413D01*
X007337Y014413D02*
X006986Y014413D01*
X007220Y014278D02*
X006986Y014044D01*
X006870Y013910D02*
X006870Y013676D01*
X007220Y013676D01*
X007045Y013676D02*
X007045Y013793D01*
X007486Y014072D02*
X007486Y014189D01*
X007545Y014247D01*
X007603Y014247D01*
X007603Y014014D01*
X007545Y014014D02*
X007486Y014072D01*
X007545Y014014D02*
X007662Y014014D01*
X007720Y014072D01*
X007720Y014189D01*
X007720Y014382D02*
X007720Y014499D01*
X007720Y014440D02*
X007370Y014440D01*
X007370Y014382D01*
X007545Y014627D02*
X007486Y014686D01*
X007486Y014803D01*
X007545Y014861D01*
X007603Y014861D01*
X007603Y014627D01*
X007545Y014627D02*
X007662Y014627D01*
X007720Y014686D01*
X007720Y014803D01*
X007662Y015054D02*
X007428Y015054D01*
X007486Y014996D02*
X007486Y015113D01*
X007662Y015054D02*
X007720Y015113D01*
X007220Y015149D02*
X006986Y015149D01*
X006986Y015324D01*
X007045Y015383D01*
X007220Y015383D01*
X007162Y015518D02*
X007220Y015576D01*
X007220Y015751D01*
X006870Y015751D01*
X006986Y015751D02*
X006986Y015576D01*
X007045Y015518D01*
X007162Y015518D01*
X007220Y015014D02*
X007045Y015014D01*
X006986Y014956D01*
X006986Y014839D01*
X007103Y014839D02*
X007103Y015014D01*
X007220Y015014D02*
X007220Y014839D01*
X007162Y014781D01*
X007103Y014839D01*
X007103Y015886D02*
X007103Y016119D01*
X007045Y016119D01*
X006986Y016061D01*
X006986Y015944D01*
X007045Y015886D01*
X007162Y015886D01*
X007220Y015944D01*
X007220Y016061D01*
X007220Y016254D02*
X006986Y016254D01*
X006986Y016371D02*
X006986Y016429D01*
X006986Y016371D02*
X007103Y016254D01*
X006870Y012752D02*
X006811Y012752D01*
X006986Y011957D02*
X007162Y011957D01*
X007045Y011822D02*
X007045Y011589D01*
X006986Y011589D02*
X007220Y011589D01*
X014375Y007500D02*
X014468Y007498D01*
X014561Y007492D01*
X014653Y007483D01*
X014745Y007469D01*
X014837Y007452D01*
X014927Y007431D01*
X015017Y007406D01*
X015106Y007378D01*
X015193Y007346D01*
X015279Y007310D01*
X015363Y007271D01*
X015446Y007229D01*
X015527Y007183D01*
X015606Y007134D01*
X015682Y007081D01*
X015757Y007026D01*
X015829Y006967D01*
X015899Y006905D01*
X015966Y006841D01*
X016030Y006774D01*
X016092Y006704D01*
X016151Y006632D01*
X016206Y006557D01*
X016259Y006481D01*
X016308Y006402D01*
X016354Y006321D01*
X016396Y006238D01*
X016435Y006154D01*
X016471Y006068D01*
X016503Y005981D01*
X016531Y005892D01*
X016556Y005802D01*
X016577Y005712D01*
X016594Y005620D01*
X016608Y005528D01*
X016617Y005436D01*
X016623Y005343D01*
X016625Y005250D01*
D14*
X006725Y012420D03*
X006725Y015760D03*
X004785Y016040D03*
X004775Y016040D03*
X004765Y016040D03*
D15*
X004855Y016035D03*
X004865Y016035D03*
X004875Y016035D03*
X006725Y013485D03*
D16*
X006105Y013645D03*
X006725Y014655D03*
X006705Y012425D03*
X004665Y013885D03*
D17*
X005265Y012710D03*
X006465Y013540D03*
X006715Y012430D03*
X004655Y016160D03*
D18*
X004645Y013885D03*
X005245Y012695D03*
X006445Y013535D03*
X006715Y013495D03*
D19*
X006645Y013495D03*
X006635Y013495D03*
X006665Y012425D03*
X006715Y014665D03*
X006445Y014705D03*
X004695Y013885D03*
D20*
X005255Y012705D03*
X006715Y015775D03*
D21*
X006705Y013490D03*
X005285Y012720D03*
D22*
X006635Y012425D03*
X006575Y013495D03*
X006565Y013495D03*
X006555Y013495D03*
X006545Y013495D03*
X006705Y014655D03*
D23*
X006705Y015770D03*
X006115Y013640D03*
X006695Y013490D03*
D24*
X006685Y013495D03*
X006095Y013655D03*
X006085Y013665D03*
X006695Y012425D03*
X006695Y015765D03*
D25*
X006605Y015770D03*
X006595Y015770D03*
X006585Y015770D03*
X006575Y015770D03*
X006565Y015770D03*
X006695Y014660D03*
X006585Y012430D03*
X006575Y012430D03*
X006565Y012430D03*
X006555Y012430D03*
X006545Y012430D03*
D26*
X006685Y012425D03*
X006675Y013495D03*
X006055Y013675D03*
X006045Y013675D03*
X006035Y013685D03*
X006025Y013685D03*
X005985Y013695D03*
X005975Y013695D03*
X005955Y013705D03*
X006425Y014685D03*
X004675Y013885D03*
D27*
X006685Y014660D03*
D28*
X006685Y015770D03*
X006015Y013690D03*
X006005Y013690D03*
X005995Y013690D03*
X005965Y013700D03*
X005945Y013700D03*
X006665Y013490D03*
X004695Y016160D03*
D29*
X006675Y015770D03*
X006655Y013490D03*
X006675Y012430D03*
D30*
X006675Y014665D03*
D31*
X006665Y014660D03*
D32*
X006465Y014710D03*
X006455Y014710D03*
X006655Y015770D03*
X006665Y015770D03*
D33*
X006625Y013495D03*
X006615Y013495D03*
X006645Y012425D03*
X006655Y012425D03*
D34*
X006655Y014660D03*
X006645Y014660D03*
D35*
X006645Y015770D03*
X006635Y015770D03*
X006605Y013490D03*
X006595Y013490D03*
X006585Y013490D03*
X006535Y013490D03*
D36*
X006635Y014665D03*
D37*
X006625Y015770D03*
X006615Y015770D03*
X006625Y012430D03*
D38*
X006625Y014665D03*
X006615Y014665D03*
D39*
X006615Y012425D03*
X006605Y012425D03*
X006595Y012425D03*
D40*
X006595Y014660D03*
X006585Y014660D03*
X006575Y014660D03*
X006565Y014660D03*
X006555Y014660D03*
X006545Y014660D03*
X006535Y014660D03*
X006605Y014660D03*
D41*
X006555Y015775D03*
X006545Y015775D03*
X006535Y015775D03*
X006535Y012435D03*
D42*
X006525Y011975D03*
X006525Y013055D03*
X005295Y012345D03*
X004645Y014615D03*
D43*
X004705Y014170D03*
X004705Y014150D03*
X004705Y014130D03*
X004705Y014110D03*
X004705Y014090D03*
X004705Y014070D03*
X004705Y014010D03*
X004705Y013950D03*
X004705Y013930D03*
X004705Y013910D03*
X004705Y013890D03*
X004705Y013870D03*
X004705Y013850D03*
X004705Y013830D03*
X004705Y013770D03*
X004705Y013710D03*
X004705Y013690D03*
X004705Y013670D03*
X004705Y013650D03*
X004705Y013630D03*
X004705Y013610D03*
X004705Y013590D03*
X004705Y013530D03*
X005345Y012850D03*
X005345Y012670D03*
X005295Y012640D03*
X005345Y012510D03*
X005345Y012450D03*
X005935Y013490D03*
X005935Y013520D03*
X005935Y013580D03*
X005935Y013640D03*
X005935Y013700D03*
X005935Y013760D03*
X005935Y013820D03*
X005885Y013820D03*
X005885Y013800D03*
X005935Y013880D03*
X006525Y013750D03*
X006525Y013730D03*
X006525Y013710D03*
X006525Y013690D03*
X006525Y013670D03*
X006525Y013650D03*
X006525Y013630D03*
X006525Y013610D03*
X006525Y013590D03*
X006525Y013570D03*
X006525Y013550D03*
X006525Y013530D03*
X006525Y013510D03*
X006525Y013490D03*
X006525Y013470D03*
X006525Y013450D03*
X006525Y013430D03*
X006525Y013410D03*
X006525Y013390D03*
X006525Y013370D03*
X006525Y013350D03*
X006525Y013330D03*
X006525Y013310D03*
X006525Y013290D03*
X006525Y013270D03*
X006525Y013250D03*
X006525Y013230D03*
X006525Y013180D03*
X006525Y013150D03*
X006525Y012700D03*
X006525Y012670D03*
X006525Y012650D03*
X006525Y012630D03*
X006525Y012580D03*
X006525Y012560D03*
X006525Y012540D03*
X006525Y012510D03*
X006525Y012490D03*
X006525Y012470D03*
X006525Y012420D03*
X006525Y012390D03*
X006525Y012370D03*
X006525Y012350D03*
X006525Y012300D03*
X006525Y012270D03*
X006525Y012250D03*
X006525Y012230D03*
X006525Y012180D03*
X006525Y012150D03*
X006525Y012130D03*
X006525Y012110D03*
X006525Y012060D03*
X006525Y012040D03*
X006525Y014230D03*
X006525Y014250D03*
X006525Y014270D03*
X006525Y014300D03*
X006525Y014350D03*
X006525Y014370D03*
X006525Y014390D03*
X006525Y014420D03*
X006525Y014470D03*
X006525Y014490D03*
X006525Y014510D03*
X006525Y014540D03*
X006525Y014590D03*
X006525Y014610D03*
X006525Y014630D03*
X006525Y014660D03*
X006525Y014710D03*
X006525Y014730D03*
X006525Y014750D03*
X006525Y014780D03*
X006525Y014830D03*
X006525Y014850D03*
X006525Y014870D03*
X006525Y014900D03*
X006525Y014950D03*
X006525Y014970D03*
X006525Y014990D03*
X006525Y015400D03*
X006525Y015450D03*
X006525Y015470D03*
X006525Y015490D03*
X006525Y015510D03*
X006525Y015530D03*
X006525Y015550D03*
X006525Y015570D03*
X006525Y015590D03*
X006525Y015610D03*
X006525Y015630D03*
X006525Y015650D03*
X006525Y015670D03*
X006525Y015690D03*
X006525Y015710D03*
X006525Y015730D03*
X006525Y015750D03*
X006525Y015780D03*
X006525Y015830D03*
X006525Y015850D03*
X006525Y015870D03*
X006525Y015900D03*
X006525Y015950D03*
X006525Y015970D03*
X006525Y015990D03*
X006525Y016020D03*
X006475Y015400D03*
X005345Y015870D03*
X005295Y015840D03*
X005295Y015780D03*
X005295Y015760D03*
X005345Y016050D03*
X005345Y016110D03*
X004705Y016110D03*
X004705Y016090D03*
X004705Y016070D03*
X004705Y016050D03*
X004705Y016030D03*
X004705Y016010D03*
X004705Y015990D03*
X004705Y015930D03*
X004705Y015870D03*
X004705Y015820D03*
X004705Y016170D03*
X004705Y016230D03*
X004705Y016250D03*
X004705Y016270D03*
X004705Y016290D03*
X004705Y016310D03*
X004705Y016330D03*
X004705Y016350D03*
X004705Y016410D03*
D44*
X004705Y016385D03*
X004705Y016205D03*
X004705Y016145D03*
X004705Y015965D03*
X004705Y015905D03*
X004705Y015845D03*
X004705Y015795D03*
X005295Y015805D03*
X005295Y015865D03*
X005295Y015945D03*
X005295Y015985D03*
X005295Y016065D03*
X005295Y016105D03*
X005345Y015715D03*
X005345Y015685D03*
X004705Y014045D03*
X004705Y013985D03*
X004705Y013805D03*
X004705Y013745D03*
X004705Y013565D03*
X004705Y013505D03*
X005295Y012905D03*
X005295Y012865D03*
X005345Y012925D03*
X005295Y012785D03*
X005295Y012745D03*
X005295Y012665D03*
X005295Y012605D03*
X005295Y012505D03*
X005295Y012465D03*
X005885Y013525D03*
X005885Y013645D03*
X005935Y013785D03*
X006475Y014235D03*
X006525Y014325D03*
X006525Y014445D03*
X006525Y014565D03*
X006525Y014685D03*
X006525Y014805D03*
X006525Y014925D03*
X006525Y015425D03*
X006525Y015805D03*
X006525Y015925D03*
X006525Y016045D03*
X006525Y013205D03*
X006475Y013155D03*
X006525Y013125D03*
X006525Y012605D03*
X006525Y012445D03*
X006525Y012325D03*
X006525Y012205D03*
X006525Y012085D03*
D45*
X006525Y012830D03*
X004755Y013750D03*
X004755Y013990D03*
X004685Y014620D03*
X004755Y015910D03*
X004755Y016150D03*
D46*
X004825Y016540D03*
X004845Y016540D03*
X004855Y016540D03*
X004875Y016530D03*
X004885Y016530D03*
X004895Y016530D03*
X004905Y016530D03*
X004935Y016520D03*
X004945Y016520D03*
X004955Y016520D03*
X004985Y016510D03*
X004995Y016510D03*
X005025Y016500D03*
X005035Y016500D03*
X005045Y016500D03*
X005065Y016490D03*
X005075Y016490D03*
X005085Y016490D03*
X005095Y016490D03*
X005115Y016480D03*
X005125Y016480D03*
X005135Y016480D03*
X005165Y016470D03*
X005175Y016470D03*
X005185Y016470D03*
X005215Y016460D03*
X005225Y016460D03*
X005235Y016460D03*
X005265Y016450D03*
X005275Y016450D03*
X005285Y016450D03*
X005295Y016440D03*
X005315Y016440D03*
X005325Y016440D03*
X005355Y016430D03*
X005365Y016430D03*
X005375Y016430D03*
X005405Y016420D03*
X005415Y016420D03*
X005425Y016420D03*
X005455Y016410D03*
X005465Y016410D03*
X005485Y016400D03*
X005505Y016400D03*
X005515Y016400D03*
X005535Y016390D03*
X005545Y016390D03*
X005555Y016390D03*
X005565Y016390D03*
X005595Y016380D03*
X005605Y016380D03*
X005615Y016380D03*
X005635Y016370D03*
X005645Y016370D03*
X005655Y016370D03*
X005685Y016360D03*
X005695Y016360D03*
X005705Y016360D03*
X005735Y016350D03*
X005745Y016350D03*
X005755Y016350D03*
X005785Y016340D03*
X005795Y016340D03*
X005805Y016340D03*
X005835Y016330D03*
X005845Y016330D03*
X005875Y016320D03*
X005885Y016320D03*
X005895Y016320D03*
X005915Y016310D03*
X005925Y016310D03*
X005935Y016310D03*
X005945Y016310D03*
X005965Y016300D03*
X005985Y016300D03*
X006015Y016290D03*
X006025Y016290D03*
X006035Y016290D03*
X006065Y016280D03*
X006075Y016280D03*
X006085Y016280D03*
X006105Y016270D03*
X006115Y016270D03*
X006125Y016270D03*
X006135Y016270D03*
X006155Y016260D03*
X006165Y016260D03*
X006175Y016260D03*
X006205Y016250D03*
X006215Y016250D03*
X006225Y016250D03*
X006255Y016240D03*
X006265Y016240D03*
X006275Y016240D03*
X006295Y016230D03*
X006305Y016230D03*
X006315Y016230D03*
X006335Y016220D03*
X006355Y016220D03*
X006365Y016220D03*
X006395Y016210D03*
X006405Y016210D03*
X006415Y016210D03*
X006445Y016200D03*
X006455Y016200D03*
X006465Y016200D03*
X006495Y016190D03*
X006505Y016190D03*
X006515Y016180D03*
X006245Y015550D03*
X006235Y015550D03*
X006195Y015560D03*
X006185Y015560D03*
X006155Y015570D03*
X006145Y015570D03*
X006135Y015570D03*
X006105Y015580D03*
X006095Y015580D03*
X006085Y015580D03*
X006055Y015590D03*
X006045Y015590D03*
X006025Y015590D03*
X006005Y015600D03*
X005995Y015600D03*
X005985Y015600D03*
X005955Y015610D03*
X005945Y015610D03*
X005905Y015620D03*
X005895Y015620D03*
X005855Y015630D03*
X005845Y015630D03*
X005835Y015630D03*
X005815Y015640D03*
X005805Y015640D03*
X005795Y015640D03*
X005765Y015650D03*
X005755Y015650D03*
X005745Y015650D03*
X005715Y015660D03*
X005705Y015660D03*
X005695Y015660D03*
X005665Y015670D03*
X005655Y015670D03*
X005645Y015670D03*
X005615Y015680D03*
X005605Y015680D03*
X005595Y015680D03*
X005565Y015690D03*
X005555Y015690D03*
X005545Y015690D03*
X006285Y015540D03*
X006295Y015540D03*
X006335Y015530D03*
X006345Y015530D03*
X006365Y015520D03*
X006385Y015520D03*
X006395Y015520D03*
X006525Y015120D03*
X006395Y014350D03*
X006385Y014350D03*
X006375Y014350D03*
X006345Y014360D03*
X006335Y014360D03*
X006325Y014360D03*
X006295Y014370D03*
X006285Y014370D03*
X006275Y014370D03*
X006245Y014380D03*
X006235Y014380D03*
X006205Y014390D03*
X006195Y014390D03*
X006175Y014390D03*
X006155Y014400D03*
X006145Y014400D03*
X006135Y014400D03*
X006105Y014410D03*
X006095Y014410D03*
X006085Y014410D03*
X006055Y014420D03*
X006045Y014420D03*
X006025Y014420D03*
X006005Y014430D03*
X005995Y014430D03*
X005985Y014430D03*
X005965Y014440D03*
X005955Y014440D03*
X005945Y014440D03*
X005935Y014440D03*
X005915Y014450D03*
X005905Y014450D03*
X005895Y014450D03*
X005865Y014460D03*
X005855Y014460D03*
X005845Y014460D03*
X005835Y014460D03*
X005815Y014470D03*
X005805Y014470D03*
X005795Y014470D03*
X005765Y014480D03*
X005755Y014480D03*
X005735Y014480D03*
X005715Y014490D03*
X005705Y014490D03*
X005675Y014500D03*
X005665Y014500D03*
X005655Y014500D03*
X005625Y014510D03*
X005615Y014510D03*
X005605Y014510D03*
X005575Y014520D03*
X005565Y014520D03*
X005555Y014520D03*
X005525Y014530D03*
X005515Y014530D03*
X005475Y014540D03*
X005465Y014540D03*
X005435Y014550D03*
X005425Y014550D03*
X005415Y014550D03*
X005385Y014560D03*
X005375Y014560D03*
X005365Y014560D03*
X005335Y014570D03*
X005325Y014570D03*
X005315Y014570D03*
X005285Y014580D03*
X005275Y014580D03*
X005265Y014580D03*
X005235Y014590D03*
X005225Y014590D03*
X005195Y014600D03*
X005185Y014600D03*
X005175Y014600D03*
X005145Y014610D03*
X005135Y014610D03*
X005125Y014610D03*
X005115Y014610D03*
X005095Y014620D03*
X005085Y014620D03*
X005065Y014620D03*
X005045Y014630D03*
X005035Y014630D03*
X005025Y014630D03*
X004995Y014640D03*
X004985Y014640D03*
X004975Y014640D03*
X004945Y014650D03*
X004935Y014650D03*
X004905Y014660D03*
X004895Y014660D03*
X004885Y014660D03*
X004855Y014670D03*
X004845Y014670D03*
X004835Y014670D03*
X004675Y014620D03*
X004825Y014280D03*
X004835Y014280D03*
X004845Y014280D03*
X004855Y014280D03*
X004875Y014270D03*
X004885Y014270D03*
X004895Y014270D03*
X004915Y014260D03*
X004935Y014260D03*
X004945Y014260D03*
X004975Y014250D03*
X004985Y014250D03*
X004995Y014250D03*
X005025Y014240D03*
X005035Y014240D03*
X005045Y014240D03*
X005065Y014230D03*
X005085Y014230D03*
X005095Y014230D03*
X005125Y014220D03*
X005135Y014220D03*
X005145Y014220D03*
X005175Y014210D03*
X005185Y014210D03*
X005195Y014210D03*
X005205Y014200D03*
X005225Y014200D03*
X005235Y014200D03*
X005265Y014190D03*
X005285Y014190D03*
X005315Y014180D03*
X005325Y014180D03*
X005335Y014180D03*
X005375Y014170D03*
X005385Y014170D03*
X005415Y014160D03*
X005425Y014160D03*
X005435Y014160D03*
X005465Y014150D03*
X005475Y014150D03*
X005485Y014150D03*
X005505Y014140D03*
X005525Y014140D03*
X005535Y014140D03*
X005565Y014130D03*
X005575Y014130D03*
X005585Y014130D03*
X005595Y014120D03*
X005615Y014120D03*
X005625Y014120D03*
X005655Y014110D03*
X005665Y014110D03*
X005675Y014110D03*
X005715Y014100D03*
X005725Y014100D03*
X005755Y014090D03*
X005765Y014090D03*
X005775Y014090D03*
X005805Y014080D03*
X005815Y014080D03*
X005825Y014080D03*
X005845Y014070D03*
X005865Y014070D03*
X005875Y014070D03*
X005905Y014060D03*
X005915Y014060D03*
X005925Y014060D03*
X005785Y013390D03*
X005775Y013390D03*
X005765Y013390D03*
X005755Y013390D03*
X005735Y013400D03*
X005725Y013400D03*
X005715Y013400D03*
X005685Y013410D03*
X005675Y013410D03*
X005665Y013410D03*
X005645Y013420D03*
X005635Y013420D03*
X005625Y013420D03*
X005615Y013420D03*
X005595Y013430D03*
X005585Y013430D03*
X005575Y013430D03*
X005565Y013430D03*
X005545Y013440D03*
X005535Y013440D03*
X005525Y013440D03*
X005495Y013450D03*
X005485Y013450D03*
X005475Y013450D03*
X005455Y013460D03*
X005445Y013460D03*
X005435Y013460D03*
X005415Y013460D03*
X005405Y013470D03*
X005395Y013470D03*
X005385Y013470D03*
X005355Y013480D03*
X005345Y013480D03*
X005335Y013480D03*
X005305Y013490D03*
X005295Y013490D03*
X005285Y013490D03*
X005265Y013500D03*
X005255Y013500D03*
X005245Y013500D03*
X005235Y013500D03*
X005215Y013510D03*
X005205Y013510D03*
X005195Y013510D03*
X005165Y013520D03*
X005155Y013520D03*
X005125Y013530D03*
X005115Y013530D03*
X005105Y013530D03*
X005095Y013530D03*
X005075Y013540D03*
X005065Y013540D03*
X005055Y013540D03*
X005025Y013550D03*
X005015Y013550D03*
X004995Y013550D03*
X004975Y013560D03*
X004965Y013560D03*
X004955Y013560D03*
X005295Y013040D03*
X005405Y013070D03*
X005415Y013070D03*
X005425Y013070D03*
X005455Y013060D03*
X005465Y013060D03*
X005475Y013060D03*
X005505Y013050D03*
X005515Y013050D03*
X005525Y013050D03*
X005555Y013040D03*
X005565Y013040D03*
X005595Y013030D03*
X005605Y013030D03*
X005615Y013030D03*
X005645Y013020D03*
X005655Y013020D03*
X005665Y013020D03*
X005695Y013010D03*
X005705Y013010D03*
X005715Y013010D03*
X005745Y013000D03*
X005755Y013000D03*
X005765Y013000D03*
X005785Y012990D03*
X005805Y012990D03*
X005815Y012990D03*
X005845Y012980D03*
X005855Y012980D03*
X005895Y012970D03*
X005905Y012970D03*
X005935Y012960D03*
X005945Y012960D03*
X005955Y012960D03*
X005995Y012950D03*
X006005Y012950D03*
X006035Y012940D03*
X006045Y012940D03*
X006055Y012940D03*
X006075Y012930D03*
X006085Y012930D03*
X006095Y012930D03*
X006105Y012930D03*
X006135Y012920D03*
X006145Y012920D03*
X006155Y012920D03*
X006175Y012910D03*
X006185Y012910D03*
X006195Y012910D03*
X006215Y012900D03*
X006235Y012900D03*
X006245Y012900D03*
X006275Y012890D03*
X006285Y012890D03*
X006295Y012890D03*
X006325Y012880D03*
X006335Y012880D03*
X006345Y012880D03*
X006375Y012870D03*
X006385Y012870D03*
X006395Y012870D03*
X006415Y012860D03*
X006425Y012860D03*
X006435Y012860D03*
X006445Y012860D03*
X006465Y012850D03*
X006485Y012850D03*
X006515Y012840D03*
X006395Y013260D03*
X006385Y013260D03*
X006375Y013260D03*
X006345Y013270D03*
X006335Y013270D03*
X006305Y013280D03*
X006295Y013280D03*
X006285Y013280D03*
X006275Y013280D03*
X006255Y013290D03*
X006245Y013290D03*
X006235Y013290D03*
X006205Y013300D03*
X006195Y013300D03*
X006185Y013300D03*
X006155Y013310D03*
X006145Y013310D03*
X006135Y013310D03*
X005815Y013380D03*
X005795Y013380D03*
X005125Y012440D03*
X005115Y012440D03*
X005105Y012440D03*
X005075Y012450D03*
X005065Y012450D03*
X005055Y012450D03*
X005025Y012460D03*
X005015Y012460D03*
X004975Y012470D03*
X004965Y012470D03*
X004935Y012480D03*
X004925Y012480D03*
X004915Y012480D03*
X004885Y012490D03*
X004875Y012490D03*
X004865Y012490D03*
X004835Y012500D03*
X004825Y012500D03*
X004805Y012500D03*
X005145Y012430D03*
X005165Y012430D03*
X005175Y012430D03*
X005205Y012420D03*
X005215Y012420D03*
X005225Y012420D03*
X005545Y012350D03*
X005555Y012350D03*
X005585Y012340D03*
X005595Y012340D03*
X005605Y012340D03*
X005635Y012330D03*
X005645Y012330D03*
X005655Y012330D03*
X005685Y012320D03*
X005695Y012320D03*
X005705Y012320D03*
X005735Y012310D03*
X005745Y012310D03*
X005775Y012300D03*
X005785Y012300D03*
X005795Y012300D03*
X005825Y012290D03*
X005835Y012290D03*
X005845Y012290D03*
X005875Y012280D03*
X005885Y012280D03*
X005895Y012280D03*
X005925Y012270D03*
X005935Y012270D03*
X005945Y012270D03*
X005975Y012260D03*
X005985Y012260D03*
X005995Y012260D03*
X006015Y012250D03*
X006025Y012250D03*
X006035Y012250D03*
X006075Y012240D03*
X006085Y012240D03*
X006115Y012230D03*
X006125Y012230D03*
X006135Y012230D03*
X006165Y012220D03*
X006175Y012220D03*
X006185Y012220D03*
X006215Y012210D03*
X006225Y012210D03*
X006235Y012210D03*
X006255Y012200D03*
X006265Y012200D03*
X006275Y012200D03*
X006305Y012190D03*
X006315Y012190D03*
X006325Y012190D03*
X006345Y012180D03*
X006365Y012180D03*
X006375Y012180D03*
X006405Y012170D03*
X006525Y013870D03*
D47*
X006525Y014155D03*
X006525Y015325D03*
X005295Y016235D03*
X004755Y013565D03*
D48*
X004685Y012445D03*
X006475Y013845D03*
X006525Y016175D03*
D49*
X006255Y016055D03*
X006065Y016095D03*
X006025Y016105D03*
X005925Y016125D03*
X005835Y016145D03*
X005795Y016155D03*
X005735Y016165D03*
X005645Y016185D03*
X005595Y016195D03*
X005335Y016245D03*
X005325Y016245D03*
X005315Y016245D03*
X005215Y016275D03*
X005175Y016285D03*
X005125Y016295D03*
X005075Y016305D03*
X004985Y016325D03*
X004705Y015735D03*
X004745Y015715D03*
X005345Y015775D03*
X005355Y015545D03*
X005405Y015535D03*
X005455Y015525D03*
X005505Y015515D03*
X005655Y015485D03*
X005755Y015465D03*
X005845Y015445D03*
X005945Y015425D03*
X006135Y015385D03*
X006185Y015375D03*
X006235Y015365D03*
X006285Y015355D03*
X006515Y015315D03*
X005655Y014315D03*
X005605Y014325D03*
X005565Y014335D03*
X005465Y014355D03*
X005415Y014365D03*
X005375Y014375D03*
X005325Y014385D03*
X005225Y014405D03*
X005125Y014425D03*
X004985Y014455D03*
X004935Y014465D03*
X004885Y014475D03*
X004835Y014485D03*
X005125Y014035D03*
X005175Y014025D03*
X005275Y014005D03*
X005375Y013985D03*
X005425Y013975D03*
X005515Y013955D03*
X005565Y013945D03*
X005615Y013935D03*
X005715Y014305D03*
X005805Y014285D03*
X005855Y014275D03*
X005895Y014265D03*
X005995Y014245D03*
X006045Y014235D03*
X006135Y014215D03*
X006195Y014205D03*
X006285Y014185D03*
X006335Y014175D03*
X006375Y014165D03*
X006425Y014155D03*
X006475Y014145D03*
X006515Y014145D03*
X006285Y013095D03*
X006235Y013105D03*
X006145Y013125D03*
X006095Y013135D03*
X006045Y013145D03*
X006005Y013155D03*
X005955Y013165D03*
X005765Y013205D03*
X005715Y013215D03*
X005575Y013245D03*
X005485Y013265D03*
X005385Y013285D03*
X005245Y013315D03*
X005195Y013325D03*
X005105Y013345D03*
X004865Y013395D03*
X004705Y013445D03*
X005555Y012855D03*
X005605Y012845D03*
X005655Y012835D03*
X005795Y012805D03*
X005845Y012795D03*
X006085Y012745D03*
X006185Y012725D03*
X006375Y012685D03*
X006515Y013055D03*
X006315Y012005D03*
X006365Y011995D03*
X006455Y011975D03*
X006505Y011965D03*
X006515Y011965D03*
X006215Y012025D03*
X005975Y012075D03*
X005735Y012125D03*
X005685Y012135D03*
X005545Y012165D03*
X005445Y012185D03*
X005305Y012215D03*
X005205Y012235D03*
X005305Y012335D03*
X005315Y012335D03*
X005325Y012335D03*
X005335Y012335D03*
X004965Y012285D03*
X004925Y012295D03*
X004915Y012295D03*
X004825Y012315D03*
X004775Y012325D03*
D50*
X005935Y013340D03*
X006515Y013880D03*
X004785Y014680D03*
X004775Y014680D03*
X004765Y014680D03*
X004755Y014680D03*
X004755Y014290D03*
X004765Y014290D03*
X004775Y014290D03*
X004705Y016530D03*
X004755Y016550D03*
X004765Y016550D03*
X004775Y016550D03*
D51*
X004745Y016545D03*
X004725Y016545D03*
X004725Y014675D03*
X004745Y014675D03*
X004665Y014625D03*
X004735Y014285D03*
X004745Y014285D03*
X004705Y014275D03*
X005325Y013075D03*
X005335Y013075D03*
X005345Y013075D03*
X004755Y012505D03*
X004745Y012505D03*
X004735Y012505D03*
X004665Y012445D03*
X006495Y015125D03*
X006515Y015125D03*
D52*
X006475Y015095D03*
X006405Y015515D03*
X006375Y015525D03*
X006355Y015525D03*
X006325Y015535D03*
X006315Y015535D03*
X006305Y015535D03*
X006275Y015545D03*
X006265Y015545D03*
X006255Y015545D03*
X006225Y015555D03*
X006215Y015555D03*
X006205Y015555D03*
X006175Y015565D03*
X006165Y015565D03*
X006125Y015575D03*
X006115Y015575D03*
X006075Y015585D03*
X006065Y015585D03*
X006035Y015595D03*
X006015Y015595D03*
X005975Y015605D03*
X005965Y015605D03*
X005935Y015615D03*
X005925Y015615D03*
X005915Y015615D03*
X005885Y015625D03*
X005875Y015625D03*
X005865Y015625D03*
X005825Y015635D03*
X005785Y015645D03*
X005775Y015645D03*
X005735Y015655D03*
X005725Y015655D03*
X005685Y015665D03*
X005675Y015665D03*
X005635Y015675D03*
X005625Y015675D03*
X005585Y015685D03*
X005575Y015685D03*
X005715Y016355D03*
X005725Y016355D03*
X005765Y016345D03*
X005775Y016345D03*
X005815Y016335D03*
X005825Y016335D03*
X005855Y016325D03*
X005865Y016325D03*
X005905Y016315D03*
X005955Y016305D03*
X005975Y016305D03*
X005995Y016295D03*
X006005Y016295D03*
X006045Y016285D03*
X006055Y016285D03*
X006095Y016275D03*
X006145Y016265D03*
X006185Y016255D03*
X006195Y016255D03*
X006235Y016245D03*
X006245Y016245D03*
X006285Y016235D03*
X006325Y016225D03*
X006345Y016225D03*
X006375Y016215D03*
X006385Y016215D03*
X006425Y016205D03*
X006435Y016205D03*
X006475Y016195D03*
X006485Y016195D03*
X005675Y016365D03*
X005665Y016365D03*
X005625Y016375D03*
X005585Y016385D03*
X005575Y016385D03*
X005525Y016395D03*
X005495Y016405D03*
X005475Y016405D03*
X005445Y016415D03*
X005435Y016415D03*
X005395Y016425D03*
X005385Y016425D03*
X005345Y016435D03*
X005335Y016435D03*
X005305Y016445D03*
X005255Y016455D03*
X005245Y016455D03*
X005205Y016465D03*
X005195Y016465D03*
X005155Y016475D03*
X005145Y016475D03*
X005105Y016485D03*
X005055Y016495D03*
X005015Y016505D03*
X005005Y016505D03*
X004975Y016515D03*
X004965Y016515D03*
X004925Y016525D03*
X004915Y016525D03*
X004865Y016535D03*
X004835Y016545D03*
X004815Y016545D03*
X004805Y016545D03*
X004795Y016545D03*
X004785Y016545D03*
X004795Y014675D03*
X004805Y014675D03*
X004815Y014675D03*
X004825Y014675D03*
X004865Y014665D03*
X004875Y014665D03*
X004915Y014655D03*
X004925Y014655D03*
X004955Y014645D03*
X004965Y014645D03*
X005005Y014635D03*
X005015Y014635D03*
X005055Y014625D03*
X005075Y014625D03*
X005105Y014615D03*
X005155Y014605D03*
X005165Y014605D03*
X005205Y014595D03*
X005215Y014595D03*
X005245Y014585D03*
X005255Y014585D03*
X005295Y014575D03*
X005305Y014575D03*
X005345Y014565D03*
X005355Y014565D03*
X005395Y014555D03*
X005405Y014555D03*
X005445Y014545D03*
X005455Y014545D03*
X005485Y014535D03*
X005495Y014535D03*
X005505Y014535D03*
X005535Y014525D03*
X005545Y014525D03*
X005585Y014515D03*
X005595Y014515D03*
X005635Y014505D03*
X005645Y014505D03*
X005685Y014495D03*
X005695Y014495D03*
X005725Y014485D03*
X005745Y014485D03*
X005775Y014475D03*
X005785Y014475D03*
X005825Y014465D03*
X005875Y014455D03*
X005885Y014455D03*
X005925Y014445D03*
X005975Y014435D03*
X006015Y014425D03*
X006035Y014425D03*
X006065Y014415D03*
X006075Y014415D03*
X006115Y014405D03*
X006125Y014405D03*
X006165Y014395D03*
X006185Y014395D03*
X006215Y014385D03*
X006225Y014385D03*
X006255Y014375D03*
X006265Y014375D03*
X006305Y014365D03*
X006315Y014365D03*
X006355Y014355D03*
X006365Y014355D03*
X006405Y014345D03*
X005895Y014065D03*
X005885Y014065D03*
X005855Y014075D03*
X005835Y014075D03*
X005795Y014085D03*
X005785Y014085D03*
X005745Y014095D03*
X005735Y014095D03*
X005705Y014105D03*
X005695Y014105D03*
X005685Y014105D03*
X005645Y014115D03*
X005635Y014115D03*
X005605Y014125D03*
X005555Y014135D03*
X005545Y014135D03*
X005515Y014145D03*
X005495Y014145D03*
X005455Y014155D03*
X005445Y014155D03*
X005405Y014165D03*
X005395Y014165D03*
X005365Y014175D03*
X005355Y014175D03*
X005345Y014175D03*
X005305Y014185D03*
X005295Y014185D03*
X005275Y014195D03*
X005255Y014195D03*
X005245Y014195D03*
X005215Y014205D03*
X005165Y014215D03*
X005155Y014215D03*
X005115Y014225D03*
X005105Y014225D03*
X005075Y014235D03*
X005055Y014235D03*
X005015Y014245D03*
X005005Y014245D03*
X004965Y014255D03*
X004955Y014255D03*
X004925Y014265D03*
X004905Y014265D03*
X004865Y014275D03*
X004815Y014285D03*
X004805Y014285D03*
X004795Y014285D03*
X004785Y014285D03*
X004985Y013555D03*
X005005Y013555D03*
X005035Y013545D03*
X005045Y013545D03*
X005085Y013535D03*
X005135Y013525D03*
X005145Y013525D03*
X005175Y013515D03*
X005185Y013515D03*
X005225Y013505D03*
X005275Y013495D03*
X005315Y013485D03*
X005325Y013485D03*
X005365Y013475D03*
X005375Y013475D03*
X005425Y013465D03*
X005465Y013455D03*
X005505Y013445D03*
X005515Y013445D03*
X005555Y013435D03*
X005605Y013425D03*
X005655Y013415D03*
X005695Y013405D03*
X005705Y013405D03*
X005745Y013395D03*
X005805Y013385D03*
X005885Y013365D03*
X006125Y013315D03*
X006165Y013305D03*
X006175Y013305D03*
X006215Y013295D03*
X006225Y013295D03*
X006265Y013285D03*
X006315Y013275D03*
X006325Y013275D03*
X006355Y013265D03*
X006365Y013265D03*
X006405Y013255D03*
X006315Y012885D03*
X006305Y012885D03*
X006265Y012895D03*
X006255Y012895D03*
X006225Y012905D03*
X006205Y012905D03*
X006165Y012915D03*
X006125Y012925D03*
X006115Y012925D03*
X006065Y012935D03*
X006025Y012945D03*
X006015Y012945D03*
X005985Y012955D03*
X005975Y012955D03*
X005965Y012955D03*
X005925Y012965D03*
X005915Y012965D03*
X005885Y012975D03*
X005875Y012975D03*
X005865Y012975D03*
X005835Y012985D03*
X005825Y012985D03*
X005795Y012995D03*
X005775Y012995D03*
X005735Y013005D03*
X005725Y013005D03*
X005685Y013015D03*
X005675Y013015D03*
X005635Y013025D03*
X005625Y013025D03*
X005585Y013035D03*
X005575Y013035D03*
X005545Y013045D03*
X005535Y013045D03*
X005495Y013055D03*
X005485Y013055D03*
X005445Y013065D03*
X005435Y013065D03*
X005395Y013075D03*
X005385Y013075D03*
X005375Y013075D03*
X005365Y013075D03*
X005355Y013075D03*
X005095Y012445D03*
X005085Y012445D03*
X005045Y012455D03*
X005035Y012455D03*
X005005Y012465D03*
X004995Y012465D03*
X004985Y012465D03*
X004955Y012475D03*
X004945Y012475D03*
X004905Y012485D03*
X004895Y012485D03*
X004855Y012495D03*
X004845Y012495D03*
X004815Y012505D03*
X004795Y012505D03*
X004785Y012505D03*
X004775Y012505D03*
X004765Y012505D03*
X004675Y012445D03*
X005135Y012435D03*
X005155Y012435D03*
X005185Y012425D03*
X005195Y012425D03*
X005565Y012345D03*
X005575Y012345D03*
X005615Y012335D03*
X005625Y012335D03*
X005665Y012325D03*
X005675Y012325D03*
X005715Y012315D03*
X005725Y012315D03*
X005755Y012305D03*
X005765Y012305D03*
X005805Y012295D03*
X005815Y012295D03*
X005855Y012285D03*
X005865Y012285D03*
X005905Y012275D03*
X005915Y012275D03*
X005955Y012265D03*
X005965Y012265D03*
X006005Y012255D03*
X006045Y012245D03*
X006055Y012245D03*
X006065Y012245D03*
X006095Y012235D03*
X006105Y012235D03*
X006145Y012225D03*
X006155Y012225D03*
X006195Y012215D03*
X006205Y012215D03*
X006245Y012205D03*
X006285Y012195D03*
X006295Y012195D03*
X006335Y012185D03*
X006355Y012185D03*
X006385Y012175D03*
X006395Y012175D03*
X006495Y012845D03*
X006505Y012845D03*
X006475Y012855D03*
X006455Y012855D03*
X006405Y012865D03*
X006365Y012875D03*
X006355Y012875D03*
D53*
X006325Y012700D03*
X006315Y012700D03*
X006305Y012700D03*
X006295Y012700D03*
X006285Y012700D03*
X006275Y012710D03*
X006265Y012710D03*
X006255Y012710D03*
X006245Y012710D03*
X006235Y012710D03*
X006225Y012720D03*
X006215Y012720D03*
X006205Y012720D03*
X006195Y012720D03*
X006175Y012730D03*
X006165Y012730D03*
X006155Y012730D03*
X006145Y012730D03*
X006135Y012730D03*
X006125Y012740D03*
X006115Y012740D03*
X006105Y012740D03*
X006095Y012740D03*
X006075Y012750D03*
X006065Y012750D03*
X006055Y012750D03*
X006045Y012750D03*
X006035Y012760D03*
X006025Y012760D03*
X006015Y012760D03*
X006005Y012760D03*
X005995Y012760D03*
X005985Y012770D03*
X005975Y012770D03*
X005965Y012770D03*
X005955Y012770D03*
X005945Y012770D03*
X005935Y012780D03*
X005925Y012780D03*
X005915Y012780D03*
X005905Y012780D03*
X005895Y012780D03*
X005885Y012790D03*
X005875Y012790D03*
X005865Y012790D03*
X005855Y012790D03*
X005835Y012800D03*
X005825Y012800D03*
X005815Y012800D03*
X005805Y012800D03*
X005785Y012810D03*
X005775Y012810D03*
X005765Y012810D03*
X005755Y012810D03*
X005745Y012820D03*
X005735Y012820D03*
X005725Y012820D03*
X005715Y012820D03*
X005705Y012820D03*
X005695Y012830D03*
X005685Y012830D03*
X005675Y012830D03*
X005665Y012830D03*
X005635Y012840D03*
X005625Y012840D03*
X005615Y012840D03*
X005595Y012850D03*
X005585Y012850D03*
X005575Y012850D03*
X005565Y012850D03*
X005545Y012860D03*
X005625Y013230D03*
X005635Y013230D03*
X005645Y013230D03*
X005655Y013230D03*
X005665Y013230D03*
X005675Y013220D03*
X005685Y013220D03*
X005695Y013220D03*
X005705Y013220D03*
X005725Y013210D03*
X005735Y013210D03*
X005745Y013210D03*
X005755Y013210D03*
X005775Y013200D03*
X005785Y013200D03*
X005795Y013200D03*
X005805Y013200D03*
X005815Y013190D03*
X005825Y013190D03*
X005835Y013190D03*
X005845Y013190D03*
X005855Y013190D03*
X005865Y013180D03*
X005875Y013180D03*
X005885Y013180D03*
X005895Y013180D03*
X005905Y013170D03*
X005915Y013170D03*
X005925Y013170D03*
X005935Y013170D03*
X005965Y013160D03*
X005975Y013160D03*
X005985Y013160D03*
X005995Y013160D03*
X006015Y013150D03*
X006025Y013150D03*
X006035Y013150D03*
X006055Y013140D03*
X006065Y013140D03*
X006075Y013140D03*
X006085Y013140D03*
X006105Y013130D03*
X006115Y013130D03*
X006125Y013130D03*
X006135Y013130D03*
X006155Y013120D03*
X006165Y013120D03*
X006175Y013120D03*
X006185Y013120D03*
X006195Y013110D03*
X006205Y013110D03*
X006215Y013110D03*
X006225Y013110D03*
X006245Y013100D03*
X006255Y013100D03*
X006265Y013100D03*
X006275Y013100D03*
X006295Y013090D03*
X006305Y013090D03*
X006315Y013090D03*
X006325Y013090D03*
X006335Y013080D03*
X006345Y013080D03*
X006355Y013080D03*
X006365Y013080D03*
X006375Y013080D03*
X006385Y013070D03*
X006395Y013070D03*
X006405Y013070D03*
X006415Y013070D03*
X006425Y013060D03*
X006435Y013060D03*
X006445Y013060D03*
X006455Y013060D03*
X006465Y013060D03*
X006475Y013050D03*
X006485Y013050D03*
X006495Y013050D03*
X006505Y013050D03*
X006475Y013210D03*
X006475Y013370D03*
X006475Y013530D03*
X006475Y013690D03*
X006485Y014140D03*
X006495Y014140D03*
X006505Y014140D03*
X006455Y014150D03*
X006445Y014150D03*
X006435Y014150D03*
X006415Y014160D03*
X006405Y014160D03*
X006395Y014160D03*
X006385Y014160D03*
X006365Y014170D03*
X006355Y014170D03*
X006345Y014170D03*
X006315Y014180D03*
X006305Y014180D03*
X006295Y014180D03*
X006275Y014190D03*
X006265Y014190D03*
X006255Y014190D03*
X006245Y014190D03*
X006235Y014190D03*
X006225Y014200D03*
X006215Y014200D03*
X006205Y014200D03*
X006185Y014200D03*
X006175Y014210D03*
X006165Y014210D03*
X006155Y014210D03*
X006145Y014210D03*
X006125Y014220D03*
X006115Y014220D03*
X006105Y014220D03*
X006095Y014220D03*
X006085Y014230D03*
X006075Y014230D03*
X006065Y014230D03*
X006055Y014230D03*
X006035Y014240D03*
X006025Y014240D03*
X006015Y014240D03*
X006005Y014240D03*
X005975Y014250D03*
X005965Y014250D03*
X005955Y014250D03*
X005945Y014250D03*
X005935Y014260D03*
X005925Y014260D03*
X005915Y014260D03*
X005905Y014260D03*
X005885Y014270D03*
X005875Y014270D03*
X005865Y014270D03*
X005835Y014280D03*
X005825Y014280D03*
X005815Y014280D03*
X005785Y014290D03*
X005775Y014290D03*
X005765Y014290D03*
X005755Y014290D03*
X005745Y014300D03*
X005735Y014300D03*
X005725Y014300D03*
X005705Y014300D03*
X005695Y014310D03*
X005685Y014310D03*
X005675Y014310D03*
X005665Y014310D03*
X005645Y014320D03*
X005635Y014320D03*
X005625Y014320D03*
X005615Y014320D03*
X005595Y014330D03*
X005585Y014330D03*
X005575Y014330D03*
X005555Y014340D03*
X005545Y014340D03*
X005535Y014340D03*
X005525Y014340D03*
X005515Y014340D03*
X005505Y014350D03*
X005495Y014350D03*
X005485Y014350D03*
X005475Y014350D03*
X005455Y014360D03*
X005445Y014360D03*
X005435Y014360D03*
X005425Y014360D03*
X005405Y014370D03*
X005395Y014370D03*
X005385Y014370D03*
X005365Y014370D03*
X005355Y014380D03*
X005345Y014380D03*
X005335Y014380D03*
X005315Y014390D03*
X005305Y014390D03*
X005295Y014390D03*
X005285Y014390D03*
X005275Y014390D03*
X005265Y014400D03*
X005255Y014400D03*
X005245Y014400D03*
X005235Y014400D03*
X005215Y014410D03*
X005205Y014410D03*
X005195Y014410D03*
X005185Y014410D03*
X005175Y014410D03*
X005165Y014420D03*
X005155Y014420D03*
X005145Y014420D03*
X005135Y014420D03*
X005115Y014430D03*
X005105Y014430D03*
X005095Y014430D03*
X005085Y014430D03*
X005075Y014440D03*
X005065Y014440D03*
X005055Y014440D03*
X005045Y014440D03*
X005035Y014440D03*
X005025Y014450D03*
X005015Y014450D03*
X005005Y014450D03*
X004995Y014450D03*
X004975Y014460D03*
X004965Y014460D03*
X004955Y014460D03*
X004945Y014460D03*
X004925Y014470D03*
X004915Y014470D03*
X004905Y014470D03*
X004895Y014470D03*
X004875Y014480D03*
X004865Y014480D03*
X004855Y014480D03*
X004845Y014480D03*
X004825Y014490D03*
X004815Y014490D03*
X004805Y014490D03*
X004795Y014490D03*
X004785Y014500D03*
X004775Y014500D03*
X004765Y014500D03*
X004755Y014500D03*
X004735Y014510D03*
X004725Y014510D03*
X004715Y014520D03*
X004955Y014070D03*
X004965Y014070D03*
X004975Y014070D03*
X004985Y014060D03*
X004995Y014060D03*
X005005Y014060D03*
X005015Y014060D03*
X005025Y014060D03*
X005035Y014050D03*
X005045Y014050D03*
X005055Y014050D03*
X005065Y014050D03*
X005075Y014050D03*
X005085Y014040D03*
X005095Y014040D03*
X005105Y014040D03*
X005115Y014040D03*
X005135Y014030D03*
X005145Y014030D03*
X005155Y014030D03*
X005165Y014030D03*
X005185Y014020D03*
X005195Y014020D03*
X005205Y014020D03*
X005215Y014020D03*
X005225Y014010D03*
X005235Y014010D03*
X005245Y014010D03*
X005255Y014010D03*
X005265Y014010D03*
X005285Y014000D03*
X005295Y014000D03*
X005305Y014000D03*
X005315Y014000D03*
X005325Y013990D03*
X005335Y013990D03*
X005345Y013990D03*
X005355Y013990D03*
X005365Y013990D03*
X005385Y013980D03*
X005395Y013980D03*
X005405Y013980D03*
X005415Y013980D03*
X005435Y013970D03*
X005445Y013970D03*
X005455Y013970D03*
X005465Y013970D03*
X005475Y013960D03*
X005485Y013960D03*
X005495Y013960D03*
X005505Y013960D03*
X005525Y013950D03*
X005535Y013950D03*
X005545Y013950D03*
X005555Y013950D03*
X005575Y013940D03*
X005585Y013940D03*
X005595Y013940D03*
X005605Y013940D03*
X005625Y013930D03*
X005635Y013930D03*
X005645Y013930D03*
X005655Y013930D03*
X005665Y013920D03*
X005675Y013920D03*
X005685Y013920D03*
X005695Y013920D03*
X005705Y013920D03*
X005715Y013910D03*
X005725Y013910D03*
X005735Y013910D03*
X005745Y013910D03*
X005755Y013910D03*
X005765Y013900D03*
X005775Y013900D03*
X005785Y013900D03*
X005795Y013900D03*
X005805Y013900D03*
X005815Y013890D03*
X005615Y013240D03*
X005605Y013240D03*
X005595Y013240D03*
X005585Y013240D03*
X005565Y013250D03*
X005555Y013250D03*
X005545Y013250D03*
X005535Y013250D03*
X005525Y013260D03*
X005515Y013260D03*
X005505Y013260D03*
X005495Y013260D03*
X005475Y013270D03*
X005465Y013270D03*
X005455Y013270D03*
X005445Y013270D03*
X005435Y013270D03*
X005425Y013280D03*
X005415Y013280D03*
X005405Y013280D03*
X005395Y013280D03*
X005375Y013290D03*
X005365Y013290D03*
X005355Y013290D03*
X005345Y013290D03*
X005335Y013300D03*
X005325Y013300D03*
X005315Y013300D03*
X005305Y013300D03*
X005295Y013300D03*
X005285Y013310D03*
X005275Y013310D03*
X005265Y013310D03*
X005255Y013310D03*
X005235Y013320D03*
X005225Y013320D03*
X005215Y013320D03*
X005205Y013320D03*
X005185Y013330D03*
X005175Y013330D03*
X005165Y013330D03*
X005155Y013330D03*
X005145Y013340D03*
X005135Y013340D03*
X005125Y013340D03*
X005115Y013340D03*
X005085Y013350D03*
X005075Y013350D03*
X005065Y013350D03*
X005055Y013350D03*
X005045Y013360D03*
X005035Y013360D03*
X005025Y013360D03*
X005015Y013360D03*
X005005Y013370D03*
X004995Y013370D03*
X004985Y013370D03*
X004975Y013370D03*
X004965Y013370D03*
X004955Y013380D03*
X004945Y013380D03*
X004935Y013380D03*
X004925Y013380D03*
X004915Y013380D03*
X004905Y013390D03*
X004895Y013390D03*
X004885Y013390D03*
X004875Y013390D03*
X004855Y013400D03*
X004845Y013400D03*
X004835Y013400D03*
X004825Y013400D03*
X004815Y013410D03*
X004805Y013410D03*
X004795Y013410D03*
X004785Y013410D03*
X004775Y013410D03*
X004765Y013420D03*
X004755Y013420D03*
X004745Y013420D03*
X004725Y013430D03*
X004725Y012340D03*
X004745Y012330D03*
X004755Y012330D03*
X004765Y012330D03*
X004785Y012320D03*
X004795Y012320D03*
X004805Y012320D03*
X004815Y012320D03*
X004835Y012310D03*
X004845Y012310D03*
X004855Y012310D03*
X004865Y012310D03*
X004875Y012300D03*
X004885Y012300D03*
X004895Y012300D03*
X004905Y012300D03*
X004935Y012290D03*
X004945Y012290D03*
X004955Y012290D03*
X004975Y012280D03*
X004985Y012280D03*
X004995Y012280D03*
X005005Y012280D03*
X005015Y012270D03*
X005025Y012270D03*
X005035Y012270D03*
X005045Y012270D03*
X005055Y012270D03*
X005065Y012260D03*
X005075Y012260D03*
X005085Y012260D03*
X005095Y012260D03*
X005105Y012260D03*
X005115Y012250D03*
X005125Y012250D03*
X005135Y012250D03*
X005145Y012250D03*
X005155Y012250D03*
X005165Y012240D03*
X005175Y012240D03*
X005185Y012240D03*
X005195Y012240D03*
X005215Y012230D03*
X005225Y012230D03*
X005235Y012230D03*
X005245Y012230D03*
X005255Y012220D03*
X005265Y012220D03*
X005275Y012220D03*
X005285Y012220D03*
X005295Y012220D03*
X005315Y012210D03*
X005325Y012210D03*
X005335Y012210D03*
X005345Y012210D03*
X005355Y012200D03*
X005365Y012200D03*
X005375Y012200D03*
X005385Y012200D03*
X005395Y012200D03*
X005405Y012190D03*
X005415Y012190D03*
X005425Y012190D03*
X005435Y012190D03*
X005455Y012180D03*
X005465Y012180D03*
X005475Y012180D03*
X005485Y012180D03*
X005495Y012170D03*
X005505Y012170D03*
X005515Y012170D03*
X005525Y012170D03*
X005535Y012170D03*
X005555Y012160D03*
X005565Y012160D03*
X005575Y012160D03*
X005585Y012160D03*
X005595Y012150D03*
X005605Y012150D03*
X005615Y012150D03*
X005625Y012150D03*
X005635Y012150D03*
X005645Y012140D03*
X005655Y012140D03*
X005665Y012140D03*
X005675Y012140D03*
X005695Y012130D03*
X005705Y012130D03*
X005715Y012130D03*
X005725Y012130D03*
X005745Y012120D03*
X005755Y012120D03*
X005765Y012120D03*
X005775Y012120D03*
X005785Y012110D03*
X005795Y012110D03*
X005805Y012110D03*
X005815Y012110D03*
X005825Y012110D03*
X005835Y012100D03*
X005845Y012100D03*
X005855Y012100D03*
X005865Y012100D03*
X005875Y012100D03*
X005885Y012090D03*
X005895Y012090D03*
X005905Y012090D03*
X005915Y012090D03*
X005925Y012090D03*
X005935Y012080D03*
X005945Y012080D03*
X005955Y012080D03*
X005965Y012080D03*
X005985Y012070D03*
X005995Y012070D03*
X006005Y012070D03*
X006015Y012070D03*
X006025Y012060D03*
X006035Y012060D03*
X006045Y012060D03*
X006055Y012060D03*
X006065Y012060D03*
X006075Y012050D03*
X006085Y012050D03*
X006095Y012050D03*
X006105Y012050D03*
X006115Y012050D03*
X006125Y012040D03*
X006135Y012040D03*
X006145Y012040D03*
X006155Y012040D03*
X006165Y012040D03*
X006175Y012030D03*
X006185Y012030D03*
X006195Y012030D03*
X006205Y012030D03*
X006225Y012020D03*
X006235Y012020D03*
X006245Y012020D03*
X006255Y012020D03*
X006265Y012010D03*
X006275Y012010D03*
X006285Y012010D03*
X006295Y012010D03*
X006325Y012000D03*
X006335Y012000D03*
X006345Y012000D03*
X006355Y012000D03*
X006375Y011990D03*
X006385Y011990D03*
X006395Y011990D03*
X006405Y011990D03*
X006415Y011980D03*
X006425Y011980D03*
X006435Y011980D03*
X006445Y011980D03*
X006465Y011970D03*
X006475Y011970D03*
X006485Y011970D03*
X006495Y011970D03*
X006405Y012680D03*
X006395Y012680D03*
X006385Y012680D03*
X006365Y012690D03*
X006355Y012690D03*
X006345Y012690D03*
X006335Y012690D03*
X006485Y015310D03*
X006495Y015310D03*
X006505Y015310D03*
X006475Y015320D03*
X006465Y015320D03*
X006455Y015320D03*
X006445Y015320D03*
X006435Y015320D03*
X006425Y015330D03*
X006415Y015330D03*
X006405Y015330D03*
X006395Y015330D03*
X006385Y015330D03*
X006375Y015340D03*
X006365Y015340D03*
X006355Y015340D03*
X006345Y015340D03*
X006335Y015340D03*
X006325Y015350D03*
X006315Y015350D03*
X006305Y015350D03*
X006295Y015350D03*
X006275Y015360D03*
X006265Y015360D03*
X006255Y015360D03*
X006245Y015360D03*
X006215Y015370D03*
X006205Y015370D03*
X006195Y015370D03*
X006175Y015380D03*
X006165Y015380D03*
X006155Y015380D03*
X006145Y015380D03*
X006125Y015390D03*
X006115Y015390D03*
X006105Y015390D03*
X006095Y015390D03*
X006085Y015400D03*
X006075Y015400D03*
X006065Y015400D03*
X006055Y015400D03*
X006045Y015400D03*
X006035Y015410D03*
X006025Y015410D03*
X006015Y015410D03*
X006005Y015410D03*
X005995Y015410D03*
X005985Y015420D03*
X005975Y015420D03*
X005965Y015420D03*
X005955Y015420D03*
X005925Y015430D03*
X005915Y015430D03*
X005905Y015430D03*
X005895Y015430D03*
X005885Y015440D03*
X005875Y015440D03*
X005865Y015440D03*
X005855Y015440D03*
X005835Y015450D03*
X005825Y015450D03*
X005815Y015450D03*
X005805Y015450D03*
X005795Y015450D03*
X005785Y015460D03*
X005775Y015460D03*
X005765Y015460D03*
X005745Y015460D03*
X005735Y015470D03*
X005725Y015470D03*
X005715Y015470D03*
X005705Y015470D03*
X005695Y015480D03*
X005685Y015480D03*
X005675Y015480D03*
X005665Y015480D03*
X005635Y015490D03*
X005625Y015490D03*
X005615Y015490D03*
X005605Y015490D03*
X005595Y015500D03*
X005585Y015500D03*
X005575Y015500D03*
X005565Y015500D03*
X005555Y015500D03*
X005545Y015510D03*
X005535Y015510D03*
X005525Y015510D03*
X005515Y015510D03*
X005495Y015520D03*
X005485Y015520D03*
X005475Y015520D03*
X005465Y015520D03*
X005445Y015530D03*
X005435Y015530D03*
X005425Y015530D03*
X005415Y015530D03*
X005395Y015540D03*
X005385Y015540D03*
X005375Y015540D03*
X005365Y015540D03*
X005345Y015550D03*
X005335Y015550D03*
X005555Y016200D03*
X005565Y016200D03*
X005575Y016200D03*
X005585Y016200D03*
X005605Y016190D03*
X005615Y016190D03*
X005625Y016190D03*
X005635Y016190D03*
X005655Y016180D03*
X005665Y016180D03*
X005675Y016180D03*
X005685Y016180D03*
X005695Y016170D03*
X005705Y016170D03*
X005715Y016170D03*
X005725Y016170D03*
X005745Y016160D03*
X005755Y016160D03*
X005765Y016160D03*
X005775Y016160D03*
X005785Y016150D03*
X005805Y016150D03*
X005815Y016150D03*
X005825Y016150D03*
X005845Y016140D03*
X005855Y016140D03*
X005865Y016140D03*
X005875Y016140D03*
X005885Y016130D03*
X005895Y016130D03*
X005905Y016130D03*
X005915Y016130D03*
X005935Y016120D03*
X005945Y016120D03*
X005955Y016120D03*
X005965Y016120D03*
X005975Y016110D03*
X005985Y016110D03*
X005995Y016110D03*
X006005Y016110D03*
X006015Y016110D03*
X006035Y016100D03*
X006045Y016100D03*
X006055Y016100D03*
X006075Y016090D03*
X006085Y016090D03*
X006095Y016090D03*
X006105Y016090D03*
X006115Y016080D03*
X006125Y016080D03*
X006135Y016080D03*
X006145Y016080D03*
X006155Y016080D03*
X006165Y016070D03*
X006175Y016070D03*
X006185Y016070D03*
X006195Y016070D03*
X006205Y016070D03*
X006215Y016060D03*
X006225Y016060D03*
X006235Y016060D03*
X006245Y016060D03*
X006265Y016050D03*
X006275Y016050D03*
X006285Y016050D03*
X006295Y016050D03*
X006305Y016040D03*
X006315Y016040D03*
X006325Y016040D03*
X006335Y016040D03*
X006345Y016040D03*
X006355Y016030D03*
X006365Y016030D03*
X006375Y016030D03*
X006385Y016030D03*
X006395Y016030D03*
X006405Y016020D03*
X006475Y015610D03*
X006475Y015450D03*
X005545Y016210D03*
X005225Y016270D03*
X005205Y016280D03*
X005195Y016280D03*
X005185Y016280D03*
X005155Y016290D03*
X005145Y016290D03*
X005135Y016290D03*
X005115Y016300D03*
X005105Y016300D03*
X005095Y016300D03*
X005085Y016300D03*
X005065Y016310D03*
X005055Y016310D03*
X005045Y016310D03*
X005035Y016310D03*
X005025Y016320D03*
X005015Y016320D03*
X005005Y016320D03*
X004995Y016320D03*
X004975Y016330D03*
X004965Y016330D03*
X004955Y016330D03*
X004735Y015720D03*
X004725Y015720D03*
D54*
X004715Y016540D03*
X004735Y016550D03*
X004735Y014680D03*
X004715Y014670D03*
X004715Y014280D03*
X004725Y014280D03*
X005305Y013070D03*
X005315Y013070D03*
X004725Y012500D03*
X004715Y012500D03*
X006485Y013870D03*
X006495Y013880D03*
X006505Y013880D03*
X006485Y015120D03*
X006505Y015130D03*
D55*
X006475Y014805D03*
X006475Y014565D03*
X006475Y014325D03*
X006465Y014145D03*
X006325Y014175D03*
X005985Y014245D03*
X005845Y014275D03*
X005795Y014285D03*
X005945Y013165D03*
X005645Y012835D03*
X005345Y012715D03*
X005095Y013345D03*
X004735Y013425D03*
X004715Y013435D03*
X004745Y014505D03*
X005315Y015555D03*
X005325Y015555D03*
X005305Y015565D03*
X005645Y015485D03*
X005935Y015425D03*
X006225Y015365D03*
X006475Y015925D03*
X005345Y015915D03*
X005165Y016285D03*
X004715Y015725D03*
X004715Y012345D03*
X004735Y012335D03*
X006305Y012005D03*
X006475Y012085D03*
X006475Y012325D03*
D56*
X006475Y012380D03*
X006475Y012430D03*
X006475Y012470D03*
X006475Y012510D03*
X006475Y012550D03*
X006475Y012590D03*
X006475Y012630D03*
X006475Y012270D03*
X006475Y012230D03*
X006475Y012140D03*
X006475Y013270D03*
X006475Y013310D03*
X006475Y013430D03*
X006475Y013470D03*
X006475Y013590D03*
X006475Y013630D03*
X005935Y013610D03*
X005885Y013610D03*
X005935Y013670D03*
X005935Y013730D03*
X005885Y013730D03*
X005885Y013770D03*
X005885Y013850D03*
X005885Y013890D03*
X005935Y013850D03*
X005935Y013550D03*
X005885Y013490D03*
X005935Y013460D03*
X006475Y014270D03*
X006475Y014380D03*
X006475Y014470D03*
X006475Y014510D03*
X006475Y014620D03*
X006475Y014670D03*
X006475Y014710D03*
X006475Y014750D03*
X006475Y014860D03*
X006475Y015510D03*
X006475Y015550D03*
X006475Y015670D03*
X006475Y015710D03*
X006475Y015750D03*
X006475Y015790D03*
X006475Y015830D03*
X006475Y015870D03*
X006475Y015980D03*
X006475Y016030D03*
X005345Y016080D03*
X005295Y016030D03*
X005345Y015970D03*
X005295Y015910D03*
X005345Y015840D03*
X005295Y015730D03*
X005295Y015690D03*
X005295Y015650D03*
X005345Y015650D03*
X005295Y016150D03*
X004755Y014130D03*
X005295Y012830D03*
X005345Y012770D03*
X005295Y012710D03*
X005345Y012640D03*
X005345Y012480D03*
X005295Y012430D03*
D57*
X005295Y012555D03*
X005345Y012815D03*
X005345Y012885D03*
X005885Y013565D03*
X005885Y013685D03*
X006475Y014425D03*
X006475Y014905D03*
X005345Y016015D03*
X006475Y012675D03*
X006475Y012185D03*
D58*
X006475Y014960D03*
D59*
X006455Y015730D03*
X006435Y015730D03*
X006425Y015730D03*
X005535Y015920D03*
X005525Y015920D03*
X005515Y015920D03*
X005505Y015920D03*
X005485Y015930D03*
X005475Y015930D03*
X005465Y015930D03*
X005435Y015940D03*
X005425Y015940D03*
X005415Y015940D03*
X005395Y015950D03*
X005385Y015950D03*
X005375Y015950D03*
X005365Y015950D03*
X004915Y016050D03*
X004785Y013820D03*
X004775Y013820D03*
X004815Y013810D03*
X004825Y013810D03*
X004865Y013800D03*
X004875Y013800D03*
X004885Y013800D03*
X004905Y013790D03*
X004915Y013790D03*
X004925Y013790D03*
X004935Y013790D03*
X005825Y013600D03*
X005835Y013600D03*
X005845Y013600D03*
X005865Y013590D03*
X005875Y013590D03*
X005505Y012580D03*
X005495Y012580D03*
X005445Y012590D03*
X005435Y012590D03*
X005405Y012600D03*
X005395Y012600D03*
X005355Y012610D03*
X006415Y012390D03*
X006425Y012390D03*
X006445Y012380D03*
X006465Y012380D03*
D60*
X006455Y012385D03*
X006435Y012385D03*
X005535Y012575D03*
X005525Y012575D03*
X005515Y012575D03*
X005485Y012585D03*
X005475Y012585D03*
X005465Y012585D03*
X005455Y012585D03*
X005425Y012595D03*
X005415Y012595D03*
X005385Y012605D03*
X005375Y012605D03*
X005365Y012605D03*
X004945Y013785D03*
X004895Y013795D03*
X004855Y013805D03*
X004845Y013805D03*
X004835Y013805D03*
X004805Y013815D03*
X004795Y013815D03*
X004765Y013825D03*
X005445Y015935D03*
X004925Y016055D03*
X006415Y015735D03*
X006445Y015725D03*
X006465Y015725D03*
D61*
X006455Y013540D03*
D62*
X006435Y013525D03*
D63*
X006435Y014695D03*
X004685Y013885D03*
D64*
X005235Y012685D03*
X006425Y013515D03*
X005275Y015925D03*
X005265Y015935D03*
D65*
X005245Y015950D03*
X004845Y016030D03*
X006415Y013510D03*
D66*
X006415Y014680D03*
X004675Y016160D03*
D67*
X006135Y013735D03*
D68*
X006125Y013740D03*
X004935Y016060D03*
D69*
X004685Y016160D03*
X006065Y013670D03*
X006075Y013670D03*
D70*
X005935Y014025D03*
X004705Y014625D03*
X004705Y012445D03*
D71*
X005905Y013335D03*
X005925Y013335D03*
X005345Y016205D03*
D72*
X005895Y013340D03*
X005915Y013330D03*
X005345Y012360D03*
D73*
X005855Y013595D03*
X005495Y015925D03*
X005455Y015935D03*
X005405Y015945D03*
X005355Y015955D03*
X004905Y016045D03*
D74*
X005305Y016250D03*
X005295Y015580D03*
X005345Y012570D03*
X004645Y012440D03*
D75*
X005285Y015920D03*
X004645Y016160D03*
D76*
X005275Y012715D03*
D77*
X005255Y015945D03*
X004835Y016035D03*
X004825Y016035D03*
X004815Y016035D03*
X004805Y016035D03*
X004795Y016035D03*
D78*
X005235Y015965D03*
D79*
X004945Y016070D03*
D80*
X004895Y016040D03*
D81*
X004885Y016040D03*
D82*
X004755Y015730D03*
D83*
X004755Y016340D03*
D84*
X004695Y014625D03*
X004695Y012445D03*
D85*
X004655Y013885D03*
X004665Y016165D03*
D86*
X004655Y014625D03*
X004655Y012445D03*
D87*
X005304Y011735D02*
X005256Y011687D01*
X005256Y011493D01*
X005304Y011445D01*
X005401Y011445D01*
X005450Y011493D01*
X005551Y011590D02*
X005744Y011590D01*
X005845Y011638D02*
X005894Y011590D01*
X006039Y011590D01*
X006039Y011493D02*
X006039Y011687D01*
X005990Y011735D01*
X005894Y011735D01*
X005845Y011687D01*
X005845Y011638D01*
X005845Y011493D02*
X005894Y011445D01*
X005990Y011445D01*
X006039Y011493D01*
X005696Y011445D02*
X005696Y011735D01*
X005551Y011590D01*
X005450Y011687D02*
X005401Y011735D01*
X005304Y011735D01*
X006820Y010399D02*
X006868Y010448D01*
X007062Y010254D01*
X007110Y010303D01*
X007110Y010399D01*
X007062Y010448D01*
X006868Y010448D01*
X006820Y010399D02*
X006820Y010303D01*
X006868Y010254D01*
X007062Y010254D01*
X007062Y010153D02*
X007110Y010105D01*
X007110Y010008D01*
X007062Y009960D01*
X006965Y009960D02*
X006917Y010056D01*
X006917Y010105D01*
X006965Y010153D01*
X007062Y010153D01*
X006965Y009960D02*
X006820Y009960D01*
X006820Y010153D01*
X006868Y009858D02*
X006820Y009810D01*
X006820Y009713D01*
X006868Y009665D01*
X007062Y009665D01*
X007110Y009713D01*
X007110Y009810D01*
X007062Y009858D01*
X007920Y010165D02*
X007920Y010310D01*
X007968Y010358D01*
X008065Y010358D01*
X008113Y010310D01*
X008113Y010165D01*
X008113Y010262D02*
X008210Y010358D01*
X008210Y010460D02*
X008210Y010653D01*
X008210Y010556D02*
X007920Y010556D01*
X008017Y010460D01*
X007920Y010165D02*
X008210Y010165D01*
X008182Y011381D02*
X007988Y011381D01*
X007940Y011429D01*
X007940Y011526D01*
X007988Y011575D01*
X007940Y011676D02*
X008085Y011676D01*
X008037Y011772D01*
X008037Y011821D01*
X008085Y011869D01*
X008182Y011869D01*
X008230Y011821D01*
X008230Y011724D01*
X008182Y011676D01*
X008182Y011575D02*
X008230Y011526D01*
X008230Y011429D01*
X008182Y011381D01*
X007940Y011676D02*
X007940Y011869D01*
X008037Y011970D02*
X007940Y012067D01*
X008230Y012067D01*
X008230Y011970D02*
X008230Y012164D01*
X008920Y012153D02*
X009017Y012056D01*
X008968Y011955D02*
X008920Y011907D01*
X008920Y011810D01*
X008968Y011761D01*
X009162Y011761D01*
X009210Y011810D01*
X009210Y011907D01*
X009162Y011955D01*
X009210Y012056D02*
X009210Y012250D01*
X009210Y012153D02*
X008920Y012153D01*
X008920Y011662D02*
X008920Y011565D01*
X008920Y011613D02*
X009210Y011613D01*
X009210Y011565D02*
X009210Y011662D01*
X009390Y010455D02*
X009535Y010455D01*
X009583Y010407D01*
X009583Y010310D01*
X009535Y010262D01*
X009390Y010262D01*
X009487Y010262D02*
X009583Y010165D01*
X009685Y010213D02*
X009733Y010165D01*
X009830Y010165D01*
X009878Y010213D01*
X009878Y010262D01*
X009830Y010310D01*
X009781Y010310D01*
X009830Y010310D02*
X009878Y010358D01*
X009878Y010407D01*
X009830Y010455D01*
X009733Y010455D01*
X009685Y010407D01*
X009390Y010455D02*
X009390Y010165D01*
X009396Y008935D02*
X009299Y008935D01*
X009251Y008887D01*
X009251Y008693D01*
X009299Y008645D01*
X009396Y008645D01*
X009444Y008693D01*
X009545Y008645D02*
X009739Y008645D01*
X009642Y008645D02*
X009642Y008935D01*
X009545Y008838D01*
X009444Y008887D02*
X009396Y008935D01*
X010020Y008705D02*
X010165Y008560D01*
X010165Y008753D01*
X010310Y008705D02*
X010020Y008705D01*
X010068Y008458D02*
X010165Y008458D01*
X010213Y008410D01*
X010213Y008265D01*
X010213Y008362D02*
X010310Y008458D01*
X010310Y008265D02*
X010020Y008265D01*
X010020Y008410D01*
X010068Y008458D01*
X012090Y010176D02*
X012090Y010321D01*
X012138Y010369D01*
X012235Y010369D01*
X012283Y010321D01*
X012283Y010176D01*
X012283Y010272D02*
X012380Y010369D01*
X012332Y010470D02*
X012380Y010519D01*
X012380Y010615D01*
X012332Y010664D01*
X012283Y010664D01*
X012235Y010615D01*
X012235Y010470D01*
X012332Y010470D01*
X012235Y010470D02*
X012138Y010567D01*
X012090Y010664D01*
X012090Y010176D02*
X012380Y010176D01*
X012488Y009655D02*
X012440Y009607D01*
X012440Y009413D01*
X012488Y009365D01*
X012585Y009365D01*
X012633Y009413D01*
X012735Y009365D02*
X012928Y009558D01*
X012928Y009607D01*
X012880Y009655D01*
X012783Y009655D01*
X012735Y009607D01*
X012633Y009607D02*
X012585Y009655D01*
X012488Y009655D01*
X012735Y009365D02*
X012928Y009365D01*
X013038Y010176D02*
X013232Y010176D01*
X013280Y010224D01*
X013280Y010321D01*
X013232Y010369D01*
X013232Y010470D02*
X013280Y010519D01*
X013280Y010615D01*
X013232Y010664D01*
X013183Y010664D01*
X013135Y010615D01*
X013135Y010567D01*
X013135Y010615D02*
X013087Y010664D01*
X013038Y010664D01*
X012990Y010615D01*
X012990Y010519D01*
X013038Y010470D01*
X013038Y010369D02*
X012990Y010321D01*
X012990Y010224D01*
X013038Y010176D01*
X013133Y011276D02*
X013133Y011421D01*
X013085Y011469D01*
X012988Y011469D01*
X012940Y011421D01*
X012940Y011276D01*
X013230Y011276D01*
X013133Y011372D02*
X013230Y011469D01*
X013230Y011570D02*
X013182Y011570D01*
X012988Y011764D01*
X012940Y011764D01*
X012940Y011570D01*
X012330Y011624D02*
X012282Y011576D01*
X012330Y011624D02*
X012330Y011721D01*
X012282Y011769D01*
X012185Y011769D01*
X012137Y011721D01*
X012137Y011672D01*
X012185Y011576D01*
X012040Y011576D01*
X012040Y011769D01*
X012040Y011870D02*
X012040Y012064D01*
X012088Y012064D01*
X012282Y011870D01*
X012330Y011870D01*
X012282Y011475D02*
X012330Y011426D01*
X012330Y011329D01*
X012282Y011281D01*
X012088Y011281D01*
X012040Y011329D01*
X012040Y011426D01*
X012088Y011475D01*
X012140Y013276D02*
X012140Y013421D01*
X012188Y013469D01*
X012285Y013469D01*
X012333Y013421D01*
X012333Y013276D01*
X012333Y013372D02*
X012430Y013469D01*
X012382Y013570D02*
X012430Y013619D01*
X012430Y013715D01*
X012382Y013764D01*
X012333Y013764D01*
X012285Y013715D01*
X012285Y013619D01*
X012237Y013570D01*
X012188Y013570D01*
X012140Y013619D01*
X012140Y013715D01*
X012188Y013764D01*
X012237Y013764D01*
X012285Y013715D01*
X012285Y013619D02*
X012333Y013570D01*
X012382Y013570D01*
X012430Y013276D02*
X012140Y013276D01*
X011980Y014665D02*
X011980Y014955D01*
X011835Y014810D01*
X012028Y014810D01*
X011733Y014713D02*
X011685Y014665D01*
X011588Y014665D01*
X011540Y014713D01*
X011540Y014907D01*
X011588Y014955D01*
X011685Y014955D01*
X011733Y014907D01*
X012940Y015563D02*
X012988Y015515D01*
X013085Y015515D01*
X013133Y015563D01*
X013235Y015515D02*
X013428Y015515D01*
X013331Y015515D02*
X013331Y015805D01*
X013235Y015708D01*
X013133Y015757D02*
X013085Y015805D01*
X012988Y015805D01*
X012940Y015757D01*
X012940Y015563D01*
X013529Y015515D02*
X013723Y015708D01*
X013723Y015757D01*
X013674Y015805D01*
X013578Y015805D01*
X013529Y015757D01*
X013529Y015515D02*
X013723Y015515D01*
X013733Y016081D02*
X013733Y016226D01*
X013685Y016275D01*
X013588Y016275D01*
X013540Y016226D01*
X013540Y016081D01*
X013830Y016081D01*
X013733Y016178D02*
X013830Y016275D01*
X013830Y016376D02*
X013637Y016569D01*
X013588Y016569D01*
X013540Y016521D01*
X013540Y016424D01*
X013588Y016376D01*
X013830Y016376D02*
X013830Y016569D01*
X013782Y016670D02*
X013733Y016670D01*
X013685Y016719D01*
X013685Y016815D01*
X013733Y016864D01*
X013782Y016864D01*
X013830Y016815D01*
X013830Y016719D01*
X013782Y016670D01*
X013685Y016719D02*
X013637Y016670D01*
X013588Y016670D01*
X013540Y016719D01*
X013540Y016815D01*
X013588Y016864D01*
X013637Y016864D01*
X013685Y016815D01*
X014856Y017193D02*
X014904Y017145D01*
X015001Y017145D01*
X015050Y017193D01*
X015151Y017145D02*
X015344Y017145D01*
X015247Y017145D02*
X015247Y017435D01*
X015151Y017338D01*
X015050Y017387D02*
X015001Y017435D01*
X014904Y017435D01*
X014856Y017387D01*
X014856Y017193D01*
X015445Y017145D02*
X015639Y017145D01*
X015542Y017145D02*
X015542Y017435D01*
X015445Y017338D01*
X016456Y017135D02*
X016456Y016845D01*
X016488Y016755D02*
X016440Y016707D01*
X016440Y016513D01*
X016488Y016465D01*
X016585Y016465D01*
X016633Y016513D01*
X016735Y016465D02*
X016928Y016465D01*
X016831Y016465D02*
X016831Y016755D01*
X016735Y016658D01*
X016633Y016707D02*
X016585Y016755D01*
X016488Y016755D01*
X016650Y016845D02*
X016553Y016942D01*
X016601Y016942D02*
X016456Y016942D01*
X016601Y016942D02*
X016650Y016990D01*
X016650Y017087D01*
X016601Y017135D01*
X016456Y017135D01*
X016751Y017087D02*
X016799Y017135D01*
X016896Y017135D01*
X016944Y017087D01*
X016944Y017038D01*
X016751Y016845D01*
X016944Y016845D01*
X017045Y016893D02*
X017094Y016845D01*
X017190Y016845D01*
X017239Y016893D01*
X017239Y016990D01*
X017190Y017038D01*
X017142Y017038D01*
X017045Y016990D01*
X017045Y017135D01*
X017239Y017135D01*
X017174Y016755D02*
X017223Y016707D01*
X017029Y016513D01*
X017078Y016465D01*
X017174Y016465D01*
X017223Y016513D01*
X017223Y016707D01*
X017174Y016755D02*
X017078Y016755D01*
X017029Y016707D01*
X017029Y016513D01*
X016896Y015235D02*
X016799Y015235D01*
X016751Y015187D01*
X016650Y015187D02*
X016650Y015090D01*
X016601Y015042D01*
X016456Y015042D01*
X016553Y015042D02*
X016650Y014945D01*
X016751Y014945D02*
X016944Y015138D01*
X016944Y015187D01*
X016896Y015235D01*
X017045Y015090D02*
X017239Y015090D01*
X017190Y014945D02*
X017190Y015235D01*
X017045Y015090D01*
X016944Y014945D02*
X016751Y014945D01*
X016650Y015187D02*
X016601Y015235D01*
X016456Y015235D01*
X016456Y014945D01*
X015823Y015563D02*
X015774Y015515D01*
X015678Y015515D01*
X015629Y015563D01*
X015629Y015660D01*
X015774Y015660D01*
X015823Y015612D01*
X015823Y015563D01*
X015726Y015757D02*
X015629Y015660D01*
X015528Y015708D02*
X015528Y015757D01*
X015480Y015805D01*
X015383Y015805D01*
X015335Y015757D01*
X015233Y015757D02*
X015233Y015660D01*
X015185Y015612D01*
X015040Y015612D01*
X015137Y015612D02*
X015233Y015515D01*
X015335Y015515D02*
X015528Y015708D01*
X015528Y015515D02*
X015335Y015515D01*
X015233Y015757D02*
X015185Y015805D01*
X015040Y015805D01*
X015040Y015515D01*
X015726Y015757D02*
X015823Y015805D01*
X013810Y014654D02*
X013762Y014654D01*
X013568Y014848D01*
X013520Y014848D01*
X013520Y014654D01*
X013568Y014553D02*
X013520Y014505D01*
X013520Y014408D01*
X013568Y014360D01*
X013568Y014258D02*
X013665Y014258D01*
X013713Y014210D01*
X013713Y014065D01*
X013713Y014162D02*
X013810Y014258D01*
X013810Y014360D02*
X013617Y014553D01*
X013568Y014553D01*
X013810Y014553D02*
X013810Y014360D01*
X013568Y014258D02*
X013520Y014210D01*
X013520Y014065D01*
X013810Y014065D01*
X013830Y013564D02*
X013830Y013370D01*
X013637Y013564D01*
X013588Y013564D01*
X013540Y013515D01*
X013540Y013419D01*
X013588Y013370D01*
X013540Y013269D02*
X013540Y013076D01*
X013685Y013076D01*
X013637Y013172D01*
X013637Y013221D01*
X013685Y013269D01*
X013782Y013269D01*
X013830Y013221D01*
X013830Y013124D01*
X013782Y013076D01*
X013782Y012975D02*
X013830Y012926D01*
X013830Y012829D01*
X013782Y012781D01*
X013588Y012781D01*
X013540Y012829D01*
X013540Y012926D01*
X013588Y012975D01*
X013620Y012248D02*
X013620Y012054D01*
X013765Y012054D01*
X013717Y012151D01*
X013717Y012199D01*
X013765Y012248D01*
X013862Y012248D01*
X013910Y012199D01*
X013910Y012103D01*
X013862Y012054D01*
X013910Y011953D02*
X013910Y011760D01*
X013910Y011856D02*
X013620Y011856D01*
X013717Y011760D01*
X013765Y011658D02*
X013813Y011610D01*
X013813Y011465D01*
X013813Y011562D02*
X013910Y011658D01*
X013765Y011658D02*
X013668Y011658D01*
X013620Y011610D01*
X013620Y011465D01*
X013910Y011465D01*
X014620Y012365D02*
X014620Y012462D01*
X014620Y012413D02*
X014910Y012413D01*
X014910Y012365D02*
X014910Y012462D01*
X014862Y012561D02*
X014910Y012610D01*
X014910Y012707D01*
X014862Y012755D01*
X014910Y012856D02*
X014717Y013050D01*
X014668Y013050D01*
X014620Y013001D01*
X014620Y012904D01*
X014668Y012856D01*
X014668Y012755D02*
X014620Y012707D01*
X014620Y012610D01*
X014668Y012561D01*
X014862Y012561D01*
X014910Y012856D02*
X014910Y013050D01*
X014940Y011555D02*
X015085Y011555D01*
X015133Y011507D01*
X015133Y011410D01*
X015085Y011362D01*
X014940Y011362D01*
X015037Y011362D02*
X015133Y011265D01*
X015235Y011265D02*
X015428Y011265D01*
X015331Y011265D02*
X015331Y011555D01*
X015235Y011458D01*
X015529Y011555D02*
X015723Y011555D01*
X015723Y011507D01*
X015529Y011313D01*
X015529Y011265D01*
X014940Y011265D02*
X014940Y011555D01*
X014999Y010035D02*
X014951Y009987D01*
X014951Y009793D01*
X014999Y009745D01*
X015096Y009745D01*
X015144Y009793D01*
X015245Y009793D02*
X015439Y009987D01*
X015439Y010035D01*
X015245Y010035D01*
X015144Y009987D02*
X015096Y010035D01*
X014999Y010035D01*
X015245Y009793D02*
X015245Y009745D01*
X016090Y009065D02*
X016090Y008969D01*
X016138Y008920D01*
X016187Y008920D01*
X016235Y008969D01*
X016235Y009065D01*
X016283Y009114D01*
X016332Y009114D01*
X016380Y009065D01*
X016380Y008969D01*
X016332Y008920D01*
X016283Y008920D01*
X016235Y008969D01*
X016235Y009065D02*
X016187Y009114D01*
X016138Y009114D01*
X016090Y009065D01*
X016138Y008819D02*
X016090Y008771D01*
X016090Y008674D01*
X016138Y008626D01*
X016332Y008626D01*
X016380Y008674D01*
X016380Y008771D01*
X016332Y008819D01*
X017006Y009195D02*
X017006Y009485D01*
X017151Y009485D01*
X017200Y009437D01*
X017200Y009340D01*
X017151Y009292D01*
X017006Y009292D01*
X017103Y009292D02*
X017200Y009195D01*
X017301Y009195D02*
X017494Y009195D01*
X017397Y009195D02*
X017397Y009485D01*
X017301Y009388D01*
X017595Y009388D02*
X017644Y009340D01*
X017789Y009340D01*
X017789Y009243D02*
X017789Y009437D01*
X017740Y009485D01*
X017644Y009485D01*
X017595Y009437D01*
X017595Y009388D01*
X017595Y009243D02*
X017644Y009195D01*
X017740Y009195D01*
X017789Y009243D01*
X018288Y009976D02*
X018240Y010024D01*
X018240Y010121D01*
X018288Y010169D01*
X018288Y010270D02*
X018240Y010319D01*
X018240Y010415D01*
X018288Y010464D01*
X018482Y010464D01*
X018530Y010415D01*
X018530Y010319D01*
X018482Y010270D01*
X018482Y010169D02*
X018530Y010121D01*
X018530Y010024D01*
X018482Y009976D01*
X018288Y009976D01*
X018288Y010270D02*
X018337Y010270D01*
X018385Y010319D01*
X018385Y010464D01*
X018440Y011181D02*
X018440Y011326D01*
X018488Y011375D01*
X018585Y011375D01*
X018633Y011326D01*
X018633Y011181D01*
X018633Y011278D02*
X018730Y011375D01*
X018730Y011476D02*
X018537Y011669D01*
X018488Y011669D01*
X018440Y011621D01*
X018440Y011524D01*
X018488Y011476D01*
X018730Y011476D02*
X018730Y011669D01*
X018730Y011770D02*
X018730Y011964D01*
X018730Y011867D02*
X018440Y011867D01*
X018537Y011770D01*
X018440Y011181D02*
X018730Y011181D01*
X018582Y012681D02*
X018388Y012681D01*
X018340Y012729D01*
X018340Y012826D01*
X018388Y012875D01*
X018340Y012976D02*
X018485Y012976D01*
X018437Y013072D01*
X018437Y013121D01*
X018485Y013169D01*
X018582Y013169D01*
X018630Y013121D01*
X018630Y013024D01*
X018582Y012976D01*
X018582Y012875D02*
X018630Y012826D01*
X018630Y012729D01*
X018582Y012681D01*
X018340Y012976D02*
X018340Y013169D01*
X018388Y013270D02*
X018437Y013270D01*
X018485Y013319D01*
X018485Y013415D01*
X018533Y013464D01*
X018582Y013464D01*
X018630Y013415D01*
X018630Y013319D01*
X018582Y013270D01*
X018533Y013270D01*
X018485Y013319D01*
X018485Y013415D02*
X018437Y013464D01*
X018388Y013464D01*
X018340Y013415D01*
X018340Y013319D01*
X018388Y013270D01*
X018340Y014081D02*
X018340Y014226D01*
X018388Y014275D01*
X018485Y014275D01*
X018533Y014226D01*
X018533Y014081D01*
X018533Y014178D02*
X018630Y014275D01*
X018630Y014376D02*
X018437Y014569D01*
X018388Y014569D01*
X018340Y014521D01*
X018340Y014424D01*
X018388Y014376D01*
X018630Y014376D02*
X018630Y014569D01*
X018630Y014670D02*
X018437Y014864D01*
X018388Y014864D01*
X018340Y014815D01*
X018340Y014719D01*
X018388Y014670D01*
X018630Y014670D02*
X018630Y014864D01*
X018630Y014081D02*
X018340Y014081D01*
X017374Y011155D02*
X017423Y011107D01*
X017229Y010913D01*
X017278Y010865D01*
X017374Y010865D01*
X017423Y010913D01*
X017423Y011107D01*
X017374Y011155D02*
X017278Y011155D01*
X017229Y011107D01*
X017229Y010913D01*
X017128Y010865D02*
X016935Y010865D01*
X017128Y011058D01*
X017128Y011107D01*
X017080Y011155D01*
X016983Y011155D01*
X016935Y011107D01*
X016833Y011107D02*
X016833Y011010D01*
X016785Y010962D01*
X016640Y010962D01*
X016737Y010962D02*
X016833Y010865D01*
X016640Y010865D02*
X016640Y011155D01*
X016785Y011155D01*
X016833Y011107D01*
X016374Y007655D02*
X016278Y007655D01*
X016229Y007607D01*
X016229Y007558D01*
X016278Y007510D01*
X016374Y007510D01*
X016423Y007462D01*
X016423Y007413D01*
X016374Y007365D01*
X016278Y007365D01*
X016229Y007413D01*
X016229Y007462D01*
X016278Y007510D01*
X016374Y007510D02*
X016423Y007558D01*
X016423Y007607D01*
X016374Y007655D01*
X016128Y007365D02*
X015935Y007365D01*
X016031Y007365D02*
X016031Y007655D01*
X015935Y007558D01*
X015833Y007510D02*
X015785Y007462D01*
X015640Y007462D01*
X015737Y007462D02*
X015833Y007365D01*
X015833Y007510D02*
X015833Y007607D01*
X015785Y007655D01*
X015640Y007655D01*
X015640Y007365D01*
X010123Y014215D02*
X009929Y014215D01*
X010123Y014408D01*
X010123Y014457D01*
X010074Y014505D01*
X009978Y014505D01*
X009929Y014457D01*
X009731Y014505D02*
X009731Y014215D01*
X009635Y014215D02*
X009828Y014215D01*
X009635Y014408D02*
X009731Y014505D01*
X009533Y014457D02*
X009533Y014360D01*
X009485Y014312D01*
X009340Y014312D01*
X009437Y014312D02*
X009533Y014215D01*
X009340Y014215D02*
X009340Y014505D01*
X009485Y014505D01*
X009533Y014457D01*
X009182Y013864D02*
X009133Y013864D01*
X009085Y013815D01*
X009085Y013767D01*
X009085Y013815D02*
X009037Y013864D01*
X008988Y013864D01*
X008940Y013815D01*
X008940Y013719D01*
X008988Y013670D01*
X009182Y013670D02*
X009230Y013719D01*
X009230Y013815D01*
X009182Y013864D01*
X009230Y013569D02*
X009230Y013376D01*
X009230Y013472D02*
X008940Y013472D01*
X009037Y013376D01*
X009085Y013275D02*
X009133Y013226D01*
X009133Y013081D01*
X009133Y013178D02*
X009230Y013275D01*
X009085Y013275D02*
X008988Y013275D01*
X008940Y013226D01*
X008940Y013081D01*
X009230Y013081D01*
X009451Y013293D02*
X009451Y013487D01*
X009499Y013535D01*
X009596Y013535D01*
X009644Y013487D01*
X009745Y013535D02*
X009745Y013390D01*
X009842Y013438D01*
X009890Y013438D01*
X009939Y013390D01*
X009939Y013293D01*
X009890Y013245D01*
X009794Y013245D01*
X009745Y013293D01*
X009644Y013293D02*
X009596Y013245D01*
X009499Y013245D01*
X009451Y013293D01*
X009745Y013535D02*
X009939Y013535D01*
X008790Y014845D02*
X008790Y015135D01*
X008645Y014990D01*
X008839Y014990D01*
X008544Y014845D02*
X008351Y014845D01*
X008447Y014845D02*
X008447Y015135D01*
X008351Y015038D01*
X008250Y014990D02*
X008201Y014942D01*
X008056Y014942D01*
X008153Y014942D02*
X008250Y014845D01*
X008250Y014990D02*
X008250Y015087D01*
X008201Y015135D01*
X008056Y015135D01*
X008056Y014845D01*
X008688Y015715D02*
X008785Y015715D01*
X008833Y015763D01*
X008935Y015763D02*
X008983Y015715D01*
X009080Y015715D01*
X009128Y015763D01*
X009128Y015812D01*
X009080Y015860D01*
X008935Y015860D01*
X008935Y015763D01*
X008935Y015860D02*
X009031Y015957D01*
X009128Y016005D01*
X008833Y015957D02*
X008785Y016005D01*
X008688Y016005D01*
X008640Y015957D01*
X008640Y015763D01*
X008688Y015715D01*
X009656Y015695D02*
X009656Y015985D01*
X009801Y015985D01*
X009850Y015937D01*
X009850Y015840D01*
X009801Y015792D01*
X009656Y015792D01*
X009753Y015792D02*
X009850Y015695D01*
X009951Y015695D02*
X010144Y015695D01*
X010047Y015695D02*
X010047Y015985D01*
X009951Y015888D01*
X010245Y015888D02*
X010342Y015985D01*
X010342Y015695D01*
X010245Y015695D02*
X010439Y015695D01*
X010540Y017181D02*
X010540Y017326D01*
X010588Y017375D01*
X010685Y017375D01*
X010733Y017326D01*
X010733Y017181D01*
X010733Y017278D02*
X010830Y017375D01*
X010782Y017476D02*
X010830Y017524D01*
X010830Y017621D01*
X010782Y017669D01*
X010733Y017669D01*
X010685Y017621D01*
X010685Y017476D01*
X010782Y017476D01*
X010685Y017476D02*
X010588Y017572D01*
X010540Y017669D01*
X010588Y017770D02*
X010637Y017770D01*
X010685Y017819D01*
X010685Y017964D01*
X010782Y017964D02*
X010588Y017964D01*
X010540Y017915D01*
X010540Y017819D01*
X010588Y017770D01*
X010782Y017770D02*
X010830Y017819D01*
X010830Y017915D01*
X010782Y017964D01*
X010830Y017181D02*
X010540Y017181D01*
X009723Y017410D02*
X009529Y017410D01*
X009674Y017555D01*
X009674Y017265D01*
X009428Y017410D02*
X009235Y017410D01*
X009380Y017555D01*
X009380Y017265D01*
X009133Y017313D02*
X009085Y017265D01*
X008988Y017265D01*
X008940Y017313D01*
X008940Y017507D01*
X008988Y017555D01*
X009085Y017555D01*
X009133Y017507D01*
X008882Y018481D02*
X008688Y018481D01*
X008640Y018529D01*
X008640Y018626D01*
X008688Y018675D01*
X008785Y018776D02*
X008640Y018921D01*
X008930Y018921D01*
X008785Y018969D02*
X008785Y018776D01*
X008882Y018675D02*
X008930Y018626D01*
X008930Y018529D01*
X008882Y018481D01*
X008882Y019070D02*
X008930Y019119D01*
X008930Y019215D01*
X008882Y019264D01*
X008833Y019264D01*
X008785Y019215D01*
X008785Y019167D01*
X008785Y019215D02*
X008737Y019264D01*
X008688Y019264D01*
X008640Y019215D01*
X008640Y019119D01*
X008688Y019070D01*
X008162Y018348D02*
X008210Y018299D01*
X008210Y018203D01*
X008162Y018154D01*
X008065Y018154D02*
X008017Y018251D01*
X008017Y018299D01*
X008065Y018348D01*
X008162Y018348D01*
X008065Y018154D02*
X007920Y018154D01*
X007920Y018348D01*
X008065Y018053D02*
X008065Y017860D01*
X007920Y018005D01*
X008210Y018005D01*
X008162Y017758D02*
X008210Y017710D01*
X008210Y017613D01*
X008162Y017565D01*
X007968Y017565D01*
X007920Y017613D01*
X007920Y017710D01*
X007968Y017758D01*
X007139Y017735D02*
X007042Y017687D01*
X006945Y017590D01*
X007090Y017590D01*
X007139Y017542D01*
X007139Y017493D01*
X007090Y017445D01*
X006994Y017445D01*
X006945Y017493D01*
X006945Y017590D01*
X006844Y017590D02*
X006844Y017493D01*
X006796Y017445D01*
X006699Y017445D01*
X006651Y017493D01*
X006651Y017590D02*
X006747Y017638D01*
X006796Y017638D01*
X006844Y017590D01*
X006844Y017735D02*
X006651Y017735D01*
X006651Y017590D01*
X006550Y017493D02*
X006501Y017445D01*
X006404Y017445D01*
X006356Y017493D01*
X006356Y017687D01*
X006404Y017735D01*
X006501Y017735D01*
X006550Y017687D01*
X005810Y017805D02*
X005520Y017805D01*
X005665Y017660D01*
X005665Y017853D01*
X005568Y017954D02*
X005520Y018003D01*
X005520Y018099D01*
X005568Y018148D01*
X005617Y018148D01*
X005810Y017954D01*
X005810Y018148D01*
X005762Y017558D02*
X005810Y017510D01*
X005810Y017413D01*
X005762Y017365D01*
X005568Y017365D01*
X005520Y017413D01*
X005520Y017510D01*
X005568Y017558D01*
X004882Y018581D02*
X004930Y018629D01*
X004930Y018726D01*
X004882Y018775D01*
X004785Y018876D02*
X004785Y019069D01*
X004882Y019170D02*
X004688Y019364D01*
X004882Y019364D01*
X004930Y019315D01*
X004930Y019219D01*
X004882Y019170D01*
X004688Y019170D01*
X004640Y019219D01*
X004640Y019315D01*
X004688Y019364D01*
X004640Y019021D02*
X004785Y018876D01*
X004688Y018775D02*
X004640Y018726D01*
X004640Y018629D01*
X004688Y018581D01*
X004882Y018581D01*
X004930Y019021D02*
X004640Y019021D01*
X004768Y020065D02*
X004962Y020065D01*
X005010Y020113D01*
X005010Y020210D01*
X004962Y020258D01*
X004962Y020360D02*
X005010Y020408D01*
X005010Y020505D01*
X004962Y020553D01*
X004913Y020553D01*
X004865Y020505D01*
X004865Y020456D01*
X004865Y020505D02*
X004817Y020553D01*
X004768Y020553D01*
X004720Y020505D01*
X004720Y020408D01*
X004768Y020360D01*
X004768Y020258D02*
X004720Y020210D01*
X004720Y020113D01*
X004768Y020065D01*
X004720Y020654D02*
X004720Y020848D01*
X004768Y020848D01*
X004962Y020654D01*
X005010Y020654D01*
X005488Y021181D02*
X005682Y021181D01*
X005730Y021229D01*
X005730Y021326D01*
X005682Y021375D01*
X005682Y021476D02*
X005730Y021524D01*
X005730Y021621D01*
X005682Y021669D01*
X005633Y021669D01*
X005585Y021621D01*
X005585Y021572D01*
X005585Y021621D02*
X005537Y021669D01*
X005488Y021669D01*
X005440Y021621D01*
X005440Y021524D01*
X005488Y021476D01*
X005488Y021375D02*
X005440Y021326D01*
X005440Y021229D01*
X005488Y021181D01*
X005940Y020955D02*
X006037Y020955D01*
X005988Y020955D02*
X005988Y020665D01*
X005940Y020665D02*
X006037Y020665D01*
X006136Y020713D02*
X006136Y020907D01*
X006185Y020955D01*
X006282Y020955D01*
X006330Y020907D01*
X006431Y020810D02*
X006576Y020810D01*
X006625Y020762D01*
X006625Y020713D01*
X006576Y020665D01*
X006479Y020665D01*
X006431Y020713D01*
X006431Y020810D01*
X006528Y020907D01*
X006625Y020955D01*
X006330Y020713D02*
X006282Y020665D01*
X006185Y020665D01*
X006136Y020713D01*
X006404Y021645D02*
X006501Y021645D01*
X006550Y021693D01*
X006651Y021693D02*
X006699Y021645D01*
X006796Y021645D01*
X006844Y021693D01*
X006844Y021742D01*
X006796Y021790D01*
X006651Y021790D01*
X006651Y021693D01*
X006651Y021790D02*
X006747Y021887D01*
X006844Y021935D01*
X006945Y021887D02*
X006994Y021935D01*
X007090Y021935D01*
X007139Y021887D01*
X007139Y021838D01*
X006945Y021645D01*
X007139Y021645D01*
X006550Y021887D02*
X006501Y021935D01*
X006404Y021935D01*
X006356Y021887D01*
X006356Y021693D01*
X006404Y021645D01*
X005730Y021819D02*
X005730Y021915D01*
X005682Y021964D01*
X005488Y021964D01*
X005440Y021915D01*
X005440Y021819D01*
X005488Y021770D01*
X005537Y021770D01*
X005585Y021819D01*
X005585Y021964D01*
X005730Y021819D02*
X005682Y021770D01*
X004639Y021742D02*
X004639Y021693D01*
X004590Y021645D01*
X004494Y021645D01*
X004445Y021693D01*
X004445Y021742D01*
X004494Y021790D01*
X004590Y021790D01*
X004639Y021742D01*
X004590Y021790D02*
X004639Y021838D01*
X004639Y021887D01*
X004590Y021935D01*
X004494Y021935D01*
X004445Y021887D01*
X004445Y021838D01*
X004494Y021790D01*
X004344Y021742D02*
X004344Y021693D01*
X004296Y021645D01*
X004199Y021645D01*
X004151Y021693D01*
X004050Y021693D02*
X004001Y021645D01*
X003904Y021645D01*
X003856Y021693D01*
X003856Y021887D01*
X003904Y021935D01*
X004001Y021935D01*
X004050Y021887D01*
X004151Y021887D02*
X004199Y021935D01*
X004296Y021935D01*
X004344Y021887D01*
X004344Y021838D01*
X004296Y021790D01*
X004344Y021742D01*
X004296Y021790D02*
X004247Y021790D01*
X003282Y020764D02*
X003233Y020764D01*
X003185Y020715D01*
X003185Y020570D01*
X003282Y020570D01*
X003330Y020619D01*
X003330Y020715D01*
X003282Y020764D01*
X003088Y020667D02*
X003185Y020570D01*
X003233Y020469D02*
X003185Y020421D01*
X003185Y020276D01*
X003282Y020276D01*
X003330Y020324D01*
X003330Y020421D01*
X003282Y020469D01*
X003233Y020469D01*
X003088Y020372D02*
X003185Y020276D01*
X003185Y020175D02*
X003233Y020126D01*
X003233Y019981D01*
X003233Y020078D02*
X003330Y020175D01*
X003185Y020175D02*
X003088Y020175D01*
X003040Y020126D01*
X003040Y019981D01*
X003330Y019981D01*
X003088Y020372D02*
X003040Y020469D01*
X003088Y020667D02*
X003040Y020764D01*
X003033Y021081D02*
X003033Y021226D01*
X002985Y021275D01*
X002888Y021275D01*
X002840Y021226D01*
X002840Y021081D01*
X003130Y021081D01*
X003033Y021178D02*
X003130Y021275D01*
X003082Y021376D02*
X003130Y021424D01*
X003130Y021521D01*
X003082Y021569D01*
X003033Y021569D01*
X002985Y021521D01*
X002985Y021376D01*
X003082Y021376D01*
X002985Y021376D02*
X002888Y021472D01*
X002840Y021569D01*
X002840Y021670D02*
X002985Y021670D01*
X002937Y021767D01*
X002937Y021815D01*
X002985Y021864D01*
X003082Y021864D01*
X003130Y021815D01*
X003130Y021719D01*
X003082Y021670D01*
X002840Y021670D02*
X002840Y021864D01*
X003212Y022615D02*
X003260Y022663D01*
X003260Y022712D01*
X003212Y022760D01*
X002970Y022760D01*
X002970Y022712D02*
X002970Y022808D01*
X003067Y022910D02*
X002970Y023006D01*
X003260Y023006D01*
X003260Y022910D02*
X003260Y023103D01*
X003212Y023204D02*
X003018Y023398D01*
X003212Y023398D01*
X003260Y023349D01*
X003260Y023253D01*
X003212Y023204D01*
X003018Y023204D01*
X002970Y023253D01*
X002970Y023349D01*
X003018Y023398D01*
X005701Y024943D02*
X005749Y024895D01*
X005797Y024895D01*
X005846Y024943D01*
X005846Y025185D01*
X005894Y025185D02*
X005797Y025185D01*
X005995Y025185D02*
X006189Y025185D01*
X006189Y025137D01*
X005995Y024943D01*
X005995Y024895D01*
X006044Y027695D02*
X005995Y027743D01*
X006044Y027695D02*
X006140Y027695D01*
X006189Y027743D01*
X006189Y027840D01*
X006140Y027888D01*
X006092Y027888D01*
X005995Y027840D01*
X005995Y027985D01*
X006189Y027985D01*
X005894Y027985D02*
X005797Y027985D01*
X005846Y027985D02*
X005846Y027743D01*
X005797Y027695D01*
X005749Y027695D01*
X005701Y027743D01*
X009701Y027743D02*
X009749Y027695D01*
X009797Y027695D01*
X009846Y027743D01*
X009846Y027985D01*
X009894Y027985D02*
X009797Y027985D01*
X009995Y027840D02*
X010140Y027840D01*
X010189Y027792D01*
X010189Y027743D01*
X010140Y027695D01*
X010044Y027695D01*
X009995Y027743D01*
X009995Y027840D01*
X010092Y027937D01*
X010189Y027985D01*
X010140Y025185D02*
X010189Y025137D01*
X010189Y025088D01*
X010140Y025040D01*
X010044Y025040D01*
X009995Y025088D01*
X009995Y025137D01*
X010044Y025185D01*
X010140Y025185D01*
X010140Y025040D02*
X010189Y024992D01*
X010189Y024943D01*
X010140Y024895D01*
X010044Y024895D01*
X009995Y024943D01*
X009995Y024992D01*
X010044Y025040D01*
X009894Y025185D02*
X009797Y025185D01*
X009846Y025185D02*
X009846Y024943D01*
X009797Y024895D01*
X009749Y024895D01*
X009701Y024943D01*
X009840Y022455D02*
X009985Y022455D01*
X010033Y022407D01*
X010033Y022310D01*
X009985Y022262D01*
X009840Y022262D01*
X009937Y022262D02*
X010033Y022165D01*
X010135Y022165D02*
X010135Y022213D01*
X010328Y022407D01*
X010328Y022455D01*
X010135Y022455D01*
X009840Y022455D02*
X009840Y022165D01*
X009623Y021855D02*
X009623Y021807D01*
X009429Y021613D01*
X009429Y021565D01*
X009280Y021565D02*
X009280Y021855D01*
X009135Y021710D01*
X009328Y021710D01*
X009429Y021855D02*
X009623Y021855D01*
X009033Y021807D02*
X008985Y021855D01*
X008888Y021855D01*
X008840Y021807D01*
X008840Y021613D01*
X008888Y021565D01*
X008985Y021565D01*
X009033Y021613D01*
X008762Y020748D02*
X008713Y020748D01*
X008665Y020699D01*
X008665Y020554D01*
X008762Y020554D01*
X008810Y020603D01*
X008810Y020699D01*
X008762Y020748D01*
X008568Y020651D02*
X008665Y020554D01*
X008665Y020453D02*
X008665Y020260D01*
X008520Y020405D01*
X008810Y020405D01*
X008762Y020158D02*
X008810Y020110D01*
X008810Y020013D01*
X008762Y019965D01*
X008568Y019965D01*
X008520Y020013D01*
X008520Y020110D01*
X008568Y020158D01*
X008568Y020651D02*
X008520Y020748D01*
X008030Y021129D02*
X008030Y021226D01*
X007982Y021275D01*
X007885Y021376D02*
X007885Y021569D01*
X007933Y021670D02*
X007885Y021719D01*
X007885Y021815D01*
X007933Y021864D01*
X007982Y021864D01*
X008030Y021815D01*
X008030Y021719D01*
X007982Y021670D01*
X007933Y021670D01*
X007885Y021719D02*
X007837Y021670D01*
X007788Y021670D01*
X007740Y021719D01*
X007740Y021815D01*
X007788Y021864D01*
X007837Y021864D01*
X007885Y021815D01*
X008030Y021521D02*
X007740Y021521D01*
X007885Y021376D01*
X007788Y021275D02*
X007740Y021226D01*
X007740Y021129D01*
X007788Y021081D01*
X007982Y021081D01*
X008030Y021129D01*
X009540Y019755D02*
X009540Y019465D01*
X009540Y019562D02*
X009685Y019562D01*
X009733Y019610D01*
X009733Y019707D01*
X009685Y019755D01*
X009540Y019755D01*
X009637Y019562D02*
X009733Y019465D01*
X009835Y019465D02*
X009835Y019513D01*
X010028Y019707D01*
X010028Y019755D01*
X009835Y019755D01*
X010129Y019707D02*
X010178Y019755D01*
X010274Y019755D01*
X010323Y019707D01*
X010323Y019658D01*
X010129Y019465D01*
X010323Y019465D01*
X011840Y021176D02*
X011840Y021321D01*
X011888Y021369D01*
X011985Y021369D01*
X012033Y021321D01*
X012033Y021176D01*
X012033Y021272D02*
X012130Y021369D01*
X012130Y021470D02*
X011937Y021664D01*
X011888Y021664D01*
X011840Y021615D01*
X011840Y021519D01*
X011888Y021470D01*
X012130Y021470D02*
X012130Y021664D01*
X012130Y021176D02*
X011840Y021176D01*
X012840Y021176D02*
X012840Y021321D01*
X012888Y021369D01*
X012985Y021369D01*
X013033Y021321D01*
X013033Y021176D01*
X013033Y021272D02*
X013130Y021369D01*
X013082Y021470D02*
X013130Y021519D01*
X013130Y021615D01*
X013082Y021664D01*
X012888Y021664D01*
X012840Y021615D01*
X012840Y021519D01*
X012888Y021470D01*
X012937Y021470D01*
X012985Y021519D01*
X012985Y021664D01*
X013130Y021176D02*
X012840Y021176D01*
X013840Y021226D02*
X013840Y021081D01*
X014130Y021081D01*
X014033Y021081D02*
X014033Y021226D01*
X013985Y021275D01*
X013888Y021275D01*
X013840Y021226D01*
X013937Y021376D02*
X013840Y021472D01*
X014130Y021472D01*
X014130Y021376D02*
X014130Y021569D01*
X014082Y021670D02*
X014130Y021719D01*
X014130Y021815D01*
X014082Y021864D01*
X014033Y021864D01*
X013985Y021815D01*
X013985Y021670D01*
X014082Y021670D01*
X013985Y021670D02*
X013888Y021767D01*
X013840Y021864D01*
X014130Y021275D02*
X014033Y021178D01*
X014840Y021226D02*
X014840Y021081D01*
X015130Y021081D01*
X015033Y021081D02*
X015033Y021226D01*
X014985Y021275D01*
X014888Y021275D01*
X014840Y021226D01*
X014888Y021376D02*
X014840Y021424D01*
X014840Y021521D01*
X014888Y021569D01*
X014937Y021569D01*
X015130Y021376D01*
X015130Y021569D01*
X015082Y021670D02*
X015130Y021719D01*
X015130Y021815D01*
X015082Y021864D01*
X015033Y021864D01*
X014985Y021815D01*
X014985Y021767D01*
X014985Y021815D02*
X014937Y021864D01*
X014888Y021864D01*
X014840Y021815D01*
X014840Y021719D01*
X014888Y021670D01*
X015130Y021275D02*
X015033Y021178D01*
X015840Y021226D02*
X015840Y021081D01*
X016130Y021081D01*
X016033Y021081D02*
X016033Y021226D01*
X015985Y021275D01*
X015888Y021275D01*
X015840Y021226D01*
X015888Y021376D02*
X015840Y021424D01*
X015840Y021521D01*
X015888Y021569D01*
X015937Y021569D01*
X015985Y021521D01*
X016033Y021569D01*
X016082Y021569D01*
X016130Y021521D01*
X016130Y021424D01*
X016082Y021376D01*
X016130Y021275D02*
X016033Y021178D01*
X015985Y021472D02*
X015985Y021521D01*
X016082Y021670D02*
X015888Y021864D01*
X016082Y021864D01*
X016130Y021815D01*
X016130Y021719D01*
X016082Y021670D01*
X015888Y021670D01*
X015840Y021719D01*
X015840Y021815D01*
X015888Y021864D01*
X016840Y021864D02*
X016840Y021670D01*
X016888Y021569D02*
X016937Y021569D01*
X016985Y021521D01*
X017033Y021569D01*
X017082Y021569D01*
X017130Y021521D01*
X017130Y021424D01*
X017082Y021376D01*
X017130Y021275D02*
X017033Y021178D01*
X017033Y021226D02*
X017033Y021081D01*
X017130Y021081D02*
X016840Y021081D01*
X016840Y021226D01*
X016888Y021275D01*
X016985Y021275D01*
X017033Y021226D01*
X016888Y021376D02*
X016840Y021424D01*
X016840Y021521D01*
X016888Y021569D01*
X016985Y021521D02*
X016985Y021472D01*
X017082Y021670D02*
X017130Y021670D01*
X017082Y021670D02*
X016888Y021864D01*
X016840Y021864D01*
X017840Y021815D02*
X017985Y021670D01*
X017985Y021864D01*
X018130Y021815D02*
X017840Y021815D01*
X017985Y021569D02*
X017985Y021376D01*
X017840Y021521D01*
X018130Y021521D01*
X018130Y021275D02*
X018033Y021178D01*
X018033Y021226D02*
X018033Y021081D01*
X018130Y021081D02*
X017840Y021081D01*
X017840Y021226D01*
X017888Y021275D01*
X017985Y021275D01*
X018033Y021226D01*
X018840Y021226D02*
X018840Y021081D01*
X019130Y021081D01*
X019033Y021081D02*
X019033Y021226D01*
X018985Y021275D01*
X018888Y021275D01*
X018840Y021226D01*
X018840Y021376D02*
X018985Y021376D01*
X018937Y021472D01*
X018937Y021521D01*
X018985Y021569D01*
X019082Y021569D01*
X019130Y021521D01*
X019130Y021424D01*
X019082Y021376D01*
X019130Y021275D02*
X019033Y021178D01*
X018840Y021376D02*
X018840Y021569D01*
X018937Y021670D02*
X018840Y021767D01*
X019130Y021767D01*
X019130Y021670D02*
X019130Y021864D01*
X018140Y024895D02*
X018140Y025185D01*
X017995Y025040D01*
X018189Y025040D01*
X017894Y025185D02*
X017797Y025185D01*
X017846Y025185D02*
X017846Y024943D01*
X017797Y024895D01*
X017749Y024895D01*
X017701Y024943D01*
X017749Y027695D02*
X017797Y027695D01*
X017846Y027743D01*
X017846Y027985D01*
X017894Y027985D02*
X017797Y027985D01*
X017995Y027937D02*
X018044Y027985D01*
X018140Y027985D01*
X018189Y027937D01*
X018189Y027888D01*
X017995Y027695D01*
X018189Y027695D01*
X017749Y027695D02*
X017701Y027743D01*
X014189Y027695D02*
X013995Y027695D01*
X014092Y027695D02*
X014092Y027985D01*
X013995Y027888D01*
X013894Y027985D02*
X013797Y027985D01*
X013846Y027985D02*
X013846Y027743D01*
X013797Y027695D01*
X013749Y027695D01*
X013701Y027743D01*
X013797Y025185D02*
X013894Y025185D01*
X013846Y025185D02*
X013846Y024943D01*
X013797Y024895D01*
X013749Y024895D01*
X013701Y024943D01*
X013995Y024943D02*
X014044Y024895D01*
X014140Y024895D01*
X014189Y024943D01*
X014189Y024992D01*
X014140Y025040D01*
X014092Y025040D01*
X014140Y025040D02*
X014189Y025088D01*
X014189Y025137D01*
X014140Y025185D01*
X014044Y025185D01*
X013995Y025137D01*
X013851Y024425D02*
X013851Y024135D01*
X013755Y024135D02*
X013948Y024135D01*
X014049Y024135D02*
X014243Y024135D01*
X014146Y024135D02*
X014146Y024425D01*
X014049Y024328D01*
X013851Y024425D02*
X013755Y024328D01*
X013653Y024425D02*
X013557Y024425D01*
X013605Y024425D02*
X013605Y024183D01*
X013557Y024135D01*
X013508Y024135D01*
X013460Y024183D01*
X010526Y022455D02*
X010526Y022165D01*
X010429Y022165D02*
X010623Y022165D01*
X010429Y022358D02*
X010526Y022455D01*
X004639Y017345D02*
X004445Y017345D01*
X004542Y017345D02*
X004542Y017635D01*
X004445Y017538D01*
X004344Y017490D02*
X004151Y017490D01*
X004296Y017635D01*
X004296Y017345D01*
X004050Y017393D02*
X004001Y017345D01*
X003904Y017345D01*
X003856Y017393D01*
X003856Y017587D01*
X003904Y017635D01*
X004001Y017635D01*
X004050Y017587D01*
X003310Y018465D02*
X003020Y018465D01*
X003020Y018610D01*
X003068Y018658D01*
X003165Y018658D01*
X003213Y018610D01*
X003213Y018465D01*
X003213Y018562D02*
X003310Y018658D01*
X003262Y018760D02*
X003310Y018808D01*
X003310Y018905D01*
X003262Y018953D01*
X003213Y018953D01*
X003165Y018905D01*
X003165Y018760D01*
X003262Y018760D01*
X003165Y018760D02*
X003068Y018856D01*
X003020Y018953D01*
X003068Y019054D02*
X003020Y019103D01*
X003020Y019199D01*
X003068Y019248D01*
X003117Y019248D01*
X003165Y019199D01*
X003165Y019103D01*
X003117Y019054D01*
X003068Y019054D01*
X003165Y019103D02*
X003213Y019054D01*
X003262Y019054D01*
X003310Y019103D01*
X003310Y019199D01*
X003262Y019248D01*
X003213Y019248D01*
X003165Y019199D01*
X002768Y018148D02*
X002962Y017954D01*
X003010Y017954D01*
X002962Y017853D02*
X002913Y017853D01*
X002865Y017805D01*
X002865Y017660D01*
X002962Y017660D01*
X003010Y017708D01*
X003010Y017805D01*
X002962Y017853D01*
X002768Y017756D02*
X002865Y017660D01*
X002865Y017558D02*
X002913Y017510D01*
X002913Y017365D01*
X002913Y017462D02*
X003010Y017558D01*
X002865Y017558D02*
X002768Y017558D01*
X002720Y017510D01*
X002720Y017365D01*
X003010Y017365D01*
X002768Y017756D02*
X002720Y017853D01*
X002720Y017954D02*
X002720Y018148D01*
X002768Y018148D01*
X005054Y009135D02*
X005151Y009135D01*
X005103Y009135D02*
X005103Y008845D01*
X005151Y008845D02*
X005054Y008845D01*
X005251Y008893D02*
X005251Y009087D01*
X005299Y009135D01*
X005396Y009135D01*
X005444Y009087D01*
X005545Y009135D02*
X005739Y009135D01*
X005739Y009087D01*
X005545Y008893D01*
X005545Y008845D01*
X005444Y008893D02*
X005396Y008845D01*
X005299Y008845D01*
X005251Y008893D01*
X004030Y006305D02*
X003933Y006305D01*
X003885Y006257D01*
X003885Y006208D01*
X003933Y006160D01*
X004078Y006160D01*
X004078Y006063D02*
X004078Y006257D01*
X004030Y006305D01*
X004078Y006063D02*
X004030Y006015D01*
X003933Y006015D01*
X003885Y006063D01*
X003735Y006063D02*
X003735Y006305D01*
X003687Y006305D02*
X003783Y006305D01*
X003735Y006063D02*
X003687Y006015D01*
X003638Y006015D01*
X003590Y006063D01*
D88*
X004675Y023700D02*
X005075Y023900D01*
X004675Y024100D01*
X004775Y023900D01*
X004375Y023900D01*
X004675Y023700D02*
X004775Y023900D01*
X003375Y024750D02*
X003375Y025500D01*
X006375Y025500D01*
X006375Y024750D01*
X003375Y024750D01*
X003375Y025500D02*
X003375Y027250D01*
X006375Y027250D01*
X006375Y025500D01*
X007375Y025500D02*
X007375Y024750D01*
X010375Y024750D01*
X010375Y025500D01*
X007375Y025500D01*
X007375Y027250D01*
X010375Y027250D01*
X010375Y025500D01*
X011375Y025500D02*
X011375Y024750D01*
X014375Y024750D01*
X014375Y025500D01*
X011375Y025500D01*
X011375Y027250D01*
X014375Y027250D01*
X014375Y025500D01*
X015375Y025500D02*
X015375Y024750D01*
X018375Y024750D01*
X018375Y025500D01*
X015375Y025500D01*
X015375Y027250D01*
X018375Y027250D01*
X018375Y025500D01*
X018375Y027550D02*
X018375Y028300D01*
X015375Y028300D01*
X015375Y030050D01*
X018375Y030050D01*
X018375Y028300D01*
X018375Y027550D02*
X015375Y027550D01*
X015375Y028300D01*
X014375Y028300D02*
X014375Y027550D01*
X011375Y027550D01*
X011375Y028300D01*
X014375Y028300D01*
X014375Y030050D01*
X011375Y030050D01*
X011375Y028300D01*
X010375Y028300D02*
X010375Y027550D01*
X007375Y027550D01*
X007375Y028300D01*
X010375Y028300D01*
X010375Y030050D01*
X007375Y030050D01*
X007375Y028300D01*
X006375Y028300D02*
X006375Y027550D01*
X003375Y027550D01*
X003375Y028300D01*
X006375Y028300D01*
X006375Y030050D01*
X003375Y030050D01*
X003375Y028300D01*
D89*
X009432Y018849D02*
X009578Y018702D01*
X009615Y018739D01*
X009615Y018812D01*
X009578Y018849D01*
X009432Y018849D01*
X009395Y018812D01*
X009395Y018739D01*
X009432Y018702D01*
X009578Y018702D01*
X009432Y018628D02*
X009578Y018481D01*
X009615Y018481D01*
X009615Y018407D02*
X009542Y018333D01*
X009542Y018370D02*
X009542Y018260D01*
X009615Y018260D02*
X009395Y018260D01*
X009395Y018370D01*
X009432Y018407D01*
X009505Y018407D01*
X009542Y018370D01*
X009395Y018481D02*
X009395Y018628D01*
X009432Y018628D01*
X011122Y014136D02*
X011085Y014099D01*
X011085Y014026D01*
X011122Y013989D01*
X011268Y013989D01*
X011122Y014136D01*
X011268Y014136D01*
X011305Y014099D01*
X011305Y014026D01*
X011268Y013989D01*
X011305Y013915D02*
X011305Y013768D01*
X011305Y013841D02*
X011085Y013841D01*
X011158Y013768D01*
X011122Y013694D02*
X011195Y013694D01*
X011232Y013657D01*
X011232Y013547D01*
X011305Y013547D02*
X011085Y013547D01*
X011085Y013657D01*
X011122Y013694D01*
X011232Y013620D02*
X011305Y013694D01*
X010418Y009886D02*
X010455Y009849D01*
X010455Y009776D01*
X010418Y009739D01*
X010345Y009739D02*
X010308Y009812D01*
X010308Y009849D01*
X010345Y009886D01*
X010418Y009886D01*
X010345Y009739D02*
X010235Y009739D01*
X010235Y009886D01*
X010272Y009665D02*
X010345Y009665D01*
X010382Y009628D01*
X010382Y009518D01*
X010455Y009518D02*
X010235Y009518D01*
X010235Y009628D01*
X010272Y009665D01*
X010382Y009591D02*
X010455Y009665D01*
M02*
