%
M48
M72
T01C0.0150
T02C0.0197
T03C0.0394
T04C0.0400
T05C0.0670
%
T01
X15375Y13500
T02
X15675Y12600
X16475Y13400
X17075Y12700
X17444Y13335
X18875Y13800
X18975Y12300
X18475Y10500
X18775Y9800
X18375Y9400
X17375Y8600
X15675Y8800
X14175Y10600
X13775Y11000
X13275Y11600
X13075Y12600
X12575Y13100
X12275Y13700
X12275Y14900
X11775Y15000
X11475Y15900
X10875Y15900
X10925Y15400
X10375Y16100
X9875Y16000
X9745Y16800
X9075Y16900
X7975Y17200
X7675Y17700
X8575Y18800
X8575Y20400
X9475Y21900
X10975Y21700
X10975Y22200
X12075Y21100
X14075Y22342
X14475Y22700
X13225Y18100
X13275Y17100
X14325Y17950
X14975Y17300
X15625Y17400
X16075Y17500
X16575Y16900
X17775Y16200
X17375Y15000
X18875Y15500
X19225Y17450
X18875Y18600
X17975Y17600
X15275Y15400
X13575Y15400
X11875Y16700
X9775Y14300
X10375Y12500
X11075Y12500
X10875Y11500
X9475Y12000
X9175Y11200
X8075Y12700
X7275Y12700
X6775Y12165
X7475Y10600
X7825Y9050
X8275Y8000
X8875Y8600
X9275Y8350
X9975Y8500
X12475Y9000
X13275Y9900
X17475Y11100
X18575Y22600
X10075Y24900
X8875Y24900
X5875Y21500
X5075Y20400
X5075Y18800
X4325Y17350
X3825Y16950
X5475Y15700
X6075Y16750
X6675Y16800
X7675Y15700
X7475Y14500
X6075Y14200
X5575Y14300
X5575Y12600
X4925Y11700
X4625Y10450
X4875Y8500
X4575Y8000
X6775Y19600
X6775Y20400
X3875Y22200
X3275Y22400
X3175Y23500
X3175Y27100
T03
X875Y7000
X875Y8000
X875Y9000
X875Y10000
X875Y11000
X875Y12000
X875Y13000
X875Y14000
X875Y15000
X875Y16000
X875Y17000
X875Y18000
X875Y19000
X875Y20000
X875Y21000
X875Y22000
X875Y23000
X875Y24000
X875Y25000
X875Y26000
X875Y27000
X875Y28000
X875Y29000
X1875Y29000
X1875Y28000
X1875Y27000
X1875Y26000
X1875Y25000
X1875Y24000
X1875Y23000
X1875Y22000
X1875Y21000
X1875Y20000
X1875Y19000
X1875Y18000
X1875Y17000
X1875Y16000
X1875Y15000
X1875Y14000
X1875Y13000
X1875Y12000
X1875Y11000
X1875Y10000
X1875Y9000
X1875Y8000
X1875Y7000
X3875Y7000
X3875Y8000
X3875Y9000
X3875Y10000
X3875Y11000
X3875Y12000
X3875Y13000
X3875Y14000
X3875Y15000
X3875Y16000
X3875Y23000
X4875Y23000
X5875Y23000
X6875Y23000
X7875Y23000
X8875Y23000
X9875Y23000
X10875Y23000
X11875Y23000
X12875Y23000
X12875Y26000
X13875Y26000
X11875Y26000
X9875Y26000
X8875Y26000
X7875Y26000
X5875Y26000
X4875Y26000
X3875Y26000
X3875Y28800
X4875Y28800
X5875Y28800
X7875Y28800
X8875Y28800
X9875Y28800
X11875Y28800
X12875Y28800
X13875Y28800
X15875Y28800
X16875Y28800
X17875Y28800
X19875Y29000
X19875Y28000
X19875Y27000
X19875Y26000
X19875Y25000
X19875Y24000
X19875Y23000
X19875Y22000
X19875Y21000
X19875Y20000
X19875Y19000
X19875Y18000
X19875Y17000
X19875Y16000
X19875Y15000
X19875Y14000
X19875Y13000
X19875Y12000
X19875Y11000
X19875Y10000
X19875Y9000
X19875Y8000
X19875Y7000
X20875Y7000
X20875Y8000
X20875Y9000
X20875Y10000
X20875Y11000
X20875Y12000
X20875Y13000
X20875Y14000
X20875Y15000
X20875Y16000
X20875Y17000
X20875Y18000
X20875Y19000
X20875Y20000
X20875Y21000
X20875Y22000
X20875Y23000
X20875Y24000
X20875Y25000
X20875Y26000
X20875Y27000
X20875Y28000
X20875Y29000
X17875Y26000
X16875Y26000
X15875Y26000
T04
X12875Y24000
X11875Y24000
X10875Y24000
X9875Y24000
X8875Y24000
X7875Y24000
X6875Y24000
X5875Y24000
X11575Y20300
X11575Y19300
X12575Y19300
X12575Y20300
X13575Y20300
X13575Y19300
X14575Y19300
X14575Y20300
X15575Y20300
X15575Y19300
X16575Y19300
X16575Y20300
X17575Y20300
X17575Y19300
X18575Y19300
X18575Y20300
T05
X18075Y7000
M30
