G75*
%MOIN*%
%OFA0B0*%
%FSLAX24Y24*%
%IPPOS*%
%LPD*%
%AMOC8*
5,1,8,0,0,1.08239X$1,22.5*
%
%ADD10C,0.0594*%
%ADD11C,0.0600*%
%ADD12C,0.1005*%
%ADD13C,0.0357*%
%ADD14C,0.0100*%
%ADD15C,0.0310*%
D10*
X000875Y007000D03*
X000875Y008000D03*
X000875Y009000D03*
X000875Y010000D03*
X000875Y011000D03*
X000875Y012000D03*
X000875Y013000D03*
X000875Y014000D03*
X000875Y015000D03*
X000875Y016000D03*
X000875Y017000D03*
X000875Y018000D03*
X000875Y019000D03*
X000875Y020000D03*
X000875Y021000D03*
X000875Y022000D03*
X000875Y023000D03*
X000875Y024000D03*
X000875Y025000D03*
X000875Y026000D03*
X000875Y027000D03*
X000875Y028000D03*
X000875Y029000D03*
X001875Y029000D03*
X001875Y028000D03*
X001875Y027000D03*
X001875Y026000D03*
X001875Y025000D03*
X001875Y024000D03*
X001875Y023000D03*
X001875Y022000D03*
X001875Y021000D03*
X001875Y020000D03*
X001875Y019000D03*
X001875Y018000D03*
X001875Y017000D03*
X001875Y016000D03*
X001875Y015000D03*
X001875Y014000D03*
X001875Y013000D03*
X001875Y012000D03*
X001875Y011000D03*
X001875Y010000D03*
X001875Y009000D03*
X001875Y008000D03*
X001875Y007000D03*
X003875Y007000D03*
X003875Y008000D03*
X003875Y009000D03*
X003875Y010000D03*
X003875Y011000D03*
X003875Y012000D03*
X003875Y013000D03*
X003875Y014000D03*
X003875Y015000D03*
X003875Y016000D03*
X003875Y023000D03*
X004875Y023000D03*
X005875Y023000D03*
X006875Y023000D03*
X007875Y023000D03*
X008875Y023000D03*
X009875Y023000D03*
X010875Y023000D03*
X011875Y023000D03*
X012875Y023000D03*
X012875Y026000D03*
X013875Y026000D03*
X011875Y026000D03*
X009875Y026000D03*
X008875Y026000D03*
X007875Y026000D03*
X005875Y026000D03*
X004875Y026000D03*
X003875Y026000D03*
X003875Y028800D03*
X004875Y028800D03*
X005875Y028800D03*
X007875Y028800D03*
X008875Y028800D03*
X009875Y028800D03*
X011875Y028800D03*
X012875Y028800D03*
X013875Y028800D03*
X015875Y028800D03*
X016875Y028800D03*
X017875Y028800D03*
X019875Y029000D03*
X019875Y028000D03*
X019875Y027000D03*
X019875Y026000D03*
X019875Y025000D03*
X019875Y024000D03*
X019875Y023000D03*
X019875Y022000D03*
X019875Y021000D03*
X019875Y020000D03*
X019875Y019000D03*
X019875Y018000D03*
X019875Y017000D03*
X019875Y016000D03*
X019875Y015000D03*
X019875Y014000D03*
X019875Y013000D03*
X019875Y012000D03*
X019875Y011000D03*
X019875Y010000D03*
X019875Y009000D03*
X019875Y008000D03*
X019875Y007000D03*
X020875Y007000D03*
X020875Y008000D03*
X020875Y009000D03*
X020875Y010000D03*
X020875Y011000D03*
X020875Y012000D03*
X020875Y013000D03*
X020875Y014000D03*
X020875Y015000D03*
X020875Y016000D03*
X020875Y017000D03*
X020875Y018000D03*
X020875Y019000D03*
X020875Y020000D03*
X020875Y021000D03*
X020875Y022000D03*
X020875Y023000D03*
X020875Y024000D03*
X020875Y025000D03*
X020875Y026000D03*
X020875Y027000D03*
X020875Y028000D03*
X020875Y029000D03*
X017875Y026000D03*
X016875Y026000D03*
X015875Y026000D03*
D11*
X012875Y024000D03*
X011875Y024000D03*
X010875Y024000D03*
X009875Y024000D03*
X008875Y024000D03*
X007875Y024000D03*
X006875Y024000D03*
X005875Y024000D03*
X011575Y020300D03*
X011575Y019300D03*
X012575Y019300D03*
X012575Y020300D03*
X013575Y020300D03*
X013575Y019300D03*
X014575Y019300D03*
X014575Y020300D03*
X015575Y020300D03*
X015575Y019300D03*
X016575Y019300D03*
X016575Y020300D03*
X017575Y020300D03*
X017575Y019300D03*
X018575Y019300D03*
X018575Y020300D03*
D12*
X018075Y007000D03*
D13*
X017375Y008600D03*
X018375Y009400D03*
X018775Y009800D03*
X018475Y010500D03*
X017475Y011100D03*
X017075Y012700D03*
X017444Y013335D03*
X016475Y013400D03*
X015675Y012600D03*
X014175Y010600D03*
X013775Y011000D03*
X013275Y011600D03*
X013075Y012600D03*
X012575Y013100D03*
X012275Y013700D03*
X012275Y014900D03*
X011775Y015000D03*
X011475Y015900D03*
X010875Y015900D03*
X010925Y015400D03*
X010375Y016100D03*
X009875Y016000D03*
X009745Y016800D03*
X009075Y016900D03*
X007975Y017200D03*
X007675Y017700D03*
X008575Y018800D03*
X008575Y020400D03*
X009475Y021900D03*
X010975Y021700D03*
X010975Y022200D03*
X012075Y021100D03*
X014075Y022342D03*
X014475Y022700D03*
X013225Y018100D03*
X013275Y017100D03*
X014325Y017950D03*
X014975Y017300D03*
X015625Y017400D03*
X016075Y017500D03*
X016575Y016900D03*
X017775Y016200D03*
X017375Y015000D03*
X018875Y015500D03*
X018875Y013800D03*
X018975Y012300D03*
X015675Y008800D03*
X013275Y009900D03*
X012475Y009000D03*
X010875Y011500D03*
X011075Y012500D03*
X010375Y012500D03*
X009475Y012000D03*
X009175Y011200D03*
X008075Y012700D03*
X007275Y012700D03*
X006775Y012165D03*
X007475Y010600D03*
X007825Y009050D03*
X008275Y008000D03*
X008875Y008600D03*
X009275Y008350D03*
X009975Y008500D03*
X009775Y014300D03*
X007675Y015700D03*
X007475Y014500D03*
X006075Y014200D03*
X005575Y014300D03*
X005475Y015700D03*
X006075Y016750D03*
X006675Y016800D03*
X005075Y018800D03*
X005075Y020400D03*
X005875Y021500D03*
X006775Y020400D03*
X006775Y019600D03*
X004325Y017350D03*
X003825Y016950D03*
X005575Y012600D03*
X004925Y011700D03*
X004625Y010450D03*
X004875Y008500D03*
X004575Y008000D03*
X011875Y016700D03*
X013575Y015400D03*
X015275Y015400D03*
X017975Y017600D03*
X018875Y018600D03*
X019225Y017450D03*
X018575Y022600D03*
X010075Y024900D03*
X008875Y024900D03*
X003875Y022200D03*
X003275Y022400D03*
X003175Y023500D03*
X003175Y027100D03*
D14*
X000500Y005900D02*
X000472Y005903D01*
X000446Y005912D01*
X000422Y005927D01*
X000402Y005947D01*
X000387Y005971D01*
X000378Y005997D01*
X000375Y006025D01*
X000375Y029275D01*
X000546Y029275D01*
X000513Y029242D01*
X000448Y029085D01*
X000448Y028915D01*
X000513Y028758D01*
X000633Y028638D01*
X000790Y028573D01*
X000960Y028573D01*
X001117Y028638D01*
X001237Y028758D01*
X001302Y028915D01*
X001302Y029085D01*
X001237Y029242D01*
X001204Y029275D01*
X001546Y029275D01*
X001513Y029242D01*
X001448Y029085D01*
X001448Y028915D01*
X001513Y028758D01*
X001633Y028638D01*
X001790Y028573D01*
X001960Y028573D01*
X002117Y028638D01*
X002237Y028758D01*
X002302Y028915D01*
X002302Y029085D01*
X002237Y029242D01*
X002117Y029362D01*
X002096Y029370D01*
X002812Y029800D01*
X018938Y029800D01*
X019638Y029380D01*
X019584Y029341D01*
X019534Y029291D01*
X019493Y029234D01*
X017985Y029234D01*
X017980Y029236D02*
X017923Y029245D01*
X017923Y028848D01*
X017827Y028848D01*
X017827Y028752D01*
X017430Y028752D01*
X017439Y028695D01*
X017461Y028628D01*
X017493Y028566D01*
X017534Y028509D01*
X017584Y028459D01*
X017641Y028418D01*
X017703Y028386D01*
X017770Y028364D01*
X017827Y028355D01*
X017827Y028752D01*
X017923Y028752D01*
X017923Y028848D01*
X018320Y028848D01*
X018311Y028905D01*
X018289Y028972D01*
X018257Y029034D01*
X018216Y029091D01*
X018166Y029141D01*
X018109Y029182D01*
X018047Y029214D01*
X017980Y029236D01*
X017923Y029234D02*
X017827Y029234D01*
X017827Y029245D02*
X017770Y029236D01*
X017703Y029214D01*
X017641Y029182D01*
X017584Y029141D01*
X017534Y029091D01*
X017493Y029034D01*
X017461Y028972D01*
X017439Y028905D01*
X017430Y028848D01*
X017827Y028848D01*
X017827Y029245D01*
X017765Y029234D02*
X013985Y029234D01*
X013980Y029236D02*
X013923Y029245D01*
X013923Y028848D01*
X013827Y028848D01*
X013827Y028752D01*
X013430Y028752D01*
X013439Y028695D01*
X013461Y028628D01*
X013493Y028566D01*
X013534Y028509D01*
X013584Y028459D01*
X013641Y028418D01*
X013703Y028386D01*
X013770Y028364D01*
X013827Y028355D01*
X013827Y028752D01*
X013923Y028752D01*
X013923Y028848D01*
X014320Y028848D01*
X014311Y028905D01*
X014289Y028972D01*
X014257Y029034D01*
X014216Y029091D01*
X014166Y029141D01*
X014109Y029182D01*
X014047Y029214D01*
X013980Y029236D01*
X013923Y029234D02*
X013827Y029234D01*
X013827Y029245D02*
X013770Y029236D01*
X013703Y029214D01*
X013641Y029182D01*
X013584Y029141D01*
X013534Y029091D01*
X013493Y029034D01*
X013461Y028972D01*
X013439Y028905D01*
X013430Y028848D01*
X013827Y028848D01*
X013827Y029245D01*
X013765Y029234D02*
X009985Y029234D01*
X009980Y029236D02*
X009923Y029245D01*
X009923Y028848D01*
X009827Y028848D01*
X009827Y028752D01*
X009430Y028752D01*
X009439Y028695D01*
X009461Y028628D01*
X009493Y028566D01*
X009534Y028509D01*
X009584Y028459D01*
X009641Y028418D01*
X009703Y028386D01*
X009770Y028364D01*
X009827Y028355D01*
X009827Y028752D01*
X009923Y028752D01*
X009923Y028848D01*
X010320Y028848D01*
X010311Y028905D01*
X010289Y028972D01*
X010257Y029034D01*
X010216Y029091D01*
X010166Y029141D01*
X010109Y029182D01*
X010047Y029214D01*
X009980Y029236D01*
X009923Y029234D02*
X009827Y029234D01*
X009827Y029245D02*
X009770Y029236D01*
X009703Y029214D01*
X009641Y029182D01*
X009584Y029141D01*
X009534Y029091D01*
X009493Y029034D01*
X009461Y028972D01*
X009439Y028905D01*
X009430Y028848D01*
X009827Y028848D01*
X009827Y029245D01*
X009765Y029234D02*
X005985Y029234D01*
X005980Y029236D02*
X005923Y029245D01*
X005923Y028848D01*
X005827Y028848D01*
X005827Y028752D01*
X005430Y028752D01*
X005439Y028695D01*
X005461Y028628D01*
X005493Y028566D01*
X005534Y028509D01*
X005584Y028459D01*
X005641Y028418D01*
X005703Y028386D01*
X005770Y028364D01*
X005827Y028355D01*
X005827Y028752D01*
X005923Y028752D01*
X005923Y028848D01*
X006320Y028848D01*
X006311Y028905D01*
X006289Y028972D01*
X006257Y029034D01*
X006216Y029091D01*
X006166Y029141D01*
X006109Y029182D01*
X006047Y029214D01*
X005980Y029236D01*
X005923Y029234D02*
X005827Y029234D01*
X005827Y029245D02*
X005770Y029236D01*
X005703Y029214D01*
X005641Y029182D01*
X005584Y029141D01*
X005534Y029091D01*
X005493Y029034D01*
X005461Y028972D01*
X005439Y028905D01*
X005430Y028848D01*
X005827Y028848D01*
X005827Y029245D01*
X005765Y029234D02*
X002240Y029234D01*
X002281Y029136D02*
X003607Y029136D01*
X003633Y029162D02*
X003513Y029042D01*
X003448Y028885D01*
X003448Y028715D01*
X003513Y028558D01*
X003633Y028438D01*
X003790Y028373D01*
X003960Y028373D01*
X004117Y028438D01*
X004237Y028558D01*
X004302Y028715D01*
X004302Y028885D01*
X004237Y029042D01*
X004117Y029162D01*
X003960Y029227D01*
X003790Y029227D01*
X003633Y029162D01*
X003511Y029037D02*
X002302Y029037D01*
X002302Y028939D02*
X003470Y028939D01*
X003448Y028840D02*
X002271Y028840D01*
X002220Y028742D02*
X003448Y028742D01*
X003478Y028643D02*
X002122Y028643D01*
X001960Y028427D02*
X001790Y028427D01*
X001633Y028362D01*
X001513Y028242D01*
X001448Y028085D01*
X001448Y027915D01*
X001513Y027758D01*
X001633Y027638D01*
X001790Y027573D01*
X001960Y027573D01*
X002117Y027638D01*
X002237Y027758D01*
X002302Y027915D01*
X002302Y028085D01*
X002237Y028242D01*
X002117Y028362D01*
X001960Y028427D01*
X002131Y028348D02*
X019593Y028348D01*
X019584Y028341D02*
X019534Y028291D01*
X019493Y028234D01*
X019461Y028172D01*
X019439Y028105D01*
X019430Y028048D01*
X019827Y028048D01*
X019827Y027952D01*
X019430Y027952D01*
X019439Y027895D01*
X019461Y027828D01*
X019493Y027766D01*
X019534Y027709D01*
X019584Y027659D01*
X019641Y027618D01*
X019703Y027586D01*
X019770Y027564D01*
X019827Y027555D01*
X019827Y027952D01*
X019923Y027952D01*
X019923Y028048D01*
X019827Y028048D01*
X019827Y028445D01*
X019770Y028436D01*
X019703Y028414D01*
X019641Y028382D01*
X019584Y028341D01*
X019504Y028249D02*
X002230Y028249D01*
X002275Y028151D02*
X019454Y028151D01*
X019431Y028052D02*
X002302Y028052D01*
X002302Y027954D02*
X019827Y027954D01*
X019923Y027954D02*
X020827Y027954D01*
X020827Y027952D02*
X020430Y027952D01*
X020439Y027895D01*
X020461Y027828D01*
X020493Y027766D01*
X020534Y027709D01*
X020584Y027659D01*
X020641Y027618D01*
X020703Y027586D01*
X020770Y027564D01*
X020827Y027555D01*
X020827Y027952D01*
X020827Y028048D01*
X020430Y028048D01*
X020439Y028105D01*
X020461Y028172D01*
X020493Y028234D01*
X020534Y028291D01*
X020584Y028341D01*
X020641Y028382D01*
X020703Y028414D01*
X020770Y028436D01*
X020827Y028445D01*
X020827Y028048D01*
X020923Y028048D01*
X020923Y028445D01*
X020980Y028436D01*
X021047Y028414D01*
X021109Y028382D01*
X021166Y028341D01*
X021216Y028291D01*
X021257Y028234D01*
X021289Y028172D01*
X021311Y028105D01*
X021320Y028048D01*
X020923Y028048D01*
X020923Y027952D01*
X021320Y027952D01*
X021311Y027895D01*
X021289Y027828D01*
X021257Y027766D01*
X021216Y027709D01*
X021166Y027659D01*
X021109Y027618D01*
X021047Y027586D01*
X020980Y027564D01*
X020923Y027555D01*
X020923Y027952D01*
X020827Y027952D01*
X020923Y027954D02*
X021375Y027954D01*
X021375Y028052D02*
X021319Y028052D01*
X021296Y028151D02*
X021375Y028151D01*
X021375Y028249D02*
X021246Y028249D01*
X021157Y028348D02*
X021375Y028348D01*
X021375Y028446D02*
X018148Y028446D01*
X018166Y028459D02*
X018216Y028509D01*
X018257Y028566D01*
X018289Y028628D01*
X018311Y028695D01*
X018320Y028752D01*
X017923Y028752D01*
X017923Y028355D01*
X017980Y028364D01*
X018047Y028386D01*
X018109Y028418D01*
X018166Y028459D01*
X018242Y028545D02*
X021375Y028545D01*
X021375Y028643D02*
X021144Y028643D01*
X021166Y028659D02*
X021216Y028709D01*
X021257Y028766D01*
X021289Y028828D01*
X021311Y028895D01*
X021320Y028952D01*
X020923Y028952D01*
X020923Y029048D01*
X021320Y029048D01*
X021311Y029105D01*
X021289Y029172D01*
X021257Y029234D01*
X021400Y029234D01*
X021400Y029221D02*
X021400Y029275D01*
X021228Y029275D01*
X021257Y029234D01*
X021301Y029136D02*
X021375Y029136D01*
X021375Y029175D02*
X021375Y005800D01*
X017627Y005800D01*
X017594Y005804D01*
X017564Y005817D01*
X017538Y005837D01*
X015775Y007600D01*
X015199Y007600D01*
X015198Y007601D01*
X015198Y007601D01*
X014654Y007725D01*
X008417Y007725D01*
X008450Y007739D01*
X008536Y007825D01*
X008583Y007939D01*
X008583Y008061D01*
X008536Y008175D01*
X008450Y008261D01*
X008336Y008308D01*
X008214Y008308D01*
X008100Y008261D01*
X008014Y008175D01*
X007967Y008061D01*
X007967Y007939D01*
X008014Y007825D01*
X008100Y007739D01*
X008133Y007725D01*
X007096Y007725D01*
X006552Y007601D01*
X006551Y007600D01*
X006227Y007600D01*
X006202Y007598D01*
X006179Y007590D01*
X006157Y007579D01*
X006138Y007563D01*
X004475Y005900D01*
X000500Y005900D01*
X000381Y005988D02*
X004563Y005988D01*
X004662Y006087D02*
X000375Y006087D01*
X000375Y006185D02*
X004760Y006185D01*
X004859Y006284D02*
X000375Y006284D01*
X000375Y006382D02*
X004957Y006382D01*
X005056Y006481D02*
X000375Y006481D01*
X000375Y006579D02*
X000725Y006579D01*
X000703Y006586D02*
X000770Y006564D01*
X000827Y006555D01*
X000827Y006952D01*
X000430Y006952D01*
X000439Y006895D01*
X000461Y006828D01*
X000493Y006766D01*
X000534Y006709D01*
X000584Y006659D01*
X000641Y006618D01*
X000703Y006586D01*
X000827Y006579D02*
X000923Y006579D01*
X000923Y006555D02*
X000980Y006564D01*
X001047Y006586D01*
X001109Y006618D01*
X001166Y006659D01*
X001216Y006709D01*
X001257Y006766D01*
X001289Y006828D01*
X001311Y006895D01*
X001320Y006952D01*
X000923Y006952D01*
X000923Y007048D01*
X000827Y007048D01*
X000827Y006952D01*
X000923Y006952D01*
X000923Y006555D01*
X001025Y006579D02*
X001725Y006579D01*
X001703Y006586D02*
X001770Y006564D01*
X001827Y006555D01*
X001827Y006952D01*
X001430Y006952D01*
X001439Y006895D01*
X001461Y006828D01*
X001493Y006766D01*
X001534Y006709D01*
X001584Y006659D01*
X001641Y006618D01*
X001703Y006586D01*
X001827Y006579D02*
X001923Y006579D01*
X001923Y006555D02*
X001980Y006564D01*
X002047Y006586D01*
X002109Y006618D01*
X002166Y006659D01*
X002216Y006709D01*
X002257Y006766D01*
X002289Y006828D01*
X002311Y006895D01*
X002320Y006952D01*
X001923Y006952D01*
X001923Y007048D01*
X001827Y007048D01*
X001827Y006952D01*
X001923Y006952D01*
X001923Y006555D01*
X002025Y006579D02*
X003725Y006579D01*
X003703Y006586D02*
X003770Y006564D01*
X003827Y006555D01*
X003827Y006952D01*
X003923Y006952D01*
X003923Y007048D01*
X004320Y007048D01*
X004311Y007105D01*
X004289Y007172D01*
X004257Y007234D01*
X004216Y007291D01*
X004166Y007341D01*
X004109Y007382D01*
X004047Y007414D01*
X003980Y007436D01*
X003923Y007445D01*
X003923Y007048D01*
X003827Y007048D01*
X003827Y006952D01*
X003430Y006952D01*
X003439Y006895D01*
X003461Y006828D01*
X003493Y006766D01*
X003534Y006709D01*
X003584Y006659D01*
X003641Y006618D01*
X003703Y006586D01*
X003827Y006579D02*
X003923Y006579D01*
X003923Y006555D02*
X003980Y006564D01*
X004047Y006586D01*
X004109Y006618D01*
X004166Y006659D01*
X004216Y006709D01*
X004257Y006766D01*
X004289Y006828D01*
X004311Y006895D01*
X004320Y006952D01*
X003923Y006952D01*
X003923Y006555D01*
X004025Y006579D02*
X005154Y006579D01*
X005253Y006678D02*
X004184Y006678D01*
X004262Y006776D02*
X005351Y006776D01*
X005450Y006875D02*
X004304Y006875D01*
X004316Y007072D02*
X005647Y007072D01*
X005745Y007170D02*
X004290Y007170D01*
X004232Y007269D02*
X005844Y007269D01*
X005942Y007367D02*
X004130Y007367D01*
X003923Y007367D02*
X003827Y007367D01*
X003827Y007445D02*
X003770Y007436D01*
X003703Y007414D01*
X003641Y007382D01*
X003584Y007341D01*
X003534Y007291D01*
X003493Y007234D01*
X003461Y007172D01*
X003439Y007105D01*
X003430Y007048D01*
X003827Y007048D01*
X003827Y007445D01*
X003790Y007573D02*
X003633Y007638D01*
X003513Y007758D01*
X003448Y007915D01*
X003448Y008085D01*
X003513Y008242D01*
X003633Y008362D01*
X003790Y008427D01*
X003960Y008427D01*
X004117Y008362D01*
X004237Y008242D01*
X004289Y008116D01*
X004314Y008175D01*
X004400Y008261D01*
X004514Y008308D01*
X004630Y008308D01*
X004614Y008325D01*
X004567Y008439D01*
X004567Y008561D01*
X004614Y008675D01*
X004700Y008761D01*
X004814Y008808D01*
X004936Y008808D01*
X005050Y008761D01*
X005136Y008675D01*
X005183Y008561D01*
X005183Y008439D01*
X005136Y008325D01*
X005050Y008239D01*
X004936Y008192D01*
X004820Y008192D01*
X004836Y008175D01*
X004883Y008061D01*
X004883Y007939D01*
X004836Y007825D01*
X004750Y007739D01*
X004636Y007692D01*
X004514Y007692D01*
X004400Y007739D01*
X004314Y007825D01*
X004289Y007884D01*
X004237Y007758D01*
X004117Y007638D01*
X003960Y007573D01*
X003790Y007573D01*
X003609Y007663D02*
X002141Y007663D01*
X002117Y007638D02*
X002237Y007758D01*
X002302Y007915D01*
X002302Y008085D01*
X002237Y008242D01*
X002117Y008362D01*
X001960Y008427D01*
X001790Y008427D01*
X001633Y008362D01*
X001513Y008242D01*
X001448Y008085D01*
X001448Y007915D01*
X001513Y007758D01*
X001633Y007638D01*
X001790Y007573D01*
X001960Y007573D01*
X002117Y007638D01*
X002238Y007761D02*
X003512Y007761D01*
X003471Y007860D02*
X002279Y007860D01*
X002302Y007958D02*
X003448Y007958D01*
X003448Y008057D02*
X002302Y008057D01*
X002273Y008155D02*
X003477Y008155D01*
X003525Y008254D02*
X002225Y008254D01*
X002127Y008352D02*
X003623Y008352D01*
X003790Y008573D02*
X003633Y008638D01*
X003513Y008758D01*
X003448Y008915D01*
X003448Y009085D01*
X003513Y009242D01*
X003633Y009362D01*
X003790Y009427D01*
X003960Y009427D01*
X004117Y009362D01*
X004237Y009242D01*
X004302Y009085D01*
X004302Y008915D01*
X004237Y008758D01*
X004117Y008638D01*
X003960Y008573D01*
X003790Y008573D01*
X003624Y008648D02*
X002126Y008648D01*
X002117Y008638D02*
X002237Y008758D01*
X002302Y008915D01*
X002302Y009085D01*
X002237Y009242D01*
X002117Y009362D01*
X001960Y009427D01*
X001790Y009427D01*
X001633Y009362D01*
X001513Y009242D01*
X001448Y009085D01*
X001448Y008915D01*
X001513Y008758D01*
X001633Y008638D01*
X001790Y008573D01*
X001960Y008573D01*
X002117Y008638D01*
X002225Y008746D02*
X003525Y008746D01*
X003477Y008845D02*
X002273Y008845D01*
X002302Y008943D02*
X003448Y008943D01*
X003448Y009042D02*
X002302Y009042D01*
X002279Y009140D02*
X003471Y009140D01*
X003512Y009239D02*
X002238Y009239D01*
X002142Y009337D02*
X003608Y009337D01*
X003647Y009633D02*
X002103Y009633D01*
X002117Y009638D02*
X002237Y009758D01*
X002302Y009915D01*
X002302Y010085D01*
X002237Y010242D01*
X002117Y010362D01*
X001960Y010427D01*
X001790Y010427D01*
X001633Y010362D01*
X001513Y010242D01*
X001448Y010085D01*
X001448Y009915D01*
X001513Y009758D01*
X001633Y009638D01*
X001790Y009573D01*
X001960Y009573D01*
X002117Y009638D01*
X002210Y009731D02*
X003540Y009731D01*
X003513Y009758D02*
X003633Y009638D01*
X003790Y009573D01*
X003960Y009573D01*
X004117Y009638D01*
X004237Y009758D01*
X004302Y009915D01*
X004302Y010085D01*
X004237Y010242D01*
X004117Y010362D01*
X003960Y010427D01*
X003790Y010427D01*
X003633Y010362D01*
X003513Y010242D01*
X003448Y010085D01*
X003448Y009915D01*
X003513Y009758D01*
X003484Y009830D02*
X002266Y009830D01*
X002302Y009928D02*
X003448Y009928D01*
X003448Y010027D02*
X002302Y010027D01*
X002285Y010125D02*
X003465Y010125D01*
X003506Y010224D02*
X002244Y010224D01*
X002157Y010322D02*
X003593Y010322D01*
X003775Y010421D02*
X001975Y010421D01*
X001960Y010573D02*
X002117Y010638D01*
X002237Y010758D01*
X002302Y010915D01*
X002302Y011085D01*
X002237Y011242D01*
X002117Y011362D01*
X001960Y011427D01*
X001790Y011427D01*
X001633Y011362D01*
X001513Y011242D01*
X001448Y011085D01*
X001448Y010915D01*
X001513Y010758D01*
X001633Y010638D01*
X001790Y010573D01*
X001960Y010573D01*
X002067Y010618D02*
X003683Y010618D01*
X003633Y010638D02*
X003790Y010573D01*
X003960Y010573D01*
X004117Y010638D01*
X004237Y010758D01*
X004302Y010915D01*
X004302Y011085D01*
X004237Y011242D01*
X004117Y011362D01*
X003960Y011427D01*
X003790Y011427D01*
X003633Y011362D01*
X003513Y011242D01*
X003448Y011085D01*
X003448Y010915D01*
X003513Y010758D01*
X003633Y010638D01*
X003555Y010716D02*
X002195Y010716D01*
X002260Y010815D02*
X003490Y010815D01*
X003449Y010913D02*
X002301Y010913D01*
X002302Y011012D02*
X003448Y011012D01*
X003459Y011110D02*
X002291Y011110D01*
X002251Y011209D02*
X003499Y011209D01*
X003578Y011307D02*
X002172Y011307D01*
X002011Y011406D02*
X003739Y011406D01*
X003790Y011573D02*
X003633Y011638D01*
X003513Y011758D01*
X003448Y011915D01*
X003448Y012085D01*
X003513Y012242D01*
X003633Y012362D01*
X003790Y012427D01*
X003960Y012427D01*
X004117Y012362D01*
X004237Y012242D01*
X004302Y012085D01*
X004302Y011915D01*
X004237Y011758D01*
X004117Y011638D01*
X003960Y011573D01*
X003790Y011573D01*
X003719Y011603D02*
X002031Y011603D01*
X001960Y011573D02*
X002117Y011638D01*
X002237Y011758D01*
X002302Y011915D01*
X002302Y012085D01*
X002237Y012242D01*
X002117Y012362D01*
X001960Y012427D01*
X001790Y012427D01*
X001633Y012362D01*
X001513Y012242D01*
X001448Y012085D01*
X001448Y011915D01*
X001513Y011758D01*
X001633Y011638D01*
X001790Y011573D01*
X001960Y011573D01*
X002180Y011701D02*
X003570Y011701D01*
X003496Y011800D02*
X002254Y011800D01*
X002295Y011898D02*
X003455Y011898D01*
X003448Y011997D02*
X002302Y011997D01*
X002298Y012095D02*
X003452Y012095D01*
X003493Y012194D02*
X002257Y012194D01*
X002187Y012292D02*
X003563Y012292D01*
X003702Y012391D02*
X002048Y012391D01*
X001960Y012573D02*
X001790Y012573D01*
X001633Y012638D01*
X001513Y012758D01*
X001448Y012915D01*
X001448Y013085D01*
X001513Y013242D01*
X001633Y013362D01*
X001790Y013427D01*
X001960Y013427D01*
X002117Y013362D01*
X002237Y013242D01*
X002302Y013085D01*
X002302Y012915D01*
X002237Y012758D01*
X002117Y012638D01*
X001960Y012573D01*
X001995Y012588D02*
X003755Y012588D01*
X003790Y012573D02*
X003960Y012573D01*
X004117Y012638D01*
X004237Y012758D01*
X004302Y012915D01*
X004302Y013085D01*
X004237Y013242D01*
X004117Y013362D01*
X003960Y013427D01*
X003790Y013427D01*
X003633Y013362D01*
X003513Y013242D01*
X003448Y013085D01*
X003448Y012915D01*
X003513Y012758D01*
X003633Y012638D01*
X003790Y012573D01*
X003995Y012588D02*
X006988Y012588D01*
X006967Y012639D02*
X007014Y012525D01*
X007100Y012439D01*
X007214Y012392D01*
X007336Y012392D01*
X007450Y012439D01*
X007536Y012525D01*
X007583Y012639D01*
X007583Y012761D01*
X007536Y012875D01*
X007450Y012961D01*
X007336Y013008D01*
X007214Y013008D01*
X007100Y012961D01*
X007014Y012875D01*
X006967Y012761D01*
X006967Y012639D01*
X006967Y012686D02*
X004165Y012686D01*
X004248Y012785D02*
X006976Y012785D01*
X007022Y012883D02*
X004289Y012883D01*
X004302Y012982D02*
X007149Y012982D01*
X007050Y012489D02*
X000375Y012489D01*
X000375Y012391D02*
X000702Y012391D01*
X000633Y012362D02*
X000790Y012427D01*
X000960Y012427D01*
X001117Y012362D01*
X001237Y012242D01*
X001302Y012085D01*
X001302Y011915D01*
X001237Y011758D01*
X001117Y011638D01*
X000960Y011573D01*
X000790Y011573D01*
X000633Y011638D01*
X000513Y011758D01*
X000448Y011915D01*
X000448Y012085D01*
X000513Y012242D01*
X000633Y012362D01*
X000563Y012292D02*
X000375Y012292D01*
X000375Y012194D02*
X000493Y012194D01*
X000452Y012095D02*
X000375Y012095D01*
X000375Y011997D02*
X000448Y011997D01*
X000455Y011898D02*
X000375Y011898D01*
X000375Y011800D02*
X000496Y011800D01*
X000570Y011701D02*
X000375Y011701D01*
X000375Y011603D02*
X000719Y011603D01*
X000790Y011427D02*
X000633Y011362D01*
X000513Y011242D01*
X000448Y011085D01*
X000448Y010915D01*
X000513Y010758D01*
X000633Y010638D01*
X000790Y010573D01*
X000960Y010573D01*
X001117Y010638D01*
X001237Y010758D01*
X001302Y010915D01*
X001302Y011085D01*
X001237Y011242D01*
X001117Y011362D01*
X000960Y011427D01*
X000790Y011427D01*
X000739Y011406D02*
X000375Y011406D01*
X000375Y011504D02*
X004685Y011504D01*
X004664Y011525D02*
X004750Y011439D01*
X004864Y011392D01*
X004986Y011392D01*
X005100Y011439D01*
X005186Y011525D01*
X005233Y011639D01*
X005233Y011761D01*
X005186Y011875D01*
X005100Y011961D01*
X004986Y012008D01*
X004864Y012008D01*
X004750Y011961D01*
X004664Y011875D01*
X004617Y011761D01*
X004617Y011639D01*
X004664Y011525D01*
X004632Y011603D02*
X004031Y011603D01*
X004180Y011701D02*
X004617Y011701D01*
X004632Y011800D02*
X004254Y011800D01*
X004295Y011898D02*
X004687Y011898D01*
X004835Y011997D02*
X004302Y011997D01*
X004298Y012095D02*
X006470Y012095D01*
X006467Y012104D02*
X006514Y011991D01*
X006600Y011904D01*
X006714Y011857D01*
X006836Y011857D01*
X006950Y011904D01*
X007036Y011991D01*
X007083Y012104D01*
X007083Y012227D01*
X007036Y012340D01*
X006950Y012427D01*
X006836Y012474D01*
X006714Y012474D01*
X006600Y012427D01*
X006514Y012340D01*
X006467Y012227D01*
X006467Y012104D01*
X006467Y012194D02*
X004257Y012194D01*
X004187Y012292D02*
X006494Y012292D01*
X006564Y012391D02*
X004048Y012391D01*
X003585Y012686D02*
X002165Y012686D01*
X002248Y012785D02*
X003502Y012785D01*
X003461Y012883D02*
X002289Y012883D01*
X002302Y012982D02*
X003448Y012982D01*
X003448Y013080D02*
X002302Y013080D01*
X002263Y013179D02*
X003487Y013179D01*
X003548Y013277D02*
X002202Y013277D01*
X002084Y013376D02*
X003666Y013376D01*
X003790Y013573D02*
X003633Y013638D01*
X003513Y013758D01*
X003448Y013915D01*
X003448Y014085D01*
X003513Y014242D01*
X003633Y014362D01*
X003790Y014427D01*
X003960Y014427D01*
X004117Y014362D01*
X004237Y014242D01*
X004302Y014085D01*
X004302Y013915D01*
X004237Y013758D01*
X004117Y013638D01*
X003960Y013573D01*
X003790Y013573D01*
X003600Y013671D02*
X002150Y013671D01*
X002117Y013638D02*
X002237Y013758D01*
X002302Y013915D01*
X002302Y014085D01*
X002237Y014242D01*
X002117Y014362D01*
X001960Y014427D01*
X001790Y014427D01*
X001633Y014362D01*
X001513Y014242D01*
X001448Y014085D01*
X001448Y013915D01*
X001513Y013758D01*
X001633Y013638D01*
X001790Y013573D01*
X001960Y013573D01*
X002117Y013638D01*
X002242Y013770D02*
X003508Y013770D01*
X003468Y013868D02*
X002282Y013868D01*
X002302Y013967D02*
X003448Y013967D01*
X003448Y014065D02*
X002302Y014065D01*
X002269Y014164D02*
X003481Y014164D01*
X003533Y014262D02*
X002217Y014262D01*
X002118Y014361D02*
X003632Y014361D01*
X003790Y014573D02*
X003633Y014638D01*
X003513Y014758D01*
X003448Y014915D01*
X003448Y015085D01*
X003513Y015242D01*
X003633Y015362D01*
X003790Y015427D01*
X003960Y015427D01*
X004117Y015362D01*
X004237Y015242D01*
X004302Y015085D01*
X004302Y014915D01*
X004237Y014758D01*
X004117Y014638D01*
X003960Y014573D01*
X003790Y014573D01*
X003615Y014656D02*
X002135Y014656D01*
X002117Y014638D02*
X002237Y014758D01*
X002302Y014915D01*
X002302Y015085D01*
X002237Y015242D01*
X002117Y015362D01*
X001960Y015427D01*
X001790Y015427D01*
X001633Y015362D01*
X001513Y015242D01*
X001448Y015085D01*
X001448Y014915D01*
X001513Y014758D01*
X001633Y014638D01*
X001790Y014573D01*
X001960Y014573D01*
X002117Y014638D01*
X002233Y014755D02*
X003517Y014755D01*
X003474Y014853D02*
X002276Y014853D01*
X002302Y014952D02*
X003448Y014952D01*
X003448Y015050D02*
X002302Y015050D01*
X002275Y015149D02*
X003475Y015149D01*
X003518Y015247D02*
X002232Y015247D01*
X002133Y015346D02*
X003617Y015346D01*
X003790Y015573D02*
X003633Y015638D01*
X003513Y015758D01*
X003448Y015915D01*
X003448Y016085D01*
X003513Y016242D01*
X003633Y016362D01*
X003790Y016427D01*
X003960Y016427D01*
X004117Y016362D01*
X004237Y016242D01*
X004302Y016085D01*
X004302Y015915D01*
X004237Y015758D01*
X004117Y015638D01*
X003960Y015573D01*
X003790Y015573D01*
X003630Y015641D02*
X002120Y015641D01*
X002117Y015638D02*
X002237Y015758D01*
X002302Y015915D01*
X002302Y016085D01*
X002237Y016242D01*
X002117Y016362D01*
X001960Y016427D01*
X001790Y016427D01*
X001633Y016362D01*
X001513Y016242D01*
X001448Y016085D01*
X001448Y015915D01*
X001513Y015758D01*
X001633Y015638D01*
X001790Y015573D01*
X001960Y015573D01*
X002117Y015638D01*
X002218Y015740D02*
X003532Y015740D01*
X003480Y015838D02*
X002270Y015838D01*
X002302Y015937D02*
X003448Y015937D01*
X003448Y016035D02*
X002302Y016035D01*
X002282Y016134D02*
X003468Y016134D01*
X003509Y016232D02*
X002241Y016232D01*
X002148Y016331D02*
X003602Y016331D01*
X003764Y016642D02*
X003650Y016689D01*
X003564Y016775D01*
X003517Y016889D01*
X003517Y017011D01*
X003564Y017125D01*
X003650Y017211D01*
X003764Y017258D01*
X003886Y017258D01*
X004000Y017211D01*
X004086Y017125D01*
X004133Y017011D01*
X004133Y016889D01*
X004086Y016775D01*
X004000Y016689D01*
X003886Y016642D01*
X003764Y016642D01*
X003614Y016725D02*
X002203Y016725D01*
X002237Y016758D02*
X002302Y016915D01*
X002302Y017085D01*
X002237Y017242D01*
X002117Y017362D01*
X001960Y017427D01*
X001790Y017427D01*
X001633Y017362D01*
X001513Y017242D01*
X001448Y017085D01*
X001448Y016915D01*
X001513Y016758D01*
X001633Y016638D01*
X001790Y016573D01*
X001960Y016573D01*
X002117Y016638D01*
X002237Y016758D01*
X002264Y016823D02*
X003544Y016823D01*
X003517Y016922D02*
X002302Y016922D01*
X002302Y017020D02*
X003520Y017020D01*
X003561Y017119D02*
X002288Y017119D01*
X002247Y017217D02*
X003664Y017217D01*
X003986Y017217D02*
X004046Y017217D01*
X004064Y017175D02*
X004150Y017089D01*
X004264Y017042D01*
X004386Y017042D01*
X004500Y017089D01*
X004586Y017175D01*
X004633Y017289D01*
X004633Y017411D01*
X004586Y017525D01*
X004500Y017611D01*
X015400Y017611D01*
X015364Y017575D02*
X015317Y017461D01*
X015317Y017339D01*
X015364Y017225D01*
X015450Y017139D01*
X015564Y017092D01*
X015686Y017092D01*
X015800Y017139D01*
X015886Y017225D01*
X015894Y017244D01*
X015900Y017239D01*
X016014Y017192D01*
X016136Y017192D01*
X016250Y017239D01*
X016336Y017325D01*
X016383Y017439D01*
X016383Y017561D01*
X016336Y017675D01*
X016250Y017761D01*
X016136Y017808D01*
X016014Y017808D01*
X015900Y017761D01*
X015814Y017675D01*
X015806Y017656D01*
X015800Y017661D01*
X015686Y017708D01*
X015564Y017708D01*
X015450Y017661D01*
X015364Y017575D01*
X015338Y017513D02*
X015199Y017513D01*
X015236Y017475D02*
X015150Y017561D01*
X015036Y017608D01*
X014914Y017608D01*
X014800Y017561D01*
X014714Y017475D01*
X014667Y017361D01*
X014667Y017239D01*
X014714Y017125D01*
X014800Y017039D01*
X014914Y016992D01*
X015036Y016992D01*
X015150Y017039D01*
X015236Y017125D01*
X015283Y017239D01*
X015283Y017361D01*
X015236Y017475D01*
X015262Y017414D02*
X015317Y017414D01*
X015326Y017316D02*
X015283Y017316D01*
X015274Y017217D02*
X015372Y017217D01*
X015499Y017119D02*
X015230Y017119D01*
X015105Y017020D02*
X016291Y017020D01*
X016314Y017075D02*
X016267Y016961D01*
X016267Y016839D01*
X016314Y016725D01*
X016400Y016639D01*
X016514Y016592D01*
X016636Y016592D01*
X016750Y016639D01*
X016836Y016725D01*
X016883Y016839D01*
X016883Y016961D01*
X016836Y017075D01*
X016750Y017161D01*
X016636Y017208D01*
X016514Y017208D01*
X016400Y017161D01*
X016314Y017075D01*
X016357Y017119D02*
X015751Y017119D01*
X015878Y017217D02*
X015952Y017217D01*
X016198Y017217D02*
X019022Y017217D01*
X019050Y017189D02*
X019164Y017142D01*
X019286Y017142D01*
X019400Y017189D01*
X019486Y017275D01*
X019533Y017389D01*
X019533Y017511D01*
X019486Y017625D01*
X019400Y017711D01*
X019286Y017758D01*
X019164Y017758D01*
X019050Y017711D01*
X018964Y017625D01*
X018917Y017511D01*
X018917Y017389D01*
X018964Y017275D01*
X019050Y017189D01*
X018947Y017316D02*
X018094Y017316D01*
X018150Y017339D02*
X018236Y017425D01*
X018283Y017539D01*
X018283Y017661D01*
X018236Y017775D01*
X018150Y017861D01*
X018036Y017908D01*
X017914Y017908D01*
X017800Y017861D01*
X017714Y017775D01*
X017667Y017661D01*
X017667Y017539D01*
X017714Y017425D01*
X017800Y017339D01*
X017914Y017292D01*
X018036Y017292D01*
X018150Y017339D01*
X018225Y017414D02*
X018917Y017414D01*
X018917Y017513D02*
X018273Y017513D01*
X018283Y017611D02*
X018958Y017611D01*
X019048Y017710D02*
X018263Y017710D01*
X018203Y017808D02*
X019492Y017808D01*
X019513Y017758D02*
X019633Y017638D01*
X019790Y017573D01*
X019960Y017573D01*
X020117Y017638D01*
X020237Y017758D01*
X020302Y017915D01*
X020302Y018085D01*
X020237Y018242D01*
X020117Y018362D01*
X019960Y018427D01*
X019790Y018427D01*
X019633Y018362D01*
X019513Y018242D01*
X019448Y018085D01*
X019448Y017915D01*
X019513Y017758D01*
X019562Y017710D02*
X019402Y017710D01*
X019492Y017611D02*
X019699Y017611D01*
X019533Y017513D02*
X021375Y017513D01*
X021375Y017611D02*
X021051Y017611D01*
X021117Y017638D02*
X020960Y017573D01*
X020790Y017573D01*
X020633Y017638D01*
X020513Y017758D01*
X020448Y017915D01*
X020448Y018085D01*
X020513Y018242D01*
X020633Y018362D01*
X020790Y018427D01*
X020960Y018427D01*
X021117Y018362D01*
X021237Y018242D01*
X021302Y018085D01*
X021302Y017915D01*
X021237Y017758D01*
X021117Y017638D01*
X021188Y017710D02*
X021375Y017710D01*
X021375Y017808D02*
X021258Y017808D01*
X021298Y017907D02*
X021375Y017907D01*
X021375Y018005D02*
X021302Y018005D01*
X021294Y018104D02*
X021375Y018104D01*
X021375Y018202D02*
X021253Y018202D01*
X021178Y018301D02*
X021375Y018301D01*
X021375Y018399D02*
X021027Y018399D01*
X020960Y018573D02*
X021117Y018638D01*
X021237Y018758D01*
X021302Y018915D01*
X021302Y019085D01*
X021237Y019242D01*
X021117Y019362D01*
X020960Y019427D01*
X020790Y019427D01*
X020633Y019362D01*
X020513Y019242D01*
X020448Y019085D01*
X020448Y018915D01*
X020513Y018758D01*
X020633Y018638D01*
X020790Y018573D01*
X020960Y018573D01*
X021015Y018596D02*
X021375Y018596D01*
X021375Y018498D02*
X019166Y018498D01*
X019183Y018539D02*
X019136Y018425D01*
X019050Y018339D01*
X018936Y018292D01*
X018814Y018292D01*
X018700Y018339D01*
X018614Y018425D01*
X018567Y018539D01*
X018567Y018661D01*
X018614Y018775D01*
X018700Y018861D01*
X018814Y018908D01*
X018936Y018908D01*
X019050Y018861D01*
X019136Y018775D01*
X019183Y018661D01*
X019183Y018539D01*
X019183Y018596D02*
X019735Y018596D01*
X019790Y018573D02*
X019960Y018573D01*
X020117Y018638D01*
X020237Y018758D01*
X020302Y018915D01*
X020302Y019085D01*
X020237Y019242D01*
X020117Y019362D01*
X019960Y019427D01*
X019790Y019427D01*
X019633Y019362D01*
X019513Y019242D01*
X019448Y019085D01*
X019448Y018915D01*
X019513Y018758D01*
X019633Y018638D01*
X019790Y018573D01*
X019723Y018399D02*
X019110Y018399D01*
X018958Y018301D02*
X019572Y018301D01*
X019497Y018202D02*
X014509Y018202D01*
X014500Y018211D02*
X014386Y018258D01*
X014264Y018258D01*
X014150Y018211D01*
X014064Y018125D01*
X014017Y018011D01*
X014017Y017889D01*
X014064Y017775D01*
X014150Y017689D01*
X014264Y017642D01*
X014386Y017642D01*
X014500Y017689D01*
X014586Y017775D01*
X014633Y017889D01*
X014633Y018011D01*
X014586Y018125D01*
X014500Y018211D01*
X014595Y018104D02*
X019456Y018104D01*
X019448Y018005D02*
X014633Y018005D01*
X014633Y017907D02*
X017909Y017907D01*
X018041Y017907D02*
X019452Y017907D01*
X019633Y017362D02*
X019790Y017427D01*
X019960Y017427D01*
X020117Y017362D01*
X020237Y017242D01*
X020302Y017085D01*
X020302Y016915D01*
X020237Y016758D01*
X020117Y016638D01*
X019960Y016573D01*
X019790Y016573D01*
X019633Y016638D01*
X019513Y016758D01*
X019448Y016915D01*
X019448Y017085D01*
X019513Y017242D01*
X019633Y017362D01*
X019587Y017316D02*
X019503Y017316D01*
X019503Y017217D02*
X019428Y017217D01*
X019462Y017119D02*
X016793Y017119D01*
X016859Y017020D02*
X019448Y017020D01*
X019448Y016922D02*
X016883Y016922D01*
X016877Y016823D02*
X019486Y016823D01*
X019547Y016725D02*
X016836Y016725D01*
X016720Y016626D02*
X019662Y016626D01*
X019790Y016427D02*
X019633Y016362D01*
X019513Y016242D01*
X019448Y016085D01*
X019448Y015915D01*
X019513Y015758D01*
X019633Y015638D01*
X019790Y015573D01*
X019960Y015573D01*
X020117Y015638D01*
X020237Y015758D01*
X020302Y015915D01*
X020302Y016085D01*
X020237Y016242D01*
X020117Y016362D01*
X019960Y016427D01*
X019790Y016427D01*
X019602Y016331D02*
X018055Y016331D01*
X018036Y016375D02*
X018083Y016261D01*
X018083Y016139D01*
X018036Y016025D01*
X017950Y015939D01*
X017836Y015892D01*
X017714Y015892D01*
X017600Y015939D01*
X017514Y016025D01*
X017467Y016139D01*
X017467Y016261D01*
X017514Y016375D01*
X017600Y016461D01*
X017714Y016508D01*
X017836Y016508D01*
X017950Y016461D01*
X018036Y016375D01*
X017982Y016429D02*
X021375Y016429D01*
X021375Y016331D02*
X021148Y016331D01*
X021117Y016362D02*
X020960Y016427D01*
X020790Y016427D01*
X020633Y016362D01*
X020513Y016242D01*
X020448Y016085D01*
X020448Y015915D01*
X020513Y015758D01*
X020633Y015638D01*
X020790Y015573D01*
X020960Y015573D01*
X021117Y015638D01*
X021237Y015758D01*
X021302Y015915D01*
X021302Y016085D01*
X021237Y016242D01*
X021117Y016362D01*
X021241Y016232D02*
X021375Y016232D01*
X021375Y016134D02*
X021282Y016134D01*
X021302Y016035D02*
X021375Y016035D01*
X021375Y015937D02*
X021302Y015937D01*
X021270Y015838D02*
X021375Y015838D01*
X021375Y015740D02*
X021218Y015740D01*
X021120Y015641D02*
X021375Y015641D01*
X021375Y015543D02*
X019183Y015543D01*
X019183Y015561D02*
X019183Y015439D01*
X019136Y015325D01*
X019050Y015239D01*
X018936Y015192D01*
X018814Y015192D01*
X018700Y015239D01*
X018614Y015325D01*
X018567Y015439D01*
X018567Y015561D01*
X018614Y015675D01*
X018700Y015761D01*
X018814Y015808D01*
X018936Y015808D01*
X019050Y015761D01*
X019136Y015675D01*
X019183Y015561D01*
X019150Y015641D02*
X019630Y015641D01*
X019532Y015740D02*
X019072Y015740D01*
X019183Y015444D02*
X021375Y015444D01*
X021375Y015346D02*
X021133Y015346D01*
X021117Y015362D02*
X020960Y015427D01*
X020790Y015427D01*
X020633Y015362D01*
X020513Y015242D01*
X020448Y015085D01*
X020448Y014915D01*
X020513Y014758D01*
X020633Y014638D01*
X020790Y014573D01*
X020960Y014573D01*
X021117Y014638D01*
X021237Y014758D01*
X021302Y014915D01*
X021302Y015085D01*
X021237Y015242D01*
X021117Y015362D01*
X021232Y015247D02*
X021375Y015247D01*
X021375Y015149D02*
X021275Y015149D01*
X021302Y015050D02*
X021375Y015050D01*
X021375Y014952D02*
X021302Y014952D01*
X021276Y014853D02*
X021375Y014853D01*
X021375Y014755D02*
X021233Y014755D01*
X021135Y014656D02*
X021375Y014656D01*
X021375Y014558D02*
X009954Y014558D01*
X009950Y014561D02*
X009836Y014608D01*
X009714Y014608D01*
X009600Y014561D01*
X009514Y014475D01*
X009467Y014361D01*
X009467Y014239D01*
X009514Y014125D01*
X009600Y014039D01*
X009714Y013992D01*
X009836Y013992D01*
X009950Y014039D01*
X010036Y014125D01*
X010083Y014239D01*
X010083Y014361D01*
X010036Y014475D01*
X009950Y014561D01*
X010043Y014459D02*
X021375Y014459D01*
X021375Y014361D02*
X021118Y014361D01*
X021117Y014362D02*
X020960Y014427D01*
X020790Y014427D01*
X020633Y014362D01*
X020513Y014242D01*
X020448Y014085D01*
X020448Y013915D01*
X020513Y013758D01*
X020633Y013638D01*
X020790Y013573D01*
X020960Y013573D01*
X021117Y013638D01*
X021237Y013758D01*
X021302Y013915D01*
X021302Y014085D01*
X021237Y014242D01*
X021117Y014362D01*
X021217Y014262D02*
X021375Y014262D01*
X021375Y014164D02*
X021269Y014164D01*
X021302Y014065D02*
X021375Y014065D01*
X021375Y013967D02*
X021302Y013967D01*
X021282Y013868D02*
X021375Y013868D01*
X021375Y013770D02*
X021242Y013770D01*
X021150Y013671D02*
X021375Y013671D01*
X021375Y013573D02*
X019084Y013573D01*
X019050Y013539D02*
X019136Y013625D01*
X019183Y013739D01*
X019183Y013861D01*
X019136Y013975D01*
X019050Y014061D01*
X018936Y014108D01*
X018814Y014108D01*
X018700Y014061D01*
X018614Y013975D01*
X018567Y013861D01*
X018567Y013739D01*
X018614Y013625D01*
X018700Y013539D01*
X018814Y013492D01*
X018936Y013492D01*
X019050Y013539D01*
X019155Y013671D02*
X019600Y013671D01*
X019633Y013638D02*
X019790Y013573D01*
X019960Y013573D01*
X020117Y013638D01*
X020237Y013758D01*
X020302Y013915D01*
X020302Y014085D01*
X020237Y014242D01*
X020117Y014362D01*
X019960Y014427D01*
X019790Y014427D01*
X019633Y014362D01*
X019513Y014242D01*
X019448Y014085D01*
X019448Y013915D01*
X019513Y013758D01*
X019633Y013638D01*
X019508Y013770D02*
X019183Y013770D01*
X019181Y013868D02*
X019468Y013868D01*
X019448Y013967D02*
X019140Y013967D01*
X019041Y014065D02*
X019448Y014065D01*
X019481Y014164D02*
X010052Y014164D01*
X010083Y014262D02*
X019533Y014262D01*
X019632Y014361D02*
X010083Y014361D01*
X009976Y014065D02*
X018709Y014065D01*
X018610Y013967D02*
X012438Y013967D01*
X012450Y013961D02*
X012336Y014008D01*
X012214Y014008D01*
X012100Y013961D01*
X012014Y013875D01*
X011967Y013761D01*
X011967Y013639D01*
X012014Y013525D01*
X012100Y013439D01*
X012214Y013392D01*
X012336Y013392D01*
X012450Y013439D01*
X012536Y013525D01*
X012583Y013639D01*
X012583Y013761D01*
X012536Y013875D01*
X012450Y013961D01*
X012539Y013868D02*
X018569Y013868D01*
X018567Y013770D02*
X012580Y013770D01*
X012583Y013671D02*
X016323Y013671D01*
X016300Y013661D02*
X016414Y013708D01*
X016536Y013708D01*
X016650Y013661D01*
X016736Y013575D01*
X016783Y013461D01*
X016783Y013339D01*
X016736Y013225D01*
X016650Y013139D01*
X016536Y013092D01*
X016414Y013092D01*
X016300Y013139D01*
X016214Y013225D01*
X016167Y013339D01*
X016167Y013461D01*
X016214Y013575D01*
X016300Y013661D01*
X016213Y013573D02*
X012556Y013573D01*
X012485Y013474D02*
X016172Y013474D01*
X016167Y013376D02*
X012716Y013376D01*
X012750Y013361D02*
X012636Y013408D01*
X012514Y013408D01*
X012400Y013361D01*
X012314Y013275D01*
X012267Y013161D01*
X012267Y013039D01*
X012314Y012925D01*
X012400Y012839D01*
X012514Y012792D01*
X012636Y012792D01*
X012750Y012839D01*
X012836Y012925D01*
X012883Y013039D01*
X012883Y013161D01*
X012836Y013275D01*
X012750Y013361D01*
X012834Y013277D02*
X016192Y013277D01*
X016260Y013179D02*
X012876Y013179D01*
X012883Y013080D02*
X019448Y013080D01*
X019448Y013085D02*
X019448Y012915D01*
X019513Y012758D01*
X019633Y012638D01*
X019790Y012573D01*
X019960Y012573D01*
X020117Y012638D01*
X020237Y012758D01*
X020302Y012915D01*
X020302Y013085D01*
X020237Y013242D01*
X020117Y013362D01*
X019960Y013427D01*
X019790Y013427D01*
X019633Y013362D01*
X019513Y013242D01*
X019448Y013085D01*
X019487Y013179D02*
X016690Y013179D01*
X016758Y013277D02*
X019548Y013277D01*
X019666Y013376D02*
X016783Y013376D01*
X016778Y013474D02*
X021375Y013474D01*
X021375Y013376D02*
X021084Y013376D01*
X021117Y013362D02*
X020960Y013427D01*
X020790Y013427D01*
X020633Y013362D01*
X020513Y013242D01*
X020448Y013085D01*
X020448Y012915D01*
X020513Y012758D01*
X020633Y012638D01*
X020790Y012573D01*
X020960Y012573D01*
X021117Y012638D01*
X021237Y012758D01*
X021302Y012915D01*
X021302Y013085D01*
X021237Y013242D01*
X021117Y013362D01*
X021202Y013277D02*
X021375Y013277D01*
X021375Y013179D02*
X021263Y013179D01*
X021302Y013080D02*
X021375Y013080D01*
X021375Y012982D02*
X021302Y012982D01*
X021289Y012883D02*
X021375Y012883D01*
X021375Y012785D02*
X021248Y012785D01*
X021165Y012686D02*
X021375Y012686D01*
X021375Y012588D02*
X020995Y012588D01*
X020960Y012427D02*
X020790Y012427D01*
X020633Y012362D01*
X020513Y012242D01*
X020448Y012085D01*
X020448Y011915D01*
X020513Y011758D01*
X020633Y011638D01*
X020790Y011573D01*
X020960Y011573D01*
X021117Y011638D01*
X021237Y011758D01*
X021302Y011915D01*
X021302Y012085D01*
X021237Y012242D01*
X021117Y012362D01*
X020960Y012427D01*
X021048Y012391D02*
X021375Y012391D01*
X021375Y012489D02*
X019222Y012489D01*
X019236Y012475D02*
X019150Y012561D01*
X019036Y012608D01*
X018914Y012608D01*
X018800Y012561D01*
X018714Y012475D01*
X018667Y012361D01*
X018667Y012239D01*
X018714Y012125D01*
X018800Y012039D01*
X018914Y011992D01*
X019036Y011992D01*
X019150Y012039D01*
X019236Y012125D01*
X019283Y012239D01*
X019283Y012361D01*
X019236Y012475D01*
X019271Y012391D02*
X019702Y012391D01*
X019633Y012362D02*
X019513Y012242D01*
X019448Y012085D01*
X019448Y011915D01*
X019513Y011758D01*
X019633Y011638D01*
X019790Y011573D01*
X019960Y011573D01*
X020117Y011638D01*
X020237Y011758D01*
X020302Y011915D01*
X020302Y012085D01*
X020237Y012242D01*
X020117Y012362D01*
X019960Y012427D01*
X019790Y012427D01*
X019633Y012362D01*
X019563Y012292D02*
X019283Y012292D01*
X019265Y012194D02*
X019493Y012194D01*
X019452Y012095D02*
X019206Y012095D01*
X019048Y011997D02*
X019448Y011997D01*
X019455Y011898D02*
X013361Y011898D01*
X013336Y011908D02*
X013214Y011908D01*
X013100Y011861D01*
X013014Y011775D01*
X012967Y011661D01*
X012967Y011539D01*
X013014Y011425D01*
X013100Y011339D01*
X013214Y011292D01*
X013336Y011292D01*
X013450Y011339D01*
X013536Y011425D01*
X013583Y011539D01*
X013583Y011661D01*
X013536Y011775D01*
X013450Y011861D01*
X013336Y011908D01*
X013189Y011898D02*
X009767Y011898D01*
X009783Y011939D02*
X009736Y011825D01*
X009650Y011739D01*
X009536Y011692D01*
X009414Y011692D01*
X009300Y011739D01*
X009214Y011825D01*
X009167Y011939D01*
X009167Y012061D01*
X009214Y012175D01*
X009300Y012261D01*
X009414Y012308D01*
X009536Y012308D01*
X009650Y012261D01*
X009736Y012175D01*
X009783Y012061D01*
X009783Y011939D01*
X009783Y011997D02*
X018902Y011997D01*
X018744Y012095D02*
X009769Y012095D01*
X009718Y012194D02*
X011009Y012194D01*
X011014Y012192D02*
X011136Y012192D01*
X011250Y012239D01*
X011336Y012325D01*
X011383Y012439D01*
X011383Y012561D01*
X011336Y012675D01*
X011250Y012761D01*
X011136Y012808D01*
X011014Y012808D01*
X010900Y012761D01*
X010814Y012675D01*
X010767Y012561D01*
X010767Y012439D01*
X010814Y012325D01*
X010900Y012239D01*
X011014Y012192D01*
X011141Y012194D02*
X018685Y012194D01*
X018667Y012292D02*
X015737Y012292D01*
X015736Y012292D02*
X015850Y012339D01*
X015936Y012425D01*
X015983Y012539D01*
X015983Y012661D01*
X015936Y012775D01*
X015850Y012861D01*
X015736Y012908D01*
X015614Y012908D01*
X015500Y012861D01*
X015414Y012775D01*
X015367Y012661D01*
X015367Y012539D01*
X015414Y012425D01*
X015500Y012339D01*
X015614Y012292D01*
X015736Y012292D01*
X015613Y012292D02*
X013137Y012292D01*
X013136Y012292D02*
X013250Y012339D01*
X013336Y012425D01*
X013383Y012539D01*
X013383Y012661D01*
X013336Y012775D01*
X013250Y012861D01*
X013136Y012908D01*
X013014Y012908D01*
X012900Y012861D01*
X012814Y012775D01*
X012767Y012661D01*
X012767Y012539D01*
X012814Y012425D01*
X012900Y012339D01*
X013014Y012292D01*
X013136Y012292D01*
X013013Y012292D02*
X011303Y012292D01*
X011363Y012391D02*
X012848Y012391D01*
X012787Y012489D02*
X011383Y012489D01*
X011373Y012588D02*
X012767Y012588D01*
X012777Y012686D02*
X011325Y012686D01*
X011194Y012785D02*
X012823Y012785D01*
X012794Y012883D02*
X012952Y012883D01*
X012860Y012982D02*
X016949Y012982D01*
X016900Y012961D02*
X016814Y012875D01*
X016767Y012761D01*
X016767Y012639D01*
X016814Y012525D01*
X016900Y012439D01*
X017014Y012392D01*
X017136Y012392D01*
X017250Y012439D01*
X017336Y012525D01*
X017383Y012639D01*
X017383Y012761D01*
X017336Y012875D01*
X017250Y012961D01*
X017136Y013008D01*
X017014Y013008D01*
X016900Y012961D01*
X016822Y012883D02*
X015798Y012883D01*
X015927Y012785D02*
X016776Y012785D01*
X016767Y012686D02*
X015973Y012686D01*
X015983Y012588D02*
X016788Y012588D01*
X016850Y012489D02*
X015963Y012489D01*
X015902Y012391D02*
X018679Y012391D01*
X018728Y012489D02*
X017300Y012489D01*
X017362Y012588D02*
X018863Y012588D01*
X019087Y012588D02*
X019755Y012588D01*
X019585Y012686D02*
X017383Y012686D01*
X017374Y012785D02*
X019502Y012785D01*
X019461Y012883D02*
X017328Y012883D01*
X017201Y012982D02*
X019448Y012982D01*
X019995Y012588D02*
X020755Y012588D01*
X020585Y012686D02*
X020165Y012686D01*
X020248Y012785D02*
X020502Y012785D01*
X020461Y012883D02*
X020289Y012883D01*
X020302Y012982D02*
X020448Y012982D01*
X020448Y013080D02*
X020302Y013080D01*
X020263Y013179D02*
X020487Y013179D01*
X020548Y013277D02*
X020202Y013277D01*
X020084Y013376D02*
X020666Y013376D01*
X020600Y013671D02*
X020150Y013671D01*
X020242Y013770D02*
X020508Y013770D01*
X020468Y013868D02*
X020282Y013868D01*
X020302Y013967D02*
X020448Y013967D01*
X020448Y014065D02*
X020302Y014065D01*
X020269Y014164D02*
X020481Y014164D01*
X020533Y014262D02*
X020217Y014262D01*
X020118Y014361D02*
X020632Y014361D01*
X020615Y014656D02*
X020135Y014656D01*
X020117Y014638D02*
X020237Y014758D01*
X020302Y014915D01*
X020302Y015085D01*
X020237Y015242D01*
X020117Y015362D01*
X019960Y015427D01*
X019790Y015427D01*
X019633Y015362D01*
X019513Y015242D01*
X019448Y015085D01*
X019448Y014915D01*
X019513Y014758D01*
X019633Y014638D01*
X019790Y014573D01*
X019960Y014573D01*
X020117Y014638D01*
X020233Y014755D02*
X020517Y014755D01*
X020474Y014853D02*
X020276Y014853D01*
X020302Y014952D02*
X020448Y014952D01*
X020448Y015050D02*
X020302Y015050D01*
X020275Y015149D02*
X020475Y015149D01*
X020518Y015247D02*
X020232Y015247D01*
X020133Y015346D02*
X020617Y015346D01*
X020630Y015641D02*
X020120Y015641D01*
X020218Y015740D02*
X020532Y015740D01*
X020480Y015838D02*
X020270Y015838D01*
X020302Y015937D02*
X020448Y015937D01*
X020448Y016035D02*
X020302Y016035D01*
X020282Y016134D02*
X020468Y016134D01*
X020509Y016232D02*
X020241Y016232D01*
X020148Y016331D02*
X020602Y016331D01*
X020662Y016626D02*
X020088Y016626D01*
X020203Y016725D02*
X020547Y016725D01*
X020513Y016758D02*
X020633Y016638D01*
X020790Y016573D01*
X020960Y016573D01*
X021117Y016638D01*
X021237Y016758D01*
X021302Y016915D01*
X021302Y017085D01*
X021237Y017242D01*
X021117Y017362D01*
X020960Y017427D01*
X020790Y017427D01*
X020633Y017362D01*
X020513Y017242D01*
X020448Y017085D01*
X020448Y016915D01*
X020513Y016758D01*
X020486Y016823D02*
X020264Y016823D01*
X020302Y016922D02*
X020448Y016922D01*
X020448Y017020D02*
X020302Y017020D01*
X020288Y017119D02*
X020462Y017119D01*
X020503Y017217D02*
X020247Y017217D01*
X020163Y017316D02*
X020587Y017316D01*
X020759Y017414D02*
X019991Y017414D01*
X020051Y017611D02*
X020699Y017611D01*
X020562Y017710D02*
X020188Y017710D01*
X020258Y017808D02*
X020492Y017808D01*
X020452Y017907D02*
X020298Y017907D01*
X020302Y018005D02*
X020448Y018005D01*
X020456Y018104D02*
X020294Y018104D01*
X020253Y018202D02*
X020497Y018202D01*
X020572Y018301D02*
X020178Y018301D01*
X020027Y018399D02*
X020723Y018399D01*
X020735Y018596D02*
X020015Y018596D01*
X020173Y018695D02*
X020577Y018695D01*
X020499Y018793D02*
X020251Y018793D01*
X020292Y018892D02*
X020458Y018892D01*
X020448Y018990D02*
X020302Y018990D01*
X020300Y019089D02*
X020450Y019089D01*
X020490Y019187D02*
X020260Y019187D01*
X020193Y019286D02*
X020557Y019286D01*
X020687Y019384D02*
X020063Y019384D01*
X019979Y019581D02*
X020771Y019581D01*
X020790Y019573D02*
X020960Y019573D01*
X021117Y019638D01*
X021237Y019758D01*
X021302Y019915D01*
X021302Y020085D01*
X021237Y020242D01*
X021117Y020362D01*
X020960Y020427D01*
X020790Y020427D01*
X020633Y020362D01*
X020513Y020242D01*
X020448Y020085D01*
X020448Y019915D01*
X020513Y019758D01*
X020633Y019638D01*
X020790Y019573D01*
X020979Y019581D02*
X021375Y019581D01*
X021375Y019483D02*
X018965Y019483D01*
X018940Y019544D02*
X018819Y019665D01*
X018661Y019730D01*
X018489Y019730D01*
X018331Y019665D01*
X018210Y019544D01*
X018145Y019386D01*
X018145Y019214D01*
X018210Y019056D01*
X018331Y018935D01*
X018489Y018870D01*
X018661Y018870D01*
X018819Y018935D01*
X018940Y019056D01*
X019005Y019214D01*
X019005Y019386D01*
X018940Y019544D01*
X018902Y019581D02*
X019771Y019581D01*
X019790Y019573D02*
X019960Y019573D01*
X020117Y019638D01*
X020237Y019758D01*
X020302Y019915D01*
X020302Y020085D01*
X020237Y020242D01*
X020117Y020362D01*
X019960Y020427D01*
X019790Y020427D01*
X019633Y020362D01*
X019513Y020242D01*
X019448Y020085D01*
X019448Y019915D01*
X019513Y019758D01*
X019633Y019638D01*
X019790Y019573D01*
X019687Y019384D02*
X019005Y019384D01*
X019005Y019286D02*
X019557Y019286D01*
X019490Y019187D02*
X018994Y019187D01*
X018953Y019089D02*
X019450Y019089D01*
X019448Y018990D02*
X018873Y018990D01*
X018773Y018892D02*
X018713Y018892D01*
X018632Y018793D02*
X008883Y018793D01*
X008883Y018739D02*
X008836Y018625D01*
X008750Y018539D01*
X008636Y018492D01*
X008514Y018492D01*
X008400Y018539D01*
X008314Y018625D01*
X008267Y018739D01*
X008267Y018861D01*
X008314Y018975D01*
X008400Y019061D01*
X008514Y019108D01*
X008636Y019108D01*
X008750Y019061D01*
X008836Y018975D01*
X008883Y018861D01*
X008883Y018739D01*
X008865Y018695D02*
X018580Y018695D01*
X018567Y018596D02*
X008807Y018596D01*
X008651Y018498D02*
X018584Y018498D01*
X018640Y018399D02*
X013309Y018399D01*
X013286Y018408D02*
X013164Y018408D01*
X013050Y018361D01*
X012964Y018275D01*
X012917Y018161D01*
X012917Y018039D01*
X012964Y017925D01*
X013050Y017839D01*
X013164Y017792D01*
X013286Y017792D01*
X013400Y017839D01*
X013486Y017925D01*
X013533Y018039D01*
X013533Y018161D01*
X013486Y018275D01*
X013400Y018361D01*
X013286Y018408D01*
X013141Y018399D02*
X002027Y018399D01*
X001960Y018427D02*
X001790Y018427D01*
X001633Y018362D01*
X001513Y018242D01*
X001448Y018085D01*
X001448Y017915D01*
X001513Y017758D01*
X001633Y017638D01*
X001790Y017573D01*
X001960Y017573D01*
X002117Y017638D01*
X002237Y017758D01*
X002302Y017915D01*
X002302Y018085D01*
X002237Y018242D01*
X002117Y018362D01*
X001960Y018427D01*
X001960Y018573D02*
X002117Y018638D01*
X002237Y018758D01*
X002302Y018915D01*
X002302Y019085D01*
X002237Y019242D01*
X002117Y019362D01*
X001960Y019427D01*
X001790Y019427D01*
X001633Y019362D01*
X001513Y019242D01*
X001448Y019085D01*
X001448Y018915D01*
X001513Y018758D01*
X001633Y018638D01*
X001790Y018573D01*
X001960Y018573D01*
X002015Y018596D02*
X004843Y018596D01*
X004814Y018625D02*
X004900Y018539D01*
X005014Y018492D01*
X005136Y018492D01*
X005250Y018539D01*
X005336Y018625D01*
X005383Y018739D01*
X005383Y018861D01*
X005336Y018975D01*
X005250Y019061D01*
X005136Y019108D01*
X005014Y019108D01*
X004900Y019061D01*
X004814Y018975D01*
X004767Y018861D01*
X004767Y018739D01*
X004814Y018625D01*
X004785Y018695D02*
X002173Y018695D01*
X002251Y018793D02*
X004767Y018793D01*
X004779Y018892D02*
X002292Y018892D01*
X002302Y018990D02*
X004829Y018990D01*
X004966Y019089D02*
X002300Y019089D01*
X002260Y019187D02*
X011156Y019187D01*
X011145Y019214D02*
X011210Y019056D01*
X011331Y018935D01*
X011489Y018870D01*
X011661Y018870D01*
X011819Y018935D01*
X011940Y019056D01*
X012005Y019214D01*
X012005Y019386D01*
X011940Y019544D01*
X011819Y019665D01*
X011661Y019730D01*
X011489Y019730D01*
X011331Y019665D01*
X011210Y019544D01*
X011145Y019386D01*
X011145Y019214D01*
X011145Y019286D02*
X002193Y019286D01*
X002063Y019384D02*
X006555Y019384D01*
X006514Y019425D02*
X006600Y019339D01*
X006714Y019292D01*
X006836Y019292D01*
X006950Y019339D01*
X007036Y019425D01*
X007083Y019539D01*
X007083Y019661D01*
X007036Y019775D01*
X006950Y019861D01*
X006836Y019908D01*
X006714Y019908D01*
X006600Y019861D01*
X006514Y019775D01*
X006467Y019661D01*
X006467Y019539D01*
X006514Y019425D01*
X006490Y019483D02*
X000375Y019483D01*
X000375Y019581D02*
X000771Y019581D01*
X000790Y019573D02*
X000960Y019573D01*
X001117Y019638D01*
X001237Y019758D01*
X001302Y019915D01*
X001302Y020085D01*
X001237Y020242D01*
X001117Y020362D01*
X000960Y020427D01*
X000790Y020427D01*
X000633Y020362D01*
X000513Y020242D01*
X000448Y020085D01*
X000448Y019915D01*
X000513Y019758D01*
X000633Y019638D01*
X000790Y019573D01*
X000790Y019427D02*
X000633Y019362D01*
X000513Y019242D01*
X000448Y019085D01*
X000448Y018915D01*
X000513Y018758D01*
X000633Y018638D01*
X000790Y018573D01*
X000960Y018573D01*
X001117Y018638D01*
X001237Y018758D01*
X001302Y018915D01*
X001302Y019085D01*
X001237Y019242D01*
X001117Y019362D01*
X000960Y019427D01*
X000790Y019427D01*
X000687Y019384D02*
X000375Y019384D01*
X000375Y019286D02*
X000557Y019286D01*
X000490Y019187D02*
X000375Y019187D01*
X000375Y019089D02*
X000450Y019089D01*
X000448Y018990D02*
X000375Y018990D01*
X000375Y018892D02*
X000458Y018892D01*
X000499Y018793D02*
X000375Y018793D01*
X000375Y018695D02*
X000577Y018695D01*
X000735Y018596D02*
X000375Y018596D01*
X000375Y018498D02*
X004999Y018498D01*
X005151Y018498D02*
X008499Y018498D01*
X008343Y018596D02*
X005307Y018596D01*
X005365Y018695D02*
X008285Y018695D01*
X008267Y018793D02*
X005383Y018793D01*
X005371Y018892D02*
X008279Y018892D01*
X008329Y018990D02*
X005321Y018990D01*
X005184Y019089D02*
X008466Y019089D01*
X008684Y019089D02*
X011197Y019089D01*
X011277Y018990D02*
X008821Y018990D01*
X008871Y018892D02*
X011437Y018892D01*
X011713Y018892D02*
X012437Y018892D01*
X012489Y018870D02*
X012661Y018870D01*
X012819Y018935D01*
X012940Y019056D01*
X013005Y019214D01*
X013005Y019386D01*
X012940Y019544D01*
X012819Y019665D01*
X012661Y019730D01*
X012489Y019730D01*
X012331Y019665D01*
X012210Y019544D01*
X012145Y019386D01*
X012145Y019214D01*
X012210Y019056D01*
X012331Y018935D01*
X012489Y018870D01*
X012713Y018892D02*
X013437Y018892D01*
X013489Y018870D02*
X013331Y018935D01*
X013210Y019056D01*
X013145Y019214D01*
X013145Y019386D01*
X013210Y019544D01*
X013331Y019665D01*
X013489Y019730D01*
X013661Y019730D01*
X013819Y019665D01*
X013940Y019544D01*
X014005Y019386D01*
X014005Y019214D01*
X013940Y019056D01*
X013819Y018935D01*
X013661Y018870D01*
X013489Y018870D01*
X013713Y018892D02*
X014437Y018892D01*
X014489Y018870D02*
X014661Y018870D01*
X014819Y018935D01*
X014940Y019056D01*
X015005Y019214D01*
X015005Y019386D01*
X014940Y019544D01*
X014819Y019665D01*
X014661Y019730D01*
X014489Y019730D01*
X014331Y019665D01*
X014210Y019544D01*
X014145Y019386D01*
X014145Y019214D01*
X014210Y019056D01*
X014331Y018935D01*
X014489Y018870D01*
X014713Y018892D02*
X015437Y018892D01*
X015489Y018870D02*
X015331Y018935D01*
X015210Y019056D01*
X015145Y019214D01*
X015145Y019386D01*
X015210Y019544D01*
X015331Y019665D01*
X015489Y019730D01*
X015661Y019730D01*
X015819Y019665D01*
X015940Y019544D01*
X016005Y019386D01*
X016005Y019214D01*
X015940Y019056D01*
X015819Y018935D01*
X015661Y018870D01*
X015489Y018870D01*
X015713Y018892D02*
X016437Y018892D01*
X016489Y018870D02*
X016661Y018870D01*
X016819Y018935D01*
X016940Y019056D01*
X017005Y019214D01*
X017005Y019386D01*
X016940Y019544D01*
X016819Y019665D01*
X016661Y019730D01*
X016489Y019730D01*
X016331Y019665D01*
X016210Y019544D01*
X016145Y019386D01*
X016145Y019214D01*
X016210Y019056D01*
X016331Y018935D01*
X016489Y018870D01*
X016713Y018892D02*
X017437Y018892D01*
X017489Y018870D02*
X017661Y018870D01*
X017819Y018935D01*
X017940Y019056D01*
X018005Y019214D01*
X018005Y019386D01*
X017940Y019544D01*
X017819Y019665D01*
X017661Y019730D01*
X017489Y019730D01*
X017331Y019665D01*
X017210Y019544D01*
X017145Y019386D01*
X017145Y019214D01*
X017210Y019056D01*
X017331Y018935D01*
X017489Y018870D01*
X017713Y018892D02*
X018437Y018892D01*
X018277Y018990D02*
X017873Y018990D01*
X017953Y019089D02*
X018197Y019089D01*
X018156Y019187D02*
X017994Y019187D01*
X018005Y019286D02*
X018145Y019286D01*
X018145Y019384D02*
X018005Y019384D01*
X017965Y019483D02*
X018185Y019483D01*
X018248Y019581D02*
X017902Y019581D01*
X017782Y019680D02*
X018368Y019680D01*
X018474Y019877D02*
X017676Y019877D01*
X017661Y019870D02*
X017819Y019935D01*
X017940Y020056D01*
X018005Y020214D01*
X018005Y020386D01*
X017940Y020544D01*
X017819Y020665D01*
X017661Y020730D01*
X017489Y020730D01*
X017331Y020665D01*
X017210Y020544D01*
X017145Y020386D01*
X017145Y020214D01*
X017210Y020056D01*
X017331Y019935D01*
X017489Y019870D01*
X017661Y019870D01*
X017474Y019877D02*
X016676Y019877D01*
X016661Y019870D02*
X016819Y019935D01*
X016940Y020056D01*
X017005Y020214D01*
X017005Y020386D01*
X016940Y020544D01*
X016819Y020665D01*
X016661Y020730D01*
X016489Y020730D01*
X016331Y020665D01*
X016210Y020544D01*
X016145Y020386D01*
X016145Y020214D01*
X016210Y020056D01*
X016331Y019935D01*
X016489Y019870D01*
X016661Y019870D01*
X016474Y019877D02*
X015676Y019877D01*
X015661Y019870D02*
X015819Y019935D01*
X015940Y020056D01*
X016005Y020214D01*
X016005Y020386D01*
X015940Y020544D01*
X015819Y020665D01*
X015661Y020730D01*
X015489Y020730D01*
X015331Y020665D01*
X015210Y020544D01*
X015145Y020386D01*
X015145Y020214D01*
X015210Y020056D01*
X015331Y019935D01*
X015489Y019870D01*
X015661Y019870D01*
X015474Y019877D02*
X014676Y019877D01*
X014661Y019870D02*
X014819Y019935D01*
X014940Y020056D01*
X015005Y020214D01*
X015005Y020386D01*
X014940Y020544D01*
X014819Y020665D01*
X014661Y020730D01*
X014489Y020730D01*
X014331Y020665D01*
X014210Y020544D01*
X014145Y020386D01*
X014145Y020214D01*
X014210Y020056D01*
X014331Y019935D01*
X014489Y019870D01*
X014661Y019870D01*
X014474Y019877D02*
X013676Y019877D01*
X013661Y019870D02*
X013819Y019935D01*
X013940Y020056D01*
X014005Y020214D01*
X014005Y020386D01*
X013940Y020544D01*
X013819Y020665D01*
X013661Y020730D01*
X013489Y020730D01*
X013331Y020665D01*
X013210Y020544D01*
X013145Y020386D01*
X013145Y020214D01*
X013210Y020056D01*
X013331Y019935D01*
X013489Y019870D01*
X013661Y019870D01*
X013474Y019877D02*
X012676Y019877D01*
X012661Y019870D02*
X012819Y019935D01*
X012940Y020056D01*
X013005Y020214D01*
X013005Y020386D01*
X012940Y020544D01*
X012819Y020665D01*
X012661Y020730D01*
X012489Y020730D01*
X012331Y020665D01*
X012210Y020544D01*
X012145Y020386D01*
X012145Y020214D01*
X012210Y020056D01*
X012331Y019935D01*
X012489Y019870D01*
X012661Y019870D01*
X012474Y019877D02*
X011676Y019877D01*
X011661Y019870D02*
X011819Y019935D01*
X011940Y020056D01*
X012005Y020214D01*
X012005Y020386D01*
X011940Y020544D01*
X011819Y020665D01*
X011661Y020730D01*
X011489Y020730D01*
X011331Y020665D01*
X011210Y020544D01*
X011145Y020386D01*
X011145Y020214D01*
X011210Y020056D01*
X011331Y019935D01*
X011489Y019870D01*
X011661Y019870D01*
X011474Y019877D02*
X006913Y019877D01*
X007033Y019778D02*
X019505Y019778D01*
X019464Y019877D02*
X018676Y019877D01*
X018661Y019870D02*
X018819Y019935D01*
X018940Y020056D01*
X019005Y020214D01*
X019005Y020386D01*
X018940Y020544D01*
X018819Y020665D01*
X018661Y020730D01*
X018489Y020730D01*
X018331Y020665D01*
X018210Y020544D01*
X018145Y020386D01*
X018145Y020214D01*
X018210Y020056D01*
X018331Y019935D01*
X018489Y019870D01*
X018661Y019870D01*
X018858Y019975D02*
X019448Y019975D01*
X019448Y020074D02*
X018947Y020074D01*
X018987Y020172D02*
X019484Y020172D01*
X019542Y020271D02*
X019005Y020271D01*
X019005Y020369D02*
X019651Y020369D01*
X019790Y020573D02*
X019960Y020573D01*
X020117Y020638D01*
X020237Y020758D01*
X020302Y020915D01*
X020302Y021085D01*
X020237Y021242D01*
X020117Y021362D01*
X019960Y021427D01*
X019790Y021427D01*
X019633Y021362D01*
X019513Y021242D01*
X019448Y021085D01*
X019448Y020915D01*
X019513Y020758D01*
X019633Y020638D01*
X019790Y020573D01*
X019607Y020665D02*
X018819Y020665D01*
X018917Y020566D02*
X021375Y020566D01*
X021375Y020468D02*
X018971Y020468D01*
X019511Y020763D02*
X002239Y020763D01*
X002237Y020758D02*
X002302Y020915D01*
X002302Y021085D01*
X002237Y021242D01*
X002117Y021362D01*
X001960Y021427D01*
X001790Y021427D01*
X001633Y021362D01*
X001513Y021242D01*
X001448Y021085D01*
X001448Y020915D01*
X001513Y020758D01*
X001633Y020638D01*
X001790Y020573D01*
X001960Y020573D01*
X002117Y020638D01*
X002237Y020758D01*
X002280Y020862D02*
X011877Y020862D01*
X011900Y020839D02*
X012014Y020792D01*
X012136Y020792D01*
X012250Y020839D01*
X012336Y020925D01*
X012383Y021039D01*
X012383Y021161D01*
X012336Y021275D01*
X012250Y021361D01*
X012136Y021408D01*
X012014Y021408D01*
X011900Y021361D01*
X011814Y021275D01*
X011767Y021161D01*
X011767Y021039D01*
X011814Y020925D01*
X011900Y020839D01*
X011799Y020960D02*
X002302Y020960D01*
X002302Y021059D02*
X011767Y021059D01*
X011767Y021157D02*
X002272Y021157D01*
X002223Y021256D02*
X011806Y021256D01*
X011893Y021354D02*
X002125Y021354D01*
X001960Y021573D02*
X001790Y021573D01*
X001633Y021638D01*
X001513Y021758D01*
X001448Y021915D01*
X001448Y022085D01*
X001513Y022242D01*
X001633Y022362D01*
X001790Y022427D01*
X001960Y022427D01*
X002117Y022362D01*
X002237Y022242D01*
X002302Y022085D01*
X002302Y021915D01*
X002237Y021758D01*
X002117Y021638D01*
X001960Y021573D01*
X002128Y021650D02*
X009289Y021650D01*
X009300Y021639D02*
X009414Y021592D01*
X009536Y021592D01*
X009650Y021639D01*
X009736Y021725D01*
X009783Y021839D01*
X009783Y021961D01*
X009736Y022075D01*
X009650Y022161D01*
X009536Y022208D01*
X009414Y022208D01*
X009300Y022161D01*
X009214Y022075D01*
X009167Y021961D01*
X009167Y021839D01*
X009214Y021725D01*
X009300Y021639D01*
X009204Y021748D02*
X002227Y021748D01*
X002273Y021847D02*
X009167Y021847D01*
X009167Y021945D02*
X004056Y021945D01*
X004050Y021939D02*
X004136Y022025D01*
X004183Y022139D01*
X004183Y022261D01*
X004136Y022375D01*
X004050Y022461D01*
X003936Y022508D01*
X003814Y022508D01*
X003700Y022461D01*
X003614Y022375D01*
X003567Y022261D01*
X003567Y022139D01*
X003614Y022025D01*
X003700Y021939D01*
X003814Y021892D01*
X003936Y021892D01*
X004050Y021939D01*
X004144Y022044D02*
X009201Y022044D01*
X009281Y022142D02*
X004183Y022142D01*
X004183Y022241D02*
X010667Y022241D01*
X010667Y022261D02*
X010667Y022139D01*
X010714Y022025D01*
X010789Y021950D01*
X010714Y021875D01*
X010667Y021761D01*
X010667Y021639D01*
X010714Y021525D01*
X010800Y021439D01*
X010914Y021392D01*
X011036Y021392D01*
X011150Y021439D01*
X011236Y021525D01*
X011283Y021639D01*
X011283Y021761D01*
X011236Y021875D01*
X011161Y021950D01*
X011236Y022025D01*
X011283Y022139D01*
X011283Y022261D01*
X011236Y022375D01*
X011150Y022461D01*
X011036Y022508D01*
X010914Y022508D01*
X010800Y022461D01*
X010714Y022375D01*
X010667Y022261D01*
X010699Y022339D02*
X004151Y022339D01*
X004074Y022438D02*
X010776Y022438D01*
X010790Y022573D02*
X010960Y022573D01*
X011117Y022638D01*
X011237Y022758D01*
X011302Y022915D01*
X011302Y023085D01*
X011237Y023242D01*
X011117Y023362D01*
X010960Y023427D01*
X010790Y023427D01*
X010633Y023362D01*
X010513Y023242D01*
X010448Y023085D01*
X010448Y022915D01*
X010513Y022758D01*
X010633Y022638D01*
X010790Y022573D01*
X010642Y022635D02*
X010108Y022635D01*
X010117Y022638D02*
X010237Y022758D01*
X010302Y022915D01*
X010302Y023085D01*
X010237Y023242D01*
X010117Y023362D01*
X009960Y023427D01*
X009790Y023427D01*
X009633Y023362D01*
X009513Y023242D01*
X009448Y023085D01*
X009448Y022915D01*
X009513Y022758D01*
X009633Y022638D01*
X009790Y022573D01*
X009960Y022573D01*
X010117Y022638D01*
X010212Y022733D02*
X010538Y022733D01*
X010483Y022832D02*
X010267Y022832D01*
X010302Y022930D02*
X010448Y022930D01*
X010448Y023029D02*
X010302Y023029D01*
X010284Y023127D02*
X010466Y023127D01*
X010506Y023226D02*
X010244Y023226D01*
X010155Y023324D02*
X010595Y023324D01*
X010780Y023423D02*
X009970Y023423D01*
X009961Y023570D02*
X010119Y023635D01*
X010240Y023756D01*
X010305Y023914D01*
X010305Y024086D01*
X010240Y024244D01*
X010119Y024365D01*
X009961Y024430D01*
X009789Y024430D01*
X009631Y024365D01*
X009510Y024244D01*
X009445Y024086D01*
X009445Y023914D01*
X009510Y023756D01*
X009631Y023635D01*
X009789Y023570D01*
X009961Y023570D01*
X010080Y023620D02*
X010670Y023620D01*
X010631Y023635D02*
X010789Y023570D01*
X010961Y023570D01*
X011119Y023635D01*
X011240Y023756D01*
X011305Y023914D01*
X011305Y024086D01*
X011240Y024244D01*
X011119Y024365D01*
X010961Y024430D01*
X010789Y024430D01*
X010631Y024365D01*
X010510Y024244D01*
X010445Y024086D01*
X010445Y023914D01*
X010510Y023756D01*
X010631Y023635D01*
X010549Y023718D02*
X010201Y023718D01*
X010264Y023817D02*
X010486Y023817D01*
X010445Y023915D02*
X010305Y023915D01*
X010305Y024014D02*
X010445Y024014D01*
X010456Y024112D02*
X010294Y024112D01*
X010253Y024211D02*
X010497Y024211D01*
X010576Y024309D02*
X010174Y024309D01*
X010015Y024408D02*
X010735Y024408D01*
X011015Y024408D02*
X011735Y024408D01*
X011789Y024430D02*
X011631Y024365D01*
X011510Y024244D01*
X011445Y024086D01*
X011445Y023914D01*
X011510Y023756D01*
X011631Y023635D01*
X011789Y023570D01*
X011961Y023570D01*
X012119Y023635D01*
X012240Y023756D01*
X012305Y023914D01*
X012305Y024086D01*
X012240Y024244D01*
X012119Y024365D01*
X011961Y024430D01*
X011789Y024430D01*
X012015Y024408D02*
X012735Y024408D01*
X012789Y024430D02*
X012631Y024365D01*
X012510Y024244D01*
X012445Y024086D01*
X012445Y023914D01*
X012510Y023756D01*
X012631Y023635D01*
X012789Y023570D01*
X012961Y023570D01*
X013119Y023635D01*
X013240Y023756D01*
X013305Y023914D01*
X013305Y024086D01*
X013240Y024244D01*
X013119Y024365D01*
X012961Y024430D01*
X012789Y024430D01*
X013015Y024408D02*
X019743Y024408D01*
X019790Y024427D02*
X019633Y024362D01*
X019513Y024242D01*
X019448Y024085D01*
X019448Y023915D01*
X013305Y023915D01*
X013305Y024014D02*
X019448Y024014D01*
X019459Y024112D02*
X013294Y024112D01*
X013253Y024211D02*
X019500Y024211D01*
X019580Y024309D02*
X013174Y024309D01*
X013264Y023817D02*
X019489Y023817D01*
X019513Y023758D02*
X019633Y023638D01*
X019790Y023573D01*
X019960Y023573D01*
X020117Y023638D01*
X020237Y023758D01*
X020302Y023915D01*
X020448Y023915D01*
X020513Y023758D01*
X020633Y023638D01*
X020790Y023573D01*
X020960Y023573D01*
X021117Y023638D01*
X021237Y023758D01*
X021302Y023915D01*
X021375Y023915D01*
X021302Y023915D02*
X021302Y024085D01*
X021237Y024242D01*
X021117Y024362D01*
X020960Y024427D01*
X020790Y024427D01*
X020633Y024362D01*
X020513Y024242D01*
X020448Y024085D01*
X020448Y023915D01*
X020448Y024014D02*
X020302Y024014D01*
X020302Y024085D02*
X020237Y024242D01*
X020117Y024362D01*
X019960Y024427D01*
X019790Y024427D01*
X019790Y024573D02*
X019960Y024573D01*
X020117Y024638D01*
X020237Y024758D01*
X020302Y024915D01*
X020302Y025085D01*
X020237Y025242D01*
X020117Y025362D01*
X019960Y025427D01*
X019790Y025427D01*
X019633Y025362D01*
X019513Y025242D01*
X019448Y025085D01*
X019448Y024915D01*
X019513Y024758D01*
X019633Y024638D01*
X019790Y024573D01*
X019714Y024605D02*
X010168Y024605D01*
X010136Y024592D02*
X010250Y024639D01*
X010336Y024725D01*
X010383Y024839D01*
X010383Y024961D01*
X010336Y025075D01*
X010250Y025161D01*
X010136Y025208D01*
X010014Y025208D01*
X009900Y025161D01*
X009814Y025075D01*
X009767Y024961D01*
X009767Y024839D01*
X009814Y024725D01*
X009900Y024639D01*
X010014Y024592D01*
X010136Y024592D01*
X009982Y024605D02*
X008968Y024605D01*
X008936Y024592D02*
X009050Y024639D01*
X009136Y024725D01*
X009183Y024839D01*
X009183Y024961D01*
X009136Y025075D01*
X009050Y025161D01*
X008936Y025208D01*
X008814Y025208D01*
X008700Y025161D01*
X008614Y025075D01*
X008567Y024961D01*
X008567Y024839D01*
X008614Y024725D01*
X008700Y024639D01*
X008814Y024592D01*
X008936Y024592D01*
X008782Y024605D02*
X002036Y024605D01*
X001960Y024573D02*
X002117Y024638D01*
X002237Y024758D01*
X002302Y024915D01*
X002302Y025085D01*
X002237Y025242D01*
X002117Y025362D01*
X001960Y025427D01*
X001790Y025427D01*
X001633Y025362D01*
X001513Y025242D01*
X001448Y025085D01*
X001448Y024915D01*
X001513Y024758D01*
X001633Y024638D01*
X001790Y024573D01*
X001960Y024573D01*
X001960Y024427D02*
X001790Y024427D01*
X001633Y024362D01*
X001513Y024242D01*
X001448Y024085D01*
X001448Y023915D01*
X001302Y023915D01*
X001237Y023758D01*
X001117Y023638D01*
X000960Y023573D01*
X000790Y023573D01*
X000633Y023638D01*
X000513Y023758D01*
X000448Y023915D01*
X000375Y023915D01*
X000448Y023915D02*
X000448Y024085D01*
X000513Y024242D01*
X000633Y024362D01*
X000790Y024427D01*
X000960Y024427D01*
X001117Y024362D01*
X001237Y024242D01*
X001302Y024085D01*
X001302Y023915D01*
X001302Y024014D02*
X001448Y024014D01*
X001459Y024112D02*
X001291Y024112D01*
X001250Y024211D02*
X001500Y024211D01*
X001580Y024309D02*
X001170Y024309D01*
X001007Y024408D02*
X001743Y024408D01*
X001714Y024605D02*
X001036Y024605D01*
X000960Y024573D02*
X001117Y024638D01*
X001237Y024758D01*
X001302Y024915D01*
X001302Y025085D01*
X001237Y025242D01*
X001117Y025362D01*
X000960Y025427D01*
X000790Y025427D01*
X000633Y025362D01*
X000513Y025242D01*
X000448Y025085D01*
X000448Y024915D01*
X000513Y024758D01*
X000633Y024638D01*
X000790Y024573D01*
X000960Y024573D01*
X000714Y024605D02*
X000375Y024605D01*
X000375Y024703D02*
X000568Y024703D01*
X000495Y024802D02*
X000375Y024802D01*
X000375Y024900D02*
X000454Y024900D01*
X000448Y024999D02*
X000375Y024999D01*
X000375Y025097D02*
X000453Y025097D01*
X000494Y025196D02*
X000375Y025196D01*
X000375Y025294D02*
X000565Y025294D01*
X000707Y025393D02*
X000375Y025393D01*
X000375Y025491D02*
X021375Y025491D01*
X021375Y025393D02*
X021043Y025393D01*
X021117Y025362D02*
X020960Y025427D01*
X020790Y025427D01*
X020633Y025362D01*
X020513Y025242D01*
X020448Y025085D01*
X020448Y024915D01*
X020513Y024758D01*
X020633Y024638D01*
X020790Y024573D01*
X020960Y024573D01*
X021117Y024638D01*
X021237Y024758D01*
X021302Y024915D01*
X021302Y025085D01*
X021237Y025242D01*
X021117Y025362D01*
X021185Y025294D02*
X021375Y025294D01*
X021375Y025196D02*
X021256Y025196D01*
X021297Y025097D02*
X021375Y025097D01*
X021375Y024999D02*
X021302Y024999D01*
X021296Y024900D02*
X021375Y024900D01*
X021375Y024802D02*
X021255Y024802D01*
X021182Y024703D02*
X021375Y024703D01*
X021375Y024605D02*
X021036Y024605D01*
X021007Y024408D02*
X021375Y024408D01*
X021375Y024506D02*
X000375Y024506D01*
X000375Y024408D02*
X000743Y024408D01*
X000580Y024309D02*
X000375Y024309D01*
X000375Y024211D02*
X000500Y024211D01*
X000459Y024112D02*
X000375Y024112D01*
X000375Y024014D02*
X000448Y024014D01*
X000489Y023817D02*
X000375Y023817D01*
X000375Y023718D02*
X000553Y023718D01*
X000678Y023620D02*
X000375Y023620D01*
X000375Y023521D02*
X002867Y023521D01*
X002867Y023561D02*
X002867Y023439D01*
X002914Y023325D01*
X003000Y023239D01*
X003114Y023192D01*
X003236Y023192D01*
X003350Y023239D01*
X003436Y023325D01*
X003483Y023439D01*
X003483Y023561D01*
X003436Y023675D01*
X003350Y023761D01*
X003236Y023808D01*
X003114Y023808D01*
X003000Y023761D01*
X002914Y023675D01*
X002867Y023561D01*
X002891Y023620D02*
X002072Y023620D01*
X002117Y023638D02*
X001960Y023573D01*
X001790Y023573D01*
X001633Y023638D01*
X001513Y023758D01*
X001448Y023915D01*
X001489Y023817D02*
X001261Y023817D01*
X001197Y023718D02*
X001553Y023718D01*
X001678Y023620D02*
X001072Y023620D01*
X000970Y023423D02*
X001780Y023423D01*
X001790Y023427D02*
X001633Y023362D01*
X001513Y023242D01*
X001448Y023085D01*
X001448Y022915D01*
X001513Y022758D01*
X001633Y022638D01*
X001790Y022573D01*
X001960Y022573D01*
X002117Y022638D01*
X002237Y022758D01*
X002302Y022915D01*
X002302Y023085D01*
X002237Y023242D01*
X002117Y023362D01*
X001960Y023427D01*
X001790Y023427D01*
X001970Y023423D02*
X002873Y023423D01*
X002915Y023324D02*
X002155Y023324D01*
X002244Y023226D02*
X003032Y023226D01*
X003214Y022708D02*
X003100Y022661D01*
X003014Y022575D01*
X002967Y022461D01*
X002967Y022339D01*
X002140Y022339D01*
X002237Y022241D02*
X003007Y022241D01*
X003014Y022225D02*
X003100Y022139D01*
X003214Y022092D01*
X003336Y022092D01*
X003450Y022139D01*
X003536Y022225D01*
X003583Y022339D01*
X003599Y022339D01*
X003583Y022339D02*
X003583Y022461D01*
X003536Y022575D01*
X003450Y022661D01*
X003336Y022708D01*
X003214Y022708D01*
X003073Y022635D02*
X002108Y022635D01*
X002212Y022733D02*
X003517Y022733D01*
X003534Y022709D02*
X003584Y022659D01*
X003641Y022618D01*
X003703Y022586D01*
X003770Y022564D01*
X003827Y022555D01*
X003827Y022952D01*
X003923Y022952D01*
X003923Y023048D01*
X004320Y023048D01*
X004311Y023105D01*
X004289Y023172D01*
X004257Y023234D01*
X004216Y023291D01*
X004166Y023341D01*
X004109Y023382D01*
X004047Y023414D01*
X003980Y023436D01*
X003923Y023445D01*
X003923Y023048D01*
X003827Y023048D01*
X003827Y022952D01*
X003430Y022952D01*
X003439Y022895D01*
X003461Y022828D01*
X003493Y022766D01*
X003534Y022709D01*
X003477Y022635D02*
X003618Y022635D01*
X003552Y022536D02*
X013833Y022536D01*
X013814Y022516D02*
X013767Y022403D01*
X013767Y022280D01*
X013814Y022167D01*
X013900Y022080D01*
X014014Y022033D01*
X014136Y022033D01*
X014250Y022080D01*
X014336Y022167D01*
X014383Y022280D01*
X014383Y022403D01*
X014383Y022404D01*
X014414Y022392D01*
X014536Y022392D01*
X014650Y022439D01*
X014736Y022525D01*
X014783Y022639D01*
X014783Y022761D01*
X014736Y022875D01*
X014650Y022961D01*
X014536Y023008D01*
X014414Y023008D01*
X014300Y022961D01*
X014214Y022875D01*
X014167Y022761D01*
X014167Y022639D01*
X014167Y022637D01*
X014136Y022650D01*
X014014Y022650D01*
X013900Y022603D01*
X013814Y022516D01*
X013781Y022438D02*
X011174Y022438D01*
X011251Y022339D02*
X013767Y022339D01*
X013783Y022241D02*
X011283Y022241D01*
X011283Y022142D02*
X013838Y022142D01*
X013988Y022044D02*
X011244Y022044D01*
X011166Y021945D02*
X019448Y021945D01*
X019448Y021915D02*
X019513Y021758D01*
X019633Y021638D01*
X019790Y021573D01*
X019960Y021573D01*
X020117Y021638D01*
X020237Y021758D01*
X020302Y021915D01*
X020302Y022085D01*
X020237Y022242D01*
X020117Y022362D01*
X019960Y022427D01*
X019790Y022427D01*
X019633Y022362D01*
X019513Y022242D01*
X019448Y022085D01*
X019448Y021915D01*
X019477Y021847D02*
X011248Y021847D01*
X011283Y021748D02*
X019523Y021748D01*
X019622Y021650D02*
X011283Y021650D01*
X011247Y021551D02*
X021375Y021551D01*
X021375Y021453D02*
X011164Y021453D01*
X010786Y021453D02*
X000375Y021453D01*
X000375Y021551D02*
X010703Y021551D01*
X010667Y021650D02*
X009661Y021650D01*
X009746Y021748D02*
X010667Y021748D01*
X010702Y021847D02*
X009783Y021847D01*
X009783Y021945D02*
X010784Y021945D01*
X010706Y022044D02*
X009749Y022044D01*
X009669Y022142D02*
X010667Y022142D01*
X011108Y022635D02*
X011642Y022635D01*
X011633Y022638D02*
X011790Y022573D01*
X011960Y022573D01*
X012117Y022638D01*
X012237Y022758D01*
X012302Y022915D01*
X012302Y023085D01*
X012237Y023242D01*
X012117Y023362D01*
X011960Y023427D01*
X011790Y023427D01*
X011633Y023362D01*
X011513Y023242D01*
X011448Y023085D01*
X011448Y022915D01*
X011513Y022758D01*
X011633Y022638D01*
X011538Y022733D02*
X011212Y022733D01*
X011267Y022832D02*
X011483Y022832D01*
X011448Y022930D02*
X011302Y022930D01*
X011302Y023029D02*
X011448Y023029D01*
X011466Y023127D02*
X011284Y023127D01*
X011244Y023226D02*
X011506Y023226D01*
X011595Y023324D02*
X011155Y023324D01*
X010970Y023423D02*
X011780Y023423D01*
X011970Y023423D02*
X012780Y023423D01*
X012790Y023427D02*
X012633Y023362D01*
X012513Y023242D01*
X012448Y023085D01*
X012448Y022915D01*
X012513Y022758D01*
X012633Y022638D01*
X012790Y022573D01*
X012960Y022573D01*
X013117Y022638D01*
X013237Y022758D01*
X013302Y022915D01*
X013302Y023085D01*
X013237Y023242D01*
X013117Y023362D01*
X012960Y023427D01*
X012790Y023427D01*
X012970Y023423D02*
X019780Y023423D01*
X019790Y023427D02*
X019633Y023362D01*
X019513Y023242D01*
X019448Y023085D01*
X019448Y022915D01*
X019513Y022758D01*
X019633Y022638D01*
X019790Y022573D01*
X019960Y022573D01*
X020117Y022638D01*
X020237Y022758D01*
X020302Y022915D01*
X020302Y023085D01*
X020237Y023242D01*
X020117Y023362D01*
X019960Y023427D01*
X019790Y023427D01*
X019970Y023423D02*
X020780Y023423D01*
X020790Y023427D02*
X020633Y023362D01*
X020513Y023242D01*
X020448Y023085D01*
X020448Y022915D01*
X020513Y022758D01*
X020633Y022638D01*
X020790Y022573D01*
X020960Y022573D01*
X021117Y022638D01*
X021237Y022758D01*
X021302Y022915D01*
X021302Y023085D01*
X021237Y023242D01*
X021117Y023362D01*
X020960Y023427D01*
X020790Y023427D01*
X020970Y023423D02*
X021375Y023423D01*
X021375Y023521D02*
X003483Y023521D01*
X003477Y023423D02*
X003729Y023423D01*
X003703Y023414D02*
X003641Y023382D01*
X003584Y023341D01*
X003534Y023291D01*
X003493Y023234D01*
X003461Y023172D01*
X003439Y023105D01*
X003430Y023048D01*
X003827Y023048D01*
X003827Y023445D01*
X003770Y023436D01*
X003703Y023414D01*
X003827Y023423D02*
X003923Y023423D01*
X004021Y023423D02*
X004780Y023423D01*
X004790Y023427D02*
X004633Y023362D01*
X004513Y023242D01*
X004448Y023085D01*
X004448Y022915D01*
X004513Y022758D01*
X004633Y022638D01*
X004790Y022573D01*
X004960Y022573D01*
X005117Y022638D01*
X005237Y022758D01*
X005302Y022915D01*
X005302Y023085D01*
X005237Y023242D01*
X005117Y023362D01*
X004960Y023427D01*
X004790Y023427D01*
X004970Y023423D02*
X005780Y023423D01*
X005790Y023427D02*
X005633Y023362D01*
X005513Y023242D01*
X005448Y023085D01*
X005448Y022915D01*
X005513Y022758D01*
X005633Y022638D01*
X005790Y022573D01*
X005960Y022573D01*
X006117Y022638D01*
X006237Y022758D01*
X006302Y022915D01*
X006302Y023085D01*
X006237Y023242D01*
X006117Y023362D01*
X005960Y023427D01*
X005790Y023427D01*
X005789Y023570D02*
X005961Y023570D01*
X006119Y023635D01*
X006240Y023756D01*
X006305Y023914D01*
X006305Y024086D01*
X006240Y024244D01*
X006119Y024365D01*
X005961Y024430D01*
X005789Y024430D01*
X005631Y024365D01*
X005510Y024244D01*
X005445Y024086D01*
X005445Y023914D01*
X005510Y023756D01*
X005631Y023635D01*
X005789Y023570D01*
X005670Y023620D02*
X003459Y023620D01*
X003393Y023718D02*
X005549Y023718D01*
X005486Y023817D02*
X002261Y023817D01*
X002237Y023758D02*
X002302Y023915D01*
X005445Y023915D01*
X005445Y024014D02*
X002302Y024014D01*
X002302Y024085D02*
X002237Y024242D01*
X002117Y024362D01*
X001960Y024427D01*
X002007Y024408D02*
X005735Y024408D01*
X005576Y024309D02*
X002170Y024309D01*
X002250Y024211D02*
X005497Y024211D01*
X005456Y024112D02*
X002291Y024112D01*
X002302Y024085D02*
X002302Y023915D01*
X002237Y023758D02*
X002117Y023638D01*
X002197Y023718D02*
X002957Y023718D01*
X003318Y023226D02*
X003488Y023226D01*
X003446Y023127D02*
X002284Y023127D01*
X002302Y023029D02*
X003827Y023029D01*
X003923Y023029D02*
X004448Y023029D01*
X004448Y022930D02*
X004316Y022930D01*
X004320Y022952D02*
X003923Y022952D01*
X003923Y022555D01*
X003980Y022564D01*
X004047Y022586D01*
X004109Y022618D01*
X004166Y022659D01*
X004216Y022709D01*
X004257Y022766D01*
X004289Y022828D01*
X004311Y022895D01*
X004320Y022952D01*
X004290Y022832D02*
X004483Y022832D01*
X004538Y022733D02*
X004233Y022733D01*
X004132Y022635D02*
X004642Y022635D01*
X005108Y022635D02*
X005642Y022635D01*
X005538Y022733D02*
X005212Y022733D01*
X005267Y022832D02*
X005483Y022832D01*
X005448Y022930D02*
X005302Y022930D01*
X005302Y023029D02*
X005448Y023029D01*
X005466Y023127D02*
X005284Y023127D01*
X005244Y023226D02*
X005506Y023226D01*
X005595Y023324D02*
X005155Y023324D01*
X004595Y023324D02*
X004183Y023324D01*
X004262Y023226D02*
X004506Y023226D01*
X004466Y023127D02*
X004304Y023127D01*
X003923Y023127D02*
X003827Y023127D01*
X003827Y023226D02*
X003923Y023226D01*
X003923Y023324D02*
X003827Y023324D01*
X003567Y023324D02*
X003435Y023324D01*
X003434Y022930D02*
X002302Y022930D01*
X002267Y022832D02*
X003460Y022832D01*
X003583Y022438D02*
X003676Y022438D01*
X003567Y022241D02*
X003543Y022241D01*
X003567Y022142D02*
X003453Y022142D01*
X003606Y022044D02*
X002302Y022044D01*
X002302Y021945D02*
X003694Y021945D01*
X003097Y022142D02*
X002278Y022142D01*
X001610Y022339D02*
X001140Y022339D01*
X001117Y022362D02*
X000960Y022427D01*
X000790Y022427D01*
X000633Y022362D01*
X000513Y022242D01*
X000448Y022085D01*
X000448Y021915D01*
X000513Y021758D01*
X000633Y021638D01*
X000790Y021573D01*
X000960Y021573D01*
X001117Y021638D01*
X001237Y021758D01*
X001302Y021915D01*
X001302Y022085D01*
X001237Y022242D01*
X001117Y022362D01*
X001237Y022241D02*
X001513Y022241D01*
X001472Y022142D02*
X001278Y022142D01*
X001302Y022044D02*
X001448Y022044D01*
X001448Y021945D02*
X001302Y021945D01*
X001273Y021847D02*
X001477Y021847D01*
X001523Y021748D02*
X001227Y021748D01*
X001128Y021650D02*
X001622Y021650D01*
X001625Y021354D02*
X001125Y021354D01*
X001117Y021362D02*
X000960Y021427D01*
X000790Y021427D01*
X000633Y021362D01*
X000513Y021242D01*
X000448Y021085D01*
X000448Y020915D01*
X000513Y020758D01*
X000633Y020638D01*
X000790Y020573D01*
X000960Y020573D01*
X001117Y020638D01*
X001237Y020758D01*
X001302Y020915D01*
X001302Y021085D01*
X001237Y021242D01*
X001117Y021362D01*
X001223Y021256D02*
X001527Y021256D01*
X001478Y021157D02*
X001272Y021157D01*
X001302Y021059D02*
X001448Y021059D01*
X001448Y020960D02*
X001302Y020960D01*
X001280Y020862D02*
X001470Y020862D01*
X001511Y020763D02*
X001239Y020763D01*
X001143Y020665D02*
X001607Y020665D01*
X001651Y020369D02*
X001099Y020369D01*
X001208Y020271D02*
X001542Y020271D01*
X001513Y020242D02*
X001633Y020362D01*
X001790Y020427D01*
X001960Y020427D01*
X002117Y020362D01*
X002237Y020242D01*
X002302Y020085D01*
X002302Y019915D01*
X002237Y019758D01*
X002117Y019638D01*
X001960Y019573D01*
X001790Y019573D01*
X001633Y019638D01*
X001513Y019758D01*
X001448Y019915D01*
X001448Y020085D01*
X001513Y020242D01*
X001484Y020172D02*
X001266Y020172D01*
X001302Y020074D02*
X001448Y020074D01*
X001448Y019975D02*
X001302Y019975D01*
X001286Y019877D02*
X001464Y019877D01*
X001505Y019778D02*
X001245Y019778D01*
X001158Y019680D02*
X001592Y019680D01*
X001771Y019581D02*
X000979Y019581D01*
X001063Y019384D02*
X001687Y019384D01*
X001557Y019286D02*
X001193Y019286D01*
X001260Y019187D02*
X001490Y019187D01*
X001450Y019089D02*
X001300Y019089D01*
X001302Y018990D02*
X001448Y018990D01*
X001458Y018892D02*
X001292Y018892D01*
X001251Y018793D02*
X001499Y018793D01*
X001577Y018695D02*
X001173Y018695D01*
X001015Y018596D02*
X001735Y018596D01*
X001723Y018399D02*
X001027Y018399D01*
X000960Y018427D02*
X000790Y018427D01*
X000633Y018362D01*
X000513Y018242D01*
X000448Y018085D01*
X000448Y017915D01*
X000513Y017758D01*
X000633Y017638D01*
X000790Y017573D01*
X000960Y017573D01*
X001117Y017638D01*
X001237Y017758D01*
X001302Y017915D01*
X001302Y018085D01*
X001237Y018242D01*
X001117Y018362D01*
X000960Y018427D01*
X000723Y018399D02*
X000375Y018399D01*
X000375Y018301D02*
X000572Y018301D01*
X000497Y018202D02*
X000375Y018202D01*
X000375Y018104D02*
X000456Y018104D01*
X000448Y018005D02*
X000375Y018005D01*
X000375Y017907D02*
X000452Y017907D01*
X000492Y017808D02*
X000375Y017808D01*
X000375Y017710D02*
X000562Y017710D01*
X000699Y017611D02*
X000375Y017611D01*
X000375Y017513D02*
X004058Y017513D01*
X004064Y017525D02*
X004017Y017411D01*
X004017Y017289D01*
X004064Y017175D01*
X004089Y017119D02*
X004120Y017119D01*
X004130Y017020D02*
X005921Y017020D01*
X005900Y017011D02*
X005814Y016925D01*
X005767Y016811D01*
X005767Y016689D01*
X005814Y016575D01*
X005900Y016489D01*
X006014Y016442D01*
X006136Y016442D01*
X006250Y016489D01*
X006336Y016575D01*
X006383Y016689D01*
X006383Y016698D01*
X006414Y016625D01*
X006500Y016539D01*
X006614Y016492D01*
X006736Y016492D01*
X006850Y016539D01*
X006936Y016625D01*
X006983Y016739D01*
X006983Y016861D01*
X006936Y016975D01*
X006850Y017061D01*
X006736Y017108D01*
X006614Y017108D01*
X006500Y017061D01*
X006414Y016975D01*
X006367Y016861D01*
X006367Y016852D01*
X006336Y016925D01*
X006250Y017011D01*
X006136Y017058D01*
X006014Y017058D01*
X005900Y017011D01*
X005812Y016922D02*
X004133Y016922D01*
X004106Y016823D02*
X005771Y016823D01*
X005767Y016725D02*
X004036Y016725D01*
X004148Y016331D02*
X010169Y016331D01*
X010200Y016361D02*
X010114Y016275D01*
X010091Y016220D01*
X010050Y016261D01*
X009936Y016308D01*
X009814Y016308D01*
X009700Y016261D01*
X009614Y016175D01*
X009567Y016061D01*
X009567Y015939D01*
X009614Y015825D01*
X009700Y015739D01*
X009814Y015692D01*
X009936Y015692D01*
X010050Y015739D01*
X010136Y015825D01*
X010159Y015880D01*
X010200Y015839D01*
X010314Y015792D01*
X010436Y015792D01*
X010550Y015839D01*
X010567Y015855D01*
X010567Y015839D01*
X010614Y015725D01*
X010700Y015639D01*
X010719Y015631D01*
X010664Y015575D01*
X010617Y015461D01*
X010617Y015339D01*
X010664Y015225D01*
X010750Y015139D01*
X010864Y015092D01*
X010986Y015092D01*
X011100Y015139D01*
X011186Y015225D01*
X011233Y015339D01*
X011233Y015461D01*
X011186Y015575D01*
X011100Y015661D01*
X011081Y015669D01*
X011136Y015725D01*
X011175Y015818D01*
X011214Y015725D01*
X011300Y015639D01*
X011414Y015592D01*
X011536Y015592D01*
X011650Y015639D01*
X011736Y015725D01*
X011783Y015839D01*
X011783Y015961D01*
X011736Y016075D01*
X011650Y016161D01*
X011536Y016208D01*
X011414Y016208D01*
X011300Y016161D01*
X011214Y016075D01*
X011175Y015982D01*
X011136Y016075D01*
X011050Y016161D01*
X010936Y016208D01*
X010814Y016208D01*
X010700Y016161D01*
X010683Y016145D01*
X010683Y016161D01*
X010636Y016275D01*
X010550Y016361D01*
X010436Y016408D01*
X010314Y016408D01*
X010200Y016361D01*
X010096Y016232D02*
X010079Y016232D01*
X009920Y016539D02*
X010006Y016625D01*
X010053Y016739D01*
X010053Y016861D01*
X010006Y016975D01*
X009920Y017061D01*
X009806Y017108D01*
X009684Y017108D01*
X009570Y017061D01*
X009484Y016975D01*
X009437Y016861D01*
X009437Y016739D01*
X009484Y016625D01*
X009570Y016539D01*
X009684Y016492D01*
X009806Y016492D01*
X009920Y016539D01*
X009893Y016528D02*
X011613Y016528D01*
X011614Y016525D02*
X011700Y016439D01*
X011814Y016392D01*
X011936Y016392D01*
X012050Y016439D01*
X012136Y016525D01*
X012183Y016639D01*
X012183Y016761D01*
X012136Y016875D01*
X012050Y016961D01*
X011936Y017008D01*
X011814Y017008D01*
X011700Y016961D01*
X011614Y016875D01*
X011567Y016761D01*
X011567Y016639D01*
X011614Y016525D01*
X011572Y016626D02*
X010007Y016626D01*
X010048Y016725D02*
X011567Y016725D01*
X011592Y016823D02*
X010053Y016823D01*
X010028Y016922D02*
X011660Y016922D01*
X012090Y016922D02*
X013017Y016922D01*
X013014Y016925D02*
X013100Y016839D01*
X013214Y016792D01*
X013336Y016792D01*
X013450Y016839D01*
X013536Y016925D01*
X013583Y017039D01*
X013583Y017161D01*
X013536Y017275D01*
X013450Y017361D01*
X013336Y017408D01*
X013214Y017408D01*
X013100Y017361D01*
X013014Y017275D01*
X012967Y017161D01*
X012967Y017039D01*
X013014Y016925D01*
X012974Y017020D02*
X009961Y017020D01*
X009597Y016528D02*
X006823Y016528D01*
X006937Y016626D02*
X008930Y016626D01*
X008900Y016639D02*
X009014Y016592D01*
X009136Y016592D01*
X009250Y016639D01*
X009336Y016725D01*
X009383Y016839D01*
X009383Y016961D01*
X009336Y017075D01*
X009250Y017161D01*
X009136Y017208D01*
X009014Y017208D01*
X008900Y017161D01*
X008814Y017075D01*
X008767Y016961D01*
X008767Y016839D01*
X008814Y016725D01*
X008900Y016639D01*
X008814Y016725D02*
X006978Y016725D01*
X006983Y016823D02*
X008773Y016823D01*
X008767Y016922D02*
X008109Y016922D01*
X008150Y016939D02*
X008236Y017025D01*
X008283Y017139D01*
X008283Y017261D01*
X008236Y017375D01*
X008150Y017461D01*
X008036Y017508D01*
X007914Y017508D01*
X007800Y017461D01*
X007714Y017375D01*
X007667Y017261D01*
X007667Y017139D01*
X007714Y017025D01*
X007800Y016939D01*
X007914Y016892D01*
X008036Y016892D01*
X008150Y016939D01*
X008231Y017020D02*
X008791Y017020D01*
X008857Y017119D02*
X008275Y017119D01*
X008283Y017217D02*
X012990Y017217D01*
X012967Y017119D02*
X009293Y017119D01*
X009359Y017020D02*
X009529Y017020D01*
X009462Y016922D02*
X009383Y016922D01*
X009377Y016823D02*
X009437Y016823D01*
X009442Y016725D02*
X009336Y016725D01*
X009220Y016626D02*
X009483Y016626D01*
X009671Y016232D02*
X004241Y016232D01*
X004282Y016134D02*
X009596Y016134D01*
X009567Y016035D02*
X004302Y016035D01*
X004302Y015937D02*
X005275Y015937D01*
X005300Y015961D02*
X005214Y015875D01*
X005167Y015761D01*
X005167Y015639D01*
X005214Y015525D01*
X005300Y015439D01*
X005414Y015392D01*
X005536Y015392D01*
X005650Y015439D01*
X005736Y015525D01*
X005783Y015639D01*
X005783Y015761D01*
X005736Y015875D01*
X005650Y015961D01*
X005536Y016008D01*
X005414Y016008D01*
X005300Y015961D01*
X005198Y015838D02*
X004270Y015838D01*
X004218Y015740D02*
X005167Y015740D01*
X005167Y015641D02*
X004120Y015641D01*
X004133Y015346D02*
X010617Y015346D01*
X010617Y015444D02*
X007855Y015444D01*
X007850Y015439D02*
X007936Y015525D01*
X007983Y015639D01*
X007983Y015761D01*
X007936Y015875D01*
X007850Y015961D01*
X007736Y016008D01*
X007614Y016008D01*
X007500Y015961D01*
X007414Y015875D01*
X007367Y015761D01*
X007367Y015639D01*
X007414Y015525D01*
X007500Y015439D01*
X007614Y015392D01*
X007736Y015392D01*
X007850Y015439D01*
X007944Y015543D02*
X010650Y015543D01*
X010698Y015641D02*
X007983Y015641D01*
X007983Y015740D02*
X009699Y015740D01*
X009608Y015838D02*
X007952Y015838D01*
X007875Y015937D02*
X009567Y015937D01*
X010051Y015740D02*
X010608Y015740D01*
X010567Y015838D02*
X010548Y015838D01*
X010655Y015247D02*
X004232Y015247D01*
X004275Y015149D02*
X010740Y015149D01*
X011110Y015149D02*
X011503Y015149D01*
X011514Y015175D02*
X011467Y015061D01*
X011467Y014939D01*
X011514Y014825D01*
X011600Y014739D01*
X011714Y014692D01*
X011836Y014692D01*
X011950Y014739D01*
X011991Y014780D01*
X012014Y014725D01*
X012100Y014639D01*
X012214Y014592D01*
X012336Y014592D01*
X012450Y014639D01*
X012536Y014725D01*
X012583Y014839D01*
X012583Y014961D01*
X012536Y015075D01*
X012450Y015161D01*
X012336Y015208D01*
X012214Y015208D01*
X012100Y015161D01*
X012059Y015120D01*
X012036Y015175D01*
X011950Y015261D01*
X011836Y015308D01*
X011714Y015308D01*
X011600Y015261D01*
X011514Y015175D01*
X011586Y015247D02*
X011195Y015247D01*
X011233Y015346D02*
X013267Y015346D01*
X013267Y015339D02*
X013314Y015225D01*
X013400Y015139D01*
X013514Y015092D01*
X013636Y015092D01*
X013750Y015139D01*
X013836Y015225D01*
X013883Y015339D01*
X013883Y015461D01*
X013836Y015575D01*
X013750Y015661D01*
X013636Y015708D01*
X013514Y015708D01*
X013400Y015661D01*
X013314Y015575D01*
X013267Y015461D01*
X013267Y015339D01*
X013305Y015247D02*
X011964Y015247D01*
X012047Y015149D02*
X012087Y015149D01*
X012001Y014755D02*
X011966Y014755D01*
X012083Y014656D02*
X007744Y014656D01*
X007736Y014675D02*
X007650Y014761D01*
X007536Y014808D01*
X007414Y014808D01*
X007300Y014761D01*
X007214Y014675D01*
X007167Y014561D01*
X007167Y014439D01*
X007214Y014325D01*
X007300Y014239D01*
X007414Y014192D01*
X007536Y014192D01*
X007650Y014239D01*
X007736Y014325D01*
X007783Y014439D01*
X007783Y014561D01*
X007736Y014675D01*
X007657Y014755D02*
X011584Y014755D01*
X011502Y014853D02*
X004276Y014853D01*
X004302Y014952D02*
X011467Y014952D01*
X011467Y015050D02*
X004302Y015050D01*
X004233Y014755D02*
X007293Y014755D01*
X007206Y014656D02*
X004135Y014656D01*
X004118Y014361D02*
X005267Y014361D01*
X005267Y014239D01*
X005314Y014125D01*
X005400Y014039D01*
X005514Y013992D01*
X005636Y013992D01*
X005750Y014039D01*
X005791Y014080D01*
X005814Y014025D01*
X005900Y013939D01*
X006014Y013892D01*
X006136Y013892D01*
X006250Y013939D01*
X006336Y014025D01*
X006383Y014139D01*
X006383Y014261D01*
X006336Y014375D01*
X006250Y014461D01*
X006136Y014508D01*
X006014Y014508D01*
X005900Y014461D01*
X005859Y014420D01*
X005836Y014475D01*
X005750Y014561D01*
X005636Y014608D01*
X005514Y014608D01*
X005400Y014561D01*
X005314Y014475D01*
X005267Y014361D01*
X005267Y014262D02*
X004217Y014262D01*
X004269Y014164D02*
X005298Y014164D01*
X005374Y014065D02*
X004302Y014065D01*
X004302Y013967D02*
X005872Y013967D01*
X005797Y014065D02*
X005776Y014065D01*
X005843Y014459D02*
X005898Y014459D01*
X005754Y014558D02*
X007167Y014558D01*
X007167Y014459D02*
X006252Y014459D01*
X006342Y014361D02*
X007199Y014361D01*
X007277Y014262D02*
X006383Y014262D01*
X006383Y014164D02*
X009498Y014164D01*
X009467Y014262D02*
X007673Y014262D01*
X007751Y014361D02*
X009467Y014361D01*
X009507Y014459D02*
X007783Y014459D01*
X007783Y014558D02*
X009596Y014558D01*
X009574Y014065D02*
X006353Y014065D01*
X006278Y013967D02*
X012112Y013967D01*
X012011Y013868D02*
X004282Y013868D01*
X004242Y013770D02*
X011970Y013770D01*
X011967Y013671D02*
X004150Y013671D01*
X004084Y013376D02*
X012434Y013376D01*
X012316Y013277D02*
X004202Y013277D01*
X004263Y013179D02*
X012274Y013179D01*
X012267Y013080D02*
X004302Y013080D01*
X005015Y011997D02*
X006511Y011997D01*
X006614Y011898D02*
X005163Y011898D01*
X005218Y011800D02*
X009239Y011800D01*
X009183Y011898D02*
X006936Y011898D01*
X007039Y011997D02*
X009167Y011997D01*
X009181Y012095D02*
X007080Y012095D01*
X007083Y012194D02*
X009232Y012194D01*
X009374Y012292D02*
X007056Y012292D01*
X006986Y012391D02*
X010787Y012391D01*
X010767Y012489D02*
X007500Y012489D01*
X007562Y012588D02*
X010777Y012588D01*
X010825Y012686D02*
X007583Y012686D01*
X007574Y012785D02*
X010956Y012785D01*
X010847Y012292D02*
X009576Y012292D01*
X009711Y011800D02*
X010792Y011800D01*
X010814Y011808D02*
X010700Y011761D01*
X010614Y011675D01*
X010567Y011561D01*
X010567Y011439D01*
X010614Y011325D01*
X010700Y011239D01*
X010814Y011192D01*
X010936Y011192D01*
X011050Y011239D01*
X011136Y011325D01*
X011183Y011439D01*
X011183Y011561D01*
X011136Y011675D01*
X011050Y011761D01*
X010936Y011808D01*
X010814Y011808D01*
X010958Y011800D02*
X013038Y011800D01*
X012983Y011701D02*
X011110Y011701D01*
X011166Y011603D02*
X012967Y011603D01*
X012981Y011504D02*
X011183Y011504D01*
X011170Y011406D02*
X013033Y011406D01*
X013176Y011307D02*
X011118Y011307D01*
X010977Y011209D02*
X013547Y011209D01*
X013514Y011175D02*
X013600Y011261D01*
X013714Y011308D01*
X013836Y011308D01*
X013950Y011261D01*
X014036Y011175D01*
X014083Y011061D01*
X014083Y010939D01*
X014062Y010887D01*
X014114Y010908D01*
X014236Y010908D01*
X014350Y010861D01*
X014436Y010775D01*
X014483Y010661D01*
X014483Y010539D01*
X014436Y010425D01*
X014350Y010339D01*
X014236Y010292D01*
X014114Y010292D01*
X014000Y010339D01*
X013914Y010425D01*
X013867Y010539D01*
X013867Y010661D01*
X013888Y010713D01*
X013836Y010692D01*
X013714Y010692D01*
X013600Y010739D01*
X013514Y010825D01*
X013467Y010939D01*
X013467Y011061D01*
X013514Y011175D01*
X013487Y011110D02*
X009472Y011110D01*
X009483Y011139D02*
X009436Y011025D01*
X009350Y010939D01*
X009236Y010892D01*
X009114Y010892D01*
X009000Y010939D01*
X008914Y011025D01*
X008867Y011139D01*
X008867Y011261D01*
X008914Y011375D01*
X009000Y011461D01*
X009114Y011508D01*
X009236Y011508D01*
X009350Y011461D01*
X009436Y011375D01*
X009483Y011261D01*
X009483Y011139D01*
X009483Y011209D02*
X010773Y011209D01*
X010632Y011307D02*
X009465Y011307D01*
X009406Y011406D02*
X010580Y011406D01*
X010567Y011504D02*
X009247Y011504D01*
X009103Y011504D02*
X005165Y011504D01*
X005218Y011603D02*
X010584Y011603D01*
X010640Y011701D02*
X009559Y011701D01*
X009391Y011701D02*
X005233Y011701D01*
X005020Y011406D02*
X008944Y011406D01*
X008885Y011307D02*
X004172Y011307D01*
X004251Y011209D02*
X008867Y011209D01*
X008878Y011110D02*
X004291Y011110D01*
X004302Y011012D02*
X008927Y011012D01*
X009062Y010913D02*
X004301Y010913D01*
X004260Y010815D02*
X007253Y010815D01*
X007214Y010775D02*
X007167Y010661D01*
X007167Y010539D01*
X007214Y010425D01*
X007300Y010339D01*
X007414Y010292D01*
X007536Y010292D01*
X007650Y010339D01*
X007736Y010425D01*
X007783Y010539D01*
X007783Y010661D01*
X007736Y010775D01*
X007650Y010861D01*
X007536Y010908D01*
X007414Y010908D01*
X007300Y010861D01*
X007214Y010775D01*
X007189Y010716D02*
X004789Y010716D01*
X004800Y010711D02*
X004686Y010758D01*
X004564Y010758D01*
X004450Y010711D01*
X004364Y010625D01*
X004317Y010511D01*
X004317Y010389D01*
X004364Y010275D01*
X004450Y010189D01*
X004564Y010142D01*
X004686Y010142D01*
X004800Y010189D01*
X004886Y010275D01*
X004933Y010389D01*
X004933Y010511D01*
X004886Y010625D01*
X004800Y010711D01*
X004889Y010618D02*
X007167Y010618D01*
X007175Y010519D02*
X004930Y010519D01*
X004933Y010421D02*
X007218Y010421D01*
X007340Y010322D02*
X004906Y010322D01*
X004835Y010224D02*
X018337Y010224D01*
X018300Y010239D02*
X018414Y010192D01*
X018536Y010192D01*
X018650Y010239D01*
X018736Y010325D01*
X018783Y010439D01*
X018783Y010561D01*
X018736Y010675D01*
X018650Y010761D01*
X018536Y010808D01*
X018414Y010808D01*
X018300Y010761D01*
X018214Y010675D01*
X018167Y010561D01*
X018167Y010439D01*
X018214Y010325D01*
X018300Y010239D01*
X018217Y010322D02*
X014310Y010322D01*
X014432Y010421D02*
X018174Y010421D01*
X018167Y010519D02*
X014475Y010519D01*
X014483Y010618D02*
X018190Y010618D01*
X018255Y010716D02*
X014461Y010716D01*
X014397Y010815D02*
X017358Y010815D01*
X017414Y010792D02*
X017300Y010839D01*
X017214Y010925D01*
X017167Y011039D01*
X017167Y011161D01*
X017214Y011275D01*
X017300Y011361D01*
X017414Y011408D01*
X017536Y011408D01*
X017650Y011361D01*
X017736Y011275D01*
X017783Y011161D01*
X017783Y011039D01*
X017736Y010925D01*
X017650Y010839D01*
X017536Y010792D01*
X017414Y010792D01*
X017592Y010815D02*
X019490Y010815D01*
X019513Y010758D02*
X019633Y010638D01*
X019790Y010573D01*
X019960Y010573D01*
X020117Y010638D01*
X020237Y010758D01*
X020302Y010915D01*
X020302Y011085D01*
X020237Y011242D01*
X020117Y011362D01*
X019960Y011427D01*
X019790Y011427D01*
X019633Y011362D01*
X019513Y011242D01*
X019448Y011085D01*
X019448Y010915D01*
X019513Y010758D01*
X019555Y010716D02*
X018695Y010716D01*
X018760Y010618D02*
X019683Y010618D01*
X019775Y010421D02*
X018776Y010421D01*
X018783Y010519D02*
X021375Y010519D01*
X021375Y010421D02*
X020975Y010421D01*
X020960Y010427D02*
X020790Y010427D01*
X020633Y010362D01*
X020513Y010242D01*
X020448Y010085D01*
X020448Y009915D01*
X020513Y009758D01*
X020633Y009638D01*
X020790Y009573D01*
X020960Y009573D01*
X021117Y009638D01*
X021237Y009758D01*
X021302Y009915D01*
X021302Y010085D01*
X021237Y010242D01*
X021117Y010362D01*
X020960Y010427D01*
X020960Y010573D02*
X021117Y010638D01*
X021237Y010758D01*
X021302Y010915D01*
X021302Y011085D01*
X021237Y011242D01*
X021117Y011362D01*
X020960Y011427D01*
X020790Y011427D01*
X020633Y011362D01*
X020513Y011242D01*
X020448Y011085D01*
X020448Y010915D01*
X020513Y010758D01*
X020633Y010638D01*
X020790Y010573D01*
X020960Y010573D01*
X021067Y010618D02*
X021375Y010618D01*
X021375Y010716D02*
X021195Y010716D01*
X021260Y010815D02*
X021375Y010815D01*
X021375Y010913D02*
X021301Y010913D01*
X021302Y011012D02*
X021375Y011012D01*
X021375Y011110D02*
X021291Y011110D01*
X021251Y011209D02*
X021375Y011209D01*
X021375Y011307D02*
X021172Y011307D01*
X021011Y011406D02*
X021375Y011406D01*
X021375Y011504D02*
X013569Y011504D01*
X013583Y011603D02*
X019719Y011603D01*
X019570Y011701D02*
X013567Y011701D01*
X013512Y011800D02*
X019496Y011800D01*
X019739Y011406D02*
X017543Y011406D01*
X017407Y011406D02*
X013517Y011406D01*
X013374Y011307D02*
X013710Y011307D01*
X013840Y011307D02*
X017246Y011307D01*
X017186Y011209D02*
X014003Y011209D01*
X014063Y011110D02*
X017167Y011110D01*
X017178Y011012D02*
X014083Y011012D01*
X014073Y010913D02*
X017226Y010913D01*
X017724Y010913D02*
X019449Y010913D01*
X019448Y011012D02*
X017772Y011012D01*
X017783Y011110D02*
X019459Y011110D01*
X019499Y011209D02*
X017764Y011209D01*
X017704Y011307D02*
X019578Y011307D01*
X020011Y011406D02*
X020739Y011406D01*
X020578Y011307D02*
X020172Y011307D01*
X020251Y011209D02*
X020499Y011209D01*
X020459Y011110D02*
X020291Y011110D01*
X020302Y011012D02*
X020448Y011012D01*
X020449Y010913D02*
X020301Y010913D01*
X020260Y010815D02*
X020490Y010815D01*
X020555Y010716D02*
X020195Y010716D01*
X020067Y010618D02*
X020683Y010618D01*
X020775Y010421D02*
X019975Y010421D01*
X019960Y010427D02*
X019790Y010427D01*
X019633Y010362D01*
X019513Y010242D01*
X019448Y010085D01*
X019448Y009915D01*
X019513Y009758D01*
X019633Y009638D01*
X019790Y009573D01*
X019960Y009573D01*
X020117Y009638D01*
X020237Y009758D01*
X020302Y009915D01*
X020302Y010085D01*
X020237Y010242D01*
X020117Y010362D01*
X019960Y010427D01*
X020157Y010322D02*
X020593Y010322D01*
X020506Y010224D02*
X020244Y010224D01*
X020285Y010125D02*
X020465Y010125D01*
X020448Y010027D02*
X020302Y010027D01*
X020302Y009928D02*
X020448Y009928D01*
X020484Y009830D02*
X020266Y009830D01*
X020210Y009731D02*
X020540Y009731D01*
X020647Y009633D02*
X020103Y009633D01*
X019960Y009427D02*
X020117Y009362D01*
X020237Y009242D01*
X020302Y009085D01*
X020302Y008915D01*
X020237Y008758D01*
X020117Y008638D01*
X019960Y008573D01*
X019790Y008573D01*
X019633Y008638D01*
X019513Y008758D01*
X019448Y008915D01*
X019448Y009085D01*
X019513Y009242D01*
X019633Y009362D01*
X019790Y009427D01*
X019960Y009427D01*
X020142Y009337D02*
X020608Y009337D01*
X020633Y009362D02*
X020513Y009242D01*
X020448Y009085D01*
X020448Y008915D01*
X020513Y008758D01*
X020633Y008638D01*
X020790Y008573D01*
X020960Y008573D01*
X021117Y008638D01*
X021237Y008758D01*
X021302Y008915D01*
X021302Y009085D01*
X021237Y009242D01*
X021117Y009362D01*
X020960Y009427D01*
X020790Y009427D01*
X020633Y009362D01*
X020512Y009239D02*
X020238Y009239D01*
X020279Y009140D02*
X020471Y009140D01*
X020448Y009042D02*
X020302Y009042D01*
X020302Y008943D02*
X020448Y008943D01*
X020477Y008845D02*
X020273Y008845D01*
X020225Y008746D02*
X020525Y008746D01*
X020624Y008648D02*
X020126Y008648D01*
X019960Y008427D02*
X020117Y008362D01*
X020237Y008242D01*
X020302Y008085D01*
X020302Y007915D01*
X020237Y007758D01*
X020117Y007638D01*
X019960Y007573D01*
X019790Y007573D01*
X019633Y007638D01*
X019513Y007758D01*
X019448Y007915D01*
X019448Y008085D01*
X019513Y008242D01*
X019633Y008362D01*
X019790Y008427D01*
X019960Y008427D01*
X020127Y008352D02*
X020623Y008352D01*
X020633Y008362D02*
X020513Y008242D01*
X020448Y008085D01*
X020448Y007915D01*
X020513Y007758D01*
X020633Y007638D01*
X020790Y007573D01*
X020960Y007573D01*
X021117Y007638D01*
X021237Y007758D01*
X021302Y007915D01*
X021302Y008085D01*
X021237Y008242D01*
X021117Y008362D01*
X020960Y008427D01*
X020790Y008427D01*
X020633Y008362D01*
X020525Y008254D02*
X020225Y008254D01*
X020273Y008155D02*
X020477Y008155D01*
X020448Y008057D02*
X020302Y008057D01*
X020302Y007958D02*
X020448Y007958D01*
X020471Y007860D02*
X020279Y007860D01*
X020238Y007761D02*
X020512Y007761D01*
X020609Y007663D02*
X020141Y007663D01*
X020047Y007414D02*
X019980Y007436D01*
X019923Y007445D01*
X019923Y007048D01*
X019827Y007048D01*
X019827Y006952D01*
X019430Y006952D01*
X019439Y006895D01*
X019461Y006828D01*
X019493Y006766D01*
X019534Y006709D01*
X019584Y006659D01*
X019641Y006618D01*
X019703Y006586D01*
X019770Y006564D01*
X019827Y006555D01*
X019827Y006952D01*
X019923Y006952D01*
X019923Y007048D01*
X020320Y007048D01*
X020311Y007105D01*
X020289Y007172D01*
X020257Y007234D01*
X020216Y007291D01*
X020166Y007341D01*
X020109Y007382D01*
X020047Y007414D01*
X020130Y007367D02*
X020620Y007367D01*
X020641Y007382D02*
X020584Y007341D01*
X020534Y007291D01*
X020493Y007234D01*
X020461Y007172D01*
X020439Y007105D01*
X020430Y007048D01*
X020827Y007048D01*
X020827Y006952D01*
X020430Y006952D01*
X020439Y006895D01*
X020461Y006828D01*
X020493Y006766D01*
X020534Y006709D01*
X020584Y006659D01*
X020641Y006618D01*
X020703Y006586D01*
X020770Y006564D01*
X020827Y006555D01*
X020827Y006952D01*
X020923Y006952D01*
X020923Y007048D01*
X020827Y007048D01*
X020827Y007445D01*
X020770Y007436D01*
X020703Y007414D01*
X020641Y007382D01*
X020518Y007269D02*
X020232Y007269D01*
X020290Y007170D02*
X020460Y007170D01*
X020434Y007072D02*
X020316Y007072D01*
X020320Y006952D02*
X019923Y006952D01*
X019923Y006555D01*
X019980Y006564D01*
X020047Y006586D01*
X020109Y006618D01*
X020166Y006659D01*
X020216Y006709D01*
X020257Y006766D01*
X020289Y006828D01*
X020311Y006895D01*
X020320Y006952D01*
X020304Y006875D02*
X020446Y006875D01*
X020488Y006776D02*
X020262Y006776D01*
X020184Y006678D02*
X020566Y006678D01*
X020725Y006579D02*
X020025Y006579D01*
X019923Y006579D02*
X019827Y006579D01*
X019827Y006678D02*
X019923Y006678D01*
X019923Y006776D02*
X019827Y006776D01*
X019827Y006875D02*
X019923Y006875D01*
X019923Y006973D02*
X020827Y006973D01*
X020923Y006973D02*
X021375Y006973D01*
X021320Y006952D02*
X020923Y006952D01*
X020923Y006555D01*
X020980Y006564D01*
X021047Y006586D01*
X021109Y006618D01*
X021166Y006659D01*
X021216Y006709D01*
X021257Y006766D01*
X021289Y006828D01*
X021311Y006895D01*
X021320Y006952D01*
X021304Y006875D02*
X021375Y006875D01*
X021375Y006776D02*
X021262Y006776D01*
X021184Y006678D02*
X021375Y006678D01*
X021375Y006579D02*
X021025Y006579D01*
X020923Y006579D02*
X020827Y006579D01*
X020827Y006678D02*
X020923Y006678D01*
X020923Y006776D02*
X020827Y006776D01*
X020827Y006875D02*
X020923Y006875D01*
X020923Y007048D02*
X021320Y007048D01*
X021311Y007105D01*
X021289Y007172D01*
X021257Y007234D01*
X021216Y007291D01*
X021166Y007341D01*
X021109Y007382D01*
X021047Y007414D01*
X020980Y007436D01*
X020923Y007445D01*
X020923Y007048D01*
X020923Y007072D02*
X020827Y007072D01*
X020827Y007170D02*
X020923Y007170D01*
X020923Y007269D02*
X020827Y007269D01*
X020827Y007367D02*
X020923Y007367D01*
X021130Y007367D02*
X021375Y007367D01*
X021375Y007269D02*
X021232Y007269D01*
X021290Y007170D02*
X021375Y007170D01*
X021375Y007072D02*
X021316Y007072D01*
X021375Y007466D02*
X018504Y007466D01*
X018433Y007536D02*
X018611Y007358D01*
X018707Y007126D01*
X018707Y006874D01*
X018611Y006642D01*
X018433Y006464D01*
X018201Y006368D01*
X017949Y006368D01*
X017717Y006464D01*
X017539Y006642D01*
X017443Y006874D01*
X017443Y007126D01*
X017539Y007358D01*
X017717Y007536D01*
X017949Y007632D01*
X018201Y007632D01*
X018433Y007536D01*
X018366Y007564D02*
X021375Y007564D01*
X021375Y007663D02*
X021141Y007663D01*
X021238Y007761D02*
X021375Y007761D01*
X021375Y007860D02*
X021279Y007860D01*
X021302Y007958D02*
X021375Y007958D01*
X021375Y008057D02*
X021302Y008057D01*
X021273Y008155D02*
X021375Y008155D01*
X021375Y008254D02*
X021225Y008254D01*
X021127Y008352D02*
X021375Y008352D01*
X021375Y008451D02*
X017647Y008451D01*
X017636Y008425D02*
X017683Y008539D01*
X017683Y008661D01*
X017636Y008775D01*
X017550Y008861D01*
X017436Y008908D01*
X017314Y008908D01*
X017200Y008861D01*
X017114Y008775D01*
X017067Y008661D01*
X017067Y008539D01*
X017114Y008425D01*
X017200Y008339D01*
X017314Y008292D01*
X017436Y008292D01*
X017550Y008339D01*
X017636Y008425D01*
X017563Y008352D02*
X019623Y008352D01*
X019525Y008254D02*
X010165Y008254D01*
X010150Y008239D02*
X010236Y008325D01*
X010283Y008439D01*
X010283Y008561D01*
X010236Y008675D01*
X010150Y008761D01*
X010036Y008808D01*
X009914Y008808D01*
X009800Y008761D01*
X009714Y008675D01*
X009667Y008561D01*
X009667Y008439D01*
X009714Y008325D01*
X009800Y008239D01*
X009914Y008192D01*
X010036Y008192D01*
X010150Y008239D01*
X010248Y008352D02*
X017187Y008352D01*
X017103Y008451D02*
X010283Y008451D01*
X010283Y008549D02*
X015490Y008549D01*
X015500Y008539D02*
X015614Y008492D01*
X015736Y008492D01*
X015850Y008539D01*
X015936Y008625D01*
X015983Y008739D01*
X015983Y008861D01*
X015936Y008975D01*
X015850Y009061D01*
X015736Y009108D01*
X015614Y009108D01*
X015500Y009061D01*
X015414Y008975D01*
X015367Y008861D01*
X015367Y008739D01*
X015414Y008625D01*
X015500Y008539D01*
X015404Y008648D02*
X010248Y008648D01*
X010165Y008746D02*
X012293Y008746D01*
X012300Y008739D02*
X012414Y008692D01*
X012536Y008692D01*
X012650Y008739D01*
X012736Y008825D01*
X012783Y008939D01*
X012783Y009061D01*
X012736Y009175D01*
X012650Y009261D01*
X012536Y009308D01*
X012414Y009308D01*
X012300Y009261D01*
X012214Y009175D01*
X012167Y009061D01*
X012167Y008939D01*
X012214Y008825D01*
X012300Y008739D01*
X012206Y008845D02*
X009067Y008845D01*
X009050Y008861D02*
X008936Y008908D01*
X008814Y008908D01*
X008700Y008861D01*
X008614Y008775D01*
X008567Y008661D01*
X008567Y008539D01*
X008614Y008425D01*
X008700Y008339D01*
X008814Y008292D01*
X008936Y008292D01*
X008967Y008304D01*
X008967Y008289D01*
X009014Y008175D01*
X009100Y008089D01*
X009214Y008042D01*
X009336Y008042D01*
X009450Y008089D01*
X009536Y008175D01*
X009583Y008289D01*
X009583Y008411D01*
X009536Y008525D01*
X009450Y008611D01*
X009336Y008658D01*
X009214Y008658D01*
X009183Y008646D01*
X009183Y008661D01*
X009136Y008775D01*
X009050Y008861D01*
X009148Y008746D02*
X009785Y008746D01*
X009702Y008648D02*
X009363Y008648D01*
X009187Y008648D02*
X009183Y008648D01*
X009512Y008549D02*
X009667Y008549D01*
X009667Y008451D02*
X009567Y008451D01*
X009583Y008352D02*
X009702Y008352D01*
X009785Y008254D02*
X009569Y008254D01*
X009516Y008155D02*
X019477Y008155D01*
X019448Y008057D02*
X009372Y008057D01*
X009178Y008057D02*
X008583Y008057D01*
X008583Y007958D02*
X019448Y007958D01*
X019471Y007860D02*
X008551Y007860D01*
X008472Y007761D02*
X019512Y007761D01*
X019609Y007663D02*
X014928Y007663D01*
X015811Y007564D02*
X017784Y007564D01*
X017646Y007466D02*
X015909Y007466D01*
X016008Y007367D02*
X017548Y007367D01*
X017502Y007269D02*
X016106Y007269D01*
X016205Y007170D02*
X017461Y007170D01*
X017443Y007072D02*
X016303Y007072D01*
X016402Y006973D02*
X017443Y006973D01*
X017443Y006875D02*
X016500Y006875D01*
X016599Y006776D02*
X017483Y006776D01*
X017524Y006678D02*
X016697Y006678D01*
X016796Y006579D02*
X017602Y006579D01*
X017700Y006481D02*
X016894Y006481D01*
X016993Y006382D02*
X017914Y006382D01*
X018236Y006382D02*
X021375Y006382D01*
X021375Y006284D02*
X017091Y006284D01*
X017190Y006185D02*
X021375Y006185D01*
X021375Y006087D02*
X017288Y006087D01*
X017387Y005988D02*
X021375Y005988D01*
X021375Y005890D02*
X017485Y005890D01*
X018450Y006481D02*
X021375Y006481D01*
X019923Y007072D02*
X019827Y007072D01*
X019827Y007048D02*
X019827Y007445D01*
X019770Y007436D01*
X019703Y007414D01*
X019641Y007382D01*
X019584Y007341D01*
X019534Y007291D01*
X019493Y007234D01*
X019461Y007172D01*
X019439Y007105D01*
X019430Y007048D01*
X019827Y007048D01*
X019827Y006973D02*
X018707Y006973D01*
X018707Y006875D02*
X019446Y006875D01*
X019488Y006776D02*
X018667Y006776D01*
X018626Y006678D02*
X019566Y006678D01*
X019725Y006579D02*
X018548Y006579D01*
X018707Y007072D02*
X019434Y007072D01*
X019460Y007170D02*
X018689Y007170D01*
X018648Y007269D02*
X019518Y007269D01*
X019620Y007367D02*
X018602Y007367D01*
X017683Y008549D02*
X021375Y008549D01*
X021375Y008648D02*
X021126Y008648D01*
X021225Y008746D02*
X021375Y008746D01*
X021375Y008845D02*
X021273Y008845D01*
X021302Y008943D02*
X021375Y008943D01*
X021375Y009042D02*
X021302Y009042D01*
X021279Y009140D02*
X021375Y009140D01*
X021375Y009239D02*
X021238Y009239D01*
X021142Y009337D02*
X021375Y009337D01*
X021375Y009436D02*
X018683Y009436D01*
X018683Y009461D02*
X018662Y009513D01*
X018714Y009492D01*
X018836Y009492D01*
X018950Y009539D01*
X019036Y009625D01*
X019083Y009739D01*
X019083Y009861D01*
X019036Y009975D01*
X018950Y010061D01*
X018836Y010108D01*
X018714Y010108D01*
X018600Y010061D01*
X018514Y009975D01*
X018467Y009861D01*
X018467Y009739D01*
X018488Y009687D01*
X018436Y009708D01*
X018314Y009708D01*
X018200Y009661D01*
X018114Y009575D01*
X018067Y009461D01*
X018067Y009339D01*
X018114Y009225D01*
X018200Y009139D01*
X018314Y009092D01*
X018436Y009092D01*
X018550Y009139D01*
X018636Y009225D01*
X018683Y009339D01*
X018683Y009461D01*
X018683Y009337D02*
X019608Y009337D01*
X019512Y009239D02*
X018642Y009239D01*
X018551Y009140D02*
X019471Y009140D01*
X019448Y009042D02*
X015870Y009042D01*
X015950Y008943D02*
X019448Y008943D01*
X019477Y008845D02*
X017567Y008845D01*
X017648Y008746D02*
X019525Y008746D01*
X019624Y008648D02*
X017683Y008648D01*
X017183Y008845D02*
X015983Y008845D01*
X015983Y008746D02*
X017102Y008746D01*
X017067Y008648D02*
X015946Y008648D01*
X015860Y008549D02*
X017067Y008549D01*
X018108Y009239D02*
X012673Y009239D01*
X012751Y009140D02*
X018199Y009140D01*
X018067Y009337D02*
X007938Y009337D01*
X007886Y009358D02*
X007764Y009358D01*
X007650Y009311D01*
X007564Y009225D01*
X007517Y009111D01*
X007517Y008989D01*
X007564Y008875D01*
X007650Y008789D01*
X007764Y008742D01*
X007886Y008742D01*
X008000Y008789D01*
X008086Y008875D01*
X008133Y008989D01*
X008133Y009111D01*
X008086Y009225D01*
X008000Y009311D01*
X007886Y009358D01*
X007712Y009337D02*
X004142Y009337D01*
X004238Y009239D02*
X007577Y009239D01*
X007528Y009140D02*
X004279Y009140D01*
X004302Y009042D02*
X007517Y009042D01*
X007535Y008943D02*
X004302Y008943D01*
X004273Y008845D02*
X007594Y008845D01*
X007753Y008746D02*
X005065Y008746D01*
X005148Y008648D02*
X008567Y008648D01*
X008567Y008549D02*
X005183Y008549D01*
X005183Y008451D02*
X008603Y008451D01*
X008687Y008352D02*
X005148Y008352D01*
X005065Y008254D02*
X008092Y008254D01*
X008005Y008155D02*
X004845Y008155D01*
X004883Y008057D02*
X007967Y008057D01*
X007967Y007958D02*
X004883Y007958D01*
X004851Y007860D02*
X007999Y007860D01*
X008078Y007761D02*
X004772Y007761D01*
X004378Y007761D02*
X004238Y007761D01*
X004279Y007860D02*
X004299Y007860D01*
X004141Y007663D02*
X006822Y007663D01*
X006552Y007601D02*
X006552Y007601D01*
X006139Y007564D02*
X000375Y007564D01*
X000375Y007466D02*
X006041Y007466D01*
X005548Y006973D02*
X003923Y006973D01*
X003875Y007000D02*
X001875Y007000D01*
X000875Y007000D01*
X000923Y006973D02*
X001827Y006973D01*
X001827Y007048D02*
X001430Y007048D01*
X001439Y007105D01*
X001461Y007172D01*
X001493Y007234D01*
X001534Y007291D01*
X001584Y007341D01*
X001641Y007382D01*
X001703Y007414D01*
X001770Y007436D01*
X001827Y007445D01*
X001827Y007048D01*
X001827Y007072D02*
X001923Y007072D01*
X001923Y007048D02*
X001923Y007445D01*
X001980Y007436D01*
X002047Y007414D01*
X002109Y007382D01*
X002166Y007341D01*
X002216Y007291D01*
X002257Y007234D01*
X002289Y007172D01*
X002311Y007105D01*
X002320Y007048D01*
X001923Y007048D01*
X001923Y006973D02*
X003827Y006973D01*
X003827Y006875D02*
X003923Y006875D01*
X003923Y006776D02*
X003827Y006776D01*
X003827Y006678D02*
X003923Y006678D01*
X003923Y007072D02*
X003827Y007072D01*
X003827Y007170D02*
X003923Y007170D01*
X003923Y007269D02*
X003827Y007269D01*
X003620Y007367D02*
X002130Y007367D01*
X002232Y007269D02*
X003518Y007269D01*
X003460Y007170D02*
X002290Y007170D01*
X002316Y007072D02*
X003434Y007072D01*
X003446Y006875D02*
X002304Y006875D01*
X002262Y006776D02*
X003488Y006776D01*
X003566Y006678D02*
X002184Y006678D01*
X001923Y006678D02*
X001827Y006678D01*
X001827Y006776D02*
X001923Y006776D01*
X001923Y006875D02*
X001827Y006875D01*
X001827Y007170D02*
X001923Y007170D01*
X001923Y007269D02*
X001827Y007269D01*
X001827Y007367D02*
X001923Y007367D01*
X001620Y007367D02*
X001130Y007367D01*
X001109Y007382D02*
X001047Y007414D01*
X000980Y007436D01*
X000923Y007445D01*
X000923Y007048D01*
X001320Y007048D01*
X001311Y007105D01*
X001289Y007172D01*
X001257Y007234D01*
X001216Y007291D01*
X001166Y007341D01*
X001109Y007382D01*
X001232Y007269D02*
X001518Y007269D01*
X001460Y007170D02*
X001290Y007170D01*
X001316Y007072D02*
X001434Y007072D01*
X001446Y006875D02*
X001304Y006875D01*
X001262Y006776D02*
X001488Y006776D01*
X001566Y006678D02*
X001184Y006678D01*
X000923Y006678D02*
X000827Y006678D01*
X000827Y006776D02*
X000923Y006776D01*
X000923Y006875D02*
X000827Y006875D01*
X000827Y006973D02*
X000375Y006973D01*
X000430Y007048D02*
X000827Y007048D01*
X000827Y007445D01*
X000770Y007436D01*
X000703Y007414D01*
X000641Y007382D01*
X000584Y007341D01*
X000534Y007291D01*
X000493Y007234D01*
X000461Y007172D01*
X000439Y007105D01*
X000430Y007048D01*
X000434Y007072D02*
X000375Y007072D01*
X000375Y007170D02*
X000460Y007170D01*
X000518Y007269D02*
X000375Y007269D01*
X000375Y007367D02*
X000620Y007367D01*
X000827Y007367D02*
X000923Y007367D01*
X000923Y007269D02*
X000827Y007269D01*
X000827Y007170D02*
X000923Y007170D01*
X000923Y007072D02*
X000827Y007072D01*
X000446Y006875D02*
X000375Y006875D01*
X000375Y006776D02*
X000488Y006776D01*
X000566Y006678D02*
X000375Y006678D01*
X000375Y007663D02*
X000609Y007663D01*
X000633Y007638D02*
X000790Y007573D01*
X000960Y007573D01*
X001117Y007638D01*
X001237Y007758D01*
X001302Y007915D01*
X001302Y008085D01*
X001237Y008242D01*
X001117Y008362D01*
X000960Y008427D01*
X000790Y008427D01*
X000633Y008362D01*
X000513Y008242D01*
X000448Y008085D01*
X000448Y007915D01*
X000513Y007758D01*
X000633Y007638D01*
X000512Y007761D02*
X000375Y007761D01*
X000375Y007860D02*
X000471Y007860D01*
X000448Y007958D02*
X000375Y007958D01*
X000375Y008057D02*
X000448Y008057D01*
X000477Y008155D02*
X000375Y008155D01*
X000375Y008254D02*
X000525Y008254D01*
X000623Y008352D02*
X000375Y008352D01*
X000375Y008451D02*
X004567Y008451D01*
X004567Y008549D02*
X000375Y008549D01*
X000375Y008648D02*
X000624Y008648D01*
X000633Y008638D02*
X000790Y008573D01*
X000960Y008573D01*
X001117Y008638D01*
X001237Y008758D01*
X001302Y008915D01*
X001302Y009085D01*
X001237Y009242D01*
X001117Y009362D01*
X000960Y009427D01*
X000790Y009427D01*
X000633Y009362D01*
X000513Y009242D01*
X000448Y009085D01*
X000448Y008915D01*
X000513Y008758D01*
X000633Y008638D01*
X000525Y008746D02*
X000375Y008746D01*
X000375Y008845D02*
X000477Y008845D01*
X000448Y008943D02*
X000375Y008943D01*
X000375Y009042D02*
X000448Y009042D01*
X000471Y009140D02*
X000375Y009140D01*
X000375Y009239D02*
X000512Y009239D01*
X000608Y009337D02*
X000375Y009337D01*
X000375Y009436D02*
X018067Y009436D01*
X018097Y009534D02*
X000375Y009534D01*
X000375Y009633D02*
X000647Y009633D01*
X000633Y009638D02*
X000790Y009573D01*
X000960Y009573D01*
X001117Y009638D01*
X001237Y009758D01*
X001302Y009915D01*
X001302Y010085D01*
X001237Y010242D01*
X001117Y010362D01*
X000960Y010427D01*
X000790Y010427D01*
X000633Y010362D01*
X000513Y010242D01*
X000448Y010085D01*
X000448Y009915D01*
X000513Y009758D01*
X000633Y009638D01*
X000540Y009731D02*
X000375Y009731D01*
X000375Y009830D02*
X000484Y009830D01*
X000448Y009928D02*
X000375Y009928D01*
X000375Y010027D02*
X000448Y010027D01*
X000465Y010125D02*
X000375Y010125D01*
X000375Y010224D02*
X000506Y010224D01*
X000593Y010322D02*
X000375Y010322D01*
X000375Y010421D02*
X000775Y010421D01*
X000975Y010421D02*
X001775Y010421D01*
X001593Y010322D02*
X001157Y010322D01*
X001244Y010224D02*
X001506Y010224D01*
X001465Y010125D02*
X001285Y010125D01*
X001302Y010027D02*
X001448Y010027D01*
X001448Y009928D02*
X001302Y009928D01*
X001266Y009830D02*
X001484Y009830D01*
X001540Y009731D02*
X001210Y009731D01*
X001103Y009633D02*
X001647Y009633D01*
X001608Y009337D02*
X001142Y009337D01*
X001238Y009239D02*
X001512Y009239D01*
X001471Y009140D02*
X001279Y009140D01*
X001302Y009042D02*
X001448Y009042D01*
X001448Y008943D02*
X001302Y008943D01*
X001273Y008845D02*
X001477Y008845D01*
X001525Y008746D02*
X001225Y008746D01*
X001126Y008648D02*
X001624Y008648D01*
X001623Y008352D02*
X001127Y008352D01*
X001225Y008254D02*
X001525Y008254D01*
X001477Y008155D02*
X001273Y008155D01*
X001302Y008057D02*
X001448Y008057D01*
X001448Y007958D02*
X001302Y007958D01*
X001279Y007860D02*
X001471Y007860D01*
X001512Y007761D02*
X001238Y007761D01*
X001141Y007663D02*
X001609Y007663D01*
X000375Y010519D02*
X004320Y010519D01*
X004317Y010421D02*
X003975Y010421D01*
X004157Y010322D02*
X004344Y010322D01*
X004415Y010224D02*
X004244Y010224D01*
X004285Y010125D02*
X013064Y010125D01*
X013100Y010161D02*
X013014Y010075D01*
X012967Y009961D01*
X012967Y009839D01*
X013014Y009725D01*
X013100Y009639D01*
X013214Y009592D01*
X013336Y009592D01*
X013450Y009639D01*
X013536Y009725D01*
X013583Y009839D01*
X013583Y009961D01*
X013536Y010075D01*
X013450Y010161D01*
X013336Y010208D01*
X013214Y010208D01*
X013100Y010161D01*
X012994Y010027D02*
X004302Y010027D01*
X004302Y009928D02*
X012967Y009928D01*
X012970Y009830D02*
X004266Y009830D01*
X004210Y009731D02*
X013011Y009731D01*
X013115Y009633D02*
X004103Y009633D01*
X004225Y008746D02*
X004685Y008746D01*
X004602Y008648D02*
X004126Y008648D01*
X004127Y008352D02*
X004602Y008352D01*
X004392Y008254D02*
X004225Y008254D01*
X004273Y008155D02*
X004305Y008155D01*
X004361Y010618D02*
X004067Y010618D01*
X004195Y010716D02*
X004461Y010716D01*
X004830Y011406D02*
X004011Y011406D01*
X001755Y012588D02*
X000995Y012588D01*
X000960Y012573D02*
X001117Y012638D01*
X001237Y012758D01*
X001302Y012915D01*
X001302Y013085D01*
X001237Y013242D01*
X001117Y013362D01*
X000960Y013427D01*
X000790Y013427D01*
X000633Y013362D01*
X000513Y013242D01*
X000448Y013085D01*
X000448Y012915D01*
X000513Y012758D01*
X000633Y012638D01*
X000790Y012573D01*
X000960Y012573D01*
X001048Y012391D02*
X001702Y012391D01*
X001563Y012292D02*
X001187Y012292D01*
X001257Y012194D02*
X001493Y012194D01*
X001452Y012095D02*
X001298Y012095D01*
X001302Y011997D02*
X001448Y011997D01*
X001455Y011898D02*
X001295Y011898D01*
X001254Y011800D02*
X001496Y011800D01*
X001570Y011701D02*
X001180Y011701D01*
X001031Y011603D02*
X001719Y011603D01*
X001739Y011406D02*
X001011Y011406D01*
X001172Y011307D02*
X001578Y011307D01*
X001499Y011209D02*
X001251Y011209D01*
X001291Y011110D02*
X001459Y011110D01*
X001448Y011012D02*
X001302Y011012D01*
X001301Y010913D02*
X001449Y010913D01*
X001490Y010815D02*
X001260Y010815D01*
X001195Y010716D02*
X001555Y010716D01*
X001683Y010618D02*
X001067Y010618D01*
X000683Y010618D02*
X000375Y010618D01*
X000375Y010716D02*
X000555Y010716D01*
X000490Y010815D02*
X000375Y010815D01*
X000375Y010913D02*
X000449Y010913D01*
X000448Y011012D02*
X000375Y011012D01*
X000375Y011110D02*
X000459Y011110D01*
X000499Y011209D02*
X000375Y011209D01*
X000375Y011307D02*
X000578Y011307D01*
X000755Y012588D02*
X000375Y012588D01*
X000375Y012686D02*
X000585Y012686D01*
X000502Y012785D02*
X000375Y012785D01*
X000375Y012883D02*
X000461Y012883D01*
X000448Y012982D02*
X000375Y012982D01*
X000375Y013080D02*
X000448Y013080D01*
X000487Y013179D02*
X000375Y013179D01*
X000375Y013277D02*
X000548Y013277D01*
X000666Y013376D02*
X000375Y013376D01*
X000375Y013474D02*
X012065Y013474D01*
X011994Y013573D02*
X000375Y013573D01*
X000375Y013671D02*
X000600Y013671D01*
X000633Y013638D02*
X000790Y013573D01*
X000960Y013573D01*
X001117Y013638D01*
X001237Y013758D01*
X001302Y013915D01*
X001302Y014085D01*
X001237Y014242D01*
X001117Y014362D01*
X000960Y014427D01*
X000790Y014427D01*
X000633Y014362D01*
X000513Y014242D01*
X000448Y014085D01*
X000448Y013915D01*
X000513Y013758D01*
X000633Y013638D01*
X000508Y013770D02*
X000375Y013770D01*
X000375Y013868D02*
X000468Y013868D01*
X000448Y013967D02*
X000375Y013967D01*
X000375Y014065D02*
X000448Y014065D01*
X000481Y014164D02*
X000375Y014164D01*
X000375Y014262D02*
X000533Y014262D01*
X000632Y014361D02*
X000375Y014361D01*
X000375Y014459D02*
X005307Y014459D01*
X005396Y014558D02*
X000375Y014558D01*
X000375Y014656D02*
X000615Y014656D01*
X000633Y014638D02*
X000790Y014573D01*
X000960Y014573D01*
X001117Y014638D01*
X001237Y014758D01*
X001302Y014915D01*
X001302Y015085D01*
X001237Y015242D01*
X001117Y015362D01*
X000960Y015427D01*
X000790Y015427D01*
X000633Y015362D01*
X000513Y015242D01*
X000448Y015085D01*
X000448Y014915D01*
X000513Y014758D01*
X000633Y014638D01*
X000517Y014755D02*
X000375Y014755D01*
X000375Y014853D02*
X000474Y014853D01*
X000448Y014952D02*
X000375Y014952D01*
X000375Y015050D02*
X000448Y015050D01*
X000475Y015149D02*
X000375Y015149D01*
X000375Y015247D02*
X000518Y015247D01*
X000617Y015346D02*
X000375Y015346D01*
X000375Y015444D02*
X005295Y015444D01*
X005206Y015543D02*
X000375Y015543D01*
X000375Y015641D02*
X000630Y015641D01*
X000633Y015638D02*
X000790Y015573D01*
X000960Y015573D01*
X001117Y015638D01*
X001237Y015758D01*
X001302Y015915D01*
X001302Y016085D01*
X001237Y016242D01*
X001117Y016362D01*
X000960Y016427D01*
X000790Y016427D01*
X000633Y016362D01*
X000513Y016242D01*
X000448Y016085D01*
X000448Y015915D01*
X000513Y015758D01*
X000633Y015638D01*
X000532Y015740D02*
X000375Y015740D01*
X000375Y015838D02*
X000480Y015838D01*
X000448Y015937D02*
X000375Y015937D01*
X000375Y016035D02*
X000448Y016035D01*
X000468Y016134D02*
X000375Y016134D01*
X000375Y016232D02*
X000509Y016232D01*
X000602Y016331D02*
X000375Y016331D01*
X000375Y016429D02*
X011723Y016429D01*
X011678Y016134D02*
X017469Y016134D01*
X017467Y016232D02*
X010654Y016232D01*
X010581Y016331D02*
X017495Y016331D01*
X017568Y016429D02*
X012027Y016429D01*
X012137Y016528D02*
X021375Y016528D01*
X021375Y016626D02*
X021088Y016626D01*
X021203Y016725D02*
X021375Y016725D01*
X021375Y016823D02*
X021264Y016823D01*
X021302Y016922D02*
X021375Y016922D01*
X021375Y017020D02*
X021302Y017020D01*
X021288Y017119D02*
X021375Y017119D01*
X021375Y017217D02*
X021247Y017217D01*
X021163Y017316D02*
X021375Y017316D01*
X021375Y017414D02*
X020991Y017414D01*
X021173Y018695D02*
X021375Y018695D01*
X021375Y018793D02*
X021251Y018793D01*
X021292Y018892D02*
X021375Y018892D01*
X021375Y018990D02*
X021302Y018990D01*
X021300Y019089D02*
X021375Y019089D01*
X021375Y019187D02*
X021260Y019187D01*
X021193Y019286D02*
X021375Y019286D01*
X021375Y019384D02*
X021063Y019384D01*
X021158Y019680D02*
X021375Y019680D01*
X021375Y019778D02*
X021245Y019778D01*
X021286Y019877D02*
X021375Y019877D01*
X021375Y019975D02*
X021302Y019975D01*
X021302Y020074D02*
X021375Y020074D01*
X021375Y020172D02*
X021266Y020172D01*
X021208Y020271D02*
X021375Y020271D01*
X021375Y020369D02*
X021099Y020369D01*
X020960Y020573D02*
X021117Y020638D01*
X021237Y020758D01*
X021302Y020915D01*
X021302Y021085D01*
X021237Y021242D01*
X021117Y021362D01*
X020960Y021427D01*
X020790Y021427D01*
X020633Y021362D01*
X020513Y021242D01*
X020448Y021085D01*
X020448Y020915D01*
X020513Y020758D01*
X020633Y020638D01*
X020790Y020573D01*
X020960Y020573D01*
X021143Y020665D02*
X021375Y020665D01*
X021375Y020763D02*
X021239Y020763D01*
X021280Y020862D02*
X021375Y020862D01*
X021375Y020960D02*
X021302Y020960D01*
X021302Y021059D02*
X021375Y021059D01*
X021375Y021157D02*
X021272Y021157D01*
X021223Y021256D02*
X021375Y021256D01*
X021375Y021354D02*
X021125Y021354D01*
X020960Y021573D02*
X021117Y021638D01*
X021237Y021758D01*
X021302Y021915D01*
X021302Y022085D01*
X021237Y022242D01*
X021117Y022362D01*
X020960Y022427D01*
X020790Y022427D01*
X020633Y022362D01*
X020513Y022242D01*
X020448Y022085D01*
X020448Y021915D01*
X020513Y021758D01*
X020633Y021638D01*
X020790Y021573D01*
X020960Y021573D01*
X021128Y021650D02*
X021375Y021650D01*
X021375Y021748D02*
X021227Y021748D01*
X021273Y021847D02*
X021375Y021847D01*
X021375Y021945D02*
X021302Y021945D01*
X021302Y022044D02*
X021375Y022044D01*
X021375Y022142D02*
X021278Y022142D01*
X021237Y022241D02*
X021375Y022241D01*
X021375Y022339D02*
X021140Y022339D01*
X021375Y022438D02*
X018842Y022438D01*
X018836Y022425D02*
X018883Y022539D01*
X018883Y022661D01*
X018836Y022775D01*
X018750Y022861D01*
X018636Y022908D01*
X018514Y022908D01*
X018400Y022861D01*
X018314Y022775D01*
X018267Y022661D01*
X018267Y022539D01*
X018314Y022425D01*
X018400Y022339D01*
X014383Y022339D01*
X014367Y022241D02*
X019513Y022241D01*
X019472Y022142D02*
X014312Y022142D01*
X014162Y022044D02*
X019448Y022044D01*
X019610Y022339D02*
X018750Y022339D01*
X018836Y022425D01*
X018882Y022536D02*
X021375Y022536D01*
X021375Y022635D02*
X021108Y022635D01*
X021212Y022733D02*
X021375Y022733D01*
X021375Y022832D02*
X021267Y022832D01*
X021302Y022930D02*
X021375Y022930D01*
X021375Y023029D02*
X021302Y023029D01*
X021284Y023127D02*
X021375Y023127D01*
X021375Y023226D02*
X021244Y023226D01*
X021155Y023324D02*
X021375Y023324D01*
X021375Y023620D02*
X021072Y023620D01*
X021197Y023718D02*
X021375Y023718D01*
X021375Y023817D02*
X021261Y023817D01*
X021302Y024014D02*
X021375Y024014D01*
X021375Y024112D02*
X021291Y024112D01*
X021250Y024211D02*
X021375Y024211D01*
X021375Y024309D02*
X021170Y024309D01*
X020743Y024408D02*
X020007Y024408D01*
X020170Y024309D02*
X020580Y024309D01*
X020500Y024211D02*
X020250Y024211D01*
X020291Y024112D02*
X020459Y024112D01*
X020302Y024085D02*
X020302Y023915D01*
X020261Y023817D02*
X020489Y023817D01*
X020553Y023718D02*
X020197Y023718D01*
X020072Y023620D02*
X020678Y023620D01*
X020595Y023324D02*
X020155Y023324D01*
X020244Y023226D02*
X020506Y023226D01*
X020466Y023127D02*
X020284Y023127D01*
X020302Y023029D02*
X020448Y023029D01*
X020448Y022930D02*
X020302Y022930D01*
X020267Y022832D02*
X020483Y022832D01*
X020538Y022733D02*
X020212Y022733D01*
X020108Y022635D02*
X020642Y022635D01*
X020610Y022339D02*
X020140Y022339D01*
X020237Y022241D02*
X020513Y022241D01*
X020472Y022142D02*
X020278Y022142D01*
X020302Y022044D02*
X020448Y022044D01*
X020448Y021945D02*
X020302Y021945D01*
X020273Y021847D02*
X020477Y021847D01*
X020523Y021748D02*
X020227Y021748D01*
X020128Y021650D02*
X020622Y021650D01*
X020625Y021354D02*
X020125Y021354D01*
X020223Y021256D02*
X020527Y021256D01*
X020478Y021157D02*
X020272Y021157D01*
X020302Y021059D02*
X020448Y021059D01*
X020448Y020960D02*
X020302Y020960D01*
X020280Y020862D02*
X020470Y020862D01*
X020511Y020763D02*
X020239Y020763D01*
X020143Y020665D02*
X020607Y020665D01*
X020651Y020369D02*
X020099Y020369D01*
X020208Y020271D02*
X020542Y020271D01*
X020484Y020172D02*
X020266Y020172D01*
X020302Y020074D02*
X020448Y020074D01*
X020448Y019975D02*
X020302Y019975D01*
X020286Y019877D02*
X020464Y019877D01*
X020505Y019778D02*
X020245Y019778D01*
X020158Y019680D02*
X020592Y019680D01*
X019592Y019680D02*
X018782Y019680D01*
X018292Y019975D02*
X017858Y019975D01*
X017947Y020074D02*
X018203Y020074D01*
X018163Y020172D02*
X017987Y020172D01*
X018005Y020271D02*
X018145Y020271D01*
X018145Y020369D02*
X018005Y020369D01*
X017971Y020468D02*
X018179Y020468D01*
X018233Y020566D02*
X017917Y020566D01*
X017819Y020665D02*
X018331Y020665D01*
X017331Y020665D02*
X016819Y020665D01*
X016917Y020566D02*
X017233Y020566D01*
X017179Y020468D02*
X016971Y020468D01*
X017005Y020369D02*
X017145Y020369D01*
X017145Y020271D02*
X017005Y020271D01*
X016987Y020172D02*
X017163Y020172D01*
X017203Y020074D02*
X016947Y020074D01*
X016858Y019975D02*
X017292Y019975D01*
X017368Y019680D02*
X016782Y019680D01*
X016902Y019581D02*
X017248Y019581D01*
X017185Y019483D02*
X016965Y019483D01*
X017005Y019384D02*
X017145Y019384D01*
X017145Y019286D02*
X017005Y019286D01*
X016994Y019187D02*
X017156Y019187D01*
X017197Y019089D02*
X016953Y019089D01*
X016873Y018990D02*
X017277Y018990D01*
X016368Y019680D02*
X015782Y019680D01*
X015902Y019581D02*
X016248Y019581D01*
X016185Y019483D02*
X015965Y019483D01*
X016005Y019384D02*
X016145Y019384D01*
X016145Y019286D02*
X016005Y019286D01*
X015994Y019187D02*
X016156Y019187D01*
X016197Y019089D02*
X015953Y019089D01*
X015873Y018990D02*
X016277Y018990D01*
X016292Y019975D02*
X015858Y019975D01*
X015947Y020074D02*
X016203Y020074D01*
X016163Y020172D02*
X015987Y020172D01*
X016005Y020271D02*
X016145Y020271D01*
X016145Y020369D02*
X016005Y020369D01*
X015971Y020468D02*
X016179Y020468D01*
X016233Y020566D02*
X015917Y020566D01*
X015819Y020665D02*
X016331Y020665D01*
X015331Y020665D02*
X014819Y020665D01*
X014917Y020566D02*
X015233Y020566D01*
X015179Y020468D02*
X014971Y020468D01*
X015005Y020369D02*
X015145Y020369D01*
X015145Y020271D02*
X015005Y020271D01*
X014987Y020172D02*
X015163Y020172D01*
X015203Y020074D02*
X014947Y020074D01*
X014858Y019975D02*
X015292Y019975D01*
X015368Y019680D02*
X014782Y019680D01*
X014902Y019581D02*
X015248Y019581D01*
X015185Y019483D02*
X014965Y019483D01*
X015005Y019384D02*
X015145Y019384D01*
X015145Y019286D02*
X015005Y019286D01*
X014994Y019187D02*
X015156Y019187D01*
X015197Y019089D02*
X014953Y019089D01*
X014873Y018990D02*
X015277Y018990D01*
X014368Y019680D02*
X013782Y019680D01*
X013902Y019581D02*
X014248Y019581D01*
X014185Y019483D02*
X013965Y019483D01*
X014005Y019384D02*
X014145Y019384D01*
X014145Y019286D02*
X014005Y019286D01*
X013994Y019187D02*
X014156Y019187D01*
X014197Y019089D02*
X013953Y019089D01*
X013873Y018990D02*
X014277Y018990D01*
X014141Y018202D02*
X013517Y018202D01*
X013533Y018104D02*
X014055Y018104D01*
X014017Y018005D02*
X013519Y018005D01*
X013468Y017907D02*
X014017Y017907D01*
X014050Y017808D02*
X013326Y017808D01*
X013124Y017808D02*
X002258Y017808D01*
X002298Y017907D02*
X012982Y017907D01*
X012930Y018005D02*
X002302Y018005D01*
X002294Y018104D02*
X012917Y018104D01*
X012933Y018202D02*
X002253Y018202D01*
X002178Y018301D02*
X012989Y018301D01*
X013461Y018301D02*
X018792Y018301D01*
X019170Y018695D02*
X019577Y018695D01*
X019499Y018793D02*
X019118Y018793D01*
X018977Y018892D02*
X019458Y018892D01*
X019533Y017414D02*
X019759Y017414D01*
X019509Y016232D02*
X018083Y016232D01*
X018081Y016134D02*
X019468Y016134D01*
X019448Y016035D02*
X018041Y016035D01*
X017945Y015937D02*
X019448Y015937D01*
X019480Y015838D02*
X011783Y015838D01*
X011783Y015937D02*
X017605Y015937D01*
X017509Y016035D02*
X011753Y016035D01*
X011742Y015740D02*
X018678Y015740D01*
X018600Y015641D02*
X015470Y015641D01*
X015450Y015661D02*
X015336Y015708D01*
X015214Y015708D01*
X015100Y015661D01*
X015014Y015575D01*
X014967Y015461D01*
X014967Y015339D01*
X015014Y015225D01*
X015100Y015139D01*
X015214Y015092D01*
X015336Y015092D01*
X015450Y015139D01*
X015536Y015225D01*
X015583Y015339D01*
X015583Y015461D01*
X015536Y015575D01*
X015450Y015661D01*
X015550Y015543D02*
X018567Y015543D01*
X018567Y015444D02*
X015583Y015444D01*
X015583Y015346D02*
X018605Y015346D01*
X018692Y015247D02*
X017564Y015247D01*
X017550Y015261D02*
X017436Y015308D01*
X017314Y015308D01*
X017200Y015261D01*
X017114Y015175D01*
X017067Y015061D01*
X017067Y014939D01*
X017114Y014825D01*
X017200Y014739D01*
X017314Y014692D01*
X017436Y014692D01*
X017550Y014739D01*
X017636Y014825D01*
X017683Y014939D01*
X017683Y015061D01*
X017636Y015175D01*
X017550Y015261D01*
X017647Y015149D02*
X019475Y015149D01*
X019448Y015050D02*
X017683Y015050D01*
X017683Y014952D02*
X019448Y014952D01*
X019474Y014853D02*
X017648Y014853D01*
X017566Y014755D02*
X019517Y014755D01*
X019615Y014656D02*
X012467Y014656D01*
X012549Y014755D02*
X017184Y014755D01*
X017102Y014853D02*
X012583Y014853D01*
X012583Y014952D02*
X017067Y014952D01*
X017067Y015050D02*
X012547Y015050D01*
X012463Y015149D02*
X013390Y015149D01*
X013267Y015444D02*
X011233Y015444D01*
X011200Y015543D02*
X013300Y015543D01*
X013380Y015641D02*
X011652Y015641D01*
X011298Y015641D02*
X011120Y015641D01*
X011142Y015740D02*
X011208Y015740D01*
X011197Y016035D02*
X011153Y016035D01*
X011078Y016134D02*
X011272Y016134D01*
X012178Y016626D02*
X016430Y016626D01*
X016314Y016725D02*
X012183Y016725D01*
X012158Y016823D02*
X013138Y016823D01*
X013412Y016823D02*
X016273Y016823D01*
X016267Y016922D02*
X013533Y016922D01*
X013576Y017020D02*
X014845Y017020D01*
X014720Y017119D02*
X013583Y017119D01*
X013560Y017217D02*
X014676Y017217D01*
X014667Y017316D02*
X013496Y017316D01*
X013054Y017316D02*
X008261Y017316D01*
X008197Y017414D02*
X014688Y017414D01*
X014751Y017513D02*
X004592Y017513D01*
X004632Y017414D02*
X007753Y017414D01*
X007689Y017316D02*
X004633Y017316D01*
X004604Y017217D02*
X007667Y017217D01*
X007675Y017119D02*
X004530Y017119D01*
X004500Y017611D02*
X004386Y017658D01*
X004264Y017658D01*
X004150Y017611D01*
X002051Y017611D01*
X002188Y017710D02*
X014129Y017710D01*
X014521Y017710D02*
X015848Y017710D01*
X016013Y017808D02*
X014600Y017808D01*
X013277Y018990D02*
X012873Y018990D01*
X012953Y019089D02*
X013197Y019089D01*
X013156Y019187D02*
X012994Y019187D01*
X013005Y019286D02*
X013145Y019286D01*
X013145Y019384D02*
X013005Y019384D01*
X012965Y019483D02*
X013185Y019483D01*
X013248Y019581D02*
X012902Y019581D01*
X012782Y019680D02*
X013368Y019680D01*
X013292Y019975D02*
X012858Y019975D01*
X012947Y020074D02*
X013203Y020074D01*
X013163Y020172D02*
X012987Y020172D01*
X013005Y020271D02*
X013145Y020271D01*
X013145Y020369D02*
X013005Y020369D01*
X012971Y020468D02*
X013179Y020468D01*
X013233Y020566D02*
X012917Y020566D01*
X012819Y020665D02*
X013331Y020665D01*
X013819Y020665D02*
X014331Y020665D01*
X014233Y020566D02*
X013917Y020566D01*
X013971Y020468D02*
X014179Y020468D01*
X014145Y020369D02*
X014005Y020369D01*
X014005Y020271D02*
X014145Y020271D01*
X014163Y020172D02*
X013987Y020172D01*
X013947Y020074D02*
X014203Y020074D01*
X014292Y019975D02*
X013858Y019975D01*
X012368Y019680D02*
X011782Y019680D01*
X011902Y019581D02*
X012248Y019581D01*
X012185Y019483D02*
X011965Y019483D01*
X012005Y019384D02*
X012145Y019384D01*
X012145Y019286D02*
X012005Y019286D01*
X011994Y019187D02*
X012156Y019187D01*
X012197Y019089D02*
X011953Y019089D01*
X011873Y018990D02*
X012277Y018990D01*
X012292Y019975D02*
X011858Y019975D01*
X011947Y020074D02*
X012203Y020074D01*
X012163Y020172D02*
X011987Y020172D01*
X012005Y020271D02*
X012145Y020271D01*
X012145Y020369D02*
X012005Y020369D01*
X011971Y020468D02*
X012179Y020468D01*
X012233Y020566D02*
X011917Y020566D01*
X011819Y020665D02*
X012331Y020665D01*
X012273Y020862D02*
X019470Y020862D01*
X019448Y020960D02*
X012351Y020960D01*
X012383Y021059D02*
X019448Y021059D01*
X019478Y021157D02*
X012383Y021157D01*
X012344Y021256D02*
X019527Y021256D01*
X019625Y021354D02*
X012257Y021354D01*
X011331Y020665D02*
X008742Y020665D01*
X008750Y020661D02*
X008636Y020708D01*
X008514Y020708D01*
X008400Y020661D01*
X008314Y020575D01*
X008267Y020461D01*
X008267Y020339D01*
X008314Y020225D01*
X008400Y020139D01*
X008514Y020092D01*
X008636Y020092D01*
X008750Y020139D01*
X008836Y020225D01*
X008883Y020339D01*
X008883Y020461D01*
X008836Y020575D01*
X008750Y020661D01*
X008840Y020566D02*
X011233Y020566D01*
X011179Y020468D02*
X008881Y020468D01*
X008883Y020369D02*
X011145Y020369D01*
X011145Y020271D02*
X008855Y020271D01*
X008783Y020172D02*
X011163Y020172D01*
X011203Y020074D02*
X002302Y020074D01*
X002302Y019975D02*
X011292Y019975D01*
X011368Y019680D02*
X007076Y019680D01*
X007083Y019581D02*
X011248Y019581D01*
X011185Y019483D02*
X007060Y019483D01*
X006995Y019384D02*
X011145Y019384D01*
X012108Y022635D02*
X012642Y022635D01*
X012538Y022733D02*
X012212Y022733D01*
X012267Y022832D02*
X012483Y022832D01*
X012448Y022930D02*
X012302Y022930D01*
X012302Y023029D02*
X012448Y023029D01*
X012466Y023127D02*
X012284Y023127D01*
X012244Y023226D02*
X012506Y023226D01*
X012595Y023324D02*
X012155Y023324D01*
X012080Y023620D02*
X012670Y023620D01*
X012549Y023718D02*
X012201Y023718D01*
X012264Y023817D02*
X012486Y023817D01*
X012445Y023915D02*
X012305Y023915D01*
X012305Y024014D02*
X012445Y024014D01*
X012456Y024112D02*
X012294Y024112D01*
X012253Y024211D02*
X012497Y024211D01*
X012576Y024309D02*
X012174Y024309D01*
X011576Y024309D02*
X011174Y024309D01*
X011253Y024211D02*
X011497Y024211D01*
X011456Y024112D02*
X011294Y024112D01*
X011305Y024014D02*
X011445Y024014D01*
X011445Y023915D02*
X011305Y023915D01*
X011264Y023817D02*
X011486Y023817D01*
X011549Y023718D02*
X011201Y023718D01*
X011080Y023620D02*
X011670Y023620D01*
X010314Y024703D02*
X019568Y024703D01*
X019495Y024802D02*
X010368Y024802D01*
X010383Y024900D02*
X019454Y024900D01*
X019448Y024999D02*
X010368Y024999D01*
X010314Y025097D02*
X019453Y025097D01*
X019494Y025196D02*
X010167Y025196D01*
X009983Y025196D02*
X008967Y025196D01*
X009114Y025097D02*
X009836Y025097D01*
X009782Y024999D02*
X009168Y024999D01*
X009183Y024900D02*
X009767Y024900D01*
X009782Y024802D02*
X009168Y024802D01*
X009114Y024703D02*
X009836Y024703D01*
X009735Y024408D02*
X009015Y024408D01*
X008961Y024430D02*
X008789Y024430D01*
X008631Y024365D01*
X008510Y024244D01*
X008445Y024086D01*
X008445Y023914D01*
X008510Y023756D01*
X008631Y023635D01*
X008789Y023570D01*
X008961Y023570D01*
X009119Y023635D01*
X009240Y023756D01*
X009305Y023914D01*
X009305Y024086D01*
X009240Y024244D01*
X009119Y024365D01*
X008961Y024430D01*
X008735Y024408D02*
X008015Y024408D01*
X007961Y024430D02*
X007789Y024430D01*
X007631Y024365D01*
X007510Y024244D01*
X007445Y024086D01*
X007445Y023914D01*
X007510Y023756D01*
X007631Y023635D01*
X007789Y023570D01*
X007961Y023570D01*
X008119Y023635D01*
X008240Y023756D01*
X008305Y023914D01*
X008305Y024086D01*
X008240Y024244D01*
X008119Y024365D01*
X007961Y024430D01*
X007735Y024408D02*
X007015Y024408D01*
X006961Y024430D02*
X006789Y024430D01*
X006631Y024365D01*
X006510Y024244D01*
X006445Y024086D01*
X006445Y023914D01*
X006510Y023756D01*
X006631Y023635D01*
X006789Y023570D01*
X006961Y023570D01*
X007119Y023635D01*
X007240Y023756D01*
X007305Y023914D01*
X007305Y024086D01*
X007240Y024244D01*
X007119Y024365D01*
X006961Y024430D01*
X007174Y024309D02*
X007576Y024309D01*
X007497Y024211D02*
X007253Y024211D01*
X007294Y024112D02*
X007456Y024112D01*
X007445Y024014D02*
X007305Y024014D01*
X007305Y023915D02*
X007445Y023915D01*
X007486Y023817D02*
X007264Y023817D01*
X007201Y023718D02*
X007549Y023718D01*
X007670Y023620D02*
X007080Y023620D01*
X006970Y023423D02*
X007780Y023423D01*
X007790Y023427D02*
X007633Y023362D01*
X007513Y023242D01*
X007448Y023085D01*
X007448Y022915D01*
X007513Y022758D01*
X007633Y022638D01*
X007790Y022573D01*
X007960Y022573D01*
X008117Y022638D01*
X008237Y022758D01*
X008302Y022915D01*
X008302Y023085D01*
X008237Y023242D01*
X008117Y023362D01*
X007960Y023427D01*
X007790Y023427D01*
X007970Y023423D02*
X008780Y023423D01*
X008790Y023427D02*
X008633Y023362D01*
X008513Y023242D01*
X008448Y023085D01*
X008448Y022915D01*
X008513Y022758D01*
X008633Y022638D01*
X008790Y022573D01*
X008960Y022573D01*
X009117Y022638D01*
X009237Y022758D01*
X009302Y022915D01*
X009302Y023085D01*
X009237Y023242D01*
X009117Y023362D01*
X008960Y023427D01*
X008790Y023427D01*
X008970Y023423D02*
X009780Y023423D01*
X009595Y023324D02*
X009155Y023324D01*
X009244Y023226D02*
X009506Y023226D01*
X009466Y023127D02*
X009284Y023127D01*
X009302Y023029D02*
X009448Y023029D01*
X009448Y022930D02*
X009302Y022930D01*
X009267Y022832D02*
X009483Y022832D01*
X009538Y022733D02*
X009212Y022733D01*
X009108Y022635D02*
X009642Y022635D01*
X009670Y023620D02*
X009080Y023620D01*
X009201Y023718D02*
X009549Y023718D01*
X009486Y023817D02*
X009264Y023817D01*
X009305Y023915D02*
X009445Y023915D01*
X009445Y024014D02*
X009305Y024014D01*
X009294Y024112D02*
X009456Y024112D01*
X009497Y024211D02*
X009253Y024211D01*
X009174Y024309D02*
X009576Y024309D01*
X008783Y025196D02*
X002256Y025196D01*
X002297Y025097D02*
X008636Y025097D01*
X008582Y024999D02*
X002302Y024999D01*
X002296Y024900D02*
X008567Y024900D01*
X008582Y024802D02*
X002255Y024802D01*
X002182Y024703D02*
X008636Y024703D01*
X008576Y024309D02*
X008174Y024309D01*
X008253Y024211D02*
X008497Y024211D01*
X008456Y024112D02*
X008294Y024112D01*
X008305Y024014D02*
X008445Y024014D01*
X008445Y023915D02*
X008305Y023915D01*
X008264Y023817D02*
X008486Y023817D01*
X008549Y023718D02*
X008201Y023718D01*
X008080Y023620D02*
X008670Y023620D01*
X008595Y023324D02*
X008155Y023324D01*
X008244Y023226D02*
X008506Y023226D01*
X008466Y023127D02*
X008284Y023127D01*
X008302Y023029D02*
X008448Y023029D01*
X008448Y022930D02*
X008302Y022930D01*
X008267Y022832D02*
X008483Y022832D01*
X008538Y022733D02*
X008212Y022733D01*
X008108Y022635D02*
X008642Y022635D01*
X007642Y022635D02*
X007108Y022635D01*
X007117Y022638D02*
X007237Y022758D01*
X007302Y022915D01*
X007302Y023085D01*
X007237Y023242D01*
X007117Y023362D01*
X006960Y023427D01*
X006790Y023427D01*
X006633Y023362D01*
X006513Y023242D01*
X006448Y023085D01*
X006448Y022915D01*
X006513Y022758D01*
X006633Y022638D01*
X006790Y022573D01*
X006960Y022573D01*
X007117Y022638D01*
X007212Y022733D02*
X007538Y022733D01*
X007483Y022832D02*
X007267Y022832D01*
X007302Y022930D02*
X007448Y022930D01*
X007448Y023029D02*
X007302Y023029D01*
X007284Y023127D02*
X007466Y023127D01*
X007506Y023226D02*
X007244Y023226D01*
X007155Y023324D02*
X007595Y023324D01*
X006780Y023423D02*
X005970Y023423D01*
X006155Y023324D02*
X006595Y023324D01*
X006506Y023226D02*
X006244Y023226D01*
X006284Y023127D02*
X006466Y023127D01*
X006448Y023029D02*
X006302Y023029D01*
X006302Y022930D02*
X006448Y022930D01*
X006483Y022832D02*
X006267Y022832D01*
X006212Y022733D02*
X006538Y022733D01*
X006642Y022635D02*
X006108Y022635D01*
X006080Y023620D02*
X006670Y023620D01*
X006549Y023718D02*
X006201Y023718D01*
X006264Y023817D02*
X006486Y023817D01*
X006445Y023915D02*
X006305Y023915D01*
X006305Y024014D02*
X006445Y024014D01*
X006456Y024112D02*
X006294Y024112D01*
X006253Y024211D02*
X006497Y024211D01*
X006576Y024309D02*
X006174Y024309D01*
X006015Y024408D02*
X006735Y024408D01*
X006109Y025618D02*
X006047Y025586D01*
X005980Y025564D01*
X005923Y025555D01*
X005923Y025952D01*
X005923Y026048D01*
X005827Y026048D01*
X005827Y025952D01*
X005430Y025952D01*
X005439Y025895D01*
X005461Y025828D01*
X005493Y025766D01*
X005534Y025709D01*
X005584Y025659D01*
X005641Y025618D01*
X005703Y025586D01*
X005770Y025564D01*
X005827Y025555D01*
X005827Y025952D01*
X005923Y025952D01*
X006320Y025952D01*
X006311Y025895D01*
X006289Y025828D01*
X006257Y025766D01*
X006216Y025709D01*
X006166Y025659D01*
X006109Y025618D01*
X006054Y025590D02*
X007750Y025590D01*
X007790Y025573D02*
X007960Y025573D01*
X008117Y025638D01*
X008237Y025758D01*
X008302Y025915D01*
X008302Y026085D01*
X008237Y026242D01*
X008117Y026362D01*
X007960Y026427D01*
X007790Y026427D01*
X007633Y026362D01*
X007513Y026242D01*
X007448Y026085D01*
X007448Y025915D01*
X007513Y025758D01*
X007633Y025638D01*
X007790Y025573D01*
X008000Y025590D02*
X008750Y025590D01*
X008790Y025573D02*
X008960Y025573D01*
X009117Y025638D01*
X009237Y025758D01*
X009302Y025915D01*
X009302Y026085D01*
X009237Y026242D01*
X009117Y026362D01*
X008960Y026427D01*
X008790Y026427D01*
X008633Y026362D01*
X008513Y026242D01*
X008448Y026085D01*
X008448Y025915D01*
X008513Y025758D01*
X008633Y025638D01*
X008790Y025573D01*
X009000Y025590D02*
X009696Y025590D01*
X009703Y025586D02*
X009770Y025564D01*
X009827Y025555D01*
X009827Y025952D01*
X009430Y025952D01*
X009439Y025895D01*
X009461Y025828D01*
X009493Y025766D01*
X009534Y025709D01*
X009584Y025659D01*
X009641Y025618D01*
X009703Y025586D01*
X009827Y025590D02*
X009923Y025590D01*
X009923Y025555D02*
X009980Y025564D01*
X010047Y025586D01*
X010109Y025618D01*
X010166Y025659D01*
X010216Y025709D01*
X010257Y025766D01*
X010289Y025828D01*
X010311Y025895D01*
X010320Y025952D01*
X009923Y025952D01*
X009923Y026048D01*
X009827Y026048D01*
X009827Y025952D01*
X009923Y025952D01*
X009923Y025555D01*
X009923Y025688D02*
X009827Y025688D01*
X009827Y025787D02*
X009923Y025787D01*
X009923Y025885D02*
X009827Y025885D01*
X009827Y025984D02*
X009302Y025984D01*
X009302Y026082D02*
X009436Y026082D01*
X009439Y026105D02*
X009430Y026048D01*
X009827Y026048D01*
X009827Y026445D01*
X009770Y026436D01*
X009703Y026414D01*
X009641Y026382D01*
X009584Y026341D01*
X009534Y026291D01*
X009493Y026234D01*
X009461Y026172D01*
X009439Y026105D01*
X009465Y026181D02*
X009262Y026181D01*
X009200Y026279D02*
X009525Y026279D01*
X009634Y026378D02*
X009079Y026378D01*
X009289Y025885D02*
X009443Y025885D01*
X009482Y025787D02*
X009249Y025787D01*
X009167Y025688D02*
X009555Y025688D01*
X009923Y025984D02*
X011448Y025984D01*
X011448Y025915D02*
X011513Y025758D01*
X011633Y025638D01*
X011790Y025573D01*
X011960Y025573D01*
X012117Y025638D01*
X012237Y025758D01*
X012302Y025915D01*
X012302Y026085D01*
X012237Y026242D01*
X012117Y026362D01*
X011960Y026427D01*
X011790Y026427D01*
X011633Y026362D01*
X011513Y026242D01*
X011448Y026085D01*
X011448Y025915D01*
X011461Y025885D02*
X010307Y025885D01*
X010268Y025787D02*
X011501Y025787D01*
X011583Y025688D02*
X010195Y025688D01*
X010054Y025590D02*
X011750Y025590D01*
X012000Y025590D02*
X012750Y025590D01*
X012790Y025573D02*
X012960Y025573D01*
X013117Y025638D01*
X013237Y025758D01*
X013302Y025915D01*
X013302Y026085D01*
X013237Y026242D01*
X013117Y026362D01*
X012960Y026427D01*
X012790Y026427D01*
X012633Y026362D01*
X012513Y026242D01*
X012448Y026085D01*
X012448Y025915D01*
X012513Y025758D01*
X012633Y025638D01*
X012790Y025573D01*
X013000Y025590D02*
X013696Y025590D01*
X013703Y025586D02*
X013641Y025618D01*
X013584Y025659D01*
X013534Y025709D01*
X013493Y025766D01*
X013461Y025828D01*
X013439Y025895D01*
X013430Y025952D01*
X013827Y025952D01*
X013827Y026048D01*
X013430Y026048D01*
X013439Y026105D01*
X013461Y026172D01*
X013493Y026234D01*
X013534Y026291D01*
X013584Y026341D01*
X013641Y026382D01*
X013703Y026414D01*
X013770Y026436D01*
X013827Y026445D01*
X013827Y026048D01*
X013923Y026048D01*
X013923Y026445D01*
X013980Y026436D01*
X014047Y026414D01*
X014109Y026382D01*
X014166Y026341D01*
X014216Y026291D01*
X014257Y026234D01*
X014289Y026172D01*
X014311Y026105D01*
X014320Y026048D01*
X013923Y026048D01*
X013923Y025952D01*
X014320Y025952D01*
X014311Y025895D01*
X014289Y025828D01*
X014257Y025766D01*
X014216Y025709D01*
X014166Y025659D01*
X014109Y025618D01*
X014047Y025586D01*
X013980Y025564D01*
X013923Y025555D01*
X013923Y025952D01*
X013827Y025952D01*
X013827Y025555D01*
X013770Y025564D01*
X013703Y025586D01*
X013827Y025590D02*
X013923Y025590D01*
X013923Y025688D02*
X013827Y025688D01*
X013827Y025787D02*
X013923Y025787D01*
X013923Y025885D02*
X013827Y025885D01*
X013827Y025984D02*
X013302Y025984D01*
X013302Y026082D02*
X013436Y026082D01*
X013465Y026181D02*
X013262Y026181D01*
X013200Y026279D02*
X013525Y026279D01*
X013634Y026378D02*
X013079Y026378D01*
X013289Y025885D02*
X013443Y025885D01*
X013482Y025787D02*
X013249Y025787D01*
X013167Y025688D02*
X013555Y025688D01*
X013827Y026082D02*
X013923Y026082D01*
X013923Y025984D02*
X015448Y025984D01*
X015448Y025915D02*
X015513Y025758D01*
X015633Y025638D01*
X015790Y025573D01*
X015960Y025573D01*
X016117Y025638D01*
X016237Y025758D01*
X016302Y025915D01*
X016302Y026085D01*
X016237Y026242D01*
X016117Y026362D01*
X015960Y026427D01*
X015790Y026427D01*
X015633Y026362D01*
X015513Y026242D01*
X015448Y026085D01*
X015448Y025915D01*
X015461Y025885D02*
X014307Y025885D01*
X014268Y025787D02*
X015501Y025787D01*
X015583Y025688D02*
X014195Y025688D01*
X014054Y025590D02*
X015750Y025590D01*
X016000Y025590D02*
X016750Y025590D01*
X016790Y025573D02*
X016960Y025573D01*
X017117Y025638D01*
X017237Y025758D01*
X017302Y025915D01*
X017302Y026085D01*
X017237Y026242D01*
X017117Y026362D01*
X016960Y026427D01*
X016790Y026427D01*
X016633Y026362D01*
X016513Y026242D01*
X016448Y026085D01*
X016448Y025915D01*
X016513Y025758D01*
X016633Y025638D01*
X016790Y025573D01*
X017000Y025590D02*
X017696Y025590D01*
X017703Y025586D02*
X017770Y025564D01*
X017827Y025555D01*
X017827Y025952D01*
X017430Y025952D01*
X017439Y025895D01*
X017461Y025828D01*
X017493Y025766D01*
X017534Y025709D01*
X017584Y025659D01*
X017641Y025618D01*
X017703Y025586D01*
X017827Y025590D02*
X017923Y025590D01*
X017923Y025555D02*
X017980Y025564D01*
X018047Y025586D01*
X018109Y025618D01*
X018166Y025659D01*
X018216Y025709D01*
X018257Y025766D01*
X018289Y025828D01*
X018311Y025895D01*
X018320Y025952D01*
X017923Y025952D01*
X017923Y026048D01*
X017827Y026048D01*
X017827Y025952D01*
X017923Y025952D01*
X017923Y025555D01*
X017923Y025688D02*
X017827Y025688D01*
X017827Y025787D02*
X017923Y025787D01*
X017923Y025885D02*
X017827Y025885D01*
X017827Y025984D02*
X017302Y025984D01*
X017302Y026082D02*
X017436Y026082D01*
X017439Y026105D02*
X017430Y026048D01*
X017827Y026048D01*
X017827Y026445D01*
X017770Y026436D01*
X017703Y026414D01*
X017641Y026382D01*
X017584Y026341D01*
X017534Y026291D01*
X017493Y026234D01*
X017461Y026172D01*
X017439Y026105D01*
X017465Y026181D02*
X017262Y026181D01*
X017200Y026279D02*
X017525Y026279D01*
X017634Y026378D02*
X017079Y026378D01*
X017289Y025885D02*
X017443Y025885D01*
X017482Y025787D02*
X017249Y025787D01*
X017167Y025688D02*
X017555Y025688D01*
X017827Y026082D02*
X017923Y026082D01*
X017923Y026048D02*
X017923Y026445D01*
X017980Y026436D01*
X018047Y026414D01*
X018109Y026382D01*
X018166Y026341D01*
X018216Y026291D01*
X018257Y026234D01*
X018289Y026172D01*
X018311Y026105D01*
X018320Y026048D01*
X017923Y026048D01*
X017923Y025984D02*
X019448Y025984D01*
X019448Y025915D02*
X019513Y025758D01*
X019633Y025638D01*
X019790Y025573D01*
X019960Y025573D01*
X020117Y025638D01*
X020237Y025758D01*
X020302Y025915D01*
X020302Y026085D01*
X020237Y026242D01*
X020117Y026362D01*
X019960Y026427D01*
X019790Y026427D01*
X019633Y026362D01*
X019513Y026242D01*
X019448Y026085D01*
X019448Y025915D01*
X019461Y025885D02*
X018307Y025885D01*
X018268Y025787D02*
X019501Y025787D01*
X019583Y025688D02*
X018195Y025688D01*
X018054Y025590D02*
X019750Y025590D01*
X019707Y025393D02*
X002043Y025393D01*
X002185Y025294D02*
X019565Y025294D01*
X020000Y025590D02*
X020750Y025590D01*
X020790Y025573D02*
X020960Y025573D01*
X021117Y025638D01*
X021237Y025758D01*
X021302Y025915D01*
X021302Y026085D01*
X021237Y026242D01*
X021117Y026362D01*
X020960Y026427D01*
X020790Y026427D01*
X020633Y026362D01*
X020513Y026242D01*
X020448Y026085D01*
X020448Y025915D01*
X020513Y025758D01*
X020633Y025638D01*
X020790Y025573D01*
X020707Y025393D02*
X020043Y025393D01*
X020185Y025294D02*
X020565Y025294D01*
X020494Y025196D02*
X020256Y025196D01*
X020297Y025097D02*
X020453Y025097D01*
X020448Y024999D02*
X020302Y024999D01*
X020296Y024900D02*
X020454Y024900D01*
X020495Y024802D02*
X020255Y024802D01*
X020182Y024703D02*
X020568Y024703D01*
X020714Y024605D02*
X020036Y024605D01*
X019448Y023915D02*
X019513Y023758D01*
X019553Y023718D02*
X013201Y023718D01*
X013080Y023620D02*
X019678Y023620D01*
X019595Y023324D02*
X013155Y023324D01*
X013244Y023226D02*
X019506Y023226D01*
X019466Y023127D02*
X013284Y023127D01*
X013302Y023029D02*
X019448Y023029D01*
X019448Y022930D02*
X014681Y022930D01*
X014754Y022832D02*
X018370Y022832D01*
X018296Y022733D02*
X014783Y022733D01*
X014782Y022635D02*
X018267Y022635D01*
X018268Y022536D02*
X014741Y022536D01*
X014647Y022438D02*
X018308Y022438D01*
X018400Y022339D02*
X018514Y022292D01*
X018636Y022292D01*
X018750Y022339D01*
X018883Y022635D02*
X019642Y022635D01*
X019538Y022733D02*
X018854Y022733D01*
X018780Y022832D02*
X019483Y022832D01*
X020167Y025688D02*
X020583Y025688D01*
X020501Y025787D02*
X020249Y025787D01*
X020289Y025885D02*
X020461Y025885D01*
X020448Y025984D02*
X020302Y025984D01*
X020302Y026082D02*
X020448Y026082D01*
X020488Y026181D02*
X020262Y026181D01*
X020200Y026279D02*
X020550Y026279D01*
X020671Y026378D02*
X020079Y026378D01*
X019963Y026575D02*
X020787Y026575D01*
X020790Y026573D02*
X020960Y026573D01*
X021117Y026638D01*
X021237Y026758D01*
X021302Y026915D01*
X021302Y027085D01*
X021237Y027242D01*
X021117Y027362D01*
X020960Y027427D01*
X020790Y027427D01*
X020633Y027362D01*
X020513Y027242D01*
X020448Y027085D01*
X020448Y026915D01*
X020513Y026758D01*
X020633Y026638D01*
X020790Y026573D01*
X020963Y026575D02*
X021375Y026575D01*
X021375Y026673D02*
X021152Y026673D01*
X021242Y026772D02*
X021375Y026772D01*
X021375Y026870D02*
X021283Y026870D01*
X021302Y026969D02*
X021375Y026969D01*
X021375Y027067D02*
X021302Y027067D01*
X021268Y027166D02*
X021375Y027166D01*
X021375Y027264D02*
X021215Y027264D01*
X021115Y027363D02*
X021375Y027363D01*
X021375Y027461D02*
X000375Y027461D01*
X000375Y027363D02*
X000635Y027363D01*
X000633Y027362D02*
X000513Y027242D01*
X000448Y027085D01*
X000448Y026915D01*
X000513Y026758D01*
X000633Y026638D01*
X000790Y026573D01*
X000960Y026573D01*
X001117Y026638D01*
X001237Y026758D01*
X001302Y026915D01*
X001302Y027085D01*
X001237Y027242D01*
X001117Y027362D01*
X000960Y027427D01*
X000790Y027427D01*
X000633Y027362D01*
X000535Y027264D02*
X000375Y027264D01*
X000375Y027166D02*
X000482Y027166D01*
X000448Y027067D02*
X000375Y027067D01*
X000375Y026969D02*
X000448Y026969D01*
X000467Y026870D02*
X000375Y026870D01*
X000375Y026772D02*
X000508Y026772D01*
X000598Y026673D02*
X000375Y026673D01*
X000375Y026575D02*
X000787Y026575D01*
X000790Y026427D02*
X000633Y026362D01*
X000513Y026242D01*
X000448Y026085D01*
X000448Y025915D01*
X000513Y025758D01*
X000633Y025638D01*
X000790Y025573D01*
X000960Y025573D01*
X001117Y025638D01*
X001237Y025758D01*
X001302Y025915D01*
X001302Y026085D01*
X001237Y026242D01*
X001117Y026362D01*
X000960Y026427D01*
X000790Y026427D01*
X000671Y026378D02*
X000375Y026378D01*
X000375Y026476D02*
X021375Y026476D01*
X021375Y026378D02*
X021079Y026378D01*
X021200Y026279D02*
X021375Y026279D01*
X021375Y026181D02*
X021262Y026181D01*
X021302Y026082D02*
X021375Y026082D01*
X021375Y025984D02*
X021302Y025984D01*
X021289Y025885D02*
X021375Y025885D01*
X021375Y025787D02*
X021249Y025787D01*
X021167Y025688D02*
X021375Y025688D01*
X021375Y025590D02*
X021000Y025590D01*
X020598Y026673D02*
X020152Y026673D01*
X020117Y026638D02*
X020237Y026758D01*
X020302Y026915D01*
X020302Y027085D01*
X020237Y027242D01*
X020117Y027362D01*
X019960Y027427D01*
X019790Y027427D01*
X019633Y027362D01*
X019513Y027242D01*
X019448Y027085D01*
X019448Y026915D01*
X019513Y026758D01*
X019633Y026638D01*
X019790Y026573D01*
X019960Y026573D01*
X020117Y026638D01*
X020242Y026772D02*
X020508Y026772D01*
X020467Y026870D02*
X020283Y026870D01*
X020302Y026969D02*
X020448Y026969D01*
X020448Y027067D02*
X020302Y027067D01*
X020268Y027166D02*
X020482Y027166D01*
X020535Y027264D02*
X020215Y027264D01*
X020115Y027363D02*
X020635Y027363D01*
X020799Y027560D02*
X019951Y027560D01*
X019923Y027560D02*
X019827Y027560D01*
X019799Y027560D02*
X000375Y027560D01*
X000375Y027658D02*
X000613Y027658D01*
X000633Y027638D02*
X000790Y027573D01*
X000960Y027573D01*
X001117Y027638D01*
X001237Y027758D01*
X001302Y027915D01*
X001302Y028085D01*
X001237Y028242D01*
X001117Y028362D01*
X000960Y028427D01*
X000790Y028427D01*
X000633Y028362D01*
X000513Y028242D01*
X000448Y028085D01*
X000448Y027915D01*
X000513Y027758D01*
X000633Y027638D01*
X000515Y027757D02*
X000375Y027757D01*
X000375Y027855D02*
X000473Y027855D01*
X000448Y027954D02*
X000375Y027954D01*
X000375Y028052D02*
X000448Y028052D01*
X000475Y028151D02*
X000375Y028151D01*
X000375Y028249D02*
X000520Y028249D01*
X000619Y028348D02*
X000375Y028348D01*
X000375Y028446D02*
X003625Y028446D01*
X003527Y028545D02*
X000375Y028545D01*
X000375Y028643D02*
X000628Y028643D01*
X000530Y028742D02*
X000375Y028742D01*
X000375Y028840D02*
X000479Y028840D01*
X000448Y028939D02*
X000375Y028939D01*
X000375Y029037D02*
X000448Y029037D01*
X000469Y029136D02*
X000375Y029136D01*
X000375Y029234D02*
X000510Y029234D01*
X001240Y029234D02*
X001510Y029234D01*
X001469Y029136D02*
X001281Y029136D01*
X001302Y029037D02*
X001448Y029037D01*
X001448Y028939D02*
X001302Y028939D01*
X001271Y028840D02*
X001479Y028840D01*
X001530Y028742D02*
X001220Y028742D01*
X001122Y028643D02*
X001628Y028643D01*
X001619Y028348D02*
X001131Y028348D01*
X001230Y028249D02*
X001520Y028249D01*
X001475Y028151D02*
X001275Y028151D01*
X001302Y028052D02*
X001448Y028052D01*
X001448Y027954D02*
X001302Y027954D01*
X001277Y027855D02*
X001473Y027855D01*
X001515Y027757D02*
X001235Y027757D01*
X001137Y027658D02*
X001613Y027658D01*
X001790Y027427D02*
X001633Y027362D01*
X001513Y027242D01*
X001448Y027085D01*
X001448Y026915D01*
X001513Y026758D01*
X001633Y026638D01*
X001790Y026573D01*
X001960Y026573D01*
X002117Y026638D01*
X002237Y026758D01*
X002302Y026915D01*
X002302Y027085D01*
X002237Y027242D01*
X002117Y027362D01*
X001960Y027427D01*
X001790Y027427D01*
X001635Y027363D02*
X001115Y027363D01*
X001215Y027264D02*
X001535Y027264D01*
X001482Y027166D02*
X001268Y027166D01*
X001302Y027067D02*
X001448Y027067D01*
X001448Y026969D02*
X001302Y026969D01*
X001283Y026870D02*
X001467Y026870D01*
X001508Y026772D02*
X001242Y026772D01*
X001152Y026673D02*
X001598Y026673D01*
X001787Y026575D02*
X000963Y026575D01*
X001079Y026378D02*
X001671Y026378D01*
X001633Y026362D02*
X001513Y026242D01*
X001448Y026085D01*
X001448Y025915D01*
X001513Y025758D01*
X001633Y025638D01*
X001790Y025573D01*
X001960Y025573D01*
X002117Y025638D01*
X002237Y025758D01*
X002302Y025915D01*
X002302Y026085D01*
X002237Y026242D01*
X002117Y026362D01*
X001960Y026427D01*
X001790Y026427D01*
X001633Y026362D01*
X001550Y026279D02*
X001200Y026279D01*
X001262Y026181D02*
X001488Y026181D01*
X001448Y026082D02*
X001302Y026082D01*
X001302Y025984D02*
X001448Y025984D01*
X001461Y025885D02*
X001289Y025885D01*
X001249Y025787D02*
X001501Y025787D01*
X001583Y025688D02*
X001167Y025688D01*
X001000Y025590D02*
X001750Y025590D01*
X001707Y025393D02*
X001043Y025393D01*
X001185Y025294D02*
X001565Y025294D01*
X001494Y025196D02*
X001256Y025196D01*
X001297Y025097D02*
X001453Y025097D01*
X001448Y024999D02*
X001302Y024999D01*
X001296Y024900D02*
X001454Y024900D01*
X001495Y024802D02*
X001255Y024802D01*
X001182Y024703D02*
X001568Y024703D01*
X002000Y025590D02*
X003750Y025590D01*
X003790Y025573D02*
X003960Y025573D01*
X004117Y025638D01*
X004237Y025758D01*
X004302Y025915D01*
X004302Y026085D01*
X004237Y026242D01*
X004117Y026362D01*
X003960Y026427D01*
X003790Y026427D01*
X003633Y026362D01*
X003513Y026242D01*
X003448Y026085D01*
X003448Y025915D01*
X003513Y025758D01*
X003633Y025638D01*
X003790Y025573D01*
X004000Y025590D02*
X004750Y025590D01*
X004790Y025573D02*
X004633Y025638D01*
X004513Y025758D01*
X004448Y025915D01*
X004448Y026085D01*
X004513Y026242D01*
X004633Y026362D01*
X004790Y026427D01*
X004960Y026427D01*
X005117Y026362D01*
X005237Y026242D01*
X005302Y026085D01*
X005302Y025915D01*
X005237Y025758D01*
X005117Y025638D01*
X004960Y025573D01*
X004790Y025573D01*
X005000Y025590D02*
X005696Y025590D01*
X005827Y025590D02*
X005923Y025590D01*
X005923Y025688D02*
X005827Y025688D01*
X005827Y025787D02*
X005923Y025787D01*
X005923Y025885D02*
X005827Y025885D01*
X005827Y025984D02*
X005302Y025984D01*
X005302Y026082D02*
X005436Y026082D01*
X005439Y026105D02*
X005430Y026048D01*
X005827Y026048D01*
X005827Y026445D01*
X005770Y026436D01*
X005703Y026414D01*
X005641Y026382D01*
X005584Y026341D01*
X005534Y026291D01*
X005493Y026234D01*
X005461Y026172D01*
X005439Y026105D01*
X005465Y026181D02*
X005262Y026181D01*
X005200Y026279D02*
X005525Y026279D01*
X005634Y026378D02*
X005079Y026378D01*
X005289Y025885D02*
X005443Y025885D01*
X005482Y025787D02*
X005249Y025787D01*
X005167Y025688D02*
X005555Y025688D01*
X005827Y026082D02*
X005923Y026082D01*
X005923Y026048D02*
X005923Y026445D01*
X005980Y026436D01*
X006047Y026414D01*
X006109Y026382D01*
X006166Y026341D01*
X006216Y026291D01*
X006257Y026234D01*
X006289Y026172D01*
X006311Y026105D01*
X006320Y026048D01*
X005923Y026048D01*
X005923Y025984D02*
X007448Y025984D01*
X007448Y026082D02*
X006314Y026082D01*
X006285Y026181D02*
X007488Y026181D01*
X007550Y026279D02*
X006225Y026279D01*
X006116Y026378D02*
X007671Y026378D01*
X007461Y025885D02*
X006307Y025885D01*
X006268Y025787D02*
X007501Y025787D01*
X007583Y025688D02*
X006195Y025688D01*
X005923Y026181D02*
X005827Y026181D01*
X005827Y026279D02*
X005923Y026279D01*
X005923Y026378D02*
X005827Y026378D01*
X004671Y026378D02*
X004079Y026378D01*
X004200Y026279D02*
X004550Y026279D01*
X004488Y026181D02*
X004262Y026181D01*
X004302Y026082D02*
X004448Y026082D01*
X004448Y025984D02*
X004302Y025984D01*
X004289Y025885D02*
X004461Y025885D01*
X004501Y025787D02*
X004249Y025787D01*
X004167Y025688D02*
X004583Y025688D01*
X003583Y025688D02*
X002167Y025688D01*
X002249Y025787D02*
X003501Y025787D01*
X003461Y025885D02*
X002289Y025885D01*
X002302Y025984D02*
X003448Y025984D01*
X003448Y026082D02*
X002302Y026082D01*
X002262Y026181D02*
X003488Y026181D01*
X003550Y026279D02*
X002200Y026279D01*
X002079Y026378D02*
X003671Y026378D01*
X003350Y026839D02*
X003236Y026792D01*
X003114Y026792D01*
X003000Y026839D01*
X002914Y026925D01*
X002867Y027039D01*
X002867Y027161D01*
X002914Y027275D01*
X003000Y027361D01*
X003114Y027408D01*
X003236Y027408D01*
X003350Y027361D01*
X003436Y027275D01*
X003483Y027161D01*
X003483Y027039D01*
X003436Y026925D01*
X003350Y026839D01*
X003381Y026870D02*
X019467Y026870D01*
X019448Y026969D02*
X003454Y026969D01*
X003483Y027067D02*
X019448Y027067D01*
X019482Y027166D02*
X003482Y027166D01*
X003441Y027264D02*
X019535Y027264D01*
X019635Y027363D02*
X003347Y027363D01*
X003003Y027363D02*
X002115Y027363D01*
X002215Y027264D02*
X002909Y027264D01*
X002868Y027166D02*
X002268Y027166D01*
X002302Y027067D02*
X002867Y027067D01*
X002896Y026969D02*
X002302Y026969D01*
X002283Y026870D02*
X002969Y026870D01*
X002242Y026772D02*
X019508Y026772D01*
X019598Y026673D02*
X002152Y026673D01*
X001963Y026575D02*
X019787Y026575D01*
X019671Y026378D02*
X018116Y026378D01*
X018225Y026279D02*
X019550Y026279D01*
X019488Y026181D02*
X018285Y026181D01*
X018314Y026082D02*
X019448Y026082D01*
X019923Y027555D02*
X019980Y027564D01*
X020047Y027586D01*
X020109Y027618D01*
X020166Y027659D01*
X020216Y027709D01*
X020257Y027766D01*
X020289Y027828D01*
X020311Y027895D01*
X020320Y027952D01*
X019923Y027952D01*
X019923Y027555D01*
X019923Y027658D02*
X019827Y027658D01*
X019827Y027757D02*
X019923Y027757D01*
X019923Y027855D02*
X019827Y027855D01*
X019827Y028052D02*
X019923Y028052D01*
X019923Y028048D02*
X019923Y028445D01*
X019980Y028436D01*
X020047Y028414D01*
X020109Y028382D01*
X020166Y028341D01*
X020216Y028291D01*
X020257Y028234D01*
X020289Y028172D01*
X020311Y028105D01*
X020320Y028048D01*
X019923Y028048D01*
X019923Y028151D02*
X019827Y028151D01*
X019827Y028249D02*
X019923Y028249D01*
X019923Y028348D02*
X019827Y028348D01*
X019827Y028555D02*
X019827Y028952D01*
X019430Y028952D01*
X019439Y028895D01*
X019461Y028828D01*
X019493Y028766D01*
X019534Y028709D01*
X019584Y028659D01*
X019641Y028618D01*
X019703Y028586D01*
X019770Y028564D01*
X019827Y028555D01*
X019827Y028643D02*
X019923Y028643D01*
X019923Y028555D02*
X019980Y028564D01*
X020047Y028586D01*
X020109Y028618D01*
X020166Y028659D01*
X020216Y028709D01*
X020257Y028766D01*
X020289Y028828D01*
X020311Y028895D01*
X020320Y028952D01*
X019923Y028952D01*
X019923Y029048D01*
X020320Y029048D01*
X020311Y029105D01*
X020289Y029172D01*
X020257Y029234D01*
X020493Y029234D01*
X020461Y029172D01*
X020439Y029105D01*
X020430Y029048D01*
X020827Y029048D01*
X020827Y028952D01*
X020923Y028952D01*
X020923Y028555D01*
X020980Y028564D01*
X021047Y028586D01*
X021109Y028618D01*
X021166Y028659D01*
X021240Y028742D02*
X021375Y028742D01*
X021375Y028840D02*
X021293Y028840D01*
X021318Y028939D02*
X021375Y028939D01*
X021375Y029037D02*
X020923Y029037D01*
X020827Y029037D02*
X019923Y029037D01*
X019923Y028952D02*
X019923Y028555D01*
X019923Y028742D02*
X019827Y028742D01*
X019827Y028840D02*
X019923Y028840D01*
X019923Y028939D02*
X019827Y028939D01*
X019827Y028952D02*
X019923Y028952D01*
X019827Y028952D02*
X019827Y029048D01*
X019430Y029048D01*
X019439Y029105D01*
X019461Y029172D01*
X019493Y029234D01*
X019449Y029136D02*
X018171Y029136D01*
X018255Y029037D02*
X019827Y029037D01*
X019576Y029333D02*
X002146Y029333D01*
X002197Y029431D02*
X019553Y029431D01*
X019388Y029530D02*
X002362Y029530D01*
X002526Y029628D02*
X019224Y029628D01*
X019060Y029727D02*
X002690Y029727D01*
X002277Y027855D02*
X019452Y027855D01*
X019500Y027757D02*
X002235Y027757D01*
X002137Y027658D02*
X019585Y027658D01*
X020165Y027658D02*
X020585Y027658D01*
X020500Y027757D02*
X020250Y027757D01*
X020298Y027855D02*
X020452Y027855D01*
X020431Y028052D02*
X020319Y028052D01*
X020296Y028151D02*
X020454Y028151D01*
X020504Y028249D02*
X020246Y028249D01*
X020157Y028348D02*
X020593Y028348D01*
X020827Y028348D02*
X020923Y028348D01*
X020923Y028249D02*
X020827Y028249D01*
X020827Y028151D02*
X020923Y028151D01*
X020923Y028052D02*
X020827Y028052D01*
X020827Y027855D02*
X020923Y027855D01*
X020923Y027757D02*
X020827Y027757D01*
X020827Y027658D02*
X020923Y027658D01*
X020923Y027560D02*
X020827Y027560D01*
X020951Y027560D02*
X021375Y027560D01*
X021375Y027658D02*
X021165Y027658D01*
X021250Y027757D02*
X021375Y027757D01*
X021375Y027855D02*
X021298Y027855D01*
X020827Y028555D02*
X020827Y028952D01*
X020430Y028952D01*
X020439Y028895D01*
X020461Y028828D01*
X020493Y028766D01*
X020534Y028709D01*
X020584Y028659D01*
X020641Y028618D01*
X020703Y028586D01*
X020770Y028564D01*
X020827Y028555D01*
X020827Y028643D02*
X020923Y028643D01*
X020923Y028742D02*
X020827Y028742D01*
X020827Y028840D02*
X020923Y028840D01*
X020923Y028939D02*
X020827Y028939D01*
X020606Y028643D02*
X020144Y028643D01*
X020240Y028742D02*
X020510Y028742D01*
X020457Y028840D02*
X020293Y028840D01*
X020318Y028939D02*
X020432Y028939D01*
X020449Y029136D02*
X020301Y029136D01*
X020257Y029234D02*
X020228Y029275D01*
X020522Y029275D01*
X020493Y029234D01*
X021375Y029175D02*
X021400Y029221D01*
X019606Y028643D02*
X018294Y028643D01*
X018318Y028742D02*
X019510Y028742D01*
X019457Y028840D02*
X017923Y028840D01*
X017827Y028840D02*
X017302Y028840D01*
X017302Y028885D02*
X017237Y029042D01*
X017117Y029162D01*
X016960Y029227D01*
X016790Y029227D01*
X016633Y029162D01*
X016513Y029042D01*
X016448Y028885D01*
X016448Y028715D01*
X016513Y028558D01*
X016633Y028438D01*
X016790Y028373D01*
X016960Y028373D01*
X017117Y028438D01*
X017237Y028558D01*
X017302Y028715D01*
X017302Y028885D01*
X017280Y028939D02*
X017450Y028939D01*
X017495Y029037D02*
X017239Y029037D01*
X017143Y029136D02*
X017579Y029136D01*
X017827Y029136D02*
X017923Y029136D01*
X017923Y029037D02*
X017827Y029037D01*
X017827Y028939D02*
X017923Y028939D01*
X017923Y028742D02*
X017827Y028742D01*
X017827Y028643D02*
X017923Y028643D01*
X017923Y028545D02*
X017827Y028545D01*
X017827Y028446D02*
X017923Y028446D01*
X017602Y028446D02*
X017125Y028446D01*
X017223Y028545D02*
X017508Y028545D01*
X017456Y028643D02*
X017272Y028643D01*
X017302Y028742D02*
X017432Y028742D01*
X016625Y028446D02*
X016125Y028446D01*
X016117Y028438D02*
X016237Y028558D01*
X016302Y028715D01*
X016302Y028885D01*
X016237Y029042D01*
X016117Y029162D01*
X015960Y029227D01*
X015790Y029227D01*
X015633Y029162D01*
X015513Y029042D01*
X015448Y028885D01*
X015448Y028715D01*
X015513Y028558D01*
X015633Y028438D01*
X015790Y028373D01*
X015960Y028373D01*
X016117Y028438D01*
X016223Y028545D02*
X016527Y028545D01*
X016478Y028643D02*
X016272Y028643D01*
X016302Y028742D02*
X016448Y028742D01*
X016448Y028840D02*
X016302Y028840D01*
X016280Y028939D02*
X016470Y028939D01*
X016511Y029037D02*
X016239Y029037D01*
X016143Y029136D02*
X016607Y029136D01*
X015607Y029136D02*
X014171Y029136D01*
X014255Y029037D02*
X015511Y029037D01*
X015470Y028939D02*
X014300Y028939D01*
X014320Y028752D02*
X013923Y028752D01*
X013923Y028355D01*
X013980Y028364D01*
X014047Y028386D01*
X014109Y028418D01*
X014166Y028459D01*
X014216Y028509D01*
X014257Y028566D01*
X014289Y028628D01*
X014311Y028695D01*
X014320Y028752D01*
X014318Y028742D02*
X015448Y028742D01*
X015448Y028840D02*
X013923Y028840D01*
X013827Y028840D02*
X013302Y028840D01*
X013302Y028885D02*
X013237Y029042D01*
X013117Y029162D01*
X012960Y029227D01*
X012790Y029227D01*
X012633Y029162D01*
X012513Y029042D01*
X012448Y028885D01*
X012448Y028715D01*
X012513Y028558D01*
X012633Y028438D01*
X012790Y028373D01*
X012960Y028373D01*
X013117Y028438D01*
X013237Y028558D01*
X013302Y028715D01*
X013302Y028885D01*
X013280Y028939D02*
X013450Y028939D01*
X013495Y029037D02*
X013239Y029037D01*
X013143Y029136D02*
X013579Y029136D01*
X013827Y029136D02*
X013923Y029136D01*
X013923Y029037D02*
X013827Y029037D01*
X013827Y028939D02*
X013923Y028939D01*
X013923Y028742D02*
X013827Y028742D01*
X013827Y028643D02*
X013923Y028643D01*
X013923Y028545D02*
X013827Y028545D01*
X013827Y028446D02*
X013923Y028446D01*
X014148Y028446D02*
X015625Y028446D01*
X015527Y028545D02*
X014242Y028545D01*
X014294Y028643D02*
X015478Y028643D01*
X015671Y026378D02*
X014116Y026378D01*
X014225Y026279D02*
X015550Y026279D01*
X015488Y026181D02*
X014285Y026181D01*
X014314Y026082D02*
X015448Y026082D01*
X016079Y026378D02*
X016671Y026378D01*
X016550Y026279D02*
X016200Y026279D01*
X016262Y026181D02*
X016488Y026181D01*
X016448Y026082D02*
X016302Y026082D01*
X016302Y025984D02*
X016448Y025984D01*
X016461Y025885D02*
X016289Y025885D01*
X016249Y025787D02*
X016501Y025787D01*
X016583Y025688D02*
X016167Y025688D01*
X017827Y026181D02*
X017923Y026181D01*
X017923Y026279D02*
X017827Y026279D01*
X017827Y026378D02*
X017923Y026378D01*
X018300Y028939D02*
X019432Y028939D01*
X014269Y022930D02*
X013302Y022930D01*
X013267Y022832D02*
X014196Y022832D01*
X014167Y022733D02*
X013212Y022733D01*
X013108Y022635D02*
X013976Y022635D01*
X012583Y025688D02*
X012167Y025688D01*
X012249Y025787D02*
X012501Y025787D01*
X012461Y025885D02*
X012289Y025885D01*
X012302Y025984D02*
X012448Y025984D01*
X012448Y026082D02*
X012302Y026082D01*
X012262Y026181D02*
X012488Y026181D01*
X012550Y026279D02*
X012200Y026279D01*
X012079Y026378D02*
X012671Y026378D01*
X011671Y026378D02*
X010116Y026378D01*
X010109Y026382D02*
X010047Y026414D01*
X009980Y026436D01*
X009923Y026445D01*
X009923Y026048D01*
X010320Y026048D01*
X010311Y026105D01*
X010289Y026172D01*
X010257Y026234D01*
X010216Y026291D01*
X010166Y026341D01*
X010109Y026382D01*
X010225Y026279D02*
X011550Y026279D01*
X011488Y026181D02*
X010285Y026181D01*
X010314Y026082D02*
X011448Y026082D01*
X009923Y026082D02*
X009827Y026082D01*
X009827Y026181D02*
X009923Y026181D01*
X009923Y026279D02*
X009827Y026279D01*
X009827Y026378D02*
X009923Y026378D01*
X008671Y026378D02*
X008079Y026378D01*
X008200Y026279D02*
X008550Y026279D01*
X008488Y026181D02*
X008262Y026181D01*
X008302Y026082D02*
X008448Y026082D01*
X008448Y025984D02*
X008302Y025984D01*
X008289Y025885D02*
X008461Y025885D01*
X008501Y025787D02*
X008249Y025787D01*
X008167Y025688D02*
X008583Y025688D01*
X008790Y028373D02*
X008633Y028438D01*
X008513Y028558D01*
X008448Y028715D01*
X008448Y028885D01*
X008513Y029042D01*
X008633Y029162D01*
X008790Y029227D01*
X008960Y029227D01*
X009117Y029162D01*
X009237Y029042D01*
X009302Y028885D01*
X009302Y028715D01*
X009237Y028558D01*
X009117Y028438D01*
X008960Y028373D01*
X008790Y028373D01*
X008625Y028446D02*
X008125Y028446D01*
X008117Y028438D02*
X008237Y028558D01*
X008302Y028715D01*
X008302Y028885D01*
X008237Y029042D01*
X008117Y029162D01*
X007960Y029227D01*
X007790Y029227D01*
X007633Y029162D01*
X007513Y029042D01*
X007448Y028885D01*
X007448Y028715D01*
X007513Y028558D01*
X007633Y028438D01*
X007790Y028373D01*
X007960Y028373D01*
X008117Y028438D01*
X008223Y028545D02*
X008527Y028545D01*
X008478Y028643D02*
X008272Y028643D01*
X008302Y028742D02*
X008448Y028742D01*
X008448Y028840D02*
X008302Y028840D01*
X008280Y028939D02*
X008470Y028939D01*
X008511Y029037D02*
X008239Y029037D01*
X008143Y029136D02*
X008607Y029136D01*
X009125Y028446D02*
X009602Y028446D01*
X009508Y028545D02*
X009223Y028545D01*
X009272Y028643D02*
X009456Y028643D01*
X009432Y028742D02*
X009302Y028742D01*
X009302Y028840D02*
X009827Y028840D01*
X009923Y028840D02*
X011448Y028840D01*
X011448Y028885D02*
X011448Y028715D01*
X011513Y028558D01*
X011633Y028438D01*
X011790Y028373D01*
X011960Y028373D01*
X012117Y028438D01*
X012237Y028558D01*
X012302Y028715D01*
X012302Y028885D01*
X012237Y029042D01*
X012117Y029162D01*
X011960Y029227D01*
X011790Y029227D01*
X011633Y029162D01*
X011513Y029042D01*
X011448Y028885D01*
X011470Y028939D02*
X010300Y028939D01*
X010255Y029037D02*
X011511Y029037D01*
X011607Y029136D02*
X010171Y029136D01*
X009923Y029136D02*
X009827Y029136D01*
X009827Y029037D02*
X009923Y029037D01*
X009923Y028939D02*
X009827Y028939D01*
X009827Y028742D02*
X009923Y028742D01*
X009923Y028752D02*
X009923Y028355D01*
X009980Y028364D01*
X010047Y028386D01*
X010109Y028418D01*
X010166Y028459D01*
X010216Y028509D01*
X010257Y028566D01*
X010289Y028628D01*
X010311Y028695D01*
X010320Y028752D01*
X009923Y028752D01*
X009923Y028643D02*
X009827Y028643D01*
X009827Y028545D02*
X009923Y028545D01*
X009923Y028446D02*
X009827Y028446D01*
X010148Y028446D02*
X011625Y028446D01*
X011527Y028545D02*
X010242Y028545D01*
X010294Y028643D02*
X011478Y028643D01*
X011448Y028742D02*
X010318Y028742D01*
X009579Y029136D02*
X009143Y029136D01*
X009239Y029037D02*
X009495Y029037D01*
X009450Y028939D02*
X009280Y028939D01*
X007625Y028446D02*
X006148Y028446D01*
X006166Y028459D02*
X006216Y028509D01*
X006257Y028566D01*
X006289Y028628D01*
X006311Y028695D01*
X006320Y028752D01*
X005923Y028752D01*
X005923Y028355D01*
X005980Y028364D01*
X006047Y028386D01*
X006109Y028418D01*
X006166Y028459D01*
X006242Y028545D02*
X007527Y028545D01*
X007478Y028643D02*
X006294Y028643D01*
X006318Y028742D02*
X007448Y028742D01*
X007448Y028840D02*
X005923Y028840D01*
X005827Y028840D02*
X005302Y028840D01*
X005302Y028885D02*
X005237Y029042D01*
X005117Y029162D01*
X004960Y029227D01*
X004790Y029227D01*
X004633Y029162D01*
X004513Y029042D01*
X004448Y028885D01*
X004448Y028715D01*
X004513Y028558D01*
X004633Y028438D01*
X004790Y028373D01*
X004960Y028373D01*
X005117Y028438D01*
X005237Y028558D01*
X005302Y028715D01*
X005302Y028885D01*
X005280Y028939D02*
X005450Y028939D01*
X005495Y029037D02*
X005239Y029037D01*
X005143Y029136D02*
X005579Y029136D01*
X005827Y029136D02*
X005923Y029136D01*
X005923Y029037D02*
X005827Y029037D01*
X005827Y028939D02*
X005923Y028939D01*
X005923Y028742D02*
X005827Y028742D01*
X005827Y028643D02*
X005923Y028643D01*
X005923Y028545D02*
X005827Y028545D01*
X005827Y028446D02*
X005923Y028446D01*
X005602Y028446D02*
X005125Y028446D01*
X005223Y028545D02*
X005508Y028545D01*
X005456Y028643D02*
X005272Y028643D01*
X005302Y028742D02*
X005432Y028742D01*
X004625Y028446D02*
X004125Y028446D01*
X004223Y028545D02*
X004527Y028545D01*
X004478Y028643D02*
X004272Y028643D01*
X004302Y028742D02*
X004448Y028742D01*
X004448Y028840D02*
X004302Y028840D01*
X004280Y028939D02*
X004470Y028939D01*
X004511Y029037D02*
X004239Y029037D01*
X004143Y029136D02*
X004607Y029136D01*
X006171Y029136D02*
X007607Y029136D01*
X007511Y029037D02*
X006255Y029037D01*
X006300Y028939D02*
X007470Y028939D01*
X003923Y022930D02*
X003827Y022930D01*
X003827Y022832D02*
X003923Y022832D01*
X003923Y022733D02*
X003827Y022733D01*
X003827Y022635D02*
X003923Y022635D01*
X002998Y022536D02*
X000375Y022536D01*
X000375Y022438D02*
X002967Y022438D01*
X002967Y022339D02*
X003014Y022225D01*
X002143Y020665D02*
X004908Y020665D01*
X004900Y020661D02*
X004814Y020575D01*
X004767Y020461D01*
X004767Y020339D01*
X004814Y020225D01*
X004900Y020139D01*
X005014Y020092D01*
X005136Y020092D01*
X005250Y020139D01*
X005336Y020225D01*
X005383Y020339D01*
X005383Y020461D01*
X005336Y020575D01*
X005250Y020661D01*
X005136Y020708D01*
X005014Y020708D01*
X004900Y020661D01*
X004810Y020566D02*
X000375Y020566D01*
X000375Y020468D02*
X004769Y020468D01*
X004767Y020369D02*
X002099Y020369D01*
X002208Y020271D02*
X004795Y020271D01*
X004867Y020172D02*
X002266Y020172D01*
X002286Y019877D02*
X006637Y019877D01*
X006517Y019778D02*
X002245Y019778D01*
X002158Y019680D02*
X006474Y019680D01*
X006467Y019581D02*
X001979Y019581D01*
X001572Y018301D02*
X001178Y018301D01*
X001253Y018202D02*
X001497Y018202D01*
X001456Y018104D02*
X001294Y018104D01*
X001302Y018005D02*
X001448Y018005D01*
X001452Y017907D02*
X001298Y017907D01*
X001258Y017808D02*
X001492Y017808D01*
X001562Y017710D02*
X001188Y017710D01*
X001051Y017611D02*
X001699Y017611D01*
X001759Y017414D02*
X000991Y017414D01*
X000960Y017427D02*
X000790Y017427D01*
X000633Y017362D01*
X000513Y017242D01*
X000448Y017085D01*
X000448Y016915D01*
X000513Y016758D01*
X000633Y016638D01*
X000790Y016573D01*
X000960Y016573D01*
X001117Y016638D01*
X001237Y016758D01*
X001302Y016915D01*
X001302Y017085D01*
X001237Y017242D01*
X001117Y017362D01*
X000960Y017427D01*
X000759Y017414D02*
X000375Y017414D01*
X000375Y017316D02*
X000587Y017316D01*
X000503Y017217D02*
X000375Y017217D01*
X000375Y017119D02*
X000462Y017119D01*
X000448Y017020D02*
X000375Y017020D01*
X000375Y016922D02*
X000448Y016922D01*
X000486Y016823D02*
X000375Y016823D01*
X000375Y016725D02*
X000547Y016725D01*
X000662Y016626D02*
X000375Y016626D01*
X000375Y016528D02*
X005861Y016528D01*
X005793Y016626D02*
X002088Y016626D01*
X001662Y016626D02*
X001088Y016626D01*
X001203Y016725D02*
X001547Y016725D01*
X001486Y016823D02*
X001264Y016823D01*
X001302Y016922D02*
X001448Y016922D01*
X001448Y017020D02*
X001302Y017020D01*
X001288Y017119D02*
X001462Y017119D01*
X001503Y017217D02*
X001247Y017217D01*
X001163Y017316D02*
X001587Y017316D01*
X001991Y017414D02*
X004018Y017414D01*
X004017Y017316D02*
X002163Y017316D01*
X001602Y016331D02*
X001148Y016331D01*
X001241Y016232D02*
X001509Y016232D01*
X001468Y016134D02*
X001282Y016134D01*
X001302Y016035D02*
X001448Y016035D01*
X001448Y015937D02*
X001302Y015937D01*
X001270Y015838D02*
X001480Y015838D01*
X001532Y015740D02*
X001218Y015740D01*
X001120Y015641D02*
X001630Y015641D01*
X001617Y015346D02*
X001133Y015346D01*
X001232Y015247D02*
X001518Y015247D01*
X001475Y015149D02*
X001275Y015149D01*
X001302Y015050D02*
X001448Y015050D01*
X001448Y014952D02*
X001302Y014952D01*
X001276Y014853D02*
X001474Y014853D01*
X001517Y014755D02*
X001233Y014755D01*
X001135Y014656D02*
X001615Y014656D01*
X001632Y014361D02*
X001118Y014361D01*
X001217Y014262D02*
X001533Y014262D01*
X001481Y014164D02*
X001269Y014164D01*
X001302Y014065D02*
X001448Y014065D01*
X001448Y013967D02*
X001302Y013967D01*
X001282Y013868D02*
X001468Y013868D01*
X001508Y013770D02*
X001242Y013770D01*
X001150Y013671D02*
X001600Y013671D01*
X001666Y013376D02*
X001084Y013376D01*
X001202Y013277D02*
X001548Y013277D01*
X001487Y013179D02*
X001263Y013179D01*
X001302Y013080D02*
X001448Y013080D01*
X001448Y012982D02*
X001302Y012982D01*
X001289Y012883D02*
X001461Y012883D01*
X001502Y012785D02*
X001248Y012785D01*
X001165Y012686D02*
X001585Y012686D01*
X004064Y017525D02*
X004150Y017611D01*
X005675Y015937D02*
X007475Y015937D01*
X007398Y015838D02*
X005752Y015838D01*
X005783Y015740D02*
X007367Y015740D01*
X007367Y015641D02*
X005783Y015641D01*
X005744Y015543D02*
X007406Y015543D01*
X007495Y015444D02*
X005655Y015444D01*
X006289Y016528D02*
X006527Y016528D01*
X006413Y016626D02*
X006357Y016626D01*
X006338Y016922D02*
X006392Y016922D01*
X006459Y017020D02*
X006229Y017020D01*
X006891Y017020D02*
X007719Y017020D01*
X008341Y017535D02*
X008376Y017496D01*
X008410Y017456D01*
X008440Y017413D01*
X008468Y017369D01*
X008492Y017323D01*
X008514Y017275D01*
X008533Y017226D01*
X008548Y017176D01*
X008560Y017125D01*
X008568Y017073D01*
X008573Y017021D01*
X008575Y016969D01*
X008575Y016000D01*
X010375Y014200D01*
X010375Y012500D01*
X009423Y011012D02*
X013467Y011012D01*
X013477Y010913D02*
X009288Y010913D01*
X008073Y009239D02*
X012277Y009239D01*
X012199Y009140D02*
X008122Y009140D01*
X008133Y009042D02*
X012167Y009042D01*
X012167Y008943D02*
X008115Y008943D01*
X008056Y008845D02*
X008683Y008845D01*
X008602Y008746D02*
X007897Y008746D01*
X008458Y008254D02*
X008981Y008254D01*
X009034Y008155D02*
X008545Y008155D01*
X007610Y010322D02*
X014040Y010322D01*
X013918Y010421D02*
X007732Y010421D01*
X007775Y010519D02*
X013875Y010519D01*
X013867Y010618D02*
X007783Y010618D01*
X007761Y010716D02*
X013655Y010716D01*
X013524Y010815D02*
X007697Y010815D01*
X007528Y012883D02*
X012356Y012883D01*
X012290Y012982D02*
X007401Y012982D01*
X010142Y015838D02*
X010202Y015838D01*
X007841Y016922D02*
X006958Y016922D01*
X007675Y017700D02*
X007941Y017700D01*
X007985Y017698D01*
X008030Y017693D01*
X008073Y017684D01*
X008116Y017672D01*
X008158Y017657D01*
X008198Y017638D01*
X008237Y017617D01*
X008274Y017592D01*
X008309Y017564D01*
X008341Y017534D01*
X008367Y020172D02*
X006983Y020172D01*
X006950Y020139D02*
X007036Y020225D01*
X007083Y020339D01*
X007083Y020461D01*
X007036Y020575D01*
X006950Y020661D01*
X006836Y020708D01*
X006714Y020708D01*
X006600Y020661D01*
X006514Y020575D01*
X006467Y020461D01*
X006467Y020339D01*
X006514Y020225D01*
X006600Y020139D01*
X006714Y020092D01*
X006836Y020092D01*
X006950Y020139D01*
X007055Y020271D02*
X008295Y020271D01*
X008267Y020369D02*
X007083Y020369D01*
X007081Y020468D02*
X008269Y020468D01*
X008310Y020566D02*
X007040Y020566D01*
X006942Y020665D02*
X008408Y020665D01*
X006608Y020665D02*
X005242Y020665D01*
X005340Y020566D02*
X006510Y020566D01*
X006469Y020468D02*
X005381Y020468D01*
X005383Y020369D02*
X006467Y020369D01*
X006495Y020271D02*
X005355Y020271D01*
X005283Y020172D02*
X006567Y020172D01*
X001642Y022635D02*
X001108Y022635D01*
X001117Y022638D02*
X001237Y022758D01*
X001302Y022915D01*
X001302Y023085D01*
X001237Y023242D01*
X001117Y023362D01*
X000960Y023427D01*
X000790Y023427D01*
X000633Y023362D01*
X000513Y023242D01*
X000448Y023085D01*
X000448Y022915D01*
X000513Y022758D01*
X000633Y022638D01*
X000790Y022573D01*
X000960Y022573D01*
X001117Y022638D01*
X001212Y022733D02*
X001538Y022733D01*
X001483Y022832D02*
X001267Y022832D01*
X001302Y022930D02*
X001448Y022930D01*
X001448Y023029D02*
X001302Y023029D01*
X001284Y023127D02*
X001466Y023127D01*
X001506Y023226D02*
X001244Y023226D01*
X001155Y023324D02*
X001595Y023324D01*
X000780Y023423D02*
X000375Y023423D01*
X000375Y023324D02*
X000595Y023324D01*
X000506Y023226D02*
X000375Y023226D01*
X000375Y023127D02*
X000466Y023127D01*
X000448Y023029D02*
X000375Y023029D01*
X000375Y022930D02*
X000448Y022930D01*
X000483Y022832D02*
X000375Y022832D01*
X000375Y022733D02*
X000538Y022733D01*
X000642Y022635D02*
X000375Y022635D01*
X000375Y022339D02*
X000610Y022339D01*
X000513Y022241D02*
X000375Y022241D01*
X000375Y022142D02*
X000472Y022142D01*
X000448Y022044D02*
X000375Y022044D01*
X000375Y021945D02*
X000448Y021945D01*
X000477Y021847D02*
X000375Y021847D01*
X000375Y021748D02*
X000523Y021748D01*
X000622Y021650D02*
X000375Y021650D01*
X000375Y021354D02*
X000625Y021354D01*
X000527Y021256D02*
X000375Y021256D01*
X000375Y021157D02*
X000478Y021157D01*
X000448Y021059D02*
X000375Y021059D01*
X000375Y020960D02*
X000448Y020960D01*
X000470Y020862D02*
X000375Y020862D01*
X000375Y020763D02*
X000511Y020763D01*
X000607Y020665D02*
X000375Y020665D01*
X000375Y020369D02*
X000651Y020369D01*
X000542Y020271D02*
X000375Y020271D01*
X000375Y020172D02*
X000484Y020172D01*
X000448Y020074D02*
X000375Y020074D01*
X000375Y019975D02*
X000448Y019975D01*
X000464Y019877D02*
X000375Y019877D01*
X000375Y019778D02*
X000505Y019778D01*
X000592Y019680D02*
X000375Y019680D01*
X000375Y025590D02*
X000750Y025590D01*
X000583Y025688D02*
X000375Y025688D01*
X000375Y025787D02*
X000501Y025787D01*
X000461Y025885D02*
X000375Y025885D01*
X000375Y025984D02*
X000448Y025984D01*
X000448Y026082D02*
X000375Y026082D01*
X000375Y026181D02*
X000488Y026181D01*
X000550Y026279D02*
X000375Y026279D01*
X012125Y028446D02*
X012625Y028446D01*
X012527Y028545D02*
X012223Y028545D01*
X012272Y028643D02*
X012478Y028643D01*
X012448Y028742D02*
X012302Y028742D01*
X012302Y028840D02*
X012448Y028840D01*
X012470Y028939D02*
X012280Y028939D01*
X012239Y029037D02*
X012511Y029037D01*
X012607Y029136D02*
X012143Y029136D01*
X013125Y028446D02*
X013602Y028446D01*
X013508Y028545D02*
X013223Y028545D01*
X013272Y028643D02*
X013456Y028643D01*
X013432Y028742D02*
X013302Y028742D01*
X013827Y026378D02*
X013923Y026378D01*
X013923Y026279D02*
X013827Y026279D01*
X013827Y026181D02*
X013923Y026181D01*
X016137Y017808D02*
X017747Y017808D01*
X017687Y017710D02*
X016302Y017710D01*
X016363Y017611D02*
X017667Y017611D01*
X017677Y017513D02*
X016383Y017513D01*
X016373Y017414D02*
X017725Y017414D01*
X017856Y017316D02*
X016327Y017316D01*
X017775Y016300D02*
X017775Y016200D01*
X017186Y015247D02*
X015545Y015247D01*
X015460Y015149D02*
X017103Y015149D01*
X016627Y013671D02*
X018595Y013671D01*
X018666Y013573D02*
X016737Y013573D01*
X015552Y012883D02*
X013198Y012883D01*
X013327Y012785D02*
X015423Y012785D01*
X015377Y012686D02*
X013373Y012686D01*
X013383Y012588D02*
X015367Y012588D01*
X015387Y012489D02*
X013363Y012489D01*
X013302Y012391D02*
X015448Y012391D01*
X015090Y015149D02*
X013760Y015149D01*
X013845Y015247D02*
X015005Y015247D01*
X014967Y015346D02*
X013883Y015346D01*
X013883Y015444D02*
X014967Y015444D01*
X015000Y015543D02*
X013850Y015543D01*
X013770Y015641D02*
X015080Y015641D01*
X018733Y010322D02*
X019593Y010322D01*
X019506Y010224D02*
X018613Y010224D01*
X018565Y010027D02*
X013556Y010027D01*
X013583Y009928D02*
X018494Y009928D01*
X018467Y009830D02*
X013580Y009830D01*
X013539Y009731D02*
X018470Y009731D01*
X018171Y009633D02*
X013435Y009633D01*
X013486Y010125D02*
X019465Y010125D01*
X019448Y010027D02*
X018985Y010027D01*
X019056Y009928D02*
X019448Y009928D01*
X019484Y009830D02*
X019083Y009830D01*
X019080Y009731D02*
X019540Y009731D01*
X019647Y009633D02*
X019039Y009633D01*
X018939Y009534D02*
X021375Y009534D01*
X021375Y009633D02*
X021103Y009633D01*
X021210Y009731D02*
X021375Y009731D01*
X021375Y009830D02*
X021266Y009830D01*
X021302Y009928D02*
X021375Y009928D01*
X021375Y010027D02*
X021302Y010027D01*
X021285Y010125D02*
X021375Y010125D01*
X021375Y010224D02*
X021244Y010224D01*
X021157Y010322D02*
X021375Y010322D01*
X021375Y011603D02*
X021031Y011603D01*
X021180Y011701D02*
X021375Y011701D01*
X021375Y011800D02*
X021254Y011800D01*
X021295Y011898D02*
X021375Y011898D01*
X021375Y011997D02*
X021302Y011997D01*
X021298Y012095D02*
X021375Y012095D01*
X021375Y012194D02*
X021257Y012194D01*
X021187Y012292D02*
X021375Y012292D01*
X020702Y012391D02*
X020048Y012391D01*
X020187Y012292D02*
X020563Y012292D01*
X020493Y012194D02*
X020257Y012194D01*
X020298Y012095D02*
X020452Y012095D01*
X020448Y011997D02*
X020302Y011997D01*
X020295Y011898D02*
X020455Y011898D01*
X020496Y011800D02*
X020254Y011800D01*
X020180Y011701D02*
X020570Y011701D01*
X020719Y011603D02*
X020031Y011603D01*
X019518Y015247D02*
X019058Y015247D01*
X019145Y015346D02*
X019617Y015346D01*
X015480Y009042D02*
X012783Y009042D01*
X012783Y008943D02*
X015400Y008943D01*
X015367Y008845D02*
X012744Y008845D01*
X012657Y008746D02*
X015367Y008746D01*
X019827Y007367D02*
X019923Y007367D01*
X019923Y007269D02*
X019827Y007269D01*
X019827Y007170D02*
X019923Y007170D01*
D15*
X015375Y013500D03*
M02*
