G75*
%MOIN*%
%OFA0B0*%
%FSLAX24Y24*%
%IPPOS*%
%LPD*%
%AMOC8*
5,1,8,0,0,1.08239X$1,22.5*
%
%ADD10R,0.0138X0.0354*%
%ADD11R,0.0433X0.0394*%
%ADD12R,0.0394X0.0433*%
%ADD13R,0.0354X0.0138*%
%ADD14R,0.0217X0.0472*%
D10*
X009607Y010768D03*
X009863Y010768D03*
X010119Y010768D03*
X010375Y010768D03*
X010631Y010768D03*
X010887Y010768D03*
X011143Y010768D03*
X011143Y013032D03*
X010887Y013032D03*
X010631Y013032D03*
X010375Y013032D03*
X010119Y013032D03*
X009863Y013032D03*
X009607Y013032D03*
X015207Y011968D03*
X015463Y011968D03*
X015719Y011968D03*
X015975Y011968D03*
X016231Y011968D03*
X016487Y011968D03*
X016743Y011968D03*
X016743Y014232D03*
X016487Y014232D03*
X016231Y014232D03*
X015975Y014232D03*
X015719Y014232D03*
X015463Y014232D03*
X015207Y014232D03*
D11*
X014175Y014065D03*
X014175Y014735D03*
X014040Y015400D03*
X014175Y016165D03*
X014710Y015400D03*
X014940Y016800D03*
X015610Y016800D03*
X016540Y016200D03*
X017210Y016200D03*
X017975Y014835D03*
X017975Y014165D03*
X018075Y011935D03*
X018075Y011265D03*
X015610Y010300D03*
X014940Y010300D03*
X014175Y011365D03*
X014175Y012035D03*
X012675Y011935D03*
X012675Y011265D03*
X011775Y010735D03*
X011775Y010065D03*
X012010Y009500D03*
X011340Y009500D03*
X010675Y009365D03*
X010675Y008835D03*
X010675Y008165D03*
X010010Y009200D03*
X010675Y010035D03*
X009340Y009200D03*
X008575Y010065D03*
X008575Y010735D03*
X008575Y013165D03*
X008575Y013835D03*
X009440Y013800D03*
X010110Y013800D03*
X010775Y013865D03*
X010775Y014535D03*
X011440Y014400D03*
X011775Y013735D03*
X011775Y013065D03*
X012110Y014400D03*
X010275Y017265D03*
X010275Y017935D03*
X009875Y018365D03*
X009710Y017800D03*
X009040Y017800D03*
X009875Y019035D03*
X009875Y020065D03*
X009875Y020735D03*
X010175Y021165D03*
X009610Y021200D03*
X010175Y021835D03*
X008940Y021200D03*
X007110Y021300D03*
X006440Y021300D03*
X004610Y021300D03*
X003940Y021300D03*
X003675Y020735D03*
X003375Y021165D03*
X003375Y021835D03*
X003675Y020065D03*
X003675Y019135D03*
X003675Y018465D03*
X003375Y018035D03*
X003375Y017365D03*
X003940Y017900D03*
X004610Y017900D03*
X006440Y018100D03*
X007110Y018100D03*
X008540Y015400D03*
X009210Y015400D03*
X005910Y011100D03*
X005240Y011100D03*
X011575Y021165D03*
X011575Y021835D03*
X012575Y021835D03*
X012575Y021165D03*
X013575Y021165D03*
X013575Y021835D03*
X014575Y021835D03*
X014575Y021165D03*
X015575Y021165D03*
X015575Y021835D03*
X016575Y021835D03*
X016575Y021165D03*
X017575Y021165D03*
X017575Y021835D03*
X018575Y021835D03*
X018575Y021165D03*
X014175Y016835D03*
D12*
X014940Y016100D03*
X015610Y016100D03*
X016540Y015600D03*
X017210Y015600D03*
X017210Y017500D03*
X016540Y017500D03*
X017975Y013435D03*
X017975Y012765D03*
X017975Y010635D03*
X017975Y009965D03*
X017310Y009800D03*
X017310Y010500D03*
X016640Y010500D03*
X016640Y009800D03*
X016675Y009235D03*
X016675Y008565D03*
X016310Y008000D03*
X015640Y008000D03*
X015610Y010900D03*
X014940Y010900D03*
X014175Y012765D03*
X014175Y013435D03*
X012675Y010735D03*
X012675Y010065D03*
X011775Y011565D03*
X011775Y012235D03*
X010010Y009900D03*
X009340Y009900D03*
X008575Y011565D03*
X008575Y012235D03*
X008710Y014500D03*
X009440Y014800D03*
X009740Y015400D03*
X010110Y014800D03*
X010410Y015400D03*
X008475Y017465D03*
X008475Y018135D03*
X009175Y018465D03*
X009175Y019135D03*
X009175Y019965D03*
X009175Y020635D03*
X008375Y021165D03*
X008375Y021835D03*
X005175Y021835D03*
X005175Y021165D03*
X004375Y020735D03*
X004375Y020065D03*
X004375Y019235D03*
X004375Y018565D03*
X005175Y018035D03*
X005175Y017365D03*
X008040Y014500D03*
X006475Y010335D03*
X006475Y009665D03*
D13*
X005643Y018832D03*
X005643Y019088D03*
X005643Y019344D03*
X005643Y019600D03*
X005643Y019856D03*
X005643Y020112D03*
X005643Y020368D03*
X007907Y020368D03*
X007907Y020112D03*
X007907Y019856D03*
X007907Y019600D03*
X007907Y019344D03*
X007907Y019088D03*
X007907Y018832D03*
D14*
X005101Y009488D03*
X005849Y009488D03*
X005849Y010512D03*
X005475Y010512D03*
X005101Y010512D03*
M02*
