G75*
%MOIN*%
%OFA0B0*%
%FSLAX24Y24*%
%IPPOS*%
%LPD*%
%AMOC8*
5,1,8,0,0,1.08239X$1,22.5*
%
%ADD10R,0.0674X0.0674*%
%ADD11C,0.0674*%
%ADD12C,0.0674*%
%ADD13R,0.0218X0.0434*%
%ADD14R,0.0513X0.0474*%
%ADD15R,0.0474X0.0513*%
%ADD16C,0.0820*%
%ADD17R,0.0434X0.0218*%
%ADD18R,0.0297X0.0552*%
%ADD19C,0.1085*%
%ADD20C,0.0740*%
D10*
X001875Y007000D03*
X020875Y007000D03*
D11*
X000875Y007000D03*
X000875Y008000D03*
X000875Y009000D03*
X000875Y010000D03*
X000875Y011000D03*
X000875Y012000D03*
X000875Y013000D03*
X000875Y014000D03*
X000875Y015000D03*
X000875Y016000D03*
X000875Y017000D03*
X000875Y018000D03*
X000875Y019000D03*
X000875Y020000D03*
X000875Y021000D03*
X000875Y022000D03*
X000875Y023000D03*
X000875Y024000D03*
X000875Y025000D03*
X000875Y026000D03*
X000875Y027000D03*
X000875Y028000D03*
X000875Y029000D03*
X001875Y029000D03*
X001875Y028000D03*
X001875Y027000D03*
X001875Y026000D03*
X001875Y025000D03*
X001875Y024000D03*
X001875Y023000D03*
X001875Y022000D03*
X001875Y021000D03*
X001875Y020000D03*
X001875Y019000D03*
X001875Y018000D03*
X001875Y017000D03*
X001875Y016000D03*
X001875Y015000D03*
X001875Y014000D03*
X001875Y013000D03*
X001875Y012000D03*
X001875Y011000D03*
X001875Y010000D03*
X001875Y009000D03*
X001875Y008000D03*
X003875Y008000D03*
X003875Y007000D03*
X003875Y009000D03*
X003875Y010000D03*
X003875Y011000D03*
X003875Y012000D03*
X003875Y013000D03*
X003875Y014000D03*
X003875Y015000D03*
X003875Y016000D03*
X003875Y023000D03*
X004875Y023000D03*
X005875Y023000D03*
X006875Y023000D03*
X007875Y023000D03*
X008875Y023000D03*
X009875Y023000D03*
X010875Y023000D03*
X011875Y023000D03*
X012875Y023000D03*
X019875Y023000D03*
X019875Y022000D03*
X019875Y021000D03*
X019875Y020000D03*
X019875Y019000D03*
X019875Y018000D03*
X019875Y017000D03*
X019875Y016000D03*
X019875Y015000D03*
X019875Y014000D03*
X019875Y013000D03*
X019875Y012000D03*
X019875Y011000D03*
X019875Y010000D03*
X019875Y009000D03*
X019875Y008000D03*
X019875Y007000D03*
X020875Y008000D03*
X020875Y009000D03*
X020875Y010000D03*
X020875Y011000D03*
X020875Y012000D03*
X020875Y013000D03*
X020875Y014000D03*
X020875Y015000D03*
X020875Y016000D03*
X020875Y017000D03*
X020875Y018000D03*
X020875Y019000D03*
X020875Y020000D03*
X020875Y021000D03*
X020875Y022000D03*
X020875Y023000D03*
X020875Y024000D03*
X020875Y025000D03*
X020875Y026000D03*
X020875Y027000D03*
X020875Y028000D03*
X020875Y029000D03*
X019875Y029000D03*
X019875Y028000D03*
X019875Y027000D03*
X019875Y026000D03*
X019875Y025000D03*
X019875Y024000D03*
D12*
X017875Y025703D02*
X017875Y026297D01*
X016875Y026297D02*
X016875Y025703D01*
X015875Y025703D02*
X015875Y026297D01*
X015875Y028503D02*
X015875Y029097D01*
X016875Y029097D02*
X016875Y028503D01*
X017875Y028503D02*
X017875Y029097D01*
X013875Y029097D02*
X013875Y028503D01*
X012875Y028503D02*
X012875Y029097D01*
X011875Y029097D02*
X011875Y028503D01*
X011875Y026297D02*
X011875Y025703D01*
X012875Y025703D02*
X012875Y026297D01*
X013875Y026297D02*
X013875Y025703D01*
X009875Y025703D02*
X009875Y026297D01*
X008875Y026297D02*
X008875Y025703D01*
X007875Y025703D02*
X007875Y026297D01*
X007875Y028503D02*
X007875Y029097D01*
X008875Y029097D02*
X008875Y028503D01*
X009875Y028503D02*
X009875Y029097D01*
X005875Y029097D02*
X005875Y028503D01*
X004875Y028503D02*
X004875Y029097D01*
X003875Y029097D02*
X003875Y028503D01*
X003875Y026297D02*
X003875Y025703D01*
X004875Y025703D02*
X004875Y026297D01*
X005875Y026297D02*
X005875Y025703D01*
D13*
X009607Y013032D03*
X009863Y013032D03*
X010119Y013032D03*
X010375Y013032D03*
X010631Y013032D03*
X010887Y013032D03*
X011143Y013032D03*
X011143Y010768D03*
X010887Y010768D03*
X010631Y010768D03*
X010375Y010768D03*
X010119Y010768D03*
X009863Y010768D03*
X009607Y010768D03*
X015207Y011968D03*
X015463Y011968D03*
X015719Y011968D03*
X015975Y011968D03*
X016231Y011968D03*
X016487Y011968D03*
X016743Y011968D03*
X016743Y014232D03*
X016487Y014232D03*
X016231Y014232D03*
X015975Y014232D03*
X015719Y014232D03*
X015463Y014232D03*
X015207Y014232D03*
D14*
X014175Y014065D03*
X014175Y014735D03*
X014040Y015400D03*
X014175Y016165D03*
X014710Y015400D03*
X014940Y016800D03*
X015610Y016800D03*
X016540Y016200D03*
X017210Y016200D03*
X017975Y014835D03*
X017975Y014165D03*
X018075Y011935D03*
X018075Y011265D03*
X015610Y010300D03*
X014940Y010300D03*
X014175Y011365D03*
X014175Y012035D03*
X012675Y011935D03*
X012675Y011265D03*
X011775Y010735D03*
X011775Y010065D03*
X012010Y009500D03*
X011340Y009500D03*
X010675Y009365D03*
X010675Y008835D03*
X010675Y008165D03*
X010010Y009200D03*
X010675Y010035D03*
X009340Y009200D03*
X008575Y010065D03*
X008575Y010735D03*
X008575Y013165D03*
X008575Y013835D03*
X009440Y013800D03*
X010110Y013800D03*
X010775Y013865D03*
X010775Y014535D03*
X011440Y014400D03*
X011775Y013735D03*
X011775Y013065D03*
X012110Y014400D03*
X010275Y017265D03*
X010275Y017935D03*
X009875Y018365D03*
X009710Y017800D03*
X009040Y017800D03*
X009875Y019035D03*
X009875Y020065D03*
X009875Y020735D03*
X010175Y021165D03*
X009610Y021200D03*
X010175Y021835D03*
X008940Y021200D03*
X007110Y021300D03*
X006440Y021300D03*
X004610Y021300D03*
X003940Y021300D03*
X003675Y020735D03*
X003375Y021165D03*
X003375Y021835D03*
X003675Y020065D03*
X003675Y019135D03*
X003675Y018465D03*
X003375Y018035D03*
X003375Y017365D03*
X003940Y017900D03*
X004610Y017900D03*
X006440Y018100D03*
X007110Y018100D03*
X008540Y015400D03*
X009210Y015400D03*
X005910Y011100D03*
X005240Y011100D03*
X011575Y021165D03*
X011575Y021835D03*
X012575Y021835D03*
X012575Y021165D03*
X013575Y021165D03*
X013575Y021835D03*
X014575Y021835D03*
X014575Y021165D03*
X015575Y021165D03*
X015575Y021835D03*
X016575Y021835D03*
X016575Y021165D03*
X017575Y021165D03*
X017575Y021835D03*
X018575Y021835D03*
X018575Y021165D03*
X014175Y016835D03*
D15*
X014940Y016100D03*
X015610Y016100D03*
X016540Y015600D03*
X017210Y015600D03*
X017210Y017500D03*
X016540Y017500D03*
X017975Y013435D03*
X017975Y012765D03*
X017975Y010635D03*
X017975Y009965D03*
X017310Y009800D03*
X017310Y010500D03*
X016640Y010500D03*
X016640Y009800D03*
X016675Y009235D03*
X016675Y008565D03*
X016310Y008000D03*
X015640Y008000D03*
X015610Y010900D03*
X014940Y010900D03*
X014175Y012765D03*
X014175Y013435D03*
X012675Y010735D03*
X012675Y010065D03*
X011775Y011565D03*
X011775Y012235D03*
X010010Y009900D03*
X009340Y009900D03*
X008575Y011565D03*
X008575Y012235D03*
X008710Y014500D03*
X009440Y014800D03*
X009740Y015400D03*
X010110Y014800D03*
X010410Y015400D03*
X008475Y017465D03*
X008475Y018135D03*
X009175Y018465D03*
X009175Y019135D03*
X009175Y019965D03*
X009175Y020635D03*
X008375Y021165D03*
X008375Y021835D03*
X005175Y021835D03*
X005175Y021165D03*
X004375Y020735D03*
X004375Y020065D03*
X004375Y019235D03*
X004375Y018565D03*
X005175Y018035D03*
X005175Y017365D03*
X008040Y014500D03*
X006475Y010335D03*
X006475Y009665D03*
D16*
X011575Y019300D03*
X011575Y020300D03*
X012575Y020300D03*
X012575Y019300D03*
X013575Y019300D03*
X013575Y020300D03*
X014575Y020300D03*
X014575Y019300D03*
X015575Y019300D03*
X015575Y020300D03*
X016575Y020300D03*
X016575Y019300D03*
X017575Y019300D03*
X017575Y020300D03*
X018575Y020300D03*
X018575Y019300D03*
D17*
X007907Y019344D03*
X007907Y019088D03*
X007907Y018832D03*
X007907Y019600D03*
X007907Y019856D03*
X007907Y020112D03*
X007907Y020368D03*
X005643Y020368D03*
X005643Y020112D03*
X005643Y019856D03*
X005643Y019600D03*
X005643Y019344D03*
X005643Y019088D03*
X005643Y018832D03*
D18*
X005475Y010512D03*
X005849Y010512D03*
X005101Y010512D03*
X005101Y009488D03*
X005849Y009488D03*
D19*
X017573Y007000D02*
X018578Y007000D01*
D20*
X012875Y024000D03*
X011875Y024000D03*
X010875Y024000D03*
X009875Y024000D03*
X008875Y024000D03*
X007875Y024000D03*
X006875Y024000D03*
X005875Y024000D03*
M02*
