G75*
%MOIN*%
%OFA0B0*%
%FSLAX24Y24*%
%IPPOS*%
%LPD*%
%AMOC8*
5,1,8,0,0,1.08239X$1,22.5*
%
%ADD10R,0.0138X0.0354*%
%ADD11R,0.0394X0.0433*%
%ADD12R,0.0433X0.0394*%
%ADD13R,0.0354X0.0138*%
D10*
X006007Y011368D03*
X006263Y011368D03*
X006519Y011368D03*
X006775Y011368D03*
X007031Y011368D03*
X007287Y011368D03*
X007543Y011368D03*
X007543Y013632D03*
X007287Y013632D03*
X007031Y013632D03*
X006775Y013632D03*
X006519Y013632D03*
X006263Y013632D03*
X006007Y013632D03*
X016007Y014132D03*
X016263Y014132D03*
X016519Y014132D03*
X016775Y014132D03*
X017031Y014132D03*
X017287Y014132D03*
X017543Y014132D03*
X017543Y011868D03*
X017287Y011868D03*
X017031Y011868D03*
X016775Y011868D03*
X016519Y011868D03*
X016263Y011868D03*
X016007Y011868D03*
D11*
X006275Y008065D03*
X006275Y008735D03*
X006310Y009300D03*
X006160Y010100D03*
X006110Y010700D03*
X005440Y010700D03*
X005490Y010100D03*
X005640Y009300D03*
X004775Y009165D03*
X004775Y009835D03*
X004975Y012265D03*
X004975Y012935D03*
X005740Y014900D03*
X006410Y014900D03*
X006375Y015465D03*
X006375Y016135D03*
X007075Y016235D03*
X007075Y015565D03*
X007040Y015000D03*
X007710Y015000D03*
X009240Y013600D03*
X009910Y013600D03*
X008675Y012735D03*
X008675Y012065D03*
X007810Y009900D03*
X007140Y009900D03*
X007175Y009335D03*
X007175Y008665D03*
X008475Y017465D03*
X008475Y018135D03*
X009175Y018465D03*
X009175Y019135D03*
X009175Y019965D03*
X009175Y020635D03*
X008475Y021165D03*
X008475Y021835D03*
X005175Y021835D03*
X005175Y021165D03*
X004475Y020635D03*
X004475Y019965D03*
X004475Y019235D03*
X004475Y018565D03*
X005175Y018135D03*
X005175Y017465D03*
X013540Y014200D03*
X014210Y014200D03*
X014875Y013435D03*
X014875Y012765D03*
X014975Y010435D03*
X015440Y010500D03*
X014975Y009765D03*
X015440Y009400D03*
X016110Y009400D03*
X016275Y008835D03*
X016275Y008165D03*
X017040Y008100D03*
X017710Y008100D03*
X017710Y010500D03*
X017040Y010500D03*
X016110Y010500D03*
X018475Y012665D03*
X018475Y013335D03*
X018110Y015600D03*
X018575Y015965D03*
X018575Y016635D03*
X018010Y016900D03*
X017340Y016900D03*
X017275Y017465D03*
X017275Y018135D03*
X017440Y015600D03*
X016510Y015500D03*
X015840Y015500D03*
D12*
X015840Y016200D03*
X016510Y016200D03*
X014875Y014835D03*
X014875Y014165D03*
X014875Y011735D03*
X014875Y011065D03*
X017040Y009800D03*
X017710Y009800D03*
X018475Y011165D03*
X018475Y011835D03*
X018575Y014265D03*
X018575Y014935D03*
X010375Y017365D03*
X010375Y018035D03*
X009875Y018465D03*
X009710Y017900D03*
X009040Y017900D03*
X009875Y019135D03*
X009875Y019965D03*
X009875Y020635D03*
X009710Y021300D03*
X009040Y021300D03*
X010375Y021165D03*
X010375Y021835D03*
X007110Y021500D03*
X006440Y021500D03*
X004610Y021200D03*
X003940Y021200D03*
X003775Y020635D03*
X003375Y021065D03*
X003375Y021735D03*
X003775Y019965D03*
X003775Y019235D03*
X003775Y018565D03*
X003375Y018135D03*
X003375Y017465D03*
X003940Y017900D03*
X004610Y017900D03*
X006440Y018100D03*
X007110Y018100D03*
X008540Y015000D03*
X008675Y014335D03*
X008675Y013665D03*
X009210Y015000D03*
X008175Y011335D03*
X008175Y010665D03*
X008875Y010635D03*
X008875Y009965D03*
X004975Y013465D03*
X004975Y014135D03*
X004975Y014665D03*
X004975Y015335D03*
D13*
X005643Y018832D03*
X005643Y019088D03*
X005643Y019344D03*
X005643Y019600D03*
X005643Y019856D03*
X005643Y020112D03*
X005643Y020368D03*
X007907Y020368D03*
X007907Y020112D03*
X007907Y019856D03*
X007907Y019600D03*
X007907Y019344D03*
X007907Y019088D03*
X007907Y018832D03*
M02*
