G75*
%MOIN*%
%OFA0B0*%
%FSLAX24Y24*%
%IPPOS*%
%LPD*%
%AMOC8*
5,1,8,0,0,1.08239X$1,22.5*
%
%ADD10C,0.0110*%
%ADD11R,0.0354X0.0138*%
%ADD12C,0.0118*%
%ADD13R,0.0984X0.0984*%
%ADD14R,0.0433X0.0394*%
%ADD15R,0.0138X0.0354*%
%ADD16R,0.0394X0.0433*%
%ADD17R,0.0197X0.0256*%
%ADD18R,0.0866X0.0236*%
%ADD19R,0.0551X0.0630*%
%ADD20R,0.0594X0.0594*%
%ADD21C,0.0594*%
%ADD22R,0.0217X0.0472*%
%ADD23R,0.0740X0.0740*%
%ADD24C,0.0740*%
%ADD25R,0.0315X0.0112*%
%ADD26R,0.0112X0.0315*%
%ADD27R,0.1240X0.1240*%
%ADD28C,0.0594*%
%ADD29R,0.0256X0.0197*%
%ADD30R,0.0120X0.0390*%
%ADD31R,0.0630X0.0551*%
%ADD32C,0.0600*%
%ADD33R,0.0413X0.0256*%
%ADD34OC8,0.0600*%
%ADD35R,0.0551X0.0394*%
%ADD36C,0.0100*%
%ADD37C,0.0310*%
%ADD38C,0.0080*%
%ADD39C,0.0160*%
%ADD40C,0.0240*%
%ADD41C,0.0320*%
%ADD42C,0.0120*%
D10*
X030821Y019530D02*
X030821Y019924D01*
X031018Y020121D01*
X031215Y019924D01*
X031215Y019530D01*
X031466Y019530D02*
X031466Y020121D01*
X031761Y020121D01*
X031860Y020022D01*
X031860Y019825D01*
X031761Y019727D01*
X031466Y019727D01*
X031215Y019825D02*
X030821Y019825D01*
X032110Y019530D02*
X032110Y020121D01*
X032307Y019924D01*
X032504Y020121D01*
X032504Y019530D01*
D11*
X012491Y014921D03*
X012491Y014665D03*
X012491Y014409D03*
X012491Y014153D03*
X012491Y013897D03*
X012491Y013641D03*
X012491Y013385D03*
X012491Y013129D03*
X010109Y013129D03*
X010109Y013385D03*
X010109Y013641D03*
X010109Y013897D03*
X010109Y014153D03*
X010109Y014409D03*
X010109Y014665D03*
X010109Y014921D03*
D12*
X016453Y013319D02*
X016611Y013319D01*
X016611Y013122D02*
X016453Y013122D01*
X016453Y012925D02*
X016611Y012925D01*
X016611Y012728D02*
X016453Y012728D01*
X016453Y012531D02*
X016611Y012531D01*
X016906Y012236D02*
X016906Y012078D01*
X017103Y012078D02*
X017103Y012236D01*
X017300Y012236D02*
X017300Y012078D01*
X017497Y012078D02*
X017497Y012236D01*
X017694Y012236D02*
X017694Y012078D01*
X017989Y012531D02*
X018147Y012531D01*
X018147Y012728D02*
X017989Y012728D01*
X017989Y012925D02*
X018147Y012925D01*
X018147Y013122D02*
X017989Y013122D01*
X017989Y013319D02*
X018147Y013319D01*
X017694Y013614D02*
X017694Y013772D01*
X017497Y013772D02*
X017497Y013614D01*
X017300Y013614D02*
X017300Y013772D01*
X017103Y013772D02*
X017103Y013614D01*
X016906Y013614D02*
X016906Y013772D01*
D13*
X017300Y012925D03*
D14*
X018765Y012725D03*
X019435Y012725D03*
X019435Y013325D03*
X018765Y013325D03*
X018565Y011525D03*
X019235Y011525D03*
X017375Y010175D03*
X016705Y010175D03*
X019765Y006925D03*
X020435Y006925D03*
X020435Y006125D03*
X019765Y006125D03*
X019765Y005125D03*
X020435Y005125D03*
X020435Y004325D03*
X019765Y004325D03*
X022365Y003461D03*
X023035Y003461D03*
X025465Y003325D03*
X026135Y003325D03*
X026135Y004225D03*
X025465Y004225D03*
X025465Y005025D03*
X026135Y005025D03*
X026135Y005825D03*
X025465Y005825D03*
X025265Y007125D03*
X025935Y007125D03*
X029300Y007210D03*
X030052Y007216D03*
X030052Y006547D03*
X029300Y006540D03*
X029300Y005910D03*
X030052Y005926D03*
X030052Y005256D03*
X029300Y005240D03*
X029362Y004316D03*
X028692Y004316D03*
X028702Y003575D03*
X029372Y003575D03*
X029380Y002816D03*
X030024Y002816D03*
X030694Y002816D03*
X028711Y002816D03*
X029450Y008440D03*
X029450Y009110D03*
X030300Y009110D03*
X030300Y008440D03*
X027735Y014525D03*
X027065Y014525D03*
X027065Y015825D03*
X027735Y015825D03*
X029365Y017525D03*
X030035Y017525D03*
X013835Y014625D03*
X013165Y014625D03*
X013165Y013825D03*
X013835Y013825D03*
X009300Y013560D03*
X009300Y014090D03*
X009300Y014760D03*
X009300Y012890D03*
X009265Y006275D03*
X009935Y006275D03*
X009985Y003325D03*
X009315Y003325D03*
D15*
X019032Y008593D03*
X019288Y008593D03*
X019544Y008593D03*
X019800Y008593D03*
X020056Y008593D03*
X020312Y008593D03*
X020568Y008593D03*
X020568Y010857D03*
X020312Y010857D03*
X020056Y010857D03*
X019800Y010857D03*
X019544Y010857D03*
X019288Y010857D03*
X019032Y010857D03*
X019032Y014293D03*
X019288Y014293D03*
X019544Y014293D03*
X019800Y014293D03*
X020056Y014293D03*
X020312Y014293D03*
X020568Y014293D03*
X020568Y016557D03*
X020312Y016557D03*
X020056Y016557D03*
X019800Y016557D03*
X019544Y016557D03*
X019288Y016557D03*
X019032Y016557D03*
D16*
X021300Y015760D03*
X021300Y015090D03*
X016335Y014125D03*
X015665Y014125D03*
X013835Y013025D03*
X013165Y013025D03*
X013165Y012225D03*
X013835Y012225D03*
X013900Y011260D03*
X013050Y011260D03*
X013050Y010590D03*
X013900Y010590D03*
X009850Y010640D03*
X009850Y011310D03*
X009900Y008460D03*
X009900Y007790D03*
X008650Y005260D03*
X008650Y004590D03*
X011250Y004810D03*
X011250Y004140D03*
X016765Y006125D03*
X017435Y006125D03*
X018065Y006125D03*
X018735Y006125D03*
X021400Y009290D03*
X021400Y009960D03*
X028650Y009110D03*
X028650Y008440D03*
X030800Y007210D03*
X030800Y006540D03*
X030800Y005910D03*
X030800Y005240D03*
X030696Y004318D03*
X030027Y004318D03*
X030027Y003573D03*
X030696Y003573D03*
X023022Y002725D03*
X022353Y002725D03*
X028650Y012590D03*
X029450Y012590D03*
X029450Y013260D03*
X028650Y013260D03*
X028565Y014525D03*
X029235Y014525D03*
X030065Y014525D03*
X030735Y014525D03*
X027735Y016725D03*
X027065Y016725D03*
X009435Y016125D03*
X008765Y016125D03*
D17*
X010028Y016271D03*
X010343Y016271D03*
X010657Y016271D03*
X010972Y016271D03*
X011528Y016271D03*
X011843Y016271D03*
X012157Y016271D03*
X012472Y016271D03*
X012472Y015779D03*
X012157Y015779D03*
X011843Y015779D03*
X011528Y015779D03*
X010972Y015779D03*
X010657Y015779D03*
X010343Y015779D03*
X010028Y015779D03*
X015328Y011671D03*
X015643Y011671D03*
X015957Y011671D03*
X016272Y011671D03*
X016272Y011179D03*
X015957Y011179D03*
X015643Y011179D03*
X015328Y011179D03*
X011772Y009171D03*
X011457Y009171D03*
X011143Y009171D03*
X010828Y009171D03*
X010828Y008679D03*
X011143Y008679D03*
X011457Y008679D03*
X011772Y008679D03*
D18*
X028676Y009875D03*
X028676Y010375D03*
X028676Y010875D03*
X028676Y011375D03*
X030724Y011375D03*
X030724Y010875D03*
X030724Y010375D03*
X030724Y009875D03*
X030724Y015275D03*
X030724Y015775D03*
X030724Y016275D03*
X030724Y016775D03*
X028676Y016775D03*
X028676Y016275D03*
X028676Y015775D03*
X028676Y015275D03*
D19*
X029149Y018575D03*
X030251Y018575D03*
X028451Y007011D03*
X027349Y007011D03*
X027349Y005875D03*
X028451Y005875D03*
D20*
X008000Y000875D03*
X008000Y019875D03*
D21*
X009000Y019875D03*
X010000Y019875D03*
X011000Y019875D03*
X012000Y019875D03*
X013000Y019875D03*
X014000Y019875D03*
X015000Y019875D03*
X016000Y019875D03*
X017000Y019875D03*
X018000Y019875D03*
X019000Y019875D03*
X020000Y019875D03*
X021000Y019875D03*
X022000Y019875D03*
X023000Y019875D03*
X024000Y019875D03*
X025000Y019875D03*
X026000Y019875D03*
X027000Y019875D03*
X028000Y019875D03*
X029000Y019875D03*
X030000Y019875D03*
X030000Y020875D03*
X029000Y020875D03*
X028000Y020875D03*
X027000Y020875D03*
X026000Y020875D03*
X025000Y020875D03*
X024000Y020875D03*
X023000Y020875D03*
X022000Y020875D03*
X021000Y020875D03*
X020000Y020875D03*
X019000Y020875D03*
X018000Y020875D03*
X017000Y020875D03*
X016000Y020875D03*
X015000Y020875D03*
X014000Y020875D03*
X013000Y020875D03*
X012000Y020875D03*
X011000Y020875D03*
X010000Y020875D03*
X009000Y020875D03*
X008000Y020875D03*
X008000Y001875D03*
X009000Y001875D03*
X010000Y001875D03*
X011000Y001875D03*
X012000Y001875D03*
X013000Y001875D03*
X014000Y001875D03*
X015000Y001875D03*
X016000Y001875D03*
X017000Y001875D03*
X018000Y001875D03*
X019000Y001875D03*
X020000Y001875D03*
X021000Y001875D03*
X022000Y001875D03*
X023000Y001875D03*
X024000Y001875D03*
X025000Y001875D03*
X026000Y001875D03*
X027000Y001875D03*
X028000Y001875D03*
X029000Y001875D03*
X030000Y001875D03*
X030000Y000875D03*
X029000Y000875D03*
X028000Y000875D03*
X027000Y000875D03*
X026000Y000875D03*
X025000Y000875D03*
X024000Y000875D03*
X023000Y000875D03*
X022000Y000875D03*
X021000Y000875D03*
X020000Y000875D03*
X019000Y000875D03*
X018000Y000875D03*
X017000Y000875D03*
X016000Y000875D03*
X015000Y000875D03*
X014000Y000875D03*
X013000Y000875D03*
X012000Y000875D03*
X011000Y000875D03*
X010000Y000875D03*
X009000Y000875D03*
D22*
X009276Y004413D03*
X009650Y004413D03*
X010024Y004413D03*
X010024Y005437D03*
X009276Y005437D03*
D23*
X026000Y011875D03*
X027000Y011875D03*
D24*
X027000Y010875D03*
X026000Y010875D03*
X026000Y009875D03*
X027000Y009875D03*
X027000Y008875D03*
X026000Y008875D03*
D25*
X024184Y005914D03*
X024184Y005717D03*
X024184Y005520D03*
X024184Y005323D03*
X024184Y005127D03*
X024184Y004930D03*
X024184Y004733D03*
X024184Y004536D03*
X022216Y004536D03*
X022216Y004733D03*
X022216Y004930D03*
X022216Y005127D03*
X022216Y005323D03*
X022216Y005520D03*
X022216Y005717D03*
X022216Y005914D03*
D26*
X022511Y006209D03*
X022708Y006209D03*
X022905Y006209D03*
X023102Y006209D03*
X023298Y006209D03*
X023495Y006209D03*
X023692Y006209D03*
X023889Y006209D03*
X023889Y004241D03*
X023692Y004241D03*
X023495Y004241D03*
X023298Y004241D03*
X023102Y004241D03*
X022905Y004241D03*
X022708Y004241D03*
X022511Y004241D03*
D27*
X023200Y005225D03*
D28*
X018900Y004822D02*
X018900Y004228D01*
X017900Y004228D02*
X017900Y004822D01*
X016900Y004822D02*
X016900Y004228D01*
X015900Y004228D02*
X015900Y004822D01*
X013350Y004822D02*
X013350Y004228D01*
X012350Y004228D02*
X012350Y004822D01*
X032503Y004525D02*
X033097Y004525D01*
X033097Y005525D02*
X032503Y005525D01*
X032503Y006525D02*
X033097Y006525D01*
X033097Y008525D02*
X032503Y008525D01*
X032503Y009525D02*
X033097Y009525D01*
X033097Y010525D02*
X032503Y010525D01*
X032503Y013025D02*
X033097Y013025D01*
X033097Y014025D02*
X032503Y014025D01*
X032503Y016025D02*
X033097Y016025D01*
X033097Y017025D02*
X032503Y017025D01*
D29*
X022546Y015597D03*
X022546Y015282D03*
X022546Y014968D03*
X022546Y014653D03*
X022054Y014653D03*
X022054Y014968D03*
X022054Y015282D03*
X022054Y015597D03*
X022104Y011197D03*
X022104Y010882D03*
X022104Y010568D03*
X022104Y010253D03*
X022596Y010253D03*
X022596Y010568D03*
X022596Y010882D03*
X022596Y011197D03*
D30*
X012168Y012074D03*
X011912Y012074D03*
X011656Y012074D03*
X011400Y012074D03*
X011144Y012074D03*
X010888Y012074D03*
X010632Y012074D03*
X010632Y009776D03*
X010888Y009776D03*
X011144Y009776D03*
X011400Y009776D03*
X011656Y009776D03*
X011912Y009776D03*
X012168Y009776D03*
D31*
X030550Y012374D03*
X030550Y013476D03*
D32*
X024300Y013875D02*
X023700Y013875D01*
X023700Y012875D02*
X024300Y012875D01*
X024300Y011875D02*
X023700Y011875D01*
X023700Y010875D02*
X024300Y010875D01*
X024300Y009875D02*
X023700Y009875D01*
X023700Y008875D02*
X024300Y008875D01*
X024300Y014875D02*
X023700Y014875D01*
X023700Y015875D02*
X024300Y015875D01*
X024300Y016875D02*
X023700Y016875D01*
X023700Y017875D02*
X024300Y017875D01*
X017000Y018175D02*
X017000Y017575D01*
X016000Y017575D02*
X016000Y018175D01*
X015000Y018175D02*
X015000Y017575D01*
X014000Y017575D02*
X014000Y018175D01*
X013000Y018175D02*
X013000Y017575D01*
X012000Y017575D02*
X012000Y018175D01*
X011000Y018175D02*
X011000Y017575D01*
X010000Y017575D02*
X010000Y018175D01*
X009000Y018175D02*
X009000Y017575D01*
X008000Y017575D02*
X008000Y018175D01*
D33*
X031615Y003490D03*
X031615Y002643D03*
X033249Y002643D03*
X033249Y003490D03*
D34*
X024200Y003375D03*
X021000Y012875D03*
D35*
X027813Y004911D03*
X026947Y004537D03*
X027813Y004162D03*
X027813Y003547D03*
X026947Y003173D03*
X027813Y002799D03*
D36*
X028006Y002799D01*
X028271Y003064D01*
X028271Y003609D01*
X028286Y003575D01*
X028505Y003575D01*
X028380Y003573D01*
X028510Y003575D01*
X028702Y003575D01*
X028271Y003609D02*
X028271Y003937D01*
X028034Y004155D01*
X027784Y004155D01*
X027813Y004162D01*
X027387Y003918D02*
X026707Y003918D01*
X026525Y003737D01*
X026525Y002991D01*
X026398Y002864D01*
X025580Y002864D01*
X025489Y002955D01*
X025489Y003301D01*
X025465Y003325D01*
X026827Y003616D02*
X026911Y003460D01*
X026947Y003173D01*
X026907Y003170D01*
X026907Y002591D01*
X027089Y002409D01*
X028362Y002409D01*
X028674Y002722D01*
X028711Y002816D01*
X029344Y002816D02*
X029380Y002816D01*
X029344Y002816D02*
X030024Y002816D01*
X030027Y002819D01*
X030027Y003573D01*
X029372Y003575D02*
X029362Y003585D01*
X029362Y004316D01*
X029328Y004318D01*
X030027Y004318D01*
X030696Y004318D02*
X030907Y004318D01*
X031634Y005046D01*
X031634Y006045D01*
X032089Y006500D01*
X032775Y006500D01*
X032800Y006525D01*
X032800Y005525D02*
X032793Y005518D01*
X032161Y005518D01*
X031889Y005246D01*
X031889Y004936D01*
X031125Y004173D01*
X031125Y003882D01*
X030816Y003573D01*
X030696Y003573D01*
X031180Y003055D02*
X031615Y003490D01*
X031180Y003055D02*
X031180Y002191D01*
X030863Y001875D01*
X030000Y001875D01*
X030852Y001373D02*
X031598Y002119D01*
X032724Y002119D01*
X033249Y002643D01*
X030725Y002446D02*
X030694Y002477D01*
X030694Y002816D01*
X030852Y001373D02*
X023689Y001373D01*
X023508Y001555D01*
X023508Y002500D01*
X023283Y002725D01*
X023022Y002725D01*
X022353Y002725D02*
X022328Y002700D01*
X021871Y002700D01*
X021526Y002355D01*
X021526Y001246D01*
X021155Y000875D01*
X021000Y000875D01*
X026732Y004225D02*
X026732Y004358D01*
X026947Y004537D01*
X026907Y004540D01*
X026907Y004882D01*
X027325Y005300D01*
X028489Y005300D01*
X028656Y005133D01*
X028692Y004316D01*
X027813Y004911D02*
X027730Y004864D01*
X027544Y004864D01*
X027387Y004664D01*
X027387Y003918D01*
X027387Y003791D01*
X027588Y003547D01*
X027813Y003547D01*
X029300Y005240D02*
X030052Y005240D01*
X030800Y005240D01*
X031165Y005240D01*
X031300Y005375D01*
X031300Y008225D01*
X032300Y009225D01*
X032800Y009525D01*
X032350Y010225D02*
X032800Y010525D01*
X032350Y010225D02*
X031900Y009775D01*
X031900Y009275D01*
X030800Y008175D01*
X030800Y007210D01*
X030034Y007210D01*
X030052Y007216D01*
X030034Y007210D02*
X029300Y007210D01*
X028451Y007011D02*
X028686Y006540D01*
X029300Y006540D01*
X030052Y006547D02*
X030052Y005926D01*
X030052Y005926D01*
X030052Y005910D01*
X030052Y005910D01*
X030052Y006227D01*
X030052Y005910D02*
X030800Y005910D01*
X030800Y006540D01*
X029300Y005910D02*
X028686Y005910D01*
X028451Y005875D01*
X030052Y005256D02*
X030052Y005240D01*
X027000Y008875D02*
X026000Y008875D01*
X024000Y008875D02*
X023100Y009525D01*
X022596Y010029D01*
X022596Y010253D01*
X022596Y010568D02*
X022957Y010568D01*
X024000Y009875D01*
X024000Y010875D02*
X023757Y010882D01*
X022596Y010882D01*
X022596Y011197D02*
X022596Y011671D01*
X022800Y011875D01*
X024000Y011875D01*
X024000Y012875D02*
X023100Y013525D01*
X022546Y014079D01*
X022546Y014653D01*
X022546Y014968D02*
X022857Y014968D01*
X023500Y014025D01*
X024000Y013875D01*
X024000Y014875D02*
X023157Y015282D01*
X022546Y015282D01*
X022546Y015597D02*
X022546Y015671D01*
X022825Y015875D01*
X024000Y015875D01*
X024000Y016875D02*
X022100Y016925D01*
X021300Y017325D01*
X019300Y017325D01*
X016300Y014325D01*
X016300Y014160D01*
X016335Y014125D01*
X016300Y014090D01*
X016300Y013825D01*
X016561Y013714D01*
X016906Y013693D01*
X017103Y013693D02*
X017100Y013617D01*
X017100Y014225D01*
X017400Y014525D01*
X017400Y015125D01*
X018832Y016557D01*
X019032Y016557D01*
X019288Y016557D01*
X019544Y016557D02*
X019544Y016869D01*
X019800Y017125D01*
X021200Y017125D01*
X022054Y016671D01*
X022054Y015597D01*
X022054Y015282D02*
X022046Y015275D01*
X021800Y015275D01*
X021750Y015325D01*
X021750Y016575D01*
X021000Y016925D01*
X020100Y016925D01*
X020056Y016881D01*
X020056Y016557D01*
X020300Y016545D02*
X020312Y016557D01*
X020568Y016557D01*
X020300Y016545D02*
X020300Y016325D01*
X019800Y015675D01*
X018250Y015675D01*
X017700Y015125D01*
X017700Y014525D01*
X017300Y014125D01*
X017300Y013693D01*
X017497Y013693D02*
X017497Y014022D01*
X017700Y014225D01*
X017900Y014225D01*
X018000Y014325D01*
X019000Y014325D01*
X019032Y014293D01*
X019032Y014393D01*
X019032Y014293D02*
X019288Y014293D01*
X019544Y014293D02*
X019544Y015169D01*
X020000Y015525D01*
X020500Y015525D01*
X020900Y015825D02*
X020965Y015760D01*
X021300Y015760D01*
X021750Y014975D02*
X022046Y014975D01*
X022054Y014968D01*
X022054Y014653D02*
X022100Y014606D01*
X022100Y013225D01*
X021900Y013025D01*
X021600Y013025D01*
X020900Y013725D01*
X020900Y014625D01*
X020700Y014825D01*
X020300Y014825D01*
X020056Y014581D01*
X020056Y014293D01*
X020312Y014293D02*
X020312Y014037D01*
X020200Y013925D01*
X018200Y013925D01*
X017900Y013625D01*
X017705Y013625D01*
X017694Y013693D01*
X018089Y013514D02*
X018068Y013319D01*
X018068Y013122D01*
X017497Y013122D01*
X017300Y012925D01*
X016532Y012925D02*
X016200Y012925D01*
X015950Y012675D01*
X015950Y011664D01*
X015957Y011671D01*
X015700Y011729D02*
X015643Y011671D01*
X015700Y011729D02*
X015700Y012825D01*
X015997Y013122D01*
X016532Y013122D01*
X016532Y013319D02*
X015794Y013319D01*
X015328Y012853D01*
X015328Y011671D01*
X016272Y011671D02*
X016300Y011699D01*
X016300Y012025D01*
X016200Y012125D01*
X016200Y012625D01*
X016303Y012728D01*
X016532Y012728D01*
X016906Y012157D02*
X016906Y011419D01*
X017800Y010525D01*
X017800Y010175D01*
X018450Y009525D01*
X018900Y009525D01*
X019050Y009375D01*
X019050Y008611D01*
X019032Y008593D01*
X019288Y008593D01*
X019544Y008593D02*
X019544Y008281D01*
X019800Y008025D01*
X021300Y008025D01*
X022100Y008825D01*
X022100Y010249D01*
X022104Y010253D01*
X022104Y010568D02*
X021943Y010568D01*
X021800Y010425D01*
X021800Y008925D01*
X021100Y008225D01*
X020200Y008225D01*
X020056Y008369D01*
X020056Y008593D01*
X020300Y008605D02*
X020312Y008593D01*
X020568Y008593D01*
X020300Y008605D02*
X020300Y009425D01*
X019900Y009825D01*
X018500Y009825D01*
X018050Y010275D01*
X018050Y010625D01*
X017103Y011572D01*
X017103Y012157D01*
X017300Y012157D02*
X017300Y011725D01*
X018300Y010725D01*
X018300Y010375D01*
X018600Y010075D01*
X020100Y010075D01*
X020300Y010325D01*
X020300Y010845D01*
X020312Y010857D01*
X020568Y010857D01*
X020056Y010857D02*
X020056Y011181D01*
X020100Y011225D01*
X021200Y011225D01*
X021943Y010882D01*
X022104Y010882D01*
X022104Y011197D02*
X021928Y011197D01*
X021300Y011425D01*
X020000Y011425D01*
X019800Y011225D01*
X019600Y011225D01*
X019544Y011169D01*
X019544Y010857D01*
X019288Y010857D02*
X019032Y010857D01*
X018864Y011025D01*
X018300Y011025D01*
X018100Y011225D01*
X018000Y011425D01*
X017497Y011928D01*
X017497Y012157D01*
X017694Y012157D02*
X017932Y012157D01*
X018068Y012293D01*
X018068Y012531D01*
X018068Y012728D02*
X018746Y012728D01*
X018765Y012725D01*
X018800Y012690D01*
X018800Y012425D01*
X018900Y012325D01*
X020500Y012325D01*
X021000Y012875D01*
X019435Y013325D02*
X019350Y013340D01*
X019350Y013575D01*
X019250Y013675D01*
X018250Y013675D01*
X018089Y013514D01*
X018600Y013260D02*
X018765Y013325D01*
X018600Y013260D02*
X018400Y013025D01*
X018300Y012925D01*
X018068Y012925D01*
X017904Y012136D02*
X017694Y012157D01*
X017904Y012136D02*
X018565Y011525D01*
X019800Y010857D02*
X019800Y010425D01*
X021400Y010475D02*
X021400Y009960D01*
X019800Y006960D02*
X019335Y006960D01*
X019200Y006825D01*
X012400Y009825D02*
X012351Y009776D01*
X012168Y009776D01*
X011656Y009776D02*
X011656Y009469D01*
X011772Y009353D01*
X011772Y009171D01*
X011457Y009171D02*
X011457Y009368D01*
X011400Y009425D01*
X011400Y009776D01*
X011144Y009776D02*
X011144Y009173D01*
X011143Y009171D01*
X011172Y009201D01*
X011428Y009201D02*
X011457Y009171D01*
X010888Y009513D02*
X010828Y009453D01*
X010828Y009171D01*
X010888Y009513D02*
X010888Y009776D01*
X010888Y012074D02*
X010888Y012937D01*
X010696Y013129D01*
X010109Y013129D01*
X010109Y013385D02*
X010940Y013385D01*
X011144Y013181D01*
X011144Y012074D01*
X011400Y012074D02*
X011400Y013225D01*
X011560Y013385D01*
X012491Y013385D01*
X012491Y013129D02*
X013061Y013129D01*
X013165Y013025D01*
X013165Y012225D01*
X013835Y012225D02*
X013900Y012160D01*
X013835Y013025D02*
X013835Y013090D01*
X013835Y013825D02*
X013835Y014025D01*
X013935Y014125D01*
X014200Y014125D01*
X013835Y014025D02*
X013835Y014625D01*
X013165Y014625D02*
X013165Y014660D01*
X012900Y014925D01*
X012495Y014925D01*
X012491Y014921D01*
X012491Y014665D02*
X012260Y014665D01*
X012000Y014875D01*
X012000Y015025D01*
X012200Y015225D01*
X012300Y015225D01*
X012472Y015397D01*
X012472Y015779D01*
X012157Y015779D02*
X012157Y015482D01*
X011800Y015125D01*
X011800Y014725D01*
X012166Y014409D01*
X012491Y014409D01*
X012491Y014153D02*
X012072Y014153D01*
X011600Y014625D01*
X011600Y015225D01*
X011843Y015468D01*
X011843Y015779D01*
X011528Y015779D02*
X011528Y015453D01*
X011400Y015325D01*
X011400Y014475D01*
X011978Y013897D01*
X012491Y013897D01*
X012491Y013641D02*
X012716Y013641D01*
X012900Y013825D01*
X013165Y013825D01*
X013200Y013790D01*
X011400Y013825D02*
X011216Y013641D01*
X010109Y013641D01*
X010109Y013897D02*
X010822Y013897D01*
X011100Y014175D01*
X011100Y015325D01*
X010972Y015453D01*
X010972Y015779D01*
X010657Y015779D02*
X010657Y015468D01*
X010900Y015225D01*
X010900Y014325D01*
X010728Y014153D01*
X010109Y014153D01*
X010109Y014409D02*
X010584Y014409D01*
X010700Y014525D01*
X010700Y015125D01*
X010343Y015482D01*
X010343Y015779D01*
X010028Y015779D02*
X010000Y015751D01*
X010000Y015325D01*
X010100Y015175D01*
X010350Y015175D01*
X010500Y015025D01*
X010500Y014725D01*
X010440Y014665D01*
X010109Y014665D01*
X010109Y014921D02*
X009904Y014921D01*
X009700Y015125D01*
X009000Y015125D01*
X008950Y015075D01*
X008950Y014125D01*
X009000Y014075D01*
X009285Y014075D01*
X009300Y014090D01*
X009300Y013560D01*
X009300Y012890D02*
X009435Y012890D01*
X009700Y012525D02*
X009800Y012425D01*
X010350Y012425D01*
X010550Y012625D01*
X009700Y012525D02*
X009700Y014625D01*
X009585Y014760D01*
X009300Y014760D01*
X010028Y016271D02*
X010028Y017553D01*
X010000Y017875D01*
X010343Y016968D02*
X011000Y017875D01*
X011400Y017025D02*
X012000Y017875D01*
X012100Y017025D02*
X014700Y017025D01*
X015000Y017325D01*
X015000Y017875D01*
X016000Y017875D02*
X015100Y016725D01*
X012300Y016725D01*
X012157Y016582D01*
X012157Y016271D01*
X011843Y016271D02*
X011843Y016768D01*
X012100Y017025D01*
X011400Y017025D02*
X010900Y017025D01*
X010657Y016782D01*
X010657Y016271D01*
X010343Y016271D02*
X010343Y016968D01*
X010972Y016597D02*
X011000Y016625D01*
X010972Y016597D02*
X010972Y016271D01*
X011528Y016271D02*
X011528Y016597D01*
X011500Y016625D01*
X012472Y016297D02*
X012600Y016425D01*
X015800Y016425D01*
X017000Y017875D01*
X019800Y016557D02*
X019800Y016125D01*
X019700Y016025D01*
X019600Y016025D01*
X020312Y014293D02*
X020568Y014293D01*
X015665Y014125D02*
X015300Y014125D01*
X012472Y016271D02*
X012472Y016297D01*
X011750Y012625D02*
X011650Y012525D01*
X011650Y012080D01*
X011656Y012074D01*
X026025Y010875D02*
X027000Y010875D01*
D37*
X029950Y012725D03*
X028250Y013275D03*
X027850Y013075D03*
X027150Y013075D03*
X027500Y013875D03*
X026450Y013875D03*
X026600Y016725D03*
X028400Y017225D03*
X028400Y018025D03*
X030600Y017525D03*
X021825Y012725D03*
X021750Y013325D03*
X019900Y013350D03*
X017550Y013175D03*
X015300Y014125D03*
X014200Y014125D03*
X011750Y012625D03*
X010550Y012625D03*
X009300Y012475D03*
X011400Y013825D03*
X009300Y015475D03*
X011000Y016625D03*
X011500Y016625D03*
X017200Y015775D03*
X018100Y014975D03*
X019200Y014975D03*
X019900Y014975D03*
X020500Y015525D03*
X020900Y015825D03*
X021750Y014975D03*
X019600Y016025D03*
X020900Y011925D03*
X019650Y011575D03*
X020950Y010825D03*
X021400Y010475D03*
X019800Y010425D03*
X019800Y009325D03*
X020800Y009325D03*
X021800Y007925D03*
X022800Y007425D03*
X021350Y006775D03*
X021700Y006025D03*
X021200Y005825D03*
X021200Y005325D03*
X021700Y005025D03*
X021400Y004725D03*
X020400Y005725D03*
X019200Y006825D03*
X016100Y006825D03*
X015400Y007075D03*
X015400Y006525D03*
X014400Y006625D03*
X014350Y007075D03*
X014350Y007475D03*
X013450Y006725D03*
X013600Y006275D03*
X012350Y005825D03*
X013077Y007452D03*
X012400Y008925D03*
X012400Y009825D03*
X010300Y008925D03*
X009850Y010125D03*
X013900Y011725D03*
X015755Y009175D03*
X015627Y008525D03*
X017730Y009815D03*
X024900Y006975D03*
X025400Y007725D03*
X026700Y006775D03*
X026700Y005675D03*
X026135Y004625D03*
X026732Y004225D03*
X026827Y003616D03*
X028380Y003573D03*
X030725Y002446D03*
X030052Y006227D03*
X024900Y005625D03*
X024598Y005323D03*
X024900Y005025D03*
X024400Y004225D03*
X024800Y003925D03*
X023600Y003625D03*
X021000Y003625D03*
X020600Y003625D03*
X020100Y003225D03*
X016000Y003325D03*
X014000Y002725D03*
X012000Y002825D03*
X011250Y003575D03*
X010500Y002575D03*
X009550Y005425D03*
D38*
X010828Y008197D02*
X012400Y006825D01*
X012900Y006825D01*
X013100Y006625D01*
X013100Y006225D01*
X014100Y005225D01*
X014100Y002825D01*
X014000Y002725D01*
X014500Y003225D02*
X014300Y003425D01*
X014300Y005525D01*
X013600Y006275D01*
X013550Y006625D02*
X013450Y006725D01*
X013550Y006625D02*
X013650Y006625D01*
X014500Y005825D01*
X014500Y003525D01*
X015500Y002525D01*
X015500Y001225D01*
X015850Y000875D01*
X016000Y000875D01*
X015000Y000875D02*
X014950Y000875D01*
X014500Y001325D01*
X014500Y003225D01*
X014700Y003625D02*
X014700Y006225D01*
X014400Y006225D01*
X013600Y007025D01*
X012500Y007025D01*
X011143Y008182D01*
X011143Y008679D01*
X011457Y008679D02*
X011457Y008268D01*
X012436Y007452D01*
X013077Y007452D01*
X013227Y007752D02*
X012518Y007752D01*
X011772Y008353D01*
X011772Y008679D01*
X010828Y008679D02*
X010828Y008197D01*
X013227Y007752D02*
X014300Y006625D01*
X014400Y006625D01*
X014700Y006225D02*
X014700Y007922D01*
X015624Y009564D01*
X015643Y011179D01*
X015957Y011179D02*
X015957Y009282D01*
X015755Y009175D01*
X015328Y009462D02*
X014500Y008007D01*
X014350Y007475D01*
X014900Y007807D02*
X015455Y008825D01*
X016000Y008825D01*
X016272Y009097D01*
X016272Y011179D01*
X015328Y011179D02*
X015328Y009462D01*
X015627Y008525D02*
X015100Y007525D01*
X015100Y003825D01*
X015400Y003525D01*
X016000Y003525D01*
X016000Y003325D01*
X016000Y003525D02*
X016600Y003525D01*
X018000Y002125D01*
X018000Y001875D01*
X018500Y002125D02*
X016900Y003725D01*
X015500Y003725D01*
X015300Y003925D01*
X015300Y006325D01*
X015400Y006525D01*
X016765Y006125D02*
X016900Y005990D01*
X016900Y004525D01*
X016900Y004225D01*
X019000Y002125D01*
X019000Y001875D01*
X019500Y002125D02*
X019750Y002125D01*
X020000Y001875D01*
X019500Y002125D02*
X017900Y003725D01*
X017900Y004525D01*
X017900Y005125D01*
X018200Y005425D01*
X018400Y005425D01*
X018700Y005725D01*
X018700Y006090D01*
X018735Y006125D01*
X021200Y005825D02*
X021308Y005717D01*
X022216Y005717D01*
X022216Y005520D02*
X021395Y005520D01*
X021200Y005325D01*
X021400Y005125D02*
X021400Y004725D01*
X021700Y005025D02*
X021802Y005127D01*
X022216Y005127D01*
X022216Y005323D02*
X021598Y005323D01*
X021400Y005125D01*
X022011Y004536D02*
X021600Y004125D01*
X021100Y004125D01*
X020600Y003625D01*
X021000Y003625D02*
X021300Y003925D01*
X021700Y003925D01*
X022016Y004241D01*
X022511Y004241D01*
X022216Y004536D02*
X022011Y004536D01*
X023495Y004241D02*
X023495Y003930D01*
X023600Y003625D01*
X023692Y004033D02*
X024100Y003625D01*
X024100Y003475D01*
X024200Y003375D01*
X024100Y003925D02*
X024800Y003925D01*
X024100Y003925D02*
X023889Y004136D01*
X023889Y004241D01*
X023692Y004241D02*
X023692Y004033D01*
X022216Y005914D02*
X021811Y005914D01*
X021700Y006025D01*
X021500Y006625D02*
X022600Y006625D01*
X022708Y006517D01*
X022708Y006209D01*
X022905Y006209D02*
X022905Y006930D01*
X024600Y008325D01*
X024900Y008725D01*
X025450Y010675D01*
X025450Y011475D01*
X026000Y011875D01*
X026000Y010875D02*
X025600Y010525D01*
X025050Y008650D01*
X024700Y008125D01*
X023102Y006827D01*
X023102Y006209D01*
X023298Y006209D02*
X023298Y006723D01*
X024800Y007925D01*
X025200Y008575D01*
X025500Y009525D01*
X026000Y009875D01*
X026000Y008875D02*
X024900Y007725D01*
X023495Y006620D01*
X023495Y006209D01*
X021500Y006625D02*
X021350Y006775D01*
X015627Y008525D02*
X015627Y008525D01*
X014900Y007807D02*
X014900Y003725D01*
X015300Y003325D01*
X015500Y003325D01*
X016050Y002775D01*
X017050Y002775D01*
X017500Y002325D01*
X017500Y001325D01*
X017950Y000875D01*
X018000Y000875D01*
X018500Y001525D02*
X018500Y002125D01*
X018500Y001525D02*
X019000Y001025D01*
X019000Y000875D01*
X016000Y001875D02*
X016000Y002525D01*
X015400Y003125D01*
X015200Y003125D01*
X014700Y003625D01*
X012000Y002825D02*
X012000Y001875D01*
X028250Y012025D02*
X028250Y012525D01*
X027850Y013075D01*
X027150Y013075D02*
X026900Y013775D01*
X026600Y014225D01*
X026600Y016275D01*
X026300Y016575D01*
X026300Y016975D01*
X026500Y017175D01*
X028350Y017175D01*
X028400Y017225D01*
X028400Y016775D01*
X028400Y018025D02*
X027500Y019125D01*
X027500Y020125D01*
X027250Y020375D01*
X020500Y020375D01*
X020000Y020875D01*
X028250Y012025D02*
X028676Y011499D01*
X028676Y011375D01*
D39*
X028800Y011825D02*
X028650Y011975D01*
X028650Y012590D01*
X029050Y012225D02*
X029050Y013075D01*
X029200Y013225D01*
X029415Y013225D01*
X029450Y013260D01*
X029735Y013260D01*
X029950Y013475D01*
X030549Y013475D01*
X030550Y013476D01*
X031450Y013275D02*
X032200Y014025D01*
X032800Y014025D01*
X031450Y013275D02*
X031450Y011575D01*
X031250Y011375D01*
X030724Y011375D01*
X030724Y010875D02*
X030150Y010875D01*
X030000Y011025D01*
X030000Y012225D01*
X030050Y012275D01*
X029735Y012590D01*
X029450Y012590D01*
X029815Y012590D01*
X029950Y012725D01*
X030149Y012374D02*
X030050Y012275D01*
X030149Y012374D02*
X030550Y012374D01*
X029700Y011775D02*
X029350Y012125D01*
X029150Y012125D01*
X029050Y012225D01*
X029250Y011825D02*
X028800Y011825D01*
X029250Y011825D02*
X029400Y011675D01*
X029400Y010975D01*
X029300Y010875D01*
X028676Y010875D01*
X028676Y010375D01*
X028676Y009875D02*
X029100Y009875D01*
X029450Y009525D01*
X029450Y009110D01*
X029565Y009110D01*
X029900Y008775D01*
X029900Y008725D01*
X030185Y008440D01*
X030300Y008440D01*
X030300Y009110D02*
X030335Y009110D01*
X030750Y009525D01*
X030750Y009849D01*
X030724Y009875D01*
X031300Y009875D01*
X031550Y010125D01*
X031550Y010975D01*
X032800Y012225D01*
X032800Y013025D01*
X030735Y014525D02*
X030735Y015264D01*
X032039Y015264D01*
X032800Y016025D01*
X032450Y016775D02*
X032800Y017025D01*
X032450Y016775D02*
X030724Y016775D01*
X030724Y016275D02*
X030150Y016275D01*
X030035Y016390D01*
X030035Y017525D01*
X030600Y017525D01*
X030035Y017525D02*
X030035Y018460D01*
X030200Y018525D01*
X030251Y018575D01*
X029365Y018460D02*
X029300Y018525D01*
X029149Y018575D01*
X029365Y018460D02*
X029365Y017525D01*
X029265Y017625D01*
X029365Y017525D02*
X029365Y017260D01*
X029500Y017125D01*
X029600Y017125D01*
X029700Y017025D01*
X029700Y016025D01*
X029950Y015775D01*
X030724Y015775D01*
X030724Y015275D02*
X030735Y015264D01*
X030065Y014525D02*
X029235Y014525D01*
X029200Y014560D02*
X029200Y015025D01*
X028950Y015275D01*
X028676Y015275D01*
X028676Y015775D02*
X027785Y015775D01*
X027735Y015825D01*
X027065Y015825D02*
X027065Y016725D01*
X026600Y016725D01*
X027735Y016725D02*
X027785Y016775D01*
X028400Y016775D01*
X028676Y016775D01*
X028676Y016275D02*
X028676Y015775D01*
X028565Y014525D02*
X027735Y014525D01*
X027065Y014525D02*
X027050Y014510D01*
X027050Y014175D01*
X027100Y013875D01*
X027500Y013275D01*
X027500Y012925D01*
X028000Y012425D01*
X028000Y011275D01*
X027650Y010925D01*
X027000Y010875D01*
X028300Y009125D02*
X028635Y009125D01*
X028650Y009110D01*
X028300Y009125D02*
X028100Y008925D01*
X027000Y008875D01*
X028650Y008440D02*
X029450Y008440D01*
X030000Y010375D02*
X029700Y010675D01*
X029700Y011775D01*
X028650Y013260D02*
X028265Y013260D01*
X028250Y013275D01*
X030000Y010375D02*
X030724Y010375D01*
X025935Y007525D02*
X025935Y007125D01*
X025935Y007525D02*
X025735Y007725D01*
X025400Y007725D01*
X021435Y009325D02*
X021400Y009290D01*
X020950Y009675D02*
X020800Y009325D01*
X020950Y009675D02*
X020950Y010825D01*
X019650Y011575D02*
X019600Y011525D01*
X019235Y011525D01*
X018800Y011925D02*
X020900Y011925D01*
X021100Y011925D01*
X021825Y012725D01*
X021750Y013325D02*
X021700Y013425D01*
X021300Y013825D01*
X021300Y015090D01*
X020165Y015090D01*
X019950Y014875D01*
X019900Y014975D01*
X019950Y014875D02*
X019800Y014725D01*
X019800Y014293D01*
X019200Y014975D02*
X018100Y014975D01*
X017200Y015775D02*
X016100Y014925D01*
X014900Y014925D01*
X014700Y014725D01*
X014700Y013225D01*
X014500Y013025D01*
X014500Y012925D01*
X013835Y013090D02*
X013500Y013425D01*
X013300Y013425D01*
X013200Y013525D01*
X013200Y013790D01*
X013835Y012225D02*
X013835Y011960D01*
X013900Y011725D01*
X013900Y012160D02*
X013900Y011260D01*
X016605Y010210D02*
X016705Y010175D01*
X016600Y009975D02*
X016600Y008625D01*
X015700Y007725D01*
X015700Y007125D01*
X015700Y006725D01*
X016150Y006275D01*
X016400Y006525D01*
X017300Y006525D01*
X017400Y006425D01*
X017400Y006160D01*
X016150Y006275D02*
X015900Y006025D01*
X015900Y004525D01*
X020100Y003625D02*
X020100Y003225D01*
X021469Y003225D01*
X021708Y003464D01*
X022365Y003461D01*
X020435Y003960D02*
X020100Y003625D01*
X020435Y003960D02*
X020435Y004325D01*
X010500Y002575D02*
X010030Y002575D01*
X009851Y002755D01*
X009790Y002694D01*
X009851Y002761D01*
X009851Y002755D01*
X009851Y002761D02*
X010000Y002925D01*
X010000Y003290D01*
X009985Y003325D02*
X009985Y003225D01*
X009790Y002694D02*
X009500Y002375D01*
X009500Y001225D01*
X009150Y000875D01*
X009000Y000875D01*
X009850Y010125D02*
X009850Y010640D01*
X017300Y012925D02*
X017550Y013175D01*
X019350Y013340D02*
X019785Y013340D01*
X019900Y013350D01*
X019435Y013325D02*
X019435Y012725D01*
X018800Y011925D02*
X018565Y011690D01*
X018565Y011525D01*
D40*
X014500Y010525D02*
X014500Y010325D01*
X013150Y008925D01*
X012400Y008925D01*
X010300Y008925D02*
X010200Y009025D01*
X009900Y009025D01*
X009300Y009625D01*
X009300Y011675D01*
X009300Y012475D01*
X009285Y012890D01*
X009300Y012890D01*
X009300Y015475D02*
X009435Y015610D01*
X009435Y016125D01*
X008765Y016125D02*
X008765Y016790D01*
X009000Y017325D01*
X009000Y017875D01*
X013835Y013025D02*
X014400Y013025D01*
X014500Y012925D01*
X014500Y010525D01*
X014465Y010590D01*
X013900Y010590D01*
X009900Y009025D02*
X009900Y008460D01*
X009900Y007790D02*
X009900Y007775D01*
X010550Y007125D01*
X010550Y003275D01*
X011000Y002825D01*
X011000Y001875D01*
X011000Y000875D01*
X029450Y013260D02*
X029450Y013575D01*
X029150Y013875D01*
X027500Y013875D01*
X026450Y013875D02*
X026250Y014075D01*
X026250Y016125D01*
X025950Y016425D01*
X025950Y017225D01*
X026350Y017625D01*
X028800Y017625D01*
X029000Y017525D01*
X029365Y017525D01*
X029200Y014560D02*
X029235Y014525D01*
D41*
X022800Y007425D02*
X019200Y007425D01*
X018500Y006925D01*
X016200Y006925D01*
X016100Y006825D01*
X012350Y005825D02*
X012350Y004525D01*
X012065Y004810D01*
X011250Y004810D01*
X011250Y004140D02*
X011250Y003575D01*
D42*
X010050Y003390D02*
X009985Y003325D01*
X010000Y003310D01*
X010000Y003290D01*
X010050Y003390D02*
X010050Y003925D01*
X010024Y003951D01*
X010024Y004413D01*
X009650Y004413D02*
X009650Y004825D01*
X009550Y004925D01*
X009200Y004925D01*
X008900Y004625D01*
X008735Y004625D01*
X008650Y004590D01*
X008665Y004625D01*
X008350Y004625D01*
X008250Y004725D01*
X008250Y005625D01*
X008350Y005725D01*
X008700Y005725D01*
X009300Y006325D01*
X009265Y006275D01*
X009935Y006275D02*
X010024Y006186D01*
X010024Y005437D01*
X009550Y005425D02*
X009338Y005437D01*
X009276Y005437D01*
X008877Y005437D01*
X008650Y005260D01*
X008650Y004590D02*
X008700Y003825D01*
X008850Y003625D01*
X008000Y002725D01*
X008000Y001875D01*
X008000Y000875D01*
X009150Y003325D02*
X009315Y003325D01*
X009150Y003325D02*
X008850Y003625D01*
X009276Y003999D02*
X009350Y003925D01*
X010050Y003925D01*
X009276Y003999D02*
X009276Y004413D01*
X013332Y007961D02*
X014200Y007075D01*
X014350Y007075D01*
X015400Y007075D02*
X015650Y007075D01*
X015700Y007125D01*
X017400Y006160D02*
X017435Y006125D01*
X018065Y006125D01*
X018900Y005225D02*
X019200Y005525D01*
X019200Y006825D01*
X019765Y006925D02*
X019800Y006960D01*
X019765Y006925D02*
X019765Y006125D01*
X019765Y005125D01*
X019765Y004325D01*
X020435Y004325D02*
X021500Y004325D01*
X021908Y004733D01*
X022216Y004733D01*
X022216Y004930D02*
X022905Y004930D01*
X023200Y005225D01*
X023298Y005323D01*
X024184Y005323D01*
X024598Y005323D01*
X024900Y005625D02*
X024808Y005717D01*
X024184Y005717D01*
X024184Y005914D02*
X025276Y005914D01*
X025465Y005825D01*
X025465Y005025D01*
X025465Y004225D01*
X025000Y004225D01*
X024900Y004325D01*
X024900Y004525D01*
X024692Y004733D01*
X024184Y004733D01*
X024184Y004930D02*
X024805Y004930D01*
X024900Y005025D01*
X024400Y004425D02*
X024400Y004225D01*
X024400Y004425D02*
X024289Y004536D01*
X024184Y004536D01*
X025465Y004225D02*
X025465Y003325D01*
X025265Y003225D01*
X025000Y003225D01*
X024500Y002825D01*
X023900Y002825D01*
X023400Y003225D01*
X023035Y003461D01*
X020435Y004325D02*
X020435Y005125D01*
X020400Y005725D02*
X020400Y006090D01*
X020435Y006125D01*
X020435Y006425D01*
X022400Y006425D01*
X022511Y006314D01*
X022511Y006209D01*
X023692Y006209D02*
X023692Y006517D01*
X023800Y006625D01*
X025700Y006625D01*
X026000Y006525D01*
X026035Y006660D01*
X025935Y007125D01*
X025265Y007125D02*
X024900Y006975D01*
X024116Y006209D02*
X024200Y006125D01*
X024200Y005930D01*
X024184Y005914D01*
X024116Y006209D02*
X023889Y006209D01*
X026000Y006525D02*
X026000Y005860D01*
X026135Y005825D01*
X026135Y005025D01*
X026135Y004225D01*
X026135Y004625D01*
X026135Y003325D01*
X026700Y005675D02*
X027349Y005875D01*
X026700Y006775D02*
X027349Y007011D01*
X021400Y009290D02*
X020835Y009290D01*
X020800Y009325D01*
X019800Y009325D02*
X019800Y008593D01*
X017730Y009815D02*
X017435Y010150D01*
X017375Y010175D01*
X016605Y010210D02*
X016600Y009975D01*
X016600Y012225D01*
X016532Y012293D01*
X016532Y012531D01*
X013450Y011125D02*
X013450Y009875D01*
X012900Y009325D01*
X012200Y009325D01*
X012100Y009225D01*
X012100Y008575D01*
X012732Y007961D01*
X013332Y007961D01*
X012700Y009825D02*
X012400Y009825D01*
X012700Y009825D02*
X013050Y010225D01*
X013050Y010590D01*
X013450Y011125D02*
X013315Y011260D01*
X013050Y011260D01*
X012800Y011560D01*
X012800Y011875D01*
X012601Y012074D01*
X012168Y012074D01*
X012168Y011493D01*
X011600Y010925D01*
X011300Y010925D01*
X010632Y010257D01*
X010632Y009776D01*
X009850Y011310D02*
X009850Y011625D01*
X009350Y011625D01*
X009300Y011675D01*
X009850Y011625D02*
X010299Y012074D01*
X010632Y012074D01*
X020435Y006925D02*
X020435Y006425D01*
X018900Y005225D02*
X018900Y004525D01*
M02*
