G75*
%MOIN*%
%OFA0B0*%
%FSLAX24Y24*%
%IPPOS*%
%LPD*%
%AMOC8*
5,1,8,0,0,1.08239X$1,22.5*
%
%ADD10C,0.0080*%
%ADD11C,0.0040*%
%ADD12C,0.0060*%
%ADD13C,0.0030*%
%ADD14C,0.0100*%
%ADD15R,0.0945X0.0018*%
%ADD16R,0.0910X0.0018*%
%ADD17R,0.1091X0.0018*%
%ADD18R,0.0927X0.0018*%
%ADD19R,0.1036X0.0018*%
%ADD20R,0.1000X0.0018*%
%ADD21R,0.1182X0.0018*%
%ADD22R,0.1072X0.0018*%
%ADD23R,0.1255X0.0018*%
%ADD24R,0.1109X0.0018*%
%ADD25R,0.1145X0.0018*%
%ADD26R,0.1109X0.0018*%
%ADD27R,0.1291X0.0018*%
%ADD28R,0.1146X0.0018*%
%ADD29R,0.1200X0.0018*%
%ADD30R,0.1146X0.0018*%
%ADD31R,0.1327X0.0018*%
%ADD32R,0.1218X0.0018*%
%ADD33R,0.1182X0.0018*%
%ADD34R,0.1364X0.0018*%
%ADD35R,0.1237X0.0018*%
%ADD36R,0.1400X0.0018*%
%ADD37R,0.1254X0.0018*%
%ADD38R,0.1273X0.0018*%
%ADD39R,0.1418X0.0018*%
%ADD40R,0.1273X0.0018*%
%ADD41R,0.1254X0.0018*%
%ADD42R,0.1436X0.0018*%
%ADD43R,0.1309X0.0018*%
%ADD44R,0.1436X0.0018*%
%ADD45R,0.1291X0.0018*%
%ADD46R,0.1272X0.0018*%
%ADD47R,0.1454X0.0018*%
%ADD48R,0.1309X0.0018*%
%ADD49R,0.1473X0.0018*%
%ADD50R,0.0146X0.0018*%
%ADD51R,0.0291X0.0018*%
%ADD52R,0.0145X0.0018*%
%ADD53R,0.0273X0.0018*%
%ADD54R,0.0290X0.0018*%
%ADD55R,0.0127X0.0018*%
%ADD56R,0.0254X0.0018*%
%ADD57R,0.0255X0.0018*%
%ADD58R,0.0128X0.0018*%
%ADD59R,0.0273X0.0018*%
%ADD60R,0.0109X0.0018*%
%ADD61R,0.0237X0.0018*%
%ADD62R,0.0236X0.0018*%
%ADD63R,0.0109X0.0018*%
%ADD64R,0.0218X0.0018*%
%ADD65R,0.0090X0.0018*%
%ADD66R,0.0091X0.0018*%
%ADD67R,0.0109X0.0018*%
%ADD68R,0.0255X0.0018*%
%ADD69R,0.0091X0.0018*%
%ADD70R,0.0218X0.0018*%
%ADD71R,0.0090X0.0018*%
%ADD72R,0.0219X0.0018*%
%ADD73R,0.0655X0.0018*%
%ADD74R,0.1128X0.0018*%
%ADD75R,0.0909X0.0018*%
%ADD76R,0.0655X0.0018*%
%ADD77R,0.0890X0.0018*%
%ADD78R,0.0109X0.0018*%
%ADD79R,0.1055X0.0018*%
%ADD80R,0.0836X0.0018*%
%ADD81R,0.1037X0.0018*%
%ADD82R,0.0673X0.0018*%
%ADD83R,0.0800X0.0018*%
%ADD84R,0.0982X0.0018*%
%ADD85R,0.0110X0.0018*%
%ADD86R,0.0254X0.0018*%
%ADD87R,0.0272X0.0018*%
%ADD88R,0.0254X0.0018*%
%ADD89R,0.0272X0.0018*%
%ADD90R,0.0891X0.0018*%
%ADD91R,0.0982X0.0018*%
%ADD92R,0.1018X0.0018*%
%ADD93R,0.1037X0.0018*%
%ADD94R,0.1055X0.0018*%
%ADD95R,0.1073X0.0018*%
%ADD96R,0.1091X0.0018*%
%ADD97R,0.0073X0.0018*%
%ADD98R,0.0054X0.0018*%
%ADD99R,0.0054X0.0018*%
%ADD100R,0.0055X0.0018*%
%ADD101R,0.0673X0.0018*%
%ADD102R,0.0254X0.0018*%
%ADD103R,0.0654X0.0018*%
%ADD104R,0.0072X0.0018*%
%ADD105R,0.0036X0.0018*%
%ADD106R,0.0036X0.0018*%
%ADD107R,0.0072X0.0018*%
%ADD108R,0.0054X0.0018*%
%ADD109R,0.0237X0.0018*%
%ADD110R,0.0964X0.0018*%
%ADD111R,0.0873X0.0018*%
%ADD112R,0.0909X0.0018*%
%ADD113R,0.0855X0.0018*%
%ADD114R,0.0818X0.0018*%
%ADD115R,0.0782X0.0018*%
%ADD116R,0.0618X0.0018*%
%ADD117R,0.0672X0.0018*%
%ADD118R,0.0709X0.0018*%
%ADD119R,0.0727X0.0018*%
%ADD120R,0.0763X0.0018*%
%ADD121R,0.0781X0.0018*%
%ADD122R,0.0836X0.0018*%
%ADD123R,0.0855X0.0018*%
%ADD124R,0.0654X0.0018*%
%ADD125R,0.0873X0.0018*%
%ADD126R,0.0145X0.0018*%
%ADD127R,0.0127X0.0018*%
%ADD128R,0.0073X0.0018*%
%ADD129R,0.0200X0.0018*%
%ADD130R,0.0219X0.0018*%
%ADD131R,0.0382X0.0018*%
%ADD132R,0.1163X0.0018*%
%ADD133R,0.0346X0.0018*%
%ADD134R,0.1164X0.0018*%
%ADD135R,0.0364X0.0018*%
%ADD136R,0.1127X0.0018*%
%ADD137R,0.0309X0.0018*%
%ADD138R,0.1127X0.0018*%
%ADD139R,0.0164X0.0018*%
%ADD140R,0.0182X0.0018*%
%ADD141R,0.0963X0.0018*%
%ADD142R,0.0018X0.0018*%
%ADD143C,0.0217*%
%ADD144C,0.0050*%
%ADD145C,0.0220*%
%ADD146C,0.0020*%
%ADD147C,0.0059*%
D10*
X009090Y004756D02*
X009090Y005094D01*
X009544Y005244D02*
X009756Y005244D01*
X010210Y005094D02*
X010210Y004756D01*
X018836Y008879D02*
X020764Y008879D01*
X020764Y010571D01*
X018836Y010571D01*
X018836Y008879D01*
X018836Y009489D02*
X018866Y009491D01*
X018895Y009496D01*
X018923Y009506D01*
X018950Y009518D01*
X018975Y009534D01*
X018998Y009553D01*
X019018Y009575D01*
X019035Y009599D01*
X019050Y009625D01*
X019060Y009652D01*
X019068Y009681D01*
X019072Y009710D01*
X019072Y009740D01*
X019068Y009769D01*
X019060Y009798D01*
X019050Y009825D01*
X019035Y009851D01*
X019018Y009875D01*
X018998Y009897D01*
X018975Y009916D01*
X018950Y009932D01*
X018923Y009944D01*
X018895Y009954D01*
X018866Y009959D01*
X018836Y009961D01*
X017851Y012275D02*
X017950Y012374D01*
X016749Y012275D02*
X016650Y012374D01*
X016650Y013476D02*
X016749Y013575D01*
X017851Y013575D02*
X017950Y013476D01*
X018836Y014579D02*
X020764Y014579D01*
X020764Y016271D01*
X018836Y016271D01*
X018836Y014579D01*
X018836Y015189D02*
X018866Y015191D01*
X018895Y015196D01*
X018923Y015206D01*
X018950Y015218D01*
X018975Y015234D01*
X018998Y015253D01*
X019018Y015275D01*
X019035Y015299D01*
X019050Y015325D01*
X019060Y015352D01*
X019068Y015381D01*
X019072Y015410D01*
X019072Y015440D01*
X019068Y015469D01*
X019060Y015498D01*
X019050Y015525D01*
X019035Y015551D01*
X019018Y015575D01*
X018998Y015597D01*
X018975Y015616D01*
X018950Y015632D01*
X018923Y015644D01*
X018895Y015654D01*
X018866Y015659D01*
X018836Y015661D01*
X015343Y016886D02*
X014929Y016886D01*
X015136Y016886D02*
X015136Y016265D01*
X014698Y016368D02*
X014698Y016886D01*
X014285Y016886D02*
X014285Y016368D01*
X014388Y016265D01*
X014595Y016265D01*
X014698Y016368D01*
X014054Y016368D02*
X014054Y016782D01*
X013950Y016886D01*
X013743Y016886D01*
X013640Y016782D01*
X013640Y016368D01*
X013743Y016265D01*
X013950Y016265D01*
X014054Y016368D01*
X025500Y012125D02*
X025500Y011625D01*
X025750Y011375D01*
X025500Y011125D01*
X025500Y010625D01*
X025750Y010375D01*
X025500Y010125D01*
X025500Y009625D01*
X025750Y009375D01*
X025500Y009125D01*
X025500Y008625D01*
X025750Y008375D01*
X026250Y008375D01*
X026500Y008625D01*
X026500Y009125D01*
X026750Y009375D01*
X026500Y009625D01*
X026500Y010125D01*
X026750Y010375D01*
X026500Y010625D01*
X026500Y011125D01*
X026750Y011375D01*
X026500Y011625D01*
X026500Y012125D01*
X026750Y012375D01*
X027250Y012375D01*
X027500Y012125D01*
X027500Y011625D01*
X027250Y011375D01*
X027500Y011125D01*
X027500Y010625D01*
X027250Y010375D01*
X027500Y010125D01*
X027500Y009625D01*
X027250Y009375D01*
X027500Y009125D01*
X027500Y008625D01*
X027250Y008375D01*
X026750Y008375D01*
X026500Y008625D01*
X026500Y009125D01*
X026250Y009375D01*
X026500Y009625D01*
X026500Y010125D01*
X026250Y010375D01*
X026500Y010625D01*
X026500Y011125D01*
X026250Y011375D01*
X026500Y011625D01*
X026500Y012125D01*
X026250Y012375D01*
X025750Y012375D01*
X025500Y012125D01*
X030078Y011941D02*
X030078Y012531D01*
X030078Y011941D02*
X031022Y011941D01*
X031022Y012531D01*
X031022Y013319D02*
X031022Y013752D01*
X030865Y013909D01*
X030235Y013909D01*
X030078Y013752D01*
X030078Y013319D01*
X030094Y018103D02*
X030684Y018103D01*
X030684Y019047D01*
X030094Y019047D01*
X029306Y019047D02*
X028873Y019047D01*
X028716Y018890D01*
X028716Y018260D01*
X028873Y018103D01*
X029306Y018103D01*
X024409Y008086D02*
X024409Y007465D01*
X023995Y008086D01*
X023995Y007465D01*
X023773Y007465D02*
X023566Y007465D01*
X023669Y007465D02*
X023669Y008086D01*
X023566Y008086D02*
X023773Y008086D01*
X026916Y007326D02*
X026916Y006696D01*
X027073Y006539D01*
X027506Y006539D01*
X027506Y006347D02*
X027073Y006347D01*
X026916Y006190D01*
X026916Y005560D01*
X027073Y005403D01*
X027506Y005403D01*
X028294Y005403D02*
X028884Y005403D01*
X028884Y006347D01*
X028294Y006347D01*
X028294Y006539D02*
X028884Y006539D01*
X028884Y007484D01*
X028294Y007484D01*
X027506Y007484D02*
X027073Y007484D01*
X026916Y007326D01*
X031943Y003523D02*
X032920Y003523D01*
X033235Y003240D02*
X033235Y002881D01*
X032920Y002618D02*
X031943Y002618D01*
X031621Y002881D02*
X031621Y003240D01*
D11*
X031593Y007295D02*
X031653Y007295D01*
X031714Y007355D01*
X031714Y007655D01*
X031774Y007655D02*
X031653Y007655D01*
X031902Y007595D02*
X031962Y007655D01*
X032082Y007655D01*
X032142Y007595D01*
X032142Y007535D01*
X032082Y007475D01*
X032142Y007415D01*
X032142Y007355D01*
X032082Y007295D01*
X031962Y007295D01*
X031902Y007355D01*
X032022Y007475D02*
X032082Y007475D01*
X031593Y007295D02*
X031533Y007355D01*
X027827Y007845D02*
X027767Y007905D01*
X027767Y008145D01*
X027707Y008085D02*
X027827Y008085D01*
X027579Y008085D02*
X027579Y007845D01*
X027399Y007845D01*
X027339Y007905D01*
X027339Y008085D01*
X027211Y008145D02*
X027151Y008205D01*
X027031Y008205D01*
X026970Y008145D01*
X026970Y007905D01*
X027031Y007845D01*
X027151Y007845D01*
X027211Y007905D01*
X027211Y008145D01*
X026842Y008025D02*
X026842Y007965D01*
X026602Y007965D01*
X026602Y007905D02*
X026602Y008025D01*
X026662Y008085D01*
X026782Y008085D01*
X026842Y008025D01*
X026782Y007845D02*
X026662Y007845D01*
X026602Y007905D01*
X026474Y007845D02*
X026474Y008025D01*
X026414Y008085D01*
X026234Y008085D01*
X026234Y007845D01*
X026108Y007845D02*
X025988Y007845D01*
X026048Y007845D02*
X026048Y008085D01*
X025988Y008085D01*
X026048Y008205D02*
X026048Y008265D01*
X025620Y008205D02*
X025620Y007845D01*
X025860Y007845D01*
X025090Y008645D02*
X024936Y008645D01*
X024860Y008722D01*
X025167Y009029D01*
X025167Y008722D01*
X025090Y008645D01*
X024860Y008722D02*
X024860Y009029D01*
X024936Y009105D01*
X025090Y009105D01*
X025167Y009029D01*
X025167Y009645D02*
X024860Y009645D01*
X025013Y009645D02*
X025013Y010105D01*
X024860Y009952D01*
X024860Y010645D02*
X025167Y010952D01*
X025167Y011029D01*
X025090Y011105D01*
X024936Y011105D01*
X024860Y011029D01*
X024860Y010645D02*
X025167Y010645D01*
X025090Y011645D02*
X024936Y011645D01*
X024860Y011722D01*
X025013Y011875D02*
X025090Y011875D01*
X025167Y011798D01*
X025167Y011722D01*
X025090Y011645D01*
X025090Y011875D02*
X025167Y011952D01*
X025167Y012029D01*
X025090Y012105D01*
X024936Y012105D01*
X024860Y012029D01*
X025490Y012575D02*
X025550Y012515D01*
X025610Y012515D01*
X025670Y012575D01*
X025670Y012875D01*
X025610Y012875D02*
X025730Y012875D01*
X025858Y012815D02*
X025918Y012875D01*
X026038Y012875D01*
X026099Y012815D01*
X026099Y012575D01*
X026038Y012515D01*
X025918Y012515D01*
X025858Y012575D01*
X025918Y012695D02*
X026099Y012695D01*
X025918Y012695D02*
X025858Y012755D01*
X025858Y012815D01*
X026390Y012575D02*
X026450Y012515D01*
X026510Y012515D01*
X026570Y012575D01*
X026570Y012875D01*
X026510Y012875D02*
X026630Y012875D01*
X026758Y012755D02*
X026878Y012875D01*
X026878Y012515D01*
X026758Y012515D02*
X026999Y012515D01*
X027127Y012575D02*
X027367Y012815D01*
X027367Y012575D01*
X027307Y012515D01*
X027187Y012515D01*
X027127Y012575D01*
X027127Y012815D01*
X027187Y012875D01*
X027307Y012875D01*
X027367Y012815D01*
X028499Y013695D02*
X028499Y014155D01*
X028729Y014155D01*
X028806Y014079D01*
X028806Y013925D01*
X028729Y013848D01*
X028499Y013848D01*
X028653Y013848D02*
X028806Y013695D01*
X028960Y013772D02*
X029036Y013695D01*
X029190Y013695D01*
X029267Y013772D01*
X029267Y013848D01*
X029190Y013925D01*
X029036Y013925D01*
X028960Y014002D01*
X028960Y014079D01*
X029036Y014155D01*
X029190Y014155D01*
X029267Y014079D01*
X029267Y014002D01*
X029190Y013925D01*
X029036Y013925D02*
X028960Y013848D01*
X028960Y013772D01*
X027998Y014995D02*
X027691Y014995D01*
X027844Y014995D02*
X027844Y015455D01*
X027691Y015302D01*
X027384Y015455D02*
X027384Y014995D01*
X027537Y014995D02*
X027230Y014995D01*
X027077Y015072D02*
X027000Y014995D01*
X026847Y014995D01*
X026770Y015072D01*
X026770Y015379D01*
X026847Y015455D01*
X027000Y015455D01*
X027077Y015379D01*
X027230Y015302D02*
X027384Y015455D01*
X026530Y015523D02*
X026530Y015216D01*
X026223Y015523D01*
X026146Y015523D01*
X026070Y015446D01*
X026070Y015293D01*
X026146Y015216D01*
X026070Y014909D02*
X026530Y014909D01*
X026530Y015062D02*
X026530Y014755D01*
X026453Y014602D02*
X026530Y014525D01*
X026530Y014372D01*
X026453Y014295D01*
X026146Y014295D01*
X026070Y014372D01*
X026070Y014525D01*
X026146Y014602D01*
X026223Y014755D02*
X026070Y014909D01*
X025167Y014798D02*
X025090Y014875D01*
X024860Y014875D01*
X024860Y014722D01*
X024936Y014645D01*
X025090Y014645D01*
X025167Y014722D01*
X025167Y014798D01*
X025013Y015029D02*
X024860Y014875D01*
X025013Y015029D02*
X025167Y015105D01*
X024860Y015645D02*
X024860Y015722D01*
X025167Y016029D01*
X025167Y016105D01*
X024860Y016105D01*
X024936Y016645D02*
X024860Y016722D01*
X024860Y017029D01*
X024936Y017105D01*
X025090Y017105D01*
X025167Y017029D01*
X025167Y016722D02*
X025090Y016645D01*
X024936Y016645D01*
X024916Y017645D02*
X025069Y017645D01*
X025146Y017722D01*
X025146Y017875D01*
X024992Y017875D01*
X024839Y017722D02*
X024916Y017645D01*
X024839Y017722D02*
X024839Y018029D01*
X024916Y018105D01*
X025069Y018105D01*
X025146Y018029D01*
X025299Y018105D02*
X025606Y017645D01*
X025606Y018105D01*
X025760Y018105D02*
X025990Y018105D01*
X026067Y018029D01*
X026067Y017722D01*
X025990Y017645D01*
X025760Y017645D01*
X025760Y018105D01*
X025299Y018105D02*
X025299Y017645D01*
X026770Y017655D02*
X026770Y017195D01*
X026770Y017348D02*
X027000Y017348D01*
X027077Y017425D01*
X027077Y017579D01*
X027000Y017655D01*
X026770Y017655D01*
X026923Y017348D02*
X027077Y017195D01*
X027230Y017195D02*
X027537Y017195D01*
X027384Y017195D02*
X027384Y017655D01*
X027230Y017502D01*
X027691Y017579D02*
X027691Y017272D01*
X027998Y017579D01*
X027998Y017272D01*
X027921Y017195D01*
X027768Y017195D01*
X027691Y017272D01*
X027691Y017579D02*
X027768Y017655D01*
X027921Y017655D01*
X027998Y017579D01*
X027953Y018045D02*
X027953Y018505D01*
X027799Y018352D01*
X027646Y018429D02*
X027569Y018505D01*
X027416Y018505D01*
X027339Y018429D01*
X027339Y018122D01*
X027416Y018045D01*
X027569Y018045D01*
X027646Y018122D01*
X027799Y018045D02*
X028106Y018045D01*
X028260Y018275D02*
X028567Y018275D01*
X028490Y018045D02*
X028490Y018505D01*
X028260Y018275D01*
X026745Y018745D02*
X026745Y019055D01*
X026745Y018952D02*
X026590Y018952D01*
X026538Y018900D01*
X026538Y018797D01*
X026590Y018745D01*
X026745Y018745D01*
X026427Y018745D02*
X026375Y018797D01*
X026375Y019004D01*
X026323Y018952D02*
X026427Y018952D01*
X026208Y018745D02*
X026001Y018745D01*
X026001Y019055D01*
X025563Y018952D02*
X025408Y018952D01*
X025356Y018900D01*
X025408Y018848D01*
X025511Y018848D01*
X025563Y018797D01*
X025511Y018745D01*
X025356Y018745D01*
X025245Y018745D02*
X025193Y018797D01*
X025193Y019004D01*
X025141Y018952D02*
X025245Y018952D01*
X025026Y018900D02*
X025026Y018745D01*
X025026Y018900D02*
X024974Y018952D01*
X024819Y018952D01*
X024819Y018745D01*
X024704Y018848D02*
X024497Y018848D01*
X024497Y018797D02*
X024497Y018900D01*
X024549Y018952D01*
X024652Y018952D01*
X024704Y018900D01*
X024704Y018848D01*
X024652Y018745D02*
X024549Y018745D01*
X024497Y018797D01*
X024382Y018745D02*
X024382Y018900D01*
X024330Y018952D01*
X024278Y018900D01*
X024278Y018745D01*
X024175Y018745D02*
X024175Y018952D01*
X024226Y018952D01*
X024278Y018900D01*
X024059Y018952D02*
X024059Y018745D01*
X023904Y018745D01*
X023852Y018797D01*
X023852Y018952D01*
X023739Y018952D02*
X023687Y018952D01*
X023584Y018848D01*
X023584Y018745D02*
X023584Y018952D01*
X023472Y018952D02*
X023369Y018952D01*
X023421Y019004D02*
X023421Y018797D01*
X023472Y018745D01*
X023254Y018797D02*
X023202Y018848D01*
X023098Y018848D01*
X023047Y018900D01*
X023098Y018952D01*
X023254Y018952D01*
X023254Y018797D02*
X023202Y018745D01*
X023047Y018745D01*
X022931Y018745D02*
X022931Y018900D01*
X022880Y018952D01*
X022724Y018952D01*
X022724Y018745D01*
X022613Y018745D02*
X022510Y018745D01*
X022561Y018745D02*
X022561Y019055D01*
X022510Y019055D02*
X022613Y019055D01*
X022072Y019055D02*
X022072Y018745D01*
X021917Y018745D01*
X021865Y018797D01*
X021865Y018900D01*
X021917Y018952D01*
X022072Y018952D01*
X021750Y018900D02*
X021750Y018848D01*
X021543Y018848D01*
X021543Y018797D02*
X021543Y018900D01*
X021594Y018952D01*
X021698Y018952D01*
X021750Y018900D01*
X021698Y018745D02*
X021594Y018745D01*
X021543Y018797D01*
X021431Y018745D02*
X021380Y018797D01*
X021380Y019004D01*
X021431Y018952D02*
X021328Y018952D01*
X021212Y018900D02*
X021212Y018745D01*
X021212Y018900D02*
X021161Y018952D01*
X021006Y018952D01*
X021006Y018745D01*
X020890Y018848D02*
X020683Y018848D01*
X020683Y018797D02*
X020683Y018900D01*
X020735Y018952D01*
X020838Y018952D01*
X020890Y018900D01*
X020890Y018848D01*
X020838Y018745D02*
X020735Y018745D01*
X020683Y018797D01*
X020568Y018745D02*
X020568Y018900D01*
X020516Y018952D01*
X020464Y018900D01*
X020464Y018745D01*
X020361Y018745D02*
X020361Y018952D01*
X020413Y018952D01*
X020464Y018900D01*
X020246Y018952D02*
X020246Y018693D01*
X020194Y018642D01*
X020142Y018642D01*
X020091Y018745D02*
X020246Y018745D01*
X020091Y018745D02*
X020039Y018797D01*
X020039Y018900D01*
X020091Y018952D01*
X020246Y018952D01*
X019923Y018952D02*
X019923Y018745D01*
X019768Y018745D01*
X019717Y018797D01*
X019717Y018952D01*
X019601Y018952D02*
X019601Y018745D01*
X019601Y018900D02*
X019394Y018900D01*
X019394Y018952D02*
X019498Y019055D01*
X019601Y018952D01*
X019394Y018952D02*
X019394Y018745D01*
X018961Y018848D02*
X018961Y018952D01*
X018857Y019055D01*
X018742Y018952D02*
X018587Y018952D01*
X018535Y018900D01*
X018535Y018797D01*
X018587Y018745D01*
X018742Y018745D01*
X018857Y018745D02*
X018961Y018848D01*
X018423Y018745D02*
X018320Y018848D01*
X018320Y018952D01*
X018423Y019055D01*
X017167Y019029D02*
X016860Y018722D01*
X016936Y018645D01*
X017090Y018645D01*
X017167Y018722D01*
X017167Y019029D01*
X017090Y019105D01*
X016936Y019105D01*
X016860Y019029D01*
X016860Y018722D01*
X016167Y018645D02*
X015860Y018645D01*
X016013Y018645D02*
X016013Y019105D01*
X015860Y018952D01*
X015167Y018952D02*
X015167Y019029D01*
X015090Y019105D01*
X014936Y019105D01*
X014860Y019029D01*
X015167Y018952D02*
X014860Y018645D01*
X015167Y018645D01*
X014167Y018722D02*
X014090Y018645D01*
X013936Y018645D01*
X013860Y018722D01*
X014013Y018875D02*
X014090Y018875D01*
X014167Y018798D01*
X014167Y018722D01*
X014090Y018875D02*
X014167Y018952D01*
X014167Y019029D01*
X014090Y019105D01*
X013936Y019105D01*
X013860Y019029D01*
X013167Y018875D02*
X012860Y018875D01*
X013090Y019105D01*
X013090Y018645D01*
X012167Y018722D02*
X012090Y018645D01*
X011936Y018645D01*
X011860Y018722D01*
X011860Y018875D02*
X012013Y018952D01*
X012090Y018952D01*
X012167Y018875D01*
X012167Y018722D01*
X011860Y018875D02*
X011860Y019105D01*
X012167Y019105D01*
X011167Y019105D02*
X011013Y019029D01*
X010860Y018875D01*
X011090Y018875D01*
X011167Y018798D01*
X011167Y018722D01*
X011090Y018645D01*
X010936Y018645D01*
X010860Y018722D01*
X010860Y018875D01*
X010167Y019029D02*
X009860Y018722D01*
X009860Y018645D01*
X009860Y019105D02*
X010167Y019105D01*
X010167Y019029D01*
X009367Y019105D02*
X009367Y018798D01*
X009213Y018645D01*
X009060Y018798D01*
X009060Y019105D01*
X008906Y019105D02*
X008599Y019105D01*
X008599Y018875D01*
X008753Y018952D01*
X008829Y018952D01*
X008906Y018875D01*
X008906Y018722D01*
X008829Y018645D01*
X008676Y018645D01*
X008599Y018722D01*
X008167Y018722D02*
X008167Y019029D01*
X008090Y019105D01*
X007860Y019105D01*
X007860Y018645D01*
X008090Y018645D01*
X008167Y018722D01*
X007706Y018645D02*
X007706Y019105D01*
X007399Y019105D02*
X007706Y018645D01*
X007399Y018645D02*
X007399Y019105D01*
X007246Y019029D02*
X007169Y019105D01*
X007016Y019105D01*
X006939Y019029D01*
X006939Y018722D01*
X007016Y018645D01*
X007169Y018645D01*
X007246Y018722D01*
X007246Y018875D01*
X007092Y018875D01*
X008770Y016955D02*
X009000Y016955D01*
X009077Y016879D01*
X009077Y016725D01*
X009000Y016648D01*
X008770Y016648D01*
X008770Y016495D02*
X008770Y016955D01*
X008923Y016648D02*
X009077Y016495D01*
X009230Y016572D02*
X009307Y016495D01*
X009461Y016495D01*
X009537Y016572D01*
X009537Y016879D01*
X009461Y016955D01*
X009307Y016955D01*
X009230Y016879D01*
X009230Y016802D01*
X009307Y016725D01*
X009537Y016725D01*
X008920Y014717D02*
X008980Y014657D01*
X008980Y014537D01*
X008920Y014477D01*
X008980Y014349D02*
X008860Y014228D01*
X008860Y014289D02*
X008860Y014108D01*
X008980Y014108D02*
X008620Y014108D01*
X008620Y014289D01*
X008680Y014349D01*
X008800Y014349D01*
X008860Y014289D01*
X008680Y014477D02*
X008620Y014537D01*
X008620Y014657D01*
X008680Y014717D01*
X008740Y014717D01*
X008800Y014657D01*
X008860Y014717D01*
X008920Y014717D01*
X008800Y014657D02*
X008800Y014597D01*
X009146Y012562D02*
X009070Y012486D01*
X009070Y012332D01*
X009146Y012255D01*
X009146Y012102D02*
X009070Y012025D01*
X009070Y011795D01*
X009530Y011795D01*
X009377Y011795D02*
X009377Y012025D01*
X009300Y012102D01*
X009146Y012102D01*
X009377Y011948D02*
X009530Y012102D01*
X009530Y012255D02*
X009223Y012562D01*
X009146Y012562D01*
X009530Y012562D02*
X009530Y012255D01*
X009403Y011292D02*
X009480Y011215D01*
X009480Y011061D01*
X009403Y010985D01*
X009327Y010985D01*
X009250Y011061D01*
X009250Y011215D01*
X009327Y011292D01*
X009403Y011292D01*
X009250Y011215D02*
X009173Y011292D01*
X009096Y011292D01*
X009020Y011215D01*
X009020Y011061D01*
X009096Y010985D01*
X009173Y010985D01*
X009250Y011061D01*
X009403Y010831D02*
X009480Y010754D01*
X009480Y010601D01*
X009403Y010524D01*
X009096Y010524D01*
X009020Y010601D01*
X009020Y010754D01*
X009096Y010831D01*
X009458Y009765D02*
X009578Y009765D01*
X009518Y009765D02*
X009518Y009405D01*
X009458Y009405D02*
X009578Y009405D01*
X009703Y009465D02*
X009763Y009405D01*
X009884Y009405D01*
X009944Y009465D01*
X010072Y009465D02*
X010132Y009405D01*
X010252Y009405D01*
X010312Y009465D01*
X010312Y009585D01*
X010252Y009645D01*
X010192Y009645D01*
X010072Y009585D01*
X010072Y009765D01*
X010312Y009765D01*
X009944Y009705D02*
X009884Y009765D01*
X009763Y009765D01*
X009703Y009705D01*
X009703Y009465D01*
X009503Y008942D02*
X009427Y008942D01*
X009350Y008865D01*
X009350Y008788D01*
X009350Y008865D02*
X009273Y008942D01*
X009196Y008942D01*
X009120Y008865D01*
X009120Y008711D01*
X009196Y008635D01*
X009196Y008481D02*
X009273Y008481D01*
X009350Y008404D01*
X009350Y008174D01*
X009580Y008174D02*
X009580Y008404D01*
X009503Y008481D01*
X009427Y008481D01*
X009350Y008404D01*
X009196Y008481D02*
X009120Y008404D01*
X009120Y008174D01*
X009580Y008174D01*
X009350Y007867D02*
X009350Y007714D01*
X009580Y007714D02*
X009120Y007714D01*
X009120Y008021D01*
X009503Y008635D02*
X009580Y008711D01*
X009580Y008865D01*
X009503Y008942D01*
X012270Y010422D02*
X012346Y010345D01*
X012653Y010345D01*
X012730Y010422D01*
X012730Y010575D01*
X012653Y010652D01*
X012730Y010805D02*
X012730Y011112D01*
X012730Y010959D02*
X012270Y010959D01*
X012423Y010805D01*
X012346Y010652D02*
X012270Y010575D01*
X012270Y010422D01*
X012346Y011266D02*
X012270Y011343D01*
X012270Y011496D01*
X012346Y011573D01*
X012653Y011266D01*
X012730Y011343D01*
X012730Y011496D01*
X012653Y011573D01*
X012346Y011573D01*
X012346Y011266D02*
X012653Y011266D01*
X014220Y011286D02*
X014220Y011132D01*
X014296Y011055D01*
X014296Y010902D02*
X014220Y010825D01*
X014220Y010672D01*
X014296Y010595D01*
X014603Y010595D01*
X014680Y010672D01*
X014680Y010825D01*
X014603Y010902D01*
X014680Y011055D02*
X014373Y011362D01*
X014296Y011362D01*
X014220Y011286D01*
X014680Y011362D02*
X014680Y011055D01*
X015265Y011945D02*
X015265Y012305D01*
X015445Y012305D01*
X015505Y012245D01*
X015505Y012125D01*
X015445Y012065D01*
X015265Y012065D01*
X015385Y012065D02*
X015505Y011945D01*
X015633Y011945D02*
X015633Y012305D01*
X015874Y011945D01*
X015874Y012305D01*
X016002Y012245D02*
X016062Y012305D01*
X016182Y012305D01*
X016242Y012245D01*
X016242Y012185D01*
X016002Y011945D01*
X016242Y011945D01*
X016781Y011770D02*
X016935Y011770D01*
X016858Y011770D02*
X016858Y011309D01*
X016781Y011309D02*
X016935Y011309D01*
X017088Y011386D02*
X017165Y011309D01*
X017318Y011309D01*
X017395Y011386D01*
X017549Y011539D02*
X017856Y011539D01*
X017779Y011309D02*
X017779Y011770D01*
X017549Y011539D01*
X017395Y011693D02*
X017318Y011770D01*
X017165Y011770D01*
X017088Y011693D01*
X017088Y011386D01*
X014937Y011995D02*
X014630Y011995D01*
X014477Y011995D02*
X014323Y012148D01*
X014400Y012148D02*
X014170Y012148D01*
X014170Y011995D02*
X014170Y012455D01*
X014400Y012455D01*
X014477Y012379D01*
X014477Y012225D01*
X014400Y012148D01*
X014630Y012302D02*
X014784Y012455D01*
X014784Y011995D01*
X014840Y012795D02*
X014686Y012795D01*
X014610Y012872D01*
X014610Y013025D02*
X014763Y013102D01*
X014840Y013102D01*
X014917Y013025D01*
X014917Y012872D01*
X014840Y012795D01*
X014610Y013025D02*
X014610Y013255D01*
X014917Y013255D01*
X014456Y013179D02*
X014456Y013025D01*
X014379Y012948D01*
X014149Y012948D01*
X014149Y012795D02*
X014149Y013255D01*
X014379Y013255D01*
X014456Y013179D01*
X014303Y012948D02*
X014456Y012795D01*
X014500Y013695D02*
X014347Y013695D01*
X014270Y013772D01*
X014270Y014079D01*
X014347Y014155D01*
X014500Y014155D01*
X014577Y014079D01*
X014730Y013925D02*
X014961Y013925D01*
X015037Y013848D01*
X015037Y013772D01*
X014961Y013695D01*
X014807Y013695D01*
X014730Y013772D01*
X014730Y013925D01*
X014884Y014079D01*
X015037Y014155D01*
X014577Y013772D02*
X014500Y013695D01*
X014500Y014495D02*
X014347Y014495D01*
X014270Y014572D01*
X014270Y014879D01*
X014347Y014955D01*
X014500Y014955D01*
X014577Y014879D01*
X014730Y014955D02*
X014730Y014725D01*
X014884Y014802D01*
X014961Y014802D01*
X015037Y014725D01*
X015037Y014572D01*
X014961Y014495D01*
X014807Y014495D01*
X014730Y014572D01*
X014577Y014572D02*
X014500Y014495D01*
X014730Y014955D02*
X015037Y014955D01*
X015320Y014929D02*
X015320Y014742D01*
X015367Y014695D01*
X015460Y014695D01*
X015507Y014742D01*
X015507Y014835D01*
X015413Y014835D01*
X015320Y014929D02*
X015367Y014975D01*
X015460Y014975D01*
X015507Y014929D01*
X015615Y014975D02*
X015801Y014695D01*
X015801Y014975D01*
X015909Y014975D02*
X016049Y014975D01*
X016096Y014929D01*
X016096Y014742D01*
X016049Y014695D01*
X015909Y014695D01*
X015909Y014975D01*
X015615Y014975D02*
X015615Y014695D01*
X016204Y014835D02*
X016391Y014835D01*
X016499Y014742D02*
X016545Y014695D01*
X016639Y014695D01*
X016685Y014742D01*
X016499Y014742D02*
X016499Y014929D01*
X016545Y014975D01*
X016639Y014975D01*
X016685Y014929D01*
X018170Y015295D02*
X018170Y015448D01*
X018170Y015372D02*
X018630Y015372D01*
X018630Y015448D02*
X018630Y015295D01*
X018553Y015602D02*
X018630Y015679D01*
X018630Y015832D01*
X018553Y015909D01*
X018630Y016062D02*
X018323Y016369D01*
X018246Y016369D01*
X018170Y016293D01*
X018170Y016139D01*
X018246Y016062D01*
X018246Y015909D02*
X018170Y015832D01*
X018170Y015679D01*
X018246Y015602D01*
X018553Y015602D01*
X018630Y016062D02*
X018630Y016369D01*
X019820Y017245D02*
X019820Y017485D01*
X019820Y017365D02*
X019940Y017485D01*
X020000Y017485D01*
X020127Y017425D02*
X020187Y017485D01*
X020307Y017485D01*
X020367Y017425D01*
X020367Y017365D01*
X020127Y017365D01*
X020127Y017305D02*
X020127Y017425D01*
X020127Y017305D02*
X020187Y017245D01*
X020307Y017245D01*
X020495Y017485D02*
X020615Y017245D01*
X020735Y017485D01*
X020864Y017305D02*
X020924Y017305D01*
X020924Y017245D01*
X020864Y017245D01*
X020864Y017305D01*
X020925Y017845D02*
X021165Y017845D01*
X021045Y017845D02*
X021045Y018205D01*
X020925Y018085D01*
X020797Y018205D02*
X020557Y017845D01*
X020429Y017905D02*
X020368Y017845D01*
X020248Y017845D01*
X020188Y017905D01*
X020429Y018145D01*
X020429Y017905D01*
X020188Y017905D02*
X020188Y018145D01*
X020248Y018205D01*
X020368Y018205D01*
X020429Y018145D01*
X020060Y017845D02*
X019820Y017845D01*
X019940Y017845D02*
X019940Y018205D01*
X019820Y018085D01*
X021293Y018085D02*
X021353Y018025D01*
X021533Y018025D01*
X021533Y017905D02*
X021533Y018145D01*
X021473Y018205D01*
X021353Y018205D01*
X021293Y018145D01*
X021293Y018085D01*
X021293Y017905D02*
X021353Y017845D01*
X021473Y017845D01*
X021533Y017905D01*
X021596Y017605D02*
X021656Y017545D01*
X021656Y017485D01*
X021596Y017425D01*
X021416Y017425D01*
X021416Y017245D02*
X021596Y017245D01*
X021656Y017305D01*
X021656Y017365D01*
X021596Y017425D01*
X021596Y017605D02*
X021416Y017605D01*
X021416Y017245D01*
X021784Y017305D02*
X021844Y017245D01*
X021964Y017245D01*
X022025Y017305D01*
X022025Y017365D01*
X021964Y017425D01*
X021904Y017425D01*
X021964Y017425D02*
X022025Y017485D01*
X022025Y017545D01*
X021964Y017605D01*
X021844Y017605D01*
X021784Y017545D01*
X021146Y014662D02*
X021453Y014355D01*
X021530Y014355D01*
X021453Y014202D02*
X021530Y014125D01*
X021530Y013972D01*
X021453Y013895D01*
X021146Y013895D01*
X021070Y013972D01*
X021070Y014125D01*
X021146Y014202D01*
X021070Y014355D02*
X021070Y014662D01*
X021146Y014662D01*
X020200Y013509D02*
X020200Y013389D01*
X020200Y013260D02*
X020260Y013260D01*
X020260Y013020D01*
X020320Y013020D02*
X020200Y013020D01*
X020140Y013080D01*
X020140Y013200D01*
X020200Y013260D01*
X020380Y013200D02*
X020380Y013080D01*
X020320Y013020D01*
X020140Y012893D02*
X020140Y012833D01*
X020260Y012713D01*
X020380Y012713D02*
X020140Y012713D01*
X020260Y012585D02*
X020020Y012585D01*
X020260Y012585D02*
X020380Y012465D01*
X020260Y012345D01*
X020020Y012345D01*
X019983Y011667D02*
X019983Y011207D01*
X019907Y011207D02*
X020060Y011207D01*
X020214Y011284D02*
X020290Y011207D01*
X020444Y011207D01*
X020521Y011284D01*
X020674Y011207D02*
X020981Y011207D01*
X020827Y011207D02*
X020827Y011667D01*
X020674Y011514D01*
X020521Y011590D02*
X020444Y011667D01*
X020290Y011667D01*
X020214Y011590D01*
X020214Y011284D01*
X020060Y011667D02*
X019907Y011667D01*
X021170Y011586D02*
X021170Y011432D01*
X021246Y011355D01*
X021323Y011355D01*
X021400Y011432D01*
X021400Y011662D01*
X021553Y011662D02*
X021246Y011662D01*
X021170Y011586D01*
X021553Y011662D02*
X021630Y011586D01*
X021630Y011432D01*
X021553Y011355D01*
X021553Y011202D02*
X021630Y011125D01*
X021630Y010972D01*
X021553Y010895D01*
X021246Y010895D01*
X021170Y010972D01*
X021170Y011125D01*
X021246Y011202D01*
X020380Y013449D02*
X020080Y013449D01*
X020020Y013509D01*
X024860Y013722D02*
X024936Y013645D01*
X025090Y013645D01*
X025167Y013722D01*
X025167Y013875D01*
X025090Y013952D01*
X025013Y013952D01*
X024860Y013875D01*
X024860Y014105D01*
X025167Y014105D01*
X025090Y013105D02*
X024860Y012875D01*
X025167Y012875D01*
X025090Y012645D02*
X025090Y013105D01*
X027660Y011105D02*
X027890Y011105D01*
X027967Y011029D01*
X027967Y010875D01*
X027890Y010798D01*
X027660Y010798D01*
X027660Y010645D02*
X027660Y011105D01*
X027813Y010798D02*
X027967Y010645D01*
X029470Y010632D02*
X029470Y010479D01*
X029546Y010402D01*
X029853Y010402D01*
X029930Y010479D01*
X029930Y010632D01*
X029853Y010709D01*
X029853Y010862D02*
X029930Y010939D01*
X029930Y011093D01*
X029853Y011169D01*
X029546Y011169D01*
X029470Y011093D01*
X029470Y010939D01*
X029546Y010862D01*
X029623Y010862D01*
X029700Y010939D01*
X029700Y011169D01*
X029546Y010709D02*
X029470Y010632D01*
X029470Y010248D02*
X029470Y010095D01*
X029470Y010172D02*
X029930Y010172D01*
X029930Y010248D02*
X029930Y010095D01*
X031533Y011355D02*
X031593Y011295D01*
X031653Y011295D01*
X031714Y011355D01*
X031714Y011655D01*
X031774Y011655D02*
X031653Y011655D01*
X031902Y011475D02*
X032142Y011475D01*
X032082Y011295D02*
X032082Y011655D01*
X031902Y011475D01*
X031430Y014158D02*
X031070Y014158D01*
X031070Y014339D01*
X031130Y014399D01*
X031250Y014399D01*
X031310Y014339D01*
X031310Y014158D01*
X031310Y014278D02*
X031430Y014399D01*
X031430Y014527D02*
X031370Y014527D01*
X031130Y014767D01*
X031070Y014767D01*
X031070Y014527D01*
X031583Y014805D02*
X031643Y014745D01*
X031703Y014745D01*
X031764Y014805D01*
X031764Y015105D01*
X031824Y015105D02*
X031703Y015105D01*
X031952Y015105D02*
X031952Y014925D01*
X032072Y014985D01*
X032132Y014985D01*
X032192Y014925D01*
X032192Y014805D01*
X032132Y014745D01*
X032012Y014745D01*
X031952Y014805D01*
X031952Y015105D02*
X032192Y015105D01*
X029930Y015295D02*
X029930Y015448D01*
X029930Y015372D02*
X029470Y015372D01*
X029470Y015448D02*
X029470Y015295D01*
X029546Y015602D02*
X029470Y015679D01*
X029470Y015832D01*
X029546Y015909D01*
X029546Y016062D02*
X029470Y016139D01*
X029470Y016293D01*
X029546Y016369D01*
X029623Y016369D01*
X029700Y016293D01*
X029700Y016139D01*
X029623Y016062D01*
X029546Y016062D01*
X029700Y016139D02*
X029777Y016062D01*
X029853Y016062D01*
X029930Y016139D01*
X029930Y016293D01*
X029853Y016369D01*
X029777Y016369D01*
X029700Y016293D01*
X029853Y015909D02*
X029930Y015832D01*
X029930Y015679D01*
X029853Y015602D01*
X029546Y015602D01*
X030430Y017195D02*
X030550Y017195D01*
X030610Y017255D01*
X030738Y017195D02*
X030979Y017195D01*
X030858Y017195D02*
X030858Y017555D01*
X030738Y017435D01*
X030610Y017495D02*
X030550Y017555D01*
X030430Y017555D01*
X030370Y017495D01*
X030370Y017255D01*
X030430Y017195D01*
X031107Y017255D02*
X031167Y017195D01*
X031287Y017195D01*
X031347Y017255D01*
X031347Y017375D01*
X031287Y017435D01*
X031227Y017435D01*
X031107Y017375D01*
X031107Y017555D01*
X031347Y017555D01*
X031583Y017805D02*
X031643Y017745D01*
X031703Y017745D01*
X031764Y017805D01*
X031764Y018105D01*
X031824Y018105D02*
X031703Y018105D01*
X031952Y017925D02*
X031952Y017805D01*
X032012Y017745D01*
X032132Y017745D01*
X032192Y017805D01*
X032192Y017865D01*
X032132Y017925D01*
X031952Y017925D01*
X032072Y018045D01*
X032192Y018105D01*
X027660Y009105D02*
X027660Y008645D01*
X027967Y008645D01*
X023894Y007105D02*
X023741Y007029D01*
X023587Y006875D01*
X023818Y006875D01*
X023894Y006798D01*
X023894Y006722D01*
X023818Y006645D01*
X023664Y006645D01*
X023587Y006722D01*
X023587Y006875D01*
X023434Y006722D02*
X023357Y006645D01*
X023204Y006645D01*
X023127Y006722D01*
X023127Y007029D01*
X023204Y007105D01*
X023357Y007105D01*
X023434Y007029D01*
X022973Y007105D02*
X022820Y007105D01*
X022897Y007105D02*
X022897Y006645D01*
X022973Y006645D02*
X022820Y006645D01*
X021230Y006581D02*
X021230Y006274D01*
X020923Y006581D01*
X020846Y006581D01*
X020770Y006504D01*
X020770Y006351D01*
X020846Y006274D01*
X020846Y006121D02*
X020770Y006044D01*
X020770Y005891D01*
X020846Y005814D01*
X021153Y005814D01*
X021230Y005891D01*
X021230Y006044D01*
X021153Y006121D01*
X021153Y006735D02*
X021230Y006811D01*
X021230Y006965D01*
X021153Y007042D01*
X021077Y007042D01*
X021000Y006965D01*
X021000Y006888D01*
X021000Y006965D02*
X020923Y007042D01*
X020846Y007042D01*
X020770Y006965D01*
X020770Y006811D01*
X020846Y006735D01*
X020491Y007345D02*
X020491Y007422D01*
X020798Y007729D01*
X020798Y007805D01*
X020491Y007805D01*
X020337Y007729D02*
X020261Y007805D01*
X020107Y007805D01*
X020030Y007729D01*
X019877Y007729D02*
X019800Y007805D01*
X019647Y007805D01*
X019570Y007729D01*
X019570Y007422D01*
X019647Y007345D01*
X019800Y007345D01*
X019877Y007422D01*
X020030Y007345D02*
X020337Y007652D01*
X020337Y007729D01*
X020337Y007345D02*
X020030Y007345D01*
X019017Y006879D02*
X019017Y006802D01*
X018710Y006495D01*
X019017Y006495D01*
X019017Y006879D02*
X018940Y006955D01*
X018786Y006955D01*
X018710Y006879D01*
X018556Y006879D02*
X018556Y006802D01*
X018249Y006495D01*
X018556Y006495D01*
X018096Y006495D02*
X017942Y006648D01*
X018019Y006648D02*
X017789Y006648D01*
X017789Y006495D02*
X017789Y006955D01*
X018019Y006955D01*
X018096Y006879D01*
X018096Y006725D01*
X018019Y006648D01*
X018249Y006879D02*
X018326Y006955D01*
X018479Y006955D01*
X018556Y006879D01*
X017598Y006495D02*
X017291Y006495D01*
X017444Y006495D02*
X017444Y006955D01*
X017291Y006802D01*
X017137Y006802D02*
X017137Y006879D01*
X017061Y006955D01*
X016907Y006955D01*
X016830Y006879D01*
X016677Y006879D02*
X016677Y006725D01*
X016600Y006648D01*
X016370Y006648D01*
X016370Y006495D02*
X016370Y006955D01*
X016600Y006955D01*
X016677Y006879D01*
X016523Y006648D02*
X016677Y006495D01*
X016830Y006495D02*
X017137Y006802D01*
X017137Y006495D02*
X016830Y006495D01*
X016029Y006345D02*
X015968Y006405D01*
X015848Y006405D01*
X015788Y006345D01*
X015660Y006405D02*
X015540Y006405D01*
X015600Y006405D02*
X015600Y006105D01*
X015540Y006045D01*
X015480Y006045D01*
X015420Y006105D01*
X015788Y006045D02*
X016029Y006285D01*
X016029Y006345D01*
X016029Y006045D02*
X015788Y006045D01*
X014480Y005750D02*
X014327Y005904D01*
X014020Y005904D01*
X014020Y005597D02*
X014327Y005597D01*
X014480Y005750D01*
X014403Y005443D02*
X014250Y005443D01*
X014173Y005367D01*
X014173Y005290D01*
X014250Y005137D01*
X014020Y005137D01*
X014020Y005443D01*
X014403Y005443D02*
X014480Y005367D01*
X014480Y005213D01*
X014403Y005137D01*
X014250Y004983D02*
X014250Y004676D01*
X014250Y004523D02*
X014327Y004446D01*
X014327Y004216D01*
X014480Y004216D02*
X014020Y004216D01*
X014020Y004446D01*
X014096Y004523D01*
X014250Y004523D01*
X014020Y004062D02*
X014480Y004062D01*
X014770Y004139D02*
X014770Y004293D01*
X014846Y004369D01*
X014770Y004139D02*
X014846Y004062D01*
X015153Y004062D01*
X015230Y004139D01*
X015230Y004293D01*
X015153Y004369D01*
X015230Y003909D02*
X015230Y003602D01*
X014923Y003909D01*
X014846Y003909D01*
X014770Y003832D01*
X014770Y003679D01*
X014846Y003602D01*
X014770Y003448D02*
X014770Y003295D01*
X014770Y003372D02*
X015230Y003372D01*
X015230Y003448D02*
X015230Y003295D01*
X015629Y003012D02*
X015673Y003055D01*
X015760Y003055D01*
X015803Y003012D01*
X015803Y002968D01*
X015760Y002925D01*
X015803Y002882D01*
X015803Y002838D01*
X015760Y002795D01*
X015673Y002795D01*
X015629Y002838D01*
X015716Y002925D02*
X015760Y002925D01*
X015906Y002838D02*
X015949Y002838D01*
X015949Y002795D01*
X015906Y002795D01*
X015906Y002838D01*
X016044Y002838D02*
X016087Y002795D01*
X016174Y002795D01*
X016217Y002838D01*
X016217Y002882D01*
X016174Y002925D01*
X016131Y002925D01*
X016174Y002925D02*
X016217Y002968D01*
X016217Y003012D01*
X016174Y003055D01*
X016087Y003055D01*
X016044Y003012D01*
X016541Y003012D02*
X016541Y002968D01*
X016585Y002925D01*
X016671Y002925D01*
X016715Y002882D01*
X016715Y002838D01*
X016671Y002795D01*
X016585Y002795D01*
X016541Y002838D01*
X016541Y003012D02*
X016585Y003055D01*
X016671Y003055D01*
X016715Y003012D01*
X016818Y003012D02*
X016818Y002838D01*
X016861Y002795D01*
X016948Y002795D01*
X016991Y002838D01*
X017094Y002795D02*
X017267Y002795D01*
X017094Y002795D02*
X017094Y003055D01*
X016991Y003012D02*
X016948Y003055D01*
X016861Y003055D01*
X016818Y003012D01*
X017641Y003012D02*
X017641Y002968D01*
X017685Y002925D01*
X017771Y002925D01*
X017815Y002882D01*
X017815Y002838D01*
X017771Y002795D01*
X017685Y002795D01*
X017641Y002838D01*
X017641Y003012D02*
X017685Y003055D01*
X017771Y003055D01*
X017815Y003012D01*
X017918Y003055D02*
X017918Y002795D01*
X018048Y002795D01*
X018091Y002838D01*
X018091Y003012D01*
X018048Y003055D01*
X017918Y003055D01*
X018194Y002968D02*
X018281Y003055D01*
X018367Y002968D01*
X018367Y002795D01*
X018367Y002925D02*
X018194Y002925D01*
X018194Y002968D02*
X018194Y002795D01*
X018691Y002838D02*
X018735Y002795D01*
X018821Y002795D01*
X018865Y002838D01*
X018865Y002925D01*
X018778Y002925D01*
X018691Y003012D02*
X018691Y002838D01*
X018691Y003012D02*
X018735Y003055D01*
X018821Y003055D01*
X018865Y003012D01*
X018968Y003055D02*
X019141Y002795D01*
X019141Y003055D01*
X019244Y003055D02*
X019374Y003055D01*
X019417Y003012D01*
X019417Y002838D01*
X019374Y002795D01*
X019244Y002795D01*
X019244Y003055D01*
X018968Y003055D02*
X018968Y002795D01*
X019547Y003545D02*
X019700Y003545D01*
X019777Y003622D01*
X019930Y003545D02*
X020237Y003852D01*
X020237Y003929D01*
X020161Y004005D01*
X020007Y004005D01*
X019930Y003929D01*
X019777Y003929D02*
X019700Y004005D01*
X019547Y004005D01*
X019470Y003929D01*
X019470Y003622D01*
X019547Y003545D01*
X019930Y003545D02*
X020237Y003545D01*
X020391Y003622D02*
X020391Y003775D01*
X020621Y003775D01*
X020698Y003698D01*
X020698Y003622D01*
X020621Y003545D01*
X020468Y003545D01*
X020391Y003622D01*
X020391Y003775D02*
X020544Y003929D01*
X020698Y004005D01*
X020770Y004091D02*
X020770Y004244D01*
X020846Y004321D01*
X020846Y004474D02*
X020770Y004551D01*
X020770Y004704D01*
X020846Y004781D01*
X020923Y004781D01*
X021230Y004474D01*
X021230Y004781D01*
X021230Y004935D02*
X020923Y005242D01*
X020846Y005242D01*
X020770Y005165D01*
X020770Y005011D01*
X020846Y004935D01*
X021230Y004935D02*
X021230Y005242D01*
X021153Y004321D02*
X021230Y004244D01*
X021230Y004091D01*
X021153Y004014D01*
X020846Y004014D01*
X020770Y004091D01*
X023446Y002780D02*
X023446Y002520D01*
X023619Y002520D02*
X023619Y002780D01*
X023532Y002693D01*
X023446Y002780D01*
X023722Y002693D02*
X023765Y002693D01*
X023765Y002520D01*
X023722Y002520D02*
X023808Y002520D01*
X023906Y002563D02*
X023949Y002520D01*
X024079Y002520D01*
X024182Y002520D02*
X024312Y002520D01*
X024356Y002563D01*
X024356Y002607D01*
X024312Y002650D01*
X024182Y002650D01*
X024079Y002693D02*
X023949Y002693D01*
X023906Y002650D01*
X023906Y002563D01*
X023765Y002780D02*
X023765Y002824D01*
X024182Y002780D02*
X024182Y002520D01*
X024312Y002650D02*
X024356Y002693D01*
X024356Y002737D01*
X024312Y002780D01*
X024182Y002780D01*
X024458Y002693D02*
X024502Y002693D01*
X024502Y002520D01*
X024545Y002520D02*
X024458Y002520D01*
X024643Y002563D02*
X024686Y002607D01*
X024816Y002607D01*
X024816Y002650D02*
X024816Y002520D01*
X024686Y002520D01*
X024643Y002563D01*
X024686Y002693D02*
X024773Y002693D01*
X024816Y002650D01*
X024919Y002650D02*
X024962Y002693D01*
X025092Y002693D01*
X025049Y002607D02*
X024962Y002607D01*
X024919Y002650D01*
X024919Y002520D02*
X025049Y002520D01*
X025092Y002563D01*
X025049Y002607D01*
X024502Y002780D02*
X024502Y002824D01*
X014480Y003295D02*
X014173Y003295D01*
X014020Y003448D01*
X014173Y003602D01*
X014480Y003602D01*
X014480Y003755D02*
X014020Y003755D01*
X014173Y003909D01*
X014020Y004062D01*
X014250Y003602D02*
X014250Y003295D01*
X013467Y003012D02*
X013424Y003055D01*
X013337Y003055D01*
X013294Y003012D01*
X013294Y002838D01*
X013337Y002795D01*
X013424Y002795D01*
X013467Y002838D01*
X013467Y002925D01*
X013381Y002925D01*
X012867Y002882D02*
X012781Y002795D01*
X012694Y002882D01*
X012694Y003055D01*
X012591Y003055D02*
X012418Y003055D01*
X012418Y002925D01*
X012504Y002968D01*
X012548Y002968D01*
X012591Y002925D01*
X012591Y002838D01*
X012548Y002795D01*
X012461Y002795D01*
X012418Y002838D01*
X012867Y002882D02*
X012867Y003055D01*
X010217Y002929D02*
X010217Y002852D01*
X009910Y002545D01*
X010217Y002545D01*
X010217Y002929D02*
X010140Y003005D01*
X009986Y003005D01*
X009910Y002929D01*
X009756Y002929D02*
X009756Y002852D01*
X009679Y002775D01*
X009756Y002698D01*
X009756Y002622D01*
X009679Y002545D01*
X009526Y002545D01*
X009449Y002622D01*
X009296Y002622D02*
X009219Y002545D01*
X009066Y002545D01*
X008989Y002622D01*
X008989Y002929D01*
X009066Y003005D01*
X009219Y003005D01*
X009296Y002929D01*
X009449Y002929D02*
X009526Y003005D01*
X009679Y003005D01*
X009756Y002929D01*
X009679Y002775D02*
X009603Y002775D01*
X008303Y004214D02*
X007996Y004214D01*
X007920Y004291D01*
X007920Y004444D01*
X007996Y004521D01*
X007996Y004674D02*
X007920Y004751D01*
X007920Y004904D01*
X007996Y004981D01*
X008073Y004981D01*
X008150Y004904D01*
X008227Y004981D01*
X008303Y004981D01*
X008380Y004904D01*
X008380Y004751D01*
X008303Y004674D01*
X008303Y004521D02*
X008380Y004444D01*
X008380Y004291D01*
X008303Y004214D01*
X008150Y004828D02*
X008150Y004904D01*
X008150Y005135D02*
X008150Y005442D01*
X008380Y005365D02*
X007920Y005365D01*
X008150Y005135D01*
X008966Y006645D02*
X009119Y006645D01*
X009196Y006722D01*
X009349Y006722D02*
X009426Y006645D01*
X009579Y006645D01*
X009656Y006722D01*
X009656Y006798D01*
X009579Y006875D01*
X009503Y006875D01*
X009579Y006875D02*
X009656Y006952D01*
X009656Y007029D01*
X009579Y007105D01*
X009426Y007105D01*
X009349Y007029D01*
X009196Y007029D02*
X009119Y007105D01*
X008966Y007105D01*
X008889Y007029D01*
X008889Y006722D01*
X008966Y006645D01*
X009810Y006722D02*
X009886Y006645D01*
X010040Y006645D01*
X010117Y006722D01*
X010117Y006798D01*
X010040Y006875D01*
X009963Y006875D01*
X010040Y006875D02*
X010117Y006952D01*
X010117Y007029D01*
X010040Y007105D01*
X009886Y007105D01*
X009810Y007029D01*
X011020Y006446D02*
X011250Y006216D01*
X011250Y006523D01*
X011480Y006446D02*
X011020Y006446D01*
X011096Y006062D02*
X011173Y006062D01*
X011250Y005986D01*
X011250Y005755D01*
X011480Y005755D02*
X011480Y005986D01*
X011403Y006062D01*
X011327Y006062D01*
X011250Y005986D01*
X011096Y006062D02*
X011020Y005986D01*
X011020Y005755D01*
X011480Y005755D01*
X011020Y005602D02*
X011020Y005295D01*
X011480Y005295D01*
X011250Y005295D02*
X011250Y005448D01*
X011870Y006105D02*
X011930Y006045D01*
X011990Y006045D01*
X012050Y006105D01*
X012050Y006405D01*
X011990Y006405D02*
X012110Y006405D01*
X012238Y006285D02*
X012358Y006405D01*
X012358Y006045D01*
X012238Y006045D02*
X012479Y006045D01*
D12*
X007195Y004341D02*
X007195Y004127D01*
X007088Y004020D01*
X006875Y004020D01*
X006768Y004127D01*
X006768Y004341D01*
X006875Y004447D01*
X007088Y004447D01*
X007195Y004341D01*
X007195Y003804D02*
X007195Y003591D01*
X007195Y003697D02*
X006768Y003697D01*
X006768Y003591D01*
X006554Y003697D02*
X006448Y003697D01*
X007088Y003375D02*
X007088Y003268D01*
X007195Y003268D01*
X007195Y003375D01*
X007088Y003375D01*
X006981Y003051D02*
X006981Y002731D01*
X007088Y002624D01*
X007195Y002731D01*
X007195Y003051D01*
X006875Y003051D01*
X006768Y002944D01*
X006768Y002731D01*
X006554Y002301D02*
X007195Y002301D01*
X007195Y002194D02*
X007195Y002408D01*
X007500Y002125D02*
X007750Y002375D01*
X008250Y002375D01*
X008500Y002125D01*
X008500Y000625D01*
X008750Y000375D01*
X009250Y000375D01*
X009500Y000625D01*
X009500Y002125D01*
X009750Y002375D01*
X010250Y002375D01*
X010500Y002125D01*
X010500Y000625D01*
X010750Y000375D01*
X011250Y000375D01*
X011500Y000625D01*
X011500Y002125D01*
X011750Y002375D01*
X012250Y002375D01*
X012500Y002125D01*
X012500Y000625D01*
X012750Y000375D01*
X013250Y000375D01*
X013500Y000625D01*
X013500Y002125D01*
X013750Y002375D01*
X014250Y002375D01*
X014500Y002125D01*
X014500Y000625D01*
X014250Y000375D01*
X013750Y000375D01*
X013500Y000625D01*
X012500Y000625D02*
X012250Y000375D01*
X011750Y000375D01*
X011500Y000625D01*
X010500Y000625D02*
X010250Y000375D01*
X009750Y000375D01*
X009500Y000625D01*
X008500Y000625D02*
X008250Y000375D01*
X007750Y000375D01*
X007500Y000625D01*
X007500Y002125D01*
X007195Y001870D02*
X007195Y001656D01*
X007088Y001550D01*
X006875Y001550D01*
X006768Y001656D01*
X006768Y001870D01*
X006875Y001977D01*
X006981Y001977D01*
X006981Y001550D01*
X006875Y001332D02*
X006768Y001225D01*
X006768Y000905D01*
X006554Y000905D02*
X007195Y000905D01*
X007195Y001225D01*
X007088Y001332D01*
X006875Y001332D01*
X006554Y002194D02*
X006554Y002301D01*
X008500Y002125D02*
X008750Y002375D01*
X009250Y002375D01*
X009500Y002125D01*
X010500Y002125D02*
X010750Y002375D01*
X011250Y002375D01*
X011500Y002125D01*
X012500Y002125D02*
X012750Y002375D01*
X013250Y002375D01*
X013500Y002125D01*
X014500Y002125D02*
X014750Y002375D01*
X015250Y002375D01*
X015500Y002125D01*
X015500Y000625D01*
X015250Y000375D01*
X014750Y000375D01*
X014500Y000625D01*
X015500Y000625D02*
X015750Y000375D01*
X016250Y000375D01*
X016500Y000625D01*
X016500Y002125D01*
X016750Y002375D01*
X017250Y002375D01*
X017500Y002125D01*
X017500Y000625D01*
X017250Y000375D01*
X016750Y000375D01*
X016500Y000625D01*
X017500Y000625D02*
X017750Y000375D01*
X018250Y000375D01*
X018500Y000625D01*
X018500Y002125D01*
X018750Y002375D01*
X019250Y002375D01*
X019500Y002125D01*
X019500Y000625D01*
X019250Y000375D01*
X018750Y000375D01*
X018500Y000625D01*
X019500Y000625D02*
X019750Y000375D01*
X020250Y000375D01*
X020500Y000625D01*
X020500Y002125D01*
X020750Y002375D01*
X021250Y002375D01*
X021500Y002125D01*
X021500Y000625D01*
X021250Y000375D01*
X020750Y000375D01*
X020500Y000625D01*
X021500Y000625D02*
X021750Y000375D01*
X022250Y000375D01*
X022500Y000625D01*
X022500Y002125D01*
X022750Y002375D01*
X023250Y002375D01*
X023500Y002125D01*
X023750Y002375D01*
X024250Y002375D01*
X024500Y002125D01*
X024750Y002375D01*
X025250Y002375D01*
X025500Y002125D01*
X025750Y002375D01*
X026250Y002375D01*
X026500Y002125D01*
X026750Y002375D01*
X027250Y002375D01*
X027500Y002125D01*
X027750Y002375D01*
X028250Y002375D01*
X028500Y002125D01*
X028750Y002375D01*
X029250Y002375D01*
X029500Y002125D01*
X029750Y002375D01*
X030250Y002375D01*
X030500Y002125D01*
X030500Y000625D01*
X030250Y000375D01*
X029750Y000375D01*
X029500Y000625D01*
X029500Y002125D01*
X028500Y002125D02*
X028500Y000625D01*
X028750Y000375D01*
X029250Y000375D01*
X029500Y000625D01*
X028500Y000625D02*
X028250Y000375D01*
X027750Y000375D01*
X027500Y000625D01*
X027500Y002125D01*
X027440Y002613D02*
X027120Y002613D01*
X027120Y002833D01*
X027120Y003513D02*
X027120Y003733D01*
X027440Y003733D01*
X027440Y003977D02*
X027120Y003977D01*
X027120Y004197D01*
X027120Y004877D02*
X027120Y005097D01*
X027440Y005097D01*
X024700Y003625D02*
X024700Y003125D01*
X024450Y002875D01*
X023950Y002875D01*
X023700Y003125D01*
X023700Y003625D01*
X023950Y003875D01*
X024450Y003875D01*
X024700Y003625D01*
X024500Y002125D02*
X024500Y000625D01*
X024750Y000375D01*
X025250Y000375D01*
X025500Y000625D01*
X025750Y000375D01*
X026250Y000375D01*
X026500Y000625D01*
X026750Y000375D01*
X027250Y000375D01*
X027500Y000625D01*
X026500Y000625D02*
X026500Y002125D01*
X025500Y002125D02*
X025500Y000625D01*
X024500Y000625D02*
X024250Y000375D01*
X023750Y000375D01*
X023500Y000625D01*
X023500Y002125D01*
X022500Y002125D02*
X022250Y002375D01*
X021750Y002375D01*
X021500Y002125D01*
X020500Y002125D02*
X020250Y002375D01*
X019750Y002375D01*
X019500Y002125D01*
X018500Y002125D02*
X018250Y002375D01*
X017750Y002375D01*
X017500Y002125D01*
X016500Y002125D02*
X016250Y002375D01*
X015750Y002375D01*
X015500Y002125D01*
X022500Y000625D02*
X022750Y000375D01*
X023250Y000375D01*
X023500Y000625D01*
X031730Y001928D02*
X031803Y001855D01*
X031950Y001855D01*
X032024Y001928D01*
X032024Y002222D01*
X031950Y002295D01*
X031803Y002295D01*
X031730Y002222D01*
X031730Y001928D01*
X032190Y001855D02*
X032190Y002295D01*
X032484Y002295D01*
X032651Y002295D02*
X032944Y002295D01*
X032798Y002075D02*
X032651Y002075D01*
X032651Y001855D02*
X032651Y002295D01*
X032337Y002075D02*
X032190Y002075D01*
X033280Y007255D02*
X033427Y007255D01*
X033353Y007255D02*
X033353Y007695D01*
X033280Y007695D02*
X033427Y007695D01*
X033587Y007695D02*
X033881Y007255D01*
X033881Y007695D01*
X033587Y007695D02*
X033587Y007255D01*
X033561Y011255D02*
X033634Y011328D01*
X033634Y011695D01*
X033801Y011695D02*
X034094Y011695D01*
X033948Y011695D02*
X033948Y011255D01*
X033561Y011255D02*
X033414Y011255D01*
X033340Y011328D01*
X033340Y011695D01*
X033174Y011622D02*
X033100Y011695D01*
X032953Y011695D01*
X032880Y011622D01*
X032880Y011328D01*
X032953Y011255D01*
X033100Y011255D01*
X033174Y011328D01*
X033174Y011622D01*
X033480Y014755D02*
X033774Y014755D01*
X033480Y014755D02*
X033480Y015195D01*
X033480Y017755D02*
X033480Y018195D01*
X033700Y018195D01*
X033774Y018122D01*
X033774Y017975D01*
X033700Y017902D01*
X033480Y017902D01*
X033627Y017902D02*
X033774Y017755D01*
X030500Y019625D02*
X030250Y019375D01*
X029750Y019375D01*
X029500Y019625D01*
X029500Y021125D01*
X029750Y021375D01*
X030250Y021375D01*
X030500Y021125D01*
X030500Y019625D01*
X029500Y019625D02*
X029250Y019375D01*
X028750Y019375D01*
X028500Y019625D01*
X028500Y021125D01*
X028750Y021375D01*
X029250Y021375D01*
X029500Y021125D01*
X028500Y021125D02*
X028250Y021375D01*
X027750Y021375D01*
X027500Y021125D01*
X027500Y019625D01*
X027750Y019375D01*
X028250Y019375D01*
X028500Y019625D01*
X027500Y019625D02*
X027250Y019375D01*
X026750Y019375D01*
X026500Y019625D01*
X026500Y021125D01*
X026750Y021375D01*
X027250Y021375D01*
X027500Y021125D01*
X026500Y021125D02*
X026250Y021375D01*
X025750Y021375D01*
X025500Y021125D01*
X025500Y019625D01*
X025750Y019375D01*
X026250Y019375D01*
X026500Y019625D01*
X025500Y019625D02*
X025250Y019375D01*
X024750Y019375D01*
X024500Y019625D01*
X024500Y021125D01*
X024750Y021375D01*
X025250Y021375D01*
X025500Y021125D01*
X024500Y021125D02*
X024250Y021375D01*
X023750Y021375D01*
X023500Y021125D01*
X023500Y019625D01*
X023750Y019375D01*
X024250Y019375D01*
X024500Y019625D01*
X023500Y019625D02*
X023250Y019375D01*
X022750Y019375D01*
X022500Y019625D01*
X022500Y021125D01*
X022750Y021375D01*
X023250Y021375D01*
X023500Y021125D01*
X022500Y021125D02*
X022250Y021375D01*
X021750Y021375D01*
X021500Y021125D01*
X021500Y019625D01*
X021250Y019375D01*
X020750Y019375D01*
X020500Y019625D01*
X020500Y021125D01*
X020750Y021375D01*
X021250Y021375D01*
X021500Y021125D01*
X020500Y021125D02*
X020250Y021375D01*
X019750Y021375D01*
X019500Y021125D01*
X019500Y019625D01*
X019250Y019375D01*
X018750Y019375D01*
X018500Y019625D01*
X018500Y021125D01*
X018750Y021375D01*
X019250Y021375D01*
X019500Y021125D01*
X018500Y021125D02*
X018250Y021375D01*
X017750Y021375D01*
X017500Y021125D01*
X017500Y019625D01*
X017250Y019375D01*
X016750Y019375D01*
X016500Y019625D01*
X016500Y021125D01*
X016750Y021375D01*
X017250Y021375D01*
X017500Y021125D01*
X016500Y021125D02*
X016250Y021375D01*
X015750Y021375D01*
X015500Y021125D01*
X015500Y019625D01*
X015250Y019375D01*
X014750Y019375D01*
X014500Y019625D01*
X014500Y021125D01*
X014750Y021375D01*
X015250Y021375D01*
X015500Y021125D01*
X014500Y021125D02*
X014250Y021375D01*
X013750Y021375D01*
X013500Y021125D01*
X013500Y019625D01*
X013750Y019375D01*
X014250Y019375D01*
X014500Y019625D01*
X015500Y019625D02*
X015750Y019375D01*
X016250Y019375D01*
X016500Y019625D01*
X017500Y019625D02*
X017750Y019375D01*
X018250Y019375D01*
X018500Y019625D01*
X019500Y019625D02*
X019750Y019375D01*
X020250Y019375D01*
X020500Y019625D01*
X021500Y019625D02*
X021750Y019375D01*
X022250Y019375D01*
X022500Y019625D01*
X023750Y018375D02*
X024250Y018375D01*
X024500Y018125D01*
X024500Y017625D01*
X024250Y017375D01*
X024500Y017125D01*
X024500Y016625D01*
X024250Y016375D01*
X024500Y016125D01*
X024500Y015625D01*
X024250Y015375D01*
X024500Y015125D01*
X024500Y014625D01*
X024250Y014375D01*
X024500Y014125D01*
X024500Y013625D01*
X024250Y013375D01*
X024500Y013125D01*
X024500Y012625D01*
X024250Y012375D01*
X024500Y012125D01*
X024500Y011625D01*
X024250Y011375D01*
X024500Y011125D01*
X024500Y010625D01*
X024250Y010375D01*
X024500Y010125D01*
X024500Y009625D01*
X024250Y009375D01*
X024500Y009125D01*
X024500Y008625D01*
X024250Y008375D01*
X023750Y008375D01*
X023500Y008625D01*
X023500Y009125D01*
X023750Y009375D01*
X023500Y009625D01*
X023500Y010125D01*
X023750Y010375D01*
X024250Y010375D01*
X023750Y010375D02*
X023500Y010625D01*
X023500Y011125D01*
X023750Y011375D01*
X023500Y011625D01*
X023500Y012125D01*
X023750Y012375D01*
X023500Y012625D01*
X023500Y013125D01*
X023750Y013375D01*
X024250Y013375D01*
X023750Y013375D02*
X023500Y013625D01*
X023500Y014125D01*
X023750Y014375D01*
X023500Y014625D01*
X023500Y015125D01*
X023750Y015375D01*
X023500Y015625D01*
X023500Y016125D01*
X023750Y016375D01*
X024250Y016375D01*
X023750Y016375D02*
X023500Y016625D01*
X023500Y017125D01*
X023750Y017375D01*
X023500Y017625D01*
X023500Y018125D01*
X023750Y018375D01*
X023750Y017375D02*
X024250Y017375D01*
X024250Y015375D02*
X023750Y015375D01*
X023750Y014375D02*
X024250Y014375D01*
X021500Y013125D02*
X021500Y012625D01*
X021250Y012375D01*
X020750Y012375D01*
X020500Y012625D01*
X020500Y013125D01*
X020750Y013375D01*
X021250Y013375D01*
X021500Y013125D01*
X023750Y012375D02*
X024250Y012375D01*
X024250Y011375D02*
X023750Y011375D01*
X023750Y009375D02*
X024250Y009375D01*
X012390Y010026D02*
X012390Y011824D01*
X012150Y013048D02*
X010450Y013048D01*
X010450Y015001D01*
X012150Y015001D01*
X012150Y013048D01*
X010410Y011824D02*
X010410Y010026D01*
X010580Y010445D02*
X010582Y010471D01*
X010588Y010497D01*
X010597Y010521D01*
X010610Y010544D01*
X010626Y010565D01*
X010645Y010583D01*
X010666Y010599D01*
X010690Y010611D01*
X010714Y010619D01*
X010740Y010624D01*
X010767Y010625D01*
X010793Y010622D01*
X010818Y010615D01*
X010842Y010605D01*
X010865Y010591D01*
X010885Y010575D01*
X010902Y010555D01*
X010917Y010533D01*
X010928Y010509D01*
X010936Y010484D01*
X010940Y010458D01*
X010940Y010432D01*
X010936Y010406D01*
X010928Y010381D01*
X010917Y010357D01*
X010902Y010335D01*
X010885Y010315D01*
X010865Y010299D01*
X010842Y010285D01*
X010818Y010275D01*
X010793Y010268D01*
X010767Y010265D01*
X010740Y010266D01*
X010714Y010271D01*
X010690Y010279D01*
X010666Y010291D01*
X010645Y010307D01*
X010626Y010325D01*
X010610Y010346D01*
X010597Y010369D01*
X010588Y010393D01*
X010582Y010419D01*
X010580Y010445D01*
X010750Y017375D02*
X010500Y017625D01*
X010250Y017375D01*
X009750Y017375D01*
X009500Y017625D01*
X009500Y018125D01*
X009750Y018375D01*
X010250Y018375D01*
X010500Y018125D01*
X010750Y018375D01*
X011250Y018375D01*
X011500Y018125D01*
X011750Y018375D01*
X012250Y018375D01*
X012500Y018125D01*
X012750Y018375D01*
X013250Y018375D01*
X013500Y018125D01*
X013750Y018375D01*
X014250Y018375D01*
X014500Y018125D01*
X014750Y018375D01*
X015250Y018375D01*
X015500Y018125D01*
X015750Y018375D01*
X016250Y018375D01*
X016500Y018125D01*
X016750Y018375D01*
X017250Y018375D01*
X017500Y018125D01*
X017500Y017625D01*
X017250Y017375D01*
X016750Y017375D01*
X016500Y017625D01*
X016250Y017375D01*
X015750Y017375D01*
X015500Y017625D01*
X015500Y018125D01*
X015500Y017625D02*
X015250Y017375D01*
X014750Y017375D01*
X014500Y017625D01*
X014250Y017375D01*
X013750Y017375D01*
X013500Y017625D01*
X013250Y017375D01*
X012750Y017375D01*
X012500Y017625D01*
X012500Y018125D01*
X012500Y017625D02*
X012250Y017375D01*
X011750Y017375D01*
X011500Y017625D01*
X011250Y017375D01*
X010750Y017375D01*
X010500Y017625D02*
X010500Y018125D01*
X009500Y018125D02*
X009250Y018375D01*
X008750Y018375D01*
X008500Y018125D01*
X008250Y018375D01*
X007750Y018375D01*
X007500Y018125D01*
X007500Y017625D01*
X007750Y017375D01*
X008250Y017375D01*
X008500Y017625D01*
X008500Y018125D01*
X008500Y017625D02*
X008750Y017375D01*
X009250Y017375D01*
X009500Y017625D01*
X011500Y017625D02*
X011500Y018125D01*
X011250Y019375D02*
X010750Y019375D01*
X010500Y019625D01*
X010500Y021125D01*
X010750Y021375D01*
X011250Y021375D01*
X011500Y021125D01*
X011500Y019625D01*
X011750Y019375D01*
X012250Y019375D01*
X012500Y019625D01*
X012500Y021125D01*
X012750Y021375D01*
X013250Y021375D01*
X013500Y021125D01*
X012500Y021125D02*
X012250Y021375D01*
X011750Y021375D01*
X011500Y021125D01*
X010500Y021125D02*
X010250Y021375D01*
X009750Y021375D01*
X009500Y021125D01*
X009500Y019625D01*
X009750Y019375D01*
X010250Y019375D01*
X010500Y019625D01*
X009500Y019625D02*
X009250Y019375D01*
X008750Y019375D01*
X008500Y019625D01*
X008500Y021125D01*
X008750Y021375D01*
X009250Y021375D01*
X009500Y021125D01*
X008500Y021125D02*
X008250Y021375D01*
X007750Y021375D01*
X007500Y021125D01*
X007500Y019625D01*
X007750Y019375D01*
X008250Y019375D01*
X008500Y019625D01*
X011250Y019375D02*
X011500Y019625D01*
X012500Y019625D02*
X012750Y019375D01*
X013250Y019375D01*
X013500Y019625D01*
X013500Y018125D02*
X013500Y017625D01*
X014500Y017625D02*
X014500Y018125D01*
X016500Y018125D02*
X016500Y017625D01*
D13*
X018827Y013960D02*
X018765Y013899D01*
X018765Y013652D01*
X018827Y013590D01*
X018950Y013590D01*
X019012Y013652D01*
X019133Y013775D02*
X019380Y013775D01*
X019318Y013590D02*
X019318Y013960D01*
X019133Y013775D01*
X019012Y013899D02*
X018950Y013960D01*
X018827Y013960D01*
X018877Y012410D02*
X018815Y012349D01*
X018815Y012102D01*
X018877Y012040D01*
X019000Y012040D01*
X019062Y012102D01*
X019183Y012102D02*
X019245Y012040D01*
X019368Y012040D01*
X019430Y012102D01*
X019430Y012163D01*
X019368Y012225D01*
X019307Y012225D01*
X019368Y012225D02*
X019430Y012287D01*
X019430Y012349D01*
X019368Y012410D01*
X019245Y012410D01*
X019183Y012349D01*
X019062Y012349D02*
X019000Y012410D01*
X018877Y012410D01*
X018557Y011160D02*
X018557Y010790D01*
X018680Y010790D02*
X018433Y010790D01*
X018312Y010852D02*
X018250Y010790D01*
X018127Y010790D01*
X018065Y010852D01*
X018065Y011099D01*
X018127Y011160D01*
X018250Y011160D01*
X018312Y011099D01*
X018433Y011037D02*
X018557Y011160D01*
X017489Y010910D02*
X017242Y010910D01*
X017242Y010725D01*
X017365Y010787D01*
X017427Y010787D01*
X017489Y010725D01*
X017489Y010602D01*
X017427Y010540D01*
X017303Y010540D01*
X017242Y010602D01*
X017120Y010602D02*
X017120Y010663D01*
X017058Y010725D01*
X016997Y010725D01*
X017058Y010725D02*
X017120Y010787D01*
X017120Y010849D01*
X017058Y010910D01*
X016935Y010910D01*
X016873Y010849D01*
X016752Y010849D02*
X016690Y010910D01*
X016567Y010910D01*
X016505Y010849D01*
X016505Y010602D01*
X016567Y010540D01*
X016690Y010540D01*
X016752Y010602D01*
X016873Y010602D02*
X016935Y010540D01*
X017058Y010540D01*
X017120Y010602D01*
X015918Y013190D02*
X015918Y013560D01*
X015733Y013375D01*
X015980Y013375D01*
X015612Y013375D02*
X015612Y013499D01*
X015550Y013560D01*
X015365Y013560D01*
X015365Y013190D01*
X015365Y013313D02*
X015550Y013313D01*
X015612Y013375D01*
X015488Y013313D02*
X015612Y013190D01*
X025081Y006810D02*
X025275Y006810D01*
X025376Y006810D02*
X025521Y006810D01*
X025569Y006762D01*
X025569Y006713D01*
X025521Y006665D01*
X025376Y006665D01*
X025521Y006665D02*
X025569Y006617D01*
X025569Y006568D01*
X025521Y006520D01*
X025376Y006520D01*
X025376Y006810D01*
X025178Y006665D02*
X025081Y006665D01*
X025081Y006520D02*
X025081Y006810D01*
X025670Y006713D02*
X025767Y006810D01*
X025767Y006520D01*
X025670Y006520D02*
X025864Y006520D01*
X025908Y006380D02*
X025860Y006332D01*
X025908Y006380D02*
X026005Y006380D01*
X026053Y006332D01*
X026053Y006283D01*
X025860Y006090D01*
X026053Y006090D01*
X026154Y006090D02*
X026348Y006090D01*
X026251Y006090D02*
X026251Y006380D01*
X026154Y006283D01*
X026527Y006257D02*
X026576Y006160D01*
X026672Y006063D01*
X026672Y006208D01*
X026721Y006257D01*
X026769Y006257D01*
X026817Y006208D01*
X026817Y006112D01*
X026769Y006063D01*
X026672Y006063D01*
X026817Y005962D02*
X026817Y005769D01*
X026817Y005865D02*
X026527Y005865D01*
X026624Y005769D01*
X026576Y005667D02*
X026527Y005619D01*
X026527Y005522D01*
X026576Y005474D01*
X026769Y005474D01*
X026817Y005522D01*
X026817Y005619D01*
X026769Y005667D01*
X026664Y005153D02*
X026519Y005153D01*
X026519Y004863D01*
X026664Y004863D01*
X026713Y004912D01*
X026713Y005105D01*
X026664Y005153D01*
X026814Y005008D02*
X027008Y005008D01*
X026959Y004863D02*
X026959Y005153D01*
X026814Y005008D01*
X026214Y005318D02*
X026165Y005270D01*
X026069Y005270D01*
X026020Y005318D01*
X026020Y005415D02*
X026117Y005463D01*
X026165Y005463D01*
X026214Y005415D01*
X026214Y005318D01*
X026020Y005415D02*
X026020Y005560D01*
X026214Y005560D01*
X025919Y005512D02*
X025871Y005560D01*
X025774Y005560D01*
X025726Y005512D01*
X025625Y005512D02*
X025576Y005560D01*
X025479Y005560D01*
X025431Y005512D01*
X025431Y005318D01*
X025479Y005270D01*
X025576Y005270D01*
X025625Y005318D01*
X025726Y005270D02*
X025919Y005463D01*
X025919Y005512D01*
X025919Y005270D02*
X025726Y005270D01*
X025710Y006090D02*
X025613Y006090D01*
X025565Y006138D01*
X025565Y006332D01*
X025613Y006380D01*
X025710Y006380D01*
X025758Y006332D01*
X025758Y006138D02*
X025710Y006090D01*
X026531Y006654D02*
X026580Y006606D01*
X026773Y006606D01*
X026821Y006654D01*
X026821Y006751D01*
X026773Y006800D01*
X026821Y006901D02*
X026821Y007094D01*
X026821Y006997D02*
X026531Y006997D01*
X026628Y006901D01*
X026580Y006800D02*
X026531Y006751D01*
X026531Y006654D01*
X026531Y007195D02*
X026531Y007389D01*
X026580Y007389D01*
X026773Y007195D01*
X026821Y007195D01*
X028045Y008388D02*
X028093Y008340D01*
X028287Y008340D01*
X028335Y008388D01*
X028335Y008485D01*
X028287Y008533D01*
X028287Y008635D02*
X028335Y008683D01*
X028335Y008780D01*
X028287Y008828D01*
X028238Y008828D01*
X028190Y008780D01*
X028190Y008731D01*
X028190Y008780D02*
X028142Y008828D01*
X028093Y008828D01*
X028045Y008780D01*
X028045Y008683D01*
X028093Y008635D01*
X028093Y008533D02*
X028045Y008485D01*
X028045Y008388D01*
X028093Y008929D02*
X028045Y008978D01*
X028045Y009074D01*
X028093Y009123D01*
X028142Y009123D01*
X028190Y009074D01*
X028190Y008978D01*
X028142Y008929D01*
X028093Y008929D01*
X028190Y008978D02*
X028238Y008929D01*
X028287Y008929D01*
X028335Y008978D01*
X028335Y009074D01*
X028287Y009123D01*
X028238Y009123D01*
X028190Y009074D01*
X029281Y009420D02*
X029281Y009710D01*
X029426Y009710D01*
X029475Y009662D01*
X029475Y009565D01*
X029426Y009517D01*
X029281Y009517D01*
X029378Y009517D02*
X029475Y009420D01*
X029576Y009420D02*
X029769Y009420D01*
X029672Y009420D02*
X029672Y009710D01*
X029576Y009613D01*
X029870Y009662D02*
X029919Y009710D01*
X030015Y009710D01*
X030064Y009662D01*
X030064Y009613D01*
X030015Y009565D01*
X030064Y009517D01*
X030064Y009468D01*
X030015Y009420D01*
X029919Y009420D01*
X029870Y009468D01*
X029967Y009565D02*
X030015Y009565D01*
X030665Y009090D02*
X030810Y008945D01*
X030810Y009139D01*
X030955Y009090D02*
X030665Y009090D01*
X030665Y008747D02*
X030955Y008747D01*
X030955Y008651D02*
X030955Y008844D01*
X030762Y008651D02*
X030665Y008747D01*
X030713Y008550D02*
X030810Y008550D01*
X030858Y008501D01*
X030858Y008356D01*
X030858Y008453D02*
X030955Y008550D01*
X030955Y008356D02*
X030665Y008356D01*
X030665Y008501D01*
X030713Y008550D01*
X030637Y007837D02*
X030540Y007789D01*
X030443Y007692D01*
X030588Y007692D01*
X030637Y007643D01*
X030637Y007595D01*
X030588Y007547D01*
X030491Y007547D01*
X030443Y007595D01*
X030443Y007692D01*
X030342Y007547D02*
X030148Y007547D01*
X030245Y007547D02*
X030245Y007837D01*
X030148Y007740D01*
X030047Y007692D02*
X029999Y007643D01*
X029854Y007643D01*
X029854Y007547D02*
X029854Y007837D01*
X029999Y007837D01*
X030047Y007789D01*
X030047Y007692D01*
X029951Y007643D02*
X030047Y007547D01*
X029598Y007540D02*
X029404Y007540D01*
X029598Y007733D01*
X029598Y007782D01*
X029549Y007830D01*
X029453Y007830D01*
X029404Y007782D01*
X029206Y007830D02*
X029206Y007540D01*
X029110Y007540D02*
X029303Y007540D01*
X029110Y007733D02*
X029206Y007830D01*
X029008Y007782D02*
X029008Y007685D01*
X028960Y007637D01*
X028815Y007637D01*
X028912Y007637D02*
X029008Y007540D01*
X028815Y007540D02*
X028815Y007830D01*
X028960Y007830D01*
X029008Y007782D01*
X031095Y007031D02*
X031385Y007031D01*
X031385Y006935D02*
X031385Y007128D01*
X031192Y006935D02*
X031095Y007031D01*
X031143Y006833D02*
X031095Y006785D01*
X031095Y006640D01*
X031385Y006640D01*
X031385Y006785D01*
X031337Y006833D01*
X031143Y006833D01*
X031163Y005789D02*
X031115Y005740D01*
X031115Y005644D01*
X031163Y005595D01*
X031163Y005494D02*
X031115Y005446D01*
X031115Y005301D01*
X031405Y005301D01*
X031405Y005446D01*
X031357Y005494D01*
X031163Y005494D01*
X031405Y005595D02*
X031212Y005789D01*
X031163Y005789D01*
X031405Y005789D02*
X031405Y005595D01*
X030655Y004964D02*
X030461Y004964D01*
X030461Y004819D01*
X030558Y004868D01*
X030606Y004868D01*
X030655Y004819D01*
X030655Y004723D01*
X030606Y004674D01*
X030510Y004674D01*
X030461Y004723D01*
X030360Y004674D02*
X030167Y004674D01*
X030263Y004674D02*
X030263Y004964D01*
X030167Y004868D01*
X030065Y004916D02*
X030065Y004819D01*
X030017Y004771D01*
X029872Y004771D01*
X029969Y004771D02*
X030065Y004674D01*
X029872Y004674D02*
X029872Y004964D01*
X030017Y004964D01*
X030065Y004916D01*
X029614Y004670D02*
X029420Y004670D01*
X029517Y004670D02*
X029517Y004960D01*
X029420Y004863D01*
X029319Y004670D02*
X029126Y004670D01*
X029222Y004670D02*
X029222Y004960D01*
X029126Y004863D01*
X029025Y004815D02*
X028976Y004767D01*
X028831Y004767D01*
X028928Y004767D02*
X029025Y004670D01*
X029025Y004815D02*
X029025Y004912D01*
X028976Y004960D01*
X028831Y004960D01*
X028831Y004670D01*
X030990Y004682D02*
X031038Y004634D01*
X031087Y004634D01*
X031135Y004682D01*
X031135Y004779D01*
X031183Y004828D01*
X031232Y004828D01*
X031280Y004779D01*
X031280Y004682D01*
X031232Y004634D01*
X031183Y004634D01*
X031135Y004682D01*
X031135Y004779D02*
X031087Y004828D01*
X031038Y004828D01*
X030990Y004779D01*
X030990Y004682D01*
X030990Y004436D02*
X031280Y004436D01*
X031280Y004339D02*
X031280Y004533D01*
X031087Y004339D02*
X030990Y004436D01*
X031038Y004238D02*
X031135Y004238D01*
X031183Y004190D01*
X031183Y004045D01*
X031183Y004142D02*
X031280Y004238D01*
X031280Y004045D02*
X030990Y004045D01*
X030990Y004190D01*
X031038Y004238D01*
X031056Y003773D02*
X031250Y003580D01*
X031298Y003580D01*
X031298Y003479D02*
X031298Y003285D01*
X031298Y003382D02*
X031008Y003382D01*
X031105Y003285D01*
X031153Y003184D02*
X031201Y003135D01*
X031201Y002990D01*
X031201Y003087D02*
X031298Y003184D01*
X031153Y003184D02*
X031056Y003184D01*
X031008Y003135D01*
X031008Y002990D01*
X031298Y002990D01*
X031199Y002398D02*
X031248Y002350D01*
X031054Y002157D01*
X031102Y002108D01*
X031199Y002108D01*
X031248Y002157D01*
X031248Y002350D01*
X031199Y002398D02*
X031102Y002398D01*
X031054Y002350D01*
X031054Y002157D01*
X030953Y002157D02*
X030905Y002108D01*
X030808Y002108D01*
X030759Y002157D01*
X030658Y002157D02*
X030610Y002108D01*
X030513Y002108D01*
X030465Y002157D01*
X030465Y002350D01*
X030513Y002398D01*
X030610Y002398D01*
X030658Y002350D01*
X030759Y002350D02*
X030808Y002398D01*
X030905Y002398D01*
X030953Y002350D01*
X030953Y002302D01*
X030905Y002253D01*
X030953Y002205D01*
X030953Y002157D01*
X030905Y002253D02*
X030856Y002253D01*
X031008Y003580D02*
X031008Y003773D01*
X031056Y003773D01*
X032031Y003813D02*
X032079Y003765D01*
X032176Y003765D01*
X032225Y003717D01*
X032225Y003668D01*
X032176Y003620D01*
X032079Y003620D01*
X032031Y003668D01*
X032031Y003813D02*
X032031Y003862D01*
X032079Y003910D01*
X032176Y003910D01*
X032225Y003862D01*
X032326Y003910D02*
X032326Y003620D01*
X032422Y003717D01*
X032519Y003620D01*
X032519Y003910D01*
X032620Y003813D02*
X032717Y003910D01*
X032717Y003620D01*
X032620Y003620D02*
X032814Y003620D01*
X026971Y002796D02*
X026971Y002748D01*
X026923Y002699D01*
X026971Y002651D01*
X026971Y002603D01*
X026923Y002554D01*
X026826Y002554D01*
X026778Y002603D01*
X026677Y002603D02*
X026677Y002796D01*
X026628Y002845D01*
X026483Y002845D01*
X026483Y002554D01*
X026628Y002554D01*
X026677Y002603D01*
X026778Y002796D02*
X026826Y002845D01*
X026923Y002845D01*
X026971Y002796D01*
X026923Y002699D02*
X026874Y002699D01*
X026214Y002865D02*
X026020Y002865D01*
X026165Y003010D01*
X026165Y002720D01*
X025919Y002720D02*
X025726Y002720D01*
X025919Y002913D01*
X025919Y002962D01*
X025871Y003010D01*
X025774Y003010D01*
X025726Y002962D01*
X025625Y002962D02*
X025576Y003010D01*
X025479Y003010D01*
X025431Y002962D01*
X025431Y002768D01*
X025479Y002720D01*
X025576Y002720D01*
X025625Y002768D01*
X025610Y003640D02*
X025658Y003688D01*
X025610Y003640D02*
X025513Y003640D01*
X025465Y003688D01*
X025465Y003882D01*
X025513Y003930D01*
X025610Y003930D01*
X025658Y003882D01*
X025760Y003882D02*
X025808Y003930D01*
X025905Y003930D01*
X025953Y003882D01*
X025953Y003833D01*
X025760Y003640D01*
X025953Y003640D01*
X026054Y003688D02*
X026248Y003882D01*
X026248Y003688D01*
X026199Y003640D01*
X026103Y003640D01*
X026054Y003688D01*
X026054Y003882D01*
X026103Y003930D01*
X026199Y003930D01*
X026248Y003882D01*
X022048Y003599D02*
X022048Y003537D01*
X021801Y003290D01*
X022048Y003290D01*
X021680Y003352D02*
X021618Y003290D01*
X021433Y003290D01*
X021433Y003660D01*
X021618Y003660D01*
X021680Y003599D01*
X021680Y003537D01*
X021618Y003475D01*
X021433Y003475D01*
X021618Y003475D02*
X021680Y003413D01*
X021680Y003352D01*
X021801Y003599D02*
X021863Y003660D01*
X021987Y003660D01*
X022048Y003599D01*
X021312Y003660D02*
X021065Y003660D01*
X021065Y003290D01*
X021065Y003475D02*
X021188Y003475D01*
X021506Y002872D02*
X021651Y002872D01*
X021700Y002824D01*
X021700Y002727D01*
X021651Y002679D01*
X021506Y002679D01*
X021603Y002679D02*
X021700Y002582D01*
X021801Y002630D02*
X021801Y002727D01*
X021946Y002727D01*
X021994Y002679D01*
X021994Y002630D01*
X021946Y002582D01*
X021849Y002582D01*
X021801Y002630D01*
X021801Y002727D02*
X021898Y002824D01*
X021994Y002872D01*
X021506Y002872D02*
X021506Y002582D01*
X010735Y004490D02*
X010735Y004613D01*
X010735Y004552D02*
X010365Y004552D01*
X010365Y004613D02*
X010365Y004490D01*
X010426Y004736D02*
X010673Y004736D01*
X010735Y004797D01*
X010735Y004921D01*
X010673Y004982D01*
X010673Y005104D02*
X010735Y005104D01*
X010673Y005104D02*
X010426Y005351D01*
X010365Y005351D01*
X010365Y005104D01*
X010426Y004982D02*
X010365Y004921D01*
X010365Y004797D01*
X010426Y004736D01*
X028015Y012154D02*
X028063Y012106D01*
X028257Y012106D01*
X028305Y012154D01*
X028305Y012251D01*
X028257Y012300D01*
X028257Y012401D02*
X028305Y012449D01*
X028305Y012546D01*
X028257Y012594D01*
X028208Y012594D01*
X028160Y012546D01*
X028160Y012497D01*
X028160Y012546D02*
X028112Y012594D01*
X028063Y012594D01*
X028015Y012546D01*
X028015Y012449D01*
X028063Y012401D01*
X028063Y012300D02*
X028015Y012251D01*
X028015Y012154D01*
X028565Y011887D02*
X028688Y012010D01*
X028688Y011640D01*
X028565Y011640D02*
X028812Y011640D01*
X029063Y011940D02*
X029160Y011940D01*
X029208Y011988D01*
X029310Y012085D02*
X029503Y012085D01*
X029604Y011988D02*
X029798Y012182D01*
X029798Y011988D01*
X029749Y011940D01*
X029653Y011940D01*
X029604Y011988D01*
X029604Y012182D01*
X029653Y012230D01*
X029749Y012230D01*
X029798Y012182D01*
X029455Y012230D02*
X029310Y012085D01*
X029208Y012182D02*
X029160Y012230D01*
X029063Y012230D01*
X029015Y012182D01*
X029015Y011988D01*
X029063Y011940D01*
X029455Y011940D02*
X029455Y012230D01*
X028305Y012744D02*
X028305Y012840D01*
X028257Y012889D01*
X028208Y012889D01*
X028160Y012840D01*
X028160Y012695D01*
X028257Y012695D01*
X028305Y012744D01*
X028160Y012695D02*
X028063Y012792D01*
X028015Y012889D01*
X031158Y012846D02*
X031158Y012749D01*
X031207Y012701D01*
X031207Y012600D02*
X031158Y012551D01*
X031158Y012454D01*
X031207Y012406D01*
X031400Y012406D01*
X031449Y012454D01*
X031449Y012551D01*
X031400Y012600D01*
X031400Y012701D02*
X031449Y012749D01*
X031449Y012846D01*
X031400Y012894D01*
X031352Y012894D01*
X031304Y012846D01*
X031304Y012797D01*
X031304Y012846D02*
X031255Y012894D01*
X031207Y012894D01*
X031158Y012846D01*
X031207Y012995D02*
X031255Y012995D01*
X031304Y013044D01*
X031304Y013189D01*
X031400Y013189D02*
X031207Y013189D01*
X031158Y013140D01*
X031158Y013044D01*
X031207Y012995D01*
X031400Y012995D02*
X031449Y013044D01*
X031449Y013140D01*
X031400Y013189D01*
X028912Y017090D02*
X028665Y017090D01*
X028788Y017090D02*
X028788Y017460D01*
X028665Y017337D01*
D14*
X031550Y017525D02*
X031550Y015525D01*
X032300Y015525D01*
X032300Y017525D01*
X034050Y017525D01*
X034050Y015525D01*
X032300Y015525D01*
X032300Y014525D02*
X031550Y014525D01*
X031550Y012525D01*
X032300Y012525D01*
X032300Y014525D01*
X034050Y014525D01*
X034050Y012525D01*
X032300Y012525D01*
X032300Y011025D02*
X031550Y011025D01*
X031550Y008025D01*
X032300Y008025D01*
X032300Y011025D01*
X034050Y011025D01*
X034050Y008025D01*
X032300Y008025D01*
X032300Y007025D02*
X031550Y007025D01*
X031550Y004025D01*
X032300Y004025D01*
X032300Y007025D01*
X034050Y007025D01*
X034050Y004025D01*
X032300Y004025D01*
X019400Y003275D02*
X015400Y003275D01*
X015400Y005025D01*
X019400Y005025D01*
X019400Y003275D01*
X019400Y005025D02*
X019400Y005775D01*
X015400Y005775D01*
X015400Y005025D01*
X013850Y005025D02*
X013850Y005775D01*
X011850Y005775D01*
X011850Y005025D01*
X013850Y005025D01*
X013850Y003275D01*
X011850Y003275D01*
X011850Y005025D01*
X015300Y013725D02*
X015300Y014525D01*
X016700Y014525D01*
X016700Y013725D01*
X015300Y013725D01*
X031550Y017525D02*
X032300Y017525D01*
D15*
X013336Y008973D03*
X012936Y007136D03*
D16*
X014372Y007136D03*
D17*
X014663Y008009D03*
X014663Y008027D03*
X014682Y008064D03*
X016045Y007573D03*
X015954Y007136D03*
X012936Y007173D03*
D18*
X014491Y007554D03*
X017454Y007136D03*
D19*
X017454Y007154D03*
X012945Y007154D03*
D20*
X014381Y007154D03*
X014836Y009718D03*
D21*
X015945Y007154D03*
X017454Y007209D03*
D22*
X014672Y008045D03*
X014381Y007173D03*
D23*
X015945Y007173D03*
D24*
X017454Y007173D03*
D25*
X012945Y007191D03*
D26*
X014382Y007191D03*
D27*
X015945Y007191D03*
X017454Y007282D03*
D28*
X017454Y007191D03*
D29*
X014845Y009645D03*
X012936Y007209D03*
D30*
X014381Y007209D03*
D31*
X012945Y007354D03*
X012945Y007373D03*
X015945Y007209D03*
X017454Y007336D03*
X017454Y007354D03*
X017454Y007373D03*
D32*
X017454Y007227D03*
X014381Y007245D03*
X014381Y007264D03*
X012945Y007227D03*
D33*
X014381Y007227D03*
D34*
X015945Y007227D03*
D35*
X012936Y007245D03*
D36*
X015945Y007245D03*
D37*
X017454Y007245D03*
X017454Y007264D03*
X014381Y007300D03*
D38*
X012936Y007264D03*
D39*
X015954Y007264D03*
D40*
X012936Y007282D03*
D41*
X014381Y007282D03*
D42*
X015945Y007282D03*
D43*
X012936Y007300D03*
X012936Y007318D03*
X012936Y007336D03*
D44*
X015945Y007300D03*
D45*
X017454Y007300D03*
X014382Y007336D03*
X014382Y007354D03*
X014382Y007373D03*
D46*
X014372Y007318D03*
D47*
X015954Y007318D03*
D48*
X017445Y007318D03*
D49*
X015945Y007336D03*
X015945Y007354D03*
X015945Y007373D03*
D50*
X015281Y007391D03*
X016863Y007391D03*
X012354Y007391D03*
D51*
X013463Y007391D03*
X015900Y009682D03*
D52*
X013809Y007391D03*
D53*
X014891Y007391D03*
X015200Y008591D03*
X015218Y008682D03*
X014436Y008882D03*
X014418Y008791D03*
X013745Y008682D03*
X013727Y008591D03*
X013036Y009191D03*
X013054Y009282D03*
X012745Y007791D03*
X016545Y007391D03*
X017236Y007682D03*
X018036Y007591D03*
X017400Y008482D03*
X018291Y008791D03*
X018418Y009391D03*
D54*
X017972Y007391D03*
D55*
X016854Y007409D03*
X013800Y007409D03*
X012345Y007409D03*
D56*
X012754Y007809D03*
X012754Y007827D03*
X012754Y007845D03*
X012754Y007864D03*
X012790Y008009D03*
X012790Y008027D03*
X012790Y008045D03*
X012863Y008336D03*
X012863Y008354D03*
X012863Y008373D03*
X012881Y008427D03*
X012881Y008445D03*
X012881Y008464D03*
X013663Y008300D03*
X013663Y008264D03*
X013663Y008245D03*
X013681Y008336D03*
X013681Y008354D03*
X013681Y008373D03*
X013754Y008700D03*
X013754Y008718D03*
X013754Y008736D03*
X013754Y008754D03*
X014390Y008664D03*
X014390Y008645D03*
X014354Y008518D03*
X014354Y008500D03*
X014354Y008464D03*
X014463Y009009D03*
X014463Y009027D03*
X014481Y009064D03*
X014481Y009100D03*
X014481Y009118D03*
X015263Y008936D03*
X015263Y008918D03*
X015263Y008900D03*
X015281Y008973D03*
X015281Y009009D03*
X015354Y009318D03*
X015354Y009336D03*
X015354Y009354D03*
X015354Y009373D03*
X015990Y009318D03*
X015990Y009300D03*
X015990Y009264D03*
X015954Y009136D03*
X015954Y009118D03*
X015954Y009100D03*
X015881Y008773D03*
X015881Y008754D03*
X015881Y008736D03*
X015863Y008700D03*
X015863Y008664D03*
X015863Y008645D03*
X015790Y008354D03*
X015790Y008336D03*
X015790Y008318D03*
X015790Y008300D03*
X015754Y008173D03*
X015754Y008154D03*
X015754Y008136D03*
X015754Y008118D03*
X015681Y007827D03*
X015681Y007809D03*
X015681Y007773D03*
X015663Y007736D03*
X015663Y007718D03*
X015663Y007700D03*
X015154Y008336D03*
X015154Y008354D03*
X015154Y008373D03*
X015190Y008518D03*
X015190Y008536D03*
X015190Y008554D03*
X015190Y008573D03*
X014190Y007736D03*
X014190Y007718D03*
X014190Y007700D03*
X013590Y007900D03*
X013590Y007918D03*
X013590Y007936D03*
X013590Y007954D03*
X013554Y007773D03*
X013554Y007754D03*
X013554Y007736D03*
X013554Y007718D03*
X013481Y007427D03*
X013481Y007409D03*
X013063Y009300D03*
X013063Y009318D03*
X013063Y009336D03*
X013063Y009354D03*
X013081Y009409D03*
X013081Y009427D03*
X013081Y009445D03*
X016554Y007409D03*
X017263Y007809D03*
X017263Y007827D03*
X017263Y007845D03*
X017281Y007900D03*
X017281Y007918D03*
X017354Y008227D03*
X017354Y008245D03*
X017354Y008264D03*
X017390Y008409D03*
X017390Y008427D03*
X017390Y008445D03*
X017390Y008464D03*
X018190Y008336D03*
X018190Y008318D03*
X018190Y008300D03*
X018154Y008173D03*
X018154Y008154D03*
X018154Y008136D03*
X018154Y008118D03*
X018081Y007827D03*
X018081Y007809D03*
X018081Y007773D03*
X018063Y007736D03*
X018063Y007718D03*
X018063Y007700D03*
X018263Y008627D03*
X018263Y008645D03*
X018263Y008664D03*
X018281Y008718D03*
X018281Y008736D03*
X018281Y008754D03*
X018281Y008773D03*
X018354Y009064D03*
X018354Y009100D03*
X018354Y009118D03*
X018390Y009227D03*
X018390Y009245D03*
X018390Y009264D03*
D57*
X018409Y009318D03*
X018409Y009336D03*
X018409Y009354D03*
X018409Y009373D03*
X018427Y009409D03*
X018427Y009427D03*
X018427Y009445D03*
X018427Y009464D03*
X018336Y009027D03*
X018336Y009009D03*
X018336Y008973D03*
X018318Y008936D03*
X018318Y008918D03*
X018318Y008900D03*
X018300Y008845D03*
X018300Y008827D03*
X018300Y008809D03*
X018245Y008573D03*
X018245Y008554D03*
X018227Y008500D03*
X018227Y008464D03*
X018209Y008427D03*
X018209Y008409D03*
X018209Y008373D03*
X018136Y008064D03*
X018136Y008045D03*
X018136Y008027D03*
X018118Y007973D03*
X018118Y007954D03*
X018100Y007900D03*
X018100Y007864D03*
X018045Y007645D03*
X018045Y007627D03*
X018045Y007609D03*
X018027Y007573D03*
X018027Y007554D03*
X018027Y007536D03*
X018027Y007518D03*
X018009Y007464D03*
X018009Y007445D03*
X017245Y007700D03*
X017245Y007718D03*
X017245Y007736D03*
X017245Y007754D03*
X017227Y007664D03*
X017227Y007645D03*
X017300Y007954D03*
X017300Y007973D03*
X017300Y008009D03*
X017318Y008045D03*
X017318Y008064D03*
X017318Y008100D03*
X017336Y008136D03*
X017336Y008154D03*
X017336Y008173D03*
X017409Y008500D03*
X017409Y008518D03*
X015900Y008827D03*
X015900Y008845D03*
X015900Y008864D03*
X015918Y008918D03*
X015918Y008936D03*
X015918Y008954D03*
X015936Y009009D03*
X015936Y009027D03*
X015936Y009045D03*
X016009Y009354D03*
X016009Y009373D03*
X016027Y009445D03*
X016027Y009464D03*
X016027Y009500D03*
X015900Y009700D03*
X015336Y009264D03*
X015336Y009245D03*
X015336Y009227D03*
X015318Y009173D03*
X015318Y009154D03*
X015318Y009136D03*
X015300Y009100D03*
X015300Y009064D03*
X015300Y009045D03*
X015245Y008845D03*
X015245Y008827D03*
X015245Y008809D03*
X015227Y008754D03*
X015227Y008736D03*
X015227Y008718D03*
X015227Y008700D03*
X015209Y008664D03*
X015209Y008645D03*
X015209Y008627D03*
X015209Y008609D03*
X015136Y008300D03*
X015136Y008264D03*
X015118Y008227D03*
X015118Y008209D03*
X015118Y008173D03*
X015100Y008136D03*
X015100Y008118D03*
X015700Y007918D03*
X015700Y007900D03*
X015700Y007864D03*
X015718Y007954D03*
X015718Y007973D03*
X015736Y008027D03*
X015736Y008045D03*
X015736Y008064D03*
X015809Y008409D03*
X015809Y008427D03*
X015827Y008500D03*
X015827Y008518D03*
X015845Y008554D03*
X015845Y008573D03*
X015845Y008609D03*
X014445Y008900D03*
X014445Y008918D03*
X014445Y008936D03*
X014427Y008864D03*
X014427Y008845D03*
X014427Y008827D03*
X014427Y008809D03*
X014409Y008773D03*
X014409Y008754D03*
X014409Y008736D03*
X014409Y008718D03*
X014336Y008427D03*
X014336Y008409D03*
X013718Y008518D03*
X013718Y008536D03*
X013718Y008554D03*
X013718Y008573D03*
X013736Y008609D03*
X013736Y008627D03*
X013736Y008645D03*
X013736Y008664D03*
X013700Y008464D03*
X013700Y008445D03*
X013700Y008427D03*
X013645Y008209D03*
X013645Y008173D03*
X013645Y008154D03*
X013627Y008118D03*
X013627Y008100D03*
X013609Y008045D03*
X013609Y008027D03*
X013609Y008009D03*
X013536Y007664D03*
X013536Y007645D03*
X013536Y007627D03*
X013518Y007573D03*
X013518Y007554D03*
X013518Y007536D03*
X013500Y007518D03*
X013500Y007500D03*
X013500Y007464D03*
X014209Y007773D03*
X014209Y007809D03*
X014900Y007409D03*
X012736Y007718D03*
X012736Y007736D03*
X012736Y007754D03*
X012736Y007773D03*
X012718Y007664D03*
X012718Y007645D03*
X012809Y008100D03*
X012809Y008118D03*
X012827Y008173D03*
X012827Y008209D03*
X012845Y008245D03*
X012845Y008264D03*
X012845Y008300D03*
X012900Y008518D03*
X013009Y009045D03*
X013009Y009064D03*
X013009Y009100D03*
X013027Y009136D03*
X013027Y009154D03*
X013027Y009173D03*
X013045Y009209D03*
X013045Y009227D03*
X013045Y009245D03*
X013045Y009264D03*
X014500Y009209D03*
X014500Y009173D03*
X014500Y009154D03*
D58*
X015272Y007427D03*
X015272Y007409D03*
X017963Y008936D03*
D59*
X018309Y008864D03*
X018327Y008954D03*
X018345Y009045D03*
X018400Y009300D03*
X018254Y008609D03*
X018236Y008536D03*
X018236Y008518D03*
X018218Y008445D03*
X018200Y008354D03*
X018145Y008100D03*
X018127Y008009D03*
X018109Y007936D03*
X018109Y007918D03*
X018091Y007845D03*
X018054Y007664D03*
X018018Y007500D03*
X018000Y007427D03*
X018000Y007409D03*
X017254Y007773D03*
X017291Y007936D03*
X017309Y008027D03*
X017327Y008118D03*
X017345Y008209D03*
X015836Y008536D03*
X015818Y008464D03*
X015818Y008445D03*
X015800Y008373D03*
X015854Y008627D03*
X015891Y008809D03*
X015909Y008900D03*
X015927Y008973D03*
X015945Y009064D03*
X016000Y009336D03*
X016018Y009409D03*
X016018Y009427D03*
X015345Y009300D03*
X015327Y009209D03*
X015309Y009118D03*
X015291Y009027D03*
X015254Y008864D03*
X015236Y008773D03*
X015145Y008318D03*
X015127Y008245D03*
X015109Y008154D03*
X015091Y008100D03*
X015709Y007936D03*
X015727Y008009D03*
X015745Y008100D03*
X015691Y007845D03*
X015654Y007664D03*
X015654Y007645D03*
X014200Y007754D03*
X014327Y008354D03*
X014327Y008373D03*
X014345Y008445D03*
X014400Y008700D03*
X014454Y008954D03*
X014454Y008973D03*
X014491Y009136D03*
X013709Y008500D03*
X013691Y008409D03*
X013654Y008227D03*
X013636Y008136D03*
X013618Y008064D03*
X013600Y007973D03*
X013545Y007700D03*
X013527Y007609D03*
X013491Y007445D03*
X012727Y007700D03*
X012800Y008064D03*
X012818Y008136D03*
X012818Y008154D03*
X012836Y008227D03*
X012854Y008318D03*
X012891Y008500D03*
X013018Y009118D03*
X013091Y009464D03*
D60*
X012809Y009627D03*
X012754Y009500D03*
X012736Y009409D03*
X012718Y009318D03*
X012718Y009300D03*
X012682Y009154D03*
X012682Y009136D03*
X012663Y009064D03*
X012663Y009045D03*
X012627Y008864D03*
X012609Y008773D03*
X012591Y008718D03*
X012591Y008700D03*
X012554Y008536D03*
X012554Y008518D03*
X012536Y008445D03*
X012536Y008427D03*
X012518Y008354D03*
X012518Y008336D03*
X012482Y008173D03*
X012463Y008100D03*
X012427Y007918D03*
X012427Y007900D03*
X012409Y007827D03*
X012409Y007809D03*
X012391Y007754D03*
X012391Y007736D03*
X012391Y007718D03*
X012354Y007573D03*
X012354Y007554D03*
X012336Y007464D03*
X012336Y007445D03*
X012336Y007427D03*
X013191Y007645D03*
X013209Y007718D03*
X013209Y007736D03*
X013227Y007809D03*
X013227Y007827D03*
X013263Y008009D03*
X013282Y008100D03*
X013318Y008245D03*
X013318Y008264D03*
X013336Y008336D03*
X013336Y008354D03*
X013354Y008427D03*
X013354Y008445D03*
X013991Y008409D03*
X013991Y008373D03*
X014009Y008464D03*
X014027Y008554D03*
X014027Y008573D03*
X014063Y008718D03*
X014063Y008736D03*
X014082Y008809D03*
X014082Y008827D03*
X014118Y009009D03*
X014136Y009064D03*
X014154Y009154D03*
X014154Y009173D03*
X014191Y009318D03*
X014191Y009336D03*
X014191Y009354D03*
X014209Y009409D03*
X014209Y009427D03*
X014227Y009500D03*
X014227Y009518D03*
X014954Y009064D03*
X014954Y009045D03*
X014936Y008973D03*
X014918Y008900D03*
X014882Y008718D03*
X014882Y008700D03*
X014863Y008627D03*
X014863Y008609D03*
X014827Y008445D03*
X014827Y008427D03*
X014809Y008373D03*
X014809Y008354D03*
X015427Y008227D03*
X015427Y008209D03*
X015409Y008136D03*
X015409Y008118D03*
X015391Y008064D03*
X015391Y008045D03*
X015391Y008027D03*
X015354Y007864D03*
X015336Y007773D03*
X015318Y007700D03*
X015282Y007536D03*
X015282Y007518D03*
X015263Y007445D03*
X014191Y008100D03*
X013936Y008118D03*
X013936Y008136D03*
X013918Y008064D03*
X013918Y008045D03*
X013954Y008209D03*
X013954Y008227D03*
X013882Y007864D03*
X013863Y007773D03*
X013827Y007627D03*
X013827Y007609D03*
X013809Y007536D03*
X013809Y007518D03*
X013791Y007464D03*
X013791Y007445D03*
X013791Y007427D03*
X015463Y008409D03*
X015482Y008500D03*
X015518Y008645D03*
X015518Y008664D03*
X015536Y008736D03*
X015536Y008754D03*
X015554Y008827D03*
X015554Y008845D03*
X015591Y009009D03*
X015591Y009027D03*
X015609Y009100D03*
X015627Y009173D03*
X015663Y009354D03*
X015663Y009373D03*
X015682Y009445D03*
X015682Y009464D03*
X017136Y008845D03*
X017118Y008773D03*
X017118Y008754D03*
X017082Y008609D03*
X017082Y008573D03*
X017063Y008518D03*
X017063Y008500D03*
X017027Y008336D03*
X017027Y008318D03*
X017009Y008245D03*
X017009Y008227D03*
X016991Y008154D03*
X016991Y008136D03*
X016954Y007973D03*
X016954Y007954D03*
X016936Y007900D03*
X016918Y007809D03*
X016882Y007627D03*
X016882Y007609D03*
X016863Y007536D03*
X016863Y007518D03*
X017718Y007700D03*
X017736Y007773D03*
X017754Y007864D03*
X017791Y008027D03*
X017791Y008045D03*
X017809Y008118D03*
X017809Y008136D03*
X017827Y008209D03*
X017827Y008227D03*
X017863Y008373D03*
X017882Y008464D03*
X018009Y009064D03*
X018027Y009154D03*
X018027Y009173D03*
X017336Y009536D03*
X017191Y008936D03*
D61*
X016036Y009518D03*
X016036Y009536D03*
X018436Y009536D03*
X018436Y009518D03*
X018436Y009500D03*
X018436Y009554D03*
X014909Y007445D03*
X014909Y007427D03*
D62*
X014854Y007536D03*
X013763Y008809D03*
X013763Y008827D03*
X013763Y008845D03*
X013763Y008864D03*
X013090Y009500D03*
X013090Y009518D03*
X013090Y009536D03*
X013090Y009554D03*
X013090Y009573D03*
X012963Y009700D03*
X015345Y009627D03*
X015381Y009554D03*
X015381Y009536D03*
X015381Y009518D03*
X015381Y009500D03*
X016563Y007464D03*
X016563Y007445D03*
X016563Y007427D03*
X018399Y009627D03*
D63*
X017100Y008700D03*
X017100Y008664D03*
X017045Y008427D03*
X017045Y008409D03*
X017845Y008300D03*
X016900Y007718D03*
X016900Y007700D03*
X016845Y007445D03*
X016845Y007427D03*
X015300Y007609D03*
X015445Y008300D03*
X015445Y008318D03*
X015500Y008554D03*
X015500Y008573D03*
X014900Y008809D03*
X014845Y008536D03*
X014845Y008518D03*
X014045Y008645D03*
X014045Y008664D03*
X014100Y008900D03*
X014100Y008918D03*
X013900Y007973D03*
X013900Y007954D03*
X013845Y007718D03*
X013845Y007700D03*
X013245Y007900D03*
X013245Y007918D03*
X013300Y008154D03*
X013300Y008173D03*
X012500Y008245D03*
X012500Y008264D03*
X012445Y008009D03*
X012645Y008954D03*
X012645Y008973D03*
X012700Y009209D03*
X012700Y009227D03*
X015645Y009264D03*
X015700Y009518D03*
X015700Y009536D03*
D64*
X015990Y009627D03*
X016008Y009609D03*
X015372Y009573D03*
X015354Y009609D03*
X013754Y008900D03*
X013736Y008918D03*
X013081Y009609D03*
X013063Y009627D03*
X014881Y007518D03*
X014881Y007500D03*
X014899Y007464D03*
X016536Y007518D03*
X016554Y007500D03*
X018408Y009609D03*
D65*
X017872Y008445D03*
X017872Y008427D03*
X017872Y008409D03*
X017072Y008536D03*
X017072Y008554D03*
X016872Y007573D03*
X016872Y007554D03*
X015472Y008427D03*
X015472Y008445D03*
X015472Y008464D03*
X014872Y008645D03*
X014872Y008664D03*
X014072Y008754D03*
X014072Y008773D03*
X013272Y008064D03*
X013272Y008045D03*
X013272Y008027D03*
X013872Y007845D03*
X013872Y007827D03*
X013872Y007809D03*
X012472Y008118D03*
X012472Y008136D03*
X012472Y008154D03*
X012672Y009100D03*
X012672Y009118D03*
X014272Y009627D03*
X015672Y009427D03*
X015672Y009409D03*
X015272Y007500D03*
X015272Y007464D03*
D66*
X015291Y007554D03*
X015291Y007573D03*
X015309Y007627D03*
X015309Y007645D03*
X015309Y007664D03*
X015327Y007718D03*
X015327Y007736D03*
X015327Y007754D03*
X015345Y007809D03*
X015345Y007827D03*
X015345Y007845D03*
X015363Y007900D03*
X015363Y007918D03*
X015363Y007936D03*
X015382Y008009D03*
X015400Y008100D03*
X015418Y008154D03*
X015418Y008173D03*
X015436Y008245D03*
X015436Y008264D03*
X015454Y008336D03*
X015454Y008354D03*
X015454Y008373D03*
X015491Y008518D03*
X015491Y008536D03*
X015509Y008609D03*
X015509Y008627D03*
X015527Y008700D03*
X015527Y008718D03*
X015545Y008773D03*
X015545Y008809D03*
X015563Y008864D03*
X015563Y008900D03*
X015582Y008954D03*
X015582Y008973D03*
X015600Y009045D03*
X015600Y009064D03*
X015618Y009118D03*
X015618Y009136D03*
X015618Y009154D03*
X015636Y009209D03*
X015636Y009227D03*
X015636Y009245D03*
X015654Y009300D03*
X015654Y009318D03*
X015654Y009336D03*
X015691Y009500D03*
X015709Y009554D03*
X015709Y009573D03*
X015727Y009609D03*
X015745Y009627D03*
X014982Y009209D03*
X014982Y009173D03*
X014963Y009118D03*
X014963Y009100D03*
X014945Y009027D03*
X014945Y009009D03*
X014927Y008954D03*
X014927Y008936D03*
X014927Y008918D03*
X014909Y008864D03*
X014909Y008845D03*
X014909Y008827D03*
X014891Y008773D03*
X014891Y008754D03*
X014891Y008736D03*
X014854Y008573D03*
X014854Y008554D03*
X014836Y008500D03*
X014836Y008464D03*
X014818Y008409D03*
X014054Y008700D03*
X014036Y008627D03*
X014036Y008609D03*
X014018Y008536D03*
X014018Y008518D03*
X014018Y008500D03*
X014000Y008445D03*
X014000Y008427D03*
X013982Y008354D03*
X013982Y008336D03*
X013963Y008264D03*
X013963Y008245D03*
X013945Y008173D03*
X013945Y008154D03*
X013927Y008100D03*
X013909Y008027D03*
X013909Y008009D03*
X013891Y007936D03*
X013891Y007918D03*
X013891Y007900D03*
X013854Y007754D03*
X013854Y007736D03*
X013836Y007664D03*
X013836Y007645D03*
X013818Y007573D03*
X013818Y007554D03*
X013800Y007500D03*
X013200Y007664D03*
X013200Y007700D03*
X013218Y007754D03*
X013218Y007773D03*
X013236Y007845D03*
X013236Y007864D03*
X013254Y007936D03*
X013254Y007954D03*
X013254Y007973D03*
X013291Y008118D03*
X013291Y008136D03*
X013309Y008209D03*
X013309Y008227D03*
X013327Y008300D03*
X013327Y008318D03*
X013345Y008373D03*
X013345Y008409D03*
X013363Y008464D03*
X013363Y008500D03*
X012891Y008936D03*
X012654Y009009D03*
X012654Y009027D03*
X012636Y008936D03*
X012636Y008918D03*
X012636Y008900D03*
X012618Y008845D03*
X012618Y008827D03*
X012618Y008809D03*
X012600Y008754D03*
X012600Y008736D03*
X012582Y008664D03*
X012582Y008645D03*
X012563Y008573D03*
X012563Y008554D03*
X012545Y008500D03*
X012545Y008464D03*
X012527Y008409D03*
X012527Y008373D03*
X012509Y008318D03*
X012509Y008300D03*
X012491Y008227D03*
X012491Y008209D03*
X012454Y008064D03*
X012454Y008045D03*
X012454Y008027D03*
X012436Y007973D03*
X012436Y007954D03*
X012436Y007936D03*
X012418Y007864D03*
X012418Y007845D03*
X012400Y007773D03*
X012382Y007700D03*
X012363Y007627D03*
X012363Y007609D03*
X012345Y007536D03*
X012345Y007518D03*
X012345Y007500D03*
X014091Y008845D03*
X014091Y008864D03*
X014109Y008936D03*
X014109Y008954D03*
X014109Y008973D03*
X014127Y009027D03*
X014127Y009045D03*
X014145Y009100D03*
X014145Y009118D03*
X014145Y009136D03*
X014163Y009209D03*
X014163Y009227D03*
X014182Y009300D03*
X014200Y009373D03*
X014218Y009445D03*
X014218Y009464D03*
X014236Y009536D03*
X014236Y009554D03*
X014236Y009573D03*
X014254Y009609D03*
X012782Y009573D03*
X012763Y009554D03*
X012763Y009536D03*
X012763Y009518D03*
X012745Y009464D03*
X012745Y009445D03*
X012745Y009427D03*
X012727Y009373D03*
X012727Y009354D03*
X012727Y009336D03*
X012709Y009264D03*
X012709Y009245D03*
X012691Y009173D03*
X017018Y008300D03*
X017018Y008264D03*
X017000Y008209D03*
X017000Y008173D03*
X016982Y008118D03*
X016982Y008100D03*
X016963Y008027D03*
X016963Y008009D03*
X016945Y007936D03*
X016945Y007918D03*
X016927Y007864D03*
X016927Y007845D03*
X016927Y007827D03*
X016909Y007773D03*
X016909Y007754D03*
X016909Y007736D03*
X016891Y007664D03*
X016891Y007645D03*
X016854Y007500D03*
X016854Y007464D03*
X017709Y007645D03*
X017709Y007664D03*
X017727Y007718D03*
X017727Y007736D03*
X017727Y007754D03*
X017745Y007809D03*
X017745Y007827D03*
X017745Y007845D03*
X017763Y007900D03*
X017763Y007918D03*
X017763Y007936D03*
X017782Y008009D03*
X017800Y008064D03*
X017800Y008100D03*
X017818Y008154D03*
X017818Y008173D03*
X017836Y008245D03*
X017836Y008264D03*
X017854Y008318D03*
X017854Y008336D03*
X017854Y008354D03*
X017891Y008500D03*
X017891Y008518D03*
X017963Y008809D03*
X017982Y008900D03*
X018000Y009045D03*
X018018Y009100D03*
X018018Y009118D03*
X018018Y009136D03*
X018036Y009209D03*
X017327Y009554D03*
X017327Y009573D03*
X017345Y009609D03*
X017363Y009627D03*
X017163Y008918D03*
X017145Y008900D03*
X017145Y008864D03*
X017127Y008827D03*
X017127Y008809D03*
X017109Y008736D03*
X017109Y008718D03*
X017091Y008645D03*
X017091Y008627D03*
X017054Y008464D03*
X017054Y008445D03*
X017036Y008373D03*
X017036Y008354D03*
D67*
X017082Y008591D03*
X016954Y007991D03*
X016936Y007882D03*
X016918Y007791D03*
X017718Y007682D03*
X017736Y007791D03*
X017754Y007882D03*
X017863Y008391D03*
X017882Y008482D03*
X018009Y009082D03*
X015627Y009191D03*
X015609Y009082D03*
X015591Y008991D03*
X015482Y008482D03*
X015463Y008391D03*
X015354Y007882D03*
X015336Y007791D03*
X015318Y007682D03*
X013882Y007882D03*
X013863Y007791D03*
X013991Y008391D03*
X014009Y008482D03*
X014118Y008991D03*
X014136Y009082D03*
X014936Y008991D03*
X014954Y009082D03*
X014918Y008882D03*
X013282Y008082D03*
X013263Y007991D03*
X012463Y008082D03*
X012482Y008191D03*
X012591Y008682D03*
X012609Y008791D03*
X012627Y008882D03*
X012736Y009391D03*
X012754Y009482D03*
X012336Y007482D03*
D68*
X012718Y007682D03*
X012809Y008082D03*
X012827Y008191D03*
X012845Y008282D03*
X013645Y008191D03*
X013627Y008082D03*
X013609Y007991D03*
X013536Y007682D03*
X013518Y007591D03*
X013500Y007482D03*
X014209Y007791D03*
X014336Y008391D03*
X013700Y008482D03*
X013009Y009082D03*
X013100Y009482D03*
X014500Y009191D03*
X015300Y009082D03*
X015318Y009191D03*
X015336Y009282D03*
X015245Y008791D03*
X015136Y008282D03*
X015118Y008191D03*
X015736Y008082D03*
X015718Y007991D03*
X015700Y007882D03*
X015809Y008391D03*
X015827Y008482D03*
X015845Y008591D03*
X015900Y008882D03*
X015936Y008991D03*
X016009Y009391D03*
X016027Y009482D03*
X017336Y008191D03*
X017318Y008082D03*
X017300Y007991D03*
X018100Y007882D03*
X018118Y007991D03*
X018136Y008082D03*
X018209Y008391D03*
X018227Y008482D03*
X018245Y008591D03*
X018318Y008882D03*
X018336Y008991D03*
X018427Y009482D03*
X018009Y007482D03*
D69*
X017782Y007991D03*
X017800Y008082D03*
X017818Y008191D03*
X017945Y008791D03*
X018036Y009191D03*
X017345Y009591D03*
X017145Y008882D03*
X017127Y008791D03*
X017054Y008482D03*
X017036Y008391D03*
X017018Y008282D03*
X017000Y008191D03*
X016982Y008082D03*
X016891Y007682D03*
X016854Y007482D03*
X015382Y007991D03*
X015400Y008082D03*
X015418Y008191D03*
X015436Y008282D03*
X015509Y008591D03*
X015527Y008682D03*
X015545Y008791D03*
X015563Y008882D03*
X015691Y009482D03*
X014982Y009191D03*
X014182Y009282D03*
X014163Y009191D03*
X014200Y009391D03*
X014218Y009482D03*
X014254Y009591D03*
X014091Y008882D03*
X014054Y008682D03*
X014036Y008591D03*
X013963Y008282D03*
X013945Y008191D03*
X013927Y008082D03*
X013909Y007991D03*
X013345Y008391D03*
X013363Y008482D03*
X013327Y008282D03*
X013236Y007882D03*
X013218Y007791D03*
X013200Y007682D03*
X013818Y007591D03*
X013836Y007682D03*
X013800Y007482D03*
X014818Y008391D03*
X014836Y008482D03*
X014854Y008591D03*
X012654Y008991D03*
X012691Y009191D03*
X012709Y009282D03*
X012782Y009591D03*
X012563Y008591D03*
X012545Y008482D03*
X012527Y008391D03*
X012509Y008282D03*
X012418Y007882D03*
X012400Y007791D03*
X012382Y007682D03*
X012363Y007591D03*
D70*
X013754Y008882D03*
X013081Y009591D03*
X015372Y009591D03*
X014899Y007482D03*
X016554Y007482D03*
D71*
X016872Y007591D03*
X015272Y007482D03*
X014872Y008682D03*
X014072Y008791D03*
X012872Y008791D03*
X012672Y009082D03*
X015672Y009391D03*
D72*
X016027Y009554D03*
X016027Y009573D03*
X018427Y009573D03*
X016518Y007536D03*
D73*
X017409Y007554D03*
X017409Y007573D03*
X017427Y007609D03*
X017427Y007627D03*
X017609Y008536D03*
X017627Y008609D03*
X017645Y008664D03*
X017645Y008700D03*
X014718Y009245D03*
X014718Y009264D03*
X014718Y009300D03*
X014736Y009336D03*
X014736Y009354D03*
X014736Y009373D03*
X013136Y008754D03*
X013136Y008736D03*
X013136Y008718D03*
X013136Y008700D03*
X013118Y008664D03*
X013118Y008645D03*
X013118Y008627D03*
X013118Y008609D03*
X013100Y008573D03*
X013100Y008554D03*
X013100Y008536D03*
X012900Y007609D03*
X012900Y007573D03*
X012900Y007554D03*
X014518Y008300D03*
X014518Y008318D03*
D74*
X016063Y007554D03*
D75*
X014482Y007573D03*
D76*
X013100Y008591D03*
X013136Y008682D03*
X014718Y009282D03*
X014736Y009391D03*
X012900Y007591D03*
X017409Y007591D03*
X017627Y008591D03*
X017645Y008682D03*
D77*
X014472Y007591D03*
D78*
X015300Y007591D03*
X014900Y008791D03*
X015645Y009282D03*
X017100Y008682D03*
X017845Y008282D03*
X013300Y008191D03*
X012445Y007991D03*
D79*
X016045Y007591D03*
D80*
X014463Y007609D03*
X013281Y009027D03*
D81*
X016036Y007609D03*
X017909Y009700D03*
D82*
X017654Y008736D03*
X017654Y008718D03*
X017636Y008645D03*
X017636Y008627D03*
X017618Y008573D03*
X017618Y008554D03*
X014709Y009227D03*
X014727Y009318D03*
X014527Y008336D03*
X014509Y008264D03*
X014509Y008245D03*
X012909Y007627D03*
D83*
X014445Y007627D03*
X017717Y009336D03*
X014845Y009736D03*
D84*
X014572Y007845D03*
X016008Y007627D03*
D85*
X015372Y007954D03*
X015372Y007973D03*
X015572Y008918D03*
X015572Y008936D03*
X014972Y009136D03*
X014972Y009154D03*
X014172Y009245D03*
X014172Y009264D03*
X013372Y008518D03*
X013972Y008318D03*
X013972Y008300D03*
X012572Y008609D03*
X012572Y008627D03*
X012372Y007664D03*
X012372Y007645D03*
X016972Y008045D03*
X016972Y008064D03*
X017772Y007973D03*
X017772Y007954D03*
X017972Y008918D03*
D86*
X018372Y009154D03*
X018372Y009173D03*
X018172Y008245D03*
X018172Y008227D03*
X018172Y008209D03*
X017372Y008318D03*
X017372Y008336D03*
X017372Y008354D03*
X017372Y008373D03*
X015972Y009173D03*
X015972Y009209D03*
X015972Y009227D03*
X015372Y009409D03*
X015372Y009427D03*
X015372Y009445D03*
X015372Y009464D03*
X015172Y008464D03*
X015172Y008445D03*
X015172Y008427D03*
X015772Y008264D03*
X015772Y008245D03*
X015772Y008227D03*
X015772Y008209D03*
X014372Y008554D03*
X014372Y008573D03*
X014372Y008609D03*
X013772Y008773D03*
X013572Y007864D03*
X013572Y007845D03*
X013572Y007827D03*
X013572Y007809D03*
X014172Y007664D03*
X014172Y007645D03*
X012772Y007900D03*
X012772Y007918D03*
X012772Y007936D03*
X012772Y007954D03*
D87*
X012763Y007882D03*
X013563Y007791D03*
X013581Y007882D03*
X014181Y007682D03*
X015763Y008191D03*
X015781Y008282D03*
X015363Y009391D03*
X017381Y008391D03*
X018163Y008191D03*
D88*
X018190Y008282D03*
X018263Y008682D03*
X018354Y009082D03*
X018390Y009282D03*
X017354Y008282D03*
X017281Y007882D03*
X017263Y007791D03*
X018063Y007682D03*
X018081Y007791D03*
X015863Y008682D03*
X015881Y008791D03*
X015954Y009082D03*
X015990Y009282D03*
X015281Y008991D03*
X015263Y008882D03*
X014481Y009082D03*
X014463Y008991D03*
X014390Y008682D03*
X014354Y008482D03*
X013681Y008391D03*
X013663Y008282D03*
X012881Y008482D03*
X012863Y008391D03*
X012790Y007991D03*
X013081Y009391D03*
X015154Y008391D03*
X015681Y007791D03*
X015663Y007682D03*
D89*
X015672Y007754D03*
X015163Y008409D03*
X015181Y008500D03*
X015272Y008954D03*
X015872Y008718D03*
X015963Y009154D03*
X015981Y009245D03*
X014472Y009045D03*
X014381Y008627D03*
X014363Y008536D03*
X013672Y008318D03*
X012872Y008409D03*
X012781Y007973D03*
X013072Y009373D03*
X017363Y008300D03*
X017272Y007864D03*
X018072Y007754D03*
X018181Y008264D03*
X018272Y008700D03*
X018363Y009136D03*
X018381Y009209D03*
D90*
X014527Y007827D03*
X013309Y009009D03*
D91*
X014590Y007864D03*
D92*
X014608Y007882D03*
D93*
X014618Y007900D03*
D94*
X014627Y007918D03*
D95*
X014636Y007936D03*
X014654Y007954D03*
X014654Y007973D03*
X014836Y009700D03*
D96*
X014682Y008082D03*
X014663Y007991D03*
X017918Y009682D03*
D97*
X014209Y008227D03*
X014191Y008118D03*
X012791Y009609D03*
D98*
X012854Y008845D03*
X012854Y008827D03*
X014181Y008173D03*
X014181Y008154D03*
X014181Y008136D03*
D99*
X014181Y008191D03*
D100*
X014200Y008209D03*
D101*
X014509Y008282D03*
D102*
X014372Y008591D03*
X013772Y008791D03*
X015172Y008482D03*
X015972Y009191D03*
X015372Y009482D03*
X018372Y009191D03*
D103*
X017663Y008773D03*
X017663Y008754D03*
X014754Y009409D03*
X014754Y009427D03*
X014754Y009445D03*
X014754Y009464D03*
X013154Y008773D03*
D104*
X012863Y008809D03*
X017972Y008827D03*
X017972Y008845D03*
X017972Y008864D03*
D105*
X012863Y008864D03*
X012863Y008900D03*
D106*
X012863Y008882D03*
D107*
X017972Y008882D03*
D108*
X012872Y008918D03*
D109*
X013727Y008936D03*
D110*
X013345Y008954D03*
D111*
X017591Y008954D03*
X017609Y008973D03*
X017700Y009445D03*
X017700Y009464D03*
D112*
X013318Y008991D03*
D113*
X017618Y008991D03*
D114*
X017636Y009009D03*
X017708Y009354D03*
X017708Y009373D03*
D115*
X017654Y009027D03*
D116*
X017790Y009227D03*
D117*
X017763Y009245D03*
D118*
X017745Y009264D03*
D119*
X017736Y009282D03*
D120*
X017718Y009300D03*
X017918Y009736D03*
D121*
X017727Y009318D03*
D122*
X017699Y009391D03*
D123*
X017709Y009409D03*
X017709Y009427D03*
D124*
X014754Y009482D03*
D125*
X017700Y009482D03*
D126*
X017336Y009500D03*
D127*
X017327Y009518D03*
D128*
X015718Y009591D03*
D129*
X016017Y009591D03*
D130*
X018427Y009591D03*
D131*
X015908Y009645D03*
X012963Y009645D03*
D132*
X017918Y009645D03*
D133*
X012963Y009664D03*
D134*
X014845Y009664D03*
D135*
X015899Y009664D03*
D136*
X017918Y009664D03*
D137*
X012963Y009682D03*
D138*
X014845Y009682D03*
D139*
X012963Y009718D03*
D140*
X015899Y009718D03*
D141*
X017909Y009718D03*
D142*
X012963Y009736D03*
D143*
X011940Y013257D03*
D144*
X006250Y005125D02*
X006250Y000125D01*
X029500Y000125D01*
X024184Y004241D02*
X024027Y004241D01*
X024184Y004241D02*
X024184Y004398D01*
X022373Y004241D02*
X022216Y004241D01*
X022216Y004398D01*
X022452Y005934D02*
X022454Y005946D01*
X022459Y005957D01*
X022468Y005966D01*
X022479Y005971D01*
X022491Y005973D01*
X022503Y005971D01*
X022514Y005966D01*
X022523Y005957D01*
X022528Y005946D01*
X022530Y005934D01*
X022528Y005922D01*
X022523Y005911D01*
X022514Y005902D01*
X022503Y005897D01*
X022491Y005895D01*
X022479Y005897D01*
X022468Y005902D01*
X022459Y005911D01*
X022454Y005922D01*
X022452Y005934D01*
X022216Y006052D02*
X022373Y006209D01*
X024027Y006209D02*
X024184Y006209D01*
X024184Y006052D01*
X027750Y006275D02*
X027750Y005475D01*
X027750Y006611D02*
X027750Y007411D01*
X034500Y005125D02*
X034498Y004985D01*
X034492Y004845D01*
X034482Y004705D01*
X034469Y004565D01*
X034451Y004426D01*
X034429Y004287D01*
X034404Y004150D01*
X034375Y004012D01*
X034342Y003876D01*
X034305Y003741D01*
X034264Y003607D01*
X034219Y003474D01*
X034171Y003342D01*
X034119Y003212D01*
X034064Y003083D01*
X034005Y002956D01*
X033942Y002830D01*
X033876Y002706D01*
X033807Y002585D01*
X033734Y002465D01*
X033657Y002347D01*
X033578Y002232D01*
X033495Y002118D01*
X033409Y002008D01*
X033320Y001899D01*
X033228Y001793D01*
X033133Y001690D01*
X033036Y001589D01*
X032935Y001492D01*
X032832Y001397D01*
X032726Y001305D01*
X032617Y001216D01*
X032507Y001130D01*
X032393Y001047D01*
X032278Y000968D01*
X032160Y000891D01*
X032040Y000818D01*
X031919Y000749D01*
X031795Y000683D01*
X031669Y000620D01*
X031542Y000561D01*
X031413Y000506D01*
X031283Y000454D01*
X031151Y000406D01*
X031018Y000361D01*
X030884Y000320D01*
X030749Y000283D01*
X030613Y000250D01*
X030475Y000221D01*
X030338Y000196D01*
X030199Y000174D01*
X030060Y000156D01*
X029920Y000143D01*
X029780Y000133D01*
X029640Y000127D01*
X029500Y000125D01*
X034500Y005125D02*
X034500Y016625D01*
X034498Y016765D01*
X034492Y016905D01*
X034482Y017045D01*
X034469Y017185D01*
X034451Y017324D01*
X034429Y017463D01*
X034404Y017600D01*
X034375Y017738D01*
X034342Y017874D01*
X034305Y018009D01*
X034264Y018143D01*
X034219Y018276D01*
X034171Y018408D01*
X034119Y018538D01*
X034064Y018667D01*
X034005Y018794D01*
X033942Y018920D01*
X033876Y019044D01*
X033807Y019165D01*
X033734Y019285D01*
X033657Y019403D01*
X033578Y019518D01*
X033495Y019632D01*
X033409Y019742D01*
X033320Y019851D01*
X033228Y019957D01*
X033133Y020060D01*
X033036Y020161D01*
X032935Y020258D01*
X032832Y020353D01*
X032726Y020445D01*
X032617Y020534D01*
X032507Y020620D01*
X032393Y020703D01*
X032278Y020782D01*
X032160Y020859D01*
X032040Y020932D01*
X031919Y021001D01*
X031795Y021067D01*
X031669Y021130D01*
X031542Y021189D01*
X031413Y021244D01*
X031283Y021296D01*
X031151Y021344D01*
X031018Y021389D01*
X030884Y021430D01*
X030749Y021467D01*
X030613Y021500D01*
X030475Y021529D01*
X030338Y021554D01*
X030199Y021576D01*
X030060Y021594D01*
X029920Y021607D01*
X029780Y021617D01*
X029640Y021623D01*
X029500Y021625D01*
X006250Y021625D01*
X006250Y016625D01*
X009775Y015500D02*
X009775Y015050D01*
X009775Y015200D02*
X010000Y015200D01*
X010075Y015275D01*
X010075Y015425D01*
X010000Y015500D01*
X009775Y015500D01*
X009925Y015200D02*
X010075Y015050D01*
X010235Y015050D02*
X010235Y015500D01*
X010536Y015050D01*
X010536Y015500D01*
X010696Y015275D02*
X010921Y015275D01*
X010996Y015200D01*
X010996Y015125D01*
X010921Y015050D01*
X010771Y015050D01*
X010696Y015125D01*
X010696Y015275D01*
X010846Y015425D01*
X010996Y015500D01*
X011275Y015500D02*
X011500Y015500D01*
X011575Y015425D01*
X011575Y015275D01*
X011500Y015200D01*
X011275Y015200D01*
X011275Y015050D02*
X011275Y015500D01*
X011735Y015500D02*
X012036Y015050D01*
X012036Y015500D01*
X012196Y015500D02*
X012196Y015275D01*
X012346Y015350D01*
X012421Y015350D01*
X012496Y015275D01*
X012496Y015125D01*
X012421Y015050D01*
X012271Y015050D01*
X012196Y015125D01*
X011735Y015050D02*
X011735Y015500D01*
X012196Y015500D02*
X012496Y015500D01*
X011575Y015050D02*
X011425Y015200D01*
X008500Y014375D02*
X008500Y007375D01*
X010725Y007800D02*
X010725Y008250D01*
X010950Y008250D01*
X011025Y008175D01*
X011025Y008025D01*
X010950Y007950D01*
X010725Y007950D01*
X010875Y007950D02*
X011025Y007800D01*
X011185Y007800D02*
X011185Y008250D01*
X011486Y007800D01*
X011486Y008250D01*
X011646Y008100D02*
X011796Y008250D01*
X011796Y007800D01*
X011646Y007800D02*
X011946Y007800D01*
X008500Y007375D02*
X008498Y007282D01*
X008492Y007189D01*
X008483Y007097D01*
X008469Y007005D01*
X008452Y006913D01*
X008431Y006823D01*
X008406Y006733D01*
X008378Y006644D01*
X008346Y006557D01*
X008310Y006471D01*
X008271Y006387D01*
X008229Y006304D01*
X008183Y006223D01*
X008134Y006144D01*
X008081Y006068D01*
X008026Y005993D01*
X007967Y005921D01*
X007905Y005851D01*
X007841Y005784D01*
X007774Y005720D01*
X007704Y005658D01*
X007632Y005599D01*
X007557Y005544D01*
X007481Y005491D01*
X007402Y005442D01*
X007321Y005396D01*
X007238Y005354D01*
X007154Y005315D01*
X007068Y005279D01*
X006981Y005247D01*
X006892Y005219D01*
X006802Y005194D01*
X006712Y005173D01*
X006620Y005156D01*
X006528Y005142D01*
X006436Y005133D01*
X006343Y005127D01*
X006250Y005125D01*
X011121Y012398D02*
X011271Y012398D01*
X011196Y012398D02*
X011196Y012849D01*
X011121Y012849D02*
X011271Y012849D01*
X011428Y012774D02*
X011503Y012849D01*
X011653Y012849D01*
X011728Y012774D01*
X011888Y012774D02*
X011963Y012849D01*
X012113Y012849D01*
X012188Y012774D01*
X012188Y012699D01*
X012113Y012624D01*
X012188Y012549D01*
X012188Y012473D01*
X012113Y012398D01*
X011963Y012398D01*
X011888Y012473D01*
X011728Y012473D02*
X011653Y012398D01*
X011503Y012398D01*
X011428Y012473D01*
X011428Y012774D01*
X012038Y012624D02*
X012113Y012624D01*
X017989Y012138D02*
X017991Y012157D01*
X017996Y012176D01*
X018006Y012192D01*
X018018Y012207D01*
X018033Y012219D01*
X018049Y012229D01*
X018068Y012234D01*
X018087Y012236D01*
X018106Y012234D01*
X018125Y012229D01*
X018141Y012219D01*
X018156Y012207D01*
X018168Y012192D01*
X018178Y012176D01*
X018183Y012157D01*
X018185Y012138D01*
X018183Y012119D01*
X018178Y012100D01*
X018168Y012084D01*
X018156Y012069D01*
X018141Y012057D01*
X018125Y012047D01*
X018106Y012042D01*
X018087Y012040D01*
X018068Y012042D01*
X018049Y012047D01*
X018033Y012057D01*
X018018Y012069D01*
X018006Y012084D01*
X017996Y012100D01*
X017991Y012119D01*
X017989Y012138D01*
X022075Y012279D02*
X022525Y012279D01*
X022075Y011979D01*
X022525Y011979D01*
X022525Y011819D02*
X022375Y011669D01*
X022375Y011744D02*
X022375Y011519D01*
X022525Y011519D02*
X022075Y011519D01*
X022075Y011744D01*
X022150Y011819D01*
X022300Y011819D01*
X022375Y011744D01*
X022450Y012440D02*
X022525Y012515D01*
X022525Y012665D01*
X022450Y012740D01*
X022375Y012740D01*
X022300Y012665D01*
X022300Y012590D01*
X022300Y012665D02*
X022225Y012740D01*
X022150Y012740D01*
X022075Y012665D01*
X022075Y012515D01*
X022150Y012440D01*
X022125Y013219D02*
X022125Y013444D01*
X022200Y013519D01*
X022350Y013519D01*
X022425Y013444D01*
X022425Y013219D01*
X022425Y013369D02*
X022575Y013519D01*
X022575Y013679D02*
X022125Y013679D01*
X022575Y013979D01*
X022125Y013979D01*
X022350Y014140D02*
X022350Y014440D01*
X022575Y014365D02*
X022125Y014365D01*
X022350Y014140D01*
X022575Y013219D02*
X022125Y013219D01*
X022805Y009731D02*
X022880Y009731D01*
X023180Y009430D01*
X023255Y009430D01*
X023180Y009195D02*
X022805Y009195D01*
X022805Y009120D02*
X022805Y009270D01*
X022805Y009430D02*
X022805Y009731D01*
X023180Y009195D02*
X023255Y009120D01*
X023255Y009045D01*
X023180Y008970D01*
X030150Y013075D02*
X030950Y013075D01*
X029550Y018175D02*
X029550Y018975D01*
X018495Y017955D02*
X018495Y017880D01*
X018420Y017805D01*
X018270Y017805D01*
X018195Y017880D01*
X018195Y017955D01*
X018270Y018030D01*
X018420Y018030D01*
X018495Y017955D01*
X018420Y017805D02*
X018495Y017730D01*
X018495Y017655D01*
X018420Y017580D01*
X018270Y017580D01*
X018195Y017655D01*
X018195Y017730D01*
X018270Y017805D01*
X018034Y018030D02*
X017884Y018030D01*
X017959Y018030D02*
X017959Y017655D01*
X017884Y017580D01*
X017809Y017580D01*
X017734Y017655D01*
X008500Y014375D02*
X008498Y014468D01*
X008492Y014561D01*
X008483Y014653D01*
X008469Y014745D01*
X008452Y014837D01*
X008431Y014927D01*
X008406Y015017D01*
X008378Y015106D01*
X008346Y015193D01*
X008310Y015279D01*
X008271Y015363D01*
X008229Y015446D01*
X008183Y015527D01*
X008134Y015606D01*
X008081Y015682D01*
X008026Y015757D01*
X007967Y015829D01*
X007905Y015899D01*
X007841Y015966D01*
X007774Y016030D01*
X007704Y016092D01*
X007632Y016151D01*
X007557Y016206D01*
X007481Y016259D01*
X007402Y016308D01*
X007321Y016354D01*
X007238Y016396D01*
X007154Y016435D01*
X007068Y016471D01*
X006981Y016503D01*
X006892Y016531D01*
X006802Y016556D01*
X006712Y016577D01*
X006620Y016594D01*
X006528Y016608D01*
X006436Y016617D01*
X006343Y016623D01*
X006250Y016625D01*
D145*
X013888Y010925D02*
X013912Y010925D01*
X019100Y012713D02*
X019100Y012737D01*
X020100Y006937D02*
X020100Y006913D01*
X020100Y004337D02*
X020100Y004313D01*
X025800Y005013D02*
X025800Y005037D01*
X025800Y003337D02*
X025800Y003313D01*
D146*
X028174Y003278D02*
X028217Y003234D01*
X028391Y003234D01*
X028434Y003278D01*
X028434Y003364D01*
X028391Y003408D01*
X028391Y003492D02*
X028434Y003535D01*
X028434Y003622D01*
X028391Y003666D01*
X028347Y003666D01*
X028304Y003622D01*
X028304Y003579D01*
X028304Y003622D02*
X028261Y003666D01*
X028217Y003666D01*
X028174Y003622D01*
X028174Y003535D01*
X028217Y003492D01*
X028217Y003408D02*
X028174Y003364D01*
X028174Y003278D01*
X028199Y003028D02*
X028243Y003028D01*
X028286Y002984D01*
X028286Y002898D01*
X028243Y002854D01*
X028199Y002854D01*
X028156Y002898D01*
X028156Y002984D01*
X028199Y003028D01*
X028286Y002984D02*
X028329Y003028D01*
X028373Y003028D01*
X028416Y002984D01*
X028416Y002898D01*
X028373Y002854D01*
X028329Y002854D01*
X028286Y002898D01*
X028243Y002770D02*
X028199Y002770D01*
X028156Y002727D01*
X028156Y002640D01*
X028199Y002597D01*
X028199Y002512D02*
X028156Y002469D01*
X028156Y002382D01*
X028199Y002339D01*
X028373Y002339D01*
X028416Y002382D01*
X028416Y002469D01*
X028373Y002512D01*
X028416Y002597D02*
X028243Y002770D01*
X028416Y002770D02*
X028416Y002597D01*
X028434Y003750D02*
X028434Y003923D01*
X028434Y003837D02*
X028174Y003837D01*
X028261Y003750D01*
X028201Y004221D02*
X028374Y004221D01*
X028418Y004264D01*
X028418Y004351D01*
X028374Y004395D01*
X028418Y004479D02*
X028244Y004652D01*
X028201Y004652D01*
X028157Y004609D01*
X028157Y004522D01*
X028201Y004479D01*
X028201Y004395D02*
X028157Y004351D01*
X028157Y004264D01*
X028201Y004221D01*
X028418Y004479D02*
X028418Y004652D01*
X028374Y004737D02*
X028418Y004780D01*
X028418Y004867D01*
X028374Y004910D01*
X028201Y004910D01*
X028157Y004867D01*
X028157Y004780D01*
X028201Y004737D01*
X028244Y004737D01*
X028288Y004780D01*
X028288Y004910D01*
D147*
X032117Y003066D02*
X032119Y003101D01*
X032125Y003136D01*
X032135Y003170D01*
X032148Y003203D01*
X032165Y003234D01*
X032186Y003262D01*
X032209Y003289D01*
X032236Y003312D01*
X032264Y003333D01*
X032295Y003350D01*
X032328Y003363D01*
X032362Y003373D01*
X032397Y003379D01*
X032432Y003381D01*
X032467Y003379D01*
X032502Y003373D01*
X032536Y003363D01*
X032569Y003350D01*
X032600Y003333D01*
X032628Y003312D01*
X032655Y003289D01*
X032678Y003262D01*
X032699Y003234D01*
X032716Y003203D01*
X032729Y003170D01*
X032739Y003136D01*
X032745Y003101D01*
X032747Y003066D01*
X032745Y003031D01*
X032739Y002996D01*
X032729Y002962D01*
X032716Y002929D01*
X032699Y002898D01*
X032678Y002870D01*
X032655Y002843D01*
X032628Y002820D01*
X032600Y002799D01*
X032569Y002782D01*
X032536Y002769D01*
X032502Y002759D01*
X032467Y002753D01*
X032432Y002751D01*
X032397Y002753D01*
X032362Y002759D01*
X032328Y002769D01*
X032295Y002782D01*
X032264Y002799D01*
X032236Y002820D01*
X032209Y002843D01*
X032186Y002870D01*
X032165Y002898D01*
X032148Y002929D01*
X032135Y002962D01*
X032125Y002996D01*
X032119Y003031D01*
X032117Y003066D01*
M02*
