%TF.GenerationSoftware,KiCad,Pcbnew,(6.0.5-0)*%
%TF.CreationDate,2022-12-24T13:27:47+01:00*%
%TF.ProjectId,panel,70616e65-6c2e-46b6-9963-61645f706362,rev?*%
%TF.SameCoordinates,Original*%
%TF.FileFunction,Copper,L2,Bot*%
%TF.FilePolarity,Positive*%
%FSLAX46Y46*%
G04 Gerber Fmt 4.6, Leading zero omitted, Abs format (unit mm)*
G04 Created by KiCad (PCBNEW (6.0.5-0)) date 2022-12-24 13:27:47*
%MOMM*%
%LPD*%
G01*
G04 APERTURE LIST*
G04 Aperture macros list*
%AMRoundRect*
0 Rectangle with rounded corners*
0 $1 Rounding radius*
0 $2 $3 $4 $5 $6 $7 $8 $9 X,Y pos of 4 corners*
0 Add a 4 corners polygon primitive as box body*
4,1,4,$2,$3,$4,$5,$6,$7,$8,$9,$2,$3,0*
0 Add four circle primitives for the rounded corners*
1,1,$1+$1,$2,$3*
1,1,$1+$1,$4,$5*
1,1,$1+$1,$6,$7*
1,1,$1+$1,$8,$9*
0 Add four rect primitives between the rounded corners*
20,1,$1+$1,$2,$3,$4,$5,0*
20,1,$1+$1,$4,$5,$6,$7,0*
20,1,$1+$1,$6,$7,$8,$9,0*
20,1,$1+$1,$8,$9,$2,$3,0*%
G04 Aperture macros list end*
%TA.AperFunction,ComponentPad*%
%ADD10R,1.700000X1.700000*%
%TD*%
%TA.AperFunction,ComponentPad*%
%ADD11O,1.700000X1.700000*%
%TD*%
%TA.AperFunction,SMDPad,CuDef*%
%ADD12RoundRect,0.225000X-0.225000X-0.250000X0.225000X-0.250000X0.225000X0.250000X-0.225000X0.250000X0*%
%TD*%
%TA.AperFunction,SMDPad,CuDef*%
%ADD13RoundRect,0.225000X0.225000X0.250000X-0.225000X0.250000X-0.225000X-0.250000X0.225000X-0.250000X0*%
%TD*%
%TA.AperFunction,Conductor*%
%ADD14C,0.250000*%
%TD*%
G04 APERTURE END LIST*
D10*
%TO.P,J2,1,Pin_1*%
%TO.N,Board_3-Net-(C4-Pad1)*%
X51937200Y-16815200D03*
D11*
%TO.P,J2,2,Pin_2*%
%TO.N,Board_3-Net-(C2-Pad1)*%
X49397200Y-16815200D03*
%TO.P,J2,3,Pin_3*%
%TO.N,Board_3-GND*%
X46857200Y-16815200D03*
%TD*%
D10*
%TO.P,J2,1,Pin_1*%
%TO.N,Board_7-Net-(C4-Pad1)*%
X41809200Y-29229200D03*
D11*
%TO.P,J2,2,Pin_2*%
%TO.N,Board_7-Net-(C2-Pad1)*%
X39269200Y-29229200D03*
%TO.P,J2,3,Pin_3*%
%TO.N,Board_7-GND*%
X36729200Y-29229200D03*
%TD*%
D10*
%TO.P,J2,1,Pin_1*%
%TO.N,Board_1-Net-(C4-Pad1)*%
X31681200Y-16815200D03*
D11*
%TO.P,J2,2,Pin_2*%
%TO.N,Board_1-Net-(C2-Pad1)*%
X29141200Y-16815200D03*
%TO.P,J2,3,Pin_3*%
%TO.N,Board_1-GND*%
X26601200Y-16815200D03*
%TD*%
D10*
%TO.P,J2,1,Pin_1*%
%TO.N,Board_2-Net-(C4-Pad1)*%
X41809200Y-16815200D03*
D11*
%TO.P,J2,2,Pin_2*%
%TO.N,Board_2-Net-(C2-Pad1)*%
X39269200Y-16815200D03*
%TO.P,J2,3,Pin_3*%
%TO.N,Board_2-GND*%
X36729200Y-16815200D03*
%TD*%
D10*
%TO.P,J1,1,Pin_1*%
%TO.N,Board_0-Net-(C3-Pad2)*%
X21538200Y-23585200D03*
D11*
%TO.P,J1,2,Pin_2*%
%TO.N,Board_0-Net-(C1-Pad1)*%
X18998200Y-23585200D03*
%TO.P,J1,3,Pin_3*%
%TO.N,Board_0-GND*%
X16458200Y-23585200D03*
%TD*%
D10*
%TO.P,J1,1,Pin_1*%
%TO.N,Board_3-Net-(C3-Pad2)*%
X51922200Y-23585200D03*
D11*
%TO.P,J1,2,Pin_2*%
%TO.N,Board_3-Net-(C1-Pad1)*%
X49382200Y-23585200D03*
%TO.P,J1,3,Pin_3*%
%TO.N,Board_3-GND*%
X46842200Y-23585200D03*
%TD*%
D10*
%TO.P,J1,1,Pin_1*%
%TO.N,Board_6-Net-(C3-Pad2)*%
X31666200Y-35999200D03*
D11*
%TO.P,J1,2,Pin_2*%
%TO.N,Board_6-Net-(C1-Pad1)*%
X29126200Y-35999200D03*
%TO.P,J1,3,Pin_3*%
%TO.N,Board_6-GND*%
X26586200Y-35999200D03*
%TD*%
D10*
%TO.P,J2,1,Pin_1*%
%TO.N,Board_8-Net-(C4-Pad1)*%
X51937200Y-29229200D03*
D11*
%TO.P,J2,2,Pin_2*%
%TO.N,Board_8-Net-(C2-Pad1)*%
X49397200Y-29229200D03*
%TO.P,J2,3,Pin_3*%
%TO.N,Board_8-GND*%
X46857200Y-29229200D03*
%TD*%
D10*
%TO.P,J1,1,Pin_1*%
%TO.N,Board_4-Net-(C3-Pad2)*%
X62050200Y-23585200D03*
D11*
%TO.P,J1,2,Pin_2*%
%TO.N,Board_4-Net-(C1-Pad1)*%
X59510200Y-23585200D03*
%TO.P,J1,3,Pin_3*%
%TO.N,Board_4-GND*%
X56970200Y-23585200D03*
%TD*%
D10*
%TO.P,J1,1,Pin_1*%
%TO.N,Board_2-Net-(C3-Pad2)*%
X41794200Y-23585200D03*
D11*
%TO.P,J1,2,Pin_2*%
%TO.N,Board_2-Net-(C1-Pad1)*%
X39254200Y-23585200D03*
%TO.P,J1,3,Pin_3*%
%TO.N,Board_2-GND*%
X36714200Y-23585200D03*
%TD*%
D10*
%TO.P,J2,1,Pin_1*%
%TO.N,Board_5-Net-(C4-Pad1)*%
X21553200Y-29229200D03*
D11*
%TO.P,J2,2,Pin_2*%
%TO.N,Board_5-Net-(C2-Pad1)*%
X19013200Y-29229200D03*
%TO.P,J2,3,Pin_3*%
%TO.N,Board_5-GND*%
X16473200Y-29229200D03*
%TD*%
D10*
%TO.P,J1,1,Pin_1*%
%TO.N,Board_1-Net-(C3-Pad2)*%
X31666200Y-23585200D03*
D11*
%TO.P,J1,2,Pin_2*%
%TO.N,Board_1-Net-(C1-Pad1)*%
X29126200Y-23585200D03*
%TO.P,J1,3,Pin_3*%
%TO.N,Board_1-GND*%
X26586200Y-23585200D03*
%TD*%
D10*
%TO.P,J1,1,Pin_1*%
%TO.N,Board_9-Net-(C3-Pad2)*%
X62050200Y-35999200D03*
D11*
%TO.P,J1,2,Pin_2*%
%TO.N,Board_9-Net-(C1-Pad1)*%
X59510200Y-35999200D03*
%TO.P,J1,3,Pin_3*%
%TO.N,Board_9-GND*%
X56970200Y-35999200D03*
%TD*%
D10*
%TO.P,J1,1,Pin_1*%
%TO.N,Board_5-Net-(C3-Pad2)*%
X21538200Y-35999200D03*
D11*
%TO.P,J1,2,Pin_2*%
%TO.N,Board_5-Net-(C1-Pad1)*%
X18998200Y-35999200D03*
%TO.P,J1,3,Pin_3*%
%TO.N,Board_5-GND*%
X16458200Y-35999200D03*
%TD*%
D10*
%TO.P,J2,1,Pin_1*%
%TO.N,Board_4-Net-(C4-Pad1)*%
X62065200Y-16815200D03*
D11*
%TO.P,J2,2,Pin_2*%
%TO.N,Board_4-Net-(C2-Pad1)*%
X59525200Y-16815200D03*
%TO.P,J2,3,Pin_3*%
%TO.N,Board_4-GND*%
X56985200Y-16815200D03*
%TD*%
D10*
%TO.P,J1,1,Pin_1*%
%TO.N,Board_7-Net-(C3-Pad2)*%
X41794200Y-35999200D03*
D11*
%TO.P,J1,2,Pin_2*%
%TO.N,Board_7-Net-(C1-Pad1)*%
X39254200Y-35999200D03*
%TO.P,J1,3,Pin_3*%
%TO.N,Board_7-GND*%
X36714200Y-35999200D03*
%TD*%
D10*
%TO.P,J1,1,Pin_1*%
%TO.N,Board_8-Net-(C3-Pad2)*%
X51922200Y-35999200D03*
D11*
%TO.P,J1,2,Pin_2*%
%TO.N,Board_8-Net-(C1-Pad1)*%
X49382200Y-35999200D03*
%TO.P,J1,3,Pin_3*%
%TO.N,Board_8-GND*%
X46842200Y-35999200D03*
%TD*%
D10*
%TO.P,J2,1,Pin_1*%
%TO.N,Board_9-Net-(C4-Pad1)*%
X62065200Y-29229200D03*
D11*
%TO.P,J2,2,Pin_2*%
%TO.N,Board_9-Net-(C2-Pad1)*%
X59525200Y-29229200D03*
%TO.P,J2,3,Pin_3*%
%TO.N,Board_9-GND*%
X56985200Y-29229200D03*
%TD*%
D10*
%TO.P,J2,1,Pin_1*%
%TO.N,Board_0-Net-(C4-Pad1)*%
X21553200Y-16815200D03*
D11*
%TO.P,J2,2,Pin_2*%
%TO.N,Board_0-Net-(C2-Pad1)*%
X19013200Y-16815200D03*
%TO.P,J2,3,Pin_3*%
%TO.N,Board_0-GND*%
X16473200Y-16815200D03*
%TD*%
D10*
%TO.P,J2,1,Pin_1*%
%TO.N,Board_6-Net-(C4-Pad1)*%
X31681200Y-29229200D03*
D11*
%TO.P,J2,2,Pin_2*%
%TO.N,Board_6-Net-(C2-Pad1)*%
X29141200Y-29229200D03*
%TO.P,J2,3,Pin_3*%
%TO.N,Board_6-GND*%
X26601200Y-29229200D03*
%TD*%
D12*
%TO.P,C3,1*%
%TO.N,Board_3-GND*%
X50921200Y-21223000D03*
%TO.P,C3,2*%
%TO.N,Board_3-Net-(C3-Pad2)*%
X52471200Y-21223000D03*
%TD*%
D13*
%TO.P,C2,1*%
%TO.N,Board_9-Net-(C2-Pad1)*%
X59004800Y-31605000D03*
%TO.P,C2,2*%
%TO.N,Board_9-GND*%
X57454800Y-31605000D03*
%TD*%
D12*
%TO.P,C3,1*%
%TO.N,Board_2-GND*%
X40793200Y-21223000D03*
%TO.P,C3,2*%
%TO.N,Board_2-Net-(C3-Pad2)*%
X42343200Y-21223000D03*
%TD*%
%TO.P,C3,1*%
%TO.N,Board_4-GND*%
X61049200Y-21223000D03*
%TO.P,C3,2*%
%TO.N,Board_4-Net-(C3-Pad2)*%
X62599200Y-21223000D03*
%TD*%
D13*
%TO.P,C2,1*%
%TO.N,Board_3-Net-(C2-Pad1)*%
X48876800Y-19191000D03*
%TO.P,C2,2*%
%TO.N,Board_3-GND*%
X47326800Y-19191000D03*
%TD*%
%TO.P,C4,1*%
%TO.N,Board_9-Net-(C4-Pad1)*%
X62586200Y-31605000D03*
%TO.P,C4,2*%
%TO.N,Board_9-GND*%
X61036200Y-31605000D03*
%TD*%
D12*
%TO.P,C3,1*%
%TO.N,Board_7-GND*%
X40793200Y-33637000D03*
%TO.P,C3,2*%
%TO.N,Board_7-Net-(C3-Pad2)*%
X42343200Y-33637000D03*
%TD*%
D13*
%TO.P,C4,1*%
%TO.N,Board_3-Net-(C4-Pad1)*%
X52458200Y-19191000D03*
%TO.P,C4,2*%
%TO.N,Board_3-GND*%
X50908200Y-19191000D03*
%TD*%
%TO.P,C2,1*%
%TO.N,Board_0-Net-(C2-Pad1)*%
X18492800Y-19191000D03*
%TO.P,C2,2*%
%TO.N,Board_0-GND*%
X16942800Y-19191000D03*
%TD*%
%TO.P,C2,1*%
%TO.N,Board_6-Net-(C2-Pad1)*%
X28620800Y-31605000D03*
%TO.P,C2,2*%
%TO.N,Board_6-GND*%
X27070800Y-31605000D03*
%TD*%
%TO.P,C4,1*%
%TO.N,Board_8-Net-(C4-Pad1)*%
X52458200Y-31605000D03*
%TO.P,C4,2*%
%TO.N,Board_8-GND*%
X50908200Y-31605000D03*
%TD*%
%TO.P,C2,1*%
%TO.N,Board_4-Net-(C2-Pad1)*%
X59004800Y-19191000D03*
%TO.P,C2,2*%
%TO.N,Board_4-GND*%
X57454800Y-19191000D03*
%TD*%
%TO.P,C1,1*%
%TO.N,Board_7-Net-(C1-Pad1)*%
X38748800Y-33637000D03*
%TO.P,C1,2*%
%TO.N,Board_7-GND*%
X37198800Y-33637000D03*
%TD*%
D12*
%TO.P,C3,1*%
%TO.N,Board_1-GND*%
X30665200Y-21223000D03*
%TO.P,C3,2*%
%TO.N,Board_1-Net-(C3-Pad2)*%
X32215200Y-21223000D03*
%TD*%
D13*
%TO.P,C1,1*%
%TO.N,Board_6-Net-(C1-Pad1)*%
X28620800Y-33637000D03*
%TO.P,C1,2*%
%TO.N,Board_6-GND*%
X27070800Y-33637000D03*
%TD*%
%TO.P,C1,1*%
%TO.N,Board_0-Net-(C1-Pad1)*%
X18492800Y-21223000D03*
%TO.P,C1,2*%
%TO.N,Board_0-GND*%
X16942800Y-21223000D03*
%TD*%
%TO.P,C1,1*%
%TO.N,Board_9-Net-(C1-Pad1)*%
X59004800Y-33637000D03*
%TO.P,C1,2*%
%TO.N,Board_9-GND*%
X57454800Y-33637000D03*
%TD*%
D12*
%TO.P,C3,1*%
%TO.N,Board_6-GND*%
X30665200Y-33637000D03*
%TO.P,C3,2*%
%TO.N,Board_6-Net-(C3-Pad2)*%
X32215200Y-33637000D03*
%TD*%
D13*
%TO.P,C1,1*%
%TO.N,Board_4-Net-(C1-Pad1)*%
X59004800Y-21223000D03*
%TO.P,C1,2*%
%TO.N,Board_4-GND*%
X57454800Y-21223000D03*
%TD*%
D12*
%TO.P,C3,1*%
%TO.N,Board_5-GND*%
X20537200Y-33637000D03*
%TO.P,C3,2*%
%TO.N,Board_5-Net-(C3-Pad2)*%
X22087200Y-33637000D03*
%TD*%
D13*
%TO.P,C2,1*%
%TO.N,Board_8-Net-(C2-Pad1)*%
X48876800Y-31605000D03*
%TO.P,C2,2*%
%TO.N,Board_8-GND*%
X47326800Y-31605000D03*
%TD*%
%TO.P,C4,1*%
%TO.N,Board_4-Net-(C4-Pad1)*%
X62586200Y-19191000D03*
%TO.P,C4,2*%
%TO.N,Board_4-GND*%
X61036200Y-19191000D03*
%TD*%
%TO.P,C2,1*%
%TO.N,Board_5-Net-(C2-Pad1)*%
X18492800Y-31605000D03*
%TO.P,C2,2*%
%TO.N,Board_5-GND*%
X16942800Y-31605000D03*
%TD*%
%TO.P,C2,1*%
%TO.N,Board_7-Net-(C2-Pad1)*%
X38748800Y-31605000D03*
%TO.P,C2,2*%
%TO.N,Board_7-GND*%
X37198800Y-31605000D03*
%TD*%
%TO.P,C4,1*%
%TO.N,Board_0-Net-(C4-Pad1)*%
X22074200Y-19191000D03*
%TO.P,C4,2*%
%TO.N,Board_0-GND*%
X20524200Y-19191000D03*
%TD*%
D12*
%TO.P,C3,1*%
%TO.N,Board_9-GND*%
X61049200Y-33637000D03*
%TO.P,C3,2*%
%TO.N,Board_9-Net-(C3-Pad2)*%
X62599200Y-33637000D03*
%TD*%
D13*
%TO.P,C1,1*%
%TO.N,Board_3-Net-(C1-Pad1)*%
X48876800Y-21223000D03*
%TO.P,C1,2*%
%TO.N,Board_3-GND*%
X47326800Y-21223000D03*
%TD*%
%TO.P,C1,1*%
%TO.N,Board_8-Net-(C1-Pad1)*%
X48876800Y-33637000D03*
%TO.P,C1,2*%
%TO.N,Board_8-GND*%
X47326800Y-33637000D03*
%TD*%
D12*
%TO.P,C3,1*%
%TO.N,Board_0-GND*%
X20537200Y-21223000D03*
%TO.P,C3,2*%
%TO.N,Board_0-Net-(C3-Pad2)*%
X22087200Y-21223000D03*
%TD*%
D13*
%TO.P,C2,1*%
%TO.N,Board_1-Net-(C2-Pad1)*%
X28620800Y-19191000D03*
%TO.P,C2,2*%
%TO.N,Board_1-GND*%
X27070800Y-19191000D03*
%TD*%
%TO.P,C2,1*%
%TO.N,Board_2-Net-(C2-Pad1)*%
X38748800Y-19191000D03*
%TO.P,C2,2*%
%TO.N,Board_2-GND*%
X37198800Y-19191000D03*
%TD*%
%TO.P,C1,1*%
%TO.N,Board_5-Net-(C1-Pad1)*%
X18492800Y-33637000D03*
%TO.P,C1,2*%
%TO.N,Board_5-GND*%
X16942800Y-33637000D03*
%TD*%
%TO.P,C4,1*%
%TO.N,Board_2-Net-(C4-Pad1)*%
X42330200Y-19191000D03*
%TO.P,C4,2*%
%TO.N,Board_2-GND*%
X40780200Y-19191000D03*
%TD*%
%TO.P,C4,1*%
%TO.N,Board_1-Net-(C4-Pad1)*%
X32202200Y-19191000D03*
%TO.P,C4,2*%
%TO.N,Board_1-GND*%
X30652200Y-19191000D03*
%TD*%
%TO.P,C1,1*%
%TO.N,Board_1-Net-(C1-Pad1)*%
X28620800Y-21223000D03*
%TO.P,C1,2*%
%TO.N,Board_1-GND*%
X27070800Y-21223000D03*
%TD*%
%TO.P,C4,1*%
%TO.N,Board_7-Net-(C4-Pad1)*%
X42330200Y-31605000D03*
%TO.P,C4,2*%
%TO.N,Board_7-GND*%
X40780200Y-31605000D03*
%TD*%
%TO.P,C1,1*%
%TO.N,Board_2-Net-(C1-Pad1)*%
X38748800Y-21223000D03*
%TO.P,C1,2*%
%TO.N,Board_2-GND*%
X37198800Y-21223000D03*
%TD*%
D12*
%TO.P,C3,1*%
%TO.N,Board_8-GND*%
X50921200Y-33637000D03*
%TO.P,C3,2*%
%TO.N,Board_8-Net-(C3-Pad2)*%
X52471200Y-33637000D03*
%TD*%
D13*
%TO.P,C4,1*%
%TO.N,Board_5-Net-(C4-Pad1)*%
X22074200Y-31605000D03*
%TO.P,C4,2*%
%TO.N,Board_5-GND*%
X20524200Y-31605000D03*
%TD*%
%TO.P,C4,1*%
%TO.N,Board_6-Net-(C4-Pad1)*%
X32202200Y-31605000D03*
%TO.P,C4,2*%
%TO.N,Board_6-GND*%
X30652200Y-31605000D03*
%TD*%
D14*
%TO.N,Board_0-GND*%
X20537200Y-21223000D02*
X20537200Y-21045200D01*
X16942800Y-17284800D02*
X16473200Y-16815200D01*
X16942800Y-23100600D02*
X16942800Y-21260800D01*
X16942800Y-21223000D02*
X16942800Y-21260800D01*
X16942800Y-21260800D02*
X16942800Y-19280200D01*
X20537200Y-21045200D02*
X19750080Y-20258080D01*
X16942800Y-20181600D02*
X19711400Y-20181600D01*
X16458200Y-23585200D02*
X16942800Y-23100600D01*
X16942800Y-19191000D02*
X16942800Y-19280200D01*
X19750080Y-20142920D02*
X20524200Y-19368800D01*
X16942800Y-19280200D02*
X16942800Y-17284800D01*
X19711400Y-20181600D02*
X19750080Y-20142920D01*
X19750080Y-20258080D02*
X19750080Y-20142920D01*
X20524200Y-19191000D02*
X20524200Y-19368800D01*
%TO.N,Board_0-Net-(C1-Pad1)*%
X18492800Y-21223000D02*
X18670600Y-21223000D01*
X18998200Y-21550600D02*
X18998200Y-23585200D01*
X18670600Y-21223000D02*
X18998200Y-21550600D01*
%TO.N,Board_0-Net-(C2-Pad1)*%
X19013200Y-16815200D02*
X19013200Y-18823000D01*
X18727600Y-19108600D02*
X18492800Y-19343400D01*
X19013200Y-18823000D02*
X18727600Y-19108600D01*
X18645200Y-19191000D02*
X18727600Y-19108600D01*
X18492800Y-19191000D02*
X18645200Y-19191000D01*
%TO.N,Board_0-Net-(C3-Pad2)*%
X22087200Y-23036200D02*
X21538200Y-23585200D01*
X22087200Y-21019800D02*
X22087200Y-23036200D01*
%TO.N,Board_0-Net-(C4-Pad1)*%
X22074200Y-17336200D02*
X21553200Y-16815200D01*
X22035800Y-19330400D02*
X22074200Y-19368800D01*
X22074200Y-19368800D02*
X22074200Y-17336200D01*
%TO.N,Board_1-GND*%
X30665200Y-21223000D02*
X30665200Y-21045200D01*
X27070800Y-17284800D02*
X26601200Y-16815200D01*
X27070800Y-23100600D02*
X27070800Y-21260800D01*
X27070800Y-21223000D02*
X27070800Y-21260800D01*
X27070800Y-21260800D02*
X27070800Y-19280200D01*
X30665200Y-21045200D02*
X29878080Y-20258080D01*
X27070800Y-20181600D02*
X29839400Y-20181600D01*
X26586200Y-23585200D02*
X27070800Y-23100600D01*
X27070800Y-19191000D02*
X27070800Y-19280200D01*
X29878080Y-20142920D02*
X30652200Y-19368800D01*
X27070800Y-19280200D02*
X27070800Y-17284800D01*
X29839400Y-20181600D02*
X29878080Y-20142920D01*
X29878080Y-20258080D02*
X29878080Y-20142920D01*
X30652200Y-19191000D02*
X30652200Y-19368800D01*
%TO.N,Board_1-Net-(C1-Pad1)*%
X28620800Y-21223000D02*
X28798600Y-21223000D01*
X29126200Y-21550600D02*
X29126200Y-23585200D01*
X28798600Y-21223000D02*
X29126200Y-21550600D01*
%TO.N,Board_1-Net-(C2-Pad1)*%
X29141200Y-16815200D02*
X29141200Y-18823000D01*
X28855600Y-19108600D02*
X28620800Y-19343400D01*
X29141200Y-18823000D02*
X28855600Y-19108600D01*
X28773200Y-19191000D02*
X28855600Y-19108600D01*
X28620800Y-19191000D02*
X28773200Y-19191000D01*
%TO.N,Board_1-Net-(C3-Pad2)*%
X32215200Y-23036200D02*
X31666200Y-23585200D01*
X32215200Y-21019800D02*
X32215200Y-23036200D01*
%TO.N,Board_1-Net-(C4-Pad1)*%
X32202200Y-17336200D02*
X31681200Y-16815200D01*
X32163800Y-19330400D02*
X32202200Y-19368800D01*
X32202200Y-19368800D02*
X32202200Y-17336200D01*
%TO.N,Board_2-GND*%
X40793200Y-21223000D02*
X40793200Y-21045200D01*
X37198800Y-17284800D02*
X36729200Y-16815200D01*
X37198800Y-23100600D02*
X37198800Y-21260800D01*
X37198800Y-21223000D02*
X37198800Y-21260800D01*
X37198800Y-21260800D02*
X37198800Y-19280200D01*
X40793200Y-21045200D02*
X40006080Y-20258080D01*
X37198800Y-20181600D02*
X39967400Y-20181600D01*
X36714200Y-23585200D02*
X37198800Y-23100600D01*
X37198800Y-19191000D02*
X37198800Y-19280200D01*
X40006080Y-20142920D02*
X40780200Y-19368800D01*
X37198800Y-19280200D02*
X37198800Y-17284800D01*
X39967400Y-20181600D02*
X40006080Y-20142920D01*
X40006080Y-20258080D02*
X40006080Y-20142920D01*
X40780200Y-19191000D02*
X40780200Y-19368800D01*
%TO.N,Board_2-Net-(C1-Pad1)*%
X38748800Y-21223000D02*
X38926600Y-21223000D01*
X39254200Y-21550600D02*
X39254200Y-23585200D01*
X38926600Y-21223000D02*
X39254200Y-21550600D01*
%TO.N,Board_2-Net-(C2-Pad1)*%
X39269200Y-16815200D02*
X39269200Y-18823000D01*
X38983600Y-19108600D02*
X38748800Y-19343400D01*
X39269200Y-18823000D02*
X38983600Y-19108600D01*
X38901200Y-19191000D02*
X38983600Y-19108600D01*
X38748800Y-19191000D02*
X38901200Y-19191000D01*
%TO.N,Board_2-Net-(C3-Pad2)*%
X42343200Y-23036200D02*
X41794200Y-23585200D01*
X42343200Y-21019800D02*
X42343200Y-23036200D01*
%TO.N,Board_2-Net-(C4-Pad1)*%
X42330200Y-17336200D02*
X41809200Y-16815200D01*
X42291800Y-19330400D02*
X42330200Y-19368800D01*
X42330200Y-19368800D02*
X42330200Y-17336200D01*
%TO.N,Board_3-GND*%
X50921200Y-21223000D02*
X50921200Y-21045200D01*
X47326800Y-17284800D02*
X46857200Y-16815200D01*
X47326800Y-23100600D02*
X47326800Y-21260800D01*
X47326800Y-21223000D02*
X47326800Y-21260800D01*
X47326800Y-21260800D02*
X47326800Y-19280200D01*
X50921200Y-21045200D02*
X50134080Y-20258080D01*
X47326800Y-20181600D02*
X50095400Y-20181600D01*
X46842200Y-23585200D02*
X47326800Y-23100600D01*
X47326800Y-19191000D02*
X47326800Y-19280200D01*
X50134080Y-20142920D02*
X50908200Y-19368800D01*
X47326800Y-19280200D02*
X47326800Y-17284800D01*
X50095400Y-20181600D02*
X50134080Y-20142920D01*
X50134080Y-20258080D02*
X50134080Y-20142920D01*
X50908200Y-19191000D02*
X50908200Y-19368800D01*
%TO.N,Board_3-Net-(C1-Pad1)*%
X48876800Y-21223000D02*
X49054600Y-21223000D01*
X49382200Y-21550600D02*
X49382200Y-23585200D01*
X49054600Y-21223000D02*
X49382200Y-21550600D01*
%TO.N,Board_3-Net-(C2-Pad1)*%
X49397200Y-16815200D02*
X49397200Y-18823000D01*
X49111600Y-19108600D02*
X48876800Y-19343400D01*
X49397200Y-18823000D02*
X49111600Y-19108600D01*
X49029200Y-19191000D02*
X49111600Y-19108600D01*
X48876800Y-19191000D02*
X49029200Y-19191000D01*
%TO.N,Board_3-Net-(C3-Pad2)*%
X52471200Y-23036200D02*
X51922200Y-23585200D01*
X52471200Y-21019800D02*
X52471200Y-23036200D01*
%TO.N,Board_3-Net-(C4-Pad1)*%
X52458200Y-17336200D02*
X51937200Y-16815200D01*
X52419800Y-19330400D02*
X52458200Y-19368800D01*
X52458200Y-19368800D02*
X52458200Y-17336200D01*
%TO.N,Board_4-GND*%
X61049200Y-21223000D02*
X61049200Y-21045200D01*
X57454800Y-17284800D02*
X56985200Y-16815200D01*
X57454800Y-23100600D02*
X57454800Y-21260800D01*
X57454800Y-21223000D02*
X57454800Y-21260800D01*
X57454800Y-21260800D02*
X57454800Y-19280200D01*
X61049200Y-21045200D02*
X60262080Y-20258080D01*
X57454800Y-20181600D02*
X60223400Y-20181600D01*
X56970200Y-23585200D02*
X57454800Y-23100600D01*
X57454800Y-19191000D02*
X57454800Y-19280200D01*
X60262080Y-20142920D02*
X61036200Y-19368800D01*
X57454800Y-19280200D02*
X57454800Y-17284800D01*
X60223400Y-20181600D02*
X60262080Y-20142920D01*
X60262080Y-20258080D02*
X60262080Y-20142920D01*
X61036200Y-19191000D02*
X61036200Y-19368800D01*
%TO.N,Board_4-Net-(C1-Pad1)*%
X59004800Y-21223000D02*
X59182600Y-21223000D01*
X59510200Y-21550600D02*
X59510200Y-23585200D01*
X59182600Y-21223000D02*
X59510200Y-21550600D01*
%TO.N,Board_4-Net-(C2-Pad1)*%
X59525200Y-16815200D02*
X59525200Y-18823000D01*
X59239600Y-19108600D02*
X59004800Y-19343400D01*
X59525200Y-18823000D02*
X59239600Y-19108600D01*
X59157200Y-19191000D02*
X59239600Y-19108600D01*
X59004800Y-19191000D02*
X59157200Y-19191000D01*
%TO.N,Board_4-Net-(C3-Pad2)*%
X62599200Y-23036200D02*
X62050200Y-23585200D01*
X62599200Y-21019800D02*
X62599200Y-23036200D01*
%TO.N,Board_4-Net-(C4-Pad1)*%
X62586200Y-17336200D02*
X62065200Y-16815200D01*
X62547800Y-19330400D02*
X62586200Y-19368800D01*
X62586200Y-19368800D02*
X62586200Y-17336200D01*
%TO.N,Board_5-GND*%
X20537200Y-33637000D02*
X20537200Y-33459200D01*
X16942800Y-29698800D02*
X16473200Y-29229200D01*
X16942800Y-35514600D02*
X16942800Y-33674800D01*
X16942800Y-33637000D02*
X16942800Y-33674800D01*
X16942800Y-33674800D02*
X16942800Y-31694200D01*
X20537200Y-33459200D02*
X19750080Y-32672080D01*
X16942800Y-32595600D02*
X19711400Y-32595600D01*
X16458200Y-35999200D02*
X16942800Y-35514600D01*
X16942800Y-31605000D02*
X16942800Y-31694200D01*
X19750080Y-32556920D02*
X20524200Y-31782800D01*
X16942800Y-31694200D02*
X16942800Y-29698800D01*
X19711400Y-32595600D02*
X19750080Y-32556920D01*
X19750080Y-32672080D02*
X19750080Y-32556920D01*
X20524200Y-31605000D02*
X20524200Y-31782800D01*
%TO.N,Board_5-Net-(C1-Pad1)*%
X18492800Y-33637000D02*
X18670600Y-33637000D01*
X18998200Y-33964600D02*
X18998200Y-35999200D01*
X18670600Y-33637000D02*
X18998200Y-33964600D01*
%TO.N,Board_5-Net-(C2-Pad1)*%
X19013200Y-29229200D02*
X19013200Y-31237000D01*
X18727600Y-31522600D02*
X18492800Y-31757400D01*
X19013200Y-31237000D02*
X18727600Y-31522600D01*
X18645200Y-31605000D02*
X18727600Y-31522600D01*
X18492800Y-31605000D02*
X18645200Y-31605000D01*
%TO.N,Board_5-Net-(C3-Pad2)*%
X22087200Y-35450200D02*
X21538200Y-35999200D01*
X22087200Y-33433800D02*
X22087200Y-35450200D01*
%TO.N,Board_5-Net-(C4-Pad1)*%
X22074200Y-29750200D02*
X21553200Y-29229200D01*
X22035800Y-31744400D02*
X22074200Y-31782800D01*
X22074200Y-31782800D02*
X22074200Y-29750200D01*
%TO.N,Board_6-GND*%
X30665200Y-33637000D02*
X30665200Y-33459200D01*
X27070800Y-29698800D02*
X26601200Y-29229200D01*
X27070800Y-35514600D02*
X27070800Y-33674800D01*
X27070800Y-33637000D02*
X27070800Y-33674800D01*
X27070800Y-33674800D02*
X27070800Y-31694200D01*
X30665200Y-33459200D02*
X29878080Y-32672080D01*
X27070800Y-32595600D02*
X29839400Y-32595600D01*
X26586200Y-35999200D02*
X27070800Y-35514600D01*
X27070800Y-31605000D02*
X27070800Y-31694200D01*
X29878080Y-32556920D02*
X30652200Y-31782800D01*
X27070800Y-31694200D02*
X27070800Y-29698800D01*
X29839400Y-32595600D02*
X29878080Y-32556920D01*
X29878080Y-32672080D02*
X29878080Y-32556920D01*
X30652200Y-31605000D02*
X30652200Y-31782800D01*
%TO.N,Board_6-Net-(C1-Pad1)*%
X28620800Y-33637000D02*
X28798600Y-33637000D01*
X29126200Y-33964600D02*
X29126200Y-35999200D01*
X28798600Y-33637000D02*
X29126200Y-33964600D01*
%TO.N,Board_6-Net-(C2-Pad1)*%
X29141200Y-29229200D02*
X29141200Y-31237000D01*
X28855600Y-31522600D02*
X28620800Y-31757400D01*
X29141200Y-31237000D02*
X28855600Y-31522600D01*
X28773200Y-31605000D02*
X28855600Y-31522600D01*
X28620800Y-31605000D02*
X28773200Y-31605000D01*
%TO.N,Board_6-Net-(C3-Pad2)*%
X32215200Y-35450200D02*
X31666200Y-35999200D01*
X32215200Y-33433800D02*
X32215200Y-35450200D01*
%TO.N,Board_6-Net-(C4-Pad1)*%
X32202200Y-29750200D02*
X31681200Y-29229200D01*
X32163800Y-31744400D02*
X32202200Y-31782800D01*
X32202200Y-31782800D02*
X32202200Y-29750200D01*
%TO.N,Board_7-GND*%
X40793200Y-33637000D02*
X40793200Y-33459200D01*
X37198800Y-29698800D02*
X36729200Y-29229200D01*
X37198800Y-35514600D02*
X37198800Y-33674800D01*
X37198800Y-33637000D02*
X37198800Y-33674800D01*
X37198800Y-33674800D02*
X37198800Y-31694200D01*
X40793200Y-33459200D02*
X40006080Y-32672080D01*
X37198800Y-32595600D02*
X39967400Y-32595600D01*
X36714200Y-35999200D02*
X37198800Y-35514600D01*
X37198800Y-31605000D02*
X37198800Y-31694200D01*
X40006080Y-32556920D02*
X40780200Y-31782800D01*
X37198800Y-31694200D02*
X37198800Y-29698800D01*
X39967400Y-32595600D02*
X40006080Y-32556920D01*
X40006080Y-32672080D02*
X40006080Y-32556920D01*
X40780200Y-31605000D02*
X40780200Y-31782800D01*
%TO.N,Board_7-Net-(C1-Pad1)*%
X38748800Y-33637000D02*
X38926600Y-33637000D01*
X39254200Y-33964600D02*
X39254200Y-35999200D01*
X38926600Y-33637000D02*
X39254200Y-33964600D01*
%TO.N,Board_7-Net-(C2-Pad1)*%
X39269200Y-29229200D02*
X39269200Y-31237000D01*
X38983600Y-31522600D02*
X38748800Y-31757400D01*
X39269200Y-31237000D02*
X38983600Y-31522600D01*
X38901200Y-31605000D02*
X38983600Y-31522600D01*
X38748800Y-31605000D02*
X38901200Y-31605000D01*
%TO.N,Board_7-Net-(C3-Pad2)*%
X42343200Y-35450200D02*
X41794200Y-35999200D01*
X42343200Y-33433800D02*
X42343200Y-35450200D01*
%TO.N,Board_7-Net-(C4-Pad1)*%
X42330200Y-29750200D02*
X41809200Y-29229200D01*
X42291800Y-31744400D02*
X42330200Y-31782800D01*
X42330200Y-31782800D02*
X42330200Y-29750200D01*
%TO.N,Board_8-GND*%
X50921200Y-33637000D02*
X50921200Y-33459200D01*
X47326800Y-29698800D02*
X46857200Y-29229200D01*
X47326800Y-35514600D02*
X47326800Y-33674800D01*
X47326800Y-33637000D02*
X47326800Y-33674800D01*
X47326800Y-33674800D02*
X47326800Y-31694200D01*
X50921200Y-33459200D02*
X50134080Y-32672080D01*
X47326800Y-32595600D02*
X50095400Y-32595600D01*
X46842200Y-35999200D02*
X47326800Y-35514600D01*
X47326800Y-31605000D02*
X47326800Y-31694200D01*
X50134080Y-32556920D02*
X50908200Y-31782800D01*
X47326800Y-31694200D02*
X47326800Y-29698800D01*
X50095400Y-32595600D02*
X50134080Y-32556920D01*
X50134080Y-32672080D02*
X50134080Y-32556920D01*
X50908200Y-31605000D02*
X50908200Y-31782800D01*
%TO.N,Board_8-Net-(C1-Pad1)*%
X48876800Y-33637000D02*
X49054600Y-33637000D01*
X49382200Y-33964600D02*
X49382200Y-35999200D01*
X49054600Y-33637000D02*
X49382200Y-33964600D01*
%TO.N,Board_8-Net-(C2-Pad1)*%
X49397200Y-29229200D02*
X49397200Y-31237000D01*
X49111600Y-31522600D02*
X48876800Y-31757400D01*
X49397200Y-31237000D02*
X49111600Y-31522600D01*
X49029200Y-31605000D02*
X49111600Y-31522600D01*
X48876800Y-31605000D02*
X49029200Y-31605000D01*
%TO.N,Board_8-Net-(C3-Pad2)*%
X52471200Y-35450200D02*
X51922200Y-35999200D01*
X52471200Y-33433800D02*
X52471200Y-35450200D01*
%TO.N,Board_8-Net-(C4-Pad1)*%
X52458200Y-29750200D02*
X51937200Y-29229200D01*
X52419800Y-31744400D02*
X52458200Y-31782800D01*
X52458200Y-31782800D02*
X52458200Y-29750200D01*
%TO.N,Board_9-GND*%
X61049200Y-33637000D02*
X61049200Y-33459200D01*
X57454800Y-29698800D02*
X56985200Y-29229200D01*
X57454800Y-35514600D02*
X57454800Y-33674800D01*
X57454800Y-33637000D02*
X57454800Y-33674800D01*
X57454800Y-33674800D02*
X57454800Y-31694200D01*
X61049200Y-33459200D02*
X60262080Y-32672080D01*
X57454800Y-32595600D02*
X60223400Y-32595600D01*
X56970200Y-35999200D02*
X57454800Y-35514600D01*
X57454800Y-31605000D02*
X57454800Y-31694200D01*
X60262080Y-32556920D02*
X61036200Y-31782800D01*
X57454800Y-31694200D02*
X57454800Y-29698800D01*
X60223400Y-32595600D02*
X60262080Y-32556920D01*
X60262080Y-32672080D02*
X60262080Y-32556920D01*
X61036200Y-31605000D02*
X61036200Y-31782800D01*
%TO.N,Board_9-Net-(C1-Pad1)*%
X59004800Y-33637000D02*
X59182600Y-33637000D01*
X59510200Y-33964600D02*
X59510200Y-35999200D01*
X59182600Y-33637000D02*
X59510200Y-33964600D01*
%TO.N,Board_9-Net-(C2-Pad1)*%
X59525200Y-29229200D02*
X59525200Y-31237000D01*
X59239600Y-31522600D02*
X59004800Y-31757400D01*
X59525200Y-31237000D02*
X59239600Y-31522600D01*
X59157200Y-31605000D02*
X59239600Y-31522600D01*
X59004800Y-31605000D02*
X59157200Y-31605000D01*
%TO.N,Board_9-Net-(C3-Pad2)*%
X62599200Y-35450200D02*
X62050200Y-35999200D01*
X62599200Y-33433800D02*
X62599200Y-35450200D01*
%TO.N,Board_9-Net-(C4-Pad1)*%
X62586200Y-29750200D02*
X62065200Y-29229200D01*
X62547800Y-31744400D02*
X62586200Y-31782800D01*
X62586200Y-31782800D02*
X62586200Y-29750200D01*
%TD*%
M02*
