%TF.GenerationSoftware,KiCad,Pcbnew,(6.0.5-0)*%
%TF.CreationDate,2022-12-26T11:12:43+01:00*%
%TF.ProjectId,panel,70616e65-6c2e-46b6-9963-61645f706362,rev?*%
%TF.SameCoordinates,Original*%
%TF.FileFunction,Copper,L2,Bot*%
%TF.FilePolarity,Positive*%
%FSLAX46Y46*%
G04 Gerber Fmt 4.6, Leading zero omitted, Abs format (unit mm)*
G04 Created by KiCad (PCBNEW (6.0.5-0)) date 2022-12-26 11:12:43*
%MOMM*%
%LPD*%
G01*
G04 APERTURE LIST*
G04 Aperture macros list*
%AMRoundRect*
0 Rectangle with rounded corners*
0 $1 Rounding radius*
0 $2 $3 $4 $5 $6 $7 $8 $9 X,Y pos of 4 corners*
0 Add a 4 corners polygon primitive as box body*
4,1,4,$2,$3,$4,$5,$6,$7,$8,$9,$2,$3,0*
0 Add four circle primitives for the rounded corners*
1,1,$1+$1,$2,$3*
1,1,$1+$1,$4,$5*
1,1,$1+$1,$6,$7*
1,1,$1+$1,$8,$9*
0 Add four rect primitives between the rounded corners*
20,1,$1+$1,$2,$3,$4,$5,0*
20,1,$1+$1,$4,$5,$6,$7,0*
20,1,$1+$1,$6,$7,$8,$9,0*
20,1,$1+$1,$8,$9,$2,$3,0*%
G04 Aperture macros list end*
%TA.AperFunction,ComponentPad*%
%ADD10R,1.700000X1.700000*%
%TD*%
%TA.AperFunction,ComponentPad*%
%ADD11O,1.700000X1.700000*%
%TD*%
%TA.AperFunction,SMDPad,CuDef*%
%ADD12RoundRect,0.225000X0.225000X0.250000X-0.225000X0.250000X-0.225000X-0.250000X0.225000X-0.250000X0*%
%TD*%
%TA.AperFunction,SMDPad,CuDef*%
%ADD13RoundRect,0.225000X-0.225000X-0.250000X0.225000X-0.250000X0.225000X0.250000X-0.225000X0.250000X0*%
%TD*%
%TA.AperFunction,Conductor*%
%ADD14C,0.250000*%
%TD*%
G04 APERTURE END LIST*
D10*
%TO.P,J1,1,Pin_1*%
%TO.N,Board_29-Net-(C3-Pad2)*%
X32666200Y-77241200D03*
D11*
%TO.P,J1,2,Pin_2*%
%TO.N,Board_29-Net-(C1-Pad1)*%
X30126200Y-77241200D03*
%TO.P,J1,3,Pin_3*%
%TO.N,Board_29-GND*%
X27586200Y-77241200D03*
%TD*%
D10*
%TO.P,J2,1,Pin_1*%
%TO.N,Board_21-Net-(C4-Pad1)*%
X21553200Y-57057200D03*
D11*
%TO.P,J2,2,Pin_2*%
%TO.N,Board_21-Net-(C2-Pad1)*%
X19013200Y-57057200D03*
%TO.P,J2,3,Pin_3*%
%TO.N,Board_21-GND*%
X16473200Y-57057200D03*
%TD*%
D10*
%TO.P,J2,1,Pin_1*%
%TO.N,Board_13-Net-(C4-Pad1)*%
X88321200Y-30229200D03*
D11*
%TO.P,J2,2,Pin_2*%
%TO.N,Board_13-Net-(C2-Pad1)*%
X85781200Y-30229200D03*
%TO.P,J2,3,Pin_3*%
%TO.N,Board_13-GND*%
X83241200Y-30229200D03*
%TD*%
D10*
%TO.P,J2,1,Pin_1*%
%TO.N,Board_6-Net-(C4-Pad1)*%
X88321200Y-16815200D03*
D11*
%TO.P,J2,2,Pin_2*%
%TO.N,Board_6-Net-(C2-Pad1)*%
X85781200Y-16815200D03*
%TO.P,J2,3,Pin_3*%
%TO.N,Board_6-GND*%
X83241200Y-16815200D03*
%TD*%
D10*
%TO.P,J2,1,Pin_1*%
%TO.N,Board_4-Net-(C4-Pad1)*%
X66065200Y-16815200D03*
D11*
%TO.P,J2,2,Pin_2*%
%TO.N,Board_4-Net-(C2-Pad1)*%
X63525200Y-16815200D03*
%TO.P,J2,3,Pin_3*%
%TO.N,Board_4-GND*%
X60985200Y-16815200D03*
%TD*%
D10*
%TO.P,J1,1,Pin_1*%
%TO.N,Board_28-Net-(C3-Pad2)*%
X21538200Y-77241200D03*
D11*
%TO.P,J1,2,Pin_2*%
%TO.N,Board_28-Net-(C1-Pad1)*%
X18998200Y-77241200D03*
%TO.P,J1,3,Pin_3*%
%TO.N,Board_28-GND*%
X16458200Y-77241200D03*
%TD*%
D10*
%TO.P,J2,1,Pin_1*%
%TO.N,Board_0-Net-(C4-Pad1)*%
X21553200Y-16815200D03*
D11*
%TO.P,J2,2,Pin_2*%
%TO.N,Board_0-Net-(C2-Pad1)*%
X19013200Y-16815200D03*
%TO.P,J2,3,Pin_3*%
%TO.N,Board_0-GND*%
X16473200Y-16815200D03*
%TD*%
D10*
%TO.P,J1,1,Pin_1*%
%TO.N,Board_24-Net-(C3-Pad2)*%
X54922200Y-63827200D03*
D11*
%TO.P,J1,2,Pin_2*%
%TO.N,Board_24-Net-(C1-Pad1)*%
X52382200Y-63827200D03*
%TO.P,J1,3,Pin_3*%
%TO.N,Board_24-GND*%
X49842200Y-63827200D03*
%TD*%
D10*
%TO.P,J2,1,Pin_1*%
%TO.N,Board_9-Net-(C4-Pad1)*%
X43809200Y-30229200D03*
D11*
%TO.P,J2,2,Pin_2*%
%TO.N,Board_9-Net-(C2-Pad1)*%
X41269200Y-30229200D03*
%TO.P,J2,3,Pin_3*%
%TO.N,Board_9-GND*%
X38729200Y-30229200D03*
%TD*%
D10*
%TO.P,J2,1,Pin_1*%
%TO.N,Board_35-Net-(C4-Pad1)*%
X21553200Y-83885200D03*
D11*
%TO.P,J2,2,Pin_2*%
%TO.N,Board_35-Net-(C2-Pad1)*%
X19013200Y-83885200D03*
%TO.P,J2,3,Pin_3*%
%TO.N,Board_35-GND*%
X16473200Y-83885200D03*
%TD*%
D10*
%TO.P,J1,1,Pin_1*%
%TO.N,Board_32-Net-(C3-Pad2)*%
X66050200Y-77241200D03*
D11*
%TO.P,J1,2,Pin_2*%
%TO.N,Board_32-Net-(C1-Pad1)*%
X63510200Y-77241200D03*
%TO.P,J1,3,Pin_3*%
%TO.N,Board_32-GND*%
X60970200Y-77241200D03*
%TD*%
D10*
%TO.P,J2,1,Pin_1*%
%TO.N,Board_2-Net-(C4-Pad1)*%
X43809200Y-16815200D03*
D11*
%TO.P,J2,2,Pin_2*%
%TO.N,Board_2-Net-(C2-Pad1)*%
X41269200Y-16815200D03*
%TO.P,J2,3,Pin_3*%
%TO.N,Board_2-GND*%
X38729200Y-16815200D03*
%TD*%
D10*
%TO.P,J2,1,Pin_1*%
%TO.N,Board_3-Net-(C4-Pad1)*%
X54937200Y-16815200D03*
D11*
%TO.P,J2,2,Pin_2*%
%TO.N,Board_3-Net-(C2-Pad1)*%
X52397200Y-16815200D03*
%TO.P,J2,3,Pin_3*%
%TO.N,Board_3-GND*%
X49857200Y-16815200D03*
%TD*%
D10*
%TO.P,J2,1,Pin_1*%
%TO.N,Board_29-Net-(C4-Pad1)*%
X32681200Y-70471200D03*
D11*
%TO.P,J2,2,Pin_2*%
%TO.N,Board_29-Net-(C2-Pad1)*%
X30141200Y-70471200D03*
%TO.P,J2,3,Pin_3*%
%TO.N,Board_29-GND*%
X27601200Y-70471200D03*
%TD*%
D10*
%TO.P,J1,1,Pin_1*%
%TO.N,Board_12-Net-(C3-Pad2)*%
X77178200Y-36999200D03*
D11*
%TO.P,J1,2,Pin_2*%
%TO.N,Board_12-Net-(C1-Pad1)*%
X74638200Y-36999200D03*
%TO.P,J1,3,Pin_3*%
%TO.N,Board_12-GND*%
X72098200Y-36999200D03*
%TD*%
D10*
%TO.P,J1,1,Pin_1*%
%TO.N,Board_8-Net-(C3-Pad2)*%
X32666200Y-36999200D03*
D11*
%TO.P,J1,2,Pin_2*%
%TO.N,Board_8-Net-(C1-Pad1)*%
X30126200Y-36999200D03*
%TO.P,J1,3,Pin_3*%
%TO.N,Board_8-GND*%
X27586200Y-36999200D03*
%TD*%
D10*
%TO.P,J2,1,Pin_1*%
%TO.N,Board_5-Net-(C4-Pad1)*%
X77193200Y-16815200D03*
D11*
%TO.P,J2,2,Pin_2*%
%TO.N,Board_5-Net-(C2-Pad1)*%
X74653200Y-16815200D03*
%TO.P,J2,3,Pin_3*%
%TO.N,Board_5-GND*%
X72113200Y-16815200D03*
%TD*%
D10*
%TO.P,J1,1,Pin_1*%
%TO.N,Board_3-Net-(C3-Pad2)*%
X54922200Y-23585200D03*
D11*
%TO.P,J1,2,Pin_2*%
%TO.N,Board_3-Net-(C1-Pad1)*%
X52382200Y-23585200D03*
%TO.P,J1,3,Pin_3*%
%TO.N,Board_3-GND*%
X49842200Y-23585200D03*
%TD*%
D10*
%TO.P,J2,1,Pin_1*%
%TO.N,Board_7-Net-(C4-Pad1)*%
X21553200Y-30229200D03*
D11*
%TO.P,J2,2,Pin_2*%
%TO.N,Board_7-Net-(C2-Pad1)*%
X19013200Y-30229200D03*
%TO.P,J2,3,Pin_3*%
%TO.N,Board_7-GND*%
X16473200Y-30229200D03*
%TD*%
D10*
%TO.P,J1,1,Pin_1*%
%TO.N,Board_10-Net-(C3-Pad2)*%
X54922200Y-36999200D03*
D11*
%TO.P,J1,2,Pin_2*%
%TO.N,Board_10-Net-(C1-Pad1)*%
X52382200Y-36999200D03*
%TO.P,J1,3,Pin_3*%
%TO.N,Board_10-GND*%
X49842200Y-36999200D03*
%TD*%
D10*
%TO.P,J2,1,Pin_1*%
%TO.N,Board_22-Net-(C4-Pad1)*%
X32681200Y-57057200D03*
D11*
%TO.P,J2,2,Pin_2*%
%TO.N,Board_22-Net-(C2-Pad1)*%
X30141200Y-57057200D03*
%TO.P,J2,3,Pin_3*%
%TO.N,Board_22-GND*%
X27601200Y-57057200D03*
%TD*%
D10*
%TO.P,J1,1,Pin_1*%
%TO.N,Board_35-Net-(C3-Pad2)*%
X21538200Y-90655200D03*
D11*
%TO.P,J1,2,Pin_2*%
%TO.N,Board_35-Net-(C1-Pad1)*%
X18998200Y-90655200D03*
%TO.P,J1,3,Pin_3*%
%TO.N,Board_35-GND*%
X16458200Y-90655200D03*
%TD*%
D10*
%TO.P,J2,1,Pin_1*%
%TO.N,Board_1-Net-(C4-Pad1)*%
X32681200Y-16815200D03*
D11*
%TO.P,J2,2,Pin_2*%
%TO.N,Board_1-Net-(C2-Pad1)*%
X30141200Y-16815200D03*
%TO.P,J2,3,Pin_3*%
%TO.N,Board_1-GND*%
X27601200Y-16815200D03*
%TD*%
D10*
%TO.P,J2,1,Pin_1*%
%TO.N,Board_20-Net-(C4-Pad1)*%
X88321200Y-43643200D03*
D11*
%TO.P,J2,2,Pin_2*%
%TO.N,Board_20-Net-(C2-Pad1)*%
X85781200Y-43643200D03*
%TO.P,J2,3,Pin_3*%
%TO.N,Board_20-GND*%
X83241200Y-43643200D03*
%TD*%
D10*
%TO.P,J1,1,Pin_1*%
%TO.N,Board_30-Net-(C3-Pad2)*%
X43794200Y-77241200D03*
D11*
%TO.P,J1,2,Pin_2*%
%TO.N,Board_30-Net-(C1-Pad1)*%
X41254200Y-77241200D03*
%TO.P,J1,3,Pin_3*%
%TO.N,Board_30-GND*%
X38714200Y-77241200D03*
%TD*%
D10*
%TO.P,J1,1,Pin_1*%
%TO.N,Board_11-Net-(C3-Pad2)*%
X66050200Y-36999200D03*
D11*
%TO.P,J1,2,Pin_2*%
%TO.N,Board_11-Net-(C1-Pad1)*%
X63510200Y-36999200D03*
%TO.P,J1,3,Pin_3*%
%TO.N,Board_11-GND*%
X60970200Y-36999200D03*
%TD*%
D10*
%TO.P,J1,1,Pin_1*%
%TO.N,Board_15-Net-(C3-Pad2)*%
X32666200Y-50413200D03*
D11*
%TO.P,J1,2,Pin_2*%
%TO.N,Board_15-Net-(C1-Pad1)*%
X30126200Y-50413200D03*
%TO.P,J1,3,Pin_3*%
%TO.N,Board_15-GND*%
X27586200Y-50413200D03*
%TD*%
D10*
%TO.P,J1,1,Pin_1*%
%TO.N,Board_6-Net-(C3-Pad2)*%
X88306200Y-23585200D03*
D11*
%TO.P,J1,2,Pin_2*%
%TO.N,Board_6-Net-(C1-Pad1)*%
X85766200Y-23585200D03*
%TO.P,J1,3,Pin_3*%
%TO.N,Board_6-GND*%
X83226200Y-23585200D03*
%TD*%
D10*
%TO.P,J2,1,Pin_1*%
%TO.N,Board_15-Net-(C4-Pad1)*%
X32681200Y-43643200D03*
D11*
%TO.P,J2,2,Pin_2*%
%TO.N,Board_15-Net-(C2-Pad1)*%
X30141200Y-43643200D03*
%TO.P,J2,3,Pin_3*%
%TO.N,Board_15-GND*%
X27601200Y-43643200D03*
%TD*%
D10*
%TO.P,J1,1,Pin_1*%
%TO.N,Board_17-Net-(C3-Pad2)*%
X54922200Y-50413200D03*
D11*
%TO.P,J1,2,Pin_2*%
%TO.N,Board_17-Net-(C1-Pad1)*%
X52382200Y-50413200D03*
%TO.P,J1,3,Pin_3*%
%TO.N,Board_17-GND*%
X49842200Y-50413200D03*
%TD*%
D10*
%TO.P,J2,1,Pin_1*%
%TO.N,Board_18-Net-(C4-Pad1)*%
X66065200Y-43643200D03*
D11*
%TO.P,J2,2,Pin_2*%
%TO.N,Board_18-Net-(C2-Pad1)*%
X63525200Y-43643200D03*
%TO.P,J2,3,Pin_3*%
%TO.N,Board_18-GND*%
X60985200Y-43643200D03*
%TD*%
D10*
%TO.P,J1,1,Pin_1*%
%TO.N,Board_5-Net-(C3-Pad2)*%
X77178200Y-23585200D03*
D11*
%TO.P,J1,2,Pin_2*%
%TO.N,Board_5-Net-(C1-Pad1)*%
X74638200Y-23585200D03*
%TO.P,J1,3,Pin_3*%
%TO.N,Board_5-GND*%
X72098200Y-23585200D03*
%TD*%
D10*
%TO.P,J2,1,Pin_1*%
%TO.N,Board_37-Net-(C4-Pad1)*%
X43809200Y-83885200D03*
D11*
%TO.P,J2,2,Pin_2*%
%TO.N,Board_37-Net-(C2-Pad1)*%
X41269200Y-83885200D03*
%TO.P,J2,3,Pin_3*%
%TO.N,Board_37-GND*%
X38729200Y-83885200D03*
%TD*%
D10*
%TO.P,J1,1,Pin_1*%
%TO.N,Board_13-Net-(C3-Pad2)*%
X88306200Y-36999200D03*
D11*
%TO.P,J1,2,Pin_2*%
%TO.N,Board_13-Net-(C1-Pad1)*%
X85766200Y-36999200D03*
%TO.P,J1,3,Pin_3*%
%TO.N,Board_13-GND*%
X83226200Y-36999200D03*
%TD*%
D10*
%TO.P,J1,1,Pin_1*%
%TO.N,Board_16-Net-(C3-Pad2)*%
X43794200Y-50413200D03*
D11*
%TO.P,J1,2,Pin_2*%
%TO.N,Board_16-Net-(C1-Pad1)*%
X41254200Y-50413200D03*
%TO.P,J1,3,Pin_3*%
%TO.N,Board_16-GND*%
X38714200Y-50413200D03*
%TD*%
D10*
%TO.P,J2,1,Pin_1*%
%TO.N,Board_8-Net-(C4-Pad1)*%
X32681200Y-30229200D03*
D11*
%TO.P,J2,2,Pin_2*%
%TO.N,Board_8-Net-(C2-Pad1)*%
X30141200Y-30229200D03*
%TO.P,J2,3,Pin_3*%
%TO.N,Board_8-GND*%
X27601200Y-30229200D03*
%TD*%
D10*
%TO.P,J2,1,Pin_1*%
%TO.N,Board_27-Net-(C4-Pad1)*%
X88321200Y-57057200D03*
D11*
%TO.P,J2,2,Pin_2*%
%TO.N,Board_27-Net-(C2-Pad1)*%
X85781200Y-57057200D03*
%TO.P,J2,3,Pin_3*%
%TO.N,Board_27-GND*%
X83241200Y-57057200D03*
%TD*%
D10*
%TO.P,J2,1,Pin_1*%
%TO.N,Board_40-Net-(C4-Pad1)*%
X77193200Y-83885200D03*
D11*
%TO.P,J2,2,Pin_2*%
%TO.N,Board_40-Net-(C2-Pad1)*%
X74653200Y-83885200D03*
%TO.P,J2,3,Pin_3*%
%TO.N,Board_40-GND*%
X72113200Y-83885200D03*
%TD*%
D10*
%TO.P,J1,1,Pin_1*%
%TO.N,Board_39-Net-(C3-Pad2)*%
X66050200Y-90655200D03*
D11*
%TO.P,J1,2,Pin_2*%
%TO.N,Board_39-Net-(C1-Pad1)*%
X63510200Y-90655200D03*
%TO.P,J1,3,Pin_3*%
%TO.N,Board_39-GND*%
X60970200Y-90655200D03*
%TD*%
D10*
%TO.P,J1,1,Pin_1*%
%TO.N,Board_4-Net-(C3-Pad2)*%
X66050200Y-23585200D03*
D11*
%TO.P,J1,2,Pin_2*%
%TO.N,Board_4-Net-(C1-Pad1)*%
X63510200Y-23585200D03*
%TO.P,J1,3,Pin_3*%
%TO.N,Board_4-GND*%
X60970200Y-23585200D03*
%TD*%
D10*
%TO.P,J2,1,Pin_1*%
%TO.N,Board_17-Net-(C4-Pad1)*%
X54937200Y-43643200D03*
D11*
%TO.P,J2,2,Pin_2*%
%TO.N,Board_17-Net-(C2-Pad1)*%
X52397200Y-43643200D03*
%TO.P,J2,3,Pin_3*%
%TO.N,Board_17-GND*%
X49857200Y-43643200D03*
%TD*%
D10*
%TO.P,J2,1,Pin_1*%
%TO.N,Board_14-Net-(C4-Pad1)*%
X21553200Y-43643200D03*
D11*
%TO.P,J2,2,Pin_2*%
%TO.N,Board_14-Net-(C2-Pad1)*%
X19013200Y-43643200D03*
%TO.P,J2,3,Pin_3*%
%TO.N,Board_14-GND*%
X16473200Y-43643200D03*
%TD*%
D10*
%TO.P,J2,1,Pin_1*%
%TO.N,Board_32-Net-(C4-Pad1)*%
X66065200Y-70471200D03*
D11*
%TO.P,J2,2,Pin_2*%
%TO.N,Board_32-Net-(C2-Pad1)*%
X63525200Y-70471200D03*
%TO.P,J2,3,Pin_3*%
%TO.N,Board_32-GND*%
X60985200Y-70471200D03*
%TD*%
D10*
%TO.P,J1,1,Pin_1*%
%TO.N,Board_25-Net-(C3-Pad2)*%
X66050200Y-63827200D03*
D11*
%TO.P,J1,2,Pin_2*%
%TO.N,Board_25-Net-(C1-Pad1)*%
X63510200Y-63827200D03*
%TO.P,J1,3,Pin_3*%
%TO.N,Board_25-GND*%
X60970200Y-63827200D03*
%TD*%
D10*
%TO.P,J2,1,Pin_1*%
%TO.N,Board_26-Net-(C4-Pad1)*%
X77193200Y-57057200D03*
D11*
%TO.P,J2,2,Pin_2*%
%TO.N,Board_26-Net-(C2-Pad1)*%
X74653200Y-57057200D03*
%TO.P,J2,3,Pin_3*%
%TO.N,Board_26-GND*%
X72113200Y-57057200D03*
%TD*%
D10*
%TO.P,J1,1,Pin_1*%
%TO.N,Board_33-Net-(C3-Pad2)*%
X77178200Y-77241200D03*
D11*
%TO.P,J1,2,Pin_2*%
%TO.N,Board_33-Net-(C1-Pad1)*%
X74638200Y-77241200D03*
%TO.P,J1,3,Pin_3*%
%TO.N,Board_33-GND*%
X72098200Y-77241200D03*
%TD*%
D10*
%TO.P,J1,1,Pin_1*%
%TO.N,Board_27-Net-(C3-Pad2)*%
X88306200Y-63827200D03*
D11*
%TO.P,J1,2,Pin_2*%
%TO.N,Board_27-Net-(C1-Pad1)*%
X85766200Y-63827200D03*
%TO.P,J1,3,Pin_3*%
%TO.N,Board_27-GND*%
X83226200Y-63827200D03*
%TD*%
D10*
%TO.P,J1,1,Pin_1*%
%TO.N,Board_18-Net-(C3-Pad2)*%
X66050200Y-50413200D03*
D11*
%TO.P,J1,2,Pin_2*%
%TO.N,Board_18-Net-(C1-Pad1)*%
X63510200Y-50413200D03*
%TO.P,J1,3,Pin_3*%
%TO.N,Board_18-GND*%
X60970200Y-50413200D03*
%TD*%
D10*
%TO.P,J2,1,Pin_1*%
%TO.N,Board_33-Net-(C4-Pad1)*%
X77193200Y-70471200D03*
D11*
%TO.P,J2,2,Pin_2*%
%TO.N,Board_33-Net-(C2-Pad1)*%
X74653200Y-70471200D03*
%TO.P,J2,3,Pin_3*%
%TO.N,Board_33-GND*%
X72113200Y-70471200D03*
%TD*%
D10*
%TO.P,J1,1,Pin_1*%
%TO.N,Board_26-Net-(C3-Pad2)*%
X77178200Y-63827200D03*
D11*
%TO.P,J1,2,Pin_2*%
%TO.N,Board_26-Net-(C1-Pad1)*%
X74638200Y-63827200D03*
%TO.P,J1,3,Pin_3*%
%TO.N,Board_26-GND*%
X72098200Y-63827200D03*
%TD*%
D10*
%TO.P,J1,1,Pin_1*%
%TO.N,Board_19-Net-(C3-Pad2)*%
X77178200Y-50413200D03*
D11*
%TO.P,J1,2,Pin_2*%
%TO.N,Board_19-Net-(C1-Pad1)*%
X74638200Y-50413200D03*
%TO.P,J1,3,Pin_3*%
%TO.N,Board_19-GND*%
X72098200Y-50413200D03*
%TD*%
D10*
%TO.P,J2,1,Pin_1*%
%TO.N,Board_16-Net-(C4-Pad1)*%
X43809200Y-43643200D03*
D11*
%TO.P,J2,2,Pin_2*%
%TO.N,Board_16-Net-(C2-Pad1)*%
X41269200Y-43643200D03*
%TO.P,J2,3,Pin_3*%
%TO.N,Board_16-GND*%
X38729200Y-43643200D03*
%TD*%
D10*
%TO.P,J1,1,Pin_1*%
%TO.N,Board_0-Net-(C3-Pad2)*%
X21538200Y-23585200D03*
D11*
%TO.P,J1,2,Pin_2*%
%TO.N,Board_0-Net-(C1-Pad1)*%
X18998200Y-23585200D03*
%TO.P,J1,3,Pin_3*%
%TO.N,Board_0-GND*%
X16458200Y-23585200D03*
%TD*%
D10*
%TO.P,J2,1,Pin_1*%
%TO.N,Board_28-Net-(C4-Pad1)*%
X21553200Y-70471200D03*
D11*
%TO.P,J2,2,Pin_2*%
%TO.N,Board_28-Net-(C2-Pad1)*%
X19013200Y-70471200D03*
%TO.P,J2,3,Pin_3*%
%TO.N,Board_28-GND*%
X16473200Y-70471200D03*
%TD*%
D10*
%TO.P,J2,1,Pin_1*%
%TO.N,Board_38-Net-(C4-Pad1)*%
X54937200Y-83885200D03*
D11*
%TO.P,J2,2,Pin_2*%
%TO.N,Board_38-Net-(C2-Pad1)*%
X52397200Y-83885200D03*
%TO.P,J2,3,Pin_3*%
%TO.N,Board_38-GND*%
X49857200Y-83885200D03*
%TD*%
D10*
%TO.P,J2,1,Pin_1*%
%TO.N,Board_12-Net-(C4-Pad1)*%
X77193200Y-30229200D03*
D11*
%TO.P,J2,2,Pin_2*%
%TO.N,Board_12-Net-(C2-Pad1)*%
X74653200Y-30229200D03*
%TO.P,J2,3,Pin_3*%
%TO.N,Board_12-GND*%
X72113200Y-30229200D03*
%TD*%
D10*
%TO.P,J1,1,Pin_1*%
%TO.N,Board_40-Net-(C3-Pad2)*%
X77178200Y-90655200D03*
D11*
%TO.P,J1,2,Pin_2*%
%TO.N,Board_40-Net-(C1-Pad1)*%
X74638200Y-90655200D03*
%TO.P,J1,3,Pin_3*%
%TO.N,Board_40-GND*%
X72098200Y-90655200D03*
%TD*%
D10*
%TO.P,J2,1,Pin_1*%
%TO.N,Board_31-Net-(C4-Pad1)*%
X54937200Y-70471200D03*
D11*
%TO.P,J2,2,Pin_2*%
%TO.N,Board_31-Net-(C2-Pad1)*%
X52397200Y-70471200D03*
%TO.P,J2,3,Pin_3*%
%TO.N,Board_31-GND*%
X49857200Y-70471200D03*
%TD*%
D10*
%TO.P,J2,1,Pin_1*%
%TO.N,Board_34-Net-(C4-Pad1)*%
X88321200Y-70471200D03*
D11*
%TO.P,J2,2,Pin_2*%
%TO.N,Board_34-Net-(C2-Pad1)*%
X85781200Y-70471200D03*
%TO.P,J2,3,Pin_3*%
%TO.N,Board_34-GND*%
X83241200Y-70471200D03*
%TD*%
D10*
%TO.P,J2,1,Pin_1*%
%TO.N,Board_23-Net-(C4-Pad1)*%
X43809200Y-57057200D03*
D11*
%TO.P,J2,2,Pin_2*%
%TO.N,Board_23-Net-(C2-Pad1)*%
X41269200Y-57057200D03*
%TO.P,J2,3,Pin_3*%
%TO.N,Board_23-GND*%
X38729200Y-57057200D03*
%TD*%
D10*
%TO.P,J1,1,Pin_1*%
%TO.N,Board_41-Net-(C3-Pad2)*%
X88306200Y-90655200D03*
D11*
%TO.P,J1,2,Pin_2*%
%TO.N,Board_41-Net-(C1-Pad1)*%
X85766200Y-90655200D03*
%TO.P,J1,3,Pin_3*%
%TO.N,Board_41-GND*%
X83226200Y-90655200D03*
%TD*%
D10*
%TO.P,J1,1,Pin_1*%
%TO.N,Board_31-Net-(C3-Pad2)*%
X54922200Y-77241200D03*
D11*
%TO.P,J1,2,Pin_2*%
%TO.N,Board_31-Net-(C1-Pad1)*%
X52382200Y-77241200D03*
%TO.P,J1,3,Pin_3*%
%TO.N,Board_31-GND*%
X49842200Y-77241200D03*
%TD*%
D10*
%TO.P,J1,1,Pin_1*%
%TO.N,Board_7-Net-(C3-Pad2)*%
X21538200Y-36999200D03*
D11*
%TO.P,J1,2,Pin_2*%
%TO.N,Board_7-Net-(C1-Pad1)*%
X18998200Y-36999200D03*
%TO.P,J1,3,Pin_3*%
%TO.N,Board_7-GND*%
X16458200Y-36999200D03*
%TD*%
D10*
%TO.P,J1,1,Pin_1*%
%TO.N,Board_21-Net-(C3-Pad2)*%
X21538200Y-63827200D03*
D11*
%TO.P,J1,2,Pin_2*%
%TO.N,Board_21-Net-(C1-Pad1)*%
X18998200Y-63827200D03*
%TO.P,J1,3,Pin_3*%
%TO.N,Board_21-GND*%
X16458200Y-63827200D03*
%TD*%
D10*
%TO.P,J1,1,Pin_1*%
%TO.N,Board_14-Net-(C3-Pad2)*%
X21538200Y-50413200D03*
D11*
%TO.P,J1,2,Pin_2*%
%TO.N,Board_14-Net-(C1-Pad1)*%
X18998200Y-50413200D03*
%TO.P,J1,3,Pin_3*%
%TO.N,Board_14-GND*%
X16458200Y-50413200D03*
%TD*%
D10*
%TO.P,J1,1,Pin_1*%
%TO.N,Board_37-Net-(C3-Pad2)*%
X43794200Y-90655200D03*
D11*
%TO.P,J1,2,Pin_2*%
%TO.N,Board_37-Net-(C1-Pad1)*%
X41254200Y-90655200D03*
%TO.P,J1,3,Pin_3*%
%TO.N,Board_37-GND*%
X38714200Y-90655200D03*
%TD*%
D10*
%TO.P,J2,1,Pin_1*%
%TO.N,Board_30-Net-(C4-Pad1)*%
X43809200Y-70471200D03*
D11*
%TO.P,J2,2,Pin_2*%
%TO.N,Board_30-Net-(C2-Pad1)*%
X41269200Y-70471200D03*
%TO.P,J2,3,Pin_3*%
%TO.N,Board_30-GND*%
X38729200Y-70471200D03*
%TD*%
D10*
%TO.P,J1,1,Pin_1*%
%TO.N,Board_38-Net-(C3-Pad2)*%
X54922200Y-90655200D03*
D11*
%TO.P,J1,2,Pin_2*%
%TO.N,Board_38-Net-(C1-Pad1)*%
X52382200Y-90655200D03*
%TO.P,J1,3,Pin_3*%
%TO.N,Board_38-GND*%
X49842200Y-90655200D03*
%TD*%
D10*
%TO.P,J1,1,Pin_1*%
%TO.N,Board_20-Net-(C3-Pad2)*%
X88306200Y-50413200D03*
D11*
%TO.P,J1,2,Pin_2*%
%TO.N,Board_20-Net-(C1-Pad1)*%
X85766200Y-50413200D03*
%TO.P,J1,3,Pin_3*%
%TO.N,Board_20-GND*%
X83226200Y-50413200D03*
%TD*%
D10*
%TO.P,J2,1,Pin_1*%
%TO.N,Board_24-Net-(C4-Pad1)*%
X54937200Y-57057200D03*
D11*
%TO.P,J2,2,Pin_2*%
%TO.N,Board_24-Net-(C2-Pad1)*%
X52397200Y-57057200D03*
%TO.P,J2,3,Pin_3*%
%TO.N,Board_24-GND*%
X49857200Y-57057200D03*
%TD*%
D10*
%TO.P,J2,1,Pin_1*%
%TO.N,Board_25-Net-(C4-Pad1)*%
X66065200Y-57057200D03*
D11*
%TO.P,J2,2,Pin_2*%
%TO.N,Board_25-Net-(C2-Pad1)*%
X63525200Y-57057200D03*
%TO.P,J2,3,Pin_3*%
%TO.N,Board_25-GND*%
X60985200Y-57057200D03*
%TD*%
D10*
%TO.P,J1,1,Pin_1*%
%TO.N,Board_1-Net-(C3-Pad2)*%
X32666200Y-23585200D03*
D11*
%TO.P,J1,2,Pin_2*%
%TO.N,Board_1-Net-(C1-Pad1)*%
X30126200Y-23585200D03*
%TO.P,J1,3,Pin_3*%
%TO.N,Board_1-GND*%
X27586200Y-23585200D03*
%TD*%
D10*
%TO.P,J1,1,Pin_1*%
%TO.N,Board_36-Net-(C3-Pad2)*%
X32666200Y-90655200D03*
D11*
%TO.P,J1,2,Pin_2*%
%TO.N,Board_36-Net-(C1-Pad1)*%
X30126200Y-90655200D03*
%TO.P,J1,3,Pin_3*%
%TO.N,Board_36-GND*%
X27586200Y-90655200D03*
%TD*%
D10*
%TO.P,J1,1,Pin_1*%
%TO.N,Board_22-Net-(C3-Pad2)*%
X32666200Y-63827200D03*
D11*
%TO.P,J1,2,Pin_2*%
%TO.N,Board_22-Net-(C1-Pad1)*%
X30126200Y-63827200D03*
%TO.P,J1,3,Pin_3*%
%TO.N,Board_22-GND*%
X27586200Y-63827200D03*
%TD*%
D10*
%TO.P,J2,1,Pin_1*%
%TO.N,Board_10-Net-(C4-Pad1)*%
X54937200Y-30229200D03*
D11*
%TO.P,J2,2,Pin_2*%
%TO.N,Board_10-Net-(C2-Pad1)*%
X52397200Y-30229200D03*
%TO.P,J2,3,Pin_3*%
%TO.N,Board_10-GND*%
X49857200Y-30229200D03*
%TD*%
D10*
%TO.P,J2,1,Pin_1*%
%TO.N,Board_11-Net-(C4-Pad1)*%
X66065200Y-30229200D03*
D11*
%TO.P,J2,2,Pin_2*%
%TO.N,Board_11-Net-(C2-Pad1)*%
X63525200Y-30229200D03*
%TO.P,J2,3,Pin_3*%
%TO.N,Board_11-GND*%
X60985200Y-30229200D03*
%TD*%
D10*
%TO.P,J1,1,Pin_1*%
%TO.N,Board_2-Net-(C3-Pad2)*%
X43794200Y-23585200D03*
D11*
%TO.P,J1,2,Pin_2*%
%TO.N,Board_2-Net-(C1-Pad1)*%
X41254200Y-23585200D03*
%TO.P,J1,3,Pin_3*%
%TO.N,Board_2-GND*%
X38714200Y-23585200D03*
%TD*%
D10*
%TO.P,J2,1,Pin_1*%
%TO.N,Board_39-Net-(C4-Pad1)*%
X66065200Y-83885200D03*
D11*
%TO.P,J2,2,Pin_2*%
%TO.N,Board_39-Net-(C2-Pad1)*%
X63525200Y-83885200D03*
%TO.P,J2,3,Pin_3*%
%TO.N,Board_39-GND*%
X60985200Y-83885200D03*
%TD*%
D10*
%TO.P,J2,1,Pin_1*%
%TO.N,Board_36-Net-(C4-Pad1)*%
X32681200Y-83885200D03*
D11*
%TO.P,J2,2,Pin_2*%
%TO.N,Board_36-Net-(C2-Pad1)*%
X30141200Y-83885200D03*
%TO.P,J2,3,Pin_3*%
%TO.N,Board_36-GND*%
X27601200Y-83885200D03*
%TD*%
D10*
%TO.P,J1,1,Pin_1*%
%TO.N,Board_34-Net-(C3-Pad2)*%
X88306200Y-77241200D03*
D11*
%TO.P,J1,2,Pin_2*%
%TO.N,Board_34-Net-(C1-Pad1)*%
X85766200Y-77241200D03*
%TO.P,J1,3,Pin_3*%
%TO.N,Board_34-GND*%
X83226200Y-77241200D03*
%TD*%
D10*
%TO.P,J2,1,Pin_1*%
%TO.N,Board_19-Net-(C4-Pad1)*%
X77193200Y-43643200D03*
D11*
%TO.P,J2,2,Pin_2*%
%TO.N,Board_19-Net-(C2-Pad1)*%
X74653200Y-43643200D03*
%TO.P,J2,3,Pin_3*%
%TO.N,Board_19-GND*%
X72113200Y-43643200D03*
%TD*%
D10*
%TO.P,J1,1,Pin_1*%
%TO.N,Board_9-Net-(C3-Pad2)*%
X43794200Y-36999200D03*
D11*
%TO.P,J1,2,Pin_2*%
%TO.N,Board_9-Net-(C1-Pad1)*%
X41254200Y-36999200D03*
%TO.P,J1,3,Pin_3*%
%TO.N,Board_9-GND*%
X38714200Y-36999200D03*
%TD*%
D10*
%TO.P,J1,1,Pin_1*%
%TO.N,Board_23-Net-(C3-Pad2)*%
X43794200Y-63827200D03*
D11*
%TO.P,J1,2,Pin_2*%
%TO.N,Board_23-Net-(C1-Pad1)*%
X41254200Y-63827200D03*
%TO.P,J1,3,Pin_3*%
%TO.N,Board_23-GND*%
X38714200Y-63827200D03*
%TD*%
D10*
%TO.P,J2,1,Pin_1*%
%TO.N,Board_41-Net-(C4-Pad1)*%
X88321200Y-83885200D03*
D11*
%TO.P,J2,2,Pin_2*%
%TO.N,Board_41-Net-(C2-Pad1)*%
X85781200Y-83885200D03*
%TO.P,J2,3,Pin_3*%
%TO.N,Board_41-GND*%
X83241200Y-83885200D03*
%TD*%
D12*
%TO.P,C1,1*%
%TO.N,Board_34-Net-(C1-Pad1)*%
X85260800Y-74879000D03*
%TO.P,C1,2*%
%TO.N,Board_34-GND*%
X83710800Y-74879000D03*
%TD*%
%TO.P,C1,1*%
%TO.N,Board_30-Net-(C1-Pad1)*%
X40748800Y-74879000D03*
%TO.P,C1,2*%
%TO.N,Board_30-GND*%
X39198800Y-74879000D03*
%TD*%
D13*
%TO.P,C3,1*%
%TO.N,Board_6-GND*%
X87305200Y-21223000D03*
%TO.P,C3,2*%
%TO.N,Board_6-Net-(C3-Pad2)*%
X88855200Y-21223000D03*
%TD*%
%TO.P,C3,1*%
%TO.N,Board_16-GND*%
X42793200Y-48051000D03*
%TO.P,C3,2*%
%TO.N,Board_16-Net-(C3-Pad2)*%
X44343200Y-48051000D03*
%TD*%
D12*
%TO.P,C1,1*%
%TO.N,Board_20-Net-(C1-Pad1)*%
X85260800Y-48051000D03*
%TO.P,C1,2*%
%TO.N,Board_20-GND*%
X83710800Y-48051000D03*
%TD*%
%TO.P,C2,1*%
%TO.N,Board_41-Net-(C2-Pad1)*%
X85260800Y-86261000D03*
%TO.P,C2,2*%
%TO.N,Board_41-GND*%
X83710800Y-86261000D03*
%TD*%
D13*
%TO.P,C3,1*%
%TO.N,Board_29-GND*%
X31665200Y-74879000D03*
%TO.P,C3,2*%
%TO.N,Board_29-Net-(C3-Pad2)*%
X33215200Y-74879000D03*
%TD*%
D12*
%TO.P,C1,1*%
%TO.N,Board_22-Net-(C1-Pad1)*%
X29620800Y-61465000D03*
%TO.P,C1,2*%
%TO.N,Board_22-GND*%
X28070800Y-61465000D03*
%TD*%
%TO.P,C2,1*%
%TO.N,Board_18-Net-(C2-Pad1)*%
X63004800Y-46019000D03*
%TO.P,C2,2*%
%TO.N,Board_18-GND*%
X61454800Y-46019000D03*
%TD*%
D13*
%TO.P,C3,1*%
%TO.N,Board_4-GND*%
X65049200Y-21223000D03*
%TO.P,C3,2*%
%TO.N,Board_4-Net-(C3-Pad2)*%
X66599200Y-21223000D03*
%TD*%
D12*
%TO.P,C2,1*%
%TO.N,Board_3-Net-(C2-Pad1)*%
X51876800Y-19191000D03*
%TO.P,C2,2*%
%TO.N,Board_3-GND*%
X50326800Y-19191000D03*
%TD*%
%TO.P,C4,1*%
%TO.N,Board_8-Net-(C4-Pad1)*%
X33202200Y-32605000D03*
%TO.P,C4,2*%
%TO.N,Board_8-GND*%
X31652200Y-32605000D03*
%TD*%
%TO.P,C1,1*%
%TO.N,Board_16-Net-(C1-Pad1)*%
X40748800Y-48051000D03*
%TO.P,C1,2*%
%TO.N,Board_16-GND*%
X39198800Y-48051000D03*
%TD*%
%TO.P,C4,1*%
%TO.N,Board_30-Net-(C4-Pad1)*%
X44330200Y-72847000D03*
%TO.P,C4,2*%
%TO.N,Board_30-GND*%
X42780200Y-72847000D03*
%TD*%
%TO.P,C2,1*%
%TO.N,Board_24-Net-(C2-Pad1)*%
X51876800Y-59433000D03*
%TO.P,C2,2*%
%TO.N,Board_24-GND*%
X50326800Y-59433000D03*
%TD*%
%TO.P,C4,1*%
%TO.N,Board_34-Net-(C4-Pad1)*%
X88842200Y-72847000D03*
%TO.P,C4,2*%
%TO.N,Board_34-GND*%
X87292200Y-72847000D03*
%TD*%
%TO.P,C1,1*%
%TO.N,Board_27-Net-(C1-Pad1)*%
X85260800Y-61465000D03*
%TO.P,C1,2*%
%TO.N,Board_27-GND*%
X83710800Y-61465000D03*
%TD*%
%TO.P,C4,1*%
%TO.N,Board_19-Net-(C4-Pad1)*%
X77714200Y-46019000D03*
%TO.P,C4,2*%
%TO.N,Board_19-GND*%
X76164200Y-46019000D03*
%TD*%
D13*
%TO.P,C3,1*%
%TO.N,Board_36-GND*%
X31665200Y-88293000D03*
%TO.P,C3,2*%
%TO.N,Board_36-Net-(C3-Pad2)*%
X33215200Y-88293000D03*
%TD*%
D12*
%TO.P,C2,1*%
%TO.N,Board_23-Net-(C2-Pad1)*%
X40748800Y-59433000D03*
%TO.P,C2,2*%
%TO.N,Board_23-GND*%
X39198800Y-59433000D03*
%TD*%
%TO.P,C4,1*%
%TO.N,Board_17-Net-(C4-Pad1)*%
X55458200Y-46019000D03*
%TO.P,C4,2*%
%TO.N,Board_17-GND*%
X53908200Y-46019000D03*
%TD*%
%TO.P,C4,1*%
%TO.N,Board_2-Net-(C4-Pad1)*%
X44330200Y-19191000D03*
%TO.P,C4,2*%
%TO.N,Board_2-GND*%
X42780200Y-19191000D03*
%TD*%
%TO.P,C4,1*%
%TO.N,Board_26-Net-(C4-Pad1)*%
X77714200Y-59433000D03*
%TO.P,C4,2*%
%TO.N,Board_26-GND*%
X76164200Y-59433000D03*
%TD*%
%TO.P,C2,1*%
%TO.N,Board_8-Net-(C2-Pad1)*%
X29620800Y-32605000D03*
%TO.P,C2,2*%
%TO.N,Board_8-GND*%
X28070800Y-32605000D03*
%TD*%
D13*
%TO.P,C3,1*%
%TO.N,Board_12-GND*%
X76177200Y-34637000D03*
%TO.P,C3,2*%
%TO.N,Board_12-Net-(C3-Pad2)*%
X77727200Y-34637000D03*
%TD*%
D12*
%TO.P,C1,1*%
%TO.N,Board_2-Net-(C1-Pad1)*%
X40748800Y-21223000D03*
%TO.P,C1,2*%
%TO.N,Board_2-GND*%
X39198800Y-21223000D03*
%TD*%
%TO.P,C2,1*%
%TO.N,Board_30-Net-(C2-Pad1)*%
X40748800Y-72847000D03*
%TO.P,C2,2*%
%TO.N,Board_30-GND*%
X39198800Y-72847000D03*
%TD*%
%TO.P,C1,1*%
%TO.N,Board_8-Net-(C1-Pad1)*%
X29620800Y-34637000D03*
%TO.P,C1,2*%
%TO.N,Board_8-GND*%
X28070800Y-34637000D03*
%TD*%
%TO.P,C4,1*%
%TO.N,Board_10-Net-(C4-Pad1)*%
X55458200Y-32605000D03*
%TO.P,C4,2*%
%TO.N,Board_10-GND*%
X53908200Y-32605000D03*
%TD*%
D13*
%TO.P,C3,1*%
%TO.N,Board_40-GND*%
X76177200Y-88293000D03*
%TO.P,C3,2*%
%TO.N,Board_40-Net-(C3-Pad2)*%
X77727200Y-88293000D03*
%TD*%
D12*
%TO.P,C1,1*%
%TO.N,Board_38-Net-(C1-Pad1)*%
X51876800Y-88293000D03*
%TO.P,C1,2*%
%TO.N,Board_38-GND*%
X50326800Y-88293000D03*
%TD*%
%TO.P,C1,1*%
%TO.N,Board_1-Net-(C1-Pad1)*%
X29620800Y-21223000D03*
%TO.P,C1,2*%
%TO.N,Board_1-GND*%
X28070800Y-21223000D03*
%TD*%
D13*
%TO.P,C3,1*%
%TO.N,Board_39-GND*%
X65049200Y-88293000D03*
%TO.P,C3,2*%
%TO.N,Board_39-Net-(C3-Pad2)*%
X66599200Y-88293000D03*
%TD*%
D12*
%TO.P,C4,1*%
%TO.N,Board_13-Net-(C4-Pad1)*%
X88842200Y-32605000D03*
%TO.P,C4,2*%
%TO.N,Board_13-GND*%
X87292200Y-32605000D03*
%TD*%
D13*
%TO.P,C3,1*%
%TO.N,Board_5-GND*%
X76177200Y-21223000D03*
%TO.P,C3,2*%
%TO.N,Board_5-Net-(C3-Pad2)*%
X77727200Y-21223000D03*
%TD*%
D12*
%TO.P,C2,1*%
%TO.N,Board_5-Net-(C2-Pad1)*%
X74132800Y-19191000D03*
%TO.P,C2,2*%
%TO.N,Board_5-GND*%
X72582800Y-19191000D03*
%TD*%
%TO.P,C1,1*%
%TO.N,Board_6-Net-(C1-Pad1)*%
X85260800Y-21223000D03*
%TO.P,C1,2*%
%TO.N,Board_6-GND*%
X83710800Y-21223000D03*
%TD*%
%TO.P,C1,1*%
%TO.N,Board_3-Net-(C1-Pad1)*%
X51876800Y-21223000D03*
%TO.P,C1,2*%
%TO.N,Board_3-GND*%
X50326800Y-21223000D03*
%TD*%
%TO.P,C2,1*%
%TO.N,Board_10-Net-(C2-Pad1)*%
X51876800Y-32605000D03*
%TO.P,C2,2*%
%TO.N,Board_10-GND*%
X50326800Y-32605000D03*
%TD*%
D13*
%TO.P,C3,1*%
%TO.N,Board_27-GND*%
X87305200Y-61465000D03*
%TO.P,C3,2*%
%TO.N,Board_27-Net-(C3-Pad2)*%
X88855200Y-61465000D03*
%TD*%
D12*
%TO.P,C2,1*%
%TO.N,Board_31-Net-(C2-Pad1)*%
X51876800Y-72847000D03*
%TO.P,C2,2*%
%TO.N,Board_31-GND*%
X50326800Y-72847000D03*
%TD*%
%TO.P,C4,1*%
%TO.N,Board_41-Net-(C4-Pad1)*%
X88842200Y-86261000D03*
%TO.P,C4,2*%
%TO.N,Board_41-GND*%
X87292200Y-86261000D03*
%TD*%
%TO.P,C4,1*%
%TO.N,Board_9-Net-(C4-Pad1)*%
X44330200Y-32605000D03*
%TO.P,C4,2*%
%TO.N,Board_9-GND*%
X42780200Y-32605000D03*
%TD*%
D13*
%TO.P,C3,1*%
%TO.N,Board_14-GND*%
X20537200Y-48051000D03*
%TO.P,C3,2*%
%TO.N,Board_14-Net-(C3-Pad2)*%
X22087200Y-48051000D03*
%TD*%
D12*
%TO.P,C1,1*%
%TO.N,Board_26-Net-(C1-Pad1)*%
X74132800Y-61465000D03*
%TO.P,C1,2*%
%TO.N,Board_26-GND*%
X72582800Y-61465000D03*
%TD*%
%TO.P,C4,1*%
%TO.N,Board_16-Net-(C4-Pad1)*%
X44330200Y-46019000D03*
%TO.P,C4,2*%
%TO.N,Board_16-GND*%
X42780200Y-46019000D03*
%TD*%
D13*
%TO.P,C3,1*%
%TO.N,Board_20-GND*%
X87305200Y-48051000D03*
%TO.P,C3,2*%
%TO.N,Board_20-Net-(C3-Pad2)*%
X88855200Y-48051000D03*
%TD*%
D12*
%TO.P,C2,1*%
%TO.N,Board_0-Net-(C2-Pad1)*%
X18492800Y-19191000D03*
%TO.P,C2,2*%
%TO.N,Board_0-GND*%
X16942800Y-19191000D03*
%TD*%
%TO.P,C2,1*%
%TO.N,Board_36-Net-(C2-Pad1)*%
X29620800Y-86261000D03*
%TO.P,C2,2*%
%TO.N,Board_36-GND*%
X28070800Y-86261000D03*
%TD*%
%TO.P,C4,1*%
%TO.N,Board_32-Net-(C4-Pad1)*%
X66586200Y-72847000D03*
%TO.P,C4,2*%
%TO.N,Board_32-GND*%
X65036200Y-72847000D03*
%TD*%
%TO.P,C4,1*%
%TO.N,Board_31-Net-(C4-Pad1)*%
X55458200Y-72847000D03*
%TO.P,C4,2*%
%TO.N,Board_31-GND*%
X53908200Y-72847000D03*
%TD*%
%TO.P,C2,1*%
%TO.N,Board_7-Net-(C2-Pad1)*%
X18492800Y-32605000D03*
%TO.P,C2,2*%
%TO.N,Board_7-GND*%
X16942800Y-32605000D03*
%TD*%
%TO.P,C1,1*%
%TO.N,Board_21-Net-(C1-Pad1)*%
X18492800Y-61465000D03*
%TO.P,C1,2*%
%TO.N,Board_21-GND*%
X16942800Y-61465000D03*
%TD*%
%TO.P,C2,1*%
%TO.N,Board_9-Net-(C2-Pad1)*%
X40748800Y-32605000D03*
%TO.P,C2,2*%
%TO.N,Board_9-GND*%
X39198800Y-32605000D03*
%TD*%
D13*
%TO.P,C3,1*%
%TO.N,Board_38-GND*%
X53921200Y-88293000D03*
%TO.P,C3,2*%
%TO.N,Board_38-Net-(C3-Pad2)*%
X55471200Y-88293000D03*
%TD*%
%TO.P,C3,1*%
%TO.N,Board_41-GND*%
X87305200Y-88293000D03*
%TO.P,C3,2*%
%TO.N,Board_41-Net-(C3-Pad2)*%
X88855200Y-88293000D03*
%TD*%
D12*
%TO.P,C1,1*%
%TO.N,Board_23-Net-(C1-Pad1)*%
X40748800Y-61465000D03*
%TO.P,C1,2*%
%TO.N,Board_23-GND*%
X39198800Y-61465000D03*
%TD*%
%TO.P,C2,1*%
%TO.N,Board_26-Net-(C2-Pad1)*%
X74132800Y-59433000D03*
%TO.P,C2,2*%
%TO.N,Board_26-GND*%
X72582800Y-59433000D03*
%TD*%
%TO.P,C2,1*%
%TO.N,Board_28-Net-(C2-Pad1)*%
X18492800Y-72847000D03*
%TO.P,C2,2*%
%TO.N,Board_28-GND*%
X16942800Y-72847000D03*
%TD*%
D13*
%TO.P,C3,1*%
%TO.N,Board_3-GND*%
X53921200Y-21223000D03*
%TO.P,C3,2*%
%TO.N,Board_3-Net-(C3-Pad2)*%
X55471200Y-21223000D03*
%TD*%
D12*
%TO.P,C4,1*%
%TO.N,Board_28-Net-(C4-Pad1)*%
X22074200Y-72847000D03*
%TO.P,C4,2*%
%TO.N,Board_28-GND*%
X20524200Y-72847000D03*
%TD*%
D13*
%TO.P,C3,1*%
%TO.N,Board_34-GND*%
X87305200Y-74879000D03*
%TO.P,C3,2*%
%TO.N,Board_34-Net-(C3-Pad2)*%
X88855200Y-74879000D03*
%TD*%
D12*
%TO.P,C1,1*%
%TO.N,Board_7-Net-(C1-Pad1)*%
X18492800Y-34637000D03*
%TO.P,C1,2*%
%TO.N,Board_7-GND*%
X16942800Y-34637000D03*
%TD*%
%TO.P,C4,1*%
%TO.N,Board_20-Net-(C4-Pad1)*%
X88842200Y-46019000D03*
%TO.P,C4,2*%
%TO.N,Board_20-GND*%
X87292200Y-46019000D03*
%TD*%
%TO.P,C2,1*%
%TO.N,Board_27-Net-(C2-Pad1)*%
X85260800Y-59433000D03*
%TO.P,C2,2*%
%TO.N,Board_27-GND*%
X83710800Y-59433000D03*
%TD*%
%TO.P,C4,1*%
%TO.N,Board_7-Net-(C4-Pad1)*%
X22074200Y-32605000D03*
%TO.P,C4,2*%
%TO.N,Board_7-GND*%
X20524200Y-32605000D03*
%TD*%
D13*
%TO.P,C3,1*%
%TO.N,Board_31-GND*%
X53921200Y-74879000D03*
%TO.P,C3,2*%
%TO.N,Board_31-Net-(C3-Pad2)*%
X55471200Y-74879000D03*
%TD*%
D12*
%TO.P,C4,1*%
%TO.N,Board_36-Net-(C4-Pad1)*%
X33202200Y-86261000D03*
%TO.P,C4,2*%
%TO.N,Board_36-GND*%
X31652200Y-86261000D03*
%TD*%
%TO.P,C2,1*%
%TO.N,Board_11-Net-(C2-Pad1)*%
X63004800Y-32605000D03*
%TO.P,C2,2*%
%TO.N,Board_11-GND*%
X61454800Y-32605000D03*
%TD*%
D13*
%TO.P,C3,1*%
%TO.N,Board_22-GND*%
X31665200Y-61465000D03*
%TO.P,C3,2*%
%TO.N,Board_22-Net-(C3-Pad2)*%
X33215200Y-61465000D03*
%TD*%
D12*
%TO.P,C4,1*%
%TO.N,Board_3-Net-(C4-Pad1)*%
X55458200Y-19191000D03*
%TO.P,C4,2*%
%TO.N,Board_3-GND*%
X53908200Y-19191000D03*
%TD*%
%TO.P,C2,1*%
%TO.N,Board_32-Net-(C2-Pad1)*%
X63004800Y-72847000D03*
%TO.P,C2,2*%
%TO.N,Board_32-GND*%
X61454800Y-72847000D03*
%TD*%
%TO.P,C1,1*%
%TO.N,Board_4-Net-(C1-Pad1)*%
X63004800Y-21223000D03*
%TO.P,C1,2*%
%TO.N,Board_4-GND*%
X61454800Y-21223000D03*
%TD*%
%TO.P,C2,1*%
%TO.N,Board_1-Net-(C2-Pad1)*%
X29620800Y-19191000D03*
%TO.P,C2,2*%
%TO.N,Board_1-GND*%
X28070800Y-19191000D03*
%TD*%
%TO.P,C1,1*%
%TO.N,Board_10-Net-(C1-Pad1)*%
X51876800Y-34637000D03*
%TO.P,C1,2*%
%TO.N,Board_10-GND*%
X50326800Y-34637000D03*
%TD*%
%TO.P,C2,1*%
%TO.N,Board_20-Net-(C2-Pad1)*%
X85260800Y-46019000D03*
%TO.P,C2,2*%
%TO.N,Board_20-GND*%
X83710800Y-46019000D03*
%TD*%
%TO.P,C1,1*%
%TO.N,Board_37-Net-(C1-Pad1)*%
X40748800Y-88293000D03*
%TO.P,C1,2*%
%TO.N,Board_37-GND*%
X39198800Y-88293000D03*
%TD*%
D13*
%TO.P,C3,1*%
%TO.N,Board_23-GND*%
X42793200Y-61465000D03*
%TO.P,C3,2*%
%TO.N,Board_23-Net-(C3-Pad2)*%
X44343200Y-61465000D03*
%TD*%
D12*
%TO.P,C4,1*%
%TO.N,Board_12-Net-(C4-Pad1)*%
X77714200Y-32605000D03*
%TO.P,C4,2*%
%TO.N,Board_12-GND*%
X76164200Y-32605000D03*
%TD*%
%TO.P,C1,1*%
%TO.N,Board_19-Net-(C1-Pad1)*%
X74132800Y-48051000D03*
%TO.P,C1,2*%
%TO.N,Board_19-GND*%
X72582800Y-48051000D03*
%TD*%
%TO.P,C1,1*%
%TO.N,Board_15-Net-(C1-Pad1)*%
X29620800Y-48051000D03*
%TO.P,C1,2*%
%TO.N,Board_15-GND*%
X28070800Y-48051000D03*
%TD*%
%TO.P,C4,1*%
%TO.N,Board_37-Net-(C4-Pad1)*%
X44330200Y-86261000D03*
%TO.P,C4,2*%
%TO.N,Board_37-GND*%
X42780200Y-86261000D03*
%TD*%
%TO.P,C2,1*%
%TO.N,Board_34-Net-(C2-Pad1)*%
X85260800Y-72847000D03*
%TO.P,C2,2*%
%TO.N,Board_34-GND*%
X83710800Y-72847000D03*
%TD*%
%TO.P,C4,1*%
%TO.N,Board_40-Net-(C4-Pad1)*%
X77714200Y-86261000D03*
%TO.P,C4,2*%
%TO.N,Board_40-GND*%
X76164200Y-86261000D03*
%TD*%
%TO.P,C4,1*%
%TO.N,Board_23-Net-(C4-Pad1)*%
X44330200Y-59433000D03*
%TO.P,C4,2*%
%TO.N,Board_23-GND*%
X42780200Y-59433000D03*
%TD*%
D13*
%TO.P,C3,1*%
%TO.N,Board_35-GND*%
X20537200Y-88293000D03*
%TO.P,C3,2*%
%TO.N,Board_35-Net-(C3-Pad2)*%
X22087200Y-88293000D03*
%TD*%
D12*
%TO.P,C1,1*%
%TO.N,Board_41-Net-(C1-Pad1)*%
X85260800Y-88293000D03*
%TO.P,C1,2*%
%TO.N,Board_41-GND*%
X83710800Y-88293000D03*
%TD*%
%TO.P,C2,1*%
%TO.N,Board_38-Net-(C2-Pad1)*%
X51876800Y-86261000D03*
%TO.P,C2,2*%
%TO.N,Board_38-GND*%
X50326800Y-86261000D03*
%TD*%
%TO.P,C1,1*%
%TO.N,Board_17-Net-(C1-Pad1)*%
X51876800Y-48051000D03*
%TO.P,C1,2*%
%TO.N,Board_17-GND*%
X50326800Y-48051000D03*
%TD*%
D13*
%TO.P,C3,1*%
%TO.N,Board_0-GND*%
X20537200Y-21223000D03*
%TO.P,C3,2*%
%TO.N,Board_0-Net-(C3-Pad2)*%
X22087200Y-21223000D03*
%TD*%
D12*
%TO.P,C2,1*%
%TO.N,Board_35-Net-(C2-Pad1)*%
X18492800Y-86261000D03*
%TO.P,C2,2*%
%TO.N,Board_35-GND*%
X16942800Y-86261000D03*
%TD*%
%TO.P,C4,1*%
%TO.N,Board_1-Net-(C4-Pad1)*%
X33202200Y-19191000D03*
%TO.P,C4,2*%
%TO.N,Board_1-GND*%
X31652200Y-19191000D03*
%TD*%
%TO.P,C1,1*%
%TO.N,Board_39-Net-(C1-Pad1)*%
X63004800Y-88293000D03*
%TO.P,C1,2*%
%TO.N,Board_39-GND*%
X61454800Y-88293000D03*
%TD*%
%TO.P,C4,1*%
%TO.N,Board_0-Net-(C4-Pad1)*%
X22074200Y-19191000D03*
%TO.P,C4,2*%
%TO.N,Board_0-GND*%
X20524200Y-19191000D03*
%TD*%
%TO.P,C1,1*%
%TO.N,Board_40-Net-(C1-Pad1)*%
X74132800Y-88293000D03*
%TO.P,C1,2*%
%TO.N,Board_40-GND*%
X72582800Y-88293000D03*
%TD*%
D13*
%TO.P,C3,1*%
%TO.N,Board_25-GND*%
X65049200Y-61465000D03*
%TO.P,C3,2*%
%TO.N,Board_25-Net-(C3-Pad2)*%
X66599200Y-61465000D03*
%TD*%
D12*
%TO.P,C4,1*%
%TO.N,Board_22-Net-(C4-Pad1)*%
X33202200Y-59433000D03*
%TO.P,C4,2*%
%TO.N,Board_22-GND*%
X31652200Y-59433000D03*
%TD*%
D13*
%TO.P,C3,1*%
%TO.N,Board_18-GND*%
X65049200Y-48051000D03*
%TO.P,C3,2*%
%TO.N,Board_18-Net-(C3-Pad2)*%
X66599200Y-48051000D03*
%TD*%
%TO.P,C3,1*%
%TO.N,Board_15-GND*%
X31665200Y-48051000D03*
%TO.P,C3,2*%
%TO.N,Board_15-Net-(C3-Pad2)*%
X33215200Y-48051000D03*
%TD*%
D12*
%TO.P,C1,1*%
%TO.N,Board_36-Net-(C1-Pad1)*%
X29620800Y-88293000D03*
%TO.P,C1,2*%
%TO.N,Board_36-GND*%
X28070800Y-88293000D03*
%TD*%
D13*
%TO.P,C3,1*%
%TO.N,Board_24-GND*%
X53921200Y-61465000D03*
%TO.P,C3,2*%
%TO.N,Board_24-Net-(C3-Pad2)*%
X55471200Y-61465000D03*
%TD*%
D12*
%TO.P,C2,1*%
%TO.N,Board_33-Net-(C2-Pad1)*%
X74132800Y-72847000D03*
%TO.P,C2,2*%
%TO.N,Board_33-GND*%
X72582800Y-72847000D03*
%TD*%
%TO.P,C2,1*%
%TO.N,Board_15-Net-(C2-Pad1)*%
X29620800Y-46019000D03*
%TO.P,C2,2*%
%TO.N,Board_15-GND*%
X28070800Y-46019000D03*
%TD*%
%TO.P,C1,1*%
%TO.N,Board_25-Net-(C1-Pad1)*%
X63004800Y-61465000D03*
%TO.P,C1,2*%
%TO.N,Board_25-GND*%
X61454800Y-61465000D03*
%TD*%
D13*
%TO.P,C3,1*%
%TO.N,Board_13-GND*%
X87305200Y-34637000D03*
%TO.P,C3,2*%
%TO.N,Board_13-Net-(C3-Pad2)*%
X88855200Y-34637000D03*
%TD*%
D12*
%TO.P,C2,1*%
%TO.N,Board_22-Net-(C2-Pad1)*%
X29620800Y-59433000D03*
%TO.P,C2,2*%
%TO.N,Board_22-GND*%
X28070800Y-59433000D03*
%TD*%
D13*
%TO.P,C3,1*%
%TO.N,Board_1-GND*%
X31665200Y-21223000D03*
%TO.P,C3,2*%
%TO.N,Board_1-Net-(C3-Pad2)*%
X33215200Y-21223000D03*
%TD*%
%TO.P,C3,1*%
%TO.N,Board_9-GND*%
X42793200Y-34637000D03*
%TO.P,C3,2*%
%TO.N,Board_9-Net-(C3-Pad2)*%
X44343200Y-34637000D03*
%TD*%
D12*
%TO.P,C4,1*%
%TO.N,Board_38-Net-(C4-Pad1)*%
X55458200Y-86261000D03*
%TO.P,C4,2*%
%TO.N,Board_38-GND*%
X53908200Y-86261000D03*
%TD*%
D13*
%TO.P,C3,1*%
%TO.N,Board_28-GND*%
X20537200Y-74879000D03*
%TO.P,C3,2*%
%TO.N,Board_28-Net-(C3-Pad2)*%
X22087200Y-74879000D03*
%TD*%
D12*
%TO.P,C2,1*%
%TO.N,Board_2-Net-(C2-Pad1)*%
X40748800Y-19191000D03*
%TO.P,C2,2*%
%TO.N,Board_2-GND*%
X39198800Y-19191000D03*
%TD*%
%TO.P,C2,1*%
%TO.N,Board_12-Net-(C2-Pad1)*%
X74132800Y-32605000D03*
%TO.P,C2,2*%
%TO.N,Board_12-GND*%
X72582800Y-32605000D03*
%TD*%
D13*
%TO.P,C3,1*%
%TO.N,Board_7-GND*%
X20537200Y-34637000D03*
%TO.P,C3,2*%
%TO.N,Board_7-Net-(C3-Pad2)*%
X22087200Y-34637000D03*
%TD*%
D12*
%TO.P,C1,1*%
%TO.N,Board_33-Net-(C1-Pad1)*%
X74132800Y-74879000D03*
%TO.P,C1,2*%
%TO.N,Board_33-GND*%
X72582800Y-74879000D03*
%TD*%
D13*
%TO.P,C3,1*%
%TO.N,Board_17-GND*%
X53921200Y-48051000D03*
%TO.P,C3,2*%
%TO.N,Board_17-Net-(C3-Pad2)*%
X55471200Y-48051000D03*
%TD*%
D12*
%TO.P,C2,1*%
%TO.N,Board_17-Net-(C2-Pad1)*%
X51876800Y-46019000D03*
%TO.P,C2,2*%
%TO.N,Board_17-GND*%
X50326800Y-46019000D03*
%TD*%
D13*
%TO.P,C3,1*%
%TO.N,Board_30-GND*%
X42793200Y-74879000D03*
%TO.P,C3,2*%
%TO.N,Board_30-Net-(C3-Pad2)*%
X44343200Y-74879000D03*
%TD*%
D12*
%TO.P,C4,1*%
%TO.N,Board_39-Net-(C4-Pad1)*%
X66586200Y-86261000D03*
%TO.P,C4,2*%
%TO.N,Board_39-GND*%
X65036200Y-86261000D03*
%TD*%
%TO.P,C1,1*%
%TO.N,Board_28-Net-(C1-Pad1)*%
X18492800Y-74879000D03*
%TO.P,C1,2*%
%TO.N,Board_28-GND*%
X16942800Y-74879000D03*
%TD*%
D13*
%TO.P,C3,1*%
%TO.N,Board_37-GND*%
X42793200Y-88293000D03*
%TO.P,C3,2*%
%TO.N,Board_37-Net-(C3-Pad2)*%
X44343200Y-88293000D03*
%TD*%
D12*
%TO.P,C4,1*%
%TO.N,Board_24-Net-(C4-Pad1)*%
X55458200Y-59433000D03*
%TO.P,C4,2*%
%TO.N,Board_24-GND*%
X53908200Y-59433000D03*
%TD*%
%TO.P,C4,1*%
%TO.N,Board_5-Net-(C4-Pad1)*%
X77714200Y-19191000D03*
%TO.P,C4,2*%
%TO.N,Board_5-GND*%
X76164200Y-19191000D03*
%TD*%
%TO.P,C2,1*%
%TO.N,Board_39-Net-(C2-Pad1)*%
X63004800Y-86261000D03*
%TO.P,C2,2*%
%TO.N,Board_39-GND*%
X61454800Y-86261000D03*
%TD*%
%TO.P,C2,1*%
%TO.N,Board_6-Net-(C2-Pad1)*%
X85260800Y-19191000D03*
%TO.P,C2,2*%
%TO.N,Board_6-GND*%
X83710800Y-19191000D03*
%TD*%
%TO.P,C1,1*%
%TO.N,Board_24-Net-(C1-Pad1)*%
X51876800Y-61465000D03*
%TO.P,C1,2*%
%TO.N,Board_24-GND*%
X50326800Y-61465000D03*
%TD*%
%TO.P,C2,1*%
%TO.N,Board_14-Net-(C2-Pad1)*%
X18492800Y-46019000D03*
%TO.P,C2,2*%
%TO.N,Board_14-GND*%
X16942800Y-46019000D03*
%TD*%
%TO.P,C2,1*%
%TO.N,Board_16-Net-(C2-Pad1)*%
X40748800Y-46019000D03*
%TO.P,C2,2*%
%TO.N,Board_16-GND*%
X39198800Y-46019000D03*
%TD*%
%TO.P,C4,1*%
%TO.N,Board_35-Net-(C4-Pad1)*%
X22074200Y-86261000D03*
%TO.P,C4,2*%
%TO.N,Board_35-GND*%
X20524200Y-86261000D03*
%TD*%
%TO.P,C4,1*%
%TO.N,Board_4-Net-(C4-Pad1)*%
X66586200Y-19191000D03*
%TO.P,C4,2*%
%TO.N,Board_4-GND*%
X65036200Y-19191000D03*
%TD*%
%TO.P,C1,1*%
%TO.N,Board_32-Net-(C1-Pad1)*%
X63004800Y-74879000D03*
%TO.P,C1,2*%
%TO.N,Board_32-GND*%
X61454800Y-74879000D03*
%TD*%
%TO.P,C2,1*%
%TO.N,Board_29-Net-(C2-Pad1)*%
X29620800Y-72847000D03*
%TO.P,C2,2*%
%TO.N,Board_29-GND*%
X28070800Y-72847000D03*
%TD*%
%TO.P,C1,1*%
%TO.N,Board_9-Net-(C1-Pad1)*%
X40748800Y-34637000D03*
%TO.P,C1,2*%
%TO.N,Board_9-GND*%
X39198800Y-34637000D03*
%TD*%
%TO.P,C1,1*%
%TO.N,Board_13-Net-(C1-Pad1)*%
X85260800Y-34637000D03*
%TO.P,C1,2*%
%TO.N,Board_13-GND*%
X83710800Y-34637000D03*
%TD*%
%TO.P,C4,1*%
%TO.N,Board_15-Net-(C4-Pad1)*%
X33202200Y-46019000D03*
%TO.P,C4,2*%
%TO.N,Board_15-GND*%
X31652200Y-46019000D03*
%TD*%
%TO.P,C4,1*%
%TO.N,Board_18-Net-(C4-Pad1)*%
X66586200Y-46019000D03*
%TO.P,C4,2*%
%TO.N,Board_18-GND*%
X65036200Y-46019000D03*
%TD*%
%TO.P,C1,1*%
%TO.N,Board_18-Net-(C1-Pad1)*%
X63004800Y-48051000D03*
%TO.P,C1,2*%
%TO.N,Board_18-GND*%
X61454800Y-48051000D03*
%TD*%
%TO.P,C2,1*%
%TO.N,Board_21-Net-(C2-Pad1)*%
X18492800Y-59433000D03*
%TO.P,C2,2*%
%TO.N,Board_21-GND*%
X16942800Y-59433000D03*
%TD*%
D13*
%TO.P,C3,1*%
%TO.N,Board_32-GND*%
X65049200Y-74879000D03*
%TO.P,C3,2*%
%TO.N,Board_32-Net-(C3-Pad2)*%
X66599200Y-74879000D03*
%TD*%
D12*
%TO.P,C4,1*%
%TO.N,Board_6-Net-(C4-Pad1)*%
X88842200Y-19191000D03*
%TO.P,C4,2*%
%TO.N,Board_6-GND*%
X87292200Y-19191000D03*
%TD*%
%TO.P,C2,1*%
%TO.N,Board_13-Net-(C2-Pad1)*%
X85260800Y-32605000D03*
%TO.P,C2,2*%
%TO.N,Board_13-GND*%
X83710800Y-32605000D03*
%TD*%
%TO.P,C1,1*%
%TO.N,Board_14-Net-(C1-Pad1)*%
X18492800Y-48051000D03*
%TO.P,C1,2*%
%TO.N,Board_14-GND*%
X16942800Y-48051000D03*
%TD*%
%TO.P,C4,1*%
%TO.N,Board_25-Net-(C4-Pad1)*%
X66586200Y-59433000D03*
%TO.P,C4,2*%
%TO.N,Board_25-GND*%
X65036200Y-59433000D03*
%TD*%
D13*
%TO.P,C3,1*%
%TO.N,Board_2-GND*%
X42793200Y-21223000D03*
%TO.P,C3,2*%
%TO.N,Board_2-Net-(C3-Pad2)*%
X44343200Y-21223000D03*
%TD*%
%TO.P,C3,1*%
%TO.N,Board_11-GND*%
X65049200Y-34637000D03*
%TO.P,C3,2*%
%TO.N,Board_11-Net-(C3-Pad2)*%
X66599200Y-34637000D03*
%TD*%
D12*
%TO.P,C4,1*%
%TO.N,Board_14-Net-(C4-Pad1)*%
X22074200Y-46019000D03*
%TO.P,C4,2*%
%TO.N,Board_14-GND*%
X20524200Y-46019000D03*
%TD*%
D13*
%TO.P,C3,1*%
%TO.N,Board_10-GND*%
X53921200Y-34637000D03*
%TO.P,C3,2*%
%TO.N,Board_10-Net-(C3-Pad2)*%
X55471200Y-34637000D03*
%TD*%
D12*
%TO.P,C1,1*%
%TO.N,Board_29-Net-(C1-Pad1)*%
X29620800Y-74879000D03*
%TO.P,C1,2*%
%TO.N,Board_29-GND*%
X28070800Y-74879000D03*
%TD*%
%TO.P,C1,1*%
%TO.N,Board_0-Net-(C1-Pad1)*%
X18492800Y-21223000D03*
%TO.P,C1,2*%
%TO.N,Board_0-GND*%
X16942800Y-21223000D03*
%TD*%
%TO.P,C4,1*%
%TO.N,Board_29-Net-(C4-Pad1)*%
X33202200Y-72847000D03*
%TO.P,C4,2*%
%TO.N,Board_29-GND*%
X31652200Y-72847000D03*
%TD*%
%TO.P,C1,1*%
%TO.N,Board_11-Net-(C1-Pad1)*%
X63004800Y-34637000D03*
%TO.P,C1,2*%
%TO.N,Board_11-GND*%
X61454800Y-34637000D03*
%TD*%
%TO.P,C2,1*%
%TO.N,Board_25-Net-(C2-Pad1)*%
X63004800Y-59433000D03*
%TO.P,C2,2*%
%TO.N,Board_25-GND*%
X61454800Y-59433000D03*
%TD*%
%TO.P,C1,1*%
%TO.N,Board_12-Net-(C1-Pad1)*%
X74132800Y-34637000D03*
%TO.P,C1,2*%
%TO.N,Board_12-GND*%
X72582800Y-34637000D03*
%TD*%
D13*
%TO.P,C3,1*%
%TO.N,Board_26-GND*%
X76177200Y-61465000D03*
%TO.P,C3,2*%
%TO.N,Board_26-Net-(C3-Pad2)*%
X77727200Y-61465000D03*
%TD*%
D12*
%TO.P,C2,1*%
%TO.N,Board_19-Net-(C2-Pad1)*%
X74132800Y-46019000D03*
%TO.P,C2,2*%
%TO.N,Board_19-GND*%
X72582800Y-46019000D03*
%TD*%
%TO.P,C1,1*%
%TO.N,Board_5-Net-(C1-Pad1)*%
X74132800Y-21223000D03*
%TO.P,C1,2*%
%TO.N,Board_5-GND*%
X72582800Y-21223000D03*
%TD*%
%TO.P,C1,1*%
%TO.N,Board_35-Net-(C1-Pad1)*%
X18492800Y-88293000D03*
%TO.P,C1,2*%
%TO.N,Board_35-GND*%
X16942800Y-88293000D03*
%TD*%
%TO.P,C4,1*%
%TO.N,Board_33-Net-(C4-Pad1)*%
X77714200Y-72847000D03*
%TO.P,C4,2*%
%TO.N,Board_33-GND*%
X76164200Y-72847000D03*
%TD*%
%TO.P,C2,1*%
%TO.N,Board_40-Net-(C2-Pad1)*%
X74132800Y-86261000D03*
%TO.P,C2,2*%
%TO.N,Board_40-GND*%
X72582800Y-86261000D03*
%TD*%
%TO.P,C2,1*%
%TO.N,Board_37-Net-(C2-Pad1)*%
X40748800Y-86261000D03*
%TO.P,C2,2*%
%TO.N,Board_37-GND*%
X39198800Y-86261000D03*
%TD*%
%TO.P,C2,1*%
%TO.N,Board_4-Net-(C2-Pad1)*%
X63004800Y-19191000D03*
%TO.P,C2,2*%
%TO.N,Board_4-GND*%
X61454800Y-19191000D03*
%TD*%
D13*
%TO.P,C3,1*%
%TO.N,Board_19-GND*%
X76177200Y-48051000D03*
%TO.P,C3,2*%
%TO.N,Board_19-Net-(C3-Pad2)*%
X77727200Y-48051000D03*
%TD*%
%TO.P,C3,1*%
%TO.N,Board_8-GND*%
X31665200Y-34637000D03*
%TO.P,C3,2*%
%TO.N,Board_8-Net-(C3-Pad2)*%
X33215200Y-34637000D03*
%TD*%
D12*
%TO.P,C4,1*%
%TO.N,Board_21-Net-(C4-Pad1)*%
X22074200Y-59433000D03*
%TO.P,C4,2*%
%TO.N,Board_21-GND*%
X20524200Y-59433000D03*
%TD*%
D13*
%TO.P,C3,1*%
%TO.N,Board_33-GND*%
X76177200Y-74879000D03*
%TO.P,C3,2*%
%TO.N,Board_33-Net-(C3-Pad2)*%
X77727200Y-74879000D03*
%TD*%
D12*
%TO.P,C1,1*%
%TO.N,Board_31-Net-(C1-Pad1)*%
X51876800Y-74879000D03*
%TO.P,C1,2*%
%TO.N,Board_31-GND*%
X50326800Y-74879000D03*
%TD*%
%TO.P,C4,1*%
%TO.N,Board_11-Net-(C4-Pad1)*%
X66586200Y-32605000D03*
%TO.P,C4,2*%
%TO.N,Board_11-GND*%
X65036200Y-32605000D03*
%TD*%
%TO.P,C4,1*%
%TO.N,Board_27-Net-(C4-Pad1)*%
X88842200Y-59433000D03*
%TO.P,C4,2*%
%TO.N,Board_27-GND*%
X87292200Y-59433000D03*
%TD*%
D13*
%TO.P,C3,1*%
%TO.N,Board_21-GND*%
X20537200Y-61465000D03*
%TO.P,C3,2*%
%TO.N,Board_21-Net-(C3-Pad2)*%
X22087200Y-61465000D03*
%TD*%
D14*
%TO.N,Board_0-GND*%
X20537200Y-21223000D02*
X20537200Y-21045200D01*
X16942800Y-17284800D02*
X16473200Y-16815200D01*
X16942800Y-23100600D02*
X16942800Y-21260800D01*
X16942800Y-21223000D02*
X16942800Y-21260800D01*
X16942800Y-21260800D02*
X16942800Y-19280200D01*
X20537200Y-21045200D02*
X19750080Y-20258080D01*
X16942800Y-20181600D02*
X19711400Y-20181600D01*
X16458200Y-23585200D02*
X16942800Y-23100600D01*
X16942800Y-19191000D02*
X16942800Y-19280200D01*
X19750080Y-20142920D02*
X20524200Y-19368800D01*
X16942800Y-19280200D02*
X16942800Y-17284800D01*
X19711400Y-20181600D02*
X19750080Y-20142920D01*
X19750080Y-20258080D02*
X19750080Y-20142920D01*
X20524200Y-19191000D02*
X20524200Y-19368800D01*
%TO.N,Board_0-Net-(C1-Pad1)*%
X18492800Y-21223000D02*
X18670600Y-21223000D01*
X18998200Y-21550600D02*
X18998200Y-23585200D01*
X18670600Y-21223000D02*
X18998200Y-21550600D01*
%TO.N,Board_0-Net-(C2-Pad1)*%
X19013200Y-16815200D02*
X19013200Y-18823000D01*
X18727600Y-19108600D02*
X18492800Y-19343400D01*
X19013200Y-18823000D02*
X18727600Y-19108600D01*
X18645200Y-19191000D02*
X18727600Y-19108600D01*
X18492800Y-19191000D02*
X18645200Y-19191000D01*
%TO.N,Board_0-Net-(C3-Pad2)*%
X22087200Y-23036200D02*
X21538200Y-23585200D01*
X22087200Y-21019800D02*
X22087200Y-23036200D01*
%TO.N,Board_0-Net-(C4-Pad1)*%
X22074200Y-17336200D02*
X21553200Y-16815200D01*
X22035800Y-19330400D02*
X22074200Y-19368800D01*
X22074200Y-19368800D02*
X22074200Y-17336200D01*
%TO.N,Board_1-GND*%
X31665200Y-21223000D02*
X31665200Y-21045200D01*
X28070800Y-17284800D02*
X27601200Y-16815200D01*
X28070800Y-23100600D02*
X28070800Y-21260800D01*
X28070800Y-21223000D02*
X28070800Y-21260800D01*
X28070800Y-21260800D02*
X28070800Y-19280200D01*
X31665200Y-21045200D02*
X30878080Y-20258080D01*
X28070800Y-20181600D02*
X30839400Y-20181600D01*
X27586200Y-23585200D02*
X28070800Y-23100600D01*
X28070800Y-19191000D02*
X28070800Y-19280200D01*
X30878080Y-20142920D02*
X31652200Y-19368800D01*
X28070800Y-19280200D02*
X28070800Y-17284800D01*
X30839400Y-20181600D02*
X30878080Y-20142920D01*
X30878080Y-20258080D02*
X30878080Y-20142920D01*
X31652200Y-19191000D02*
X31652200Y-19368800D01*
%TO.N,Board_1-Net-(C1-Pad1)*%
X29620800Y-21223000D02*
X29798600Y-21223000D01*
X30126200Y-21550600D02*
X30126200Y-23585200D01*
X29798600Y-21223000D02*
X30126200Y-21550600D01*
%TO.N,Board_1-Net-(C2-Pad1)*%
X30141200Y-16815200D02*
X30141200Y-18823000D01*
X29855600Y-19108600D02*
X29620800Y-19343400D01*
X30141200Y-18823000D02*
X29855600Y-19108600D01*
X29773200Y-19191000D02*
X29855600Y-19108600D01*
X29620800Y-19191000D02*
X29773200Y-19191000D01*
%TO.N,Board_1-Net-(C3-Pad2)*%
X33215200Y-23036200D02*
X32666200Y-23585200D01*
X33215200Y-21019800D02*
X33215200Y-23036200D01*
%TO.N,Board_1-Net-(C4-Pad1)*%
X33202200Y-17336200D02*
X32681200Y-16815200D01*
X33163800Y-19330400D02*
X33202200Y-19368800D01*
X33202200Y-19368800D02*
X33202200Y-17336200D01*
%TO.N,Board_2-GND*%
X42793200Y-21223000D02*
X42793200Y-21045200D01*
X39198800Y-17284800D02*
X38729200Y-16815200D01*
X39198800Y-23100600D02*
X39198800Y-21260800D01*
X39198800Y-21223000D02*
X39198800Y-21260800D01*
X39198800Y-21260800D02*
X39198800Y-19280200D01*
X42793200Y-21045200D02*
X42006080Y-20258080D01*
X39198800Y-20181600D02*
X41967400Y-20181600D01*
X38714200Y-23585200D02*
X39198800Y-23100600D01*
X39198800Y-19191000D02*
X39198800Y-19280200D01*
X42006080Y-20142920D02*
X42780200Y-19368800D01*
X39198800Y-19280200D02*
X39198800Y-17284800D01*
X41967400Y-20181600D02*
X42006080Y-20142920D01*
X42006080Y-20258080D02*
X42006080Y-20142920D01*
X42780200Y-19191000D02*
X42780200Y-19368800D01*
%TO.N,Board_2-Net-(C1-Pad1)*%
X40748800Y-21223000D02*
X40926600Y-21223000D01*
X41254200Y-21550600D02*
X41254200Y-23585200D01*
X40926600Y-21223000D02*
X41254200Y-21550600D01*
%TO.N,Board_2-Net-(C2-Pad1)*%
X41269200Y-16815200D02*
X41269200Y-18823000D01*
X40983600Y-19108600D02*
X40748800Y-19343400D01*
X41269200Y-18823000D02*
X40983600Y-19108600D01*
X40901200Y-19191000D02*
X40983600Y-19108600D01*
X40748800Y-19191000D02*
X40901200Y-19191000D01*
%TO.N,Board_2-Net-(C3-Pad2)*%
X44343200Y-23036200D02*
X43794200Y-23585200D01*
X44343200Y-21019800D02*
X44343200Y-23036200D01*
%TO.N,Board_2-Net-(C4-Pad1)*%
X44330200Y-17336200D02*
X43809200Y-16815200D01*
X44291800Y-19330400D02*
X44330200Y-19368800D01*
X44330200Y-19368800D02*
X44330200Y-17336200D01*
%TO.N,Board_3-GND*%
X53921200Y-21223000D02*
X53921200Y-21045200D01*
X50326800Y-17284800D02*
X49857200Y-16815200D01*
X50326800Y-23100600D02*
X50326800Y-21260800D01*
X50326800Y-21223000D02*
X50326800Y-21260800D01*
X50326800Y-21260800D02*
X50326800Y-19280200D01*
X53921200Y-21045200D02*
X53134080Y-20258080D01*
X50326800Y-20181600D02*
X53095400Y-20181600D01*
X49842200Y-23585200D02*
X50326800Y-23100600D01*
X50326800Y-19191000D02*
X50326800Y-19280200D01*
X53134080Y-20142920D02*
X53908200Y-19368800D01*
X50326800Y-19280200D02*
X50326800Y-17284800D01*
X53095400Y-20181600D02*
X53134080Y-20142920D01*
X53134080Y-20258080D02*
X53134080Y-20142920D01*
X53908200Y-19191000D02*
X53908200Y-19368800D01*
%TO.N,Board_3-Net-(C1-Pad1)*%
X51876800Y-21223000D02*
X52054600Y-21223000D01*
X52382200Y-21550600D02*
X52382200Y-23585200D01*
X52054600Y-21223000D02*
X52382200Y-21550600D01*
%TO.N,Board_3-Net-(C2-Pad1)*%
X52397200Y-16815200D02*
X52397200Y-18823000D01*
X52111600Y-19108600D02*
X51876800Y-19343400D01*
X52397200Y-18823000D02*
X52111600Y-19108600D01*
X52029200Y-19191000D02*
X52111600Y-19108600D01*
X51876800Y-19191000D02*
X52029200Y-19191000D01*
%TO.N,Board_3-Net-(C3-Pad2)*%
X55471200Y-23036200D02*
X54922200Y-23585200D01*
X55471200Y-21019800D02*
X55471200Y-23036200D01*
%TO.N,Board_3-Net-(C4-Pad1)*%
X55458200Y-17336200D02*
X54937200Y-16815200D01*
X55419800Y-19330400D02*
X55458200Y-19368800D01*
X55458200Y-19368800D02*
X55458200Y-17336200D01*
%TO.N,Board_4-GND*%
X65049200Y-21223000D02*
X65049200Y-21045200D01*
X61454800Y-17284800D02*
X60985200Y-16815200D01*
X61454800Y-23100600D02*
X61454800Y-21260800D01*
X61454800Y-21223000D02*
X61454800Y-21260800D01*
X61454800Y-21260800D02*
X61454800Y-19280200D01*
X65049200Y-21045200D02*
X64262080Y-20258080D01*
X61454800Y-20181600D02*
X64223400Y-20181600D01*
X60970200Y-23585200D02*
X61454800Y-23100600D01*
X61454800Y-19191000D02*
X61454800Y-19280200D01*
X64262080Y-20142920D02*
X65036200Y-19368800D01*
X61454800Y-19280200D02*
X61454800Y-17284800D01*
X64223400Y-20181600D02*
X64262080Y-20142920D01*
X64262080Y-20258080D02*
X64262080Y-20142920D01*
X65036200Y-19191000D02*
X65036200Y-19368800D01*
%TO.N,Board_4-Net-(C1-Pad1)*%
X63004800Y-21223000D02*
X63182600Y-21223000D01*
X63510200Y-21550600D02*
X63510200Y-23585200D01*
X63182600Y-21223000D02*
X63510200Y-21550600D01*
%TO.N,Board_4-Net-(C2-Pad1)*%
X63525200Y-16815200D02*
X63525200Y-18823000D01*
X63239600Y-19108600D02*
X63004800Y-19343400D01*
X63525200Y-18823000D02*
X63239600Y-19108600D01*
X63157200Y-19191000D02*
X63239600Y-19108600D01*
X63004800Y-19191000D02*
X63157200Y-19191000D01*
%TO.N,Board_4-Net-(C3-Pad2)*%
X66599200Y-23036200D02*
X66050200Y-23585200D01*
X66599200Y-21019800D02*
X66599200Y-23036200D01*
%TO.N,Board_4-Net-(C4-Pad1)*%
X66586200Y-17336200D02*
X66065200Y-16815200D01*
X66547800Y-19330400D02*
X66586200Y-19368800D01*
X66586200Y-19368800D02*
X66586200Y-17336200D01*
%TO.N,Board_5-GND*%
X76177200Y-21223000D02*
X76177200Y-21045200D01*
X72582800Y-17284800D02*
X72113200Y-16815200D01*
X72582800Y-23100600D02*
X72582800Y-21260800D01*
X72582800Y-21223000D02*
X72582800Y-21260800D01*
X72582800Y-21260800D02*
X72582800Y-19280200D01*
X76177200Y-21045200D02*
X75390080Y-20258080D01*
X72582800Y-20181600D02*
X75351400Y-20181600D01*
X72098200Y-23585200D02*
X72582800Y-23100600D01*
X72582800Y-19191000D02*
X72582800Y-19280200D01*
X75390080Y-20142920D02*
X76164200Y-19368800D01*
X72582800Y-19280200D02*
X72582800Y-17284800D01*
X75351400Y-20181600D02*
X75390080Y-20142920D01*
X75390080Y-20258080D02*
X75390080Y-20142920D01*
X76164200Y-19191000D02*
X76164200Y-19368800D01*
%TO.N,Board_5-Net-(C1-Pad1)*%
X74132800Y-21223000D02*
X74310600Y-21223000D01*
X74638200Y-21550600D02*
X74638200Y-23585200D01*
X74310600Y-21223000D02*
X74638200Y-21550600D01*
%TO.N,Board_5-Net-(C2-Pad1)*%
X74653200Y-16815200D02*
X74653200Y-18823000D01*
X74367600Y-19108600D02*
X74132800Y-19343400D01*
X74653200Y-18823000D02*
X74367600Y-19108600D01*
X74285200Y-19191000D02*
X74367600Y-19108600D01*
X74132800Y-19191000D02*
X74285200Y-19191000D01*
%TO.N,Board_5-Net-(C3-Pad2)*%
X77727200Y-23036200D02*
X77178200Y-23585200D01*
X77727200Y-21019800D02*
X77727200Y-23036200D01*
%TO.N,Board_5-Net-(C4-Pad1)*%
X77714200Y-17336200D02*
X77193200Y-16815200D01*
X77675800Y-19330400D02*
X77714200Y-19368800D01*
X77714200Y-19368800D02*
X77714200Y-17336200D01*
%TO.N,Board_6-GND*%
X87305200Y-21223000D02*
X87305200Y-21045200D01*
X83710800Y-17284800D02*
X83241200Y-16815200D01*
X83710800Y-23100600D02*
X83710800Y-21260800D01*
X83710800Y-21223000D02*
X83710800Y-21260800D01*
X83710800Y-21260800D02*
X83710800Y-19280200D01*
X87305200Y-21045200D02*
X86518080Y-20258080D01*
X83710800Y-20181600D02*
X86479400Y-20181600D01*
X83226200Y-23585200D02*
X83710800Y-23100600D01*
X83710800Y-19191000D02*
X83710800Y-19280200D01*
X86518080Y-20142920D02*
X87292200Y-19368800D01*
X83710800Y-19280200D02*
X83710800Y-17284800D01*
X86479400Y-20181600D02*
X86518080Y-20142920D01*
X86518080Y-20258080D02*
X86518080Y-20142920D01*
X87292200Y-19191000D02*
X87292200Y-19368800D01*
%TO.N,Board_6-Net-(C1-Pad1)*%
X85260800Y-21223000D02*
X85438600Y-21223000D01*
X85766200Y-21550600D02*
X85766200Y-23585200D01*
X85438600Y-21223000D02*
X85766200Y-21550600D01*
%TO.N,Board_6-Net-(C2-Pad1)*%
X85781200Y-16815200D02*
X85781200Y-18823000D01*
X85495600Y-19108600D02*
X85260800Y-19343400D01*
X85781200Y-18823000D02*
X85495600Y-19108600D01*
X85413200Y-19191000D02*
X85495600Y-19108600D01*
X85260800Y-19191000D02*
X85413200Y-19191000D01*
%TO.N,Board_6-Net-(C3-Pad2)*%
X88855200Y-23036200D02*
X88306200Y-23585200D01*
X88855200Y-21019800D02*
X88855200Y-23036200D01*
%TO.N,Board_6-Net-(C4-Pad1)*%
X88842200Y-17336200D02*
X88321200Y-16815200D01*
X88803800Y-19330400D02*
X88842200Y-19368800D01*
X88842200Y-19368800D02*
X88842200Y-17336200D01*
%TO.N,Board_7-GND*%
X20537200Y-34637000D02*
X20537200Y-34459200D01*
X16942800Y-30698800D02*
X16473200Y-30229200D01*
X16942800Y-36514600D02*
X16942800Y-34674800D01*
X16942800Y-34637000D02*
X16942800Y-34674800D01*
X16942800Y-34674800D02*
X16942800Y-32694200D01*
X20537200Y-34459200D02*
X19750080Y-33672080D01*
X16942800Y-33595600D02*
X19711400Y-33595600D01*
X16458200Y-36999200D02*
X16942800Y-36514600D01*
X16942800Y-32605000D02*
X16942800Y-32694200D01*
X19750080Y-33556920D02*
X20524200Y-32782800D01*
X16942800Y-32694200D02*
X16942800Y-30698800D01*
X19711400Y-33595600D02*
X19750080Y-33556920D01*
X19750080Y-33672080D02*
X19750080Y-33556920D01*
X20524200Y-32605000D02*
X20524200Y-32782800D01*
%TO.N,Board_7-Net-(C1-Pad1)*%
X18492800Y-34637000D02*
X18670600Y-34637000D01*
X18998200Y-34964600D02*
X18998200Y-36999200D01*
X18670600Y-34637000D02*
X18998200Y-34964600D01*
%TO.N,Board_7-Net-(C2-Pad1)*%
X19013200Y-30229200D02*
X19013200Y-32237000D01*
X18727600Y-32522600D02*
X18492800Y-32757400D01*
X19013200Y-32237000D02*
X18727600Y-32522600D01*
X18645200Y-32605000D02*
X18727600Y-32522600D01*
X18492800Y-32605000D02*
X18645200Y-32605000D01*
%TO.N,Board_7-Net-(C3-Pad2)*%
X22087200Y-36450200D02*
X21538200Y-36999200D01*
X22087200Y-34433800D02*
X22087200Y-36450200D01*
%TO.N,Board_7-Net-(C4-Pad1)*%
X22074200Y-30750200D02*
X21553200Y-30229200D01*
X22035800Y-32744400D02*
X22074200Y-32782800D01*
X22074200Y-32782800D02*
X22074200Y-30750200D01*
%TO.N,Board_8-GND*%
X31665200Y-34637000D02*
X31665200Y-34459200D01*
X28070800Y-30698800D02*
X27601200Y-30229200D01*
X28070800Y-36514600D02*
X28070800Y-34674800D01*
X28070800Y-34637000D02*
X28070800Y-34674800D01*
X28070800Y-34674800D02*
X28070800Y-32694200D01*
X31665200Y-34459200D02*
X30878080Y-33672080D01*
X28070800Y-33595600D02*
X30839400Y-33595600D01*
X27586200Y-36999200D02*
X28070800Y-36514600D01*
X28070800Y-32605000D02*
X28070800Y-32694200D01*
X30878080Y-33556920D02*
X31652200Y-32782800D01*
X28070800Y-32694200D02*
X28070800Y-30698800D01*
X30839400Y-33595600D02*
X30878080Y-33556920D01*
X30878080Y-33672080D02*
X30878080Y-33556920D01*
X31652200Y-32605000D02*
X31652200Y-32782800D01*
%TO.N,Board_8-Net-(C1-Pad1)*%
X29620800Y-34637000D02*
X29798600Y-34637000D01*
X30126200Y-34964600D02*
X30126200Y-36999200D01*
X29798600Y-34637000D02*
X30126200Y-34964600D01*
%TO.N,Board_8-Net-(C2-Pad1)*%
X30141200Y-30229200D02*
X30141200Y-32237000D01*
X29855600Y-32522600D02*
X29620800Y-32757400D01*
X30141200Y-32237000D02*
X29855600Y-32522600D01*
X29773200Y-32605000D02*
X29855600Y-32522600D01*
X29620800Y-32605000D02*
X29773200Y-32605000D01*
%TO.N,Board_8-Net-(C3-Pad2)*%
X33215200Y-36450200D02*
X32666200Y-36999200D01*
X33215200Y-34433800D02*
X33215200Y-36450200D01*
%TO.N,Board_8-Net-(C4-Pad1)*%
X33202200Y-30750200D02*
X32681200Y-30229200D01*
X33163800Y-32744400D02*
X33202200Y-32782800D01*
X33202200Y-32782800D02*
X33202200Y-30750200D01*
%TO.N,Board_9-GND*%
X42793200Y-34637000D02*
X42793200Y-34459200D01*
X39198800Y-30698800D02*
X38729200Y-30229200D01*
X39198800Y-36514600D02*
X39198800Y-34674800D01*
X39198800Y-34637000D02*
X39198800Y-34674800D01*
X39198800Y-34674800D02*
X39198800Y-32694200D01*
X42793200Y-34459200D02*
X42006080Y-33672080D01*
X39198800Y-33595600D02*
X41967400Y-33595600D01*
X38714200Y-36999200D02*
X39198800Y-36514600D01*
X39198800Y-32605000D02*
X39198800Y-32694200D01*
X42006080Y-33556920D02*
X42780200Y-32782800D01*
X39198800Y-32694200D02*
X39198800Y-30698800D01*
X41967400Y-33595600D02*
X42006080Y-33556920D01*
X42006080Y-33672080D02*
X42006080Y-33556920D01*
X42780200Y-32605000D02*
X42780200Y-32782800D01*
%TO.N,Board_9-Net-(C1-Pad1)*%
X40748800Y-34637000D02*
X40926600Y-34637000D01*
X41254200Y-34964600D02*
X41254200Y-36999200D01*
X40926600Y-34637000D02*
X41254200Y-34964600D01*
%TO.N,Board_9-Net-(C2-Pad1)*%
X41269200Y-30229200D02*
X41269200Y-32237000D01*
X40983600Y-32522600D02*
X40748800Y-32757400D01*
X41269200Y-32237000D02*
X40983600Y-32522600D01*
X40901200Y-32605000D02*
X40983600Y-32522600D01*
X40748800Y-32605000D02*
X40901200Y-32605000D01*
%TO.N,Board_9-Net-(C3-Pad2)*%
X44343200Y-36450200D02*
X43794200Y-36999200D01*
X44343200Y-34433800D02*
X44343200Y-36450200D01*
%TO.N,Board_9-Net-(C4-Pad1)*%
X44330200Y-30750200D02*
X43809200Y-30229200D01*
X44291800Y-32744400D02*
X44330200Y-32782800D01*
X44330200Y-32782800D02*
X44330200Y-30750200D01*
%TO.N,Board_10-GND*%
X53921200Y-34637000D02*
X53921200Y-34459200D01*
X50326800Y-30698800D02*
X49857200Y-30229200D01*
X50326800Y-36514600D02*
X50326800Y-34674800D01*
X50326800Y-34637000D02*
X50326800Y-34674800D01*
X50326800Y-34674800D02*
X50326800Y-32694200D01*
X53921200Y-34459200D02*
X53134080Y-33672080D01*
X50326800Y-33595600D02*
X53095400Y-33595600D01*
X49842200Y-36999200D02*
X50326800Y-36514600D01*
X50326800Y-32605000D02*
X50326800Y-32694200D01*
X53134080Y-33556920D02*
X53908200Y-32782800D01*
X50326800Y-32694200D02*
X50326800Y-30698800D01*
X53095400Y-33595600D02*
X53134080Y-33556920D01*
X53134080Y-33672080D02*
X53134080Y-33556920D01*
X53908200Y-32605000D02*
X53908200Y-32782800D01*
%TO.N,Board_10-Net-(C1-Pad1)*%
X51876800Y-34637000D02*
X52054600Y-34637000D01*
X52382200Y-34964600D02*
X52382200Y-36999200D01*
X52054600Y-34637000D02*
X52382200Y-34964600D01*
%TO.N,Board_10-Net-(C2-Pad1)*%
X52397200Y-30229200D02*
X52397200Y-32237000D01*
X52111600Y-32522600D02*
X51876800Y-32757400D01*
X52397200Y-32237000D02*
X52111600Y-32522600D01*
X52029200Y-32605000D02*
X52111600Y-32522600D01*
X51876800Y-32605000D02*
X52029200Y-32605000D01*
%TO.N,Board_10-Net-(C3-Pad2)*%
X55471200Y-36450200D02*
X54922200Y-36999200D01*
X55471200Y-34433800D02*
X55471200Y-36450200D01*
%TO.N,Board_10-Net-(C4-Pad1)*%
X55458200Y-30750200D02*
X54937200Y-30229200D01*
X55419800Y-32744400D02*
X55458200Y-32782800D01*
X55458200Y-32782800D02*
X55458200Y-30750200D01*
%TO.N,Board_11-GND*%
X65049200Y-34637000D02*
X65049200Y-34459200D01*
X61454800Y-30698800D02*
X60985200Y-30229200D01*
X61454800Y-36514600D02*
X61454800Y-34674800D01*
X61454800Y-34637000D02*
X61454800Y-34674800D01*
X61454800Y-34674800D02*
X61454800Y-32694200D01*
X65049200Y-34459200D02*
X64262080Y-33672080D01*
X61454800Y-33595600D02*
X64223400Y-33595600D01*
X60970200Y-36999200D02*
X61454800Y-36514600D01*
X61454800Y-32605000D02*
X61454800Y-32694200D01*
X64262080Y-33556920D02*
X65036200Y-32782800D01*
X61454800Y-32694200D02*
X61454800Y-30698800D01*
X64223400Y-33595600D02*
X64262080Y-33556920D01*
X64262080Y-33672080D02*
X64262080Y-33556920D01*
X65036200Y-32605000D02*
X65036200Y-32782800D01*
%TO.N,Board_11-Net-(C1-Pad1)*%
X63004800Y-34637000D02*
X63182600Y-34637000D01*
X63510200Y-34964600D02*
X63510200Y-36999200D01*
X63182600Y-34637000D02*
X63510200Y-34964600D01*
%TO.N,Board_11-Net-(C2-Pad1)*%
X63525200Y-30229200D02*
X63525200Y-32237000D01*
X63239600Y-32522600D02*
X63004800Y-32757400D01*
X63525200Y-32237000D02*
X63239600Y-32522600D01*
X63157200Y-32605000D02*
X63239600Y-32522600D01*
X63004800Y-32605000D02*
X63157200Y-32605000D01*
%TO.N,Board_11-Net-(C3-Pad2)*%
X66599200Y-36450200D02*
X66050200Y-36999200D01*
X66599200Y-34433800D02*
X66599200Y-36450200D01*
%TO.N,Board_11-Net-(C4-Pad1)*%
X66586200Y-30750200D02*
X66065200Y-30229200D01*
X66547800Y-32744400D02*
X66586200Y-32782800D01*
X66586200Y-32782800D02*
X66586200Y-30750200D01*
%TO.N,Board_12-GND*%
X76177200Y-34637000D02*
X76177200Y-34459200D01*
X72582800Y-30698800D02*
X72113200Y-30229200D01*
X72582800Y-36514600D02*
X72582800Y-34674800D01*
X72582800Y-34637000D02*
X72582800Y-34674800D01*
X72582800Y-34674800D02*
X72582800Y-32694200D01*
X76177200Y-34459200D02*
X75390080Y-33672080D01*
X72582800Y-33595600D02*
X75351400Y-33595600D01*
X72098200Y-36999200D02*
X72582800Y-36514600D01*
X72582800Y-32605000D02*
X72582800Y-32694200D01*
X75390080Y-33556920D02*
X76164200Y-32782800D01*
X72582800Y-32694200D02*
X72582800Y-30698800D01*
X75351400Y-33595600D02*
X75390080Y-33556920D01*
X75390080Y-33672080D02*
X75390080Y-33556920D01*
X76164200Y-32605000D02*
X76164200Y-32782800D01*
%TO.N,Board_12-Net-(C1-Pad1)*%
X74132800Y-34637000D02*
X74310600Y-34637000D01*
X74638200Y-34964600D02*
X74638200Y-36999200D01*
X74310600Y-34637000D02*
X74638200Y-34964600D01*
%TO.N,Board_12-Net-(C2-Pad1)*%
X74653200Y-30229200D02*
X74653200Y-32237000D01*
X74367600Y-32522600D02*
X74132800Y-32757400D01*
X74653200Y-32237000D02*
X74367600Y-32522600D01*
X74285200Y-32605000D02*
X74367600Y-32522600D01*
X74132800Y-32605000D02*
X74285200Y-32605000D01*
%TO.N,Board_12-Net-(C3-Pad2)*%
X77727200Y-36450200D02*
X77178200Y-36999200D01*
X77727200Y-34433800D02*
X77727200Y-36450200D01*
%TO.N,Board_12-Net-(C4-Pad1)*%
X77714200Y-30750200D02*
X77193200Y-30229200D01*
X77675800Y-32744400D02*
X77714200Y-32782800D01*
X77714200Y-32782800D02*
X77714200Y-30750200D01*
%TO.N,Board_13-GND*%
X87305200Y-34637000D02*
X87305200Y-34459200D01*
X83710800Y-30698800D02*
X83241200Y-30229200D01*
X83710800Y-36514600D02*
X83710800Y-34674800D01*
X83710800Y-34637000D02*
X83710800Y-34674800D01*
X83710800Y-34674800D02*
X83710800Y-32694200D01*
X87305200Y-34459200D02*
X86518080Y-33672080D01*
X83710800Y-33595600D02*
X86479400Y-33595600D01*
X83226200Y-36999200D02*
X83710800Y-36514600D01*
X83710800Y-32605000D02*
X83710800Y-32694200D01*
X86518080Y-33556920D02*
X87292200Y-32782800D01*
X83710800Y-32694200D02*
X83710800Y-30698800D01*
X86479400Y-33595600D02*
X86518080Y-33556920D01*
X86518080Y-33672080D02*
X86518080Y-33556920D01*
X87292200Y-32605000D02*
X87292200Y-32782800D01*
%TO.N,Board_13-Net-(C1-Pad1)*%
X85260800Y-34637000D02*
X85438600Y-34637000D01*
X85766200Y-34964600D02*
X85766200Y-36999200D01*
X85438600Y-34637000D02*
X85766200Y-34964600D01*
%TO.N,Board_13-Net-(C2-Pad1)*%
X85781200Y-30229200D02*
X85781200Y-32237000D01*
X85495600Y-32522600D02*
X85260800Y-32757400D01*
X85781200Y-32237000D02*
X85495600Y-32522600D01*
X85413200Y-32605000D02*
X85495600Y-32522600D01*
X85260800Y-32605000D02*
X85413200Y-32605000D01*
%TO.N,Board_13-Net-(C3-Pad2)*%
X88855200Y-36450200D02*
X88306200Y-36999200D01*
X88855200Y-34433800D02*
X88855200Y-36450200D01*
%TO.N,Board_13-Net-(C4-Pad1)*%
X88842200Y-30750200D02*
X88321200Y-30229200D01*
X88803800Y-32744400D02*
X88842200Y-32782800D01*
X88842200Y-32782800D02*
X88842200Y-30750200D01*
%TO.N,Board_14-GND*%
X20537200Y-48051000D02*
X20537200Y-47873200D01*
X16942800Y-44112800D02*
X16473200Y-43643200D01*
X16942800Y-49928600D02*
X16942800Y-48088800D01*
X16942800Y-48051000D02*
X16942800Y-48088800D01*
X16942800Y-48088800D02*
X16942800Y-46108200D01*
X20537200Y-47873200D02*
X19750080Y-47086080D01*
X16942800Y-47009600D02*
X19711400Y-47009600D01*
X16458200Y-50413200D02*
X16942800Y-49928600D01*
X16942800Y-46019000D02*
X16942800Y-46108200D01*
X19750080Y-46970920D02*
X20524200Y-46196800D01*
X16942800Y-46108200D02*
X16942800Y-44112800D01*
X19711400Y-47009600D02*
X19750080Y-46970920D01*
X19750080Y-47086080D02*
X19750080Y-46970920D01*
X20524200Y-46019000D02*
X20524200Y-46196800D01*
%TO.N,Board_14-Net-(C1-Pad1)*%
X18492800Y-48051000D02*
X18670600Y-48051000D01*
X18998200Y-48378600D02*
X18998200Y-50413200D01*
X18670600Y-48051000D02*
X18998200Y-48378600D01*
%TO.N,Board_14-Net-(C2-Pad1)*%
X19013200Y-43643200D02*
X19013200Y-45651000D01*
X18727600Y-45936600D02*
X18492800Y-46171400D01*
X19013200Y-45651000D02*
X18727600Y-45936600D01*
X18645200Y-46019000D02*
X18727600Y-45936600D01*
X18492800Y-46019000D02*
X18645200Y-46019000D01*
%TO.N,Board_14-Net-(C3-Pad2)*%
X22087200Y-49864200D02*
X21538200Y-50413200D01*
X22087200Y-47847800D02*
X22087200Y-49864200D01*
%TO.N,Board_14-Net-(C4-Pad1)*%
X22074200Y-44164200D02*
X21553200Y-43643200D01*
X22035800Y-46158400D02*
X22074200Y-46196800D01*
X22074200Y-46196800D02*
X22074200Y-44164200D01*
%TO.N,Board_15-GND*%
X31665200Y-48051000D02*
X31665200Y-47873200D01*
X28070800Y-44112800D02*
X27601200Y-43643200D01*
X28070800Y-49928600D02*
X28070800Y-48088800D01*
X28070800Y-48051000D02*
X28070800Y-48088800D01*
X28070800Y-48088800D02*
X28070800Y-46108200D01*
X31665200Y-47873200D02*
X30878080Y-47086080D01*
X28070800Y-47009600D02*
X30839400Y-47009600D01*
X27586200Y-50413200D02*
X28070800Y-49928600D01*
X28070800Y-46019000D02*
X28070800Y-46108200D01*
X30878080Y-46970920D02*
X31652200Y-46196800D01*
X28070800Y-46108200D02*
X28070800Y-44112800D01*
X30839400Y-47009600D02*
X30878080Y-46970920D01*
X30878080Y-47086080D02*
X30878080Y-46970920D01*
X31652200Y-46019000D02*
X31652200Y-46196800D01*
%TO.N,Board_15-Net-(C1-Pad1)*%
X29620800Y-48051000D02*
X29798600Y-48051000D01*
X30126200Y-48378600D02*
X30126200Y-50413200D01*
X29798600Y-48051000D02*
X30126200Y-48378600D01*
%TO.N,Board_15-Net-(C2-Pad1)*%
X30141200Y-43643200D02*
X30141200Y-45651000D01*
X29855600Y-45936600D02*
X29620800Y-46171400D01*
X30141200Y-45651000D02*
X29855600Y-45936600D01*
X29773200Y-46019000D02*
X29855600Y-45936600D01*
X29620800Y-46019000D02*
X29773200Y-46019000D01*
%TO.N,Board_15-Net-(C3-Pad2)*%
X33215200Y-49864200D02*
X32666200Y-50413200D01*
X33215200Y-47847800D02*
X33215200Y-49864200D01*
%TO.N,Board_15-Net-(C4-Pad1)*%
X33202200Y-44164200D02*
X32681200Y-43643200D01*
X33163800Y-46158400D02*
X33202200Y-46196800D01*
X33202200Y-46196800D02*
X33202200Y-44164200D01*
%TO.N,Board_16-GND*%
X42793200Y-48051000D02*
X42793200Y-47873200D01*
X39198800Y-44112800D02*
X38729200Y-43643200D01*
X39198800Y-49928600D02*
X39198800Y-48088800D01*
X39198800Y-48051000D02*
X39198800Y-48088800D01*
X39198800Y-48088800D02*
X39198800Y-46108200D01*
X42793200Y-47873200D02*
X42006080Y-47086080D01*
X39198800Y-47009600D02*
X41967400Y-47009600D01*
X38714200Y-50413200D02*
X39198800Y-49928600D01*
X39198800Y-46019000D02*
X39198800Y-46108200D01*
X42006080Y-46970920D02*
X42780200Y-46196800D01*
X39198800Y-46108200D02*
X39198800Y-44112800D01*
X41967400Y-47009600D02*
X42006080Y-46970920D01*
X42006080Y-47086080D02*
X42006080Y-46970920D01*
X42780200Y-46019000D02*
X42780200Y-46196800D01*
%TO.N,Board_16-Net-(C1-Pad1)*%
X40748800Y-48051000D02*
X40926600Y-48051000D01*
X41254200Y-48378600D02*
X41254200Y-50413200D01*
X40926600Y-48051000D02*
X41254200Y-48378600D01*
%TO.N,Board_16-Net-(C2-Pad1)*%
X41269200Y-43643200D02*
X41269200Y-45651000D01*
X40983600Y-45936600D02*
X40748800Y-46171400D01*
X41269200Y-45651000D02*
X40983600Y-45936600D01*
X40901200Y-46019000D02*
X40983600Y-45936600D01*
X40748800Y-46019000D02*
X40901200Y-46019000D01*
%TO.N,Board_16-Net-(C3-Pad2)*%
X44343200Y-49864200D02*
X43794200Y-50413200D01*
X44343200Y-47847800D02*
X44343200Y-49864200D01*
%TO.N,Board_16-Net-(C4-Pad1)*%
X44330200Y-44164200D02*
X43809200Y-43643200D01*
X44291800Y-46158400D02*
X44330200Y-46196800D01*
X44330200Y-46196800D02*
X44330200Y-44164200D01*
%TO.N,Board_17-GND*%
X53921200Y-48051000D02*
X53921200Y-47873200D01*
X50326800Y-44112800D02*
X49857200Y-43643200D01*
X50326800Y-49928600D02*
X50326800Y-48088800D01*
X50326800Y-48051000D02*
X50326800Y-48088800D01*
X50326800Y-48088800D02*
X50326800Y-46108200D01*
X53921200Y-47873200D02*
X53134080Y-47086080D01*
X50326800Y-47009600D02*
X53095400Y-47009600D01*
X49842200Y-50413200D02*
X50326800Y-49928600D01*
X50326800Y-46019000D02*
X50326800Y-46108200D01*
X53134080Y-46970920D02*
X53908200Y-46196800D01*
X50326800Y-46108200D02*
X50326800Y-44112800D01*
X53095400Y-47009600D02*
X53134080Y-46970920D01*
X53134080Y-47086080D02*
X53134080Y-46970920D01*
X53908200Y-46019000D02*
X53908200Y-46196800D01*
%TO.N,Board_17-Net-(C1-Pad1)*%
X51876800Y-48051000D02*
X52054600Y-48051000D01*
X52382200Y-48378600D02*
X52382200Y-50413200D01*
X52054600Y-48051000D02*
X52382200Y-48378600D01*
%TO.N,Board_17-Net-(C2-Pad1)*%
X52397200Y-43643200D02*
X52397200Y-45651000D01*
X52111600Y-45936600D02*
X51876800Y-46171400D01*
X52397200Y-45651000D02*
X52111600Y-45936600D01*
X52029200Y-46019000D02*
X52111600Y-45936600D01*
X51876800Y-46019000D02*
X52029200Y-46019000D01*
%TO.N,Board_17-Net-(C3-Pad2)*%
X55471200Y-49864200D02*
X54922200Y-50413200D01*
X55471200Y-47847800D02*
X55471200Y-49864200D01*
%TO.N,Board_17-Net-(C4-Pad1)*%
X55458200Y-44164200D02*
X54937200Y-43643200D01*
X55419800Y-46158400D02*
X55458200Y-46196800D01*
X55458200Y-46196800D02*
X55458200Y-44164200D01*
%TO.N,Board_18-GND*%
X65049200Y-48051000D02*
X65049200Y-47873200D01*
X61454800Y-44112800D02*
X60985200Y-43643200D01*
X61454800Y-49928600D02*
X61454800Y-48088800D01*
X61454800Y-48051000D02*
X61454800Y-48088800D01*
X61454800Y-48088800D02*
X61454800Y-46108200D01*
X65049200Y-47873200D02*
X64262080Y-47086080D01*
X61454800Y-47009600D02*
X64223400Y-47009600D01*
X60970200Y-50413200D02*
X61454800Y-49928600D01*
X61454800Y-46019000D02*
X61454800Y-46108200D01*
X64262080Y-46970920D02*
X65036200Y-46196800D01*
X61454800Y-46108200D02*
X61454800Y-44112800D01*
X64223400Y-47009600D02*
X64262080Y-46970920D01*
X64262080Y-47086080D02*
X64262080Y-46970920D01*
X65036200Y-46019000D02*
X65036200Y-46196800D01*
%TO.N,Board_18-Net-(C1-Pad1)*%
X63004800Y-48051000D02*
X63182600Y-48051000D01*
X63510200Y-48378600D02*
X63510200Y-50413200D01*
X63182600Y-48051000D02*
X63510200Y-48378600D01*
%TO.N,Board_18-Net-(C2-Pad1)*%
X63525200Y-43643200D02*
X63525200Y-45651000D01*
X63239600Y-45936600D02*
X63004800Y-46171400D01*
X63525200Y-45651000D02*
X63239600Y-45936600D01*
X63157200Y-46019000D02*
X63239600Y-45936600D01*
X63004800Y-46019000D02*
X63157200Y-46019000D01*
%TO.N,Board_18-Net-(C3-Pad2)*%
X66599200Y-49864200D02*
X66050200Y-50413200D01*
X66599200Y-47847800D02*
X66599200Y-49864200D01*
%TO.N,Board_18-Net-(C4-Pad1)*%
X66586200Y-44164200D02*
X66065200Y-43643200D01*
X66547800Y-46158400D02*
X66586200Y-46196800D01*
X66586200Y-46196800D02*
X66586200Y-44164200D01*
%TO.N,Board_19-GND*%
X76177200Y-48051000D02*
X76177200Y-47873200D01*
X72582800Y-44112800D02*
X72113200Y-43643200D01*
X72582800Y-49928600D02*
X72582800Y-48088800D01*
X72582800Y-48051000D02*
X72582800Y-48088800D01*
X72582800Y-48088800D02*
X72582800Y-46108200D01*
X76177200Y-47873200D02*
X75390080Y-47086080D01*
X72582800Y-47009600D02*
X75351400Y-47009600D01*
X72098200Y-50413200D02*
X72582800Y-49928600D01*
X72582800Y-46019000D02*
X72582800Y-46108200D01*
X75390080Y-46970920D02*
X76164200Y-46196800D01*
X72582800Y-46108200D02*
X72582800Y-44112800D01*
X75351400Y-47009600D02*
X75390080Y-46970920D01*
X75390080Y-47086080D02*
X75390080Y-46970920D01*
X76164200Y-46019000D02*
X76164200Y-46196800D01*
%TO.N,Board_19-Net-(C1-Pad1)*%
X74132800Y-48051000D02*
X74310600Y-48051000D01*
X74638200Y-48378600D02*
X74638200Y-50413200D01*
X74310600Y-48051000D02*
X74638200Y-48378600D01*
%TO.N,Board_19-Net-(C2-Pad1)*%
X74653200Y-43643200D02*
X74653200Y-45651000D01*
X74367600Y-45936600D02*
X74132800Y-46171400D01*
X74653200Y-45651000D02*
X74367600Y-45936600D01*
X74285200Y-46019000D02*
X74367600Y-45936600D01*
X74132800Y-46019000D02*
X74285200Y-46019000D01*
%TO.N,Board_19-Net-(C3-Pad2)*%
X77727200Y-49864200D02*
X77178200Y-50413200D01*
X77727200Y-47847800D02*
X77727200Y-49864200D01*
%TO.N,Board_19-Net-(C4-Pad1)*%
X77714200Y-44164200D02*
X77193200Y-43643200D01*
X77675800Y-46158400D02*
X77714200Y-46196800D01*
X77714200Y-46196800D02*
X77714200Y-44164200D01*
%TO.N,Board_20-GND*%
X87305200Y-48051000D02*
X87305200Y-47873200D01*
X83710800Y-44112800D02*
X83241200Y-43643200D01*
X83710800Y-49928600D02*
X83710800Y-48088800D01*
X83710800Y-48051000D02*
X83710800Y-48088800D01*
X83710800Y-48088800D02*
X83710800Y-46108200D01*
X87305200Y-47873200D02*
X86518080Y-47086080D01*
X83710800Y-47009600D02*
X86479400Y-47009600D01*
X83226200Y-50413200D02*
X83710800Y-49928600D01*
X83710800Y-46019000D02*
X83710800Y-46108200D01*
X86518080Y-46970920D02*
X87292200Y-46196800D01*
X83710800Y-46108200D02*
X83710800Y-44112800D01*
X86479400Y-47009600D02*
X86518080Y-46970920D01*
X86518080Y-47086080D02*
X86518080Y-46970920D01*
X87292200Y-46019000D02*
X87292200Y-46196800D01*
%TO.N,Board_20-Net-(C1-Pad1)*%
X85260800Y-48051000D02*
X85438600Y-48051000D01*
X85766200Y-48378600D02*
X85766200Y-50413200D01*
X85438600Y-48051000D02*
X85766200Y-48378600D01*
%TO.N,Board_20-Net-(C2-Pad1)*%
X85781200Y-43643200D02*
X85781200Y-45651000D01*
X85495600Y-45936600D02*
X85260800Y-46171400D01*
X85781200Y-45651000D02*
X85495600Y-45936600D01*
X85413200Y-46019000D02*
X85495600Y-45936600D01*
X85260800Y-46019000D02*
X85413200Y-46019000D01*
%TO.N,Board_20-Net-(C3-Pad2)*%
X88855200Y-49864200D02*
X88306200Y-50413200D01*
X88855200Y-47847800D02*
X88855200Y-49864200D01*
%TO.N,Board_20-Net-(C4-Pad1)*%
X88842200Y-44164200D02*
X88321200Y-43643200D01*
X88803800Y-46158400D02*
X88842200Y-46196800D01*
X88842200Y-46196800D02*
X88842200Y-44164200D01*
%TO.N,Board_21-GND*%
X20537200Y-61465000D02*
X20537200Y-61287200D01*
X16942800Y-57526800D02*
X16473200Y-57057200D01*
X16942800Y-63342600D02*
X16942800Y-61502800D01*
X16942800Y-61465000D02*
X16942800Y-61502800D01*
X16942800Y-61502800D02*
X16942800Y-59522200D01*
X20537200Y-61287200D02*
X19750080Y-60500080D01*
X16942800Y-60423600D02*
X19711400Y-60423600D01*
X16458200Y-63827200D02*
X16942800Y-63342600D01*
X16942800Y-59433000D02*
X16942800Y-59522200D01*
X19750080Y-60384920D02*
X20524200Y-59610800D01*
X16942800Y-59522200D02*
X16942800Y-57526800D01*
X19711400Y-60423600D02*
X19750080Y-60384920D01*
X19750080Y-60500080D02*
X19750080Y-60384920D01*
X20524200Y-59433000D02*
X20524200Y-59610800D01*
%TO.N,Board_21-Net-(C1-Pad1)*%
X18492800Y-61465000D02*
X18670600Y-61465000D01*
X18998200Y-61792600D02*
X18998200Y-63827200D01*
X18670600Y-61465000D02*
X18998200Y-61792600D01*
%TO.N,Board_21-Net-(C2-Pad1)*%
X19013200Y-57057200D02*
X19013200Y-59065000D01*
X18727600Y-59350600D02*
X18492800Y-59585400D01*
X19013200Y-59065000D02*
X18727600Y-59350600D01*
X18645200Y-59433000D02*
X18727600Y-59350600D01*
X18492800Y-59433000D02*
X18645200Y-59433000D01*
%TO.N,Board_21-Net-(C3-Pad2)*%
X22087200Y-63278200D02*
X21538200Y-63827200D01*
X22087200Y-61261800D02*
X22087200Y-63278200D01*
%TO.N,Board_21-Net-(C4-Pad1)*%
X22074200Y-57578200D02*
X21553200Y-57057200D01*
X22035800Y-59572400D02*
X22074200Y-59610800D01*
X22074200Y-59610800D02*
X22074200Y-57578200D01*
%TO.N,Board_22-GND*%
X31665200Y-61465000D02*
X31665200Y-61287200D01*
X28070800Y-57526800D02*
X27601200Y-57057200D01*
X28070800Y-63342600D02*
X28070800Y-61502800D01*
X28070800Y-61465000D02*
X28070800Y-61502800D01*
X28070800Y-61502800D02*
X28070800Y-59522200D01*
X31665200Y-61287200D02*
X30878080Y-60500080D01*
X28070800Y-60423600D02*
X30839400Y-60423600D01*
X27586200Y-63827200D02*
X28070800Y-63342600D01*
X28070800Y-59433000D02*
X28070800Y-59522200D01*
X30878080Y-60384920D02*
X31652200Y-59610800D01*
X28070800Y-59522200D02*
X28070800Y-57526800D01*
X30839400Y-60423600D02*
X30878080Y-60384920D01*
X30878080Y-60500080D02*
X30878080Y-60384920D01*
X31652200Y-59433000D02*
X31652200Y-59610800D01*
%TO.N,Board_22-Net-(C1-Pad1)*%
X29620800Y-61465000D02*
X29798600Y-61465000D01*
X30126200Y-61792600D02*
X30126200Y-63827200D01*
X29798600Y-61465000D02*
X30126200Y-61792600D01*
%TO.N,Board_22-Net-(C2-Pad1)*%
X30141200Y-57057200D02*
X30141200Y-59065000D01*
X29855600Y-59350600D02*
X29620800Y-59585400D01*
X30141200Y-59065000D02*
X29855600Y-59350600D01*
X29773200Y-59433000D02*
X29855600Y-59350600D01*
X29620800Y-59433000D02*
X29773200Y-59433000D01*
%TO.N,Board_22-Net-(C3-Pad2)*%
X33215200Y-63278200D02*
X32666200Y-63827200D01*
X33215200Y-61261800D02*
X33215200Y-63278200D01*
%TO.N,Board_22-Net-(C4-Pad1)*%
X33202200Y-57578200D02*
X32681200Y-57057200D01*
X33163800Y-59572400D02*
X33202200Y-59610800D01*
X33202200Y-59610800D02*
X33202200Y-57578200D01*
%TO.N,Board_23-GND*%
X42793200Y-61465000D02*
X42793200Y-61287200D01*
X39198800Y-57526800D02*
X38729200Y-57057200D01*
X39198800Y-63342600D02*
X39198800Y-61502800D01*
X39198800Y-61465000D02*
X39198800Y-61502800D01*
X39198800Y-61502800D02*
X39198800Y-59522200D01*
X42793200Y-61287200D02*
X42006080Y-60500080D01*
X39198800Y-60423600D02*
X41967400Y-60423600D01*
X38714200Y-63827200D02*
X39198800Y-63342600D01*
X39198800Y-59433000D02*
X39198800Y-59522200D01*
X42006080Y-60384920D02*
X42780200Y-59610800D01*
X39198800Y-59522200D02*
X39198800Y-57526800D01*
X41967400Y-60423600D02*
X42006080Y-60384920D01*
X42006080Y-60500080D02*
X42006080Y-60384920D01*
X42780200Y-59433000D02*
X42780200Y-59610800D01*
%TO.N,Board_23-Net-(C1-Pad1)*%
X40748800Y-61465000D02*
X40926600Y-61465000D01*
X41254200Y-61792600D02*
X41254200Y-63827200D01*
X40926600Y-61465000D02*
X41254200Y-61792600D01*
%TO.N,Board_23-Net-(C2-Pad1)*%
X41269200Y-57057200D02*
X41269200Y-59065000D01*
X40983600Y-59350600D02*
X40748800Y-59585400D01*
X41269200Y-59065000D02*
X40983600Y-59350600D01*
X40901200Y-59433000D02*
X40983600Y-59350600D01*
X40748800Y-59433000D02*
X40901200Y-59433000D01*
%TO.N,Board_23-Net-(C3-Pad2)*%
X44343200Y-63278200D02*
X43794200Y-63827200D01*
X44343200Y-61261800D02*
X44343200Y-63278200D01*
%TO.N,Board_23-Net-(C4-Pad1)*%
X44330200Y-57578200D02*
X43809200Y-57057200D01*
X44291800Y-59572400D02*
X44330200Y-59610800D01*
X44330200Y-59610800D02*
X44330200Y-57578200D01*
%TO.N,Board_24-GND*%
X53921200Y-61465000D02*
X53921200Y-61287200D01*
X50326800Y-57526800D02*
X49857200Y-57057200D01*
X50326800Y-63342600D02*
X50326800Y-61502800D01*
X50326800Y-61465000D02*
X50326800Y-61502800D01*
X50326800Y-61502800D02*
X50326800Y-59522200D01*
X53921200Y-61287200D02*
X53134080Y-60500080D01*
X50326800Y-60423600D02*
X53095400Y-60423600D01*
X49842200Y-63827200D02*
X50326800Y-63342600D01*
X50326800Y-59433000D02*
X50326800Y-59522200D01*
X53134080Y-60384920D02*
X53908200Y-59610800D01*
X50326800Y-59522200D02*
X50326800Y-57526800D01*
X53095400Y-60423600D02*
X53134080Y-60384920D01*
X53134080Y-60500080D02*
X53134080Y-60384920D01*
X53908200Y-59433000D02*
X53908200Y-59610800D01*
%TO.N,Board_24-Net-(C1-Pad1)*%
X51876800Y-61465000D02*
X52054600Y-61465000D01*
X52382200Y-61792600D02*
X52382200Y-63827200D01*
X52054600Y-61465000D02*
X52382200Y-61792600D01*
%TO.N,Board_24-Net-(C2-Pad1)*%
X52397200Y-57057200D02*
X52397200Y-59065000D01*
X52111600Y-59350600D02*
X51876800Y-59585400D01*
X52397200Y-59065000D02*
X52111600Y-59350600D01*
X52029200Y-59433000D02*
X52111600Y-59350600D01*
X51876800Y-59433000D02*
X52029200Y-59433000D01*
%TO.N,Board_24-Net-(C3-Pad2)*%
X55471200Y-63278200D02*
X54922200Y-63827200D01*
X55471200Y-61261800D02*
X55471200Y-63278200D01*
%TO.N,Board_24-Net-(C4-Pad1)*%
X55458200Y-57578200D02*
X54937200Y-57057200D01*
X55419800Y-59572400D02*
X55458200Y-59610800D01*
X55458200Y-59610800D02*
X55458200Y-57578200D01*
%TO.N,Board_25-GND*%
X65049200Y-61465000D02*
X65049200Y-61287200D01*
X61454800Y-57526800D02*
X60985200Y-57057200D01*
X61454800Y-63342600D02*
X61454800Y-61502800D01*
X61454800Y-61465000D02*
X61454800Y-61502800D01*
X61454800Y-61502800D02*
X61454800Y-59522200D01*
X65049200Y-61287200D02*
X64262080Y-60500080D01*
X61454800Y-60423600D02*
X64223400Y-60423600D01*
X60970200Y-63827200D02*
X61454800Y-63342600D01*
X61454800Y-59433000D02*
X61454800Y-59522200D01*
X64262080Y-60384920D02*
X65036200Y-59610800D01*
X61454800Y-59522200D02*
X61454800Y-57526800D01*
X64223400Y-60423600D02*
X64262080Y-60384920D01*
X64262080Y-60500080D02*
X64262080Y-60384920D01*
X65036200Y-59433000D02*
X65036200Y-59610800D01*
%TO.N,Board_25-Net-(C1-Pad1)*%
X63004800Y-61465000D02*
X63182600Y-61465000D01*
X63510200Y-61792600D02*
X63510200Y-63827200D01*
X63182600Y-61465000D02*
X63510200Y-61792600D01*
%TO.N,Board_25-Net-(C2-Pad1)*%
X63525200Y-57057200D02*
X63525200Y-59065000D01*
X63239600Y-59350600D02*
X63004800Y-59585400D01*
X63525200Y-59065000D02*
X63239600Y-59350600D01*
X63157200Y-59433000D02*
X63239600Y-59350600D01*
X63004800Y-59433000D02*
X63157200Y-59433000D01*
%TO.N,Board_25-Net-(C3-Pad2)*%
X66599200Y-63278200D02*
X66050200Y-63827200D01*
X66599200Y-61261800D02*
X66599200Y-63278200D01*
%TO.N,Board_25-Net-(C4-Pad1)*%
X66586200Y-57578200D02*
X66065200Y-57057200D01*
X66547800Y-59572400D02*
X66586200Y-59610800D01*
X66586200Y-59610800D02*
X66586200Y-57578200D01*
%TO.N,Board_26-GND*%
X76177200Y-61465000D02*
X76177200Y-61287200D01*
X72582800Y-57526800D02*
X72113200Y-57057200D01*
X72582800Y-63342600D02*
X72582800Y-61502800D01*
X72582800Y-61465000D02*
X72582800Y-61502800D01*
X72582800Y-61502800D02*
X72582800Y-59522200D01*
X76177200Y-61287200D02*
X75390080Y-60500080D01*
X72582800Y-60423600D02*
X75351400Y-60423600D01*
X72098200Y-63827200D02*
X72582800Y-63342600D01*
X72582800Y-59433000D02*
X72582800Y-59522200D01*
X75390080Y-60384920D02*
X76164200Y-59610800D01*
X72582800Y-59522200D02*
X72582800Y-57526800D01*
X75351400Y-60423600D02*
X75390080Y-60384920D01*
X75390080Y-60500080D02*
X75390080Y-60384920D01*
X76164200Y-59433000D02*
X76164200Y-59610800D01*
%TO.N,Board_26-Net-(C1-Pad1)*%
X74132800Y-61465000D02*
X74310600Y-61465000D01*
X74638200Y-61792600D02*
X74638200Y-63827200D01*
X74310600Y-61465000D02*
X74638200Y-61792600D01*
%TO.N,Board_26-Net-(C2-Pad1)*%
X74653200Y-57057200D02*
X74653200Y-59065000D01*
X74367600Y-59350600D02*
X74132800Y-59585400D01*
X74653200Y-59065000D02*
X74367600Y-59350600D01*
X74285200Y-59433000D02*
X74367600Y-59350600D01*
X74132800Y-59433000D02*
X74285200Y-59433000D01*
%TO.N,Board_26-Net-(C3-Pad2)*%
X77727200Y-63278200D02*
X77178200Y-63827200D01*
X77727200Y-61261800D02*
X77727200Y-63278200D01*
%TO.N,Board_26-Net-(C4-Pad1)*%
X77714200Y-57578200D02*
X77193200Y-57057200D01*
X77675800Y-59572400D02*
X77714200Y-59610800D01*
X77714200Y-59610800D02*
X77714200Y-57578200D01*
%TO.N,Board_27-GND*%
X87305200Y-61465000D02*
X87305200Y-61287200D01*
X83710800Y-57526800D02*
X83241200Y-57057200D01*
X83710800Y-63342600D02*
X83710800Y-61502800D01*
X83710800Y-61465000D02*
X83710800Y-61502800D01*
X83710800Y-61502800D02*
X83710800Y-59522200D01*
X87305200Y-61287200D02*
X86518080Y-60500080D01*
X83710800Y-60423600D02*
X86479400Y-60423600D01*
X83226200Y-63827200D02*
X83710800Y-63342600D01*
X83710800Y-59433000D02*
X83710800Y-59522200D01*
X86518080Y-60384920D02*
X87292200Y-59610800D01*
X83710800Y-59522200D02*
X83710800Y-57526800D01*
X86479400Y-60423600D02*
X86518080Y-60384920D01*
X86518080Y-60500080D02*
X86518080Y-60384920D01*
X87292200Y-59433000D02*
X87292200Y-59610800D01*
%TO.N,Board_27-Net-(C1-Pad1)*%
X85260800Y-61465000D02*
X85438600Y-61465000D01*
X85766200Y-61792600D02*
X85766200Y-63827200D01*
X85438600Y-61465000D02*
X85766200Y-61792600D01*
%TO.N,Board_27-Net-(C2-Pad1)*%
X85781200Y-57057200D02*
X85781200Y-59065000D01*
X85495600Y-59350600D02*
X85260800Y-59585400D01*
X85781200Y-59065000D02*
X85495600Y-59350600D01*
X85413200Y-59433000D02*
X85495600Y-59350600D01*
X85260800Y-59433000D02*
X85413200Y-59433000D01*
%TO.N,Board_27-Net-(C3-Pad2)*%
X88855200Y-63278200D02*
X88306200Y-63827200D01*
X88855200Y-61261800D02*
X88855200Y-63278200D01*
%TO.N,Board_27-Net-(C4-Pad1)*%
X88842200Y-57578200D02*
X88321200Y-57057200D01*
X88803800Y-59572400D02*
X88842200Y-59610800D01*
X88842200Y-59610800D02*
X88842200Y-57578200D01*
%TO.N,Board_28-GND*%
X20537200Y-74879000D02*
X20537200Y-74701200D01*
X16942800Y-70940800D02*
X16473200Y-70471200D01*
X16942800Y-76756600D02*
X16942800Y-74916800D01*
X16942800Y-74879000D02*
X16942800Y-74916800D01*
X16942800Y-74916800D02*
X16942800Y-72936200D01*
X20537200Y-74701200D02*
X19750080Y-73914080D01*
X16942800Y-73837600D02*
X19711400Y-73837600D01*
X16458200Y-77241200D02*
X16942800Y-76756600D01*
X16942800Y-72847000D02*
X16942800Y-72936200D01*
X19750080Y-73798920D02*
X20524200Y-73024800D01*
X16942800Y-72936200D02*
X16942800Y-70940800D01*
X19711400Y-73837600D02*
X19750080Y-73798920D01*
X19750080Y-73914080D02*
X19750080Y-73798920D01*
X20524200Y-72847000D02*
X20524200Y-73024800D01*
%TO.N,Board_28-Net-(C1-Pad1)*%
X18492800Y-74879000D02*
X18670600Y-74879000D01*
X18998200Y-75206600D02*
X18998200Y-77241200D01*
X18670600Y-74879000D02*
X18998200Y-75206600D01*
%TO.N,Board_28-Net-(C2-Pad1)*%
X19013200Y-70471200D02*
X19013200Y-72479000D01*
X18727600Y-72764600D02*
X18492800Y-72999400D01*
X19013200Y-72479000D02*
X18727600Y-72764600D01*
X18645200Y-72847000D02*
X18727600Y-72764600D01*
X18492800Y-72847000D02*
X18645200Y-72847000D01*
%TO.N,Board_28-Net-(C3-Pad2)*%
X22087200Y-76692200D02*
X21538200Y-77241200D01*
X22087200Y-74675800D02*
X22087200Y-76692200D01*
%TO.N,Board_28-Net-(C4-Pad1)*%
X22074200Y-70992200D02*
X21553200Y-70471200D01*
X22035800Y-72986400D02*
X22074200Y-73024800D01*
X22074200Y-73024800D02*
X22074200Y-70992200D01*
%TO.N,Board_29-GND*%
X31665200Y-74879000D02*
X31665200Y-74701200D01*
X28070800Y-70940800D02*
X27601200Y-70471200D01*
X28070800Y-76756600D02*
X28070800Y-74916800D01*
X28070800Y-74879000D02*
X28070800Y-74916800D01*
X28070800Y-74916800D02*
X28070800Y-72936200D01*
X31665200Y-74701200D02*
X30878080Y-73914080D01*
X28070800Y-73837600D02*
X30839400Y-73837600D01*
X27586200Y-77241200D02*
X28070800Y-76756600D01*
X28070800Y-72847000D02*
X28070800Y-72936200D01*
X30878080Y-73798920D02*
X31652200Y-73024800D01*
X28070800Y-72936200D02*
X28070800Y-70940800D01*
X30839400Y-73837600D02*
X30878080Y-73798920D01*
X30878080Y-73914080D02*
X30878080Y-73798920D01*
X31652200Y-72847000D02*
X31652200Y-73024800D01*
%TO.N,Board_29-Net-(C1-Pad1)*%
X29620800Y-74879000D02*
X29798600Y-74879000D01*
X30126200Y-75206600D02*
X30126200Y-77241200D01*
X29798600Y-74879000D02*
X30126200Y-75206600D01*
%TO.N,Board_29-Net-(C2-Pad1)*%
X30141200Y-70471200D02*
X30141200Y-72479000D01*
X29855600Y-72764600D02*
X29620800Y-72999400D01*
X30141200Y-72479000D02*
X29855600Y-72764600D01*
X29773200Y-72847000D02*
X29855600Y-72764600D01*
X29620800Y-72847000D02*
X29773200Y-72847000D01*
%TO.N,Board_29-Net-(C3-Pad2)*%
X33215200Y-76692200D02*
X32666200Y-77241200D01*
X33215200Y-74675800D02*
X33215200Y-76692200D01*
%TO.N,Board_29-Net-(C4-Pad1)*%
X33202200Y-70992200D02*
X32681200Y-70471200D01*
X33163800Y-72986400D02*
X33202200Y-73024800D01*
X33202200Y-73024800D02*
X33202200Y-70992200D01*
%TO.N,Board_30-GND*%
X42793200Y-74879000D02*
X42793200Y-74701200D01*
X39198800Y-70940800D02*
X38729200Y-70471200D01*
X39198800Y-76756600D02*
X39198800Y-74916800D01*
X39198800Y-74879000D02*
X39198800Y-74916800D01*
X39198800Y-74916800D02*
X39198800Y-72936200D01*
X42793200Y-74701200D02*
X42006080Y-73914080D01*
X39198800Y-73837600D02*
X41967400Y-73837600D01*
X38714200Y-77241200D02*
X39198800Y-76756600D01*
X39198800Y-72847000D02*
X39198800Y-72936200D01*
X42006080Y-73798920D02*
X42780200Y-73024800D01*
X39198800Y-72936200D02*
X39198800Y-70940800D01*
X41967400Y-73837600D02*
X42006080Y-73798920D01*
X42006080Y-73914080D02*
X42006080Y-73798920D01*
X42780200Y-72847000D02*
X42780200Y-73024800D01*
%TO.N,Board_30-Net-(C1-Pad1)*%
X40748800Y-74879000D02*
X40926600Y-74879000D01*
X41254200Y-75206600D02*
X41254200Y-77241200D01*
X40926600Y-74879000D02*
X41254200Y-75206600D01*
%TO.N,Board_30-Net-(C2-Pad1)*%
X41269200Y-70471200D02*
X41269200Y-72479000D01*
X40983600Y-72764600D02*
X40748800Y-72999400D01*
X41269200Y-72479000D02*
X40983600Y-72764600D01*
X40901200Y-72847000D02*
X40983600Y-72764600D01*
X40748800Y-72847000D02*
X40901200Y-72847000D01*
%TO.N,Board_30-Net-(C3-Pad2)*%
X44343200Y-76692200D02*
X43794200Y-77241200D01*
X44343200Y-74675800D02*
X44343200Y-76692200D01*
%TO.N,Board_30-Net-(C4-Pad1)*%
X44330200Y-70992200D02*
X43809200Y-70471200D01*
X44291800Y-72986400D02*
X44330200Y-73024800D01*
X44330200Y-73024800D02*
X44330200Y-70992200D01*
%TO.N,Board_31-GND*%
X53921200Y-74879000D02*
X53921200Y-74701200D01*
X50326800Y-70940800D02*
X49857200Y-70471200D01*
X50326800Y-76756600D02*
X50326800Y-74916800D01*
X50326800Y-74879000D02*
X50326800Y-74916800D01*
X50326800Y-74916800D02*
X50326800Y-72936200D01*
X53921200Y-74701200D02*
X53134080Y-73914080D01*
X50326800Y-73837600D02*
X53095400Y-73837600D01*
X49842200Y-77241200D02*
X50326800Y-76756600D01*
X50326800Y-72847000D02*
X50326800Y-72936200D01*
X53134080Y-73798920D02*
X53908200Y-73024800D01*
X50326800Y-72936200D02*
X50326800Y-70940800D01*
X53095400Y-73837600D02*
X53134080Y-73798920D01*
X53134080Y-73914080D02*
X53134080Y-73798920D01*
X53908200Y-72847000D02*
X53908200Y-73024800D01*
%TO.N,Board_31-Net-(C1-Pad1)*%
X51876800Y-74879000D02*
X52054600Y-74879000D01*
X52382200Y-75206600D02*
X52382200Y-77241200D01*
X52054600Y-74879000D02*
X52382200Y-75206600D01*
%TO.N,Board_31-Net-(C2-Pad1)*%
X52397200Y-70471200D02*
X52397200Y-72479000D01*
X52111600Y-72764600D02*
X51876800Y-72999400D01*
X52397200Y-72479000D02*
X52111600Y-72764600D01*
X52029200Y-72847000D02*
X52111600Y-72764600D01*
X51876800Y-72847000D02*
X52029200Y-72847000D01*
%TO.N,Board_31-Net-(C3-Pad2)*%
X55471200Y-76692200D02*
X54922200Y-77241200D01*
X55471200Y-74675800D02*
X55471200Y-76692200D01*
%TO.N,Board_31-Net-(C4-Pad1)*%
X55458200Y-70992200D02*
X54937200Y-70471200D01*
X55419800Y-72986400D02*
X55458200Y-73024800D01*
X55458200Y-73024800D02*
X55458200Y-70992200D01*
%TO.N,Board_32-GND*%
X65049200Y-74879000D02*
X65049200Y-74701200D01*
X61454800Y-70940800D02*
X60985200Y-70471200D01*
X61454800Y-76756600D02*
X61454800Y-74916800D01*
X61454800Y-74879000D02*
X61454800Y-74916800D01*
X61454800Y-74916800D02*
X61454800Y-72936200D01*
X65049200Y-74701200D02*
X64262080Y-73914080D01*
X61454800Y-73837600D02*
X64223400Y-73837600D01*
X60970200Y-77241200D02*
X61454800Y-76756600D01*
X61454800Y-72847000D02*
X61454800Y-72936200D01*
X64262080Y-73798920D02*
X65036200Y-73024800D01*
X61454800Y-72936200D02*
X61454800Y-70940800D01*
X64223400Y-73837600D02*
X64262080Y-73798920D01*
X64262080Y-73914080D02*
X64262080Y-73798920D01*
X65036200Y-72847000D02*
X65036200Y-73024800D01*
%TO.N,Board_32-Net-(C1-Pad1)*%
X63004800Y-74879000D02*
X63182600Y-74879000D01*
X63510200Y-75206600D02*
X63510200Y-77241200D01*
X63182600Y-74879000D02*
X63510200Y-75206600D01*
%TO.N,Board_32-Net-(C2-Pad1)*%
X63525200Y-70471200D02*
X63525200Y-72479000D01*
X63239600Y-72764600D02*
X63004800Y-72999400D01*
X63525200Y-72479000D02*
X63239600Y-72764600D01*
X63157200Y-72847000D02*
X63239600Y-72764600D01*
X63004800Y-72847000D02*
X63157200Y-72847000D01*
%TO.N,Board_32-Net-(C3-Pad2)*%
X66599200Y-76692200D02*
X66050200Y-77241200D01*
X66599200Y-74675800D02*
X66599200Y-76692200D01*
%TO.N,Board_32-Net-(C4-Pad1)*%
X66586200Y-70992200D02*
X66065200Y-70471200D01*
X66547800Y-72986400D02*
X66586200Y-73024800D01*
X66586200Y-73024800D02*
X66586200Y-70992200D01*
%TO.N,Board_33-GND*%
X76177200Y-74879000D02*
X76177200Y-74701200D01*
X72582800Y-70940800D02*
X72113200Y-70471200D01*
X72582800Y-76756600D02*
X72582800Y-74916800D01*
X72582800Y-74879000D02*
X72582800Y-74916800D01*
X72582800Y-74916800D02*
X72582800Y-72936200D01*
X76177200Y-74701200D02*
X75390080Y-73914080D01*
X72582800Y-73837600D02*
X75351400Y-73837600D01*
X72098200Y-77241200D02*
X72582800Y-76756600D01*
X72582800Y-72847000D02*
X72582800Y-72936200D01*
X75390080Y-73798920D02*
X76164200Y-73024800D01*
X72582800Y-72936200D02*
X72582800Y-70940800D01*
X75351400Y-73837600D02*
X75390080Y-73798920D01*
X75390080Y-73914080D02*
X75390080Y-73798920D01*
X76164200Y-72847000D02*
X76164200Y-73024800D01*
%TO.N,Board_33-Net-(C1-Pad1)*%
X74132800Y-74879000D02*
X74310600Y-74879000D01*
X74638200Y-75206600D02*
X74638200Y-77241200D01*
X74310600Y-74879000D02*
X74638200Y-75206600D01*
%TO.N,Board_33-Net-(C2-Pad1)*%
X74653200Y-70471200D02*
X74653200Y-72479000D01*
X74367600Y-72764600D02*
X74132800Y-72999400D01*
X74653200Y-72479000D02*
X74367600Y-72764600D01*
X74285200Y-72847000D02*
X74367600Y-72764600D01*
X74132800Y-72847000D02*
X74285200Y-72847000D01*
%TO.N,Board_33-Net-(C3-Pad2)*%
X77727200Y-76692200D02*
X77178200Y-77241200D01*
X77727200Y-74675800D02*
X77727200Y-76692200D01*
%TO.N,Board_33-Net-(C4-Pad1)*%
X77714200Y-70992200D02*
X77193200Y-70471200D01*
X77675800Y-72986400D02*
X77714200Y-73024800D01*
X77714200Y-73024800D02*
X77714200Y-70992200D01*
%TO.N,Board_34-GND*%
X87305200Y-74879000D02*
X87305200Y-74701200D01*
X83710800Y-70940800D02*
X83241200Y-70471200D01*
X83710800Y-76756600D02*
X83710800Y-74916800D01*
X83710800Y-74879000D02*
X83710800Y-74916800D01*
X83710800Y-74916800D02*
X83710800Y-72936200D01*
X87305200Y-74701200D02*
X86518080Y-73914080D01*
X83710800Y-73837600D02*
X86479400Y-73837600D01*
X83226200Y-77241200D02*
X83710800Y-76756600D01*
X83710800Y-72847000D02*
X83710800Y-72936200D01*
X86518080Y-73798920D02*
X87292200Y-73024800D01*
X83710800Y-72936200D02*
X83710800Y-70940800D01*
X86479400Y-73837600D02*
X86518080Y-73798920D01*
X86518080Y-73914080D02*
X86518080Y-73798920D01*
X87292200Y-72847000D02*
X87292200Y-73024800D01*
%TO.N,Board_34-Net-(C1-Pad1)*%
X85260800Y-74879000D02*
X85438600Y-74879000D01*
X85766200Y-75206600D02*
X85766200Y-77241200D01*
X85438600Y-74879000D02*
X85766200Y-75206600D01*
%TO.N,Board_34-Net-(C2-Pad1)*%
X85781200Y-70471200D02*
X85781200Y-72479000D01*
X85495600Y-72764600D02*
X85260800Y-72999400D01*
X85781200Y-72479000D02*
X85495600Y-72764600D01*
X85413200Y-72847000D02*
X85495600Y-72764600D01*
X85260800Y-72847000D02*
X85413200Y-72847000D01*
%TO.N,Board_34-Net-(C3-Pad2)*%
X88855200Y-76692200D02*
X88306200Y-77241200D01*
X88855200Y-74675800D02*
X88855200Y-76692200D01*
%TO.N,Board_34-Net-(C4-Pad1)*%
X88842200Y-70992200D02*
X88321200Y-70471200D01*
X88803800Y-72986400D02*
X88842200Y-73024800D01*
X88842200Y-73024800D02*
X88842200Y-70992200D01*
%TO.N,Board_35-GND*%
X20537200Y-88293000D02*
X20537200Y-88115200D01*
X16942800Y-84354800D02*
X16473200Y-83885200D01*
X16942800Y-90170600D02*
X16942800Y-88330800D01*
X16942800Y-88293000D02*
X16942800Y-88330800D01*
X16942800Y-88330800D02*
X16942800Y-86350200D01*
X20537200Y-88115200D02*
X19750080Y-87328080D01*
X16942800Y-87251600D02*
X19711400Y-87251600D01*
X16458200Y-90655200D02*
X16942800Y-90170600D01*
X16942800Y-86261000D02*
X16942800Y-86350200D01*
X19750080Y-87212920D02*
X20524200Y-86438800D01*
X16942800Y-86350200D02*
X16942800Y-84354800D01*
X19711400Y-87251600D02*
X19750080Y-87212920D01*
X19750080Y-87328080D02*
X19750080Y-87212920D01*
X20524200Y-86261000D02*
X20524200Y-86438800D01*
%TO.N,Board_35-Net-(C1-Pad1)*%
X18492800Y-88293000D02*
X18670600Y-88293000D01*
X18998200Y-88620600D02*
X18998200Y-90655200D01*
X18670600Y-88293000D02*
X18998200Y-88620600D01*
%TO.N,Board_35-Net-(C2-Pad1)*%
X19013200Y-83885200D02*
X19013200Y-85893000D01*
X18727600Y-86178600D02*
X18492800Y-86413400D01*
X19013200Y-85893000D02*
X18727600Y-86178600D01*
X18645200Y-86261000D02*
X18727600Y-86178600D01*
X18492800Y-86261000D02*
X18645200Y-86261000D01*
%TO.N,Board_35-Net-(C3-Pad2)*%
X22087200Y-90106200D02*
X21538200Y-90655200D01*
X22087200Y-88089800D02*
X22087200Y-90106200D01*
%TO.N,Board_35-Net-(C4-Pad1)*%
X22074200Y-84406200D02*
X21553200Y-83885200D01*
X22035800Y-86400400D02*
X22074200Y-86438800D01*
X22074200Y-86438800D02*
X22074200Y-84406200D01*
%TO.N,Board_36-GND*%
X31665200Y-88293000D02*
X31665200Y-88115200D01*
X28070800Y-84354800D02*
X27601200Y-83885200D01*
X28070800Y-90170600D02*
X28070800Y-88330800D01*
X28070800Y-88293000D02*
X28070800Y-88330800D01*
X28070800Y-88330800D02*
X28070800Y-86350200D01*
X31665200Y-88115200D02*
X30878080Y-87328080D01*
X28070800Y-87251600D02*
X30839400Y-87251600D01*
X27586200Y-90655200D02*
X28070800Y-90170600D01*
X28070800Y-86261000D02*
X28070800Y-86350200D01*
X30878080Y-87212920D02*
X31652200Y-86438800D01*
X28070800Y-86350200D02*
X28070800Y-84354800D01*
X30839400Y-87251600D02*
X30878080Y-87212920D01*
X30878080Y-87328080D02*
X30878080Y-87212920D01*
X31652200Y-86261000D02*
X31652200Y-86438800D01*
%TO.N,Board_36-Net-(C1-Pad1)*%
X29620800Y-88293000D02*
X29798600Y-88293000D01*
X30126200Y-88620600D02*
X30126200Y-90655200D01*
X29798600Y-88293000D02*
X30126200Y-88620600D01*
%TO.N,Board_36-Net-(C2-Pad1)*%
X30141200Y-83885200D02*
X30141200Y-85893000D01*
X29855600Y-86178600D02*
X29620800Y-86413400D01*
X30141200Y-85893000D02*
X29855600Y-86178600D01*
X29773200Y-86261000D02*
X29855600Y-86178600D01*
X29620800Y-86261000D02*
X29773200Y-86261000D01*
%TO.N,Board_36-Net-(C3-Pad2)*%
X33215200Y-90106200D02*
X32666200Y-90655200D01*
X33215200Y-88089800D02*
X33215200Y-90106200D01*
%TO.N,Board_36-Net-(C4-Pad1)*%
X33202200Y-84406200D02*
X32681200Y-83885200D01*
X33163800Y-86400400D02*
X33202200Y-86438800D01*
X33202200Y-86438800D02*
X33202200Y-84406200D01*
%TO.N,Board_37-GND*%
X42793200Y-88293000D02*
X42793200Y-88115200D01*
X39198800Y-84354800D02*
X38729200Y-83885200D01*
X39198800Y-90170600D02*
X39198800Y-88330800D01*
X39198800Y-88293000D02*
X39198800Y-88330800D01*
X39198800Y-88330800D02*
X39198800Y-86350200D01*
X42793200Y-88115200D02*
X42006080Y-87328080D01*
X39198800Y-87251600D02*
X41967400Y-87251600D01*
X38714200Y-90655200D02*
X39198800Y-90170600D01*
X39198800Y-86261000D02*
X39198800Y-86350200D01*
X42006080Y-87212920D02*
X42780200Y-86438800D01*
X39198800Y-86350200D02*
X39198800Y-84354800D01*
X41967400Y-87251600D02*
X42006080Y-87212920D01*
X42006080Y-87328080D02*
X42006080Y-87212920D01*
X42780200Y-86261000D02*
X42780200Y-86438800D01*
%TO.N,Board_37-Net-(C1-Pad1)*%
X40748800Y-88293000D02*
X40926600Y-88293000D01*
X41254200Y-88620600D02*
X41254200Y-90655200D01*
X40926600Y-88293000D02*
X41254200Y-88620600D01*
%TO.N,Board_37-Net-(C2-Pad1)*%
X41269200Y-83885200D02*
X41269200Y-85893000D01*
X40983600Y-86178600D02*
X40748800Y-86413400D01*
X41269200Y-85893000D02*
X40983600Y-86178600D01*
X40901200Y-86261000D02*
X40983600Y-86178600D01*
X40748800Y-86261000D02*
X40901200Y-86261000D01*
%TO.N,Board_37-Net-(C3-Pad2)*%
X44343200Y-90106200D02*
X43794200Y-90655200D01*
X44343200Y-88089800D02*
X44343200Y-90106200D01*
%TO.N,Board_37-Net-(C4-Pad1)*%
X44330200Y-84406200D02*
X43809200Y-83885200D01*
X44291800Y-86400400D02*
X44330200Y-86438800D01*
X44330200Y-86438800D02*
X44330200Y-84406200D01*
%TO.N,Board_38-GND*%
X53921200Y-88293000D02*
X53921200Y-88115200D01*
X50326800Y-84354800D02*
X49857200Y-83885200D01*
X50326800Y-90170600D02*
X50326800Y-88330800D01*
X50326800Y-88293000D02*
X50326800Y-88330800D01*
X50326800Y-88330800D02*
X50326800Y-86350200D01*
X53921200Y-88115200D02*
X53134080Y-87328080D01*
X50326800Y-87251600D02*
X53095400Y-87251600D01*
X49842200Y-90655200D02*
X50326800Y-90170600D01*
X50326800Y-86261000D02*
X50326800Y-86350200D01*
X53134080Y-87212920D02*
X53908200Y-86438800D01*
X50326800Y-86350200D02*
X50326800Y-84354800D01*
X53095400Y-87251600D02*
X53134080Y-87212920D01*
X53134080Y-87328080D02*
X53134080Y-87212920D01*
X53908200Y-86261000D02*
X53908200Y-86438800D01*
%TO.N,Board_38-Net-(C1-Pad1)*%
X51876800Y-88293000D02*
X52054600Y-88293000D01*
X52382200Y-88620600D02*
X52382200Y-90655200D01*
X52054600Y-88293000D02*
X52382200Y-88620600D01*
%TO.N,Board_38-Net-(C2-Pad1)*%
X52397200Y-83885200D02*
X52397200Y-85893000D01*
X52111600Y-86178600D02*
X51876800Y-86413400D01*
X52397200Y-85893000D02*
X52111600Y-86178600D01*
X52029200Y-86261000D02*
X52111600Y-86178600D01*
X51876800Y-86261000D02*
X52029200Y-86261000D01*
%TO.N,Board_38-Net-(C3-Pad2)*%
X55471200Y-90106200D02*
X54922200Y-90655200D01*
X55471200Y-88089800D02*
X55471200Y-90106200D01*
%TO.N,Board_38-Net-(C4-Pad1)*%
X55458200Y-84406200D02*
X54937200Y-83885200D01*
X55419800Y-86400400D02*
X55458200Y-86438800D01*
X55458200Y-86438800D02*
X55458200Y-84406200D01*
%TO.N,Board_39-GND*%
X65049200Y-88293000D02*
X65049200Y-88115200D01*
X61454800Y-84354800D02*
X60985200Y-83885200D01*
X61454800Y-90170600D02*
X61454800Y-88330800D01*
X61454800Y-88293000D02*
X61454800Y-88330800D01*
X61454800Y-88330800D02*
X61454800Y-86350200D01*
X65049200Y-88115200D02*
X64262080Y-87328080D01*
X61454800Y-87251600D02*
X64223400Y-87251600D01*
X60970200Y-90655200D02*
X61454800Y-90170600D01*
X61454800Y-86261000D02*
X61454800Y-86350200D01*
X64262080Y-87212920D02*
X65036200Y-86438800D01*
X61454800Y-86350200D02*
X61454800Y-84354800D01*
X64223400Y-87251600D02*
X64262080Y-87212920D01*
X64262080Y-87328080D02*
X64262080Y-87212920D01*
X65036200Y-86261000D02*
X65036200Y-86438800D01*
%TO.N,Board_39-Net-(C1-Pad1)*%
X63004800Y-88293000D02*
X63182600Y-88293000D01*
X63510200Y-88620600D02*
X63510200Y-90655200D01*
X63182600Y-88293000D02*
X63510200Y-88620600D01*
%TO.N,Board_39-Net-(C2-Pad1)*%
X63525200Y-83885200D02*
X63525200Y-85893000D01*
X63239600Y-86178600D02*
X63004800Y-86413400D01*
X63525200Y-85893000D02*
X63239600Y-86178600D01*
X63157200Y-86261000D02*
X63239600Y-86178600D01*
X63004800Y-86261000D02*
X63157200Y-86261000D01*
%TO.N,Board_39-Net-(C3-Pad2)*%
X66599200Y-90106200D02*
X66050200Y-90655200D01*
X66599200Y-88089800D02*
X66599200Y-90106200D01*
%TO.N,Board_39-Net-(C4-Pad1)*%
X66586200Y-84406200D02*
X66065200Y-83885200D01*
X66547800Y-86400400D02*
X66586200Y-86438800D01*
X66586200Y-86438800D02*
X66586200Y-84406200D01*
%TO.N,Board_40-GND*%
X76177200Y-88293000D02*
X76177200Y-88115200D01*
X72582800Y-84354800D02*
X72113200Y-83885200D01*
X72582800Y-90170600D02*
X72582800Y-88330800D01*
X72582800Y-88293000D02*
X72582800Y-88330800D01*
X72582800Y-88330800D02*
X72582800Y-86350200D01*
X76177200Y-88115200D02*
X75390080Y-87328080D01*
X72582800Y-87251600D02*
X75351400Y-87251600D01*
X72098200Y-90655200D02*
X72582800Y-90170600D01*
X72582800Y-86261000D02*
X72582800Y-86350200D01*
X75390080Y-87212920D02*
X76164200Y-86438800D01*
X72582800Y-86350200D02*
X72582800Y-84354800D01*
X75351400Y-87251600D02*
X75390080Y-87212920D01*
X75390080Y-87328080D02*
X75390080Y-87212920D01*
X76164200Y-86261000D02*
X76164200Y-86438800D01*
%TO.N,Board_40-Net-(C1-Pad1)*%
X74132800Y-88293000D02*
X74310600Y-88293000D01*
X74638200Y-88620600D02*
X74638200Y-90655200D01*
X74310600Y-88293000D02*
X74638200Y-88620600D01*
%TO.N,Board_40-Net-(C2-Pad1)*%
X74653200Y-83885200D02*
X74653200Y-85893000D01*
X74367600Y-86178600D02*
X74132800Y-86413400D01*
X74653200Y-85893000D02*
X74367600Y-86178600D01*
X74285200Y-86261000D02*
X74367600Y-86178600D01*
X74132800Y-86261000D02*
X74285200Y-86261000D01*
%TO.N,Board_40-Net-(C3-Pad2)*%
X77727200Y-90106200D02*
X77178200Y-90655200D01*
X77727200Y-88089800D02*
X77727200Y-90106200D01*
%TO.N,Board_40-Net-(C4-Pad1)*%
X77714200Y-84406200D02*
X77193200Y-83885200D01*
X77675800Y-86400400D02*
X77714200Y-86438800D01*
X77714200Y-86438800D02*
X77714200Y-84406200D01*
%TO.N,Board_41-GND*%
X87305200Y-88293000D02*
X87305200Y-88115200D01*
X83710800Y-84354800D02*
X83241200Y-83885200D01*
X83710800Y-90170600D02*
X83710800Y-88330800D01*
X83710800Y-88293000D02*
X83710800Y-88330800D01*
X83710800Y-88330800D02*
X83710800Y-86350200D01*
X87305200Y-88115200D02*
X86518080Y-87328080D01*
X83710800Y-87251600D02*
X86479400Y-87251600D01*
X83226200Y-90655200D02*
X83710800Y-90170600D01*
X83710800Y-86261000D02*
X83710800Y-86350200D01*
X86518080Y-87212920D02*
X87292200Y-86438800D01*
X83710800Y-86350200D02*
X83710800Y-84354800D01*
X86479400Y-87251600D02*
X86518080Y-87212920D01*
X86518080Y-87328080D02*
X86518080Y-87212920D01*
X87292200Y-86261000D02*
X87292200Y-86438800D01*
%TO.N,Board_41-Net-(C1-Pad1)*%
X85260800Y-88293000D02*
X85438600Y-88293000D01*
X85766200Y-88620600D02*
X85766200Y-90655200D01*
X85438600Y-88293000D02*
X85766200Y-88620600D01*
%TO.N,Board_41-Net-(C2-Pad1)*%
X85781200Y-83885200D02*
X85781200Y-85893000D01*
X85495600Y-86178600D02*
X85260800Y-86413400D01*
X85781200Y-85893000D02*
X85495600Y-86178600D01*
X85413200Y-86261000D02*
X85495600Y-86178600D01*
X85260800Y-86261000D02*
X85413200Y-86261000D01*
%TO.N,Board_41-Net-(C3-Pad2)*%
X88855200Y-90106200D02*
X88306200Y-90655200D01*
X88855200Y-88089800D02*
X88855200Y-90106200D01*
%TO.N,Board_41-Net-(C4-Pad1)*%
X88842200Y-84406200D02*
X88321200Y-83885200D01*
X88803800Y-86400400D02*
X88842200Y-86438800D01*
X88842200Y-86438800D02*
X88842200Y-84406200D01*
%TD*%
M02*
