%TF.GenerationSoftware,KiCad,Pcbnew,(6.0.5-0)*%
%TF.CreationDate,2022-12-24T13:27:48+01:00*%
%TF.ProjectId,panel,70616e65-6c2e-46b6-9963-61645f706362,rev?*%
%TF.SameCoordinates,Original*%
%TF.FileFunction,Soldermask,Top*%
%TF.FilePolarity,Negative*%
%FSLAX46Y46*%
G04 Gerber Fmt 4.6, Leading zero omitted, Abs format (unit mm)*
G04 Created by KiCad (PCBNEW (6.0.5-0)) date 2022-12-24 13:27:48*
%MOMM*%
%LPD*%
G01*
G04 APERTURE LIST*
%ADD10R,1.700000X1.700000*%
%ADD11O,1.700000X1.700000*%
G04 APERTURE END LIST*
D10*
%TO.C,J2*%
X51937200Y-16815200D03*
D11*
X49397200Y-16815200D03*
X46857200Y-16815200D03*
%TD*%
D10*
%TO.C,J2*%
X41809200Y-29229200D03*
D11*
X39269200Y-29229200D03*
X36729200Y-29229200D03*
%TD*%
D10*
%TO.C,J2*%
X31681200Y-16815200D03*
D11*
X29141200Y-16815200D03*
X26601200Y-16815200D03*
%TD*%
D10*
%TO.C,J2*%
X41809200Y-16815200D03*
D11*
X39269200Y-16815200D03*
X36729200Y-16815200D03*
%TD*%
D10*
%TO.C,J1*%
X21538200Y-23585200D03*
D11*
X18998200Y-23585200D03*
X16458200Y-23585200D03*
%TD*%
D10*
%TO.C,J1*%
X51922200Y-23585200D03*
D11*
X49382200Y-23585200D03*
X46842200Y-23585200D03*
%TD*%
D10*
%TO.C,J1*%
X31666200Y-35999200D03*
D11*
X29126200Y-35999200D03*
X26586200Y-35999200D03*
%TD*%
D10*
%TO.C,J2*%
X51937200Y-29229200D03*
D11*
X49397200Y-29229200D03*
X46857200Y-29229200D03*
%TD*%
D10*
%TO.C,J1*%
X62050200Y-23585200D03*
D11*
X59510200Y-23585200D03*
X56970200Y-23585200D03*
%TD*%
D10*
%TO.C,J1*%
X41794200Y-23585200D03*
D11*
X39254200Y-23585200D03*
X36714200Y-23585200D03*
%TD*%
D10*
%TO.C,J2*%
X21553200Y-29229200D03*
D11*
X19013200Y-29229200D03*
X16473200Y-29229200D03*
%TD*%
D10*
%TO.C,J1*%
X31666200Y-23585200D03*
D11*
X29126200Y-23585200D03*
X26586200Y-23585200D03*
%TD*%
D10*
%TO.C,J1*%
X62050200Y-35999200D03*
D11*
X59510200Y-35999200D03*
X56970200Y-35999200D03*
%TD*%
D10*
%TO.C,J1*%
X21538200Y-35999200D03*
D11*
X18998200Y-35999200D03*
X16458200Y-35999200D03*
%TD*%
D10*
%TO.C,J2*%
X62065200Y-16815200D03*
D11*
X59525200Y-16815200D03*
X56985200Y-16815200D03*
%TD*%
D10*
%TO.C,J1*%
X41794200Y-35999200D03*
D11*
X39254200Y-35999200D03*
X36714200Y-35999200D03*
%TD*%
D10*
%TO.C,J1*%
X51922200Y-35999200D03*
D11*
X49382200Y-35999200D03*
X46842200Y-35999200D03*
%TD*%
D10*
%TO.C,J2*%
X62065200Y-29229200D03*
D11*
X59525200Y-29229200D03*
X56985200Y-29229200D03*
%TD*%
D10*
%TO.C,J2*%
X21553200Y-16815200D03*
D11*
X19013200Y-16815200D03*
X16473200Y-16815200D03*
%TD*%
D10*
%TO.C,J2*%
X31681200Y-29229200D03*
D11*
X29141200Y-29229200D03*
X26601200Y-29229200D03*
%TD*%
M02*
