M48
; DRILL file {KiCad (6.0.5-0)} date Monday, 26 December 2022 at 11:12:37
; FORMAT={-:-/ absolute / metric / decimal}
; #@! TF.CreationDate,2022-12-26T11:12:37+01:00
; #@! TF.GenerationSoftware,Kicad,Pcbnew,(6.0.5-0)
; #@! TF.FileFunction,Plated,1,2,PTH
FMAT,2
METRIC
; #@! TA.AperFunction,Plated,PTH,ComponentDrill
T1C1.000
%
G90
G05
T1
X16.458Y-23.585
X16.458Y-36.999
X16.458Y-50.413
X16.458Y-63.827
X16.458Y-77.241
X16.458Y-90.655
X16.473Y-16.815
X16.473Y-30.229
X16.473Y-43.643
X16.473Y-57.057
X16.473Y-70.471
X16.473Y-83.885
X18.998Y-23.585
X18.998Y-36.999
X18.998Y-50.413
X18.998Y-63.827
X18.998Y-77.241
X18.998Y-90.655
X19.013Y-16.815
X19.013Y-30.229
X19.013Y-43.643
X19.013Y-57.057
X19.013Y-70.471
X19.013Y-83.885
X21.538Y-23.585
X21.538Y-36.999
X21.538Y-50.413
X21.538Y-63.827
X21.538Y-77.241
X21.538Y-90.655
X21.553Y-16.815
X21.553Y-30.229
X21.553Y-43.643
X21.553Y-57.057
X21.553Y-70.471
X21.553Y-83.885
X27.586Y-23.585
X27.586Y-36.999
X27.586Y-50.413
X27.586Y-63.827
X27.586Y-77.241
X27.586Y-90.655
X27.601Y-16.815
X27.601Y-30.229
X27.601Y-43.643
X27.601Y-57.057
X27.601Y-70.471
X27.601Y-83.885
X30.126Y-23.585
X30.126Y-36.999
X30.126Y-50.413
X30.126Y-63.827
X30.126Y-77.241
X30.126Y-90.655
X30.141Y-16.815
X30.141Y-30.229
X30.141Y-43.643
X30.141Y-57.057
X30.141Y-70.471
X30.141Y-83.885
X32.666Y-23.585
X32.666Y-36.999
X32.666Y-50.413
X32.666Y-63.827
X32.666Y-77.241
X32.666Y-90.655
X32.681Y-16.815
X32.681Y-30.229
X32.681Y-43.643
X32.681Y-57.057
X32.681Y-70.471
X32.681Y-83.885
X38.714Y-23.585
X38.714Y-36.999
X38.714Y-50.413
X38.714Y-63.827
X38.714Y-77.241
X38.714Y-90.655
X38.729Y-16.815
X38.729Y-30.229
X38.729Y-43.643
X38.729Y-57.057
X38.729Y-70.471
X38.729Y-83.885
X41.254Y-23.585
X41.254Y-36.999
X41.254Y-50.413
X41.254Y-63.827
X41.254Y-77.241
X41.254Y-90.655
X41.269Y-16.815
X41.269Y-30.229
X41.269Y-43.643
X41.269Y-57.057
X41.269Y-70.471
X41.269Y-83.885
X43.794Y-23.585
X43.794Y-36.999
X43.794Y-50.413
X43.794Y-63.827
X43.794Y-77.241
X43.794Y-90.655
X43.809Y-16.815
X43.809Y-30.229
X43.809Y-43.643
X43.809Y-57.057
X43.809Y-70.471
X43.809Y-83.885
X49.842Y-23.585
X49.842Y-36.999
X49.842Y-50.413
X49.842Y-63.827
X49.842Y-77.241
X49.842Y-90.655
X49.857Y-16.815
X49.857Y-30.229
X49.857Y-43.643
X49.857Y-57.057
X49.857Y-70.471
X49.857Y-83.885
X52.382Y-23.585
X52.382Y-36.999
X52.382Y-50.413
X52.382Y-63.827
X52.382Y-77.241
X52.382Y-90.655
X52.397Y-16.815
X52.397Y-30.229
X52.397Y-43.643
X52.397Y-57.057
X52.397Y-70.471
X52.397Y-83.885
X54.922Y-23.585
X54.922Y-36.999
X54.922Y-50.413
X54.922Y-63.827
X54.922Y-77.241
X54.922Y-90.655
X54.937Y-16.815
X54.937Y-30.229
X54.937Y-43.643
X54.937Y-57.057
X54.937Y-70.471
X54.937Y-83.885
X60.97Y-23.585
X60.97Y-36.999
X60.97Y-50.413
X60.97Y-63.827
X60.97Y-77.241
X60.97Y-90.655
X60.985Y-16.815
X60.985Y-30.229
X60.985Y-43.643
X60.985Y-57.057
X60.985Y-70.471
X60.985Y-83.885
X63.51Y-23.585
X63.51Y-36.999
X63.51Y-50.413
X63.51Y-63.827
X63.51Y-77.241
X63.51Y-90.655
X63.525Y-16.815
X63.525Y-30.229
X63.525Y-43.643
X63.525Y-57.057
X63.525Y-70.471
X63.525Y-83.885
X66.05Y-23.585
X66.05Y-36.999
X66.05Y-50.413
X66.05Y-63.827
X66.05Y-77.241
X66.05Y-90.655
X66.065Y-16.815
X66.065Y-30.229
X66.065Y-43.643
X66.065Y-57.057
X66.065Y-70.471
X66.065Y-83.885
X72.098Y-23.585
X72.098Y-36.999
X72.098Y-50.413
X72.098Y-63.827
X72.098Y-77.241
X72.098Y-90.655
X72.113Y-16.815
X72.113Y-30.229
X72.113Y-43.643
X72.113Y-57.057
X72.113Y-70.471
X72.113Y-83.885
X74.638Y-23.585
X74.638Y-36.999
X74.638Y-50.413
X74.638Y-63.827
X74.638Y-77.241
X74.638Y-90.655
X74.653Y-16.815
X74.653Y-30.229
X74.653Y-43.643
X74.653Y-57.057
X74.653Y-70.471
X74.653Y-83.885
X77.178Y-23.585
X77.178Y-36.999
X77.178Y-50.413
X77.178Y-63.827
X77.178Y-77.241
X77.178Y-90.655
X77.193Y-16.815
X77.193Y-30.229
X77.193Y-43.643
X77.193Y-57.057
X77.193Y-70.471
X77.193Y-83.885
X83.226Y-23.585
X83.226Y-36.999
X83.226Y-50.413
X83.226Y-63.827
X83.226Y-77.241
X83.226Y-90.655
X83.241Y-16.815
X83.241Y-30.229
X83.241Y-43.643
X83.241Y-57.057
X83.241Y-70.471
X83.241Y-83.885
X85.766Y-23.585
X85.766Y-36.999
X85.766Y-50.413
X85.766Y-63.827
X85.766Y-77.241
X85.766Y-90.655
X85.781Y-16.815
X85.781Y-30.229
X85.781Y-43.643
X85.781Y-57.057
X85.781Y-70.471
X85.781Y-83.885
X88.306Y-23.585
X88.306Y-36.999
X88.306Y-50.413
X88.306Y-63.827
X88.306Y-77.241
X88.306Y-90.655
X88.321Y-16.815
X88.321Y-30.229
X88.321Y-43.643
X88.321Y-57.057
X88.321Y-70.471
X88.321Y-83.885
T0
M30
