%TF.GenerationSoftware,KiCad,Pcbnew,(6.0.5-0)*%
%TF.CreationDate,2022-12-24T13:27:48+01:00*%
%TF.ProjectId,panel,70616e65-6c2e-46b6-9963-61645f706362,rev?*%
%TF.SameCoordinates,Original*%
%TF.FileFunction,Other,Comment*%
%FSLAX46Y46*%
G04 Gerber Fmt 4.6, Leading zero omitted, Abs format (unit mm)*
G04 Created by KiCad (PCBNEW (6.0.5-0)) date 2022-12-24 13:27:48*
%MOMM*%
%LPD*%
G01*
G04 APERTURE LIST*
%ADD10C,0.400000*%
G04 APERTURE END LIST*
D10*
X23124000Y-12000000D02*
X23124000Y-40828000D01*
X12000000Y-25417000D02*
X66640000Y-25417000D01*
X45384000Y-12000000D02*
X45384000Y-40828000D01*
X25124000Y-12000000D02*
X25124000Y-40828000D01*
X43384000Y-12000000D02*
X43384000Y-40828000D01*
X35254000Y-12000000D02*
X35254000Y-40828000D01*
X55514000Y-12000000D02*
X55514000Y-40828000D01*
X33254000Y-12000000D02*
X33254000Y-40828000D01*
X12000000Y-27417000D02*
X66640000Y-27417000D01*
X53514000Y-12000000D02*
X53514000Y-40828000D01*
X54418761Y-8549523D02*
X56418761Y-7882857D01*
X54418761Y-7216190D01*
X55656857Y-6549523D02*
X55656857Y-5025714D01*
X56228285Y-2930476D02*
X56323523Y-3025714D01*
X56418761Y-3311428D01*
X56418761Y-3501904D01*
X56323523Y-3787619D01*
X56133047Y-3978095D01*
X55942571Y-4073333D01*
X55561619Y-4168571D01*
X55275904Y-4168571D01*
X54894952Y-4073333D01*
X54704476Y-3978095D01*
X54514000Y-3787619D01*
X54418761Y-3501904D01*
X54418761Y-3311428D01*
X54514000Y-3025714D01*
X54609238Y-2930476D01*
X54418761Y-2073333D02*
X56037809Y-2073333D01*
X56228285Y-1978095D01*
X56323523Y-1882857D01*
X56418761Y-1692380D01*
X56418761Y-1311428D01*
X56323523Y-1120952D01*
X56228285Y-1025714D01*
X56037809Y-930476D01*
X54418761Y-930476D01*
X54418761Y-263809D02*
X54418761Y879047D01*
X56418761Y307619D02*
X54418761Y307619D01*
X44288761Y-8549523D02*
X46288761Y-7882857D01*
X44288761Y-7216190D01*
X45526857Y-6549523D02*
X45526857Y-5025714D01*
X46098285Y-2930476D02*
X46193523Y-3025714D01*
X46288761Y-3311428D01*
X46288761Y-3501904D01*
X46193523Y-3787619D01*
X46003047Y-3978095D01*
X45812571Y-4073333D01*
X45431619Y-4168571D01*
X45145904Y-4168571D01*
X44764952Y-4073333D01*
X44574476Y-3978095D01*
X44384000Y-3787619D01*
X44288761Y-3501904D01*
X44288761Y-3311428D01*
X44384000Y-3025714D01*
X44479238Y-2930476D01*
X44288761Y-2073333D02*
X45907809Y-2073333D01*
X46098285Y-1978095D01*
X46193523Y-1882857D01*
X46288761Y-1692380D01*
X46288761Y-1311428D01*
X46193523Y-1120952D01*
X46098285Y-1025714D01*
X45907809Y-930476D01*
X44288761Y-930476D01*
X44288761Y-263809D02*
X44288761Y879047D01*
X46288761Y307619D02*
X44288761Y307619D01*
X70090476Y-26321761D02*
X70757142Y-28321761D01*
X71423809Y-26321761D01*
X72090476Y-27559857D02*
X73614285Y-27559857D01*
X75709523Y-28131285D02*
X75614285Y-28226523D01*
X75328571Y-28321761D01*
X75138095Y-28321761D01*
X74852380Y-28226523D01*
X74661904Y-28036047D01*
X74566666Y-27845571D01*
X74471428Y-27464619D01*
X74471428Y-27178904D01*
X74566666Y-26797952D01*
X74661904Y-26607476D01*
X74852380Y-26417000D01*
X75138095Y-26321761D01*
X75328571Y-26321761D01*
X75614285Y-26417000D01*
X75709523Y-26512238D01*
X76566666Y-26321761D02*
X76566666Y-27940809D01*
X76661904Y-28131285D01*
X76757142Y-28226523D01*
X76947619Y-28321761D01*
X77328571Y-28321761D01*
X77519047Y-28226523D01*
X77614285Y-28131285D01*
X77709523Y-27940809D01*
X77709523Y-26321761D01*
X78376190Y-26321761D02*
X79519047Y-26321761D01*
X78947619Y-28321761D02*
X78947619Y-26321761D01*
X34158761Y-8549523D02*
X36158761Y-7882857D01*
X34158761Y-7216190D01*
X35396857Y-6549523D02*
X35396857Y-5025714D01*
X35968285Y-2930476D02*
X36063523Y-3025714D01*
X36158761Y-3311428D01*
X36158761Y-3501904D01*
X36063523Y-3787619D01*
X35873047Y-3978095D01*
X35682571Y-4073333D01*
X35301619Y-4168571D01*
X35015904Y-4168571D01*
X34634952Y-4073333D01*
X34444476Y-3978095D01*
X34254000Y-3787619D01*
X34158761Y-3501904D01*
X34158761Y-3311428D01*
X34254000Y-3025714D01*
X34349238Y-2930476D01*
X34158761Y-2073333D02*
X35777809Y-2073333D01*
X35968285Y-1978095D01*
X36063523Y-1882857D01*
X36158761Y-1692380D01*
X36158761Y-1311428D01*
X36063523Y-1120952D01*
X35968285Y-1025714D01*
X35777809Y-930476D01*
X34158761Y-930476D01*
X34158761Y-263809D02*
X34158761Y879047D01*
X36158761Y307619D02*
X34158761Y307619D01*
X70090476Y-24321761D02*
X70757142Y-26321761D01*
X71423809Y-24321761D01*
X72090476Y-25559857D02*
X73614285Y-25559857D01*
X75709523Y-26131285D02*
X75614285Y-26226523D01*
X75328571Y-26321761D01*
X75138095Y-26321761D01*
X74852380Y-26226523D01*
X74661904Y-26036047D01*
X74566666Y-25845571D01*
X74471428Y-25464619D01*
X74471428Y-25178904D01*
X74566666Y-24797952D01*
X74661904Y-24607476D01*
X74852380Y-24417000D01*
X75138095Y-24321761D01*
X75328571Y-24321761D01*
X75614285Y-24417000D01*
X75709523Y-24512238D01*
X76566666Y-24321761D02*
X76566666Y-25940809D01*
X76661904Y-26131285D01*
X76757142Y-26226523D01*
X76947619Y-26321761D01*
X77328571Y-26321761D01*
X77519047Y-26226523D01*
X77614285Y-26131285D01*
X77709523Y-25940809D01*
X77709523Y-24321761D01*
X78376190Y-24321761D02*
X79519047Y-24321761D01*
X78947619Y-26321761D02*
X78947619Y-24321761D01*
X42288761Y-8549523D02*
X44288761Y-7882857D01*
X42288761Y-7216190D01*
X43526857Y-6549523D02*
X43526857Y-5025714D01*
X44098285Y-2930476D02*
X44193523Y-3025714D01*
X44288761Y-3311428D01*
X44288761Y-3501904D01*
X44193523Y-3787619D01*
X44003047Y-3978095D01*
X43812571Y-4073333D01*
X43431619Y-4168571D01*
X43145904Y-4168571D01*
X42764952Y-4073333D01*
X42574476Y-3978095D01*
X42384000Y-3787619D01*
X42288761Y-3501904D01*
X42288761Y-3311428D01*
X42384000Y-3025714D01*
X42479238Y-2930476D01*
X42288761Y-2073333D02*
X43907809Y-2073333D01*
X44098285Y-1978095D01*
X44193523Y-1882857D01*
X44288761Y-1692380D01*
X44288761Y-1311428D01*
X44193523Y-1120952D01*
X44098285Y-1025714D01*
X43907809Y-930476D01*
X42288761Y-930476D01*
X42288761Y-263809D02*
X42288761Y879047D01*
X44288761Y307619D02*
X42288761Y307619D01*
X22028761Y-8549523D02*
X24028761Y-7882857D01*
X22028761Y-7216190D01*
X23266857Y-6549523D02*
X23266857Y-5025714D01*
X23838285Y-2930476D02*
X23933523Y-3025714D01*
X24028761Y-3311428D01*
X24028761Y-3501904D01*
X23933523Y-3787619D01*
X23743047Y-3978095D01*
X23552571Y-4073333D01*
X23171619Y-4168571D01*
X22885904Y-4168571D01*
X22504952Y-4073333D01*
X22314476Y-3978095D01*
X22124000Y-3787619D01*
X22028761Y-3501904D01*
X22028761Y-3311428D01*
X22124000Y-3025714D01*
X22219238Y-2930476D01*
X22028761Y-2073333D02*
X23647809Y-2073333D01*
X23838285Y-1978095D01*
X23933523Y-1882857D01*
X24028761Y-1692380D01*
X24028761Y-1311428D01*
X23933523Y-1120952D01*
X23838285Y-1025714D01*
X23647809Y-930476D01*
X22028761Y-930476D01*
X22028761Y-263809D02*
X22028761Y879047D01*
X24028761Y307619D02*
X22028761Y307619D01*
X32158761Y-8549523D02*
X34158761Y-7882857D01*
X32158761Y-7216190D01*
X33396857Y-6549523D02*
X33396857Y-5025714D01*
X33968285Y-2930476D02*
X34063523Y-3025714D01*
X34158761Y-3311428D01*
X34158761Y-3501904D01*
X34063523Y-3787619D01*
X33873047Y-3978095D01*
X33682571Y-4073333D01*
X33301619Y-4168571D01*
X33015904Y-4168571D01*
X32634952Y-4073333D01*
X32444476Y-3978095D01*
X32254000Y-3787619D01*
X32158761Y-3501904D01*
X32158761Y-3311428D01*
X32254000Y-3025714D01*
X32349238Y-2930476D01*
X32158761Y-2073333D02*
X33777809Y-2073333D01*
X33968285Y-1978095D01*
X34063523Y-1882857D01*
X34158761Y-1692380D01*
X34158761Y-1311428D01*
X34063523Y-1120952D01*
X33968285Y-1025714D01*
X33777809Y-930476D01*
X32158761Y-930476D01*
X32158761Y-263809D02*
X32158761Y879047D01*
X34158761Y307619D02*
X32158761Y307619D01*
X24028761Y-8549523D02*
X26028761Y-7882857D01*
X24028761Y-7216190D01*
X25266857Y-6549523D02*
X25266857Y-5025714D01*
X25838285Y-2930476D02*
X25933523Y-3025714D01*
X26028761Y-3311428D01*
X26028761Y-3501904D01*
X25933523Y-3787619D01*
X25743047Y-3978095D01*
X25552571Y-4073333D01*
X25171619Y-4168571D01*
X24885904Y-4168571D01*
X24504952Y-4073333D01*
X24314476Y-3978095D01*
X24124000Y-3787619D01*
X24028761Y-3501904D01*
X24028761Y-3311428D01*
X24124000Y-3025714D01*
X24219238Y-2930476D01*
X24028761Y-2073333D02*
X25647809Y-2073333D01*
X25838285Y-1978095D01*
X25933523Y-1882857D01*
X26028761Y-1692380D01*
X26028761Y-1311428D01*
X25933523Y-1120952D01*
X25838285Y-1025714D01*
X25647809Y-930476D01*
X24028761Y-930476D01*
X24028761Y-263809D02*
X24028761Y879047D01*
X26028761Y307619D02*
X24028761Y307619D01*
X52418761Y-8549523D02*
X54418761Y-7882857D01*
X52418761Y-7216190D01*
X53656857Y-6549523D02*
X53656857Y-5025714D01*
X54228285Y-2930476D02*
X54323523Y-3025714D01*
X54418761Y-3311428D01*
X54418761Y-3501904D01*
X54323523Y-3787619D01*
X54133047Y-3978095D01*
X53942571Y-4073333D01*
X53561619Y-4168571D01*
X53275904Y-4168571D01*
X52894952Y-4073333D01*
X52704476Y-3978095D01*
X52514000Y-3787619D01*
X52418761Y-3501904D01*
X52418761Y-3311428D01*
X52514000Y-3025714D01*
X52609238Y-2930476D01*
X52418761Y-2073333D02*
X54037809Y-2073333D01*
X54228285Y-1978095D01*
X54323523Y-1882857D01*
X54418761Y-1692380D01*
X54418761Y-1311428D01*
X54323523Y-1120952D01*
X54228285Y-1025714D01*
X54037809Y-930476D01*
X52418761Y-930476D01*
X52418761Y-263809D02*
X52418761Y879047D01*
X54418761Y307619D02*
X52418761Y307619D01*
M02*
