%TF.GenerationSoftware,KiCad,Pcbnew,(6.0.5-0)*%
%TF.CreationDate,2022-12-24T13:27:48+01:00*%
%TF.ProjectId,panel,70616e65-6c2e-46b6-9963-61645f706362,rev?*%
%TF.SameCoordinates,Original*%
%TF.FileFunction,Soldermask,Bot*%
%TF.FilePolarity,Negative*%
%FSLAX46Y46*%
G04 Gerber Fmt 4.6, Leading zero omitted, Abs format (unit mm)*
G04 Created by KiCad (PCBNEW (6.0.5-0)) date 2022-12-24 13:27:48*
%MOMM*%
%LPD*%
G01*
G04 APERTURE LIST*
G04 Aperture macros list*
%AMRoundRect*
0 Rectangle with rounded corners*
0 $1 Rounding radius*
0 $2 $3 $4 $5 $6 $7 $8 $9 X,Y pos of 4 corners*
0 Add a 4 corners polygon primitive as box body*
4,1,4,$2,$3,$4,$5,$6,$7,$8,$9,$2,$3,0*
0 Add four circle primitives for the rounded corners*
1,1,$1+$1,$2,$3*
1,1,$1+$1,$4,$5*
1,1,$1+$1,$6,$7*
1,1,$1+$1,$8,$9*
0 Add four rect primitives between the rounded corners*
20,1,$1+$1,$2,$3,$4,$5,0*
20,1,$1+$1,$4,$5,$6,$7,0*
20,1,$1+$1,$6,$7,$8,$9,0*
20,1,$1+$1,$8,$9,$2,$3,0*%
G04 Aperture macros list end*
%ADD10R,1.700000X1.700000*%
%ADD11O,1.700000X1.700000*%
%ADD12RoundRect,0.225000X-0.225000X-0.250000X0.225000X-0.250000X0.225000X0.250000X-0.225000X0.250000X0*%
%ADD13RoundRect,0.225000X0.225000X0.250000X-0.225000X0.250000X-0.225000X-0.250000X0.225000X-0.250000X0*%
G04 APERTURE END LIST*
D10*
%TO.C,J2*%
X51937200Y-16815200D03*
D11*
X49397200Y-16815200D03*
X46857200Y-16815200D03*
%TD*%
D10*
%TO.C,J2*%
X41809200Y-29229200D03*
D11*
X39269200Y-29229200D03*
X36729200Y-29229200D03*
%TD*%
D10*
%TO.C,J2*%
X31681200Y-16815200D03*
D11*
X29141200Y-16815200D03*
X26601200Y-16815200D03*
%TD*%
D10*
%TO.C,J2*%
X41809200Y-16815200D03*
D11*
X39269200Y-16815200D03*
X36729200Y-16815200D03*
%TD*%
D10*
%TO.C,J1*%
X21538200Y-23585200D03*
D11*
X18998200Y-23585200D03*
X16458200Y-23585200D03*
%TD*%
D10*
%TO.C,J1*%
X51922200Y-23585200D03*
D11*
X49382200Y-23585200D03*
X46842200Y-23585200D03*
%TD*%
D10*
%TO.C,J1*%
X31666200Y-35999200D03*
D11*
X29126200Y-35999200D03*
X26586200Y-35999200D03*
%TD*%
D10*
%TO.C,J2*%
X51937200Y-29229200D03*
D11*
X49397200Y-29229200D03*
X46857200Y-29229200D03*
%TD*%
D10*
%TO.C,J1*%
X62050200Y-23585200D03*
D11*
X59510200Y-23585200D03*
X56970200Y-23585200D03*
%TD*%
D10*
%TO.C,J1*%
X41794200Y-23585200D03*
D11*
X39254200Y-23585200D03*
X36714200Y-23585200D03*
%TD*%
D10*
%TO.C,J2*%
X21553200Y-29229200D03*
D11*
X19013200Y-29229200D03*
X16473200Y-29229200D03*
%TD*%
D10*
%TO.C,J1*%
X31666200Y-23585200D03*
D11*
X29126200Y-23585200D03*
X26586200Y-23585200D03*
%TD*%
D10*
%TO.C,J1*%
X62050200Y-35999200D03*
D11*
X59510200Y-35999200D03*
X56970200Y-35999200D03*
%TD*%
D10*
%TO.C,J1*%
X21538200Y-35999200D03*
D11*
X18998200Y-35999200D03*
X16458200Y-35999200D03*
%TD*%
D10*
%TO.C,J2*%
X62065200Y-16815200D03*
D11*
X59525200Y-16815200D03*
X56985200Y-16815200D03*
%TD*%
D10*
%TO.C,J1*%
X41794200Y-35999200D03*
D11*
X39254200Y-35999200D03*
X36714200Y-35999200D03*
%TD*%
D10*
%TO.C,J1*%
X51922200Y-35999200D03*
D11*
X49382200Y-35999200D03*
X46842200Y-35999200D03*
%TD*%
D10*
%TO.C,J2*%
X62065200Y-29229200D03*
D11*
X59525200Y-29229200D03*
X56985200Y-29229200D03*
%TD*%
D10*
%TO.C,J2*%
X21553200Y-16815200D03*
D11*
X19013200Y-16815200D03*
X16473200Y-16815200D03*
%TD*%
D10*
%TO.C,J2*%
X31681200Y-29229200D03*
D11*
X29141200Y-29229200D03*
X26601200Y-29229200D03*
%TD*%
D12*
%TO.C,C3*%
X50921200Y-21223000D03*
X52471200Y-21223000D03*
%TD*%
D13*
%TO.C,C2*%
X59004800Y-31605000D03*
X57454800Y-31605000D03*
%TD*%
D12*
%TO.C,C3*%
X40793200Y-21223000D03*
X42343200Y-21223000D03*
%TD*%
%TO.C,C3*%
X61049200Y-21223000D03*
X62599200Y-21223000D03*
%TD*%
D13*
%TO.C,C2*%
X48876800Y-19191000D03*
X47326800Y-19191000D03*
%TD*%
%TO.C,C4*%
X62586200Y-31605000D03*
X61036200Y-31605000D03*
%TD*%
D12*
%TO.C,C3*%
X40793200Y-33637000D03*
X42343200Y-33637000D03*
%TD*%
D13*
%TO.C,C4*%
X52458200Y-19191000D03*
X50908200Y-19191000D03*
%TD*%
%TO.C,C2*%
X18492800Y-19191000D03*
X16942800Y-19191000D03*
%TD*%
%TO.C,C2*%
X28620800Y-31605000D03*
X27070800Y-31605000D03*
%TD*%
%TO.C,C4*%
X52458200Y-31605000D03*
X50908200Y-31605000D03*
%TD*%
%TO.C,C2*%
X59004800Y-19191000D03*
X57454800Y-19191000D03*
%TD*%
%TO.C,C1*%
X38748800Y-33637000D03*
X37198800Y-33637000D03*
%TD*%
D12*
%TO.C,C3*%
X30665200Y-21223000D03*
X32215200Y-21223000D03*
%TD*%
D13*
%TO.C,C1*%
X28620800Y-33637000D03*
X27070800Y-33637000D03*
%TD*%
%TO.C,C1*%
X18492800Y-21223000D03*
X16942800Y-21223000D03*
%TD*%
%TO.C,C1*%
X59004800Y-33637000D03*
X57454800Y-33637000D03*
%TD*%
D12*
%TO.C,C3*%
X30665200Y-33637000D03*
X32215200Y-33637000D03*
%TD*%
D13*
%TO.C,C1*%
X59004800Y-21223000D03*
X57454800Y-21223000D03*
%TD*%
D12*
%TO.C,C3*%
X20537200Y-33637000D03*
X22087200Y-33637000D03*
%TD*%
D13*
%TO.C,C2*%
X48876800Y-31605000D03*
X47326800Y-31605000D03*
%TD*%
%TO.C,C4*%
X62586200Y-19191000D03*
X61036200Y-19191000D03*
%TD*%
%TO.C,C2*%
X18492800Y-31605000D03*
X16942800Y-31605000D03*
%TD*%
%TO.C,C2*%
X38748800Y-31605000D03*
X37198800Y-31605000D03*
%TD*%
%TO.C,C4*%
X22074200Y-19191000D03*
X20524200Y-19191000D03*
%TD*%
D12*
%TO.C,C3*%
X61049200Y-33637000D03*
X62599200Y-33637000D03*
%TD*%
D13*
%TO.C,C1*%
X48876800Y-21223000D03*
X47326800Y-21223000D03*
%TD*%
%TO.C,C1*%
X48876800Y-33637000D03*
X47326800Y-33637000D03*
%TD*%
D12*
%TO.C,C3*%
X20537200Y-21223000D03*
X22087200Y-21223000D03*
%TD*%
D13*
%TO.C,C2*%
X28620800Y-19191000D03*
X27070800Y-19191000D03*
%TD*%
%TO.C,C2*%
X38748800Y-19191000D03*
X37198800Y-19191000D03*
%TD*%
%TO.C,C1*%
X18492800Y-33637000D03*
X16942800Y-33637000D03*
%TD*%
%TO.C,C4*%
X42330200Y-19191000D03*
X40780200Y-19191000D03*
%TD*%
%TO.C,C4*%
X32202200Y-19191000D03*
X30652200Y-19191000D03*
%TD*%
%TO.C,C1*%
X28620800Y-21223000D03*
X27070800Y-21223000D03*
%TD*%
%TO.C,C4*%
X42330200Y-31605000D03*
X40780200Y-31605000D03*
%TD*%
%TO.C,C1*%
X38748800Y-21223000D03*
X37198800Y-21223000D03*
%TD*%
D12*
%TO.C,C3*%
X50921200Y-33637000D03*
X52471200Y-33637000D03*
%TD*%
D13*
%TO.C,C4*%
X22074200Y-31605000D03*
X20524200Y-31605000D03*
%TD*%
%TO.C,C4*%
X32202200Y-31605000D03*
X30652200Y-31605000D03*
%TD*%
M02*
