%TF.GenerationSoftware,KiCad,Pcbnew,(6.0.5-0)*%
%TF.CreationDate,2022-12-26T11:12:43+01:00*%
%TF.ProjectId,panel,70616e65-6c2e-46b6-9963-61645f706362,rev?*%
%TF.SameCoordinates,Original*%
%TF.FileFunction,Paste,Bot*%
%TF.FilePolarity,Positive*%
%FSLAX46Y46*%
G04 Gerber Fmt 4.6, Leading zero omitted, Abs format (unit mm)*
G04 Created by KiCad (PCBNEW (6.0.5-0)) date 2022-12-26 11:12:43*
%MOMM*%
%LPD*%
G01*
G04 APERTURE LIST*
G04 Aperture macros list*
%AMRoundRect*
0 Rectangle with rounded corners*
0 $1 Rounding radius*
0 $2 $3 $4 $5 $6 $7 $8 $9 X,Y pos of 4 corners*
0 Add a 4 corners polygon primitive as box body*
4,1,4,$2,$3,$4,$5,$6,$7,$8,$9,$2,$3,0*
0 Add four circle primitives for the rounded corners*
1,1,$1+$1,$2,$3*
1,1,$1+$1,$4,$5*
1,1,$1+$1,$6,$7*
1,1,$1+$1,$8,$9*
0 Add four rect primitives between the rounded corners*
20,1,$1+$1,$2,$3,$4,$5,0*
20,1,$1+$1,$4,$5,$6,$7,0*
20,1,$1+$1,$6,$7,$8,$9,0*
20,1,$1+$1,$8,$9,$2,$3,0*%
G04 Aperture macros list end*
%ADD10RoundRect,0.225000X0.225000X0.250000X-0.225000X0.250000X-0.225000X-0.250000X0.225000X-0.250000X0*%
%ADD11RoundRect,0.225000X-0.225000X-0.250000X0.225000X-0.250000X0.225000X0.250000X-0.225000X0.250000X0*%
G04 APERTURE END LIST*
D10*
%TO.C,C1*%
X85260800Y-74879000D03*
X83710800Y-74879000D03*
%TD*%
%TO.C,C1*%
X40748800Y-74879000D03*
X39198800Y-74879000D03*
%TD*%
D11*
%TO.C,C3*%
X87305200Y-21223000D03*
X88855200Y-21223000D03*
%TD*%
%TO.C,C3*%
X42793200Y-48051000D03*
X44343200Y-48051000D03*
%TD*%
D10*
%TO.C,C1*%
X85260800Y-48051000D03*
X83710800Y-48051000D03*
%TD*%
%TO.C,C2*%
X85260800Y-86261000D03*
X83710800Y-86261000D03*
%TD*%
D11*
%TO.C,C3*%
X31665200Y-74879000D03*
X33215200Y-74879000D03*
%TD*%
D10*
%TO.C,C1*%
X29620800Y-61465000D03*
X28070800Y-61465000D03*
%TD*%
%TO.C,C2*%
X63004800Y-46019000D03*
X61454800Y-46019000D03*
%TD*%
D11*
%TO.C,C3*%
X65049200Y-21223000D03*
X66599200Y-21223000D03*
%TD*%
D10*
%TO.C,C2*%
X51876800Y-19191000D03*
X50326800Y-19191000D03*
%TD*%
%TO.C,C4*%
X33202200Y-32605000D03*
X31652200Y-32605000D03*
%TD*%
%TO.C,C1*%
X40748800Y-48051000D03*
X39198800Y-48051000D03*
%TD*%
%TO.C,C4*%
X44330200Y-72847000D03*
X42780200Y-72847000D03*
%TD*%
%TO.C,C2*%
X51876800Y-59433000D03*
X50326800Y-59433000D03*
%TD*%
%TO.C,C4*%
X88842200Y-72847000D03*
X87292200Y-72847000D03*
%TD*%
%TO.C,C1*%
X85260800Y-61465000D03*
X83710800Y-61465000D03*
%TD*%
%TO.C,C4*%
X77714200Y-46019000D03*
X76164200Y-46019000D03*
%TD*%
D11*
%TO.C,C3*%
X31665200Y-88293000D03*
X33215200Y-88293000D03*
%TD*%
D10*
%TO.C,C2*%
X40748800Y-59433000D03*
X39198800Y-59433000D03*
%TD*%
%TO.C,C4*%
X55458200Y-46019000D03*
X53908200Y-46019000D03*
%TD*%
%TO.C,C4*%
X44330200Y-19191000D03*
X42780200Y-19191000D03*
%TD*%
%TO.C,C4*%
X77714200Y-59433000D03*
X76164200Y-59433000D03*
%TD*%
%TO.C,C2*%
X29620800Y-32605000D03*
X28070800Y-32605000D03*
%TD*%
D11*
%TO.C,C3*%
X76177200Y-34637000D03*
X77727200Y-34637000D03*
%TD*%
D10*
%TO.C,C1*%
X40748800Y-21223000D03*
X39198800Y-21223000D03*
%TD*%
%TO.C,C2*%
X40748800Y-72847000D03*
X39198800Y-72847000D03*
%TD*%
%TO.C,C1*%
X29620800Y-34637000D03*
X28070800Y-34637000D03*
%TD*%
%TO.C,C4*%
X55458200Y-32605000D03*
X53908200Y-32605000D03*
%TD*%
D11*
%TO.C,C3*%
X76177200Y-88293000D03*
X77727200Y-88293000D03*
%TD*%
D10*
%TO.C,C1*%
X51876800Y-88293000D03*
X50326800Y-88293000D03*
%TD*%
%TO.C,C1*%
X29620800Y-21223000D03*
X28070800Y-21223000D03*
%TD*%
D11*
%TO.C,C3*%
X65049200Y-88293000D03*
X66599200Y-88293000D03*
%TD*%
D10*
%TO.C,C4*%
X88842200Y-32605000D03*
X87292200Y-32605000D03*
%TD*%
D11*
%TO.C,C3*%
X76177200Y-21223000D03*
X77727200Y-21223000D03*
%TD*%
D10*
%TO.C,C2*%
X74132800Y-19191000D03*
X72582800Y-19191000D03*
%TD*%
%TO.C,C1*%
X85260800Y-21223000D03*
X83710800Y-21223000D03*
%TD*%
%TO.C,C1*%
X51876800Y-21223000D03*
X50326800Y-21223000D03*
%TD*%
%TO.C,C2*%
X51876800Y-32605000D03*
X50326800Y-32605000D03*
%TD*%
D11*
%TO.C,C3*%
X87305200Y-61465000D03*
X88855200Y-61465000D03*
%TD*%
D10*
%TO.C,C2*%
X51876800Y-72847000D03*
X50326800Y-72847000D03*
%TD*%
%TO.C,C4*%
X88842200Y-86261000D03*
X87292200Y-86261000D03*
%TD*%
%TO.C,C4*%
X44330200Y-32605000D03*
X42780200Y-32605000D03*
%TD*%
D11*
%TO.C,C3*%
X20537200Y-48051000D03*
X22087200Y-48051000D03*
%TD*%
D10*
%TO.C,C1*%
X74132800Y-61465000D03*
X72582800Y-61465000D03*
%TD*%
%TO.C,C4*%
X44330200Y-46019000D03*
X42780200Y-46019000D03*
%TD*%
D11*
%TO.C,C3*%
X87305200Y-48051000D03*
X88855200Y-48051000D03*
%TD*%
D10*
%TO.C,C2*%
X18492800Y-19191000D03*
X16942800Y-19191000D03*
%TD*%
%TO.C,C2*%
X29620800Y-86261000D03*
X28070800Y-86261000D03*
%TD*%
%TO.C,C4*%
X66586200Y-72847000D03*
X65036200Y-72847000D03*
%TD*%
%TO.C,C4*%
X55458200Y-72847000D03*
X53908200Y-72847000D03*
%TD*%
%TO.C,C2*%
X18492800Y-32605000D03*
X16942800Y-32605000D03*
%TD*%
%TO.C,C1*%
X18492800Y-61465000D03*
X16942800Y-61465000D03*
%TD*%
%TO.C,C2*%
X40748800Y-32605000D03*
X39198800Y-32605000D03*
%TD*%
D11*
%TO.C,C3*%
X53921200Y-88293000D03*
X55471200Y-88293000D03*
%TD*%
%TO.C,C3*%
X87305200Y-88293000D03*
X88855200Y-88293000D03*
%TD*%
D10*
%TO.C,C1*%
X40748800Y-61465000D03*
X39198800Y-61465000D03*
%TD*%
%TO.C,C2*%
X74132800Y-59433000D03*
X72582800Y-59433000D03*
%TD*%
%TO.C,C2*%
X18492800Y-72847000D03*
X16942800Y-72847000D03*
%TD*%
D11*
%TO.C,C3*%
X53921200Y-21223000D03*
X55471200Y-21223000D03*
%TD*%
D10*
%TO.C,C4*%
X22074200Y-72847000D03*
X20524200Y-72847000D03*
%TD*%
D11*
%TO.C,C3*%
X87305200Y-74879000D03*
X88855200Y-74879000D03*
%TD*%
D10*
%TO.C,C1*%
X18492800Y-34637000D03*
X16942800Y-34637000D03*
%TD*%
%TO.C,C4*%
X88842200Y-46019000D03*
X87292200Y-46019000D03*
%TD*%
%TO.C,C2*%
X85260800Y-59433000D03*
X83710800Y-59433000D03*
%TD*%
%TO.C,C4*%
X22074200Y-32605000D03*
X20524200Y-32605000D03*
%TD*%
D11*
%TO.C,C3*%
X53921200Y-74879000D03*
X55471200Y-74879000D03*
%TD*%
D10*
%TO.C,C4*%
X33202200Y-86261000D03*
X31652200Y-86261000D03*
%TD*%
%TO.C,C2*%
X63004800Y-32605000D03*
X61454800Y-32605000D03*
%TD*%
D11*
%TO.C,C3*%
X31665200Y-61465000D03*
X33215200Y-61465000D03*
%TD*%
D10*
%TO.C,C4*%
X55458200Y-19191000D03*
X53908200Y-19191000D03*
%TD*%
%TO.C,C2*%
X63004800Y-72847000D03*
X61454800Y-72847000D03*
%TD*%
%TO.C,C1*%
X63004800Y-21223000D03*
X61454800Y-21223000D03*
%TD*%
%TO.C,C2*%
X29620800Y-19191000D03*
X28070800Y-19191000D03*
%TD*%
%TO.C,C1*%
X51876800Y-34637000D03*
X50326800Y-34637000D03*
%TD*%
%TO.C,C2*%
X85260800Y-46019000D03*
X83710800Y-46019000D03*
%TD*%
%TO.C,C1*%
X40748800Y-88293000D03*
X39198800Y-88293000D03*
%TD*%
D11*
%TO.C,C3*%
X42793200Y-61465000D03*
X44343200Y-61465000D03*
%TD*%
D10*
%TO.C,C4*%
X77714200Y-32605000D03*
X76164200Y-32605000D03*
%TD*%
%TO.C,C1*%
X74132800Y-48051000D03*
X72582800Y-48051000D03*
%TD*%
%TO.C,C1*%
X29620800Y-48051000D03*
X28070800Y-48051000D03*
%TD*%
%TO.C,C4*%
X44330200Y-86261000D03*
X42780200Y-86261000D03*
%TD*%
%TO.C,C2*%
X85260800Y-72847000D03*
X83710800Y-72847000D03*
%TD*%
%TO.C,C4*%
X77714200Y-86261000D03*
X76164200Y-86261000D03*
%TD*%
%TO.C,C4*%
X44330200Y-59433000D03*
X42780200Y-59433000D03*
%TD*%
D11*
%TO.C,C3*%
X20537200Y-88293000D03*
X22087200Y-88293000D03*
%TD*%
D10*
%TO.C,C1*%
X85260800Y-88293000D03*
X83710800Y-88293000D03*
%TD*%
%TO.C,C2*%
X51876800Y-86261000D03*
X50326800Y-86261000D03*
%TD*%
%TO.C,C1*%
X51876800Y-48051000D03*
X50326800Y-48051000D03*
%TD*%
D11*
%TO.C,C3*%
X20537200Y-21223000D03*
X22087200Y-21223000D03*
%TD*%
D10*
%TO.C,C2*%
X18492800Y-86261000D03*
X16942800Y-86261000D03*
%TD*%
%TO.C,C4*%
X33202200Y-19191000D03*
X31652200Y-19191000D03*
%TD*%
%TO.C,C1*%
X63004800Y-88293000D03*
X61454800Y-88293000D03*
%TD*%
%TO.C,C4*%
X22074200Y-19191000D03*
X20524200Y-19191000D03*
%TD*%
%TO.C,C1*%
X74132800Y-88293000D03*
X72582800Y-88293000D03*
%TD*%
D11*
%TO.C,C3*%
X65049200Y-61465000D03*
X66599200Y-61465000D03*
%TD*%
D10*
%TO.C,C4*%
X33202200Y-59433000D03*
X31652200Y-59433000D03*
%TD*%
D11*
%TO.C,C3*%
X65049200Y-48051000D03*
X66599200Y-48051000D03*
%TD*%
%TO.C,C3*%
X31665200Y-48051000D03*
X33215200Y-48051000D03*
%TD*%
D10*
%TO.C,C1*%
X29620800Y-88293000D03*
X28070800Y-88293000D03*
%TD*%
D11*
%TO.C,C3*%
X53921200Y-61465000D03*
X55471200Y-61465000D03*
%TD*%
D10*
%TO.C,C2*%
X74132800Y-72847000D03*
X72582800Y-72847000D03*
%TD*%
%TO.C,C2*%
X29620800Y-46019000D03*
X28070800Y-46019000D03*
%TD*%
%TO.C,C1*%
X63004800Y-61465000D03*
X61454800Y-61465000D03*
%TD*%
D11*
%TO.C,C3*%
X87305200Y-34637000D03*
X88855200Y-34637000D03*
%TD*%
D10*
%TO.C,C2*%
X29620800Y-59433000D03*
X28070800Y-59433000D03*
%TD*%
D11*
%TO.C,C3*%
X31665200Y-21223000D03*
X33215200Y-21223000D03*
%TD*%
%TO.C,C3*%
X42793200Y-34637000D03*
X44343200Y-34637000D03*
%TD*%
D10*
%TO.C,C4*%
X55458200Y-86261000D03*
X53908200Y-86261000D03*
%TD*%
D11*
%TO.C,C3*%
X20537200Y-74879000D03*
X22087200Y-74879000D03*
%TD*%
D10*
%TO.C,C2*%
X40748800Y-19191000D03*
X39198800Y-19191000D03*
%TD*%
%TO.C,C2*%
X74132800Y-32605000D03*
X72582800Y-32605000D03*
%TD*%
D11*
%TO.C,C3*%
X20537200Y-34637000D03*
X22087200Y-34637000D03*
%TD*%
D10*
%TO.C,C1*%
X74132800Y-74879000D03*
X72582800Y-74879000D03*
%TD*%
D11*
%TO.C,C3*%
X53921200Y-48051000D03*
X55471200Y-48051000D03*
%TD*%
D10*
%TO.C,C2*%
X51876800Y-46019000D03*
X50326800Y-46019000D03*
%TD*%
D11*
%TO.C,C3*%
X42793200Y-74879000D03*
X44343200Y-74879000D03*
%TD*%
D10*
%TO.C,C4*%
X66586200Y-86261000D03*
X65036200Y-86261000D03*
%TD*%
%TO.C,C1*%
X18492800Y-74879000D03*
X16942800Y-74879000D03*
%TD*%
D11*
%TO.C,C3*%
X42793200Y-88293000D03*
X44343200Y-88293000D03*
%TD*%
D10*
%TO.C,C4*%
X55458200Y-59433000D03*
X53908200Y-59433000D03*
%TD*%
%TO.C,C4*%
X77714200Y-19191000D03*
X76164200Y-19191000D03*
%TD*%
%TO.C,C2*%
X63004800Y-86261000D03*
X61454800Y-86261000D03*
%TD*%
%TO.C,C2*%
X85260800Y-19191000D03*
X83710800Y-19191000D03*
%TD*%
%TO.C,C1*%
X51876800Y-61465000D03*
X50326800Y-61465000D03*
%TD*%
%TO.C,C2*%
X18492800Y-46019000D03*
X16942800Y-46019000D03*
%TD*%
%TO.C,C2*%
X40748800Y-46019000D03*
X39198800Y-46019000D03*
%TD*%
%TO.C,C4*%
X22074200Y-86261000D03*
X20524200Y-86261000D03*
%TD*%
%TO.C,C4*%
X66586200Y-19191000D03*
X65036200Y-19191000D03*
%TD*%
%TO.C,C1*%
X63004800Y-74879000D03*
X61454800Y-74879000D03*
%TD*%
%TO.C,C2*%
X29620800Y-72847000D03*
X28070800Y-72847000D03*
%TD*%
%TO.C,C1*%
X40748800Y-34637000D03*
X39198800Y-34637000D03*
%TD*%
%TO.C,C1*%
X85260800Y-34637000D03*
X83710800Y-34637000D03*
%TD*%
%TO.C,C4*%
X33202200Y-46019000D03*
X31652200Y-46019000D03*
%TD*%
%TO.C,C4*%
X66586200Y-46019000D03*
X65036200Y-46019000D03*
%TD*%
%TO.C,C1*%
X63004800Y-48051000D03*
X61454800Y-48051000D03*
%TD*%
%TO.C,C2*%
X18492800Y-59433000D03*
X16942800Y-59433000D03*
%TD*%
D11*
%TO.C,C3*%
X65049200Y-74879000D03*
X66599200Y-74879000D03*
%TD*%
D10*
%TO.C,C4*%
X88842200Y-19191000D03*
X87292200Y-19191000D03*
%TD*%
%TO.C,C2*%
X85260800Y-32605000D03*
X83710800Y-32605000D03*
%TD*%
%TO.C,C1*%
X18492800Y-48051000D03*
X16942800Y-48051000D03*
%TD*%
%TO.C,C4*%
X66586200Y-59433000D03*
X65036200Y-59433000D03*
%TD*%
D11*
%TO.C,C3*%
X42793200Y-21223000D03*
X44343200Y-21223000D03*
%TD*%
%TO.C,C3*%
X65049200Y-34637000D03*
X66599200Y-34637000D03*
%TD*%
D10*
%TO.C,C4*%
X22074200Y-46019000D03*
X20524200Y-46019000D03*
%TD*%
D11*
%TO.C,C3*%
X53921200Y-34637000D03*
X55471200Y-34637000D03*
%TD*%
D10*
%TO.C,C1*%
X29620800Y-74879000D03*
X28070800Y-74879000D03*
%TD*%
%TO.C,C1*%
X18492800Y-21223000D03*
X16942800Y-21223000D03*
%TD*%
%TO.C,C4*%
X33202200Y-72847000D03*
X31652200Y-72847000D03*
%TD*%
%TO.C,C1*%
X63004800Y-34637000D03*
X61454800Y-34637000D03*
%TD*%
%TO.C,C2*%
X63004800Y-59433000D03*
X61454800Y-59433000D03*
%TD*%
%TO.C,C1*%
X74132800Y-34637000D03*
X72582800Y-34637000D03*
%TD*%
D11*
%TO.C,C3*%
X76177200Y-61465000D03*
X77727200Y-61465000D03*
%TD*%
D10*
%TO.C,C2*%
X74132800Y-46019000D03*
X72582800Y-46019000D03*
%TD*%
%TO.C,C1*%
X74132800Y-21223000D03*
X72582800Y-21223000D03*
%TD*%
%TO.C,C1*%
X18492800Y-88293000D03*
X16942800Y-88293000D03*
%TD*%
%TO.C,C4*%
X77714200Y-72847000D03*
X76164200Y-72847000D03*
%TD*%
%TO.C,C2*%
X74132800Y-86261000D03*
X72582800Y-86261000D03*
%TD*%
%TO.C,C2*%
X40748800Y-86261000D03*
X39198800Y-86261000D03*
%TD*%
%TO.C,C2*%
X63004800Y-19191000D03*
X61454800Y-19191000D03*
%TD*%
D11*
%TO.C,C3*%
X76177200Y-48051000D03*
X77727200Y-48051000D03*
%TD*%
%TO.C,C3*%
X31665200Y-34637000D03*
X33215200Y-34637000D03*
%TD*%
D10*
%TO.C,C4*%
X22074200Y-59433000D03*
X20524200Y-59433000D03*
%TD*%
D11*
%TO.C,C3*%
X76177200Y-74879000D03*
X77727200Y-74879000D03*
%TD*%
D10*
%TO.C,C1*%
X51876800Y-74879000D03*
X50326800Y-74879000D03*
%TD*%
%TO.C,C4*%
X66586200Y-32605000D03*
X65036200Y-32605000D03*
%TD*%
%TO.C,C4*%
X88842200Y-59433000D03*
X87292200Y-59433000D03*
%TD*%
D11*
%TO.C,C3*%
X20537200Y-61465000D03*
X22087200Y-61465000D03*
%TD*%
M02*
