%TF.GenerationSoftware,KiCad,Pcbnew,(6.0.5-0)*%
%TF.CreationDate,2022-12-26T11:12:43+01:00*%
%TF.ProjectId,panel,70616e65-6c2e-46b6-9963-61645f706362,rev?*%
%TF.SameCoordinates,Original*%
%TF.FileFunction,Soldermask,Bot*%
%TF.FilePolarity,Negative*%
%FSLAX46Y46*%
G04 Gerber Fmt 4.6, Leading zero omitted, Abs format (unit mm)*
G04 Created by KiCad (PCBNEW (6.0.5-0)) date 2022-12-26 11:12:43*
%MOMM*%
%LPD*%
G01*
G04 APERTURE LIST*
G04 Aperture macros list*
%AMRoundRect*
0 Rectangle with rounded corners*
0 $1 Rounding radius*
0 $2 $3 $4 $5 $6 $7 $8 $9 X,Y pos of 4 corners*
0 Add a 4 corners polygon primitive as box body*
4,1,4,$2,$3,$4,$5,$6,$7,$8,$9,$2,$3,0*
0 Add four circle primitives for the rounded corners*
1,1,$1+$1,$2,$3*
1,1,$1+$1,$4,$5*
1,1,$1+$1,$6,$7*
1,1,$1+$1,$8,$9*
0 Add four rect primitives between the rounded corners*
20,1,$1+$1,$2,$3,$4,$5,0*
20,1,$1+$1,$4,$5,$6,$7,0*
20,1,$1+$1,$6,$7,$8,$9,0*
20,1,$1+$1,$8,$9,$2,$3,0*%
G04 Aperture macros list end*
%ADD10R,1.700000X1.700000*%
%ADD11O,1.700000X1.700000*%
%ADD12RoundRect,0.225000X0.225000X0.250000X-0.225000X0.250000X-0.225000X-0.250000X0.225000X-0.250000X0*%
%ADD13RoundRect,0.225000X-0.225000X-0.250000X0.225000X-0.250000X0.225000X0.250000X-0.225000X0.250000X0*%
G04 APERTURE END LIST*
D10*
%TO.C,J1*%
X32666200Y-77241200D03*
D11*
X30126200Y-77241200D03*
X27586200Y-77241200D03*
%TD*%
D10*
%TO.C,J2*%
X21553200Y-57057200D03*
D11*
X19013200Y-57057200D03*
X16473200Y-57057200D03*
%TD*%
D10*
%TO.C,J2*%
X88321200Y-30229200D03*
D11*
X85781200Y-30229200D03*
X83241200Y-30229200D03*
%TD*%
D10*
%TO.C,J2*%
X88321200Y-16815200D03*
D11*
X85781200Y-16815200D03*
X83241200Y-16815200D03*
%TD*%
D10*
%TO.C,J2*%
X66065200Y-16815200D03*
D11*
X63525200Y-16815200D03*
X60985200Y-16815200D03*
%TD*%
D10*
%TO.C,J1*%
X21538200Y-77241200D03*
D11*
X18998200Y-77241200D03*
X16458200Y-77241200D03*
%TD*%
D10*
%TO.C,J2*%
X21553200Y-16815200D03*
D11*
X19013200Y-16815200D03*
X16473200Y-16815200D03*
%TD*%
D10*
%TO.C,J1*%
X54922200Y-63827200D03*
D11*
X52382200Y-63827200D03*
X49842200Y-63827200D03*
%TD*%
D10*
%TO.C,J2*%
X43809200Y-30229200D03*
D11*
X41269200Y-30229200D03*
X38729200Y-30229200D03*
%TD*%
D10*
%TO.C,J2*%
X21553200Y-83885200D03*
D11*
X19013200Y-83885200D03*
X16473200Y-83885200D03*
%TD*%
D10*
%TO.C,J1*%
X66050200Y-77241200D03*
D11*
X63510200Y-77241200D03*
X60970200Y-77241200D03*
%TD*%
D10*
%TO.C,J2*%
X43809200Y-16815200D03*
D11*
X41269200Y-16815200D03*
X38729200Y-16815200D03*
%TD*%
D10*
%TO.C,J2*%
X54937200Y-16815200D03*
D11*
X52397200Y-16815200D03*
X49857200Y-16815200D03*
%TD*%
D10*
%TO.C,J2*%
X32681200Y-70471200D03*
D11*
X30141200Y-70471200D03*
X27601200Y-70471200D03*
%TD*%
D10*
%TO.C,J1*%
X77178200Y-36999200D03*
D11*
X74638200Y-36999200D03*
X72098200Y-36999200D03*
%TD*%
D10*
%TO.C,J1*%
X32666200Y-36999200D03*
D11*
X30126200Y-36999200D03*
X27586200Y-36999200D03*
%TD*%
D10*
%TO.C,J2*%
X77193200Y-16815200D03*
D11*
X74653200Y-16815200D03*
X72113200Y-16815200D03*
%TD*%
D10*
%TO.C,J1*%
X54922200Y-23585200D03*
D11*
X52382200Y-23585200D03*
X49842200Y-23585200D03*
%TD*%
D10*
%TO.C,J2*%
X21553200Y-30229200D03*
D11*
X19013200Y-30229200D03*
X16473200Y-30229200D03*
%TD*%
D10*
%TO.C,J1*%
X54922200Y-36999200D03*
D11*
X52382200Y-36999200D03*
X49842200Y-36999200D03*
%TD*%
D10*
%TO.C,J2*%
X32681200Y-57057200D03*
D11*
X30141200Y-57057200D03*
X27601200Y-57057200D03*
%TD*%
D10*
%TO.C,J1*%
X21538200Y-90655200D03*
D11*
X18998200Y-90655200D03*
X16458200Y-90655200D03*
%TD*%
D10*
%TO.C,J2*%
X32681200Y-16815200D03*
D11*
X30141200Y-16815200D03*
X27601200Y-16815200D03*
%TD*%
D10*
%TO.C,J2*%
X88321200Y-43643200D03*
D11*
X85781200Y-43643200D03*
X83241200Y-43643200D03*
%TD*%
D10*
%TO.C,J1*%
X43794200Y-77241200D03*
D11*
X41254200Y-77241200D03*
X38714200Y-77241200D03*
%TD*%
D10*
%TO.C,J1*%
X66050200Y-36999200D03*
D11*
X63510200Y-36999200D03*
X60970200Y-36999200D03*
%TD*%
D10*
%TO.C,J1*%
X32666200Y-50413200D03*
D11*
X30126200Y-50413200D03*
X27586200Y-50413200D03*
%TD*%
D10*
%TO.C,J1*%
X88306200Y-23585200D03*
D11*
X85766200Y-23585200D03*
X83226200Y-23585200D03*
%TD*%
D10*
%TO.C,J2*%
X32681200Y-43643200D03*
D11*
X30141200Y-43643200D03*
X27601200Y-43643200D03*
%TD*%
D10*
%TO.C,J1*%
X54922200Y-50413200D03*
D11*
X52382200Y-50413200D03*
X49842200Y-50413200D03*
%TD*%
D10*
%TO.C,J2*%
X66065200Y-43643200D03*
D11*
X63525200Y-43643200D03*
X60985200Y-43643200D03*
%TD*%
D10*
%TO.C,J1*%
X77178200Y-23585200D03*
D11*
X74638200Y-23585200D03*
X72098200Y-23585200D03*
%TD*%
D10*
%TO.C,J2*%
X43809200Y-83885200D03*
D11*
X41269200Y-83885200D03*
X38729200Y-83885200D03*
%TD*%
D10*
%TO.C,J1*%
X88306200Y-36999200D03*
D11*
X85766200Y-36999200D03*
X83226200Y-36999200D03*
%TD*%
D10*
%TO.C,J1*%
X43794200Y-50413200D03*
D11*
X41254200Y-50413200D03*
X38714200Y-50413200D03*
%TD*%
D10*
%TO.C,J2*%
X32681200Y-30229200D03*
D11*
X30141200Y-30229200D03*
X27601200Y-30229200D03*
%TD*%
D10*
%TO.C,J2*%
X88321200Y-57057200D03*
D11*
X85781200Y-57057200D03*
X83241200Y-57057200D03*
%TD*%
D10*
%TO.C,J2*%
X77193200Y-83885200D03*
D11*
X74653200Y-83885200D03*
X72113200Y-83885200D03*
%TD*%
D10*
%TO.C,J1*%
X66050200Y-90655200D03*
D11*
X63510200Y-90655200D03*
X60970200Y-90655200D03*
%TD*%
D10*
%TO.C,J1*%
X66050200Y-23585200D03*
D11*
X63510200Y-23585200D03*
X60970200Y-23585200D03*
%TD*%
D10*
%TO.C,J2*%
X54937200Y-43643200D03*
D11*
X52397200Y-43643200D03*
X49857200Y-43643200D03*
%TD*%
D10*
%TO.C,J2*%
X21553200Y-43643200D03*
D11*
X19013200Y-43643200D03*
X16473200Y-43643200D03*
%TD*%
D10*
%TO.C,J2*%
X66065200Y-70471200D03*
D11*
X63525200Y-70471200D03*
X60985200Y-70471200D03*
%TD*%
D10*
%TO.C,J1*%
X66050200Y-63827200D03*
D11*
X63510200Y-63827200D03*
X60970200Y-63827200D03*
%TD*%
D10*
%TO.C,J2*%
X77193200Y-57057200D03*
D11*
X74653200Y-57057200D03*
X72113200Y-57057200D03*
%TD*%
D10*
%TO.C,J1*%
X77178200Y-77241200D03*
D11*
X74638200Y-77241200D03*
X72098200Y-77241200D03*
%TD*%
D10*
%TO.C,J1*%
X88306200Y-63827200D03*
D11*
X85766200Y-63827200D03*
X83226200Y-63827200D03*
%TD*%
D10*
%TO.C,J1*%
X66050200Y-50413200D03*
D11*
X63510200Y-50413200D03*
X60970200Y-50413200D03*
%TD*%
D10*
%TO.C,J2*%
X77193200Y-70471200D03*
D11*
X74653200Y-70471200D03*
X72113200Y-70471200D03*
%TD*%
D10*
%TO.C,J1*%
X77178200Y-63827200D03*
D11*
X74638200Y-63827200D03*
X72098200Y-63827200D03*
%TD*%
D10*
%TO.C,J1*%
X77178200Y-50413200D03*
D11*
X74638200Y-50413200D03*
X72098200Y-50413200D03*
%TD*%
D10*
%TO.C,J2*%
X43809200Y-43643200D03*
D11*
X41269200Y-43643200D03*
X38729200Y-43643200D03*
%TD*%
D10*
%TO.C,J1*%
X21538200Y-23585200D03*
D11*
X18998200Y-23585200D03*
X16458200Y-23585200D03*
%TD*%
D10*
%TO.C,J2*%
X21553200Y-70471200D03*
D11*
X19013200Y-70471200D03*
X16473200Y-70471200D03*
%TD*%
D10*
%TO.C,J2*%
X54937200Y-83885200D03*
D11*
X52397200Y-83885200D03*
X49857200Y-83885200D03*
%TD*%
D10*
%TO.C,J2*%
X77193200Y-30229200D03*
D11*
X74653200Y-30229200D03*
X72113200Y-30229200D03*
%TD*%
D10*
%TO.C,J1*%
X77178200Y-90655200D03*
D11*
X74638200Y-90655200D03*
X72098200Y-90655200D03*
%TD*%
D10*
%TO.C,J2*%
X54937200Y-70471200D03*
D11*
X52397200Y-70471200D03*
X49857200Y-70471200D03*
%TD*%
D10*
%TO.C,J2*%
X88321200Y-70471200D03*
D11*
X85781200Y-70471200D03*
X83241200Y-70471200D03*
%TD*%
D10*
%TO.C,J2*%
X43809200Y-57057200D03*
D11*
X41269200Y-57057200D03*
X38729200Y-57057200D03*
%TD*%
D10*
%TO.C,J1*%
X88306200Y-90655200D03*
D11*
X85766200Y-90655200D03*
X83226200Y-90655200D03*
%TD*%
D10*
%TO.C,J1*%
X54922200Y-77241200D03*
D11*
X52382200Y-77241200D03*
X49842200Y-77241200D03*
%TD*%
D10*
%TO.C,J1*%
X21538200Y-36999200D03*
D11*
X18998200Y-36999200D03*
X16458200Y-36999200D03*
%TD*%
D10*
%TO.C,J1*%
X21538200Y-63827200D03*
D11*
X18998200Y-63827200D03*
X16458200Y-63827200D03*
%TD*%
D10*
%TO.C,J1*%
X21538200Y-50413200D03*
D11*
X18998200Y-50413200D03*
X16458200Y-50413200D03*
%TD*%
D10*
%TO.C,J1*%
X43794200Y-90655200D03*
D11*
X41254200Y-90655200D03*
X38714200Y-90655200D03*
%TD*%
D10*
%TO.C,J2*%
X43809200Y-70471200D03*
D11*
X41269200Y-70471200D03*
X38729200Y-70471200D03*
%TD*%
D10*
%TO.C,J1*%
X54922200Y-90655200D03*
D11*
X52382200Y-90655200D03*
X49842200Y-90655200D03*
%TD*%
D10*
%TO.C,J1*%
X88306200Y-50413200D03*
D11*
X85766200Y-50413200D03*
X83226200Y-50413200D03*
%TD*%
D10*
%TO.C,J2*%
X54937200Y-57057200D03*
D11*
X52397200Y-57057200D03*
X49857200Y-57057200D03*
%TD*%
D10*
%TO.C,J2*%
X66065200Y-57057200D03*
D11*
X63525200Y-57057200D03*
X60985200Y-57057200D03*
%TD*%
D10*
%TO.C,J1*%
X32666200Y-23585200D03*
D11*
X30126200Y-23585200D03*
X27586200Y-23585200D03*
%TD*%
D10*
%TO.C,J1*%
X32666200Y-90655200D03*
D11*
X30126200Y-90655200D03*
X27586200Y-90655200D03*
%TD*%
D10*
%TO.C,J1*%
X32666200Y-63827200D03*
D11*
X30126200Y-63827200D03*
X27586200Y-63827200D03*
%TD*%
D10*
%TO.C,J2*%
X54937200Y-30229200D03*
D11*
X52397200Y-30229200D03*
X49857200Y-30229200D03*
%TD*%
D10*
%TO.C,J2*%
X66065200Y-30229200D03*
D11*
X63525200Y-30229200D03*
X60985200Y-30229200D03*
%TD*%
D10*
%TO.C,J1*%
X43794200Y-23585200D03*
D11*
X41254200Y-23585200D03*
X38714200Y-23585200D03*
%TD*%
D10*
%TO.C,J2*%
X66065200Y-83885200D03*
D11*
X63525200Y-83885200D03*
X60985200Y-83885200D03*
%TD*%
D10*
%TO.C,J2*%
X32681200Y-83885200D03*
D11*
X30141200Y-83885200D03*
X27601200Y-83885200D03*
%TD*%
D10*
%TO.C,J1*%
X88306200Y-77241200D03*
D11*
X85766200Y-77241200D03*
X83226200Y-77241200D03*
%TD*%
D10*
%TO.C,J2*%
X77193200Y-43643200D03*
D11*
X74653200Y-43643200D03*
X72113200Y-43643200D03*
%TD*%
D10*
%TO.C,J1*%
X43794200Y-36999200D03*
D11*
X41254200Y-36999200D03*
X38714200Y-36999200D03*
%TD*%
D10*
%TO.C,J1*%
X43794200Y-63827200D03*
D11*
X41254200Y-63827200D03*
X38714200Y-63827200D03*
%TD*%
D10*
%TO.C,J2*%
X88321200Y-83885200D03*
D11*
X85781200Y-83885200D03*
X83241200Y-83885200D03*
%TD*%
D12*
%TO.C,C1*%
X85260800Y-74879000D03*
X83710800Y-74879000D03*
%TD*%
%TO.C,C1*%
X40748800Y-74879000D03*
X39198800Y-74879000D03*
%TD*%
D13*
%TO.C,C3*%
X87305200Y-21223000D03*
X88855200Y-21223000D03*
%TD*%
%TO.C,C3*%
X42793200Y-48051000D03*
X44343200Y-48051000D03*
%TD*%
D12*
%TO.C,C1*%
X85260800Y-48051000D03*
X83710800Y-48051000D03*
%TD*%
%TO.C,C2*%
X85260800Y-86261000D03*
X83710800Y-86261000D03*
%TD*%
D13*
%TO.C,C3*%
X31665200Y-74879000D03*
X33215200Y-74879000D03*
%TD*%
D12*
%TO.C,C1*%
X29620800Y-61465000D03*
X28070800Y-61465000D03*
%TD*%
%TO.C,C2*%
X63004800Y-46019000D03*
X61454800Y-46019000D03*
%TD*%
D13*
%TO.C,C3*%
X65049200Y-21223000D03*
X66599200Y-21223000D03*
%TD*%
D12*
%TO.C,C2*%
X51876800Y-19191000D03*
X50326800Y-19191000D03*
%TD*%
%TO.C,C4*%
X33202200Y-32605000D03*
X31652200Y-32605000D03*
%TD*%
%TO.C,C1*%
X40748800Y-48051000D03*
X39198800Y-48051000D03*
%TD*%
%TO.C,C4*%
X44330200Y-72847000D03*
X42780200Y-72847000D03*
%TD*%
%TO.C,C2*%
X51876800Y-59433000D03*
X50326800Y-59433000D03*
%TD*%
%TO.C,C4*%
X88842200Y-72847000D03*
X87292200Y-72847000D03*
%TD*%
%TO.C,C1*%
X85260800Y-61465000D03*
X83710800Y-61465000D03*
%TD*%
%TO.C,C4*%
X77714200Y-46019000D03*
X76164200Y-46019000D03*
%TD*%
D13*
%TO.C,C3*%
X31665200Y-88293000D03*
X33215200Y-88293000D03*
%TD*%
D12*
%TO.C,C2*%
X40748800Y-59433000D03*
X39198800Y-59433000D03*
%TD*%
%TO.C,C4*%
X55458200Y-46019000D03*
X53908200Y-46019000D03*
%TD*%
%TO.C,C4*%
X44330200Y-19191000D03*
X42780200Y-19191000D03*
%TD*%
%TO.C,C4*%
X77714200Y-59433000D03*
X76164200Y-59433000D03*
%TD*%
%TO.C,C2*%
X29620800Y-32605000D03*
X28070800Y-32605000D03*
%TD*%
D13*
%TO.C,C3*%
X76177200Y-34637000D03*
X77727200Y-34637000D03*
%TD*%
D12*
%TO.C,C1*%
X40748800Y-21223000D03*
X39198800Y-21223000D03*
%TD*%
%TO.C,C2*%
X40748800Y-72847000D03*
X39198800Y-72847000D03*
%TD*%
%TO.C,C1*%
X29620800Y-34637000D03*
X28070800Y-34637000D03*
%TD*%
%TO.C,C4*%
X55458200Y-32605000D03*
X53908200Y-32605000D03*
%TD*%
D13*
%TO.C,C3*%
X76177200Y-88293000D03*
X77727200Y-88293000D03*
%TD*%
D12*
%TO.C,C1*%
X51876800Y-88293000D03*
X50326800Y-88293000D03*
%TD*%
%TO.C,C1*%
X29620800Y-21223000D03*
X28070800Y-21223000D03*
%TD*%
D13*
%TO.C,C3*%
X65049200Y-88293000D03*
X66599200Y-88293000D03*
%TD*%
D12*
%TO.C,C4*%
X88842200Y-32605000D03*
X87292200Y-32605000D03*
%TD*%
D13*
%TO.C,C3*%
X76177200Y-21223000D03*
X77727200Y-21223000D03*
%TD*%
D12*
%TO.C,C2*%
X74132800Y-19191000D03*
X72582800Y-19191000D03*
%TD*%
%TO.C,C1*%
X85260800Y-21223000D03*
X83710800Y-21223000D03*
%TD*%
%TO.C,C1*%
X51876800Y-21223000D03*
X50326800Y-21223000D03*
%TD*%
%TO.C,C2*%
X51876800Y-32605000D03*
X50326800Y-32605000D03*
%TD*%
D13*
%TO.C,C3*%
X87305200Y-61465000D03*
X88855200Y-61465000D03*
%TD*%
D12*
%TO.C,C2*%
X51876800Y-72847000D03*
X50326800Y-72847000D03*
%TD*%
%TO.C,C4*%
X88842200Y-86261000D03*
X87292200Y-86261000D03*
%TD*%
%TO.C,C4*%
X44330200Y-32605000D03*
X42780200Y-32605000D03*
%TD*%
D13*
%TO.C,C3*%
X20537200Y-48051000D03*
X22087200Y-48051000D03*
%TD*%
D12*
%TO.C,C1*%
X74132800Y-61465000D03*
X72582800Y-61465000D03*
%TD*%
%TO.C,C4*%
X44330200Y-46019000D03*
X42780200Y-46019000D03*
%TD*%
D13*
%TO.C,C3*%
X87305200Y-48051000D03*
X88855200Y-48051000D03*
%TD*%
D12*
%TO.C,C2*%
X18492800Y-19191000D03*
X16942800Y-19191000D03*
%TD*%
%TO.C,C2*%
X29620800Y-86261000D03*
X28070800Y-86261000D03*
%TD*%
%TO.C,C4*%
X66586200Y-72847000D03*
X65036200Y-72847000D03*
%TD*%
%TO.C,C4*%
X55458200Y-72847000D03*
X53908200Y-72847000D03*
%TD*%
%TO.C,C2*%
X18492800Y-32605000D03*
X16942800Y-32605000D03*
%TD*%
%TO.C,C1*%
X18492800Y-61465000D03*
X16942800Y-61465000D03*
%TD*%
%TO.C,C2*%
X40748800Y-32605000D03*
X39198800Y-32605000D03*
%TD*%
D13*
%TO.C,C3*%
X53921200Y-88293000D03*
X55471200Y-88293000D03*
%TD*%
%TO.C,C3*%
X87305200Y-88293000D03*
X88855200Y-88293000D03*
%TD*%
D12*
%TO.C,C1*%
X40748800Y-61465000D03*
X39198800Y-61465000D03*
%TD*%
%TO.C,C2*%
X74132800Y-59433000D03*
X72582800Y-59433000D03*
%TD*%
%TO.C,C2*%
X18492800Y-72847000D03*
X16942800Y-72847000D03*
%TD*%
D13*
%TO.C,C3*%
X53921200Y-21223000D03*
X55471200Y-21223000D03*
%TD*%
D12*
%TO.C,C4*%
X22074200Y-72847000D03*
X20524200Y-72847000D03*
%TD*%
D13*
%TO.C,C3*%
X87305200Y-74879000D03*
X88855200Y-74879000D03*
%TD*%
D12*
%TO.C,C1*%
X18492800Y-34637000D03*
X16942800Y-34637000D03*
%TD*%
%TO.C,C4*%
X88842200Y-46019000D03*
X87292200Y-46019000D03*
%TD*%
%TO.C,C2*%
X85260800Y-59433000D03*
X83710800Y-59433000D03*
%TD*%
%TO.C,C4*%
X22074200Y-32605000D03*
X20524200Y-32605000D03*
%TD*%
D13*
%TO.C,C3*%
X53921200Y-74879000D03*
X55471200Y-74879000D03*
%TD*%
D12*
%TO.C,C4*%
X33202200Y-86261000D03*
X31652200Y-86261000D03*
%TD*%
%TO.C,C2*%
X63004800Y-32605000D03*
X61454800Y-32605000D03*
%TD*%
D13*
%TO.C,C3*%
X31665200Y-61465000D03*
X33215200Y-61465000D03*
%TD*%
D12*
%TO.C,C4*%
X55458200Y-19191000D03*
X53908200Y-19191000D03*
%TD*%
%TO.C,C2*%
X63004800Y-72847000D03*
X61454800Y-72847000D03*
%TD*%
%TO.C,C1*%
X63004800Y-21223000D03*
X61454800Y-21223000D03*
%TD*%
%TO.C,C2*%
X29620800Y-19191000D03*
X28070800Y-19191000D03*
%TD*%
%TO.C,C1*%
X51876800Y-34637000D03*
X50326800Y-34637000D03*
%TD*%
%TO.C,C2*%
X85260800Y-46019000D03*
X83710800Y-46019000D03*
%TD*%
%TO.C,C1*%
X40748800Y-88293000D03*
X39198800Y-88293000D03*
%TD*%
D13*
%TO.C,C3*%
X42793200Y-61465000D03*
X44343200Y-61465000D03*
%TD*%
D12*
%TO.C,C4*%
X77714200Y-32605000D03*
X76164200Y-32605000D03*
%TD*%
%TO.C,C1*%
X74132800Y-48051000D03*
X72582800Y-48051000D03*
%TD*%
%TO.C,C1*%
X29620800Y-48051000D03*
X28070800Y-48051000D03*
%TD*%
%TO.C,C4*%
X44330200Y-86261000D03*
X42780200Y-86261000D03*
%TD*%
%TO.C,C2*%
X85260800Y-72847000D03*
X83710800Y-72847000D03*
%TD*%
%TO.C,C4*%
X77714200Y-86261000D03*
X76164200Y-86261000D03*
%TD*%
%TO.C,C4*%
X44330200Y-59433000D03*
X42780200Y-59433000D03*
%TD*%
D13*
%TO.C,C3*%
X20537200Y-88293000D03*
X22087200Y-88293000D03*
%TD*%
D12*
%TO.C,C1*%
X85260800Y-88293000D03*
X83710800Y-88293000D03*
%TD*%
%TO.C,C2*%
X51876800Y-86261000D03*
X50326800Y-86261000D03*
%TD*%
%TO.C,C1*%
X51876800Y-48051000D03*
X50326800Y-48051000D03*
%TD*%
D13*
%TO.C,C3*%
X20537200Y-21223000D03*
X22087200Y-21223000D03*
%TD*%
D12*
%TO.C,C2*%
X18492800Y-86261000D03*
X16942800Y-86261000D03*
%TD*%
%TO.C,C4*%
X33202200Y-19191000D03*
X31652200Y-19191000D03*
%TD*%
%TO.C,C1*%
X63004800Y-88293000D03*
X61454800Y-88293000D03*
%TD*%
%TO.C,C4*%
X22074200Y-19191000D03*
X20524200Y-19191000D03*
%TD*%
%TO.C,C1*%
X74132800Y-88293000D03*
X72582800Y-88293000D03*
%TD*%
D13*
%TO.C,C3*%
X65049200Y-61465000D03*
X66599200Y-61465000D03*
%TD*%
D12*
%TO.C,C4*%
X33202200Y-59433000D03*
X31652200Y-59433000D03*
%TD*%
D13*
%TO.C,C3*%
X65049200Y-48051000D03*
X66599200Y-48051000D03*
%TD*%
%TO.C,C3*%
X31665200Y-48051000D03*
X33215200Y-48051000D03*
%TD*%
D12*
%TO.C,C1*%
X29620800Y-88293000D03*
X28070800Y-88293000D03*
%TD*%
D13*
%TO.C,C3*%
X53921200Y-61465000D03*
X55471200Y-61465000D03*
%TD*%
D12*
%TO.C,C2*%
X74132800Y-72847000D03*
X72582800Y-72847000D03*
%TD*%
%TO.C,C2*%
X29620800Y-46019000D03*
X28070800Y-46019000D03*
%TD*%
%TO.C,C1*%
X63004800Y-61465000D03*
X61454800Y-61465000D03*
%TD*%
D13*
%TO.C,C3*%
X87305200Y-34637000D03*
X88855200Y-34637000D03*
%TD*%
D12*
%TO.C,C2*%
X29620800Y-59433000D03*
X28070800Y-59433000D03*
%TD*%
D13*
%TO.C,C3*%
X31665200Y-21223000D03*
X33215200Y-21223000D03*
%TD*%
%TO.C,C3*%
X42793200Y-34637000D03*
X44343200Y-34637000D03*
%TD*%
D12*
%TO.C,C4*%
X55458200Y-86261000D03*
X53908200Y-86261000D03*
%TD*%
D13*
%TO.C,C3*%
X20537200Y-74879000D03*
X22087200Y-74879000D03*
%TD*%
D12*
%TO.C,C2*%
X40748800Y-19191000D03*
X39198800Y-19191000D03*
%TD*%
%TO.C,C2*%
X74132800Y-32605000D03*
X72582800Y-32605000D03*
%TD*%
D13*
%TO.C,C3*%
X20537200Y-34637000D03*
X22087200Y-34637000D03*
%TD*%
D12*
%TO.C,C1*%
X74132800Y-74879000D03*
X72582800Y-74879000D03*
%TD*%
D13*
%TO.C,C3*%
X53921200Y-48051000D03*
X55471200Y-48051000D03*
%TD*%
D12*
%TO.C,C2*%
X51876800Y-46019000D03*
X50326800Y-46019000D03*
%TD*%
D13*
%TO.C,C3*%
X42793200Y-74879000D03*
X44343200Y-74879000D03*
%TD*%
D12*
%TO.C,C4*%
X66586200Y-86261000D03*
X65036200Y-86261000D03*
%TD*%
%TO.C,C1*%
X18492800Y-74879000D03*
X16942800Y-74879000D03*
%TD*%
D13*
%TO.C,C3*%
X42793200Y-88293000D03*
X44343200Y-88293000D03*
%TD*%
D12*
%TO.C,C4*%
X55458200Y-59433000D03*
X53908200Y-59433000D03*
%TD*%
%TO.C,C4*%
X77714200Y-19191000D03*
X76164200Y-19191000D03*
%TD*%
%TO.C,C2*%
X63004800Y-86261000D03*
X61454800Y-86261000D03*
%TD*%
%TO.C,C2*%
X85260800Y-19191000D03*
X83710800Y-19191000D03*
%TD*%
%TO.C,C1*%
X51876800Y-61465000D03*
X50326800Y-61465000D03*
%TD*%
%TO.C,C2*%
X18492800Y-46019000D03*
X16942800Y-46019000D03*
%TD*%
%TO.C,C2*%
X40748800Y-46019000D03*
X39198800Y-46019000D03*
%TD*%
%TO.C,C4*%
X22074200Y-86261000D03*
X20524200Y-86261000D03*
%TD*%
%TO.C,C4*%
X66586200Y-19191000D03*
X65036200Y-19191000D03*
%TD*%
%TO.C,C1*%
X63004800Y-74879000D03*
X61454800Y-74879000D03*
%TD*%
%TO.C,C2*%
X29620800Y-72847000D03*
X28070800Y-72847000D03*
%TD*%
%TO.C,C1*%
X40748800Y-34637000D03*
X39198800Y-34637000D03*
%TD*%
%TO.C,C1*%
X85260800Y-34637000D03*
X83710800Y-34637000D03*
%TD*%
%TO.C,C4*%
X33202200Y-46019000D03*
X31652200Y-46019000D03*
%TD*%
%TO.C,C4*%
X66586200Y-46019000D03*
X65036200Y-46019000D03*
%TD*%
%TO.C,C1*%
X63004800Y-48051000D03*
X61454800Y-48051000D03*
%TD*%
%TO.C,C2*%
X18492800Y-59433000D03*
X16942800Y-59433000D03*
%TD*%
D13*
%TO.C,C3*%
X65049200Y-74879000D03*
X66599200Y-74879000D03*
%TD*%
D12*
%TO.C,C4*%
X88842200Y-19191000D03*
X87292200Y-19191000D03*
%TD*%
%TO.C,C2*%
X85260800Y-32605000D03*
X83710800Y-32605000D03*
%TD*%
%TO.C,C1*%
X18492800Y-48051000D03*
X16942800Y-48051000D03*
%TD*%
%TO.C,C4*%
X66586200Y-59433000D03*
X65036200Y-59433000D03*
%TD*%
D13*
%TO.C,C3*%
X42793200Y-21223000D03*
X44343200Y-21223000D03*
%TD*%
%TO.C,C3*%
X65049200Y-34637000D03*
X66599200Y-34637000D03*
%TD*%
D12*
%TO.C,C4*%
X22074200Y-46019000D03*
X20524200Y-46019000D03*
%TD*%
D13*
%TO.C,C3*%
X53921200Y-34637000D03*
X55471200Y-34637000D03*
%TD*%
D12*
%TO.C,C1*%
X29620800Y-74879000D03*
X28070800Y-74879000D03*
%TD*%
%TO.C,C1*%
X18492800Y-21223000D03*
X16942800Y-21223000D03*
%TD*%
%TO.C,C4*%
X33202200Y-72847000D03*
X31652200Y-72847000D03*
%TD*%
%TO.C,C1*%
X63004800Y-34637000D03*
X61454800Y-34637000D03*
%TD*%
%TO.C,C2*%
X63004800Y-59433000D03*
X61454800Y-59433000D03*
%TD*%
%TO.C,C1*%
X74132800Y-34637000D03*
X72582800Y-34637000D03*
%TD*%
D13*
%TO.C,C3*%
X76177200Y-61465000D03*
X77727200Y-61465000D03*
%TD*%
D12*
%TO.C,C2*%
X74132800Y-46019000D03*
X72582800Y-46019000D03*
%TD*%
%TO.C,C1*%
X74132800Y-21223000D03*
X72582800Y-21223000D03*
%TD*%
%TO.C,C1*%
X18492800Y-88293000D03*
X16942800Y-88293000D03*
%TD*%
%TO.C,C4*%
X77714200Y-72847000D03*
X76164200Y-72847000D03*
%TD*%
%TO.C,C2*%
X74132800Y-86261000D03*
X72582800Y-86261000D03*
%TD*%
%TO.C,C2*%
X40748800Y-86261000D03*
X39198800Y-86261000D03*
%TD*%
%TO.C,C2*%
X63004800Y-19191000D03*
X61454800Y-19191000D03*
%TD*%
D13*
%TO.C,C3*%
X76177200Y-48051000D03*
X77727200Y-48051000D03*
%TD*%
%TO.C,C3*%
X31665200Y-34637000D03*
X33215200Y-34637000D03*
%TD*%
D12*
%TO.C,C4*%
X22074200Y-59433000D03*
X20524200Y-59433000D03*
%TD*%
D13*
%TO.C,C3*%
X76177200Y-74879000D03*
X77727200Y-74879000D03*
%TD*%
D12*
%TO.C,C1*%
X51876800Y-74879000D03*
X50326800Y-74879000D03*
%TD*%
%TO.C,C4*%
X66586200Y-32605000D03*
X65036200Y-32605000D03*
%TD*%
%TO.C,C4*%
X88842200Y-59433000D03*
X87292200Y-59433000D03*
%TD*%
D13*
%TO.C,C3*%
X20537200Y-61465000D03*
X22087200Y-61465000D03*
%TD*%
M02*
