%TF.GenerationSoftware,KiCad,Pcbnew,(6.0.5-0)*%
%TF.CreationDate,2022-12-24T13:27:48+01:00*%
%TF.ProjectId,panel,70616e65-6c2e-46b6-9963-61645f706362,rev?*%
%TF.SameCoordinates,Original*%
%TF.FileFunction,Legend,Bot*%
%TF.FilePolarity,Positive*%
%FSLAX46Y46*%
G04 Gerber Fmt 4.6, Leading zero omitted, Abs format (unit mm)*
G04 Created by KiCad (PCBNEW (6.0.5-0)) date 2022-12-24 13:27:48*
%MOMM*%
%LPD*%
G01*
G04 APERTURE LIST*
%ADD10C,0.120000*%
G04 APERTURE END LIST*
D10*
%TO.C,C3*%
X51555620Y-21733000D02*
X51836780Y-21733000D01*
X51555620Y-20713000D02*
X51836780Y-20713000D01*
%TO.C,C2*%
X58370380Y-31095000D02*
X58089220Y-31095000D01*
X58370380Y-32115000D02*
X58089220Y-32115000D01*
%TO.C,C3*%
X41427620Y-20713000D02*
X41708780Y-20713000D01*
X41427620Y-21733000D02*
X41708780Y-21733000D01*
X61683620Y-20713000D02*
X61964780Y-20713000D01*
X61683620Y-21733000D02*
X61964780Y-21733000D01*
%TO.C,C2*%
X48242380Y-18681000D02*
X47961220Y-18681000D01*
X48242380Y-19701000D02*
X47961220Y-19701000D01*
%TO.C,C4*%
X61951780Y-32115000D02*
X61670620Y-32115000D01*
X61951780Y-31095000D02*
X61670620Y-31095000D01*
%TO.C,C3*%
X41427620Y-33127000D02*
X41708780Y-33127000D01*
X41427620Y-34147000D02*
X41708780Y-34147000D01*
%TO.C,C4*%
X51823780Y-19701000D02*
X51542620Y-19701000D01*
X51823780Y-18681000D02*
X51542620Y-18681000D01*
%TO.C,C2*%
X17858380Y-18681000D02*
X17577220Y-18681000D01*
X17858380Y-19701000D02*
X17577220Y-19701000D01*
X27986380Y-31095000D02*
X27705220Y-31095000D01*
X27986380Y-32115000D02*
X27705220Y-32115000D01*
%TO.C,C4*%
X51823780Y-31095000D02*
X51542620Y-31095000D01*
X51823780Y-32115000D02*
X51542620Y-32115000D01*
%TO.C,C2*%
X58370380Y-19701000D02*
X58089220Y-19701000D01*
X58370380Y-18681000D02*
X58089220Y-18681000D01*
%TO.C,C1*%
X38114380Y-34147000D02*
X37833220Y-34147000D01*
X38114380Y-33127000D02*
X37833220Y-33127000D01*
%TO.C,C3*%
X31299620Y-20713000D02*
X31580780Y-20713000D01*
X31299620Y-21733000D02*
X31580780Y-21733000D01*
%TO.C,C1*%
X27986380Y-34147000D02*
X27705220Y-34147000D01*
X27986380Y-33127000D02*
X27705220Y-33127000D01*
X17858380Y-20713000D02*
X17577220Y-20713000D01*
X17858380Y-21733000D02*
X17577220Y-21733000D01*
X58370380Y-33127000D02*
X58089220Y-33127000D01*
X58370380Y-34147000D02*
X58089220Y-34147000D01*
%TO.C,C3*%
X31299620Y-34147000D02*
X31580780Y-34147000D01*
X31299620Y-33127000D02*
X31580780Y-33127000D01*
%TO.C,C1*%
X58370380Y-20713000D02*
X58089220Y-20713000D01*
X58370380Y-21733000D02*
X58089220Y-21733000D01*
%TO.C,C3*%
X21171620Y-33127000D02*
X21452780Y-33127000D01*
X21171620Y-34147000D02*
X21452780Y-34147000D01*
%TO.C,C2*%
X48242380Y-31095000D02*
X47961220Y-31095000D01*
X48242380Y-32115000D02*
X47961220Y-32115000D01*
%TO.C,C4*%
X61951780Y-18681000D02*
X61670620Y-18681000D01*
X61951780Y-19701000D02*
X61670620Y-19701000D01*
%TO.C,C2*%
X17858380Y-32115000D02*
X17577220Y-32115000D01*
X17858380Y-31095000D02*
X17577220Y-31095000D01*
X38114380Y-32115000D02*
X37833220Y-32115000D01*
X38114380Y-31095000D02*
X37833220Y-31095000D01*
%TO.C,C4*%
X21439780Y-18681000D02*
X21158620Y-18681000D01*
X21439780Y-19701000D02*
X21158620Y-19701000D01*
%TO.C,C3*%
X61683620Y-34147000D02*
X61964780Y-34147000D01*
X61683620Y-33127000D02*
X61964780Y-33127000D01*
%TO.C,C1*%
X48242380Y-20713000D02*
X47961220Y-20713000D01*
X48242380Y-21733000D02*
X47961220Y-21733000D01*
X48242380Y-34147000D02*
X47961220Y-34147000D01*
X48242380Y-33127000D02*
X47961220Y-33127000D01*
%TO.C,C3*%
X21171620Y-20713000D02*
X21452780Y-20713000D01*
X21171620Y-21733000D02*
X21452780Y-21733000D01*
%TO.C,C2*%
X27986380Y-19701000D02*
X27705220Y-19701000D01*
X27986380Y-18681000D02*
X27705220Y-18681000D01*
X38114380Y-19701000D02*
X37833220Y-19701000D01*
X38114380Y-18681000D02*
X37833220Y-18681000D01*
%TO.C,C1*%
X17858380Y-34147000D02*
X17577220Y-34147000D01*
X17858380Y-33127000D02*
X17577220Y-33127000D01*
%TO.C,C4*%
X41695780Y-19701000D02*
X41414620Y-19701000D01*
X41695780Y-18681000D02*
X41414620Y-18681000D01*
X31567780Y-19701000D02*
X31286620Y-19701000D01*
X31567780Y-18681000D02*
X31286620Y-18681000D01*
%TO.C,C1*%
X27986380Y-21733000D02*
X27705220Y-21733000D01*
X27986380Y-20713000D02*
X27705220Y-20713000D01*
%TO.C,C4*%
X41695780Y-32115000D02*
X41414620Y-32115000D01*
X41695780Y-31095000D02*
X41414620Y-31095000D01*
%TO.C,C1*%
X38114380Y-21733000D02*
X37833220Y-21733000D01*
X38114380Y-20713000D02*
X37833220Y-20713000D01*
%TO.C,C3*%
X51555620Y-33127000D02*
X51836780Y-33127000D01*
X51555620Y-34147000D02*
X51836780Y-34147000D01*
%TO.C,C4*%
X21439780Y-31095000D02*
X21158620Y-31095000D01*
X21439780Y-32115000D02*
X21158620Y-32115000D01*
X31567780Y-32115000D02*
X31286620Y-32115000D01*
X31567780Y-31095000D02*
X31286620Y-31095000D01*
%TD*%
M02*
