M48
; DRILL file {KiCad (6.0.5-0)} date Saturday, 24 December 2022 at 13:27:46
; FORMAT={-:-/ absolute / metric / decimal}
; #@! TF.CreationDate,2022-12-24T13:27:46+01:00
; #@! TF.GenerationSoftware,Kicad,Pcbnew,(6.0.5-0)
; #@! TF.FileFunction,Plated,1,2,PTH
FMAT,2
METRIC
; #@! TA.AperFunction,Plated,PTH,ComponentDrill
T1C1.000
%
G90
G05
T1
X16.458Y-23.585
X16.458Y-35.999
X16.473Y-16.815
X16.473Y-29.229
X18.998Y-23.585
X18.998Y-35.999
X19.013Y-16.815
X19.013Y-29.229
X21.538Y-23.585
X21.538Y-35.999
X21.553Y-16.815
X21.553Y-29.229
X26.586Y-23.585
X26.586Y-35.999
X26.601Y-16.815
X26.601Y-29.229
X29.126Y-23.585
X29.126Y-35.999
X29.141Y-16.815
X29.141Y-29.229
X31.666Y-23.585
X31.666Y-35.999
X31.681Y-16.815
X31.681Y-29.229
X36.714Y-23.585
X36.714Y-35.999
X36.729Y-16.815
X36.729Y-29.229
X39.254Y-23.585
X39.254Y-35.999
X39.269Y-16.815
X39.269Y-29.229
X41.794Y-23.585
X41.794Y-35.999
X41.809Y-16.815
X41.809Y-29.229
X46.842Y-23.585
X46.842Y-35.999
X46.857Y-16.815
X46.857Y-29.229
X49.382Y-23.585
X49.382Y-35.999
X49.397Y-16.815
X49.397Y-29.229
X51.922Y-23.585
X51.922Y-35.999
X51.937Y-16.815
X51.937Y-29.229
X56.97Y-23.585
X56.97Y-35.999
X56.985Y-16.815
X56.985Y-29.229
X59.51Y-23.585
X59.51Y-35.999
X59.525Y-16.815
X59.525Y-29.229
X62.05Y-23.585
X62.05Y-35.999
X62.065Y-16.815
X62.065Y-29.229
T0
M30
