%TF.GenerationSoftware,KiCad,Pcbnew,(6.0.5-0)*%
%TF.CreationDate,2022-12-24T13:27:48+01:00*%
%TF.ProjectId,panel,70616e65-6c2e-46b6-9963-61645f706362,rev?*%
%TF.SameCoordinates,Original*%
%TF.FileFunction,Legend,Top*%
%TF.FilePolarity,Positive*%
%FSLAX46Y46*%
G04 Gerber Fmt 4.6, Leading zero omitted, Abs format (unit mm)*
G04 Created by KiCad (PCBNEW (6.0.5-0)) date 2022-12-24 13:27:48*
%MOMM*%
%LPD*%
G01*
G04 APERTURE LIST*
%ADD10C,0.150000*%
%ADD11C,0.120000*%
G04 APERTURE END LIST*
D10*
X60084000Y-19699000D02*
X59703000Y-19191000D01*
X29700000Y-19699000D02*
X29319000Y-19191000D01*
X49956000Y-19699000D02*
X49575000Y-19191000D01*
X39828000Y-32113000D02*
X39447000Y-31605000D01*
X19572000Y-19699000D02*
X19191000Y-19191000D01*
X39828000Y-19699000D02*
X39447000Y-19191000D01*
X19572000Y-32113000D02*
X19191000Y-31605000D01*
X29700000Y-32113000D02*
X29319000Y-31605000D01*
X49956000Y-32113000D02*
X49575000Y-31605000D01*
X60084000Y-32113000D02*
X59703000Y-31605000D01*
X61608000Y-19699000D02*
X62624000Y-19699000D01*
X62624000Y-19699000D02*
X62624000Y-20715000D01*
X62624000Y-20715000D02*
X61608000Y-20715000D01*
X61608000Y-20715000D02*
X61608000Y-19699000D01*
X31224000Y-19699000D02*
X32240000Y-19699000D01*
X32240000Y-19699000D02*
X32240000Y-20715000D01*
X32240000Y-20715000D02*
X31224000Y-20715000D01*
X31224000Y-20715000D02*
X31224000Y-19699000D01*
X51480000Y-19699000D02*
X52496000Y-19699000D01*
X52496000Y-19699000D02*
X52496000Y-20715000D01*
X52496000Y-20715000D02*
X51480000Y-20715000D01*
X51480000Y-20715000D02*
X51480000Y-19699000D01*
X41352000Y-32113000D02*
X42368000Y-32113000D01*
X42368000Y-32113000D02*
X42368000Y-33129000D01*
X42368000Y-33129000D02*
X41352000Y-33129000D01*
X41352000Y-33129000D02*
X41352000Y-32113000D01*
X61608000Y-32113000D02*
X62624000Y-32113000D01*
X62624000Y-32113000D02*
X62624000Y-33129000D01*
X62624000Y-33129000D02*
X61608000Y-33129000D01*
X61608000Y-33129000D02*
X61608000Y-32113000D01*
X21096000Y-19699000D02*
X22112000Y-19699000D01*
X22112000Y-19699000D02*
X22112000Y-20715000D01*
X22112000Y-20715000D02*
X21096000Y-20715000D01*
X21096000Y-20715000D02*
X21096000Y-19699000D01*
X41352000Y-19699000D02*
X42368000Y-19699000D01*
X42368000Y-19699000D02*
X42368000Y-20715000D01*
X42368000Y-20715000D02*
X41352000Y-20715000D01*
X41352000Y-20715000D02*
X41352000Y-19699000D01*
X21096000Y-32113000D02*
X22112000Y-32113000D01*
X22112000Y-32113000D02*
X22112000Y-33129000D01*
X22112000Y-33129000D02*
X21096000Y-33129000D01*
X21096000Y-33129000D02*
X21096000Y-32113000D01*
X31224000Y-32113000D02*
X32240000Y-32113000D01*
X32240000Y-32113000D02*
X32240000Y-33129000D01*
X32240000Y-33129000D02*
X31224000Y-33129000D01*
X31224000Y-33129000D02*
X31224000Y-32113000D01*
X51480000Y-32113000D02*
X52496000Y-32113000D01*
X52496000Y-32113000D02*
X52496000Y-33129000D01*
X52496000Y-33129000D02*
X51480000Y-33129000D01*
X51480000Y-33129000D02*
X51480000Y-32113000D01*
X59322000Y-19699000D02*
X59703000Y-19191000D01*
X28938000Y-19699000D02*
X29319000Y-19191000D01*
X49194000Y-19699000D02*
X49575000Y-19191000D01*
X39066000Y-32113000D02*
X39447000Y-31605000D01*
X59322000Y-32113000D02*
X59703000Y-31605000D01*
X18810000Y-19699000D02*
X19191000Y-19191000D01*
X39066000Y-19699000D02*
X39447000Y-19191000D01*
X18810000Y-32113000D02*
X19191000Y-31605000D01*
X28938000Y-32113000D02*
X29319000Y-31605000D01*
X49194000Y-32113000D02*
X49575000Y-31605000D01*
X59703000Y-21096000D02*
X59703000Y-20715000D01*
X29319000Y-21096000D02*
X29319000Y-20715000D01*
X49575000Y-21096000D02*
X49575000Y-20715000D01*
X39447000Y-33510000D02*
X39447000Y-33129000D01*
X59703000Y-33510000D02*
X59703000Y-33129000D01*
X19191000Y-21096000D02*
X19191000Y-20715000D01*
X39447000Y-21096000D02*
X39447000Y-20715000D01*
X19191000Y-33510000D02*
X19191000Y-33129000D01*
X29319000Y-33510000D02*
X29319000Y-33129000D01*
X49575000Y-33510000D02*
X49575000Y-33129000D01*
X59703000Y-20715000D02*
X59703000Y-19191000D01*
X29319000Y-20715000D02*
X29319000Y-19191000D01*
X49575000Y-20715000D02*
X49575000Y-19191000D01*
X39447000Y-33129000D02*
X39447000Y-31605000D01*
X59703000Y-33129000D02*
X59703000Y-31605000D01*
X19191000Y-20715000D02*
X19191000Y-19191000D01*
X39447000Y-20715000D02*
X39447000Y-19191000D01*
X19191000Y-33129000D02*
X19191000Y-31605000D01*
X29319000Y-33129000D02*
X29319000Y-31605000D01*
X49575000Y-33129000D02*
X49575000Y-31605000D01*
D11*
%TO.C,J2*%
X50667200Y-18145200D02*
X45527200Y-18145200D01*
X53267200Y-15485200D02*
X53267200Y-16815200D01*
X50667200Y-15485200D02*
X50667200Y-18145200D01*
X50667200Y-15485200D02*
X45527200Y-15485200D01*
X51937200Y-15485200D02*
X53267200Y-15485200D01*
X45527200Y-15485200D02*
X45527200Y-18145200D01*
X41809200Y-27899200D02*
X43139200Y-27899200D01*
X40539200Y-27899200D02*
X35399200Y-27899200D01*
X40539200Y-30559200D02*
X35399200Y-30559200D01*
X40539200Y-27899200D02*
X40539200Y-30559200D01*
X35399200Y-27899200D02*
X35399200Y-30559200D01*
X43139200Y-27899200D02*
X43139200Y-29229200D01*
X31681200Y-15485200D02*
X33011200Y-15485200D01*
X30411200Y-15485200D02*
X30411200Y-18145200D01*
X25271200Y-15485200D02*
X25271200Y-18145200D01*
X33011200Y-15485200D02*
X33011200Y-16815200D01*
X30411200Y-18145200D02*
X25271200Y-18145200D01*
X30411200Y-15485200D02*
X25271200Y-15485200D01*
X40539200Y-15485200D02*
X40539200Y-18145200D01*
X35399200Y-15485200D02*
X35399200Y-18145200D01*
X43139200Y-15485200D02*
X43139200Y-16815200D01*
X40539200Y-18145200D02*
X35399200Y-18145200D01*
X41809200Y-15485200D02*
X43139200Y-15485200D01*
X40539200Y-15485200D02*
X35399200Y-15485200D01*
%TO.C,J1*%
X22868200Y-22255200D02*
X22868200Y-23585200D01*
X20268200Y-22255200D02*
X15128200Y-22255200D01*
X15128200Y-22255200D02*
X15128200Y-24915200D01*
X20268200Y-22255200D02*
X20268200Y-24915200D01*
X21538200Y-22255200D02*
X22868200Y-22255200D01*
X20268200Y-24915200D02*
X15128200Y-24915200D01*
X50652200Y-24915200D02*
X45512200Y-24915200D01*
X45512200Y-22255200D02*
X45512200Y-24915200D01*
X51922200Y-22255200D02*
X53252200Y-22255200D01*
X50652200Y-22255200D02*
X45512200Y-22255200D01*
X50652200Y-22255200D02*
X50652200Y-24915200D01*
X53252200Y-22255200D02*
X53252200Y-23585200D01*
X32996200Y-34669200D02*
X32996200Y-35999200D01*
X30396200Y-34669200D02*
X25256200Y-34669200D01*
X30396200Y-37329200D02*
X25256200Y-37329200D01*
X30396200Y-34669200D02*
X30396200Y-37329200D01*
X31666200Y-34669200D02*
X32996200Y-34669200D01*
X25256200Y-34669200D02*
X25256200Y-37329200D01*
%TO.C,J2*%
X51937200Y-27899200D02*
X53267200Y-27899200D01*
X50667200Y-27899200D02*
X45527200Y-27899200D01*
X45527200Y-27899200D02*
X45527200Y-30559200D01*
X50667200Y-27899200D02*
X50667200Y-30559200D01*
X53267200Y-27899200D02*
X53267200Y-29229200D01*
X50667200Y-30559200D02*
X45527200Y-30559200D01*
%TO.C,J1*%
X63380200Y-22255200D02*
X63380200Y-23585200D01*
X60780200Y-24915200D02*
X55640200Y-24915200D01*
X55640200Y-22255200D02*
X55640200Y-24915200D01*
X60780200Y-22255200D02*
X60780200Y-24915200D01*
X60780200Y-22255200D02*
X55640200Y-22255200D01*
X62050200Y-22255200D02*
X63380200Y-22255200D01*
X40524200Y-22255200D02*
X35384200Y-22255200D01*
X40524200Y-22255200D02*
X40524200Y-24915200D01*
X43124200Y-22255200D02*
X43124200Y-23585200D01*
X35384200Y-22255200D02*
X35384200Y-24915200D01*
X40524200Y-24915200D02*
X35384200Y-24915200D01*
X41794200Y-22255200D02*
X43124200Y-22255200D01*
%TO.C,J2*%
X15143200Y-27899200D02*
X15143200Y-30559200D01*
X20283200Y-27899200D02*
X15143200Y-27899200D01*
X22883200Y-27899200D02*
X22883200Y-29229200D01*
X20283200Y-27899200D02*
X20283200Y-30559200D01*
X20283200Y-30559200D02*
X15143200Y-30559200D01*
X21553200Y-27899200D02*
X22883200Y-27899200D01*
%TO.C,J1*%
X30396200Y-24915200D02*
X25256200Y-24915200D01*
X31666200Y-22255200D02*
X32996200Y-22255200D01*
X30396200Y-22255200D02*
X25256200Y-22255200D01*
X30396200Y-22255200D02*
X30396200Y-24915200D01*
X32996200Y-22255200D02*
X32996200Y-23585200D01*
X25256200Y-22255200D02*
X25256200Y-24915200D01*
X62050200Y-34669200D02*
X63380200Y-34669200D01*
X63380200Y-34669200D02*
X63380200Y-35999200D01*
X60780200Y-34669200D02*
X60780200Y-37329200D01*
X55640200Y-34669200D02*
X55640200Y-37329200D01*
X60780200Y-37329200D02*
X55640200Y-37329200D01*
X60780200Y-34669200D02*
X55640200Y-34669200D01*
X20268200Y-34669200D02*
X15128200Y-34669200D01*
X15128200Y-34669200D02*
X15128200Y-37329200D01*
X22868200Y-34669200D02*
X22868200Y-35999200D01*
X20268200Y-34669200D02*
X20268200Y-37329200D01*
X21538200Y-34669200D02*
X22868200Y-34669200D01*
X20268200Y-37329200D02*
X15128200Y-37329200D01*
%TO.C,J2*%
X55655200Y-15485200D02*
X55655200Y-18145200D01*
X60795200Y-18145200D02*
X55655200Y-18145200D01*
X62065200Y-15485200D02*
X63395200Y-15485200D01*
X63395200Y-15485200D02*
X63395200Y-16815200D01*
X60795200Y-15485200D02*
X60795200Y-18145200D01*
X60795200Y-15485200D02*
X55655200Y-15485200D01*
%TO.C,J1*%
X35384200Y-34669200D02*
X35384200Y-37329200D01*
X40524200Y-34669200D02*
X40524200Y-37329200D01*
X40524200Y-37329200D02*
X35384200Y-37329200D01*
X41794200Y-34669200D02*
X43124200Y-34669200D01*
X40524200Y-34669200D02*
X35384200Y-34669200D01*
X43124200Y-34669200D02*
X43124200Y-35999200D01*
X50652200Y-34669200D02*
X50652200Y-37329200D01*
X53252200Y-34669200D02*
X53252200Y-35999200D01*
X45512200Y-34669200D02*
X45512200Y-37329200D01*
X51922200Y-34669200D02*
X53252200Y-34669200D01*
X50652200Y-34669200D02*
X45512200Y-34669200D01*
X50652200Y-37329200D02*
X45512200Y-37329200D01*
%TO.C,J2*%
X60795200Y-27899200D02*
X60795200Y-30559200D01*
X63395200Y-27899200D02*
X63395200Y-29229200D01*
X62065200Y-27899200D02*
X63395200Y-27899200D01*
X60795200Y-30559200D02*
X55655200Y-30559200D01*
X55655200Y-27899200D02*
X55655200Y-30559200D01*
X60795200Y-27899200D02*
X55655200Y-27899200D01*
X22883200Y-15485200D02*
X22883200Y-16815200D01*
X20283200Y-15485200D02*
X20283200Y-18145200D01*
X20283200Y-18145200D02*
X15143200Y-18145200D01*
X15143200Y-15485200D02*
X15143200Y-18145200D01*
X20283200Y-15485200D02*
X15143200Y-15485200D01*
X21553200Y-15485200D02*
X22883200Y-15485200D01*
X33011200Y-27899200D02*
X33011200Y-29229200D01*
X30411200Y-27899200D02*
X30411200Y-30559200D01*
X30411200Y-30559200D02*
X25271200Y-30559200D01*
X25271200Y-27899200D02*
X25271200Y-30559200D01*
X30411200Y-27899200D02*
X25271200Y-27899200D01*
X31681200Y-27899200D02*
X33011200Y-27899200D01*
%TD*%
M02*
