%TF.GenerationSoftware,KiCad,Pcbnew,(6.0.5-0)*%
%TF.CreationDate,2022-12-26T11:12:43+01:00*%
%TF.ProjectId,panel,70616e65-6c2e-46b6-9963-61645f706362,rev?*%
%TF.SameCoordinates,Original*%
%TF.FileFunction,Soldermask,Top*%
%TF.FilePolarity,Negative*%
%FSLAX46Y46*%
G04 Gerber Fmt 4.6, Leading zero omitted, Abs format (unit mm)*
G04 Created by KiCad (PCBNEW (6.0.5-0)) date 2022-12-26 11:12:43*
%MOMM*%
%LPD*%
G01*
G04 APERTURE LIST*
%ADD10R,1.700000X1.700000*%
%ADD11O,1.700000X1.700000*%
G04 APERTURE END LIST*
D10*
%TO.C,J1*%
X32666200Y-77241200D03*
D11*
X30126200Y-77241200D03*
X27586200Y-77241200D03*
%TD*%
D10*
%TO.C,J2*%
X21553200Y-57057200D03*
D11*
X19013200Y-57057200D03*
X16473200Y-57057200D03*
%TD*%
D10*
%TO.C,J2*%
X88321200Y-30229200D03*
D11*
X85781200Y-30229200D03*
X83241200Y-30229200D03*
%TD*%
D10*
%TO.C,J2*%
X88321200Y-16815200D03*
D11*
X85781200Y-16815200D03*
X83241200Y-16815200D03*
%TD*%
D10*
%TO.C,J2*%
X66065200Y-16815200D03*
D11*
X63525200Y-16815200D03*
X60985200Y-16815200D03*
%TD*%
D10*
%TO.C,J1*%
X21538200Y-77241200D03*
D11*
X18998200Y-77241200D03*
X16458200Y-77241200D03*
%TD*%
D10*
%TO.C,J2*%
X21553200Y-16815200D03*
D11*
X19013200Y-16815200D03*
X16473200Y-16815200D03*
%TD*%
D10*
%TO.C,J1*%
X54922200Y-63827200D03*
D11*
X52382200Y-63827200D03*
X49842200Y-63827200D03*
%TD*%
D10*
%TO.C,J2*%
X43809200Y-30229200D03*
D11*
X41269200Y-30229200D03*
X38729200Y-30229200D03*
%TD*%
D10*
%TO.C,J2*%
X21553200Y-83885200D03*
D11*
X19013200Y-83885200D03*
X16473200Y-83885200D03*
%TD*%
D10*
%TO.C,J1*%
X66050200Y-77241200D03*
D11*
X63510200Y-77241200D03*
X60970200Y-77241200D03*
%TD*%
D10*
%TO.C,J2*%
X43809200Y-16815200D03*
D11*
X41269200Y-16815200D03*
X38729200Y-16815200D03*
%TD*%
D10*
%TO.C,J2*%
X54937200Y-16815200D03*
D11*
X52397200Y-16815200D03*
X49857200Y-16815200D03*
%TD*%
D10*
%TO.C,J2*%
X32681200Y-70471200D03*
D11*
X30141200Y-70471200D03*
X27601200Y-70471200D03*
%TD*%
D10*
%TO.C,J1*%
X77178200Y-36999200D03*
D11*
X74638200Y-36999200D03*
X72098200Y-36999200D03*
%TD*%
D10*
%TO.C,J1*%
X32666200Y-36999200D03*
D11*
X30126200Y-36999200D03*
X27586200Y-36999200D03*
%TD*%
D10*
%TO.C,J2*%
X77193200Y-16815200D03*
D11*
X74653200Y-16815200D03*
X72113200Y-16815200D03*
%TD*%
D10*
%TO.C,J1*%
X54922200Y-23585200D03*
D11*
X52382200Y-23585200D03*
X49842200Y-23585200D03*
%TD*%
D10*
%TO.C,J2*%
X21553200Y-30229200D03*
D11*
X19013200Y-30229200D03*
X16473200Y-30229200D03*
%TD*%
D10*
%TO.C,J1*%
X54922200Y-36999200D03*
D11*
X52382200Y-36999200D03*
X49842200Y-36999200D03*
%TD*%
D10*
%TO.C,J2*%
X32681200Y-57057200D03*
D11*
X30141200Y-57057200D03*
X27601200Y-57057200D03*
%TD*%
D10*
%TO.C,J1*%
X21538200Y-90655200D03*
D11*
X18998200Y-90655200D03*
X16458200Y-90655200D03*
%TD*%
D10*
%TO.C,J2*%
X32681200Y-16815200D03*
D11*
X30141200Y-16815200D03*
X27601200Y-16815200D03*
%TD*%
D10*
%TO.C,J2*%
X88321200Y-43643200D03*
D11*
X85781200Y-43643200D03*
X83241200Y-43643200D03*
%TD*%
D10*
%TO.C,J1*%
X43794200Y-77241200D03*
D11*
X41254200Y-77241200D03*
X38714200Y-77241200D03*
%TD*%
D10*
%TO.C,J1*%
X66050200Y-36999200D03*
D11*
X63510200Y-36999200D03*
X60970200Y-36999200D03*
%TD*%
D10*
%TO.C,J1*%
X32666200Y-50413200D03*
D11*
X30126200Y-50413200D03*
X27586200Y-50413200D03*
%TD*%
D10*
%TO.C,J1*%
X88306200Y-23585200D03*
D11*
X85766200Y-23585200D03*
X83226200Y-23585200D03*
%TD*%
D10*
%TO.C,J2*%
X32681200Y-43643200D03*
D11*
X30141200Y-43643200D03*
X27601200Y-43643200D03*
%TD*%
D10*
%TO.C,J1*%
X54922200Y-50413200D03*
D11*
X52382200Y-50413200D03*
X49842200Y-50413200D03*
%TD*%
D10*
%TO.C,J2*%
X66065200Y-43643200D03*
D11*
X63525200Y-43643200D03*
X60985200Y-43643200D03*
%TD*%
D10*
%TO.C,J1*%
X77178200Y-23585200D03*
D11*
X74638200Y-23585200D03*
X72098200Y-23585200D03*
%TD*%
D10*
%TO.C,J2*%
X43809200Y-83885200D03*
D11*
X41269200Y-83885200D03*
X38729200Y-83885200D03*
%TD*%
D10*
%TO.C,J1*%
X88306200Y-36999200D03*
D11*
X85766200Y-36999200D03*
X83226200Y-36999200D03*
%TD*%
D10*
%TO.C,J1*%
X43794200Y-50413200D03*
D11*
X41254200Y-50413200D03*
X38714200Y-50413200D03*
%TD*%
D10*
%TO.C,J2*%
X32681200Y-30229200D03*
D11*
X30141200Y-30229200D03*
X27601200Y-30229200D03*
%TD*%
D10*
%TO.C,J2*%
X88321200Y-57057200D03*
D11*
X85781200Y-57057200D03*
X83241200Y-57057200D03*
%TD*%
D10*
%TO.C,J2*%
X77193200Y-83885200D03*
D11*
X74653200Y-83885200D03*
X72113200Y-83885200D03*
%TD*%
D10*
%TO.C,J1*%
X66050200Y-90655200D03*
D11*
X63510200Y-90655200D03*
X60970200Y-90655200D03*
%TD*%
D10*
%TO.C,J1*%
X66050200Y-23585200D03*
D11*
X63510200Y-23585200D03*
X60970200Y-23585200D03*
%TD*%
D10*
%TO.C,J2*%
X54937200Y-43643200D03*
D11*
X52397200Y-43643200D03*
X49857200Y-43643200D03*
%TD*%
D10*
%TO.C,J2*%
X21553200Y-43643200D03*
D11*
X19013200Y-43643200D03*
X16473200Y-43643200D03*
%TD*%
D10*
%TO.C,J2*%
X66065200Y-70471200D03*
D11*
X63525200Y-70471200D03*
X60985200Y-70471200D03*
%TD*%
D10*
%TO.C,J1*%
X66050200Y-63827200D03*
D11*
X63510200Y-63827200D03*
X60970200Y-63827200D03*
%TD*%
D10*
%TO.C,J2*%
X77193200Y-57057200D03*
D11*
X74653200Y-57057200D03*
X72113200Y-57057200D03*
%TD*%
D10*
%TO.C,J1*%
X77178200Y-77241200D03*
D11*
X74638200Y-77241200D03*
X72098200Y-77241200D03*
%TD*%
D10*
%TO.C,J1*%
X88306200Y-63827200D03*
D11*
X85766200Y-63827200D03*
X83226200Y-63827200D03*
%TD*%
D10*
%TO.C,J1*%
X66050200Y-50413200D03*
D11*
X63510200Y-50413200D03*
X60970200Y-50413200D03*
%TD*%
D10*
%TO.C,J2*%
X77193200Y-70471200D03*
D11*
X74653200Y-70471200D03*
X72113200Y-70471200D03*
%TD*%
D10*
%TO.C,J1*%
X77178200Y-63827200D03*
D11*
X74638200Y-63827200D03*
X72098200Y-63827200D03*
%TD*%
D10*
%TO.C,J1*%
X77178200Y-50413200D03*
D11*
X74638200Y-50413200D03*
X72098200Y-50413200D03*
%TD*%
D10*
%TO.C,J2*%
X43809200Y-43643200D03*
D11*
X41269200Y-43643200D03*
X38729200Y-43643200D03*
%TD*%
D10*
%TO.C,J1*%
X21538200Y-23585200D03*
D11*
X18998200Y-23585200D03*
X16458200Y-23585200D03*
%TD*%
D10*
%TO.C,J2*%
X21553200Y-70471200D03*
D11*
X19013200Y-70471200D03*
X16473200Y-70471200D03*
%TD*%
D10*
%TO.C,J2*%
X54937200Y-83885200D03*
D11*
X52397200Y-83885200D03*
X49857200Y-83885200D03*
%TD*%
D10*
%TO.C,J2*%
X77193200Y-30229200D03*
D11*
X74653200Y-30229200D03*
X72113200Y-30229200D03*
%TD*%
D10*
%TO.C,J1*%
X77178200Y-90655200D03*
D11*
X74638200Y-90655200D03*
X72098200Y-90655200D03*
%TD*%
D10*
%TO.C,J2*%
X54937200Y-70471200D03*
D11*
X52397200Y-70471200D03*
X49857200Y-70471200D03*
%TD*%
D10*
%TO.C,J2*%
X88321200Y-70471200D03*
D11*
X85781200Y-70471200D03*
X83241200Y-70471200D03*
%TD*%
D10*
%TO.C,J2*%
X43809200Y-57057200D03*
D11*
X41269200Y-57057200D03*
X38729200Y-57057200D03*
%TD*%
D10*
%TO.C,J1*%
X88306200Y-90655200D03*
D11*
X85766200Y-90655200D03*
X83226200Y-90655200D03*
%TD*%
D10*
%TO.C,J1*%
X54922200Y-77241200D03*
D11*
X52382200Y-77241200D03*
X49842200Y-77241200D03*
%TD*%
D10*
%TO.C,J1*%
X21538200Y-36999200D03*
D11*
X18998200Y-36999200D03*
X16458200Y-36999200D03*
%TD*%
D10*
%TO.C,J1*%
X21538200Y-63827200D03*
D11*
X18998200Y-63827200D03*
X16458200Y-63827200D03*
%TD*%
D10*
%TO.C,J1*%
X21538200Y-50413200D03*
D11*
X18998200Y-50413200D03*
X16458200Y-50413200D03*
%TD*%
D10*
%TO.C,J1*%
X43794200Y-90655200D03*
D11*
X41254200Y-90655200D03*
X38714200Y-90655200D03*
%TD*%
D10*
%TO.C,J2*%
X43809200Y-70471200D03*
D11*
X41269200Y-70471200D03*
X38729200Y-70471200D03*
%TD*%
D10*
%TO.C,J1*%
X54922200Y-90655200D03*
D11*
X52382200Y-90655200D03*
X49842200Y-90655200D03*
%TD*%
D10*
%TO.C,J1*%
X88306200Y-50413200D03*
D11*
X85766200Y-50413200D03*
X83226200Y-50413200D03*
%TD*%
D10*
%TO.C,J2*%
X54937200Y-57057200D03*
D11*
X52397200Y-57057200D03*
X49857200Y-57057200D03*
%TD*%
D10*
%TO.C,J2*%
X66065200Y-57057200D03*
D11*
X63525200Y-57057200D03*
X60985200Y-57057200D03*
%TD*%
D10*
%TO.C,J1*%
X32666200Y-23585200D03*
D11*
X30126200Y-23585200D03*
X27586200Y-23585200D03*
%TD*%
D10*
%TO.C,J1*%
X32666200Y-90655200D03*
D11*
X30126200Y-90655200D03*
X27586200Y-90655200D03*
%TD*%
D10*
%TO.C,J1*%
X32666200Y-63827200D03*
D11*
X30126200Y-63827200D03*
X27586200Y-63827200D03*
%TD*%
D10*
%TO.C,J2*%
X54937200Y-30229200D03*
D11*
X52397200Y-30229200D03*
X49857200Y-30229200D03*
%TD*%
D10*
%TO.C,J2*%
X66065200Y-30229200D03*
D11*
X63525200Y-30229200D03*
X60985200Y-30229200D03*
%TD*%
D10*
%TO.C,J1*%
X43794200Y-23585200D03*
D11*
X41254200Y-23585200D03*
X38714200Y-23585200D03*
%TD*%
D10*
%TO.C,J2*%
X66065200Y-83885200D03*
D11*
X63525200Y-83885200D03*
X60985200Y-83885200D03*
%TD*%
D10*
%TO.C,J2*%
X32681200Y-83885200D03*
D11*
X30141200Y-83885200D03*
X27601200Y-83885200D03*
%TD*%
D10*
%TO.C,J1*%
X88306200Y-77241200D03*
D11*
X85766200Y-77241200D03*
X83226200Y-77241200D03*
%TD*%
D10*
%TO.C,J2*%
X77193200Y-43643200D03*
D11*
X74653200Y-43643200D03*
X72113200Y-43643200D03*
%TD*%
D10*
%TO.C,J1*%
X43794200Y-36999200D03*
D11*
X41254200Y-36999200D03*
X38714200Y-36999200D03*
%TD*%
D10*
%TO.C,J1*%
X43794200Y-63827200D03*
D11*
X41254200Y-63827200D03*
X38714200Y-63827200D03*
%TD*%
D10*
%TO.C,J2*%
X88321200Y-83885200D03*
D11*
X85781200Y-83885200D03*
X83241200Y-83885200D03*
%TD*%
M02*
