%TF.GenerationSoftware,KiCad,Pcbnew,(6.0.5-0)*%
%TF.CreationDate,2022-12-26T11:12:43+01:00*%
%TF.ProjectId,panel,70616e65-6c2e-46b6-9963-61645f706362,rev?*%
%TF.SameCoordinates,Original*%
%TF.FileFunction,Other,Comment*%
%FSLAX46Y46*%
G04 Gerber Fmt 4.6, Leading zero omitted, Abs format (unit mm)*
G04 Created by KiCad (PCBNEW (6.0.5-0)) date 2022-12-26 11:12:43*
%MOMM*%
%LPD*%
G01*
G04 APERTURE LIST*
%ADD10C,0.400000*%
G04 APERTURE END LIST*
D10*
X45734000Y-12000000D02*
X45734000Y-95484000D01*
X59164000Y-12000000D02*
X59164000Y-95484000D01*
X12000000Y-28067000D02*
X92896000Y-28067000D01*
X56864000Y-12000000D02*
X56864000Y-95484000D01*
X67994000Y-12000000D02*
X67994000Y-95484000D01*
X12000000Y-52587000D02*
X92896000Y-52587000D01*
X12000000Y-41477000D02*
X92896000Y-41477000D01*
X12000000Y-25767000D02*
X92896000Y-25767000D01*
X70294000Y-12000000D02*
X70294000Y-95484000D01*
X12000000Y-54887000D02*
X92896000Y-54887000D01*
X25774000Y-12000000D02*
X25774000Y-95484000D01*
X81414000Y-12000000D02*
X81414000Y-95484000D01*
X12000000Y-66007000D02*
X92896000Y-66007000D01*
X23474000Y-12000000D02*
X23474000Y-95484000D01*
X12000000Y-39177000D02*
X92896000Y-39177000D01*
X12000000Y-68307000D02*
X92896000Y-68307000D01*
X12000000Y-79417000D02*
X92896000Y-79417000D01*
X79114000Y-12000000D02*
X79114000Y-95484000D01*
X12000000Y-81717000D02*
X92896000Y-81717000D01*
X36904000Y-12000000D02*
X36904000Y-95484000D01*
X48034000Y-12000000D02*
X48034000Y-95484000D01*
X34604000Y-12000000D02*
X34604000Y-95484000D01*
X78018761Y-8549523D02*
X80018761Y-7882857D01*
X78018761Y-7216190D01*
X79256857Y-6549523D02*
X79256857Y-5025714D01*
X79828285Y-2930476D02*
X79923523Y-3025714D01*
X80018761Y-3311428D01*
X80018761Y-3501904D01*
X79923523Y-3787619D01*
X79733047Y-3978095D01*
X79542571Y-4073333D01*
X79161619Y-4168571D01*
X78875904Y-4168571D01*
X78494952Y-4073333D01*
X78304476Y-3978095D01*
X78114000Y-3787619D01*
X78018761Y-3501904D01*
X78018761Y-3311428D01*
X78114000Y-3025714D01*
X78209238Y-2930476D01*
X78018761Y-2073333D02*
X79637809Y-2073333D01*
X79828285Y-1978095D01*
X79923523Y-1882857D01*
X80018761Y-1692380D01*
X80018761Y-1311428D01*
X79923523Y-1120952D01*
X79828285Y-1025714D01*
X79637809Y-930476D01*
X78018761Y-930476D01*
X78018761Y-263809D02*
X78018761Y879047D01*
X80018761Y307619D02*
X78018761Y307619D01*
X96346476Y-26971761D02*
X97013142Y-28971761D01*
X97679809Y-26971761D01*
X98346476Y-28209857D02*
X99870285Y-28209857D01*
X101965523Y-28781285D02*
X101870285Y-28876523D01*
X101584571Y-28971761D01*
X101394095Y-28971761D01*
X101108380Y-28876523D01*
X100917904Y-28686047D01*
X100822666Y-28495571D01*
X100727428Y-28114619D01*
X100727428Y-27828904D01*
X100822666Y-27447952D01*
X100917904Y-27257476D01*
X101108380Y-27067000D01*
X101394095Y-26971761D01*
X101584571Y-26971761D01*
X101870285Y-27067000D01*
X101965523Y-27162238D01*
X102822666Y-26971761D02*
X102822666Y-28590809D01*
X102917904Y-28781285D01*
X103013142Y-28876523D01*
X103203619Y-28971761D01*
X103584571Y-28971761D01*
X103775047Y-28876523D01*
X103870285Y-28781285D01*
X103965523Y-28590809D01*
X103965523Y-26971761D01*
X104632190Y-26971761D02*
X105775047Y-26971761D01*
X105203619Y-28971761D02*
X105203619Y-26971761D01*
X96346476Y-38081761D02*
X97013142Y-40081761D01*
X97679809Y-38081761D01*
X98346476Y-39319857D02*
X99870285Y-39319857D01*
X101965523Y-39891285D02*
X101870285Y-39986523D01*
X101584571Y-40081761D01*
X101394095Y-40081761D01*
X101108380Y-39986523D01*
X100917904Y-39796047D01*
X100822666Y-39605571D01*
X100727428Y-39224619D01*
X100727428Y-38938904D01*
X100822666Y-38557952D01*
X100917904Y-38367476D01*
X101108380Y-38177000D01*
X101394095Y-38081761D01*
X101584571Y-38081761D01*
X101870285Y-38177000D01*
X101965523Y-38272238D01*
X102822666Y-38081761D02*
X102822666Y-39700809D01*
X102917904Y-39891285D01*
X103013142Y-39986523D01*
X103203619Y-40081761D01*
X103584571Y-40081761D01*
X103775047Y-39986523D01*
X103870285Y-39891285D01*
X103965523Y-39700809D01*
X103965523Y-38081761D01*
X104632190Y-38081761D02*
X105775047Y-38081761D01*
X105203619Y-40081761D02*
X105203619Y-38081761D01*
X96346476Y-80621761D02*
X97013142Y-82621761D01*
X97679809Y-80621761D01*
X98346476Y-81859857D02*
X99870285Y-81859857D01*
X101965523Y-82431285D02*
X101870285Y-82526523D01*
X101584571Y-82621761D01*
X101394095Y-82621761D01*
X101108380Y-82526523D01*
X100917904Y-82336047D01*
X100822666Y-82145571D01*
X100727428Y-81764619D01*
X100727428Y-81478904D01*
X100822666Y-81097952D01*
X100917904Y-80907476D01*
X101108380Y-80717000D01*
X101394095Y-80621761D01*
X101584571Y-80621761D01*
X101870285Y-80717000D01*
X101965523Y-80812238D01*
X102822666Y-80621761D02*
X102822666Y-82240809D01*
X102917904Y-82431285D01*
X103013142Y-82526523D01*
X103203619Y-82621761D01*
X103584571Y-82621761D01*
X103775047Y-82526523D01*
X103870285Y-82431285D01*
X103965523Y-82240809D01*
X103965523Y-80621761D01*
X104632190Y-80621761D02*
X105775047Y-80621761D01*
X105203619Y-82621761D02*
X105203619Y-80621761D01*
X69198761Y-8549523D02*
X71198761Y-7882857D01*
X69198761Y-7216190D01*
X70436857Y-6549523D02*
X70436857Y-5025714D01*
X71008285Y-2930476D02*
X71103523Y-3025714D01*
X71198761Y-3311428D01*
X71198761Y-3501904D01*
X71103523Y-3787619D01*
X70913047Y-3978095D01*
X70722571Y-4073333D01*
X70341619Y-4168571D01*
X70055904Y-4168571D01*
X69674952Y-4073333D01*
X69484476Y-3978095D01*
X69294000Y-3787619D01*
X69198761Y-3501904D01*
X69198761Y-3311428D01*
X69294000Y-3025714D01*
X69389238Y-2930476D01*
X69198761Y-2073333D02*
X70817809Y-2073333D01*
X71008285Y-1978095D01*
X71103523Y-1882857D01*
X71198761Y-1692380D01*
X71198761Y-1311428D01*
X71103523Y-1120952D01*
X71008285Y-1025714D01*
X70817809Y-930476D01*
X69198761Y-930476D01*
X69198761Y-263809D02*
X69198761Y879047D01*
X71198761Y307619D02*
X69198761Y307619D01*
X96346476Y-51491761D02*
X97013142Y-53491761D01*
X97679809Y-51491761D01*
X98346476Y-52729857D02*
X99870285Y-52729857D01*
X101965523Y-53301285D02*
X101870285Y-53396523D01*
X101584571Y-53491761D01*
X101394095Y-53491761D01*
X101108380Y-53396523D01*
X100917904Y-53206047D01*
X100822666Y-53015571D01*
X100727428Y-52634619D01*
X100727428Y-52348904D01*
X100822666Y-51967952D01*
X100917904Y-51777476D01*
X101108380Y-51587000D01*
X101394095Y-51491761D01*
X101584571Y-51491761D01*
X101870285Y-51587000D01*
X101965523Y-51682238D01*
X102822666Y-51491761D02*
X102822666Y-53110809D01*
X102917904Y-53301285D01*
X103013142Y-53396523D01*
X103203619Y-53491761D01*
X103584571Y-53491761D01*
X103775047Y-53396523D01*
X103870285Y-53301285D01*
X103965523Y-53110809D01*
X103965523Y-51491761D01*
X104632190Y-51491761D02*
X105775047Y-51491761D01*
X105203619Y-53491761D02*
X105203619Y-51491761D01*
X96346476Y-64911761D02*
X97013142Y-66911761D01*
X97679809Y-64911761D01*
X98346476Y-66149857D02*
X99870285Y-66149857D01*
X101965523Y-66721285D02*
X101870285Y-66816523D01*
X101584571Y-66911761D01*
X101394095Y-66911761D01*
X101108380Y-66816523D01*
X100917904Y-66626047D01*
X100822666Y-66435571D01*
X100727428Y-66054619D01*
X100727428Y-65768904D01*
X100822666Y-65387952D01*
X100917904Y-65197476D01*
X101108380Y-65007000D01*
X101394095Y-64911761D01*
X101584571Y-64911761D01*
X101870285Y-65007000D01*
X101965523Y-65102238D01*
X102822666Y-64911761D02*
X102822666Y-66530809D01*
X102917904Y-66721285D01*
X103013142Y-66816523D01*
X103203619Y-66911761D01*
X103584571Y-66911761D01*
X103775047Y-66816523D01*
X103870285Y-66721285D01*
X103965523Y-66530809D01*
X103965523Y-64911761D01*
X104632190Y-64911761D02*
X105775047Y-64911761D01*
X105203619Y-66911761D02*
X105203619Y-64911761D01*
X22378761Y-8549523D02*
X24378761Y-7882857D01*
X22378761Y-7216190D01*
X23616857Y-6549523D02*
X23616857Y-5025714D01*
X24188285Y-2930476D02*
X24283523Y-3025714D01*
X24378761Y-3311428D01*
X24378761Y-3501904D01*
X24283523Y-3787619D01*
X24093047Y-3978095D01*
X23902571Y-4073333D01*
X23521619Y-4168571D01*
X23235904Y-4168571D01*
X22854952Y-4073333D01*
X22664476Y-3978095D01*
X22474000Y-3787619D01*
X22378761Y-3501904D01*
X22378761Y-3311428D01*
X22474000Y-3025714D01*
X22569238Y-2930476D01*
X22378761Y-2073333D02*
X23997809Y-2073333D01*
X24188285Y-1978095D01*
X24283523Y-1882857D01*
X24378761Y-1692380D01*
X24378761Y-1311428D01*
X24283523Y-1120952D01*
X24188285Y-1025714D01*
X23997809Y-930476D01*
X22378761Y-930476D01*
X22378761Y-263809D02*
X22378761Y879047D01*
X24378761Y307619D02*
X22378761Y307619D01*
X24678761Y-8549523D02*
X26678761Y-7882857D01*
X24678761Y-7216190D01*
X25916857Y-6549523D02*
X25916857Y-5025714D01*
X26488285Y-2930476D02*
X26583523Y-3025714D01*
X26678761Y-3311428D01*
X26678761Y-3501904D01*
X26583523Y-3787619D01*
X26393047Y-3978095D01*
X26202571Y-4073333D01*
X25821619Y-4168571D01*
X25535904Y-4168571D01*
X25154952Y-4073333D01*
X24964476Y-3978095D01*
X24774000Y-3787619D01*
X24678761Y-3501904D01*
X24678761Y-3311428D01*
X24774000Y-3025714D01*
X24869238Y-2930476D01*
X24678761Y-2073333D02*
X26297809Y-2073333D01*
X26488285Y-1978095D01*
X26583523Y-1882857D01*
X26678761Y-1692380D01*
X26678761Y-1311428D01*
X26583523Y-1120952D01*
X26488285Y-1025714D01*
X26297809Y-930476D01*
X24678761Y-930476D01*
X24678761Y-263809D02*
X24678761Y879047D01*
X26678761Y307619D02*
X24678761Y307619D01*
X46938761Y-8549523D02*
X48938761Y-7882857D01*
X46938761Y-7216190D01*
X48176857Y-6549523D02*
X48176857Y-5025714D01*
X48748285Y-2930476D02*
X48843523Y-3025714D01*
X48938761Y-3311428D01*
X48938761Y-3501904D01*
X48843523Y-3787619D01*
X48653047Y-3978095D01*
X48462571Y-4073333D01*
X48081619Y-4168571D01*
X47795904Y-4168571D01*
X47414952Y-4073333D01*
X47224476Y-3978095D01*
X47034000Y-3787619D01*
X46938761Y-3501904D01*
X46938761Y-3311428D01*
X47034000Y-3025714D01*
X47129238Y-2930476D01*
X46938761Y-2073333D02*
X48557809Y-2073333D01*
X48748285Y-1978095D01*
X48843523Y-1882857D01*
X48938761Y-1692380D01*
X48938761Y-1311428D01*
X48843523Y-1120952D01*
X48748285Y-1025714D01*
X48557809Y-930476D01*
X46938761Y-930476D01*
X46938761Y-263809D02*
X46938761Y879047D01*
X48938761Y307619D02*
X46938761Y307619D01*
X55768761Y-8549523D02*
X57768761Y-7882857D01*
X55768761Y-7216190D01*
X57006857Y-6549523D02*
X57006857Y-5025714D01*
X57578285Y-2930476D02*
X57673523Y-3025714D01*
X57768761Y-3311428D01*
X57768761Y-3501904D01*
X57673523Y-3787619D01*
X57483047Y-3978095D01*
X57292571Y-4073333D01*
X56911619Y-4168571D01*
X56625904Y-4168571D01*
X56244952Y-4073333D01*
X56054476Y-3978095D01*
X55864000Y-3787619D01*
X55768761Y-3501904D01*
X55768761Y-3311428D01*
X55864000Y-3025714D01*
X55959238Y-2930476D01*
X55768761Y-2073333D02*
X57387809Y-2073333D01*
X57578285Y-1978095D01*
X57673523Y-1882857D01*
X57768761Y-1692380D01*
X57768761Y-1311428D01*
X57673523Y-1120952D01*
X57578285Y-1025714D01*
X57387809Y-930476D01*
X55768761Y-930476D01*
X55768761Y-263809D02*
X55768761Y879047D01*
X57768761Y307619D02*
X55768761Y307619D01*
X33508761Y-8549523D02*
X35508761Y-7882857D01*
X33508761Y-7216190D01*
X34746857Y-6549523D02*
X34746857Y-5025714D01*
X35318285Y-2930476D02*
X35413523Y-3025714D01*
X35508761Y-3311428D01*
X35508761Y-3501904D01*
X35413523Y-3787619D01*
X35223047Y-3978095D01*
X35032571Y-4073333D01*
X34651619Y-4168571D01*
X34365904Y-4168571D01*
X33984952Y-4073333D01*
X33794476Y-3978095D01*
X33604000Y-3787619D01*
X33508761Y-3501904D01*
X33508761Y-3311428D01*
X33604000Y-3025714D01*
X33699238Y-2930476D01*
X33508761Y-2073333D02*
X35127809Y-2073333D01*
X35318285Y-1978095D01*
X35413523Y-1882857D01*
X35508761Y-1692380D01*
X35508761Y-1311428D01*
X35413523Y-1120952D01*
X35318285Y-1025714D01*
X35127809Y-930476D01*
X33508761Y-930476D01*
X33508761Y-263809D02*
X33508761Y879047D01*
X35508761Y307619D02*
X33508761Y307619D01*
X96346476Y-67211761D02*
X97013142Y-69211761D01*
X97679809Y-67211761D01*
X98346476Y-68449857D02*
X99870285Y-68449857D01*
X101965523Y-69021285D02*
X101870285Y-69116523D01*
X101584571Y-69211761D01*
X101394095Y-69211761D01*
X101108380Y-69116523D01*
X100917904Y-68926047D01*
X100822666Y-68735571D01*
X100727428Y-68354619D01*
X100727428Y-68068904D01*
X100822666Y-67687952D01*
X100917904Y-67497476D01*
X101108380Y-67307000D01*
X101394095Y-67211761D01*
X101584571Y-67211761D01*
X101870285Y-67307000D01*
X101965523Y-67402238D01*
X102822666Y-67211761D02*
X102822666Y-68830809D01*
X102917904Y-69021285D01*
X103013142Y-69116523D01*
X103203619Y-69211761D01*
X103584571Y-69211761D01*
X103775047Y-69116523D01*
X103870285Y-69021285D01*
X103965523Y-68830809D01*
X103965523Y-67211761D01*
X104632190Y-67211761D02*
X105775047Y-67211761D01*
X105203619Y-69211761D02*
X105203619Y-67211761D01*
X44638761Y-8549523D02*
X46638761Y-7882857D01*
X44638761Y-7216190D01*
X45876857Y-6549523D02*
X45876857Y-5025714D01*
X46448285Y-2930476D02*
X46543523Y-3025714D01*
X46638761Y-3311428D01*
X46638761Y-3501904D01*
X46543523Y-3787619D01*
X46353047Y-3978095D01*
X46162571Y-4073333D01*
X45781619Y-4168571D01*
X45495904Y-4168571D01*
X45114952Y-4073333D01*
X44924476Y-3978095D01*
X44734000Y-3787619D01*
X44638761Y-3501904D01*
X44638761Y-3311428D01*
X44734000Y-3025714D01*
X44829238Y-2930476D01*
X44638761Y-2073333D02*
X46257809Y-2073333D01*
X46448285Y-1978095D01*
X46543523Y-1882857D01*
X46638761Y-1692380D01*
X46638761Y-1311428D01*
X46543523Y-1120952D01*
X46448285Y-1025714D01*
X46257809Y-930476D01*
X44638761Y-930476D01*
X44638761Y-263809D02*
X44638761Y879047D01*
X46638761Y307619D02*
X44638761Y307619D01*
X96346476Y-40381761D02*
X97013142Y-42381761D01*
X97679809Y-40381761D01*
X98346476Y-41619857D02*
X99870285Y-41619857D01*
X101965523Y-42191285D02*
X101870285Y-42286523D01*
X101584571Y-42381761D01*
X101394095Y-42381761D01*
X101108380Y-42286523D01*
X100917904Y-42096047D01*
X100822666Y-41905571D01*
X100727428Y-41524619D01*
X100727428Y-41238904D01*
X100822666Y-40857952D01*
X100917904Y-40667476D01*
X101108380Y-40477000D01*
X101394095Y-40381761D01*
X101584571Y-40381761D01*
X101870285Y-40477000D01*
X101965523Y-40572238D01*
X102822666Y-40381761D02*
X102822666Y-42000809D01*
X102917904Y-42191285D01*
X103013142Y-42286523D01*
X103203619Y-42381761D01*
X103584571Y-42381761D01*
X103775047Y-42286523D01*
X103870285Y-42191285D01*
X103965523Y-42000809D01*
X103965523Y-40381761D01*
X104632190Y-40381761D02*
X105775047Y-40381761D01*
X105203619Y-42381761D02*
X105203619Y-40381761D01*
X80318761Y-8549523D02*
X82318761Y-7882857D01*
X80318761Y-7216190D01*
X81556857Y-6549523D02*
X81556857Y-5025714D01*
X82128285Y-2930476D02*
X82223523Y-3025714D01*
X82318761Y-3311428D01*
X82318761Y-3501904D01*
X82223523Y-3787619D01*
X82033047Y-3978095D01*
X81842571Y-4073333D01*
X81461619Y-4168571D01*
X81175904Y-4168571D01*
X80794952Y-4073333D01*
X80604476Y-3978095D01*
X80414000Y-3787619D01*
X80318761Y-3501904D01*
X80318761Y-3311428D01*
X80414000Y-3025714D01*
X80509238Y-2930476D01*
X80318761Y-2073333D02*
X81937809Y-2073333D01*
X82128285Y-1978095D01*
X82223523Y-1882857D01*
X82318761Y-1692380D01*
X82318761Y-1311428D01*
X82223523Y-1120952D01*
X82128285Y-1025714D01*
X81937809Y-930476D01*
X80318761Y-930476D01*
X80318761Y-263809D02*
X80318761Y879047D01*
X82318761Y307619D02*
X80318761Y307619D01*
X35808761Y-8549523D02*
X37808761Y-7882857D01*
X35808761Y-7216190D01*
X37046857Y-6549523D02*
X37046857Y-5025714D01*
X37618285Y-2930476D02*
X37713523Y-3025714D01*
X37808761Y-3311428D01*
X37808761Y-3501904D01*
X37713523Y-3787619D01*
X37523047Y-3978095D01*
X37332571Y-4073333D01*
X36951619Y-4168571D01*
X36665904Y-4168571D01*
X36284952Y-4073333D01*
X36094476Y-3978095D01*
X35904000Y-3787619D01*
X35808761Y-3501904D01*
X35808761Y-3311428D01*
X35904000Y-3025714D01*
X35999238Y-2930476D01*
X35808761Y-2073333D02*
X37427809Y-2073333D01*
X37618285Y-1978095D01*
X37713523Y-1882857D01*
X37808761Y-1692380D01*
X37808761Y-1311428D01*
X37713523Y-1120952D01*
X37618285Y-1025714D01*
X37427809Y-930476D01*
X35808761Y-930476D01*
X35808761Y-263809D02*
X35808761Y879047D01*
X37808761Y307619D02*
X35808761Y307619D01*
X96346476Y-78321761D02*
X97013142Y-80321761D01*
X97679809Y-78321761D01*
X98346476Y-79559857D02*
X99870285Y-79559857D01*
X101965523Y-80131285D02*
X101870285Y-80226523D01*
X101584571Y-80321761D01*
X101394095Y-80321761D01*
X101108380Y-80226523D01*
X100917904Y-80036047D01*
X100822666Y-79845571D01*
X100727428Y-79464619D01*
X100727428Y-79178904D01*
X100822666Y-78797952D01*
X100917904Y-78607476D01*
X101108380Y-78417000D01*
X101394095Y-78321761D01*
X101584571Y-78321761D01*
X101870285Y-78417000D01*
X101965523Y-78512238D01*
X102822666Y-78321761D02*
X102822666Y-79940809D01*
X102917904Y-80131285D01*
X103013142Y-80226523D01*
X103203619Y-80321761D01*
X103584571Y-80321761D01*
X103775047Y-80226523D01*
X103870285Y-80131285D01*
X103965523Y-79940809D01*
X103965523Y-78321761D01*
X104632190Y-78321761D02*
X105775047Y-78321761D01*
X105203619Y-80321761D02*
X105203619Y-78321761D01*
X96346476Y-53791761D02*
X97013142Y-55791761D01*
X97679809Y-53791761D01*
X98346476Y-55029857D02*
X99870285Y-55029857D01*
X101965523Y-55601285D02*
X101870285Y-55696523D01*
X101584571Y-55791761D01*
X101394095Y-55791761D01*
X101108380Y-55696523D01*
X100917904Y-55506047D01*
X100822666Y-55315571D01*
X100727428Y-54934619D01*
X100727428Y-54648904D01*
X100822666Y-54267952D01*
X100917904Y-54077476D01*
X101108380Y-53887000D01*
X101394095Y-53791761D01*
X101584571Y-53791761D01*
X101870285Y-53887000D01*
X101965523Y-53982238D01*
X102822666Y-53791761D02*
X102822666Y-55410809D01*
X102917904Y-55601285D01*
X103013142Y-55696523D01*
X103203619Y-55791761D01*
X103584571Y-55791761D01*
X103775047Y-55696523D01*
X103870285Y-55601285D01*
X103965523Y-55410809D01*
X103965523Y-53791761D01*
X104632190Y-53791761D02*
X105775047Y-53791761D01*
X105203619Y-55791761D02*
X105203619Y-53791761D01*
X66898761Y-8549523D02*
X68898761Y-7882857D01*
X66898761Y-7216190D01*
X68136857Y-6549523D02*
X68136857Y-5025714D01*
X68708285Y-2930476D02*
X68803523Y-3025714D01*
X68898761Y-3311428D01*
X68898761Y-3501904D01*
X68803523Y-3787619D01*
X68613047Y-3978095D01*
X68422571Y-4073333D01*
X68041619Y-4168571D01*
X67755904Y-4168571D01*
X67374952Y-4073333D01*
X67184476Y-3978095D01*
X66994000Y-3787619D01*
X66898761Y-3501904D01*
X66898761Y-3311428D01*
X66994000Y-3025714D01*
X67089238Y-2930476D01*
X66898761Y-2073333D02*
X68517809Y-2073333D01*
X68708285Y-1978095D01*
X68803523Y-1882857D01*
X68898761Y-1692380D01*
X68898761Y-1311428D01*
X68803523Y-1120952D01*
X68708285Y-1025714D01*
X68517809Y-930476D01*
X66898761Y-930476D01*
X66898761Y-263809D02*
X66898761Y879047D01*
X68898761Y307619D02*
X66898761Y307619D01*
X96346476Y-24671761D02*
X97013142Y-26671761D01*
X97679809Y-24671761D01*
X98346476Y-25909857D02*
X99870285Y-25909857D01*
X101965523Y-26481285D02*
X101870285Y-26576523D01*
X101584571Y-26671761D01*
X101394095Y-26671761D01*
X101108380Y-26576523D01*
X100917904Y-26386047D01*
X100822666Y-26195571D01*
X100727428Y-25814619D01*
X100727428Y-25528904D01*
X100822666Y-25147952D01*
X100917904Y-24957476D01*
X101108380Y-24767000D01*
X101394095Y-24671761D01*
X101584571Y-24671761D01*
X101870285Y-24767000D01*
X101965523Y-24862238D01*
X102822666Y-24671761D02*
X102822666Y-26290809D01*
X102917904Y-26481285D01*
X103013142Y-26576523D01*
X103203619Y-26671761D01*
X103584571Y-26671761D01*
X103775047Y-26576523D01*
X103870285Y-26481285D01*
X103965523Y-26290809D01*
X103965523Y-24671761D01*
X104632190Y-24671761D02*
X105775047Y-24671761D01*
X105203619Y-26671761D02*
X105203619Y-24671761D01*
X58068761Y-8549523D02*
X60068761Y-7882857D01*
X58068761Y-7216190D01*
X59306857Y-6549523D02*
X59306857Y-5025714D01*
X59878285Y-2930476D02*
X59973523Y-3025714D01*
X60068761Y-3311428D01*
X60068761Y-3501904D01*
X59973523Y-3787619D01*
X59783047Y-3978095D01*
X59592571Y-4073333D01*
X59211619Y-4168571D01*
X58925904Y-4168571D01*
X58544952Y-4073333D01*
X58354476Y-3978095D01*
X58164000Y-3787619D01*
X58068761Y-3501904D01*
X58068761Y-3311428D01*
X58164000Y-3025714D01*
X58259238Y-2930476D01*
X58068761Y-2073333D02*
X59687809Y-2073333D01*
X59878285Y-1978095D01*
X59973523Y-1882857D01*
X60068761Y-1692380D01*
X60068761Y-1311428D01*
X59973523Y-1120952D01*
X59878285Y-1025714D01*
X59687809Y-930476D01*
X58068761Y-930476D01*
X58068761Y-263809D02*
X58068761Y879047D01*
X60068761Y307619D02*
X58068761Y307619D01*
M02*
