G75*
%MOIN*%
%OFA0B0*%
%FSLAX24Y24*%
%IPPOS*%
%LPD*%
%AMOC8*
5,1,8,0,0,1.08239X$1,22.5*
%
%ADD10C,0.0198*%
%ADD11R,0.1064X0.1064*%
%ADD12R,0.0474X0.0513*%
%ADD13C,0.0190*%
%ADD14R,0.0741X0.0741*%
%ADD15R,0.0277X0.0336*%
%ADD16R,0.0513X0.0474*%
%ADD17R,0.0710X0.0631*%
%ADD18R,0.0297X0.0552*%
%ADD19R,0.0192X0.0395*%
%ADD20R,0.0395X0.0192*%
%ADD21R,0.1320X0.1320*%
%ADD22C,0.0674*%
%ADD23OC8,0.0680*%
%ADD24C,0.1390*%
%ADD25C,0.0820*%
%ADD26R,0.0434X0.0316*%
D10*
X008128Y004846D02*
X008286Y004846D01*
X008286Y005043D02*
X008128Y005043D01*
X008128Y005240D02*
X008286Y005240D01*
X008286Y005437D02*
X008128Y005437D01*
X008128Y005634D02*
X008286Y005634D01*
X008581Y005929D02*
X008581Y006087D01*
X008778Y006087D02*
X008778Y005929D01*
X008975Y005929D02*
X008975Y006087D01*
X009172Y006087D02*
X009172Y005929D01*
X009369Y005929D02*
X009369Y006087D01*
X009664Y005634D02*
X009822Y005634D01*
X009822Y005437D02*
X009664Y005437D01*
X009664Y005240D02*
X009822Y005240D01*
X009822Y005043D02*
X009664Y005043D01*
X009664Y004846D02*
X009822Y004846D01*
X009369Y004551D02*
X009369Y004393D01*
X009172Y004393D02*
X009172Y004551D01*
X008975Y004551D02*
X008975Y004393D01*
X008778Y004393D02*
X008778Y004551D01*
X008581Y004551D02*
X008581Y004393D01*
D11*
X008975Y005240D03*
D12*
X010525Y004475D03*
X011225Y004475D03*
X011225Y003805D03*
X010525Y003805D03*
X013825Y004530D03*
X013825Y005200D03*
X013850Y006505D03*
X014625Y006505D03*
X015375Y006505D03*
X015375Y007175D03*
X014625Y007175D03*
X013850Y007175D03*
X017825Y006025D03*
X018575Y006025D03*
X018575Y005355D03*
X017825Y005355D03*
X017825Y004525D03*
X017825Y003855D03*
X018575Y003855D03*
X018575Y004525D03*
X008975Y008605D03*
X008975Y009275D03*
X008025Y007025D03*
X008025Y006355D03*
X002610Y004340D03*
X001940Y004340D03*
X001940Y003640D03*
X002610Y003640D03*
X001800Y010495D03*
X001131Y010495D03*
D13*
X006882Y009035D02*
X007106Y009035D01*
X007106Y008838D02*
X006882Y008838D01*
X006882Y008642D02*
X007106Y008642D01*
X007106Y008445D02*
X006882Y008445D01*
X007280Y008271D02*
X007280Y008047D01*
X007477Y008047D02*
X007477Y008271D01*
X007673Y008271D02*
X007673Y008047D01*
X007870Y008047D02*
X007870Y008271D01*
X008044Y008445D02*
X008268Y008445D01*
X008268Y008642D02*
X008044Y008642D01*
X008044Y008838D02*
X008268Y008838D01*
X008268Y009035D02*
X008044Y009035D01*
X007870Y009209D02*
X007870Y009433D01*
X007673Y009433D02*
X007673Y009209D01*
X007477Y009209D02*
X007477Y009433D01*
X007280Y009433D02*
X007280Y009209D01*
X009682Y009035D02*
X009906Y009035D01*
X009906Y008838D02*
X009682Y008838D01*
X009682Y008642D02*
X009906Y008642D01*
X009906Y008445D02*
X009682Y008445D01*
X010080Y008271D02*
X010080Y008047D01*
X010277Y008047D02*
X010277Y008271D01*
X010473Y008271D02*
X010473Y008047D01*
X010670Y008047D02*
X010670Y008271D01*
X010844Y008445D02*
X011068Y008445D01*
X011068Y008642D02*
X010844Y008642D01*
X010844Y008838D02*
X011068Y008838D01*
X011068Y009035D02*
X010844Y009035D01*
X010670Y009209D02*
X010670Y009433D01*
X010473Y009433D02*
X010473Y009209D01*
X010277Y009209D02*
X010277Y009433D01*
X010080Y009433D02*
X010080Y009209D01*
D14*
X010375Y008740D03*
X007575Y008740D03*
D15*
X008703Y003886D03*
X009018Y003886D03*
X009332Y003886D03*
X009647Y003886D03*
X009647Y003394D03*
X009332Y003394D03*
X009018Y003394D03*
X008703Y003394D03*
D16*
X007910Y004340D03*
X007240Y004340D03*
X008815Y006840D03*
X009485Y006840D03*
X009485Y007540D03*
X008815Y007540D03*
X016640Y007340D03*
X017310Y007340D03*
X018140Y007340D03*
X018810Y007340D03*
X018810Y008040D03*
X018140Y008040D03*
X017310Y008040D03*
X016640Y008040D03*
X016640Y008940D03*
X017310Y008940D03*
X018140Y008740D03*
X018810Y008740D03*
X018810Y009440D03*
X018140Y009440D03*
X017310Y009640D03*
X016640Y009640D03*
X017075Y006025D03*
X017075Y005355D03*
X017075Y004525D03*
X017075Y003855D03*
D17*
X016025Y004289D03*
X014725Y004289D03*
X014725Y005391D03*
X016025Y005391D03*
D18*
X013199Y005377D03*
X012451Y005377D03*
X012451Y004353D03*
X012825Y004353D03*
X013199Y004353D03*
D19*
X013986Y008356D03*
X014183Y008356D03*
X014380Y008356D03*
X014577Y008356D03*
X014773Y008356D03*
X014970Y008356D03*
X015167Y008356D03*
X015364Y008356D03*
X015364Y010324D03*
X015167Y010324D03*
X014970Y010324D03*
X014773Y010324D03*
X014577Y010324D03*
X014380Y010324D03*
X014183Y010324D03*
X013986Y010324D03*
D20*
X013691Y010029D03*
X013691Y009832D03*
X013691Y009635D03*
X013691Y009438D03*
X013691Y009242D03*
X013691Y009045D03*
X013691Y008848D03*
X013691Y008651D03*
X015659Y008651D03*
X015659Y008848D03*
X015659Y009045D03*
X015659Y009242D03*
X015659Y009438D03*
X015659Y009635D03*
X015659Y009832D03*
X015659Y010029D03*
D21*
X014675Y009340D03*
D22*
X020305Y009080D02*
X020899Y009080D01*
X020899Y010080D02*
X020305Y010080D01*
X020305Y008080D02*
X020899Y008080D01*
X020899Y006080D02*
X020305Y006080D01*
X020305Y005080D02*
X020899Y005080D01*
X020899Y004080D02*
X020305Y004080D01*
D23*
X002602Y001580D03*
X003602Y001580D03*
X004602Y001580D03*
X005602Y001580D03*
X006602Y001580D03*
X007602Y001580D03*
X008602Y001580D03*
X009602Y001580D03*
X010602Y001580D03*
X011602Y001580D03*
X012602Y001580D03*
X013602Y001580D03*
X014602Y001580D03*
X015602Y001580D03*
X016602Y001580D03*
X017602Y001580D03*
X018602Y001580D03*
X019602Y001580D03*
X019602Y002580D03*
X018602Y002580D03*
X017602Y002580D03*
X016602Y002580D03*
X015602Y002580D03*
X014602Y002580D03*
X013602Y002580D03*
X012602Y002580D03*
X011602Y002580D03*
X010602Y002580D03*
X009602Y002580D03*
X008602Y002580D03*
X007602Y002580D03*
X006602Y002580D03*
X005602Y002580D03*
X004602Y002580D03*
X003602Y002580D03*
X002602Y002580D03*
X002602Y011580D03*
X003602Y011580D03*
X004602Y011580D03*
X005602Y011580D03*
X006602Y011580D03*
X007602Y011580D03*
X008602Y011580D03*
X009602Y011580D03*
X010602Y011580D03*
X011602Y011580D03*
X012602Y011580D03*
X013602Y011580D03*
X014602Y011580D03*
X015602Y011580D03*
X016602Y011580D03*
X017602Y011580D03*
X018602Y011580D03*
X019602Y011580D03*
X019602Y012580D03*
X018602Y012580D03*
X017602Y012580D03*
X016602Y012580D03*
X015602Y012580D03*
X014602Y012580D03*
X013602Y012580D03*
X012602Y012580D03*
X011602Y012580D03*
X010602Y012580D03*
X009602Y012580D03*
X008602Y012580D03*
X007602Y012580D03*
X006602Y012580D03*
X005602Y012580D03*
X004602Y012580D03*
X003602Y012580D03*
X002602Y012580D03*
D24*
X004175Y009125D03*
X004175Y003955D03*
D25*
X004602Y010580D03*
X005602Y010580D03*
X006602Y010580D03*
X007602Y010580D03*
X008602Y010580D03*
X009602Y010580D03*
X010602Y010580D03*
X011602Y010580D03*
X016635Y010567D03*
X017635Y010567D03*
X018635Y010567D03*
X003602Y010580D03*
X002602Y010580D03*
D26*
X005322Y006914D03*
X005322Y006540D03*
X005322Y006166D03*
X006228Y006166D03*
X006228Y006540D03*
X006228Y006914D03*
M02*
