G75*
%MOIN*%
%OFA0B0*%
%FSLAX24Y24*%
%IPPOS*%
%LPD*%
%AMOC8*
5,1,8,0,0,1.08239X$1,22.5*
%
%ADD10C,0.0000*%
D10*
X004212Y000190D02*
X017992Y000190D01*
X018116Y000192D01*
X018239Y000198D01*
X018363Y000207D01*
X018485Y000221D01*
X018608Y000238D01*
X018730Y000260D01*
X018851Y000285D01*
X018971Y000314D01*
X019090Y000346D01*
X019209Y000383D01*
X019326Y000423D01*
X019441Y000466D01*
X019556Y000514D01*
X019668Y000565D01*
X019779Y000619D01*
X019889Y000677D01*
X019996Y000738D01*
X020102Y000803D01*
X020205Y000871D01*
X020306Y000942D01*
X020405Y001016D01*
X020502Y001093D01*
X020596Y001174D01*
X020687Y001257D01*
X020776Y001343D01*
X020862Y001432D01*
X020945Y001523D01*
X021026Y001617D01*
X021103Y001714D01*
X021177Y001813D01*
X021248Y001914D01*
X021316Y002017D01*
X021381Y002123D01*
X021442Y002230D01*
X021500Y002340D01*
X021554Y002451D01*
X021605Y002563D01*
X021653Y002678D01*
X021696Y002793D01*
X021736Y002910D01*
X021773Y003029D01*
X021805Y003148D01*
X021834Y003268D01*
X021859Y003389D01*
X021881Y003511D01*
X021898Y003634D01*
X021912Y003756D01*
X021921Y003880D01*
X021927Y004003D01*
X021929Y004127D01*
X021929Y010033D01*
X021927Y010157D01*
X021921Y010280D01*
X021912Y010404D01*
X021898Y010526D01*
X021881Y010649D01*
X021859Y010771D01*
X021834Y010892D01*
X021805Y011012D01*
X021773Y011131D01*
X021736Y011250D01*
X021696Y011367D01*
X021653Y011482D01*
X021605Y011597D01*
X021554Y011709D01*
X021500Y011820D01*
X021442Y011930D01*
X021381Y012037D01*
X021316Y012143D01*
X021248Y012246D01*
X021177Y012347D01*
X021103Y012446D01*
X021026Y012543D01*
X020945Y012637D01*
X020862Y012728D01*
X020776Y012817D01*
X020687Y012903D01*
X020596Y012986D01*
X020502Y013067D01*
X020405Y013144D01*
X020306Y013218D01*
X020205Y013289D01*
X020102Y013357D01*
X019996Y013422D01*
X019889Y013483D01*
X019779Y013541D01*
X019668Y013595D01*
X019556Y013646D01*
X019441Y013694D01*
X019326Y013737D01*
X019209Y013777D01*
X019090Y013814D01*
X018971Y013846D01*
X018851Y013875D01*
X018730Y013900D01*
X018608Y013922D01*
X018485Y013939D01*
X018363Y013953D01*
X018239Y013962D01*
X018116Y013968D01*
X017992Y013970D01*
X004212Y013970D01*
X004088Y013968D01*
X003965Y013962D01*
X003841Y013953D01*
X003719Y013939D01*
X003596Y013922D01*
X003474Y013900D01*
X003353Y013875D01*
X003233Y013846D01*
X003114Y013814D01*
X002995Y013777D01*
X002878Y013737D01*
X002763Y013694D01*
X002648Y013646D01*
X002536Y013595D01*
X002425Y013541D01*
X002315Y013483D01*
X002208Y013422D01*
X002102Y013357D01*
X001999Y013289D01*
X001898Y013218D01*
X001799Y013144D01*
X001702Y013067D01*
X001608Y012986D01*
X001517Y012903D01*
X001428Y012817D01*
X001342Y012728D01*
X001259Y012637D01*
X001178Y012543D01*
X001101Y012446D01*
X001027Y012347D01*
X000956Y012246D01*
X000888Y012143D01*
X000823Y012037D01*
X000762Y011930D01*
X000704Y011820D01*
X000650Y011709D01*
X000599Y011597D01*
X000551Y011482D01*
X000508Y011367D01*
X000468Y011250D01*
X000431Y011131D01*
X000399Y011012D01*
X000370Y010892D01*
X000345Y010771D01*
X000323Y010649D01*
X000306Y010526D01*
X000292Y010404D01*
X000283Y010280D01*
X000277Y010157D01*
X000275Y010033D01*
X000275Y004127D01*
X000277Y004003D01*
X000283Y003880D01*
X000292Y003756D01*
X000306Y003634D01*
X000323Y003511D01*
X000345Y003389D01*
X000370Y003268D01*
X000399Y003148D01*
X000431Y003029D01*
X000468Y002910D01*
X000508Y002793D01*
X000551Y002678D01*
X000599Y002563D01*
X000650Y002451D01*
X000704Y002340D01*
X000762Y002230D01*
X000823Y002123D01*
X000888Y002017D01*
X000956Y001914D01*
X001027Y001813D01*
X001101Y001714D01*
X001178Y001617D01*
X001259Y001523D01*
X001342Y001432D01*
X001428Y001343D01*
X001517Y001257D01*
X001608Y001174D01*
X001702Y001093D01*
X001799Y001016D01*
X001898Y000942D01*
X001999Y000871D01*
X002102Y000803D01*
X002208Y000738D01*
X002315Y000677D01*
X002425Y000619D01*
X002536Y000565D01*
X002648Y000514D01*
X002763Y000466D01*
X002878Y000423D01*
X002995Y000383D01*
X003114Y000346D01*
X003233Y000314D01*
X003353Y000285D01*
X003474Y000260D01*
X003596Y000238D01*
X003719Y000221D01*
X003841Y000207D01*
X003965Y000198D01*
X004088Y000192D01*
X004212Y000190D01*
M02*
