G75*
%MOIN*%
%OFA0B0*%
%FSLAX24Y24*%
%IPPOS*%
%LPD*%
%AMOC8*
5,1,8,0,0,1.08239X$1,22.5*
%
%ADD10C,0.0060*%
%ADD11C,0.0080*%
%ADD12C,0.0000*%
%ADD13C,0.0050*%
%ADD14C,0.0040*%
%ADD15R,0.1575X0.0006*%
%ADD16R,0.1512X0.0006*%
%ADD17R,0.1840X0.0006*%
%ADD18R,0.1569X0.0006*%
%ADD19R,0.1644X0.0006*%
%ADD20R,0.1588X0.0006*%
%ADD21R,0.1909X0.0006*%
%ADD22R,0.1701X0.0006*%
%ADD23R,0.1638X0.0006*%
%ADD24R,0.1966X0.0006*%
%ADD25R,0.1745X0.0006*%
%ADD26R,0.1682X0.0006*%
%ADD27R,0.2010X0.0006*%
%ADD28R,0.1739X0.0006*%
%ADD29R,0.1783X0.0006*%
%ADD30R,0.1714X0.0006*%
%ADD31R,0.2047X0.0006*%
%ADD32R,0.1777X0.0006*%
%ADD33R,0.1814X0.0006*%
%ADD34R,0.1751X0.0006*%
%ADD35R,0.2079X0.0006*%
%ADD36R,0.1846X0.0006*%
%ADD37R,0.2104X0.0006*%
%ADD38R,0.1871X0.0006*%
%ADD39R,0.1808X0.0006*%
%ADD40R,0.2136X0.0006*%
%ADD41R,0.1865X0.0006*%
%ADD42R,0.1896X0.0006*%
%ADD43R,0.1827X0.0006*%
%ADD44R,0.2161X0.0006*%
%ADD45R,0.1890X0.0006*%
%ADD46R,0.1921X0.0006*%
%ADD47R,0.1852X0.0006*%
%ADD48R,0.2180X0.0006*%
%ADD49R,0.1915X0.0006*%
%ADD50R,0.1934X0.0006*%
%ADD51R,0.1877X0.0006*%
%ADD52R,0.2205X0.0006*%
%ADD53R,0.1959X0.0006*%
%ADD54R,0.2224X0.0006*%
%ADD55R,0.1953X0.0006*%
%ADD56R,0.1978X0.0006*%
%ADD57R,0.2243X0.0006*%
%ADD58R,0.1997X0.0006*%
%ADD59R,0.2262X0.0006*%
%ADD60R,0.1991X0.0006*%
%ADD61R,0.2281X0.0006*%
%ADD62R,0.2035X0.0006*%
%ADD63R,0.1966X0.0006*%
%ADD64R,0.2300X0.0006*%
%ADD65R,0.2029X0.0006*%
%ADD66R,0.1985X0.0006*%
%ADD67R,0.2312X0.0006*%
%ADD68R,0.2041X0.0006*%
%ADD69R,0.2060X0.0006*%
%ADD70R,0.2325X0.0006*%
%ADD71R,0.2016X0.0006*%
%ADD72R,0.2337X0.0006*%
%ADD73R,0.2092X0.0006*%
%ADD74R,0.2356X0.0006*%
%ADD75R,0.2369X0.0006*%
%ADD76R,0.2117X0.0006*%
%ADD77R,0.2054X0.0006*%
%ADD78R,0.2388X0.0006*%
%ADD79R,0.2129X0.0006*%
%ADD80R,0.2066X0.0006*%
%ADD81R,0.2394X0.0006*%
%ADD82R,0.2142X0.0006*%
%ADD83R,0.2407X0.0006*%
%ADD84R,0.2142X0.0006*%
%ADD85R,0.2155X0.0006*%
%ADD86R,0.2419X0.0006*%
%ADD87R,0.2167X0.0006*%
%ADD88R,0.2425X0.0006*%
%ADD89R,0.2173X0.0006*%
%ADD90R,0.2110X0.0006*%
%ADD91R,0.2438X0.0006*%
%ADD92R,0.2186X0.0006*%
%ADD93R,0.2123X0.0006*%
%ADD94R,0.2451X0.0006*%
%ADD95R,0.2199X0.0006*%
%ADD96R,0.2463X0.0006*%
%ADD97R,0.2192X0.0006*%
%ADD98R,0.2476X0.0006*%
%ADD99R,0.2218X0.0006*%
%ADD100R,0.2488X0.0006*%
%ADD101R,0.2236X0.0006*%
%ADD102R,0.2501X0.0006*%
%ADD103R,0.2230X0.0006*%
%ADD104R,0.2507X0.0006*%
%ADD105R,0.2249X0.0006*%
%ADD106R,0.2514X0.0006*%
%ADD107R,0.2262X0.0006*%
%ADD108R,0.2526X0.0006*%
%ADD109R,0.2255X0.0006*%
%ADD110R,0.2268X0.0006*%
%ADD111R,0.2274X0.0006*%
%ADD112R,0.2211X0.0006*%
%ADD113R,0.2539X0.0006*%
%ADD114R,0.2281X0.0006*%
%ADD115R,0.2545X0.0006*%
%ADD116R,0.2287X0.0006*%
%ADD117R,0.2552X0.0006*%
%ADD118R,0.2293X0.0006*%
%ADD119R,0.2558X0.0006*%
%ADD120R,0.2299X0.0006*%
%ADD121R,0.2237X0.0006*%
%ADD122R,0.2564X0.0006*%
%ADD123R,0.2306X0.0006*%
%ADD124R,0.2570X0.0006*%
%ADD125R,0.2577X0.0006*%
%ADD126R,0.2318X0.0006*%
%ADD127R,0.2583X0.0006*%
%ADD128R,0.2589X0.0006*%
%ADD129R,0.2331X0.0006*%
%ADD130R,0.2337X0.0006*%
%ADD131R,0.2602X0.0006*%
%ADD132R,0.2344X0.0006*%
%ADD133R,0.2608X0.0006*%
%ADD134R,0.2350X0.0006*%
%ADD135R,0.2615X0.0006*%
%ADD136R,0.2621X0.0006*%
%ADD137R,0.2362X0.0006*%
%ADD138R,0.2627X0.0006*%
%ADD139R,0.2633X0.0006*%
%ADD140R,0.2375X0.0006*%
%ADD141R,0.2640X0.0006*%
%ADD142R,0.2381X0.0006*%
%ADD143R,0.2318X0.0006*%
%ADD144R,0.2646X0.0006*%
%ADD145R,0.2652X0.0006*%
%ADD146R,0.2394X0.0006*%
%ADD147R,0.2400X0.0006*%
%ADD148R,0.2659X0.0006*%
%ADD149R,0.2665X0.0006*%
%ADD150R,0.2413X0.0006*%
%ADD151R,0.0340X0.0006*%
%ADD152R,0.0580X0.0006*%
%ADD153R,0.0567X0.0006*%
%ADD154R,0.0573X0.0006*%
%ADD155R,0.0315X0.0006*%
%ADD156R,0.0554X0.0006*%
%ADD157R,0.0535X0.0006*%
%ADD158R,0.0542X0.0006*%
%ADD159R,0.0561X0.0006*%
%ADD160R,0.0302X0.0006*%
%ADD161R,0.0523X0.0006*%
%ADD162R,0.0529X0.0006*%
%ADD163R,0.0548X0.0006*%
%ADD164R,0.0290X0.0006*%
%ADD165R,0.0529X0.0006*%
%ADD166R,0.0290X0.0006*%
%ADD167R,0.0510X0.0006*%
%ADD168R,0.0283X0.0006*%
%ADD169R,0.0504X0.0006*%
%ADD170R,0.0504X0.0006*%
%ADD171R,0.0277X0.0006*%
%ADD172R,0.0498X0.0006*%
%ADD173R,0.0271X0.0006*%
%ADD174R,0.0517X0.0006*%
%ADD175R,0.0265X0.0006*%
%ADD176R,0.0491X0.0006*%
%ADD177R,0.0258X0.0006*%
%ADD178R,0.0510X0.0006*%
%ADD179R,0.0485X0.0006*%
%ADD180R,0.0485X0.0006*%
%ADD181R,0.0252X0.0006*%
%ADD182R,0.0479X0.0006*%
%ADD183R,0.0252X0.0006*%
%ADD184R,0.0246X0.0006*%
%ADD185R,0.0473X0.0006*%
%ADD186R,0.0466X0.0006*%
%ADD187R,0.0239X0.0006*%
%ADD188R,0.0460X0.0006*%
%ADD189R,0.0233X0.0006*%
%ADD190R,0.0233X0.0006*%
%ADD191R,0.0227X0.0006*%
%ADD192R,0.0454X0.0006*%
%ADD193R,0.0447X0.0006*%
%ADD194R,0.0220X0.0006*%
%ADD195R,0.0491X0.0006*%
%ADD196R,0.0441X0.0006*%
%ADD197R,0.0214X0.0006*%
%ADD198R,0.0214X0.0006*%
%ADD199R,0.0435X0.0006*%
%ADD200R,0.0208X0.0006*%
%ADD201R,0.0428X0.0006*%
%ADD202R,0.0428X0.0006*%
%ADD203R,0.0208X0.0006*%
%ADD204R,0.0447X0.0006*%
%ADD205R,0.1203X0.0006*%
%ADD206R,0.1197X0.0006*%
%ADD207R,0.1726X0.0006*%
%ADD208R,0.1720X0.0006*%
%ADD209R,0.1197X0.0006*%
%ADD210R,0.1707X0.0006*%
%ADD211R,0.1695X0.0006*%
%ADD212R,0.1688X0.0006*%
%ADD213R,0.2022X0.0006*%
%ADD214R,0.1676X0.0006*%
%ADD215R,0.2003X0.0006*%
%ADD216R,0.1663X0.0006*%
%ADD217R,0.1657X0.0006*%
%ADD218R,0.1972X0.0006*%
%ADD219R,0.1632X0.0006*%
%ADD220R,0.1619X0.0006*%
%ADD221R,0.1947X0.0006*%
%ADD222R,0.1613X0.0006*%
%ADD223R,0.1940X0.0006*%
%ADD224R,0.1600X0.0006*%
%ADD225R,0.1594X0.0006*%
%ADD226R,0.1569X0.0006*%
%ADD227R,0.1556X0.0006*%
%ADD228R,0.1884X0.0006*%
%ADD229R,0.1543X0.0006*%
%ADD230R,0.1531X0.0006*%
%ADD231R,0.1499X0.0006*%
%ADD232R,0.1480X0.0006*%
%ADD233R,0.1468X0.0006*%
%ADD234R,0.1795X0.0006*%
%ADD235R,0.1443X0.0006*%
%ADD236R,0.1411X0.0006*%
%ADD237R,0.1386X0.0006*%
%ADD238R,0.1764X0.0006*%
%ADD239R,0.1789X0.0006*%
%ADD240R,0.1802X0.0006*%
%ADD241R,0.1833X0.0006*%
%ADD242R,0.1846X0.0006*%
%ADD243R,0.1884X0.0006*%
%ADD244R,0.1903X0.0006*%
%ADD245R,0.1903X0.0006*%
%ADD246R,0.1928X0.0006*%
%ADD247R,0.1959X0.0006*%
%ADD248R,0.0195X0.0006*%
%ADD249R,0.0189X0.0006*%
%ADD250R,0.0183X0.0006*%
%ADD251R,0.0176X0.0006*%
%ADD252R,0.0170X0.0006*%
%ADD253R,0.0164X0.0006*%
%ADD254R,0.0158X0.0006*%
%ADD255R,0.0151X0.0006*%
%ADD256R,0.0145X0.0006*%
%ADD257R,0.0139X0.0006*%
%ADD258R,0.0132X0.0006*%
%ADD259R,0.0132X0.0006*%
%ADD260R,0.0151X0.0006*%
%ADD261R,0.0170X0.0006*%
%ADD262R,0.1216X0.0006*%
%ADD263R,0.1210X0.0006*%
%ADD264R,0.1216X0.0006*%
%ADD265R,0.0195X0.0006*%
%ADD266R,0.0176X0.0006*%
%ADD267R,0.0126X0.0006*%
%ADD268R,0.0120X0.0006*%
%ADD269R,0.0113X0.0006*%
%ADD270R,0.0107X0.0006*%
%ADD271R,0.0202X0.0006*%
%ADD272R,0.0113X0.0006*%
%ADD273R,0.1770X0.0006*%
%ADD274R,0.1625X0.0006*%
%ADD275R,0.1764X0.0006*%
%ADD276R,0.1745X0.0006*%
%ADD277R,0.1607X0.0006*%
%ADD278R,0.1732X0.0006*%
%ADD279R,0.1688X0.0006*%
%ADD280R,0.1562X0.0006*%
%ADD281R,0.1550X0.0006*%
%ADD282R,0.1531X0.0006*%
%ADD283R,0.1606X0.0006*%
%ADD284R,0.1518X0.0006*%
%ADD285R,0.1506X0.0006*%
%ADD286R,0.1581X0.0006*%
%ADD287R,0.1493X0.0006*%
%ADD288R,0.1550X0.0006*%
%ADD289R,0.1449X0.0006*%
%ADD290R,0.1512X0.0006*%
%ADD291R,0.1436X0.0006*%
%ADD292R,0.1493X0.0006*%
%ADD293R,0.1455X0.0006*%
%ADD294R,0.1380X0.0006*%
%ADD295R,0.1405X0.0006*%
%ADD296R,0.1336X0.0006*%
%ADD297R,0.1039X0.0006*%
%ADD298R,0.1103X0.0006*%
%ADD299R,0.1134X0.0006*%
%ADD300R,0.1159X0.0006*%
%ADD301R,0.1184X0.0006*%
%ADD302R,0.1228X0.0006*%
%ADD303R,0.1247X0.0006*%
%ADD304R,0.1260X0.0006*%
%ADD305R,0.1273X0.0006*%
%ADD306R,0.1285X0.0006*%
%ADD307R,0.1291X0.0006*%
%ADD308R,0.1310X0.0006*%
%ADD309R,0.1317X0.0006*%
%ADD310R,0.1329X0.0006*%
%ADD311R,0.1342X0.0006*%
%ADD312R,0.1355X0.0006*%
%ADD313R,0.1361X0.0006*%
%ADD314R,0.1367X0.0006*%
%ADD315R,0.1392X0.0006*%
%ADD316R,0.1399X0.0006*%
%ADD317R,0.1424X0.0006*%
%ADD318R,0.1430X0.0006*%
%ADD319R,0.1462X0.0006*%
%ADD320R,0.1468X0.0006*%
%ADD321R,0.1474X0.0006*%
%ADD322R,0.1487X0.0006*%
%ADD323R,0.1525X0.0006*%
%ADD324R,0.1537X0.0006*%
%ADD325R,0.1588X0.0006*%
%ADD326R,0.0328X0.0006*%
%ADD327R,0.0309X0.0006*%
%ADD328R,0.0296X0.0006*%
%ADD329R,0.0775X0.0006*%
%ADD330R,0.0762X0.0006*%
%ADD331R,0.0769X0.0006*%
%ADD332R,0.2161X0.0006*%
%ADD333R,0.0750X0.0006*%
%ADD334R,0.0737X0.0006*%
%ADD335R,0.0725X0.0006*%
%ADD336R,0.2180X0.0006*%
%ADD337R,0.0718X0.0006*%
%ADD338R,0.0712X0.0006*%
%ADD339R,0.0699X0.0006*%
%ADD340R,0.2148X0.0006*%
%ADD341R,0.0699X0.0006*%
%ADD342R,0.0687X0.0006*%
%ADD343R,0.0674X0.0006*%
%ADD344R,0.0662X0.0006*%
%ADD345R,0.0649X0.0006*%
%ADD346R,0.2041X0.0006*%
%ADD347R,0.0636X0.0006*%
%ADD348R,0.0624X0.0006*%
%ADD349R,0.2073X0.0006*%
%ADD350R,0.0605X0.0006*%
%ADD351R,0.0586X0.0006*%
%ADD352R,0.1928X0.0006*%
%ADD353R,0.0523X0.0006*%
%ADD354R,0.0410X0.0006*%
%ADD355R,0.1865X0.0006*%
%ADD356R,0.0384X0.0006*%
%ADD357R,0.0384X0.0006*%
%ADD358R,0.0353X0.0006*%
%ADD359R,0.0321X0.0006*%
%ADD360R,0.1632X0.0006*%
%ADD361R,0.0101X0.0006*%
%ADD362C,0.0100*%
%ADD363C,0.0059*%
D10*
X002102Y001330D02*
X002102Y002830D01*
X002352Y003080D01*
X002852Y003080D01*
X003102Y002830D01*
X003102Y001330D01*
X003352Y001080D01*
X003852Y001080D01*
X004102Y001330D01*
X004102Y002830D01*
X004352Y003080D01*
X004852Y003080D01*
X005102Y002830D01*
X005102Y001330D01*
X005352Y001080D01*
X005852Y001080D01*
X006102Y001330D01*
X006102Y002830D01*
X006352Y003080D01*
X006852Y003080D01*
X007102Y002830D01*
X007102Y001330D01*
X007352Y001080D01*
X007852Y001080D01*
X008102Y001330D01*
X008102Y002830D01*
X008352Y003080D01*
X008852Y003080D01*
X009102Y002830D01*
X009102Y001330D01*
X008852Y001080D01*
X008352Y001080D01*
X008102Y001330D01*
X009102Y001330D02*
X009352Y001080D01*
X009852Y001080D01*
X010102Y001330D01*
X010102Y002830D01*
X010352Y003080D01*
X010852Y003080D01*
X011102Y002830D01*
X011102Y001330D01*
X010852Y001080D01*
X010352Y001080D01*
X010102Y001330D01*
X011102Y001330D02*
X011352Y001080D01*
X011852Y001080D01*
X012102Y001330D01*
X012102Y002830D01*
X012352Y003080D01*
X012852Y003080D01*
X013102Y002830D01*
X013102Y001330D01*
X012852Y001080D01*
X012352Y001080D01*
X012102Y001330D01*
X013102Y001330D02*
X013352Y001080D01*
X013852Y001080D01*
X014102Y001330D01*
X014102Y002830D01*
X014352Y003080D01*
X014852Y003080D01*
X015102Y002830D01*
X015102Y001330D01*
X014852Y001080D01*
X014352Y001080D01*
X014102Y001330D01*
X015102Y001330D02*
X015352Y001080D01*
X015852Y001080D01*
X016102Y001330D01*
X016102Y002830D01*
X016352Y003080D01*
X016852Y003080D01*
X017102Y002830D01*
X017102Y001330D01*
X016852Y001080D01*
X016352Y001080D01*
X016102Y001330D01*
X017102Y001330D02*
X017352Y001080D01*
X017852Y001080D01*
X018102Y001330D01*
X018102Y002830D01*
X018352Y003080D01*
X018852Y003080D01*
X019102Y002830D01*
X019102Y001330D01*
X018852Y001080D01*
X018352Y001080D01*
X018102Y001330D01*
X019102Y001330D02*
X019352Y001080D01*
X019852Y001080D01*
X020102Y001330D01*
X020102Y002830D01*
X019852Y003080D01*
X019352Y003080D01*
X019102Y002830D01*
X018102Y002830D02*
X017852Y003080D01*
X017352Y003080D01*
X017102Y002830D01*
X016102Y002830D02*
X015852Y003080D01*
X015352Y003080D01*
X015102Y002830D01*
X014102Y002830D02*
X013852Y003080D01*
X013352Y003080D01*
X013102Y002830D01*
X012102Y002830D02*
X011852Y003080D01*
X011352Y003080D01*
X011102Y002830D01*
X010102Y002830D02*
X009852Y003080D01*
X009352Y003080D01*
X009102Y002830D01*
X008102Y002830D02*
X007852Y003080D01*
X007352Y003080D01*
X007102Y002830D01*
X006102Y002830D02*
X005852Y003080D01*
X005352Y003080D01*
X005102Y002830D01*
X004102Y002830D02*
X003852Y003080D01*
X003352Y003080D01*
X003102Y002830D01*
X003102Y001330D02*
X002852Y001080D01*
X002352Y001080D01*
X002102Y001330D01*
X004102Y001330D02*
X004352Y001080D01*
X004852Y001080D01*
X005102Y001330D01*
X005276Y000885D02*
X005349Y000885D01*
X005349Y000445D01*
X005276Y000445D02*
X005423Y000445D01*
X005583Y000518D02*
X005656Y000592D01*
X005876Y000592D01*
X005876Y000665D02*
X005876Y000445D01*
X005656Y000445D01*
X005583Y000518D01*
X005803Y000739D02*
X005876Y000665D01*
X005803Y000739D02*
X005656Y000739D01*
X006043Y000518D02*
X006117Y000518D01*
X006117Y000445D01*
X006043Y000445D01*
X006043Y000518D01*
X006273Y000445D02*
X006420Y000445D01*
X006347Y000445D02*
X006347Y000739D01*
X006273Y000739D01*
X006347Y000885D02*
X006347Y000959D01*
X006352Y001080D02*
X006852Y001080D01*
X007102Y001330D01*
X006800Y000739D02*
X006654Y000739D01*
X006580Y000665D01*
X006580Y000518D01*
X006654Y000445D01*
X006800Y000445D01*
X006874Y000518D01*
X006874Y000665D01*
X006800Y000739D01*
X006352Y001080D02*
X006102Y001330D01*
X005109Y000665D02*
X005109Y000592D01*
X004815Y000592D01*
X004815Y000665D02*
X004889Y000739D01*
X005036Y000739D01*
X005109Y000665D01*
X005036Y000445D02*
X004889Y000445D01*
X004815Y000518D01*
X004815Y000665D01*
X004649Y000665D02*
X004649Y000518D01*
X004575Y000445D01*
X004355Y000445D01*
X004355Y000885D01*
X004355Y000739D02*
X004575Y000739D01*
X004649Y000665D01*
X004852Y011080D02*
X004352Y011080D01*
X004102Y011330D01*
X004102Y012830D01*
X004352Y013080D01*
X004852Y013080D01*
X005102Y012830D01*
X005102Y011330D01*
X005352Y011080D01*
X005852Y011080D01*
X006102Y011330D01*
X006102Y012830D01*
X006352Y013080D01*
X006852Y013080D01*
X007102Y012830D01*
X007102Y011330D01*
X007352Y011080D01*
X007852Y011080D01*
X008102Y011330D01*
X008102Y012830D01*
X008352Y013080D01*
X008852Y013080D01*
X009102Y012830D01*
X009102Y011330D01*
X008852Y011080D01*
X008352Y011080D01*
X008102Y011330D01*
X009102Y011330D02*
X009352Y011080D01*
X009852Y011080D01*
X010102Y011330D01*
X010102Y012830D01*
X010352Y013080D01*
X010852Y013080D01*
X011102Y012830D01*
X011102Y011330D01*
X010852Y011080D01*
X010352Y011080D01*
X010102Y011330D01*
X011102Y011330D02*
X011352Y011080D01*
X011852Y011080D01*
X012102Y011330D01*
X012102Y012830D01*
X012352Y013080D01*
X012852Y013080D01*
X013102Y012830D01*
X013102Y011330D01*
X012852Y011080D01*
X012352Y011080D01*
X012102Y011330D01*
X013102Y011330D02*
X013352Y011080D01*
X013852Y011080D01*
X014102Y011330D01*
X014102Y012830D01*
X014352Y013080D01*
X014852Y013080D01*
X015102Y012830D01*
X015102Y011330D01*
X014852Y011080D01*
X014352Y011080D01*
X014102Y011330D01*
X015102Y011330D02*
X015352Y011080D01*
X015852Y011080D01*
X016102Y011330D01*
X016102Y012830D01*
X016352Y013080D01*
X016852Y013080D01*
X017102Y012830D01*
X017102Y011330D01*
X016852Y011080D01*
X016352Y011080D01*
X016102Y011330D01*
X017102Y011330D02*
X017352Y011080D01*
X017852Y011080D01*
X018102Y011330D01*
X018102Y012830D01*
X018352Y013080D01*
X018852Y013080D01*
X019102Y012830D01*
X019102Y011330D01*
X018852Y011080D01*
X018352Y011080D01*
X018102Y011330D01*
X019102Y011330D02*
X019352Y011080D01*
X019852Y011080D01*
X020102Y011330D01*
X020102Y012830D01*
X019852Y013080D01*
X019352Y013080D01*
X019102Y012830D01*
X018102Y012830D02*
X017852Y013080D01*
X017352Y013080D01*
X017102Y012830D01*
X016102Y012830D02*
X015852Y013080D01*
X015352Y013080D01*
X015102Y012830D01*
X014102Y012830D02*
X013852Y013080D01*
X013352Y013080D01*
X013102Y012830D01*
X012102Y012830D02*
X011852Y013080D01*
X011352Y013080D01*
X011102Y012830D01*
X010102Y012830D02*
X009852Y013080D01*
X009352Y013080D01*
X009102Y012830D01*
X008102Y012830D02*
X007852Y013080D01*
X007352Y013080D01*
X007102Y012830D01*
X006102Y012830D02*
X005852Y013080D01*
X005352Y013080D01*
X005102Y012830D01*
X004102Y012830D02*
X003852Y013080D01*
X003352Y013080D01*
X003102Y012830D01*
X003102Y011330D01*
X003352Y011080D01*
X003852Y011080D01*
X004102Y011330D01*
X004852Y011080D02*
X005102Y011330D01*
X006102Y011330D02*
X006352Y011080D01*
X006852Y011080D01*
X007102Y011330D01*
X003102Y011330D02*
X002852Y011080D01*
X002352Y011080D01*
X002102Y011330D01*
X002102Y012830D01*
X002352Y013080D01*
X002852Y013080D01*
X003102Y012830D01*
D11*
X001480Y011303D02*
X001122Y011303D01*
X000838Y010988D02*
X000838Y010012D01*
X001122Y009689D02*
X001480Y009689D01*
X001744Y010012D02*
X001744Y010988D01*
X002102Y010830D02*
X002352Y011080D01*
X002852Y011080D01*
X003102Y010830D01*
X003352Y011080D01*
X003852Y011080D01*
X004102Y010830D01*
X004352Y011080D01*
X004852Y011080D01*
X005102Y010830D01*
X005352Y011080D01*
X005852Y011080D01*
X006102Y010830D01*
X006352Y011080D01*
X006852Y011080D01*
X007102Y010830D01*
X007352Y011080D01*
X007852Y011080D01*
X008102Y010830D01*
X008352Y011080D01*
X008852Y011080D01*
X009102Y010830D01*
X009352Y011080D01*
X009852Y011080D01*
X010102Y010830D01*
X010352Y011080D01*
X010852Y011080D01*
X011102Y010830D01*
X011352Y011080D01*
X011852Y011080D01*
X012102Y010830D01*
X012102Y010330D01*
X011852Y010080D01*
X011352Y010080D01*
X011102Y010330D01*
X010852Y010080D01*
X010352Y010080D01*
X010102Y010330D01*
X009852Y010080D01*
X009352Y010080D01*
X009102Y010330D01*
X008852Y010080D01*
X008352Y010080D01*
X008102Y010330D01*
X007852Y010080D01*
X007352Y010080D01*
X007102Y010330D01*
X006852Y010080D01*
X006352Y010080D01*
X006102Y010330D01*
X005852Y010080D01*
X005352Y010080D01*
X005102Y010330D01*
X004852Y010080D01*
X004352Y010080D01*
X004102Y010330D01*
X003852Y010080D01*
X003352Y010080D01*
X003102Y010330D01*
X002852Y010080D01*
X002352Y010080D01*
X002102Y010330D01*
X002102Y010830D01*
X001670Y002960D02*
X001670Y002920D01*
X001080Y002920D02*
X001080Y002960D01*
X016135Y010317D02*
X016135Y010817D01*
X016385Y011067D01*
X016885Y011067D01*
X017135Y010817D01*
X017385Y011067D01*
X017885Y011067D01*
X018135Y010817D01*
X018385Y011067D01*
X018885Y011067D01*
X019135Y010817D01*
X019135Y010317D01*
X018885Y010067D01*
X018385Y010067D01*
X018135Y010317D01*
X017885Y010067D01*
X017385Y010067D01*
X017135Y010317D01*
X016885Y010067D01*
X016385Y010067D01*
X016135Y010317D01*
X018715Y009000D02*
X018715Y008720D01*
X018715Y008860D02*
X019135Y008860D01*
X019065Y008539D02*
X018715Y008539D01*
X018715Y008259D02*
X019065Y008259D01*
X019135Y008329D01*
X019135Y008469D01*
X019065Y008539D01*
X019065Y008079D02*
X018785Y008079D01*
X018715Y008009D01*
X018715Y007869D01*
X018785Y007799D01*
X019065Y007799D01*
X019135Y007869D01*
X019135Y008009D01*
X019065Y008079D01*
X019135Y006250D02*
X018715Y006250D01*
X018715Y005970D02*
X019135Y006250D01*
X019135Y005970D02*
X018715Y005970D01*
X018715Y005803D02*
X018715Y005663D01*
X018715Y005733D02*
X019135Y005733D01*
X019135Y005663D02*
X019135Y005803D01*
D12*
X021929Y004127D02*
X021927Y004003D01*
X021921Y003880D01*
X021912Y003756D01*
X021898Y003634D01*
X021881Y003511D01*
X021859Y003389D01*
X021834Y003268D01*
X021805Y003148D01*
X021773Y003029D01*
X021736Y002910D01*
X021696Y002793D01*
X021653Y002678D01*
X021605Y002563D01*
X021554Y002451D01*
X021500Y002340D01*
X021442Y002230D01*
X021381Y002123D01*
X021316Y002017D01*
X021248Y001914D01*
X021177Y001813D01*
X021103Y001714D01*
X021026Y001617D01*
X020945Y001523D01*
X020862Y001432D01*
X020776Y001343D01*
X020687Y001257D01*
X020596Y001174D01*
X020502Y001093D01*
X020405Y001016D01*
X020306Y000942D01*
X020205Y000871D01*
X020102Y000803D01*
X019996Y000738D01*
X019889Y000677D01*
X019779Y000619D01*
X019668Y000565D01*
X019556Y000514D01*
X019441Y000466D01*
X019326Y000423D01*
X019209Y000383D01*
X019090Y000346D01*
X018971Y000314D01*
X018851Y000285D01*
X018730Y000260D01*
X018608Y000238D01*
X018485Y000221D01*
X018363Y000207D01*
X018239Y000198D01*
X018116Y000192D01*
X017992Y000190D01*
X004212Y000190D01*
X004088Y000192D01*
X003965Y000198D01*
X003841Y000207D01*
X003719Y000221D01*
X003596Y000238D01*
X003474Y000260D01*
X003353Y000285D01*
X003233Y000314D01*
X003114Y000346D01*
X002995Y000383D01*
X002878Y000423D01*
X002763Y000466D01*
X002648Y000514D01*
X002536Y000565D01*
X002425Y000619D01*
X002315Y000677D01*
X002208Y000738D01*
X002102Y000803D01*
X001999Y000871D01*
X001898Y000942D01*
X001799Y001016D01*
X001702Y001093D01*
X001608Y001174D01*
X001517Y001257D01*
X001428Y001343D01*
X001342Y001432D01*
X001259Y001523D01*
X001178Y001617D01*
X001101Y001714D01*
X001027Y001813D01*
X000956Y001914D01*
X000888Y002017D01*
X000823Y002123D01*
X000762Y002230D01*
X000704Y002340D01*
X000650Y002451D01*
X000599Y002563D01*
X000551Y002678D01*
X000508Y002793D01*
X000468Y002910D01*
X000431Y003029D01*
X000399Y003148D01*
X000370Y003268D01*
X000345Y003389D01*
X000323Y003511D01*
X000306Y003634D01*
X000292Y003756D01*
X000283Y003880D01*
X000277Y004003D01*
X000275Y004127D01*
X000275Y010033D01*
X000277Y010157D01*
X000283Y010280D01*
X000292Y010404D01*
X000306Y010526D01*
X000323Y010649D01*
X000345Y010771D01*
X000370Y010892D01*
X000399Y011012D01*
X000431Y011131D01*
X000468Y011250D01*
X000508Y011367D01*
X000551Y011482D01*
X000599Y011597D01*
X000650Y011709D01*
X000704Y011820D01*
X000762Y011930D01*
X000823Y012037D01*
X000888Y012143D01*
X000956Y012246D01*
X001027Y012347D01*
X001101Y012446D01*
X001178Y012543D01*
X001259Y012637D01*
X001342Y012728D01*
X001428Y012817D01*
X001517Y012903D01*
X001608Y012986D01*
X001702Y013067D01*
X001799Y013144D01*
X001898Y013218D01*
X001999Y013289D01*
X002102Y013357D01*
X002208Y013422D01*
X002315Y013483D01*
X002425Y013541D01*
X002536Y013595D01*
X002648Y013646D01*
X002763Y013694D01*
X002878Y013737D01*
X002995Y013777D01*
X003114Y013814D01*
X003233Y013846D01*
X003353Y013875D01*
X003474Y013900D01*
X003596Y013922D01*
X003719Y013939D01*
X003841Y013953D01*
X003965Y013962D01*
X004088Y013968D01*
X004212Y013970D01*
X017992Y013970D01*
X018116Y013968D01*
X018239Y013962D01*
X018363Y013953D01*
X018485Y013939D01*
X018608Y013922D01*
X018730Y013900D01*
X018851Y013875D01*
X018971Y013846D01*
X019090Y013814D01*
X019209Y013777D01*
X019326Y013737D01*
X019441Y013694D01*
X019556Y013646D01*
X019668Y013595D01*
X019779Y013541D01*
X019889Y013483D01*
X019996Y013422D01*
X020102Y013357D01*
X020205Y013289D01*
X020306Y013218D01*
X020405Y013144D01*
X020502Y013067D01*
X020596Y012986D01*
X020687Y012903D01*
X020776Y012817D01*
X020862Y012728D01*
X020945Y012637D01*
X021026Y012543D01*
X021103Y012446D01*
X021177Y012347D01*
X021248Y012246D01*
X021316Y012143D01*
X021381Y012037D01*
X021442Y011930D01*
X021500Y011820D01*
X021554Y011709D01*
X021605Y011597D01*
X021653Y011482D01*
X021696Y011367D01*
X021736Y011250D01*
X021773Y011131D01*
X021805Y011012D01*
X021834Y010892D01*
X021859Y010771D01*
X021881Y010649D01*
X021898Y010526D01*
X021912Y010404D01*
X021921Y010280D01*
X021927Y010157D01*
X021929Y010033D01*
X021929Y004127D01*
D13*
X018639Y000815D02*
X018523Y000815D01*
X018464Y000757D01*
X018330Y000757D02*
X018330Y000699D01*
X018271Y000640D01*
X018096Y000640D01*
X018096Y000465D02*
X018271Y000465D01*
X018330Y000523D01*
X018330Y000582D01*
X018271Y000640D01*
X018330Y000757D02*
X018271Y000815D01*
X018096Y000815D01*
X018096Y000465D01*
X018464Y000465D02*
X018698Y000699D01*
X018698Y000757D01*
X018639Y000815D01*
X018698Y000465D02*
X018464Y000465D01*
X017602Y000465D02*
X017544Y000465D01*
X017544Y000523D01*
X017602Y000523D01*
X017602Y000465D01*
X017409Y000699D02*
X017292Y000465D01*
X017175Y000699D01*
X017040Y000640D02*
X017040Y000582D01*
X016807Y000582D01*
X016807Y000640D02*
X016865Y000699D01*
X016982Y000699D01*
X017040Y000640D01*
X016982Y000465D02*
X016865Y000465D01*
X016807Y000523D01*
X016807Y000640D01*
X016675Y000699D02*
X016617Y000699D01*
X016500Y000582D01*
X016500Y000465D02*
X016500Y000699D01*
X001454Y002389D02*
X001414Y002349D01*
X001336Y002349D01*
X001375Y002310D01*
X001414Y002349D01*
X001454Y002389D02*
X001296Y002389D01*
X001336Y002349D01*
D14*
X008469Y003350D02*
X008469Y003426D01*
X008545Y003501D01*
X008620Y003501D01*
X008658Y003463D01*
X008658Y003388D01*
X008734Y003388D01*
X008771Y003350D01*
X008771Y003275D01*
X008696Y003199D01*
X008620Y003199D01*
X008620Y003350D02*
X008658Y003388D01*
X008855Y003433D02*
X008893Y003471D01*
X008930Y003433D01*
X008893Y003396D01*
X008855Y003433D01*
X008972Y003551D02*
X009048Y003551D01*
X009123Y003626D01*
X009123Y003702D01*
X009085Y003739D01*
X009010Y003739D01*
X008972Y003702D01*
X009010Y003739D02*
X009010Y003815D01*
X008972Y003853D01*
X008897Y003853D01*
X008821Y003777D01*
X008821Y003702D01*
X009018Y003974D02*
X009169Y003823D01*
X009320Y003823D01*
X009320Y003974D01*
X009169Y004125D01*
X009717Y003773D02*
X009944Y003547D01*
X009566Y003622D01*
X009793Y003396D01*
X009671Y003350D02*
X009596Y003426D01*
X009520Y003350D01*
X009369Y003350D02*
X009369Y003426D01*
X009445Y003501D01*
X009520Y003501D01*
X009369Y003350D02*
X009520Y003199D01*
X009596Y003199D01*
X009671Y003275D01*
X009671Y003350D01*
X010027Y003630D02*
X010140Y003743D01*
X010140Y003819D01*
X009989Y003970D01*
X009914Y003970D01*
X009801Y003857D01*
X010027Y003630D01*
X012369Y003426D02*
X012369Y003350D01*
X012520Y003199D01*
X012596Y003199D01*
X012671Y003275D01*
X012671Y003350D01*
X012596Y003426D01*
X012520Y003350D01*
X012520Y003501D02*
X012445Y003501D01*
X012369Y003426D01*
X012566Y003622D02*
X012944Y003547D01*
X012717Y003773D01*
X012801Y003857D02*
X012914Y003970D01*
X012989Y003970D01*
X013140Y003819D01*
X013140Y003743D01*
X013027Y003630D01*
X012801Y003857D01*
X012566Y003622D02*
X012793Y003396D01*
X013265Y003402D02*
X013379Y003288D01*
X013416Y003402D01*
X013454Y003439D01*
X013530Y003439D01*
X013605Y003364D01*
X013605Y003288D01*
X013530Y003213D01*
X013454Y003213D01*
X013265Y003402D02*
X013416Y003553D01*
X013500Y003636D02*
X013651Y003485D01*
X013802Y003485D01*
X013802Y003636D01*
X013651Y003787D01*
X016339Y003395D02*
X016452Y003508D01*
X016527Y003508D01*
X016678Y003357D01*
X016678Y003282D01*
X016565Y003168D01*
X016339Y003395D01*
X016648Y003554D02*
X016648Y003705D01*
X016875Y003478D01*
X016799Y003403D02*
X016950Y003554D01*
X016996Y003675D02*
X017072Y003675D01*
X017147Y003750D01*
X017147Y003826D01*
X017072Y003901D01*
X016996Y003901D01*
X016958Y003864D01*
X016921Y003750D01*
X016807Y003864D01*
X016958Y004015D01*
X017648Y003705D02*
X017875Y003478D01*
X017799Y003403D02*
X017950Y003554D01*
X017648Y003554D02*
X017648Y003705D01*
X017921Y003750D02*
X018072Y003901D01*
X018147Y003750D02*
X017921Y003977D01*
X017921Y003750D01*
X017678Y003357D02*
X017527Y003508D01*
X017452Y003508D01*
X017339Y003395D01*
X017565Y003168D01*
X017678Y003282D01*
X017678Y003357D01*
X020139Y001595D02*
X020252Y001708D01*
X020327Y001708D01*
X020478Y001557D01*
X020478Y001482D01*
X020365Y001368D01*
X020139Y001595D01*
X020448Y001754D02*
X020448Y001905D01*
X020675Y001678D01*
X020599Y001603D02*
X020750Y001754D01*
X020796Y001875D02*
X020872Y001875D01*
X020947Y001950D01*
X020947Y002026D01*
X020909Y002064D01*
X020834Y002064D01*
X020796Y002026D01*
X020834Y002064D02*
X020834Y002139D01*
X020796Y002177D01*
X020721Y002177D01*
X020645Y002101D01*
X020645Y002026D01*
X018234Y009128D02*
X018310Y009204D01*
X018310Y009279D01*
X018234Y009355D01*
X018159Y009279D01*
X018159Y009128D02*
X018234Y009128D01*
X018159Y009128D02*
X018008Y009279D01*
X018008Y009355D01*
X018083Y009430D01*
X018159Y009430D01*
X018204Y009551D02*
X018582Y009476D01*
X018355Y009702D01*
X018439Y009786D02*
X018552Y009899D01*
X018627Y009899D01*
X018778Y009748D01*
X018778Y009673D01*
X018665Y009559D01*
X018439Y009786D01*
X018204Y009551D02*
X018431Y009325D01*
X017816Y009710D02*
X017665Y009559D01*
X017439Y009786D01*
X016816Y009710D02*
X016665Y009710D01*
X016703Y009748D02*
X016590Y009635D01*
X016665Y009559D02*
X016439Y009786D01*
X016552Y009899D01*
X016627Y009899D01*
X016703Y009824D01*
X016703Y009748D01*
X015622Y010496D02*
X015471Y010345D01*
X015546Y010420D02*
X015320Y010647D01*
X015320Y010496D01*
X015199Y010450D02*
X015123Y010450D01*
X015010Y010337D01*
X015236Y010111D01*
X015350Y010224D01*
X015350Y010299D01*
X015199Y010450D01*
X014818Y010693D02*
X014743Y010617D01*
X014667Y010617D01*
X014667Y010919D01*
X014818Y010768D01*
X014818Y010693D01*
X014667Y010617D02*
X014516Y010768D01*
X014516Y010844D01*
X014592Y010919D01*
X014667Y010919D01*
X014320Y010647D02*
X014546Y010420D01*
X014471Y010345D02*
X014622Y010496D01*
X014320Y010496D02*
X014320Y010647D01*
X014199Y010450D02*
X014123Y010450D01*
X014010Y010337D01*
X014236Y010111D01*
X014350Y010224D01*
X014350Y010299D01*
X014199Y010450D01*
X013787Y010662D02*
X013787Y010813D01*
X013636Y010964D01*
X013485Y010813D02*
X013636Y010662D01*
X013787Y010662D01*
X013591Y010541D02*
X013591Y010465D01*
X013515Y010390D01*
X013440Y010390D01*
X013360Y010310D02*
X013398Y010272D01*
X013360Y010235D01*
X013323Y010272D01*
X013360Y010310D01*
X013239Y010189D02*
X013239Y010114D01*
X013164Y010038D01*
X013088Y010038D01*
X013088Y010189D02*
X013126Y010227D01*
X013201Y010227D01*
X013239Y010189D01*
X013126Y010227D02*
X013126Y010302D01*
X013088Y010340D01*
X013013Y010340D01*
X012937Y010264D01*
X012937Y010189D01*
X012712Y010506D02*
X012485Y010732D01*
X012569Y010816D02*
X012682Y010929D01*
X012757Y010929D01*
X012908Y010778D01*
X012908Y010703D01*
X012795Y010589D01*
X012569Y010816D01*
X012334Y010581D02*
X012712Y010506D01*
X012561Y010355D02*
X012334Y010581D01*
X012289Y010460D02*
X012213Y010460D01*
X012138Y010385D01*
X012138Y010309D01*
X012289Y010158D01*
X012364Y010158D01*
X012440Y010234D01*
X012440Y010309D01*
X012364Y010385D01*
X012289Y010309D01*
X011630Y009957D02*
X011479Y009806D01*
X011705Y009579D01*
X011622Y009496D02*
X011471Y009345D01*
X011244Y009571D01*
X011395Y009722D01*
X011592Y009693D02*
X011667Y009768D01*
X011433Y009534D02*
X011358Y009458D01*
X011274Y009375D02*
X011274Y009299D01*
X011161Y009186D01*
X011236Y009111D02*
X011010Y009337D01*
X011123Y009450D01*
X011199Y009450D01*
X011274Y009375D01*
X011236Y009262D02*
X011387Y009262D01*
X010808Y009703D02*
X010808Y009778D01*
X010657Y009929D01*
X010582Y009929D01*
X010469Y009816D01*
X010695Y009589D01*
X010808Y009703D01*
X010612Y009506D02*
X010385Y009732D01*
X010234Y009581D02*
X010612Y009506D01*
X010461Y009355D02*
X010234Y009581D01*
X010189Y009460D02*
X010113Y009460D01*
X010038Y009385D01*
X010038Y009309D01*
X010189Y009158D01*
X010264Y009158D01*
X010340Y009234D01*
X010340Y009309D01*
X010264Y009385D01*
X010189Y009309D01*
X009707Y009525D02*
X009665Y009567D01*
X009665Y009907D01*
X009622Y009950D01*
X009453Y009780D01*
X009447Y009604D02*
X009277Y009604D01*
X009277Y009434D01*
X009447Y009265D01*
X009320Y009392D02*
X009489Y009562D01*
X009447Y009604D02*
X009617Y009434D01*
X008835Y009652D02*
X008835Y009737D01*
X008792Y009780D01*
X008707Y009780D01*
X008580Y009652D01*
X008665Y009567D01*
X008750Y009567D01*
X008835Y009652D01*
X008580Y009652D02*
X008580Y009822D01*
X008622Y009950D01*
X008447Y009604D02*
X008617Y009434D01*
X008489Y009562D02*
X008320Y009392D01*
X008277Y009434D02*
X008447Y009265D01*
X008277Y009434D02*
X008277Y009604D01*
X008447Y009604D01*
X007835Y009652D02*
X007750Y009567D01*
X007665Y009567D01*
X007580Y009652D02*
X007622Y009780D01*
X007665Y009822D01*
X007750Y009822D01*
X007835Y009737D01*
X007835Y009652D01*
X007580Y009652D02*
X007453Y009780D01*
X007622Y009950D01*
X007447Y009604D02*
X007277Y009604D01*
X007277Y009434D01*
X007447Y009265D01*
X007320Y009392D02*
X007489Y009562D01*
X007447Y009604D02*
X007617Y009434D01*
X006835Y009652D02*
X006580Y009907D01*
X006580Y009652D01*
X006750Y009822D01*
X006489Y009562D02*
X006320Y009392D01*
X006277Y009434D02*
X006277Y009604D01*
X006447Y009604D01*
X006617Y009434D01*
X006447Y009265D02*
X006277Y009434D01*
X005735Y009652D02*
X005735Y009737D01*
X005692Y009780D01*
X005607Y009780D01*
X005565Y009737D01*
X005607Y009780D02*
X005607Y009865D01*
X005565Y009907D01*
X005480Y009907D01*
X005395Y009822D01*
X005395Y009737D01*
X005347Y009604D02*
X005177Y009604D01*
X005177Y009434D01*
X005347Y009265D01*
X005220Y009392D02*
X005389Y009562D01*
X005347Y009604D02*
X005517Y009434D01*
X005565Y009567D02*
X005650Y009567D01*
X005735Y009652D01*
X004877Y009695D02*
X004707Y009525D01*
X004707Y009865D01*
X004665Y009907D01*
X004580Y009907D01*
X004495Y009822D01*
X004495Y009737D01*
X003677Y009695D02*
X003507Y009525D01*
X003592Y009610D02*
X003338Y009865D01*
X003338Y009695D01*
X003247Y009604D02*
X003077Y009604D01*
X003077Y009434D01*
X003247Y009265D01*
X003120Y009392D02*
X003289Y009562D01*
X003247Y009604D02*
X003417Y009434D01*
X002835Y009652D02*
X002835Y009737D01*
X002665Y009907D01*
X002665Y009567D01*
X002750Y009567D01*
X002835Y009652D01*
X002665Y009567D02*
X002495Y009737D01*
X002495Y009822D01*
X002580Y009907D01*
X002665Y009907D01*
X002447Y009604D02*
X002277Y009604D01*
X002277Y009434D01*
X002447Y009265D01*
X002320Y009392D02*
X002489Y009562D01*
X002447Y009604D02*
X002617Y009434D01*
X001647Y011565D02*
X001774Y011692D01*
X001774Y011777D01*
X001605Y011947D01*
X001520Y011947D01*
X001392Y011819D01*
X001647Y011565D01*
X001865Y011867D02*
X001865Y012207D01*
X002035Y012037D01*
X002035Y011952D01*
X001950Y011867D01*
X001865Y011867D01*
X001695Y012037D01*
X001695Y012122D01*
X001780Y012207D01*
X001865Y012207D01*
X001774Y012392D02*
X001647Y012265D01*
X001392Y012519D01*
X001520Y012647D01*
X001605Y012647D01*
X001774Y012477D01*
X001774Y012392D01*
X001907Y012525D02*
X002077Y012695D01*
X001992Y012610D02*
X001738Y012865D01*
X001738Y012695D01*
X003310Y013423D02*
X003438Y013550D01*
X003523Y013550D01*
X003692Y013381D01*
X003692Y013296D01*
X003565Y013168D01*
X003310Y013423D01*
X003613Y013641D02*
X003613Y013726D01*
X003698Y013811D01*
X003783Y013811D01*
X003825Y013768D01*
X003825Y013429D01*
X003995Y013599D01*
X004310Y013423D02*
X004438Y013550D01*
X004523Y013550D01*
X004692Y013381D01*
X004692Y013296D01*
X004565Y013168D01*
X004310Y013423D01*
X004613Y013641D02*
X004613Y013726D01*
X004698Y013811D01*
X004783Y013811D01*
X004825Y013768D01*
X004825Y013683D01*
X004910Y013683D01*
X004953Y013641D01*
X004953Y013556D01*
X004868Y013471D01*
X004783Y013471D01*
X004783Y013641D02*
X004825Y013683D01*
X005310Y013423D02*
X005438Y013550D01*
X005523Y013550D01*
X005692Y013381D01*
X005692Y013296D01*
X005565Y013168D01*
X005310Y013423D01*
X005698Y013556D02*
X005868Y013726D01*
X005953Y013556D02*
X005698Y013811D01*
X005698Y013556D01*
X006310Y013423D02*
X006438Y013550D01*
X006523Y013550D01*
X006692Y013381D01*
X006692Y013296D01*
X006565Y013168D01*
X006310Y013423D01*
X006571Y013683D02*
X006698Y013556D01*
X006741Y013683D01*
X006783Y013726D01*
X006868Y013726D01*
X006953Y013641D01*
X006953Y013556D01*
X006868Y013471D01*
X006783Y013471D01*
X006571Y013683D02*
X006741Y013853D01*
X010310Y013423D02*
X010438Y013550D01*
X010523Y013550D01*
X010692Y013381D01*
X010692Y013296D01*
X010565Y013168D01*
X010310Y013423D01*
X010698Y013556D02*
X010825Y013683D01*
X010910Y013683D01*
X010953Y013641D01*
X010953Y013556D01*
X010868Y013471D01*
X010783Y013471D01*
X010698Y013556D01*
X010698Y013726D01*
X010741Y013853D01*
X011310Y013423D02*
X011438Y013550D01*
X011523Y013550D01*
X011692Y013381D01*
X011692Y013296D01*
X011565Y013168D01*
X011310Y013423D01*
X011571Y013683D02*
X011741Y013853D01*
X011783Y013811D01*
X011783Y013471D01*
X011825Y013429D01*
X012310Y013423D02*
X012438Y013550D01*
X012523Y013550D01*
X012692Y013381D01*
X012692Y013296D01*
X012565Y013168D01*
X012310Y013423D01*
X012613Y013641D02*
X012613Y013726D01*
X012698Y013811D01*
X012783Y013811D01*
X012825Y013768D01*
X012825Y013683D01*
X012741Y013599D01*
X012656Y013599D01*
X012613Y013641D01*
X012741Y013599D02*
X012741Y013514D01*
X012783Y013471D01*
X012868Y013471D01*
X012953Y013556D01*
X012953Y013641D01*
X012910Y013683D01*
X012825Y013683D01*
X013310Y013423D02*
X013438Y013550D01*
X013523Y013550D01*
X013692Y013381D01*
X013692Y013296D01*
X013565Y013168D01*
X013310Y013423D01*
X013613Y013641D02*
X013656Y013599D01*
X013741Y013599D01*
X013868Y013726D01*
X013953Y013641D02*
X013783Y013811D01*
X013698Y013811D01*
X013613Y013726D01*
X013613Y013641D01*
X013783Y013471D02*
X013868Y013471D01*
X013953Y013556D01*
X013953Y013641D01*
X015554Y010881D02*
X015781Y010655D01*
X015856Y010730D02*
X015705Y010579D01*
X015554Y010730D02*
X015554Y010881D01*
X013591Y010541D02*
X013553Y010578D01*
X013478Y010578D01*
X013440Y010541D01*
X013478Y010578D02*
X013478Y010654D01*
X013440Y010692D01*
X013364Y010692D01*
X013289Y010616D01*
X013289Y010541D01*
X020139Y011695D02*
X020252Y011808D01*
X020327Y011808D01*
X020478Y011657D01*
X020478Y011582D01*
X020365Y011468D01*
X020139Y011695D01*
X020448Y011854D02*
X020448Y012005D01*
X020675Y011778D01*
X020599Y011703D02*
X020750Y011854D01*
X020834Y011937D02*
X020834Y012239D01*
X020796Y012277D01*
X020721Y012277D01*
X020645Y012201D01*
X020645Y012126D01*
X020834Y011937D02*
X020985Y012088D01*
D15*
X017189Y008900D03*
X016811Y008371D03*
X016641Y007558D03*
X011072Y005108D03*
X008344Y004245D03*
D16*
X010908Y004245D03*
X011046Y005139D03*
X016817Y008245D03*
X016817Y008251D03*
D17*
X013831Y005139D03*
X013692Y004245D03*
X016370Y004282D03*
D18*
X016367Y004245D03*
X016644Y007565D03*
X016814Y008346D03*
X016814Y008352D03*
X016814Y008359D03*
X016814Y008365D03*
D19*
X016587Y007464D03*
X016367Y004251D03*
X011094Y005064D03*
X008347Y004251D03*
X009021Y007590D03*
D20*
X010908Y004251D03*
X016634Y007552D03*
D21*
X013859Y005108D03*
X013696Y004251D03*
X011352Y005650D03*
X011352Y005656D03*
D22*
X011216Y005498D03*
X008344Y004257D03*
X009043Y007552D03*
X016370Y004257D03*
D23*
X016590Y007470D03*
X016590Y007477D03*
X016597Y007483D03*
X011727Y008900D03*
X009018Y007596D03*
X011090Y005070D03*
X010908Y004257D03*
D24*
X011418Y005826D03*
X011418Y005832D03*
X011418Y005839D03*
X011418Y005845D03*
X011437Y005914D03*
X011437Y005920D03*
X011437Y005927D03*
X011437Y005933D03*
X013692Y004257D03*
D25*
X013790Y005171D03*
X008347Y004264D03*
X017186Y008875D03*
D26*
X011106Y005038D03*
X010911Y004264D03*
D27*
X008347Y004333D03*
X013696Y004264D03*
X013891Y005038D03*
X016367Y004333D03*
X011730Y008818D03*
D28*
X011727Y008888D03*
X009056Y007527D03*
X011235Y005511D03*
X011122Y004982D03*
X016370Y004264D03*
D29*
X009071Y007477D03*
X009071Y007483D03*
X008347Y004270D03*
D30*
X010908Y004270D03*
X011116Y005007D03*
X013774Y005177D03*
X017189Y008881D03*
D31*
X013903Y005001D03*
X013696Y004270D03*
X008347Y004345D03*
D32*
X010908Y004282D03*
X011261Y005530D03*
X013799Y005164D03*
X016370Y004270D03*
X017189Y008869D03*
X011727Y008881D03*
X009068Y007489D03*
D33*
X011286Y005555D03*
X011279Y005549D03*
X013818Y005152D03*
X016370Y004276D03*
X008344Y004276D03*
D34*
X010908Y004276D03*
X011242Y005517D03*
X009062Y007508D03*
D35*
X008344Y004358D03*
X010908Y004390D03*
X013692Y004276D03*
X016370Y004358D03*
X017189Y008762D03*
D36*
X008347Y004282D03*
D37*
X008344Y004371D03*
X010908Y004402D03*
X013692Y004282D03*
X016370Y004371D03*
X017189Y008749D03*
X011727Y008781D03*
D38*
X011320Y005599D03*
X013840Y005127D03*
X008347Y004289D03*
D39*
X010911Y004289D03*
X011730Y008875D03*
D40*
X013695Y004289D03*
D41*
X013837Y005133D03*
X011317Y005593D03*
X016370Y004289D03*
D42*
X013853Y005114D03*
X011339Y005631D03*
X010911Y004314D03*
X008347Y004295D03*
D43*
X010908Y004295D03*
X011292Y005561D03*
X013825Y005146D03*
X017189Y008856D03*
D44*
X010911Y004440D03*
X013696Y004295D03*
D45*
X011336Y005624D03*
X016370Y004295D03*
X017189Y008837D03*
X011727Y008856D03*
D46*
X011365Y005675D03*
X011358Y005668D03*
X013859Y005101D03*
X008347Y004301D03*
D47*
X010908Y004301D03*
X011305Y005580D03*
X011311Y005587D03*
X017189Y008850D03*
D48*
X010908Y004453D03*
X013692Y004301D03*
D49*
X011355Y005662D03*
X010908Y004320D03*
X016370Y004301D03*
X017189Y008831D03*
X011727Y008850D03*
D50*
X011730Y008844D03*
X011377Y005706D03*
X011371Y005694D03*
X010911Y004327D03*
X008347Y004308D03*
X013866Y005095D03*
X016367Y004308D03*
D51*
X011324Y005605D03*
X010908Y004308D03*
X017189Y008844D03*
D52*
X011727Y008724D03*
X010908Y004471D03*
X008344Y004427D03*
X013692Y004308D03*
X016370Y004427D03*
D53*
X013872Y005076D03*
X011409Y005794D03*
X011409Y005801D03*
X011396Y005757D03*
X008347Y004314D03*
D54*
X008347Y004440D03*
X010911Y004490D03*
X013696Y004314D03*
X011730Y008711D03*
D55*
X011727Y008837D03*
X011399Y005769D03*
X011399Y005763D03*
X011393Y005750D03*
X011393Y005744D03*
X011387Y005731D03*
X010908Y004333D03*
X016370Y004314D03*
X017189Y008818D03*
D56*
X017189Y008806D03*
X013881Y005064D03*
X016370Y004320D03*
X008344Y004320D03*
D57*
X008344Y004453D03*
X010908Y004509D03*
X013692Y004320D03*
X016370Y004453D03*
D58*
X010911Y004352D03*
X008347Y004327D03*
X017186Y008800D03*
D59*
X010911Y004528D03*
X013696Y004327D03*
D60*
X013888Y005051D03*
X016370Y004327D03*
X011727Y008825D03*
D61*
X016370Y004490D03*
X016370Y004484D03*
X013692Y004333D03*
D62*
X013897Y005013D03*
X008347Y004339D03*
D63*
X010908Y004339D03*
X011405Y005788D03*
X011412Y005807D03*
X011412Y005813D03*
X011412Y005820D03*
X011424Y005851D03*
X011424Y005857D03*
X011424Y005864D03*
X011424Y005870D03*
X011424Y005876D03*
X011431Y005883D03*
X011431Y005889D03*
X011431Y005895D03*
X011431Y005902D03*
X011443Y005946D03*
X011443Y005952D03*
X011443Y005958D03*
X011443Y005965D03*
X011450Y005971D03*
X017189Y008812D03*
D64*
X010911Y004585D03*
X013696Y004339D03*
D65*
X013900Y005020D03*
X016370Y004339D03*
X010908Y004364D03*
X011727Y008812D03*
X017189Y008787D03*
D66*
X013885Y005057D03*
X010911Y004345D03*
D67*
X010911Y004610D03*
X010911Y004616D03*
X008347Y004516D03*
X013696Y004345D03*
D68*
X013900Y005007D03*
X016370Y004345D03*
X010908Y004371D03*
D69*
X008347Y004352D03*
X013910Y004988D03*
X016367Y004352D03*
X011730Y008800D03*
D70*
X010911Y004648D03*
X010911Y004642D03*
X008347Y004534D03*
X008347Y004528D03*
X013696Y004352D03*
D71*
X013894Y005032D03*
X010908Y004358D03*
X017189Y008793D03*
D72*
X013696Y004358D03*
D73*
X016370Y004364D03*
X010908Y004396D03*
X008344Y004364D03*
X011727Y008787D03*
X017189Y008755D03*
D74*
X016370Y004585D03*
X016370Y004579D03*
X016370Y004572D03*
X013692Y004364D03*
X008344Y004572D03*
D75*
X008344Y004597D03*
X013692Y004371D03*
X016370Y004597D03*
X016370Y004604D03*
X016370Y004610D03*
D76*
X016370Y004377D03*
X017189Y008737D03*
X011727Y008774D03*
X008344Y004377D03*
D77*
X010908Y004377D03*
X013907Y004994D03*
X017189Y008774D03*
D78*
X013696Y004377D03*
X008347Y004635D03*
X008347Y004642D03*
X008347Y004648D03*
X008347Y004654D03*
D79*
X008344Y004383D03*
X010908Y004421D03*
X016370Y004383D03*
X017189Y008730D03*
X011727Y008768D03*
D80*
X017189Y008768D03*
X013907Y004982D03*
X010908Y004383D03*
D81*
X013692Y004383D03*
X016370Y004648D03*
X016370Y004654D03*
X016370Y004660D03*
X016370Y004667D03*
X016370Y004673D03*
D82*
X010908Y004427D03*
X008344Y004390D03*
X011727Y008762D03*
X017189Y008724D03*
D83*
X016376Y004723D03*
X016376Y004717D03*
X016376Y004711D03*
X013692Y004390D03*
X008350Y004692D03*
X008350Y004698D03*
X008350Y004705D03*
X008350Y004711D03*
X008350Y004717D03*
D84*
X016370Y004390D03*
D85*
X016370Y004396D03*
X010908Y004434D03*
X008344Y004396D03*
X017189Y008718D03*
D86*
X013692Y004396D03*
D87*
X016370Y004402D03*
X010908Y004446D03*
X008344Y004402D03*
X017189Y008705D03*
D88*
X013696Y004402D03*
D89*
X016367Y004408D03*
X011730Y008743D03*
X008347Y004408D03*
D90*
X010911Y004408D03*
X017186Y008743D03*
D91*
X013696Y004408D03*
D92*
X016367Y004415D03*
X010911Y004459D03*
X008347Y004415D03*
D93*
X010911Y004415D03*
D94*
X013695Y004415D03*
D95*
X008347Y004421D03*
D96*
X013696Y004421D03*
D97*
X016370Y004421D03*
X010908Y004465D03*
X011727Y008730D03*
D98*
X013696Y004434D03*
X013696Y004427D03*
D99*
X016370Y004434D03*
X016370Y004440D03*
X010908Y004484D03*
X008344Y004434D03*
D100*
X013696Y004440D03*
D101*
X008347Y004446D03*
D102*
X013696Y004446D03*
D103*
X016370Y004446D03*
X010908Y004497D03*
X011727Y008705D03*
D104*
X013692Y004453D03*
D105*
X016367Y004459D03*
X010911Y004516D03*
X008347Y004459D03*
D106*
X013696Y004459D03*
D107*
X008347Y004465D03*
X008347Y004471D03*
D108*
X013696Y004471D03*
X013696Y004465D03*
D109*
X016370Y004465D03*
X010908Y004522D03*
D110*
X010908Y004534D03*
X010908Y004541D03*
X016370Y004478D03*
X016370Y004471D03*
D111*
X010911Y004547D03*
X008347Y004478D03*
D112*
X010911Y004478D03*
X011730Y008718D03*
D113*
X013696Y004478D03*
D114*
X010908Y004553D03*
X010908Y004560D03*
X008344Y004484D03*
D115*
X013692Y004484D03*
D116*
X010911Y004566D03*
X008347Y004490D03*
D117*
X013696Y004490D03*
D118*
X016370Y004497D03*
X016370Y004503D03*
X010908Y004572D03*
X010908Y004579D03*
X008344Y004497D03*
D119*
X013692Y004497D03*
D120*
X008347Y004503D03*
D121*
X010911Y004503D03*
D122*
X013696Y004503D03*
D123*
X016370Y004509D03*
X016370Y004516D03*
X010908Y004591D03*
X010908Y004597D03*
X010908Y004604D03*
X008344Y004509D03*
D124*
X013692Y004509D03*
D125*
X013696Y004516D03*
D126*
X016370Y004522D03*
X016370Y004528D03*
X008344Y004522D03*
D127*
X013692Y004522D03*
D128*
X013695Y004528D03*
X013695Y004534D03*
D129*
X016370Y004534D03*
X016370Y004541D03*
X010908Y004654D03*
X010908Y004660D03*
X010908Y004667D03*
X010908Y004673D03*
X010908Y004679D03*
X010908Y004686D03*
X010908Y004692D03*
X010908Y004698D03*
X010908Y004705D03*
X010908Y004711D03*
X010908Y004717D03*
X010908Y004723D03*
D130*
X008347Y004547D03*
X008347Y004541D03*
X016367Y004547D03*
D131*
X013696Y004547D03*
X013696Y004541D03*
D132*
X016370Y004553D03*
X016370Y004560D03*
X008344Y004553D03*
D133*
X013692Y004553D03*
D134*
X016367Y004566D03*
X008347Y004566D03*
X008347Y004560D03*
D135*
X013696Y004560D03*
X013696Y004566D03*
D136*
X013692Y004572D03*
D137*
X016367Y004591D03*
X008347Y004591D03*
X008347Y004585D03*
X008347Y004579D03*
D138*
X013696Y004579D03*
X013696Y004585D03*
X013696Y004591D03*
D139*
X013692Y004597D03*
D140*
X008347Y004604D03*
X008347Y004610D03*
X008347Y004616D03*
D141*
X013696Y004616D03*
X013696Y004610D03*
X013696Y004604D03*
D142*
X016370Y004616D03*
X016370Y004623D03*
X016370Y004629D03*
X016370Y004635D03*
X016370Y004642D03*
X008344Y004629D03*
X008344Y004623D03*
D143*
X010908Y004623D03*
X010908Y004629D03*
X010908Y004635D03*
D144*
X013692Y004623D03*
D145*
X013696Y004629D03*
X013696Y004635D03*
X013696Y004642D03*
X013696Y004648D03*
X013696Y004654D03*
X013696Y004660D03*
D146*
X008350Y004660D03*
D147*
X008347Y004667D03*
X008347Y004673D03*
X008347Y004679D03*
X008347Y004686D03*
X016373Y004686D03*
X016373Y004692D03*
X016373Y004698D03*
X016373Y004705D03*
X016373Y004679D03*
D148*
X013692Y004673D03*
X013692Y004667D03*
D149*
X013696Y004679D03*
X013696Y004686D03*
X013696Y004692D03*
X013696Y004698D03*
X013696Y004705D03*
X013696Y004711D03*
X013696Y004717D03*
X013696Y004723D03*
D150*
X008353Y004723D03*
D151*
X007317Y004730D03*
X009912Y004730D03*
X012533Y004730D03*
X015343Y004730D03*
D152*
X017290Y004730D03*
X009270Y004730D03*
D153*
X011790Y004730D03*
D154*
X014741Y004730D03*
X013607Y008812D03*
X008391Y008812D03*
D155*
X007304Y004736D03*
X009900Y004736D03*
X012521Y004736D03*
X015330Y004736D03*
D156*
X009282Y004736D03*
D157*
X011806Y004736D03*
X012165Y005990D03*
X013607Y008825D03*
X008391Y008825D03*
X017318Y004749D03*
D158*
X014757Y004736D03*
X009289Y004742D03*
D159*
X012152Y005977D03*
X013607Y008818D03*
X008391Y008818D03*
X017305Y004736D03*
D160*
X015324Y004742D03*
X012514Y004742D03*
X009893Y004742D03*
X007298Y004742D03*
D161*
X009304Y004761D03*
X011812Y004742D03*
X012171Y005996D03*
X012177Y006002D03*
X008391Y008831D03*
X017324Y004755D03*
D162*
X014763Y004742D03*
X009301Y004755D03*
D163*
X012158Y005983D03*
X017312Y004742D03*
D164*
X015318Y004749D03*
X012508Y004749D03*
X007292Y004749D03*
D165*
X009295Y004749D03*
D166*
X009887Y004749D03*
D167*
X011818Y004749D03*
X012184Y006015D03*
X014767Y004749D03*
X017337Y004774D03*
X017337Y004780D03*
D168*
X015315Y004755D03*
X012505Y004755D03*
X009884Y004755D03*
X007288Y004755D03*
X008391Y008888D03*
X013607Y008888D03*
X016165Y008478D03*
D169*
X012193Y006040D03*
X012193Y006034D03*
X012187Y006028D03*
X012187Y006021D03*
X011821Y004755D03*
X009320Y004786D03*
X009320Y004793D03*
X009314Y004780D03*
X017340Y004786D03*
X017346Y004799D03*
D170*
X014770Y004755D03*
D171*
X017271Y007458D03*
X016162Y008485D03*
X009881Y004761D03*
X007285Y004761D03*
D172*
X007950Y005183D03*
X007950Y005190D03*
X007950Y005196D03*
X007956Y005209D03*
X007956Y005215D03*
X007956Y005221D03*
X007956Y005227D03*
X007963Y005240D03*
X007963Y005246D03*
X007963Y005253D03*
X007963Y005259D03*
X007969Y005272D03*
X007969Y005278D03*
X007969Y005284D03*
X007975Y005303D03*
X007975Y005309D03*
X007975Y005316D03*
X007981Y005335D03*
X007981Y005341D03*
X007981Y005347D03*
X007988Y005366D03*
X007988Y005372D03*
X007988Y005379D03*
X007994Y005391D03*
X007994Y005398D03*
X007994Y005404D03*
X007994Y005410D03*
X008000Y005423D03*
X008000Y005429D03*
X008000Y005435D03*
X008000Y005442D03*
X008007Y005454D03*
X008007Y005461D03*
X008007Y005467D03*
X008013Y005486D03*
X008013Y005492D03*
X008013Y005498D03*
X008019Y005517D03*
X008019Y005524D03*
X008019Y005530D03*
X008026Y005542D03*
X008026Y005549D03*
X008026Y005555D03*
X008026Y005561D03*
X008032Y005574D03*
X008032Y005580D03*
X008032Y005587D03*
X008032Y005593D03*
X008038Y005605D03*
X008038Y005612D03*
X008038Y005618D03*
X008044Y005637D03*
X008044Y005643D03*
X008044Y005650D03*
X008051Y005668D03*
X008051Y005675D03*
X008051Y005681D03*
X008057Y005700D03*
X008057Y005706D03*
X008057Y005713D03*
X008063Y005725D03*
X008063Y005731D03*
X008063Y005738D03*
X008063Y005744D03*
X008070Y005757D03*
X008070Y005763D03*
X008070Y005769D03*
X008070Y005776D03*
X008076Y005788D03*
X008076Y005794D03*
X008076Y005801D03*
X008082Y005820D03*
X008082Y005826D03*
X008082Y005832D03*
X008089Y005851D03*
X008089Y005857D03*
X008089Y005864D03*
X008095Y005876D03*
X008095Y005883D03*
X008095Y005889D03*
X008095Y005895D03*
X008101Y005908D03*
X008101Y005914D03*
X008101Y005920D03*
X008101Y005927D03*
X008107Y005939D03*
X008107Y005946D03*
X008107Y005952D03*
X008114Y005971D03*
X008114Y005977D03*
X008114Y005983D03*
X008120Y006002D03*
X008120Y006009D03*
X008120Y006015D03*
X008126Y006034D03*
X008126Y006040D03*
X008126Y006046D03*
X008133Y006059D03*
X008133Y006065D03*
X008133Y006072D03*
X008133Y006078D03*
X008139Y006091D03*
X008139Y006097D03*
X008139Y006103D03*
X008139Y006109D03*
X008145Y006122D03*
X008145Y006128D03*
X008145Y006135D03*
X008151Y006154D03*
X008151Y006160D03*
X008151Y006166D03*
X008158Y006185D03*
X008158Y006191D03*
X008158Y006198D03*
X008164Y006210D03*
X008164Y006217D03*
X008164Y006223D03*
X008164Y006229D03*
X008170Y006242D03*
X008170Y006248D03*
X008170Y006254D03*
X008170Y006261D03*
X008177Y006273D03*
X008177Y006280D03*
X008177Y006286D03*
X008183Y006305D03*
X008183Y006311D03*
X008183Y006317D03*
X008189Y006336D03*
X008189Y006343D03*
X008189Y006349D03*
X008196Y006368D03*
X008196Y006374D03*
X008196Y006380D03*
X008202Y006393D03*
X008202Y006399D03*
X008202Y006406D03*
X008202Y006412D03*
X008208Y006424D03*
X008208Y006431D03*
X008208Y006437D03*
X008208Y006443D03*
X008215Y006456D03*
X008215Y006462D03*
X008215Y006469D03*
X008221Y006487D03*
X008221Y006494D03*
X008221Y006500D03*
X008227Y006519D03*
X008227Y006525D03*
X008227Y006532D03*
X008233Y006544D03*
X008233Y006550D03*
X008233Y006557D03*
X008233Y006563D03*
X008240Y006576D03*
X008240Y006582D03*
X008240Y006588D03*
X008240Y006595D03*
X008246Y006607D03*
X008246Y006613D03*
X008246Y006620D03*
X008252Y006639D03*
X008252Y006645D03*
X008252Y006651D03*
X008259Y006670D03*
X008259Y006676D03*
X008259Y006683D03*
X008265Y006702D03*
X008265Y006708D03*
X008265Y006714D03*
X009613Y006204D03*
X009613Y006198D03*
X009613Y006191D03*
X009607Y006172D03*
X009607Y006166D03*
X009607Y006160D03*
X009601Y006141D03*
X009601Y006135D03*
X009601Y006128D03*
X009594Y006109D03*
X009594Y006103D03*
X009594Y006097D03*
X009588Y006078D03*
X009588Y006072D03*
X009588Y006065D03*
X009582Y006046D03*
X009582Y006040D03*
X009582Y006034D03*
X009575Y006021D03*
X009575Y006015D03*
X009575Y006009D03*
X009575Y006002D03*
X009569Y005990D03*
X009569Y005983D03*
X009569Y005977D03*
X009563Y005958D03*
X009563Y005952D03*
X009563Y005946D03*
X009556Y005927D03*
X009556Y005920D03*
X009556Y005914D03*
X009550Y005895D03*
X009550Y005889D03*
X009550Y005883D03*
X009544Y005864D03*
X009544Y005857D03*
X009544Y005851D03*
X009538Y005839D03*
X009538Y005832D03*
X009538Y005826D03*
X009538Y005820D03*
X009531Y005807D03*
X009531Y005801D03*
X009531Y005794D03*
X009525Y005776D03*
X009525Y005769D03*
X009525Y005763D03*
X009519Y005744D03*
X009519Y005738D03*
X009519Y005731D03*
X009512Y005713D03*
X009512Y005706D03*
X009512Y005700D03*
X009506Y005681D03*
X009506Y005675D03*
X009506Y005668D03*
X009500Y005656D03*
X009500Y005650D03*
X009500Y005643D03*
X009500Y005637D03*
X009493Y005624D03*
X009493Y005618D03*
X009493Y005612D03*
X009487Y005593D03*
X009487Y005587D03*
X009487Y005580D03*
X009481Y005561D03*
X009481Y005555D03*
X009481Y005549D03*
X009475Y005530D03*
X009475Y005524D03*
X009475Y005517D03*
X009468Y005498D03*
X009468Y005492D03*
X009468Y005486D03*
X009462Y005467D03*
X009462Y005461D03*
X009462Y005454D03*
X009456Y005442D03*
X009456Y005435D03*
X009456Y005429D03*
X009456Y005423D03*
X009449Y005410D03*
X009449Y005404D03*
X009449Y005398D03*
X009443Y005379D03*
X009443Y005372D03*
X009443Y005366D03*
X009437Y005347D03*
X009437Y005341D03*
X009437Y005335D03*
X009430Y005316D03*
X009430Y005309D03*
X009430Y005303D03*
X009424Y005284D03*
X009424Y005278D03*
X009424Y005272D03*
X009418Y005259D03*
X009418Y005253D03*
X009418Y005246D03*
X009418Y005240D03*
X009411Y005227D03*
X009411Y005221D03*
X009411Y005215D03*
X009405Y005196D03*
X009405Y005190D03*
X009405Y005183D03*
X009399Y005164D03*
X009399Y005158D03*
X009399Y005152D03*
X009393Y005133D03*
X009393Y005127D03*
X009393Y005120D03*
X009386Y005101D03*
X009386Y005095D03*
X009386Y005089D03*
X009380Y005070D03*
X009380Y005064D03*
X009380Y005057D03*
X009374Y005045D03*
X009374Y005038D03*
X009374Y005032D03*
X009374Y005026D03*
X009367Y005013D03*
X009367Y005007D03*
X009367Y005001D03*
X009361Y004982D03*
X009361Y004975D03*
X009361Y004969D03*
X009355Y004950D03*
X009355Y004944D03*
X009355Y004938D03*
X009349Y004919D03*
X009349Y004912D03*
X009349Y004906D03*
X009342Y004887D03*
X009342Y004881D03*
X009342Y004875D03*
X009336Y004862D03*
X009336Y004856D03*
X009336Y004849D03*
X009336Y004843D03*
X009330Y004831D03*
X009330Y004824D03*
X009330Y004818D03*
X009323Y004805D03*
X009323Y004799D03*
X010546Y005183D03*
X010546Y005190D03*
X010552Y005202D03*
X010552Y005209D03*
X010552Y005215D03*
X010552Y005221D03*
X010558Y005234D03*
X010558Y005240D03*
X010558Y005246D03*
X010558Y005253D03*
X010564Y005265D03*
X010564Y005272D03*
X010564Y005278D03*
X010564Y005284D03*
X010571Y005290D03*
X010571Y005297D03*
X010571Y005303D03*
X010571Y005309D03*
X010577Y005322D03*
X010577Y005328D03*
X010577Y005335D03*
X010577Y005341D03*
X010583Y005353D03*
X010583Y005360D03*
X010583Y005366D03*
X010583Y005372D03*
X010590Y005385D03*
X010590Y005391D03*
X010590Y005398D03*
X010590Y005404D03*
X010596Y005410D03*
X010596Y005416D03*
X010596Y005423D03*
X010596Y005429D03*
X010602Y005442D03*
X010602Y005448D03*
X010602Y005454D03*
X010602Y005461D03*
X010609Y005473D03*
X010609Y005479D03*
X009619Y006217D03*
X009619Y006223D03*
X009619Y006229D03*
X009619Y006235D03*
X009626Y006248D03*
X009626Y006254D03*
X009626Y006261D03*
X009632Y006280D03*
X009632Y006286D03*
X009632Y006292D03*
X009638Y006311D03*
X009638Y006317D03*
X009638Y006324D03*
X009645Y006343D03*
X009645Y006349D03*
X009645Y006355D03*
X009651Y006374D03*
X009651Y006380D03*
X009651Y006387D03*
X009657Y006399D03*
X009657Y006406D03*
X009657Y006412D03*
X009657Y006418D03*
X009664Y006431D03*
X009664Y006437D03*
X009664Y006443D03*
X009670Y006462D03*
X009670Y006469D03*
X009670Y006475D03*
X009676Y006494D03*
X009676Y006500D03*
X009676Y006506D03*
X009682Y006525D03*
X009682Y006532D03*
X009682Y006538D03*
X009689Y006557D03*
X009689Y006563D03*
X009689Y006569D03*
X009695Y006582D03*
X009695Y006588D03*
X009695Y006595D03*
X009695Y006601D03*
X009701Y006613D03*
X009701Y006620D03*
X009701Y006626D03*
X009701Y006632D03*
X009708Y006645D03*
X009708Y006651D03*
X009708Y006658D03*
X009714Y006676D03*
X009714Y006683D03*
X009714Y006689D03*
X009720Y006708D03*
X009720Y006714D03*
X009720Y006721D03*
X009726Y006739D03*
X009726Y006746D03*
X009726Y006752D03*
X009733Y006771D03*
X009733Y006777D03*
X009733Y006784D03*
X009739Y006796D03*
X009739Y006802D03*
X009739Y006809D03*
X009739Y006815D03*
X009745Y006828D03*
X009745Y006834D03*
X009745Y006840D03*
X009752Y006859D03*
X009752Y006865D03*
X009752Y006872D03*
X009758Y006891D03*
X009758Y006897D03*
X009758Y006903D03*
X009764Y006922D03*
X009764Y006928D03*
X009764Y006935D03*
X009771Y006954D03*
X009771Y006960D03*
X009771Y006966D03*
X009777Y006979D03*
X009777Y006985D03*
X009777Y006991D03*
X009777Y006998D03*
X009783Y007010D03*
X009783Y007017D03*
X009783Y007023D03*
X009790Y007042D03*
X009790Y007048D03*
X009790Y007054D03*
X009796Y007073D03*
X009796Y007080D03*
X009796Y007086D03*
X009802Y007105D03*
X009802Y007111D03*
X009802Y007117D03*
X009808Y007143D03*
X009808Y007149D03*
X010911Y006922D03*
X010911Y006916D03*
X010911Y006910D03*
X010911Y006903D03*
X010905Y006891D03*
X010905Y006884D03*
X010905Y006878D03*
X010905Y006872D03*
X010898Y006859D03*
X010898Y006853D03*
X010898Y006847D03*
X010898Y006840D03*
X010892Y006828D03*
X010892Y006821D03*
X010892Y006815D03*
X010886Y006802D03*
X010886Y006796D03*
X010886Y006790D03*
X010886Y006784D03*
X010879Y006771D03*
X010879Y006765D03*
X010879Y006758D03*
X010879Y006752D03*
X010873Y006739D03*
X010873Y006733D03*
X010873Y006727D03*
X010873Y006721D03*
X010867Y006714D03*
X010867Y006708D03*
X010867Y006702D03*
X010867Y006695D03*
X010861Y006683D03*
X010861Y006676D03*
X010861Y006670D03*
X010861Y006664D03*
X010854Y006651D03*
X010854Y006645D03*
X010854Y006639D03*
X010854Y006632D03*
X010848Y006620D03*
X010848Y006613D03*
X010848Y006607D03*
X010848Y006601D03*
X010842Y006595D03*
X010842Y006588D03*
X010842Y006582D03*
X010842Y006576D03*
X010835Y006563D03*
X010835Y006557D03*
X010835Y006550D03*
X010835Y006544D03*
X010829Y006532D03*
X010829Y006525D03*
X010829Y006519D03*
X010829Y006513D03*
X010823Y006500D03*
X010823Y006494D03*
X010823Y006487D03*
X010816Y006475D03*
X010816Y006469D03*
X010816Y006462D03*
X010816Y006456D03*
X010810Y006443D03*
X010810Y006437D03*
X010810Y006431D03*
X010917Y006928D03*
X010917Y006935D03*
X010917Y006941D03*
X010917Y006947D03*
X010924Y006960D03*
X010924Y006966D03*
X010924Y006973D03*
X010924Y006979D03*
X010930Y006991D03*
X010930Y006998D03*
X010930Y007004D03*
X010930Y007010D03*
X010936Y007023D03*
X010936Y007029D03*
X010936Y007036D03*
X010936Y007042D03*
X010942Y007048D03*
X010942Y007054D03*
X010942Y007061D03*
X010942Y007067D03*
X010949Y007080D03*
X010949Y007086D03*
X010949Y007092D03*
X010949Y007099D03*
X010955Y007111D03*
X010955Y007117D03*
X010955Y007124D03*
X010955Y007130D03*
X010961Y007143D03*
X010961Y007149D03*
X010961Y007155D03*
X010968Y007168D03*
X010968Y007174D03*
X010968Y007180D03*
X010968Y007187D03*
X010974Y007199D03*
X010974Y007206D03*
X010974Y007212D03*
X010974Y007218D03*
X010980Y007231D03*
X010980Y007237D03*
X010980Y007243D03*
X010980Y007250D03*
X010986Y007256D03*
X010986Y007262D03*
X010986Y007269D03*
X010986Y007275D03*
X010993Y007288D03*
X010993Y007294D03*
X010993Y007300D03*
X010993Y007306D03*
X010999Y007319D03*
X010999Y007325D03*
X010999Y007332D03*
X010999Y007338D03*
X011005Y007351D03*
X011005Y007357D03*
X011005Y007363D03*
X011005Y007369D03*
X011012Y007376D03*
X011012Y007382D03*
X011012Y007388D03*
X011012Y007395D03*
X011018Y007407D03*
X011018Y007414D03*
X011018Y007420D03*
X011018Y007426D03*
X011024Y007439D03*
X011024Y007445D03*
X011024Y007451D03*
X011024Y007458D03*
X011031Y007470D03*
X011031Y007477D03*
X011031Y007483D03*
X011037Y007495D03*
X011037Y007502D03*
X011037Y007508D03*
X011037Y007514D03*
X011043Y007527D03*
X011043Y007533D03*
X011043Y007540D03*
X011043Y007546D03*
X011050Y007558D03*
X011050Y007565D03*
X011050Y007571D03*
X011050Y007577D03*
X011056Y007584D03*
X011056Y007590D03*
X011056Y007596D03*
X011056Y007603D03*
X011062Y007615D03*
X011062Y007621D03*
X011062Y007628D03*
X011062Y007634D03*
X011068Y007647D03*
X011068Y007653D03*
X011068Y007659D03*
X011068Y007666D03*
X011075Y007678D03*
X011075Y007684D03*
X011075Y007691D03*
X011075Y007697D03*
X011081Y007703D03*
X011081Y007710D03*
X011081Y007716D03*
X011081Y007722D03*
X011087Y007735D03*
X011087Y007741D03*
X011087Y007747D03*
X011087Y007754D03*
X011094Y007766D03*
X011094Y007773D03*
X011094Y007779D03*
X011094Y007785D03*
X011100Y007798D03*
X011100Y007804D03*
X011100Y007810D03*
X011106Y007823D03*
X011106Y007829D03*
X011106Y007836D03*
X011106Y007842D03*
X011113Y007855D03*
X011113Y007861D03*
X011113Y007867D03*
X011113Y007873D03*
X011119Y007886D03*
X011119Y007892D03*
X011119Y007899D03*
X011119Y007905D03*
X011125Y007911D03*
X011125Y007918D03*
X011125Y007924D03*
X011125Y007930D03*
X011131Y007943D03*
X011131Y007949D03*
X011131Y007955D03*
X011131Y007962D03*
X012530Y007672D03*
X012530Y007666D03*
X012530Y007659D03*
X012524Y007640D03*
X012524Y007634D03*
X012524Y007628D03*
X012517Y007615D03*
X012517Y007609D03*
X012517Y007603D03*
X012511Y007584D03*
X012511Y007577D03*
X012511Y007571D03*
X012505Y007552D03*
X012505Y007546D03*
X012505Y007540D03*
X012499Y007521D03*
X012499Y007514D03*
X012499Y007508D03*
X012492Y007489D03*
X012492Y007483D03*
X012492Y007477D03*
X012486Y007458D03*
X012486Y007451D03*
X012486Y007445D03*
X012480Y007426D03*
X012480Y007420D03*
X012480Y007414D03*
X012473Y007395D03*
X012473Y007388D03*
X012473Y007382D03*
X012467Y007369D03*
X012467Y007363D03*
X012467Y007357D03*
X012461Y007338D03*
X012461Y007332D03*
X012461Y007325D03*
X012454Y007306D03*
X012454Y007300D03*
X012454Y007294D03*
X012448Y007275D03*
X012448Y007269D03*
X012448Y007262D03*
X012442Y007243D03*
X012442Y007237D03*
X012442Y007231D03*
X012436Y007212D03*
X012436Y007206D03*
X012436Y007199D03*
X012429Y007180D03*
X012429Y007174D03*
X012429Y007168D03*
X012423Y007149D03*
X012423Y007143D03*
X012423Y007136D03*
X012417Y007124D03*
X012417Y007117D03*
X012417Y007111D03*
X012410Y007092D03*
X012410Y007086D03*
X012410Y007080D03*
X012404Y007061D03*
X012404Y007054D03*
X012404Y007048D03*
X012398Y007029D03*
X012398Y007023D03*
X012398Y007017D03*
X012391Y006998D03*
X012391Y006991D03*
X012391Y006985D03*
X012385Y006966D03*
X012385Y006960D03*
X012385Y006954D03*
X012379Y006935D03*
X012379Y006928D03*
X012379Y006922D03*
X012373Y006903D03*
X012373Y006897D03*
X012373Y006891D03*
X012366Y006878D03*
X012366Y006872D03*
X012366Y006865D03*
X012360Y006847D03*
X012360Y006840D03*
X012360Y006834D03*
X012354Y006815D03*
X012354Y006809D03*
X012354Y006802D03*
X012347Y006784D03*
X012347Y006777D03*
X012347Y006771D03*
X012341Y006752D03*
X012341Y006746D03*
X012341Y006739D03*
X012335Y006721D03*
X012335Y006714D03*
X012335Y006708D03*
X012328Y006689D03*
X012328Y006683D03*
X012328Y006676D03*
X012322Y006658D03*
X012322Y006651D03*
X012322Y006645D03*
X012316Y006632D03*
X012316Y006626D03*
X012316Y006620D03*
X012310Y006601D03*
X012310Y006595D03*
X012310Y006588D03*
X012303Y006569D03*
X012303Y006563D03*
X012303Y006557D03*
X012297Y006538D03*
X012297Y006532D03*
X012297Y006525D03*
X012291Y006506D03*
X012291Y006500D03*
X012291Y006494D03*
X012284Y006475D03*
X012284Y006469D03*
X012284Y006462D03*
X012278Y006443D03*
X012278Y006437D03*
X012278Y006431D03*
X012272Y006412D03*
X012272Y006406D03*
X012272Y006399D03*
X012265Y006387D03*
X012265Y006380D03*
X012265Y006374D03*
X012259Y006355D03*
X012259Y006349D03*
X012259Y006343D03*
X012253Y006324D03*
X012253Y006317D03*
X012253Y006311D03*
X012246Y006292D03*
X012246Y006286D03*
X012246Y006280D03*
X012240Y006261D03*
X012240Y006254D03*
X012240Y006248D03*
X012234Y006229D03*
X012234Y006223D03*
X012234Y006217D03*
X012228Y006198D03*
X012228Y006191D03*
X012228Y006185D03*
X012221Y006166D03*
X012221Y006160D03*
X012221Y006154D03*
X012215Y006141D03*
X012215Y006135D03*
X012215Y006128D03*
X012209Y006109D03*
X012209Y006103D03*
X012209Y006097D03*
X012202Y006078D03*
X012202Y006072D03*
X012202Y006065D03*
X012196Y006053D03*
X012196Y006046D03*
X013280Y005744D03*
X013280Y005738D03*
X013280Y005731D03*
X013280Y005725D03*
X013273Y005713D03*
X013273Y005706D03*
X013273Y005700D03*
X013273Y005694D03*
X013267Y005681D03*
X013267Y005675D03*
X013267Y005668D03*
X013261Y005650D03*
X013261Y005643D03*
X013261Y005637D03*
X013255Y005618D03*
X013255Y005612D03*
X013255Y005605D03*
X013248Y005587D03*
X013248Y005580D03*
X013248Y005574D03*
X013242Y005561D03*
X013242Y005555D03*
X013242Y005549D03*
X013242Y005542D03*
X013236Y005530D03*
X013236Y005524D03*
X013236Y005517D03*
X013236Y005511D03*
X013229Y005498D03*
X013229Y005492D03*
X013229Y005486D03*
X013223Y005467D03*
X013223Y005461D03*
X013223Y005454D03*
X013217Y005435D03*
X013217Y005429D03*
X013217Y005423D03*
X013210Y005410D03*
X013210Y005404D03*
X013210Y005398D03*
X013210Y005391D03*
X013204Y005379D03*
X013204Y005372D03*
X013204Y005366D03*
X013204Y005360D03*
X013198Y005347D03*
X013198Y005341D03*
X013198Y005335D03*
X013191Y005316D03*
X013191Y005309D03*
X013191Y005303D03*
X013185Y005284D03*
X013185Y005278D03*
X013185Y005272D03*
X013179Y005253D03*
X013179Y005246D03*
X013179Y005240D03*
X013173Y005227D03*
X013173Y005221D03*
X013173Y005215D03*
X013173Y005209D03*
X013166Y005196D03*
X013166Y005190D03*
X013166Y005183D03*
X013286Y005757D03*
X013286Y005763D03*
X013286Y005769D03*
X013292Y005788D03*
X013292Y005794D03*
X013292Y005801D03*
X013299Y005820D03*
X013299Y005826D03*
X013299Y005832D03*
X013305Y005845D03*
X013305Y005851D03*
X013305Y005857D03*
X013305Y005864D03*
X013311Y005876D03*
X013311Y005883D03*
X013311Y005889D03*
X013311Y005895D03*
X013318Y005908D03*
X013318Y005914D03*
X013318Y005920D03*
X013324Y005939D03*
X013324Y005946D03*
X013324Y005952D03*
X013330Y005971D03*
X013330Y005977D03*
X013330Y005983D03*
X013336Y006002D03*
X013336Y006009D03*
X013336Y006015D03*
X013343Y006028D03*
X013343Y006034D03*
X013343Y006040D03*
X013343Y006046D03*
X013349Y006059D03*
X013349Y006065D03*
X013349Y006072D03*
X013349Y006078D03*
X013355Y006091D03*
X013355Y006097D03*
X013355Y006103D03*
X013362Y006122D03*
X013362Y006128D03*
X013362Y006135D03*
X013368Y006154D03*
X013368Y006160D03*
X013368Y006166D03*
X013374Y006179D03*
X013374Y006185D03*
X013374Y006191D03*
X013374Y006198D03*
X013381Y006210D03*
X013381Y006217D03*
X013381Y006223D03*
X013381Y006229D03*
X013387Y006242D03*
X013387Y006248D03*
X013387Y006254D03*
X013393Y006273D03*
X013393Y006280D03*
X013393Y006286D03*
X013399Y006305D03*
X013399Y006311D03*
X013399Y006317D03*
X013406Y006336D03*
X013406Y006343D03*
X013406Y006349D03*
X013412Y006361D03*
X013412Y006368D03*
X013412Y006374D03*
X013412Y006380D03*
X013418Y006393D03*
X013418Y006399D03*
X013418Y006406D03*
X013418Y006412D03*
X013425Y006424D03*
X013425Y006431D03*
X013425Y006437D03*
X013431Y006456D03*
X013431Y006462D03*
X013431Y006469D03*
X013437Y006487D03*
X013437Y006494D03*
X013437Y006500D03*
X013444Y006513D03*
X013444Y006519D03*
X013444Y006525D03*
X013444Y006532D03*
X013450Y006544D03*
X013450Y006550D03*
X013450Y006557D03*
X013450Y006563D03*
X013456Y006576D03*
X013456Y006582D03*
X013456Y006588D03*
X013462Y006607D03*
X013462Y006613D03*
X013462Y006620D03*
X013469Y006639D03*
X013469Y006645D03*
X013469Y006651D03*
X013475Y006670D03*
X013475Y006676D03*
X013475Y006683D03*
X013481Y006695D03*
X013481Y006702D03*
X013481Y006708D03*
X013481Y006714D03*
X013488Y006727D03*
X013488Y006733D03*
X013488Y006739D03*
X013488Y006746D03*
X013494Y006758D03*
X013494Y006765D03*
X013494Y006771D03*
X013500Y006790D03*
X013500Y006796D03*
X013500Y006802D03*
X013506Y006821D03*
X013506Y006828D03*
X013506Y006834D03*
X013513Y006847D03*
X013513Y006853D03*
X013513Y006859D03*
X013513Y006865D03*
X013519Y006878D03*
X013519Y006884D03*
X013519Y006891D03*
X013519Y006897D03*
X013525Y006910D03*
X013525Y006916D03*
X013525Y006922D03*
X013532Y006941D03*
X013532Y006947D03*
X013532Y006954D03*
X013538Y006973D03*
X013538Y006979D03*
X013538Y006985D03*
X013544Y007004D03*
X013544Y007010D03*
X013544Y007017D03*
X013551Y007029D03*
X013551Y007036D03*
X013551Y007042D03*
X013551Y007048D03*
X013557Y007061D03*
X013557Y007067D03*
X013557Y007073D03*
X013557Y007080D03*
X013563Y007092D03*
X013563Y007099D03*
X013563Y007105D03*
X013570Y007124D03*
X013570Y007130D03*
X013570Y007136D03*
X013576Y007155D03*
X013576Y007162D03*
X013576Y007168D03*
X013582Y007180D03*
X013582Y007187D03*
X013582Y007193D03*
X013582Y007199D03*
X013588Y007212D03*
X013588Y007218D03*
X013588Y007225D03*
X013588Y007231D03*
X013595Y007243D03*
X013595Y007250D03*
X013595Y007256D03*
X013601Y007275D03*
X013601Y007281D03*
X013601Y007288D03*
X013607Y007306D03*
X013607Y007313D03*
X013607Y007319D03*
X013614Y007338D03*
X013614Y007344D03*
X013614Y007351D03*
X013620Y007363D03*
X013620Y007369D03*
X013620Y007376D03*
X013620Y007382D03*
X013626Y007395D03*
X013626Y007401D03*
X013626Y007407D03*
X013626Y007414D03*
X013633Y007426D03*
X013633Y007432D03*
X013633Y007439D03*
X013639Y007458D03*
X013639Y007464D03*
X013639Y007470D03*
X013645Y007489D03*
X013645Y007495D03*
X013645Y007502D03*
X013651Y007514D03*
X013651Y007521D03*
X013651Y007527D03*
X013651Y007533D03*
X013658Y007546D03*
X013658Y007552D03*
X013658Y007558D03*
X013658Y007565D03*
X013664Y007577D03*
X013664Y007584D03*
X013664Y007590D03*
X013670Y007609D03*
X013670Y007615D03*
X013670Y007621D03*
X013677Y007640D03*
X013677Y007647D03*
X013677Y007653D03*
X013683Y007672D03*
X013683Y007678D03*
X013683Y007684D03*
X013689Y007697D03*
X013689Y007703D03*
X013689Y007710D03*
X013689Y007716D03*
X013696Y007729D03*
X013696Y007735D03*
X013696Y007741D03*
X013696Y007747D03*
X013702Y007760D03*
X013702Y007766D03*
X013702Y007773D03*
X013708Y007792D03*
X013708Y007798D03*
X013708Y007804D03*
X013714Y007823D03*
X013714Y007829D03*
X013714Y007836D03*
X013721Y007848D03*
X013721Y007855D03*
X013721Y007861D03*
X013721Y007867D03*
X013727Y007880D03*
X013727Y007886D03*
X013727Y007892D03*
X013727Y007899D03*
X013733Y007911D03*
X013733Y007918D03*
X013733Y007924D03*
X013740Y007943D03*
X013740Y007949D03*
X013740Y007955D03*
X013746Y007974D03*
X013746Y007981D03*
X013746Y007987D03*
X013752Y008006D03*
X013752Y008012D03*
X013752Y008018D03*
X013759Y008031D03*
X013759Y008037D03*
X013759Y008044D03*
X013759Y008050D03*
X013765Y008062D03*
X013765Y008069D03*
X013765Y008075D03*
X013771Y008094D03*
X013771Y008100D03*
X013771Y008107D03*
X013777Y008125D03*
X013777Y008132D03*
X013777Y008138D03*
X013784Y008157D03*
X013784Y008163D03*
X013784Y008170D03*
X013790Y008182D03*
X013790Y008188D03*
X013790Y008195D03*
X013790Y008201D03*
X013796Y008214D03*
X013796Y008220D03*
X013796Y008226D03*
X013796Y008233D03*
X013803Y008245D03*
X013803Y008251D03*
X013803Y008258D03*
X013809Y008277D03*
X013809Y008283D03*
X013809Y008289D03*
X013815Y008308D03*
X013815Y008314D03*
X013815Y008321D03*
X013821Y008340D03*
X013821Y008346D03*
X013821Y008352D03*
X013828Y008371D03*
X013828Y008377D03*
X013828Y008384D03*
X013607Y008837D03*
X012675Y008377D03*
X012675Y008371D03*
X012669Y008352D03*
X012669Y008346D03*
X012669Y008340D03*
X012662Y008321D03*
X012662Y008314D03*
X012662Y008308D03*
X012656Y008289D03*
X012656Y008283D03*
X012656Y008277D03*
X012650Y008258D03*
X012650Y008251D03*
X012650Y008245D03*
X012643Y008226D03*
X012643Y008220D03*
X012643Y008214D03*
X012637Y008195D03*
X012637Y008188D03*
X012637Y008182D03*
X012631Y008163D03*
X012631Y008157D03*
X012631Y008151D03*
X012625Y008132D03*
X012625Y008125D03*
X012625Y008119D03*
X012618Y008107D03*
X012618Y008100D03*
X012618Y008094D03*
X012612Y008075D03*
X012612Y008069D03*
X012612Y008062D03*
X012606Y008044D03*
X012606Y008037D03*
X012606Y008031D03*
X012599Y008012D03*
X012599Y008006D03*
X012599Y007999D03*
X012593Y007981D03*
X012593Y007974D03*
X012593Y007968D03*
X012587Y007949D03*
X012587Y007943D03*
X012587Y007936D03*
X012580Y007918D03*
X012580Y007911D03*
X012580Y007905D03*
X012574Y007886D03*
X012574Y007880D03*
X012574Y007873D03*
X012568Y007861D03*
X012568Y007855D03*
X012568Y007848D03*
X012561Y007829D03*
X012561Y007823D03*
X012561Y007817D03*
X012555Y007798D03*
X012555Y007792D03*
X012555Y007785D03*
X012549Y007766D03*
X012549Y007760D03*
X012549Y007754D03*
X012543Y007735D03*
X012543Y007729D03*
X012543Y007722D03*
X012536Y007703D03*
X012536Y007697D03*
X012536Y007691D03*
X016260Y006588D03*
X016260Y006582D03*
X016253Y006563D03*
X016253Y006557D03*
X016253Y006550D03*
X016247Y006532D03*
X016247Y006525D03*
X016247Y006519D03*
X016241Y006500D03*
X016241Y006494D03*
X016241Y006487D03*
X016234Y006469D03*
X016234Y006462D03*
X016234Y006456D03*
X016228Y006437D03*
X016228Y006431D03*
X016228Y006424D03*
X016222Y006406D03*
X016222Y006399D03*
X016222Y006393D03*
X016216Y006374D03*
X016216Y006368D03*
X016216Y006361D03*
X016209Y006343D03*
X016209Y006336D03*
X016203Y006317D03*
X016203Y006311D03*
X016203Y006305D03*
X016197Y006286D03*
X016197Y006280D03*
X016197Y006273D03*
X016190Y006254D03*
X016190Y006248D03*
X016190Y006242D03*
X016184Y006223D03*
X016184Y006217D03*
X016184Y006210D03*
X016178Y006191D03*
X016178Y006185D03*
X016178Y006179D03*
X016171Y006160D03*
X016171Y006154D03*
X016171Y006147D03*
X016165Y006128D03*
X016165Y006122D03*
X016165Y006116D03*
X016159Y006097D03*
X016159Y006091D03*
X016153Y006072D03*
X016153Y006065D03*
X016153Y006059D03*
X016146Y006040D03*
X016146Y006034D03*
X016146Y006028D03*
X016140Y006009D03*
X016140Y006002D03*
X016140Y005996D03*
X016134Y005977D03*
X016134Y005971D03*
X016134Y005965D03*
X016127Y005946D03*
X016127Y005939D03*
X016127Y005933D03*
X016121Y005914D03*
X016121Y005908D03*
X016121Y005902D03*
X016115Y005883D03*
X016115Y005876D03*
X016115Y005870D03*
X016108Y005857D03*
X016108Y005851D03*
X016108Y005845D03*
X016102Y005826D03*
X016102Y005820D03*
X016102Y005813D03*
X016096Y005794D03*
X016096Y005788D03*
X016096Y005782D03*
X016090Y005763D03*
X016090Y005757D03*
X016090Y005750D03*
X016083Y005731D03*
X016083Y005725D03*
X016083Y005719D03*
X016077Y005700D03*
X016077Y005694D03*
X016077Y005687D03*
X016071Y005668D03*
X016071Y005662D03*
X016071Y005656D03*
X016064Y005637D03*
X016064Y005631D03*
X016064Y005624D03*
X016058Y005612D03*
X016058Y005605D03*
X016058Y005599D03*
X016052Y005580D03*
X016052Y005574D03*
X016052Y005568D03*
X016045Y005549D03*
X016045Y005542D03*
X016045Y005536D03*
X016039Y005517D03*
X016039Y005511D03*
X016039Y005505D03*
X016033Y005486D03*
X016033Y005479D03*
X016033Y005473D03*
X016026Y005454D03*
X016026Y005448D03*
X016026Y005442D03*
X016020Y005423D03*
X016020Y005416D03*
X016020Y005410D03*
X016014Y005391D03*
X016014Y005385D03*
X016014Y005379D03*
X016008Y005366D03*
X016008Y005360D03*
X016008Y005353D03*
X016001Y005335D03*
X016001Y005328D03*
X016001Y005322D03*
X015995Y005303D03*
X015995Y005297D03*
X015995Y005290D03*
X015989Y005272D03*
X015989Y005265D03*
X015989Y005259D03*
X015982Y005240D03*
X015982Y005234D03*
X015982Y005227D03*
X015976Y005209D03*
X015976Y005202D03*
X015976Y005196D03*
X015976Y005183D03*
X014773Y004761D03*
X017343Y004793D03*
X017350Y004805D03*
X017350Y004812D03*
X017350Y004818D03*
X017356Y004831D03*
X017356Y004837D03*
X017356Y004843D03*
X017362Y004856D03*
X017362Y004862D03*
X017362Y004868D03*
X017362Y004875D03*
X017368Y004887D03*
X017368Y004894D03*
X017368Y004900D03*
X017368Y004906D03*
X017375Y004919D03*
X017375Y004925D03*
X017375Y004931D03*
X017375Y004938D03*
X017381Y004944D03*
X017381Y004950D03*
X017381Y004957D03*
X017381Y004963D03*
X017387Y004975D03*
X017387Y004982D03*
X017387Y004988D03*
X017387Y004994D03*
X017394Y005007D03*
X017394Y005013D03*
X017394Y005020D03*
X017394Y005026D03*
X017400Y005038D03*
X017400Y005045D03*
X017400Y005051D03*
X017400Y005057D03*
X017406Y005064D03*
X017406Y005070D03*
X017406Y005076D03*
X017406Y005083D03*
X017413Y005095D03*
X017413Y005101D03*
X017413Y005108D03*
X017413Y005114D03*
X017419Y005127D03*
X017419Y005133D03*
X017419Y005139D03*
X017419Y005146D03*
X017425Y005158D03*
X017425Y005164D03*
X017425Y005171D03*
X017431Y005183D03*
X017431Y005190D03*
X017431Y005196D03*
X017431Y005202D03*
X017438Y005215D03*
X017438Y005221D03*
X017438Y005227D03*
X017438Y005234D03*
X017444Y005246D03*
X017444Y005253D03*
X017444Y005259D03*
X017444Y005265D03*
X017450Y005272D03*
X017450Y005278D03*
X017450Y005284D03*
X017450Y005290D03*
X017457Y005303D03*
X017457Y005309D03*
X017457Y005316D03*
X017457Y005322D03*
X017463Y005335D03*
X017463Y005341D03*
X017463Y005347D03*
X017463Y005353D03*
X017469Y005366D03*
X017469Y005372D03*
X017469Y005379D03*
X017469Y005385D03*
X017476Y005391D03*
X017476Y005398D03*
X017476Y005404D03*
X017476Y005410D03*
X017482Y005423D03*
X017482Y005429D03*
X017482Y005435D03*
X017482Y005442D03*
X017488Y005454D03*
X017488Y005461D03*
X017488Y005467D03*
X017488Y005473D03*
X017494Y005486D03*
X017494Y005492D03*
X017494Y005498D03*
X017501Y005511D03*
X017501Y005517D03*
X017501Y005524D03*
X017501Y005530D03*
X017507Y005542D03*
X017507Y005549D03*
X017507Y005555D03*
X017507Y005561D03*
X017513Y005574D03*
X017513Y005580D03*
X017513Y005587D03*
X017513Y005593D03*
X017520Y005605D03*
X017520Y005612D03*
X017520Y005618D03*
X017526Y005631D03*
X017526Y005637D03*
X017526Y005643D03*
X017526Y005650D03*
X017532Y005662D03*
X017532Y005668D03*
X017532Y005675D03*
X017532Y005681D03*
X017539Y005694D03*
X017539Y005700D03*
X017539Y005706D03*
X017539Y005713D03*
X017545Y005719D03*
X017545Y005725D03*
X017545Y005731D03*
X017545Y005738D03*
X017551Y005750D03*
X017551Y005757D03*
X017551Y005763D03*
X017551Y005769D03*
X017557Y005782D03*
X017557Y005788D03*
X017557Y005794D03*
X017557Y005801D03*
X017564Y005813D03*
X017564Y005820D03*
X017564Y005826D03*
X017570Y005839D03*
X017570Y005845D03*
X017570Y005851D03*
X017570Y005857D03*
X017576Y005870D03*
X017576Y005876D03*
X017576Y005883D03*
X017576Y005889D03*
X017583Y005902D03*
X017583Y005908D03*
X017583Y005914D03*
X017583Y005920D03*
X017589Y005933D03*
X017589Y005939D03*
X017589Y005946D03*
X017595Y005958D03*
X017595Y005965D03*
X017595Y005971D03*
X017595Y005977D03*
X017601Y005990D03*
X017601Y005996D03*
X017601Y006002D03*
X017601Y006009D03*
X017608Y006021D03*
X017608Y006028D03*
X017608Y006034D03*
X017608Y006040D03*
X017614Y006046D03*
X017614Y006053D03*
X017614Y006059D03*
X017614Y006065D03*
X017620Y006078D03*
X017620Y006084D03*
X017620Y006091D03*
X017620Y006097D03*
X017627Y006109D03*
X017627Y006116D03*
X017627Y006122D03*
X017627Y006128D03*
X017633Y006141D03*
X017633Y006147D03*
X017633Y006154D03*
X017639Y006166D03*
X017639Y006172D03*
X017639Y006179D03*
X017639Y006185D03*
X017646Y006198D03*
X017646Y006204D03*
X017646Y006210D03*
X017646Y006217D03*
X017652Y006229D03*
X017652Y006235D03*
X017652Y006242D03*
X017652Y006248D03*
X017658Y006261D03*
X017658Y006267D03*
X017658Y006273D03*
X017665Y006286D03*
X017665Y006292D03*
X017665Y006298D03*
X017665Y006305D03*
X017671Y006317D03*
X017671Y006324D03*
X017671Y006330D03*
X017671Y006336D03*
X017677Y006349D03*
X017677Y006355D03*
X017677Y006361D03*
X017677Y006368D03*
X017683Y006374D03*
X017683Y006380D03*
X017683Y006387D03*
X017683Y006393D03*
X017690Y006406D03*
X017690Y006412D03*
X017690Y006418D03*
X017690Y006424D03*
X017696Y006437D03*
X017696Y006443D03*
X017696Y006450D03*
X017696Y006456D03*
X017702Y006469D03*
X017702Y006475D03*
X017702Y006481D03*
X017709Y006494D03*
X017709Y006500D03*
X017709Y006506D03*
X017709Y006513D03*
X017715Y006525D03*
X017715Y006532D03*
X017715Y006538D03*
X017715Y006544D03*
X017721Y006557D03*
X017721Y006563D03*
X017721Y006569D03*
X017721Y006576D03*
X017728Y006588D03*
X017728Y006595D03*
X017728Y006601D03*
X017734Y006613D03*
X017734Y006620D03*
X017734Y006626D03*
X017734Y006632D03*
X017740Y006645D03*
X017740Y006651D03*
X017740Y006658D03*
X017740Y006664D03*
X017746Y006676D03*
X017746Y006683D03*
X017746Y006689D03*
X017746Y006695D03*
X017753Y006702D03*
X017753Y006708D03*
X017753Y006714D03*
X017753Y006721D03*
X017759Y006733D03*
X017759Y006739D03*
X017759Y006746D03*
X017759Y006752D03*
X017765Y006765D03*
X017765Y006771D03*
X017765Y006777D03*
X017765Y006784D03*
X017772Y006796D03*
X017772Y006802D03*
X017772Y006809D03*
X017778Y006821D03*
X017778Y006828D03*
X017778Y006834D03*
X017778Y006840D03*
X017784Y006853D03*
X017784Y006859D03*
X017784Y006865D03*
X017784Y006872D03*
X017791Y006884D03*
X017791Y006891D03*
X017791Y006897D03*
X017791Y006903D03*
X017797Y006916D03*
X017797Y006922D03*
X017797Y006928D03*
X017803Y006941D03*
X017803Y006947D03*
X017803Y006954D03*
X017803Y006960D03*
X017809Y006973D03*
X017809Y006979D03*
X017809Y006985D03*
X017809Y006991D03*
X017816Y007004D03*
X017816Y007010D03*
X017816Y007017D03*
X017816Y007023D03*
X017822Y007029D03*
X017822Y007036D03*
X017822Y007042D03*
X017822Y007048D03*
X017828Y007061D03*
X017828Y007067D03*
X017828Y007073D03*
X017828Y007080D03*
X017835Y007092D03*
X017835Y007099D03*
X017835Y007105D03*
X017835Y007111D03*
X017841Y007124D03*
X017841Y007130D03*
X017841Y007136D03*
X017847Y007149D03*
X017847Y007155D03*
X017847Y007162D03*
X017847Y007168D03*
X017854Y007180D03*
X017854Y007187D03*
X017854Y007193D03*
X017854Y007199D03*
X017860Y007212D03*
X017860Y007218D03*
X017860Y007225D03*
X017860Y007231D03*
X017866Y007243D03*
X017866Y007250D03*
X017866Y007256D03*
X017872Y007269D03*
X017872Y007275D03*
X017872Y007281D03*
X017872Y007288D03*
X017879Y007300D03*
X017879Y007306D03*
X017879Y007313D03*
X017879Y007319D03*
X017885Y007332D03*
X017885Y007338D03*
X017885Y007344D03*
X017885Y007351D03*
X017891Y007357D03*
X017891Y007363D03*
X017891Y007369D03*
X017891Y007376D03*
X017898Y007388D03*
X017898Y007395D03*
X017898Y007401D03*
X017898Y007407D03*
X017904Y007420D03*
X017904Y007426D03*
X017904Y007432D03*
X017904Y007439D03*
X017910Y007451D03*
X017910Y007458D03*
X017910Y007464D03*
X017916Y007477D03*
X017916Y007483D03*
X017916Y007489D03*
X017916Y007495D03*
X017923Y007508D03*
X017923Y007514D03*
X017923Y007521D03*
X017923Y007527D03*
X017929Y007540D03*
X017929Y007546D03*
X017929Y007552D03*
X017929Y007558D03*
X017935Y007571D03*
X017935Y007577D03*
X017935Y007584D03*
X017942Y007596D03*
X017942Y007603D03*
X017942Y007609D03*
X017942Y007615D03*
X017948Y007628D03*
X017948Y007634D03*
X017948Y007640D03*
X017948Y007647D03*
X017954Y007659D03*
X017954Y007666D03*
X017954Y007672D03*
X017954Y007678D03*
X017961Y007684D03*
X017961Y007691D03*
X017961Y007697D03*
X017961Y007703D03*
X017967Y007716D03*
X017967Y007722D03*
X017967Y007729D03*
X017967Y007735D03*
X017973Y007747D03*
X017973Y007754D03*
X017973Y007760D03*
X017973Y007766D03*
X017980Y007779D03*
X017980Y007785D03*
X017980Y007792D03*
X017986Y007804D03*
X017986Y007810D03*
X017986Y007817D03*
X017986Y007823D03*
X017992Y007836D03*
X017992Y007842D03*
X017992Y007848D03*
X017992Y007855D03*
X017998Y007867D03*
X017998Y007873D03*
X017998Y007880D03*
X017998Y007886D03*
X018005Y007899D03*
X018005Y007905D03*
X018005Y007911D03*
X018011Y007924D03*
X018011Y007930D03*
X018011Y007936D03*
X018011Y007943D03*
X018017Y007955D03*
X018017Y007962D03*
X018017Y007968D03*
X018017Y007974D03*
X018024Y007987D03*
X018024Y007993D03*
X018024Y007999D03*
X018024Y008006D03*
X018030Y008012D03*
X018030Y008018D03*
X018030Y008025D03*
X018030Y008031D03*
X018036Y008044D03*
X018036Y008050D03*
X018036Y008056D03*
X018036Y008062D03*
X018043Y008075D03*
X018043Y008081D03*
X018043Y008088D03*
X018043Y008094D03*
X018049Y008107D03*
X018049Y008113D03*
X018049Y008119D03*
X018049Y008125D03*
X018055Y008132D03*
X018055Y008138D03*
X018055Y008144D03*
X018055Y008151D03*
X018061Y008163D03*
X018061Y008170D03*
X018061Y008176D03*
X018061Y008182D03*
X018068Y008195D03*
X018068Y008201D03*
X018068Y008207D03*
X018068Y008214D03*
X018074Y008226D03*
X018074Y008233D03*
X018074Y008239D03*
X018080Y008251D03*
X018080Y008258D03*
X018080Y008264D03*
X018080Y008270D03*
X018087Y008283D03*
X018087Y008289D03*
X018087Y008296D03*
X018087Y008302D03*
X018093Y008314D03*
X018093Y008321D03*
X018093Y008327D03*
X018093Y008333D03*
X018099Y008340D03*
X018099Y008346D03*
X018099Y008352D03*
X018099Y008359D03*
X018106Y008377D03*
X018106Y008384D03*
X018106Y008390D03*
X016285Y006714D03*
X016285Y006708D03*
X016285Y006702D03*
X016279Y006683D03*
X016279Y006676D03*
X016279Y006670D03*
X016272Y006651D03*
X016272Y006645D03*
X016272Y006639D03*
X016266Y006620D03*
X016266Y006613D03*
X016266Y006607D03*
X011824Y004761D03*
X008466Y007672D03*
X008466Y007678D03*
X008466Y007684D03*
X008473Y007703D03*
X008473Y007710D03*
X008473Y007716D03*
X008479Y007729D03*
X008479Y007735D03*
X008479Y007741D03*
X008479Y007747D03*
X008485Y007760D03*
X008485Y007766D03*
X008485Y007773D03*
X008485Y007779D03*
X008492Y007792D03*
X008492Y007798D03*
X008492Y007804D03*
X008498Y007823D03*
X008498Y007829D03*
X008498Y007836D03*
X008504Y007855D03*
X008504Y007861D03*
X008504Y007867D03*
X008511Y007880D03*
X008511Y007886D03*
X008511Y007892D03*
X008511Y007899D03*
X008517Y007911D03*
X008517Y007918D03*
X008517Y007924D03*
X008517Y007930D03*
X008523Y007943D03*
X008523Y007949D03*
X008523Y007955D03*
X008530Y007974D03*
X008530Y007981D03*
X008530Y007987D03*
X008536Y008006D03*
X008536Y008012D03*
X008536Y008018D03*
X008542Y008037D03*
X008542Y008044D03*
X008542Y008050D03*
X008548Y008062D03*
X008548Y008069D03*
X008548Y008075D03*
X008548Y008081D03*
X008555Y008094D03*
X008555Y008100D03*
X008555Y008107D03*
X008555Y008113D03*
X008561Y008125D03*
X008561Y008132D03*
X008561Y008138D03*
X008567Y008157D03*
X008567Y008163D03*
X008567Y008170D03*
X008574Y008188D03*
X008574Y008195D03*
X008574Y008201D03*
X008580Y008214D03*
X008580Y008220D03*
X008580Y008226D03*
X008580Y008233D03*
X008586Y008245D03*
X008586Y008251D03*
X008586Y008258D03*
X008586Y008264D03*
X008593Y008277D03*
X008593Y008283D03*
X008593Y008289D03*
X008599Y008308D03*
X008599Y008314D03*
X008599Y008321D03*
X008605Y008340D03*
X008605Y008346D03*
X008605Y008352D03*
X008611Y008371D03*
X008611Y008377D03*
X008611Y008384D03*
X008391Y008837D03*
D173*
X009878Y004768D03*
X012505Y004761D03*
X015308Y004761D03*
X016159Y008491D03*
D174*
X012180Y006009D03*
X009308Y004768D03*
X017327Y004761D03*
X017334Y004768D03*
D175*
X015305Y004768D03*
X012502Y004768D03*
X007285Y004768D03*
X016156Y008497D03*
D176*
X018046Y008100D03*
X018039Y008069D03*
X018033Y008037D03*
X018020Y007981D03*
X018014Y007949D03*
X018008Y007918D03*
X018002Y007892D03*
X017995Y007861D03*
X017989Y007829D03*
X017976Y007773D03*
X017970Y007741D03*
X017964Y007710D03*
X017951Y007653D03*
X017945Y007621D03*
X017939Y007590D03*
X017932Y007565D03*
X017926Y007533D03*
X017920Y007502D03*
X017913Y007470D03*
X017907Y007445D03*
X017901Y007414D03*
X017882Y007325D03*
X017876Y007294D03*
X017869Y007262D03*
X017863Y007237D03*
X017857Y007206D03*
X017850Y007174D03*
X017844Y007143D03*
X017838Y007117D03*
X017831Y007086D03*
X017813Y006998D03*
X017806Y006966D03*
X017800Y006935D03*
X017794Y006910D03*
X017787Y006878D03*
X017781Y006847D03*
X017775Y006815D03*
X017768Y006790D03*
X017762Y006758D03*
X017756Y006727D03*
X017743Y006670D03*
X017731Y006607D03*
X017724Y006582D03*
X017718Y006550D03*
X017712Y006519D03*
X017705Y006487D03*
X017699Y006462D03*
X017693Y006431D03*
X017687Y006399D03*
X017674Y006343D03*
X017661Y006280D03*
X017655Y006254D03*
X017649Y006223D03*
X017642Y006191D03*
X017636Y006160D03*
X017630Y006135D03*
X017624Y006103D03*
X017617Y006072D03*
X017605Y006015D03*
X017598Y005983D03*
X017592Y005952D03*
X017586Y005927D03*
X017573Y005864D03*
X017567Y005832D03*
X017561Y005807D03*
X017554Y005776D03*
X017548Y005744D03*
X017535Y005687D03*
X017529Y005656D03*
X017523Y005624D03*
X017516Y005599D03*
X017504Y005536D03*
X017498Y005505D03*
X017491Y005479D03*
X017485Y005448D03*
X017479Y005416D03*
X017466Y005360D03*
X017460Y005328D03*
X017453Y005297D03*
X017441Y005240D03*
X017435Y005209D03*
X017428Y005177D03*
X017416Y005120D03*
X017409Y005089D03*
X017397Y005032D03*
X017390Y005001D03*
X017384Y004969D03*
X017372Y004912D03*
X017365Y004881D03*
X017359Y004849D03*
X016036Y005492D03*
X016036Y005498D03*
X016042Y005524D03*
X016042Y005530D03*
X016049Y005555D03*
X016049Y005561D03*
X016055Y005587D03*
X016055Y005593D03*
X016061Y005618D03*
X016067Y005643D03*
X016067Y005650D03*
X016074Y005675D03*
X016074Y005681D03*
X016080Y005706D03*
X016080Y005713D03*
X016086Y005738D03*
X016086Y005744D03*
X016099Y005801D03*
X016099Y005807D03*
X016105Y005832D03*
X016105Y005839D03*
X016112Y005864D03*
X016118Y005889D03*
X016118Y005895D03*
X016124Y005920D03*
X016124Y005927D03*
X016130Y005952D03*
X016130Y005958D03*
X016137Y005983D03*
X016137Y005990D03*
X016143Y006015D03*
X016143Y006021D03*
X016149Y006046D03*
X016149Y006053D03*
X016156Y006078D03*
X016156Y006084D03*
X016168Y006135D03*
X016168Y006141D03*
X016175Y006166D03*
X016175Y006172D03*
X016181Y006198D03*
X016181Y006204D03*
X016187Y006229D03*
X016187Y006235D03*
X016193Y006261D03*
X016193Y006267D03*
X016200Y006292D03*
X016200Y006298D03*
X016206Y006324D03*
X016206Y006330D03*
X016212Y006349D03*
X016212Y006355D03*
X016219Y006380D03*
X016219Y006387D03*
X016225Y006412D03*
X016225Y006418D03*
X016231Y006443D03*
X016231Y006450D03*
X016238Y006475D03*
X016238Y006481D03*
X016244Y006506D03*
X016244Y006513D03*
X016256Y006569D03*
X016256Y006576D03*
X016263Y006595D03*
X016263Y006601D03*
X016269Y006626D03*
X016269Y006632D03*
X016275Y006658D03*
X016275Y006664D03*
X016282Y006689D03*
X016282Y006695D03*
X016288Y006721D03*
X016030Y005467D03*
X016030Y005461D03*
X016023Y005435D03*
X016023Y005429D03*
X016017Y005404D03*
X016017Y005398D03*
X016011Y005372D03*
X015998Y005316D03*
X015998Y005309D03*
X015992Y005284D03*
X015992Y005278D03*
X015986Y005253D03*
X015986Y005246D03*
X015979Y005221D03*
X015979Y005215D03*
X015973Y005190D03*
X014776Y004768D03*
X013176Y005234D03*
X013182Y005259D03*
X013182Y005265D03*
X013188Y005290D03*
X013188Y005297D03*
X013195Y005322D03*
X013195Y005328D03*
X013201Y005353D03*
X013207Y005385D03*
X013214Y005416D03*
X013220Y005442D03*
X013220Y005448D03*
X013226Y005473D03*
X013226Y005479D03*
X013232Y005505D03*
X013239Y005536D03*
X013245Y005568D03*
X013251Y005593D03*
X013251Y005599D03*
X013264Y005656D03*
X013264Y005662D03*
X013270Y005687D03*
X013277Y005719D03*
X013283Y005750D03*
X013289Y005776D03*
X013289Y005782D03*
X013295Y005807D03*
X013295Y005813D03*
X013302Y005839D03*
X013308Y005870D03*
X013314Y005902D03*
X013321Y005927D03*
X013321Y005933D03*
X013333Y005990D03*
X013333Y005996D03*
X013340Y006021D03*
X013346Y006053D03*
X013352Y006084D03*
X013358Y006109D03*
X013358Y006116D03*
X013365Y006141D03*
X013365Y006147D03*
X013371Y006172D03*
X013377Y006204D03*
X013384Y006235D03*
X013390Y006261D03*
X013390Y006267D03*
X013396Y006292D03*
X013396Y006298D03*
X013403Y006324D03*
X013403Y006330D03*
X013409Y006355D03*
X013421Y006418D03*
X013428Y006443D03*
X013428Y006450D03*
X013434Y006475D03*
X013434Y006481D03*
X013440Y006506D03*
X013447Y006538D03*
X013453Y006569D03*
X013459Y006595D03*
X013459Y006601D03*
X013466Y006626D03*
X013466Y006632D03*
X013472Y006658D03*
X013472Y006664D03*
X013478Y006689D03*
X013491Y006752D03*
X013497Y006777D03*
X013497Y006784D03*
X013503Y006809D03*
X013503Y006815D03*
X013510Y006840D03*
X013516Y006872D03*
X013522Y006903D03*
X013529Y006928D03*
X013529Y006935D03*
X013535Y006960D03*
X013535Y006966D03*
X013541Y006991D03*
X013541Y006998D03*
X013547Y007023D03*
X013554Y007054D03*
X013560Y007086D03*
X013566Y007111D03*
X013566Y007117D03*
X013579Y007174D03*
X013585Y007206D03*
X013592Y007237D03*
X013598Y007262D03*
X013598Y007269D03*
X013604Y007294D03*
X013604Y007300D03*
X013610Y007325D03*
X013610Y007332D03*
X013617Y007357D03*
X013623Y007388D03*
X013629Y007420D03*
X013636Y007445D03*
X013636Y007451D03*
X013648Y007508D03*
X013655Y007540D03*
X013661Y007571D03*
X013667Y007596D03*
X013667Y007603D03*
X013673Y007628D03*
X013673Y007634D03*
X013680Y007659D03*
X013680Y007666D03*
X013686Y007691D03*
X013692Y007722D03*
X013699Y007754D03*
X013705Y007779D03*
X013705Y007785D03*
X013711Y007810D03*
X013711Y007817D03*
X013718Y007842D03*
X013724Y007873D03*
X013736Y007930D03*
X013736Y007936D03*
X013743Y007962D03*
X013743Y007968D03*
X013749Y007993D03*
X013749Y007999D03*
X013755Y008025D03*
X013762Y008056D03*
X013768Y008081D03*
X013768Y008088D03*
X013774Y008113D03*
X013774Y008119D03*
X013781Y008144D03*
X013781Y008151D03*
X013787Y008176D03*
X013793Y008207D03*
X013806Y008264D03*
X013806Y008270D03*
X013812Y008296D03*
X013812Y008302D03*
X013818Y008327D03*
X013818Y008333D03*
X013825Y008359D03*
X013825Y008365D03*
X013831Y008390D03*
X013831Y008396D03*
X013831Y008403D03*
X013831Y008409D03*
X012678Y008409D03*
X012678Y008403D03*
X012678Y008396D03*
X012678Y008390D03*
X012678Y008384D03*
X012672Y008365D03*
X012672Y008359D03*
X012665Y008333D03*
X012665Y008327D03*
X012659Y008302D03*
X012659Y008296D03*
X012653Y008270D03*
X012653Y008264D03*
X012647Y008239D03*
X012647Y008233D03*
X012640Y008207D03*
X012640Y008201D03*
X012634Y008176D03*
X012634Y008170D03*
X012621Y008113D03*
X012615Y008088D03*
X012615Y008081D03*
X012609Y008056D03*
X012609Y008050D03*
X012602Y008025D03*
X012602Y008018D03*
X012596Y007993D03*
X012596Y007987D03*
X012590Y007962D03*
X012590Y007955D03*
X012584Y007930D03*
X012584Y007924D03*
X012577Y007899D03*
X012577Y007892D03*
X012571Y007867D03*
X012565Y007842D03*
X012565Y007836D03*
X012558Y007810D03*
X012558Y007804D03*
X012552Y007779D03*
X012552Y007773D03*
X012546Y007747D03*
X012546Y007741D03*
X012533Y007684D03*
X012533Y007678D03*
X012527Y007653D03*
X012527Y007647D03*
X012521Y007621D03*
X012514Y007596D03*
X012514Y007590D03*
X012508Y007565D03*
X012508Y007558D03*
X012502Y007533D03*
X012502Y007527D03*
X012495Y007502D03*
X012495Y007495D03*
X012489Y007470D03*
X012489Y007464D03*
X012483Y007439D03*
X012483Y007432D03*
X012476Y007407D03*
X012476Y007401D03*
X012464Y007351D03*
X012464Y007344D03*
X012458Y007319D03*
X012458Y007313D03*
X012451Y007288D03*
X012451Y007281D03*
X012445Y007256D03*
X012445Y007250D03*
X012439Y007225D03*
X012439Y007218D03*
X012432Y007193D03*
X012432Y007187D03*
X012426Y007162D03*
X012426Y007155D03*
X012420Y007130D03*
X012413Y007105D03*
X012413Y007099D03*
X012407Y007073D03*
X012407Y007067D03*
X012401Y007042D03*
X012401Y007036D03*
X012395Y007010D03*
X012395Y007004D03*
X012388Y006979D03*
X012388Y006973D03*
X012376Y006916D03*
X012376Y006910D03*
X012369Y006884D03*
X012363Y006859D03*
X012363Y006853D03*
X012357Y006828D03*
X012357Y006821D03*
X012350Y006796D03*
X012350Y006790D03*
X012344Y006765D03*
X012344Y006758D03*
X012338Y006733D03*
X012338Y006727D03*
X012332Y006702D03*
X012332Y006695D03*
X012325Y006670D03*
X012325Y006664D03*
X012319Y006639D03*
X012306Y006582D03*
X012306Y006576D03*
X012300Y006550D03*
X012300Y006544D03*
X012294Y006519D03*
X012294Y006513D03*
X012287Y006487D03*
X012287Y006481D03*
X012281Y006456D03*
X012281Y006450D03*
X012275Y006424D03*
X012275Y006418D03*
X012269Y006393D03*
X012262Y006368D03*
X012262Y006361D03*
X012256Y006336D03*
X012256Y006330D03*
X012250Y006305D03*
X012250Y006298D03*
X012243Y006273D03*
X012243Y006267D03*
X012237Y006242D03*
X012237Y006235D03*
X012231Y006210D03*
X012231Y006204D03*
X012218Y006147D03*
X012212Y006122D03*
X012212Y006116D03*
X012206Y006091D03*
X012206Y006084D03*
X012199Y006059D03*
X010813Y006450D03*
X010820Y006481D03*
X010826Y006506D03*
X010832Y006538D03*
X010838Y006569D03*
X010851Y006626D03*
X010857Y006658D03*
X010864Y006689D03*
X010876Y006746D03*
X010883Y006777D03*
X010889Y006809D03*
X010901Y006865D03*
X010908Y006897D03*
X010920Y006954D03*
X010927Y006985D03*
X010933Y007017D03*
X010946Y007073D03*
X010952Y007105D03*
X010958Y007136D03*
X010971Y007193D03*
X010977Y007225D03*
X010990Y007281D03*
X010996Y007313D03*
X011002Y007344D03*
X011015Y007401D03*
X011021Y007432D03*
X011027Y007464D03*
X011034Y007489D03*
X011040Y007521D03*
X011046Y007552D03*
X011059Y007609D03*
X011065Y007640D03*
X011072Y007672D03*
X011084Y007729D03*
X011090Y007760D03*
X011097Y007792D03*
X011103Y007817D03*
X011109Y007848D03*
X011116Y007880D03*
X011128Y007936D03*
X009812Y007180D03*
X009812Y007174D03*
X009812Y007168D03*
X009812Y007162D03*
X009812Y007155D03*
X009805Y007136D03*
X009805Y007130D03*
X009805Y007124D03*
X009799Y007099D03*
X009799Y007092D03*
X009786Y007036D03*
X009786Y007029D03*
X009780Y007004D03*
X009774Y006973D03*
X009767Y006947D03*
X009767Y006941D03*
X009761Y006916D03*
X009761Y006910D03*
X009755Y006884D03*
X009755Y006878D03*
X009749Y006853D03*
X009749Y006847D03*
X009742Y006821D03*
X009736Y006790D03*
X009730Y006765D03*
X009730Y006758D03*
X009723Y006733D03*
X009723Y006727D03*
X009717Y006702D03*
X009717Y006695D03*
X009711Y006670D03*
X009711Y006664D03*
X009698Y006607D03*
X009692Y006576D03*
X009686Y006550D03*
X009686Y006544D03*
X009679Y006519D03*
X009679Y006513D03*
X009673Y006487D03*
X009673Y006481D03*
X009667Y006456D03*
X009667Y006450D03*
X009660Y006424D03*
X009654Y006393D03*
X009648Y006368D03*
X009648Y006361D03*
X009641Y006336D03*
X009641Y006330D03*
X009629Y006273D03*
X009629Y006267D03*
X009623Y006242D03*
X009616Y006210D03*
X009610Y006185D03*
X009610Y006179D03*
X009604Y006154D03*
X009604Y006147D03*
X009597Y006122D03*
X009597Y006116D03*
X009591Y006091D03*
X009591Y006084D03*
X009585Y006059D03*
X009585Y006053D03*
X009578Y006028D03*
X009572Y005996D03*
X009566Y005971D03*
X009566Y005965D03*
X009560Y005939D03*
X009560Y005933D03*
X009553Y005908D03*
X009553Y005902D03*
X009541Y005845D03*
X009534Y005813D03*
X009528Y005788D03*
X009528Y005782D03*
X009522Y005757D03*
X009522Y005750D03*
X009515Y005725D03*
X009515Y005719D03*
X009509Y005694D03*
X009509Y005687D03*
X009503Y005662D03*
X009497Y005631D03*
X009490Y005605D03*
X009490Y005599D03*
X009484Y005574D03*
X009484Y005568D03*
X009471Y005511D03*
X009471Y005505D03*
X009465Y005479D03*
X009465Y005473D03*
X009459Y005448D03*
X009452Y005416D03*
X009446Y005391D03*
X009446Y005385D03*
X009440Y005360D03*
X009440Y005353D03*
X009434Y005328D03*
X009434Y005322D03*
X009427Y005297D03*
X009427Y005290D03*
X009421Y005265D03*
X009415Y005234D03*
X009408Y005209D03*
X009408Y005202D03*
X009402Y005177D03*
X009402Y005171D03*
X009396Y005146D03*
X009396Y005139D03*
X009383Y005083D03*
X009383Y005076D03*
X009377Y005051D03*
X009371Y005020D03*
X009364Y004994D03*
X009364Y004988D03*
X009358Y004963D03*
X009358Y004957D03*
X009352Y004931D03*
X009352Y004925D03*
X009345Y004900D03*
X009345Y004894D03*
X009339Y004868D03*
X009333Y004837D03*
X009326Y004812D03*
X008016Y005505D03*
X008016Y005511D03*
X008022Y005536D03*
X008029Y005568D03*
X008035Y005599D03*
X008041Y005624D03*
X008041Y005631D03*
X008048Y005656D03*
X008048Y005662D03*
X008054Y005687D03*
X008054Y005694D03*
X008066Y005750D03*
X008073Y005782D03*
X008079Y005807D03*
X008079Y005813D03*
X008085Y005839D03*
X008085Y005845D03*
X008092Y005870D03*
X008098Y005902D03*
X008104Y005933D03*
X008111Y005958D03*
X008111Y005965D03*
X008117Y005990D03*
X008117Y005996D03*
X008123Y006021D03*
X008123Y006028D03*
X008136Y006084D03*
X008142Y006116D03*
X008148Y006141D03*
X008148Y006147D03*
X008155Y006172D03*
X008155Y006179D03*
X008161Y006204D03*
X008167Y006235D03*
X008174Y006267D03*
X008180Y006292D03*
X008180Y006298D03*
X008186Y006324D03*
X008186Y006330D03*
X008192Y006355D03*
X008192Y006361D03*
X008199Y006387D03*
X008205Y006418D03*
X008211Y006450D03*
X008224Y006506D03*
X008224Y006513D03*
X008230Y006538D03*
X008237Y006569D03*
X008243Y006601D03*
X008249Y006626D03*
X008249Y006632D03*
X008255Y006658D03*
X008255Y006664D03*
X008262Y006689D03*
X008262Y006695D03*
X008268Y006721D03*
X008470Y007691D03*
X008470Y007697D03*
X008476Y007722D03*
X008482Y007754D03*
X008489Y007785D03*
X008495Y007810D03*
X008495Y007817D03*
X008501Y007842D03*
X008501Y007848D03*
X008507Y007873D03*
X008514Y007905D03*
X008520Y007936D03*
X008526Y007962D03*
X008526Y007968D03*
X008539Y008025D03*
X008539Y008031D03*
X008545Y008056D03*
X008552Y008088D03*
X008558Y008119D03*
X008564Y008144D03*
X008564Y008151D03*
X008570Y008176D03*
X008570Y008182D03*
X008577Y008207D03*
X008583Y008239D03*
X008589Y008270D03*
X008596Y008296D03*
X008596Y008302D03*
X008608Y008359D03*
X008608Y008365D03*
X008615Y008390D03*
X008615Y008396D03*
X008615Y008403D03*
X008615Y008409D03*
X008615Y008415D03*
X008010Y005479D03*
X008010Y005473D03*
X008003Y005448D03*
X007997Y005416D03*
X007991Y005385D03*
X007985Y005360D03*
X007985Y005353D03*
X007978Y005328D03*
X007978Y005322D03*
X007966Y005265D03*
X007959Y005234D03*
X007953Y005202D03*
X010549Y005196D03*
X010555Y005227D03*
X010561Y005259D03*
X010574Y005316D03*
X010586Y005379D03*
X010599Y005435D03*
X010605Y005467D03*
X011828Y004768D03*
X018058Y008157D03*
X018065Y008188D03*
X018071Y008220D03*
X018077Y008245D03*
X018083Y008277D03*
X018090Y008308D03*
X018102Y008365D03*
X018102Y008371D03*
X018109Y008396D03*
X018109Y008403D03*
X018109Y008409D03*
X018109Y008415D03*
X018109Y008422D03*
D177*
X017280Y007451D03*
X016153Y008503D03*
X015302Y004774D03*
X012499Y004774D03*
X009878Y004774D03*
X007282Y004774D03*
D178*
X009311Y004774D03*
D179*
X011755Y004975D03*
X011831Y004774D03*
X014704Y004975D03*
X009815Y007187D03*
X009815Y007193D03*
X009815Y007199D03*
X009815Y007206D03*
X018112Y008428D03*
X018112Y008434D03*
X018112Y008440D03*
X018112Y008447D03*
D180*
X013834Y008440D03*
X013834Y008434D03*
X013834Y008428D03*
X013834Y008422D03*
X013834Y008415D03*
X013607Y008844D03*
X012681Y008440D03*
X012681Y008434D03*
X012681Y008428D03*
X012681Y008422D03*
X012681Y008415D03*
X008618Y008422D03*
X008618Y008428D03*
X008618Y008434D03*
X008618Y008440D03*
X008618Y008447D03*
X008391Y008844D03*
X014779Y004774D03*
D181*
X012495Y004780D03*
X009875Y004780D03*
X007279Y004780D03*
D182*
X009818Y007212D03*
X009818Y007218D03*
X009818Y007225D03*
X009818Y007231D03*
X009818Y007237D03*
X009742Y007458D03*
X008621Y008453D03*
X008621Y008459D03*
X008621Y008466D03*
X008621Y008472D03*
X012684Y008472D03*
X012684Y008466D03*
X012684Y008459D03*
X012684Y008453D03*
X012684Y008447D03*
X013837Y008447D03*
X013837Y008453D03*
X013837Y008459D03*
X013837Y008466D03*
X013837Y008472D03*
X018115Y008472D03*
X018115Y008478D03*
X018115Y008466D03*
X018115Y008459D03*
X018115Y008453D03*
X014782Y004780D03*
X011834Y004780D03*
D183*
X015305Y004780D03*
X015885Y007458D03*
D184*
X016153Y008510D03*
X016153Y008516D03*
X016222Y008699D03*
X013336Y008699D03*
X010735Y008699D03*
X008120Y008699D03*
X010590Y005977D03*
X009871Y004793D03*
X009871Y004786D03*
X012492Y004786D03*
X012492Y004793D03*
X015302Y004786D03*
X007276Y004786D03*
X007276Y004793D03*
D185*
X009821Y007243D03*
X009821Y007250D03*
X008624Y008478D03*
X008624Y008485D03*
X008624Y008491D03*
X008624Y008497D03*
X008624Y008503D03*
X008548Y008699D03*
X012612Y008699D03*
X012688Y008503D03*
X012688Y008497D03*
X012688Y008491D03*
X012688Y008485D03*
X012688Y008478D03*
X013765Y008699D03*
X013840Y008503D03*
X013840Y008497D03*
X013840Y008491D03*
X013840Y008485D03*
X013840Y008478D03*
X018043Y008699D03*
X018118Y008497D03*
X018118Y008491D03*
X018118Y008485D03*
X014785Y004793D03*
X014785Y004786D03*
X011831Y004786D03*
D186*
X011834Y004793D03*
X014719Y004969D03*
X009818Y007256D03*
X009818Y007262D03*
X009818Y007269D03*
X013844Y008510D03*
X018115Y008510D03*
X018115Y008503D03*
D187*
X017283Y007445D03*
X016149Y008522D03*
X016149Y008529D03*
X013610Y008894D03*
X008394Y008894D03*
X007273Y004799D03*
X009868Y004799D03*
X009868Y004805D03*
X012489Y004799D03*
X015299Y004799D03*
X015299Y004793D03*
D188*
X014785Y004799D03*
X014785Y004805D03*
X011837Y004805D03*
X011837Y004799D03*
X011837Y004812D03*
X011768Y004969D03*
X009821Y007275D03*
X009821Y007281D03*
X009821Y007288D03*
X009752Y007451D03*
X008624Y008510D03*
X008624Y008516D03*
X008624Y008522D03*
X008624Y008529D03*
X008624Y008535D03*
X008561Y008692D03*
X008391Y008850D03*
X012625Y008692D03*
X012688Y008535D03*
X012688Y008529D03*
X012688Y008522D03*
X012688Y008516D03*
X012688Y008510D03*
X013607Y008850D03*
X013777Y008692D03*
X013840Y008535D03*
X013840Y008529D03*
X013840Y008522D03*
X013840Y008516D03*
X018118Y008516D03*
X018118Y008522D03*
X018118Y008529D03*
X018118Y008535D03*
D189*
X017287Y007439D03*
X016146Y008535D03*
X016146Y008541D03*
X016209Y008692D03*
X013330Y008692D03*
X010722Y008692D03*
X012492Y004805D03*
X007276Y004805D03*
D190*
X015296Y004805D03*
X015296Y004812D03*
X015875Y007451D03*
D191*
X015866Y007445D03*
X017246Y007218D03*
X016149Y008548D03*
X013321Y008686D03*
X010712Y008686D03*
X008111Y008692D03*
X008104Y008686D03*
X008237Y007218D03*
X010580Y005983D03*
X009868Y004824D03*
X009868Y004818D03*
X009868Y004812D03*
X012489Y004812D03*
X012489Y004818D03*
X012489Y004824D03*
X012489Y004831D03*
X015299Y004818D03*
X007273Y004818D03*
X007273Y004824D03*
X007273Y004831D03*
X007273Y004812D03*
D192*
X009818Y007294D03*
X009818Y007300D03*
X009761Y007445D03*
X008627Y008541D03*
X012691Y008541D03*
X013844Y008541D03*
X018052Y008692D03*
X018115Y008541D03*
X014726Y004963D03*
X014789Y004824D03*
X014789Y004818D03*
X014789Y004812D03*
X011840Y004818D03*
X011777Y004963D03*
D193*
X011787Y004957D03*
X011837Y004837D03*
X011837Y004831D03*
X011837Y004824D03*
X018068Y008680D03*
X013784Y008686D03*
X012631Y008686D03*
X008567Y008686D03*
D194*
X008095Y008680D03*
X010577Y005990D03*
X009865Y004837D03*
X009865Y004831D03*
X015296Y004831D03*
X015296Y004837D03*
X015296Y004843D03*
X015296Y004824D03*
X015856Y007439D03*
X017293Y007432D03*
X016146Y008554D03*
X016146Y008560D03*
X016146Y008566D03*
X016197Y008680D03*
X016203Y008686D03*
X013311Y008680D03*
D195*
X013799Y008239D03*
X013730Y007905D03*
X013642Y007483D03*
X013642Y007477D03*
X013573Y007149D03*
X013573Y007143D03*
X013484Y006721D03*
X013415Y006387D03*
X013327Y005965D03*
X013327Y005958D03*
X013258Y005631D03*
X013258Y005624D03*
X013169Y005202D03*
X012224Y006172D03*
X012224Y006179D03*
X012313Y006607D03*
X012313Y006613D03*
X012382Y006941D03*
X012382Y006947D03*
X012470Y007376D03*
X012539Y007710D03*
X012539Y007716D03*
X012628Y008138D03*
X012628Y008144D03*
X010964Y007162D03*
X010895Y006834D03*
X009793Y007061D03*
X009793Y007067D03*
X009704Y006639D03*
X009635Y006305D03*
X009635Y006298D03*
X009547Y005876D03*
X009547Y005870D03*
X009478Y005542D03*
X009478Y005536D03*
X009389Y005114D03*
X009389Y005108D03*
X008060Y005719D03*
X008129Y006053D03*
X008218Y006475D03*
X008218Y006481D03*
X007972Y005297D03*
X007972Y005290D03*
X010580Y005347D03*
X008533Y007993D03*
X008533Y007999D03*
X008602Y008327D03*
X008602Y008333D03*
X016004Y005347D03*
X016004Y005341D03*
X016093Y005769D03*
X016093Y005776D03*
X016162Y006103D03*
X016162Y006109D03*
X016250Y006538D03*
X016250Y006544D03*
X017579Y005895D03*
X017510Y005568D03*
X017422Y005152D03*
X017353Y004824D03*
X017668Y006311D03*
X017737Y006639D03*
X017825Y007054D03*
X017894Y007382D03*
X017983Y007798D03*
D196*
X018115Y008566D03*
X018115Y008573D03*
X018115Y008579D03*
X018071Y008674D03*
X013837Y008585D03*
X013837Y008579D03*
X013837Y008573D03*
X012684Y008573D03*
X012684Y008579D03*
X012684Y008585D03*
X009818Y007338D03*
X009818Y007332D03*
X009818Y007325D03*
X009818Y007319D03*
X009780Y007426D03*
X009774Y007432D03*
X009767Y007439D03*
X008621Y008573D03*
X008621Y008579D03*
X008621Y008585D03*
X011790Y004950D03*
X011796Y004944D03*
X011834Y004862D03*
X011834Y004843D03*
X014738Y004950D03*
X014789Y004843D03*
X014789Y004837D03*
X014789Y004831D03*
D197*
X015305Y004887D03*
X015305Y004894D03*
X015305Y004900D03*
X015324Y004982D03*
X015324Y004988D03*
X015324Y004994D03*
X015356Y005133D03*
X015356Y005139D03*
X015356Y005146D03*
X015374Y005227D03*
X015374Y005234D03*
X015374Y005240D03*
X015393Y005316D03*
X015393Y005322D03*
X015393Y005328D03*
X015393Y005335D03*
X015444Y005561D03*
X015444Y005568D03*
X015444Y005574D03*
X015444Y005580D03*
X015463Y005656D03*
X015463Y005662D03*
X015463Y005668D03*
X015482Y005744D03*
X015482Y005750D03*
X015482Y005757D03*
X015482Y005763D03*
X015513Y005902D03*
X015513Y005908D03*
X015513Y005914D03*
X015532Y005990D03*
X015532Y005996D03*
X015532Y006002D03*
X015532Y006009D03*
X015551Y006084D03*
X015551Y006091D03*
X015551Y006097D03*
X015551Y006103D03*
X015601Y006330D03*
X015601Y006336D03*
X015601Y006343D03*
X015601Y006349D03*
X015620Y006424D03*
X015620Y006431D03*
X015620Y006437D03*
X015639Y006513D03*
X015639Y006519D03*
X015639Y006525D03*
X015639Y006532D03*
X015671Y006670D03*
X015671Y006676D03*
X015671Y006683D03*
X015689Y006758D03*
X015689Y006765D03*
X015689Y006771D03*
X015689Y006777D03*
X015708Y006853D03*
X015708Y006859D03*
X015708Y006865D03*
X015759Y007099D03*
X015759Y007105D03*
X015759Y007111D03*
X015778Y007193D03*
X015778Y007199D03*
X015778Y007206D03*
X015797Y007281D03*
X015797Y007288D03*
X015797Y007294D03*
X015847Y007426D03*
X017126Y006632D03*
X017126Y006626D03*
X017126Y006620D03*
X017107Y006544D03*
X017107Y006538D03*
X017107Y006532D03*
X017088Y006456D03*
X017088Y006450D03*
X017088Y006443D03*
X017057Y006305D03*
X017057Y006298D03*
X017057Y006292D03*
X017038Y006217D03*
X017038Y006210D03*
X017038Y006204D03*
X017019Y006128D03*
X017019Y006122D03*
X017019Y006116D03*
X016968Y005889D03*
X016968Y005883D03*
X016968Y005876D03*
X016949Y005801D03*
X016949Y005794D03*
X016949Y005788D03*
X016931Y005713D03*
X016931Y005706D03*
X016931Y005700D03*
X016899Y005561D03*
X016899Y005555D03*
X016899Y005549D03*
X016880Y005473D03*
X016880Y005467D03*
X016880Y005461D03*
X016861Y005385D03*
X016861Y005379D03*
X016861Y005372D03*
X017353Y007691D03*
X017353Y007697D03*
X017353Y007703D03*
X017372Y007779D03*
X017372Y007785D03*
X017372Y007792D03*
X017403Y007930D03*
X017403Y007936D03*
X017403Y007943D03*
X013308Y008674D03*
X013258Y008560D03*
X013258Y008554D03*
X013258Y008548D03*
X013239Y008472D03*
X013239Y008466D03*
X013239Y008459D03*
X013188Y008233D03*
X013188Y008226D03*
X013188Y008220D03*
X013188Y008214D03*
X013169Y008138D03*
X013169Y008132D03*
X013169Y008125D03*
X013151Y008050D03*
X013151Y008044D03*
X013151Y008037D03*
X013151Y008031D03*
X013119Y007899D03*
X013119Y007892D03*
X013119Y007886D03*
X013119Y007880D03*
X013100Y007804D03*
X013100Y007798D03*
X013100Y007792D03*
X013081Y007716D03*
X013081Y007710D03*
X013081Y007703D03*
X013081Y007697D03*
X013031Y007470D03*
X013031Y007464D03*
X013031Y007458D03*
X013012Y007382D03*
X013012Y007376D03*
X013012Y007369D03*
X013012Y007363D03*
X012993Y007288D03*
X012993Y007281D03*
X012993Y007275D03*
X012962Y007136D03*
X012962Y007130D03*
X012962Y007124D03*
X012943Y007048D03*
X012943Y007042D03*
X012943Y007036D03*
X012943Y007029D03*
X012924Y006954D03*
X012924Y006947D03*
X012924Y006941D03*
X012873Y006714D03*
X012873Y006708D03*
X012873Y006702D03*
X012873Y006695D03*
X012854Y006620D03*
X012854Y006613D03*
X012854Y006607D03*
X012836Y006532D03*
X012836Y006525D03*
X012836Y006519D03*
X012836Y006513D03*
X012804Y006380D03*
X012804Y006374D03*
X012804Y006368D03*
X012804Y006361D03*
X012785Y006286D03*
X012785Y006280D03*
X012785Y006273D03*
X012766Y006198D03*
X012766Y006191D03*
X012766Y006185D03*
X012766Y006179D03*
X012716Y005952D03*
X012716Y005946D03*
X012716Y005939D03*
X012697Y005864D03*
X012697Y005857D03*
X012697Y005851D03*
X012697Y005845D03*
X012678Y005769D03*
X012678Y005763D03*
X012678Y005757D03*
X012647Y005618D03*
X012647Y005612D03*
X012647Y005605D03*
X012628Y005530D03*
X012628Y005524D03*
X012628Y005517D03*
X012628Y005511D03*
X012609Y005435D03*
X012609Y005429D03*
X012609Y005423D03*
X012558Y005196D03*
X012558Y005190D03*
X012558Y005183D03*
X012558Y005177D03*
X012539Y005101D03*
X012539Y005095D03*
X012539Y005089D03*
X012521Y005013D03*
X012521Y005007D03*
X012521Y005001D03*
X012489Y004862D03*
X012489Y004856D03*
X012489Y004849D03*
X012489Y004843D03*
X012489Y004837D03*
X010089Y005895D03*
X010089Y005902D03*
X010089Y005908D03*
X010108Y005983D03*
X010108Y005990D03*
X010108Y005996D03*
X010127Y006072D03*
X010127Y006078D03*
X010127Y006084D03*
X010158Y006223D03*
X010158Y006229D03*
X010158Y006235D03*
X010177Y006311D03*
X010177Y006317D03*
X010177Y006324D03*
X010196Y006399D03*
X010196Y006406D03*
X010196Y006412D03*
X010246Y006639D03*
X010246Y006645D03*
X010246Y006651D03*
X010265Y006727D03*
X010265Y006733D03*
X010265Y006739D03*
X010284Y006815D03*
X010284Y006821D03*
X010284Y006828D03*
X010316Y006966D03*
X010316Y006973D03*
X010316Y006979D03*
X010334Y007054D03*
X010334Y007061D03*
X010334Y007067D03*
X010353Y007143D03*
X010353Y007149D03*
X010353Y007155D03*
X010404Y007382D03*
X010404Y007388D03*
X010404Y007395D03*
X010423Y007470D03*
X010423Y007477D03*
X010423Y007483D03*
X010442Y007565D03*
X010442Y007571D03*
X010442Y007577D03*
X010473Y007710D03*
X010473Y007716D03*
X010473Y007722D03*
X010492Y007798D03*
X010492Y007804D03*
X010492Y007810D03*
X010511Y007892D03*
X010511Y007899D03*
X010511Y007905D03*
X010561Y008125D03*
X010561Y008132D03*
X010561Y008138D03*
X010580Y008220D03*
X010580Y008226D03*
X010580Y008233D03*
X010599Y008308D03*
X010599Y008314D03*
X010599Y008321D03*
X010631Y008453D03*
X010631Y008459D03*
X010631Y008466D03*
X010649Y008548D03*
X010649Y008554D03*
X011979Y007949D03*
X011979Y007943D03*
X011979Y007936D03*
X011928Y007703D03*
X011928Y007697D03*
X011928Y007691D03*
X011909Y007615D03*
X011909Y007609D03*
X011909Y007603D03*
X011909Y007596D03*
X011891Y007521D03*
X011891Y007514D03*
X011891Y007508D03*
X011891Y007502D03*
X011859Y007369D03*
X011859Y007363D03*
X011859Y007357D03*
X011859Y007351D03*
X011840Y007275D03*
X011840Y007269D03*
X011840Y007262D03*
X011840Y007256D03*
X011821Y007180D03*
X011821Y007174D03*
X011821Y007168D03*
X011771Y006935D03*
X011771Y006928D03*
X011771Y006922D03*
X011752Y006847D03*
X011752Y006840D03*
X011752Y006834D03*
X011752Y006828D03*
X011733Y006752D03*
X011733Y006746D03*
X011733Y006739D03*
X011702Y006601D03*
X011702Y006595D03*
X011702Y006588D03*
X011702Y006582D03*
X011683Y006506D03*
X011683Y006500D03*
X011683Y006494D03*
X010038Y005668D03*
X010038Y005662D03*
X010038Y005656D03*
X010019Y005580D03*
X010019Y005574D03*
X010019Y005568D03*
X010001Y005492D03*
X010001Y005486D03*
X010001Y005479D03*
X009969Y005341D03*
X009969Y005335D03*
X009969Y005328D03*
X009950Y005253D03*
X009950Y005246D03*
X009950Y005240D03*
X009931Y005164D03*
X009931Y005158D03*
X009931Y005152D03*
X009881Y004925D03*
X009881Y004919D03*
X009881Y004912D03*
X008829Y005335D03*
X008829Y005341D03*
X008829Y005347D03*
X008848Y005423D03*
X008848Y005429D03*
X008848Y005435D03*
X008848Y005442D03*
X008867Y005517D03*
X008867Y005524D03*
X008867Y005530D03*
X008898Y005668D03*
X008898Y005675D03*
X008898Y005681D03*
X008917Y005763D03*
X008917Y005769D03*
X008917Y005776D03*
X008936Y005851D03*
X008936Y005857D03*
X008936Y005864D03*
X008986Y006097D03*
X008986Y006103D03*
X008986Y006109D03*
X009005Y006185D03*
X009005Y006191D03*
X009005Y006198D03*
X009005Y006204D03*
X009024Y006280D03*
X009024Y006286D03*
X009024Y006292D03*
X009056Y006431D03*
X009056Y006437D03*
X009056Y006443D03*
X009074Y006525D03*
X009074Y006532D03*
X009074Y006538D03*
X009093Y006613D03*
X009093Y006620D03*
X009093Y006626D03*
X007796Y007369D03*
X007796Y007376D03*
X007796Y007382D03*
X007814Y007458D03*
X007814Y007464D03*
X007814Y007470D03*
X007833Y007546D03*
X007833Y007552D03*
X007833Y007558D03*
X007833Y007565D03*
X007884Y007792D03*
X007884Y007798D03*
X007884Y007804D03*
X007903Y007880D03*
X007903Y007886D03*
X007903Y007892D03*
X007903Y007899D03*
X007922Y007974D03*
X007922Y007981D03*
X007922Y007987D03*
X007953Y008125D03*
X007953Y008132D03*
X007953Y008138D03*
X007972Y008214D03*
X007972Y008220D03*
X007972Y008226D03*
X007972Y008233D03*
X007991Y008308D03*
X007991Y008314D03*
X007991Y008321D03*
X008041Y008548D03*
X008041Y008554D03*
X008041Y008560D03*
X007764Y007231D03*
X007764Y007225D03*
X007764Y007218D03*
X007764Y007212D03*
X007745Y007136D03*
X007745Y007130D03*
X007745Y007124D03*
X007726Y007048D03*
X007726Y007042D03*
X007726Y007036D03*
X007676Y006802D03*
X007676Y006796D03*
X007676Y006790D03*
X007657Y006714D03*
X007657Y006708D03*
X007657Y006702D03*
X007638Y006620D03*
X007638Y006613D03*
X007638Y006607D03*
X007607Y006469D03*
X007607Y006462D03*
X007607Y006456D03*
X007588Y006380D03*
X007588Y006374D03*
X007588Y006368D03*
X007569Y006286D03*
X007569Y006280D03*
X007569Y006273D03*
X007518Y006046D03*
X007518Y006040D03*
X007518Y006034D03*
X007499Y005952D03*
X007499Y005946D03*
X007499Y005939D03*
X007481Y005864D03*
X007481Y005857D03*
X007481Y005851D03*
X007449Y005713D03*
X007449Y005706D03*
X007449Y005700D03*
X007430Y005618D03*
X007430Y005612D03*
X007430Y005605D03*
X007411Y005530D03*
X007411Y005524D03*
X007411Y005517D03*
X007361Y005284D03*
X007361Y005278D03*
X007361Y005272D03*
X007342Y005196D03*
X007342Y005190D03*
X007342Y005183D03*
X007323Y005108D03*
X007323Y005101D03*
X007323Y005095D03*
X007323Y005089D03*
X007292Y004950D03*
X007292Y004944D03*
X007292Y004938D03*
X007273Y004862D03*
X007273Y004856D03*
X007273Y004849D03*
X007273Y004843D03*
X007273Y004837D03*
D198*
X007279Y004875D03*
X007279Y004881D03*
X007279Y004887D03*
X007279Y004894D03*
X007285Y004906D03*
X007285Y004912D03*
X007285Y004919D03*
X007285Y004925D03*
X007298Y004969D03*
X007298Y004975D03*
X007298Y004982D03*
X007304Y005001D03*
X007304Y005007D03*
X007304Y005013D03*
X007310Y005032D03*
X007310Y005038D03*
X007310Y005045D03*
X007317Y005057D03*
X007317Y005064D03*
X007317Y005070D03*
X007317Y005076D03*
X007329Y005120D03*
X007329Y005127D03*
X007329Y005133D03*
X007336Y005152D03*
X007336Y005158D03*
X007336Y005164D03*
X007348Y005209D03*
X007348Y005215D03*
X007348Y005221D03*
X007348Y005227D03*
X007355Y005240D03*
X007355Y005246D03*
X007355Y005253D03*
X007355Y005259D03*
X007367Y005303D03*
X007367Y005309D03*
X007367Y005316D03*
X007373Y005335D03*
X007373Y005341D03*
X007373Y005347D03*
X007380Y005366D03*
X007380Y005372D03*
X007380Y005379D03*
X007386Y005391D03*
X007386Y005398D03*
X007386Y005404D03*
X007386Y005410D03*
X007392Y005423D03*
X007392Y005429D03*
X007392Y005435D03*
X007392Y005442D03*
X007399Y005454D03*
X007399Y005461D03*
X007399Y005467D03*
X007405Y005486D03*
X007405Y005492D03*
X007405Y005498D03*
X007418Y005542D03*
X007418Y005549D03*
X007418Y005555D03*
X007418Y005561D03*
X007424Y005574D03*
X007424Y005580D03*
X007424Y005587D03*
X007424Y005593D03*
X007436Y005637D03*
X007436Y005643D03*
X007436Y005650D03*
X007443Y005668D03*
X007443Y005675D03*
X007443Y005681D03*
X007455Y005725D03*
X007455Y005731D03*
X007455Y005738D03*
X007455Y005744D03*
X007462Y005757D03*
X007462Y005763D03*
X007462Y005769D03*
X007462Y005776D03*
X007468Y005788D03*
X007468Y005794D03*
X007468Y005801D03*
X007474Y005820D03*
X007474Y005826D03*
X007474Y005832D03*
X007487Y005876D03*
X007487Y005883D03*
X007487Y005889D03*
X007487Y005895D03*
X007493Y005908D03*
X007493Y005914D03*
X007493Y005920D03*
X007493Y005927D03*
X007506Y005971D03*
X007506Y005977D03*
X007506Y005983D03*
X007512Y006002D03*
X007512Y006009D03*
X007512Y006015D03*
X007525Y006059D03*
X007525Y006065D03*
X007525Y006072D03*
X007525Y006078D03*
X007531Y006091D03*
X007531Y006097D03*
X007531Y006103D03*
X007531Y006109D03*
X007537Y006122D03*
X007537Y006128D03*
X007537Y006135D03*
X007544Y006154D03*
X007544Y006160D03*
X007544Y006166D03*
X007550Y006185D03*
X007550Y006191D03*
X007550Y006198D03*
X007556Y006210D03*
X007556Y006217D03*
X007556Y006223D03*
X007556Y006229D03*
X007562Y006242D03*
X007562Y006248D03*
X007562Y006254D03*
X007562Y006261D03*
X007575Y006305D03*
X007575Y006311D03*
X007575Y006317D03*
X007581Y006336D03*
X007581Y006343D03*
X007581Y006349D03*
X007594Y006393D03*
X007594Y006399D03*
X007594Y006406D03*
X007594Y006412D03*
X007600Y006424D03*
X007600Y006431D03*
X007600Y006437D03*
X007600Y006443D03*
X007613Y006487D03*
X007613Y006494D03*
X007613Y006500D03*
X007619Y006519D03*
X007619Y006525D03*
X007619Y006532D03*
X007625Y006544D03*
X007625Y006550D03*
X007625Y006557D03*
X007625Y006563D03*
X007632Y006576D03*
X007632Y006582D03*
X007632Y006588D03*
X007632Y006595D03*
X007644Y006639D03*
X007644Y006645D03*
X007644Y006651D03*
X007651Y006670D03*
X007651Y006676D03*
X007651Y006683D03*
X007663Y006727D03*
X007663Y006733D03*
X007663Y006739D03*
X007663Y006746D03*
X007670Y006758D03*
X007670Y006765D03*
X007670Y006771D03*
X007670Y006777D03*
X007682Y006821D03*
X007682Y006828D03*
X007682Y006834D03*
X007688Y006853D03*
X007688Y006859D03*
X007688Y006865D03*
X007695Y006878D03*
X007695Y006884D03*
X007695Y006891D03*
X007695Y006897D03*
X007701Y006910D03*
X007701Y006916D03*
X007701Y006922D03*
X007701Y006928D03*
X007707Y006941D03*
X007707Y006947D03*
X007707Y006954D03*
X007714Y006973D03*
X007714Y006979D03*
X007714Y006985D03*
X007720Y007004D03*
X007720Y007010D03*
X007720Y007017D03*
X007733Y007061D03*
X007733Y007067D03*
X007733Y007073D03*
X007733Y007080D03*
X007739Y007092D03*
X007739Y007099D03*
X007739Y007105D03*
X007739Y007111D03*
X007751Y007155D03*
X007751Y007162D03*
X007751Y007168D03*
X007758Y007187D03*
X007758Y007193D03*
X007758Y007199D03*
X007770Y007243D03*
X007770Y007250D03*
X007770Y007256D03*
X007770Y007262D03*
X007777Y007275D03*
X007777Y007281D03*
X007777Y007288D03*
X007783Y007306D03*
X007783Y007313D03*
X007783Y007319D03*
X007789Y007338D03*
X007789Y007344D03*
X007789Y007351D03*
X007802Y007395D03*
X007802Y007401D03*
X007802Y007407D03*
X007802Y007414D03*
X007808Y007426D03*
X007808Y007432D03*
X007808Y007439D03*
X007808Y007445D03*
X007821Y007489D03*
X007821Y007495D03*
X007821Y007502D03*
X007827Y007521D03*
X007827Y007527D03*
X007827Y007533D03*
X007840Y007577D03*
X007840Y007584D03*
X007840Y007590D03*
X007840Y007596D03*
X007846Y007609D03*
X007846Y007615D03*
X007846Y007621D03*
X007852Y007640D03*
X007852Y007647D03*
X007852Y007653D03*
X007859Y007672D03*
X007859Y007678D03*
X007859Y007684D03*
X007865Y007703D03*
X007865Y007710D03*
X007865Y007716D03*
X007871Y007729D03*
X007871Y007735D03*
X007871Y007741D03*
X007871Y007747D03*
X007877Y007760D03*
X007877Y007766D03*
X007877Y007773D03*
X007877Y007779D03*
X007890Y007823D03*
X007890Y007829D03*
X007890Y007836D03*
X007896Y007855D03*
X007896Y007861D03*
X007896Y007867D03*
X007909Y007911D03*
X007909Y007918D03*
X007909Y007924D03*
X007909Y007930D03*
X007915Y007943D03*
X007915Y007949D03*
X007915Y007955D03*
X007928Y008006D03*
X007928Y008012D03*
X007928Y008018D03*
X007934Y008037D03*
X007934Y008044D03*
X007934Y008050D03*
X007940Y008062D03*
X007940Y008069D03*
X007940Y008075D03*
X007940Y008081D03*
X007947Y008094D03*
X007947Y008100D03*
X007947Y008107D03*
X007947Y008113D03*
X007959Y008157D03*
X007959Y008163D03*
X007959Y008170D03*
X007966Y008188D03*
X007966Y008195D03*
X007966Y008201D03*
X007978Y008245D03*
X007978Y008251D03*
X007978Y008258D03*
X007978Y008264D03*
X007985Y008277D03*
X007985Y008283D03*
X007985Y008289D03*
X007997Y008340D03*
X007997Y008346D03*
X007997Y008352D03*
X008003Y008371D03*
X008003Y008377D03*
X008003Y008384D03*
X008010Y008396D03*
X008010Y008403D03*
X008010Y008409D03*
X008010Y008415D03*
X008016Y008428D03*
X008016Y008434D03*
X008016Y008440D03*
X008016Y008447D03*
X008022Y008459D03*
X008022Y008466D03*
X008022Y008472D03*
X008029Y008491D03*
X008029Y008497D03*
X008029Y008503D03*
X008035Y008522D03*
X008035Y008529D03*
X008035Y008535D03*
X008048Y008579D03*
X008085Y008667D03*
X008092Y008674D03*
X010530Y007993D03*
X010530Y007987D03*
X010530Y007981D03*
X010523Y007962D03*
X010523Y007955D03*
X010523Y007949D03*
X010517Y007930D03*
X010517Y007924D03*
X010517Y007918D03*
X010505Y007873D03*
X010505Y007867D03*
X010505Y007861D03*
X010498Y007842D03*
X010498Y007836D03*
X010498Y007829D03*
X010486Y007785D03*
X010486Y007779D03*
X010486Y007773D03*
X010479Y007754D03*
X010479Y007747D03*
X010479Y007741D03*
X010467Y007691D03*
X010467Y007684D03*
X010467Y007678D03*
X010460Y007666D03*
X010460Y007659D03*
X010460Y007653D03*
X010454Y007634D03*
X010454Y007628D03*
X010454Y007621D03*
X010448Y007603D03*
X010448Y007596D03*
X010448Y007590D03*
X010435Y007546D03*
X010435Y007540D03*
X010435Y007533D03*
X010429Y007514D03*
X010429Y007508D03*
X010429Y007502D03*
X010416Y007458D03*
X010416Y007451D03*
X010416Y007445D03*
X010410Y007426D03*
X010410Y007420D03*
X010410Y007414D03*
X010397Y007363D03*
X010397Y007357D03*
X010397Y007351D03*
X010391Y007338D03*
X010391Y007332D03*
X010391Y007325D03*
X010385Y007306D03*
X010385Y007300D03*
X010385Y007294D03*
X010379Y007275D03*
X010379Y007269D03*
X010379Y007262D03*
X010372Y007250D03*
X010372Y007243D03*
X010372Y007237D03*
X010366Y007218D03*
X010366Y007212D03*
X010366Y007206D03*
X010360Y007187D03*
X010360Y007180D03*
X010360Y007174D03*
X010347Y007130D03*
X010347Y007124D03*
X010347Y007117D03*
X010341Y007099D03*
X010341Y007092D03*
X010341Y007086D03*
X010328Y007036D03*
X010328Y007029D03*
X010328Y007023D03*
X010322Y007010D03*
X010322Y007004D03*
X010322Y006998D03*
X010309Y006947D03*
X010309Y006941D03*
X010309Y006935D03*
X010303Y006922D03*
X010303Y006916D03*
X010303Y006910D03*
X010297Y006891D03*
X010297Y006884D03*
X010297Y006878D03*
X010290Y006859D03*
X010290Y006853D03*
X010290Y006847D03*
X010278Y006802D03*
X010278Y006796D03*
X010278Y006790D03*
X010271Y006771D03*
X010271Y006765D03*
X010271Y006758D03*
X010259Y006708D03*
X010259Y006702D03*
X010259Y006695D03*
X010253Y006683D03*
X010253Y006676D03*
X010253Y006670D03*
X010240Y006620D03*
X010240Y006613D03*
X010240Y006607D03*
X010234Y006595D03*
X010234Y006588D03*
X010234Y006582D03*
X010227Y006563D03*
X010227Y006557D03*
X010227Y006550D03*
X010221Y006532D03*
X010221Y006525D03*
X010221Y006519D03*
X010215Y006500D03*
X010215Y006494D03*
X010215Y006487D03*
X010208Y006475D03*
X010208Y006469D03*
X010208Y006462D03*
X010202Y006443D03*
X010202Y006437D03*
X010202Y006431D03*
X010190Y006387D03*
X010190Y006380D03*
X010190Y006374D03*
X010190Y006368D03*
X010183Y006355D03*
X010183Y006349D03*
X010183Y006343D03*
X010171Y006292D03*
X010171Y006286D03*
X010171Y006280D03*
X010164Y006267D03*
X010164Y006261D03*
X010164Y006254D03*
X010152Y006204D03*
X010152Y006198D03*
X010152Y006191D03*
X010145Y006172D03*
X010145Y006166D03*
X010145Y006160D03*
X010139Y006147D03*
X010139Y006141D03*
X010139Y006135D03*
X010133Y006116D03*
X010133Y006109D03*
X010133Y006103D03*
X010120Y006059D03*
X010120Y006053D03*
X010120Y006046D03*
X010120Y006040D03*
X010114Y006028D03*
X010114Y006021D03*
X010114Y006015D03*
X010101Y005965D03*
X010101Y005958D03*
X010101Y005952D03*
X010095Y005939D03*
X010095Y005933D03*
X010095Y005927D03*
X010082Y005876D03*
X010082Y005870D03*
X010082Y005864D03*
X010076Y005845D03*
X010076Y005839D03*
X010076Y005832D03*
X010070Y005820D03*
X010070Y005813D03*
X010070Y005807D03*
X010064Y005788D03*
X010064Y005782D03*
X010064Y005776D03*
X010057Y005757D03*
X010057Y005750D03*
X010057Y005744D03*
X010051Y005731D03*
X010051Y005725D03*
X010051Y005719D03*
X010051Y005713D03*
X010045Y005700D03*
X010045Y005694D03*
X010045Y005687D03*
X010032Y005637D03*
X010032Y005631D03*
X010032Y005624D03*
X010026Y005612D03*
X010026Y005605D03*
X010026Y005599D03*
X010013Y005549D03*
X010013Y005542D03*
X010013Y005536D03*
X010007Y005517D03*
X010007Y005511D03*
X010007Y005505D03*
X009994Y005461D03*
X009994Y005454D03*
X009994Y005448D03*
X009988Y005429D03*
X009988Y005423D03*
X009988Y005416D03*
X009982Y005404D03*
X009982Y005398D03*
X009982Y005391D03*
X009982Y005385D03*
X009975Y005372D03*
X009975Y005366D03*
X009975Y005360D03*
X009963Y005309D03*
X009963Y005303D03*
X009963Y005297D03*
X009956Y005284D03*
X009956Y005278D03*
X009956Y005272D03*
X009944Y005221D03*
X009944Y005215D03*
X009944Y005209D03*
X009938Y005190D03*
X009938Y005183D03*
X009938Y005177D03*
X009925Y005133D03*
X009925Y005127D03*
X009925Y005120D03*
X009919Y005101D03*
X009919Y005095D03*
X009919Y005089D03*
X009912Y005070D03*
X009912Y005064D03*
X009912Y005057D03*
X009906Y005045D03*
X009906Y005038D03*
X009906Y005032D03*
X009900Y005013D03*
X009900Y005007D03*
X009900Y005001D03*
X009893Y004982D03*
X009893Y004975D03*
X009893Y004969D03*
X009887Y004957D03*
X009887Y004950D03*
X009887Y004944D03*
X009887Y004938D03*
X009875Y004894D03*
X009875Y004887D03*
X009875Y004881D03*
X009868Y004862D03*
X009868Y004856D03*
X009868Y004849D03*
X009868Y004843D03*
X008797Y005183D03*
X008797Y005190D03*
X008797Y005196D03*
X008804Y005209D03*
X008804Y005215D03*
X008804Y005221D03*
X008804Y005227D03*
X008810Y005240D03*
X008810Y005246D03*
X008810Y005253D03*
X008810Y005259D03*
X008816Y005272D03*
X008816Y005278D03*
X008816Y005284D03*
X008822Y005303D03*
X008822Y005309D03*
X008822Y005316D03*
X008835Y005366D03*
X008835Y005372D03*
X008835Y005379D03*
X008841Y005391D03*
X008841Y005398D03*
X008841Y005404D03*
X008841Y005410D03*
X008854Y005454D03*
X008854Y005461D03*
X008854Y005467D03*
X008860Y005486D03*
X008860Y005492D03*
X008860Y005498D03*
X008873Y005549D03*
X008873Y005555D03*
X008873Y005561D03*
X008879Y005574D03*
X008879Y005580D03*
X008879Y005587D03*
X008879Y005593D03*
X008885Y005605D03*
X008885Y005612D03*
X008885Y005618D03*
X008885Y005624D03*
X008892Y005637D03*
X008892Y005643D03*
X008892Y005650D03*
X008892Y005656D03*
X008904Y005700D03*
X008904Y005706D03*
X008904Y005713D03*
X008911Y005731D03*
X008911Y005738D03*
X008911Y005744D03*
X008923Y005788D03*
X008923Y005794D03*
X008923Y005801D03*
X008923Y005807D03*
X008930Y005820D03*
X008930Y005826D03*
X008930Y005832D03*
X008930Y005839D03*
X008942Y005883D03*
X008942Y005889D03*
X008942Y005895D03*
X008948Y005914D03*
X008948Y005920D03*
X008948Y005927D03*
X008955Y005946D03*
X008955Y005952D03*
X008955Y005958D03*
X008961Y005971D03*
X008961Y005977D03*
X008961Y005983D03*
X008961Y005990D03*
X008967Y006002D03*
X008967Y006009D03*
X008967Y006015D03*
X008967Y006021D03*
X008974Y006034D03*
X008974Y006040D03*
X008974Y006046D03*
X008980Y006065D03*
X008980Y006072D03*
X008980Y006078D03*
X008993Y006128D03*
X008993Y006135D03*
X008993Y006141D03*
X008999Y006154D03*
X008999Y006160D03*
X008999Y006166D03*
X008999Y006172D03*
X009011Y006217D03*
X009011Y006223D03*
X009011Y006229D03*
X009011Y006235D03*
X009018Y006248D03*
X009018Y006254D03*
X009018Y006261D03*
X009030Y006311D03*
X009030Y006317D03*
X009030Y006324D03*
X009037Y006343D03*
X009037Y006349D03*
X009037Y006355D03*
X009043Y006368D03*
X009043Y006374D03*
X009043Y006380D03*
X009043Y006387D03*
X009049Y006399D03*
X009049Y006406D03*
X009049Y006412D03*
X009049Y006418D03*
X009062Y006462D03*
X009062Y006469D03*
X009062Y006475D03*
X009068Y006494D03*
X009068Y006500D03*
X009068Y006506D03*
X009081Y006550D03*
X009081Y006557D03*
X009081Y006563D03*
X009081Y006569D03*
X009087Y006582D03*
X009087Y006588D03*
X009087Y006595D03*
X009087Y006601D03*
X009100Y006645D03*
X009100Y006651D03*
X009100Y006658D03*
X009106Y006676D03*
X009106Y006683D03*
X009106Y006689D03*
X009112Y006708D03*
X009112Y006714D03*
X009112Y006721D03*
X010536Y008006D03*
X010536Y008012D03*
X010536Y008018D03*
X010542Y008037D03*
X010542Y008044D03*
X010542Y008050D03*
X010549Y008069D03*
X010549Y008075D03*
X010549Y008081D03*
X010555Y008100D03*
X010555Y008107D03*
X010555Y008113D03*
X010568Y008157D03*
X010568Y008163D03*
X010568Y008170D03*
X010574Y008188D03*
X010574Y008195D03*
X010574Y008201D03*
X010586Y008245D03*
X010586Y008251D03*
X010586Y008258D03*
X010593Y008277D03*
X010593Y008283D03*
X010593Y008289D03*
X010605Y008333D03*
X010605Y008340D03*
X010605Y008346D03*
X010612Y008365D03*
X010612Y008371D03*
X010612Y008377D03*
X010618Y008396D03*
X010618Y008403D03*
X010618Y008409D03*
X010624Y008428D03*
X010624Y008434D03*
X010624Y008440D03*
X010637Y008485D03*
X010637Y008491D03*
X010637Y008497D03*
X010643Y008516D03*
X010643Y008522D03*
X010643Y008529D03*
X010656Y008573D03*
X010656Y008579D03*
X010700Y008674D03*
X010706Y008680D03*
X011972Y007918D03*
X011972Y007911D03*
X011972Y007905D03*
X011966Y007886D03*
X011966Y007880D03*
X011966Y007873D03*
X011960Y007861D03*
X011960Y007855D03*
X011960Y007848D03*
X011960Y007842D03*
X011954Y007829D03*
X011954Y007823D03*
X011954Y007817D03*
X011954Y007810D03*
X011947Y007798D03*
X011947Y007792D03*
X011947Y007785D03*
X011947Y007779D03*
X011941Y007766D03*
X011941Y007760D03*
X011941Y007754D03*
X011941Y007747D03*
X011935Y007735D03*
X011935Y007729D03*
X011935Y007722D03*
X011922Y007672D03*
X011922Y007666D03*
X011922Y007659D03*
X011916Y007640D03*
X011916Y007634D03*
X011916Y007628D03*
X011903Y007584D03*
X011903Y007577D03*
X011903Y007571D03*
X011903Y007565D03*
X011897Y007552D03*
X011897Y007546D03*
X011897Y007540D03*
X011897Y007533D03*
X011884Y007489D03*
X011884Y007483D03*
X011884Y007477D03*
X011878Y007458D03*
X011878Y007451D03*
X011878Y007445D03*
X011872Y007426D03*
X011872Y007420D03*
X011872Y007414D03*
X011865Y007395D03*
X011865Y007388D03*
X011865Y007382D03*
X011853Y007338D03*
X011853Y007332D03*
X011853Y007325D03*
X011853Y007319D03*
X011846Y007306D03*
X011846Y007300D03*
X011846Y007294D03*
X011846Y007288D03*
X011834Y007243D03*
X011834Y007237D03*
X011834Y007231D03*
X011828Y007212D03*
X011828Y007206D03*
X011828Y007199D03*
X011815Y007149D03*
X011815Y007143D03*
X011815Y007136D03*
X011809Y007124D03*
X011809Y007117D03*
X011809Y007111D03*
X011809Y007105D03*
X011802Y007092D03*
X011802Y007086D03*
X011802Y007080D03*
X011802Y007073D03*
X011796Y007061D03*
X011796Y007054D03*
X011796Y007048D03*
X011796Y007042D03*
X011790Y007029D03*
X011790Y007023D03*
X011790Y007017D03*
X011790Y007010D03*
X011783Y006998D03*
X011783Y006991D03*
X011783Y006985D03*
X011777Y006966D03*
X011777Y006960D03*
X011777Y006954D03*
X011765Y006903D03*
X011765Y006897D03*
X011765Y006891D03*
X011758Y006878D03*
X011758Y006872D03*
X011758Y006865D03*
X011758Y006859D03*
X011746Y006815D03*
X011746Y006809D03*
X011746Y006802D03*
X011746Y006796D03*
X011739Y006784D03*
X011739Y006777D03*
X011739Y006771D03*
X011739Y006765D03*
X011727Y006721D03*
X011727Y006714D03*
X011727Y006708D03*
X011720Y006689D03*
X011720Y006683D03*
X011720Y006676D03*
X011714Y006658D03*
X011714Y006651D03*
X011714Y006645D03*
X011708Y006632D03*
X011708Y006626D03*
X011708Y006620D03*
X011708Y006613D03*
X011695Y006569D03*
X011695Y006563D03*
X011695Y006557D03*
X011695Y006550D03*
X011689Y006538D03*
X011689Y006532D03*
X011689Y006525D03*
X011689Y006519D03*
X011676Y006475D03*
X011676Y006469D03*
X011676Y006462D03*
X011670Y006443D03*
X011670Y006437D03*
X011670Y006431D03*
X012773Y006229D03*
X012773Y006223D03*
X012773Y006217D03*
X012773Y006210D03*
X012779Y006242D03*
X012779Y006248D03*
X012779Y006254D03*
X012791Y006305D03*
X012791Y006311D03*
X012791Y006317D03*
X012798Y006336D03*
X012798Y006343D03*
X012798Y006349D03*
X012810Y006393D03*
X012810Y006399D03*
X012810Y006406D03*
X012817Y006424D03*
X012817Y006431D03*
X012817Y006437D03*
X012823Y006456D03*
X012823Y006462D03*
X012823Y006469D03*
X012829Y006487D03*
X012829Y006494D03*
X012829Y006500D03*
X012842Y006544D03*
X012842Y006550D03*
X012842Y006557D03*
X012842Y006563D03*
X012848Y006576D03*
X012848Y006582D03*
X012848Y006588D03*
X012861Y006639D03*
X012861Y006645D03*
X012861Y006651D03*
X012867Y006670D03*
X012867Y006676D03*
X012867Y006683D03*
X012880Y006727D03*
X012880Y006733D03*
X012880Y006739D03*
X012886Y006758D03*
X012886Y006765D03*
X012886Y006771D03*
X012892Y006790D03*
X012892Y006796D03*
X012892Y006802D03*
X012899Y006821D03*
X012899Y006828D03*
X012899Y006834D03*
X012905Y006847D03*
X012905Y006853D03*
X012905Y006859D03*
X012905Y006865D03*
X012911Y006878D03*
X012911Y006884D03*
X012911Y006891D03*
X012911Y006897D03*
X012917Y006910D03*
X012917Y006916D03*
X012917Y006922D03*
X012930Y006973D03*
X012930Y006979D03*
X012930Y006985D03*
X012936Y007004D03*
X012936Y007010D03*
X012936Y007017D03*
X012949Y007061D03*
X012949Y007067D03*
X012949Y007073D03*
X012955Y007092D03*
X012955Y007099D03*
X012955Y007105D03*
X012968Y007155D03*
X012968Y007162D03*
X012968Y007168D03*
X012974Y007180D03*
X012974Y007187D03*
X012974Y007193D03*
X012974Y007199D03*
X012980Y007212D03*
X012980Y007218D03*
X012980Y007225D03*
X012980Y007231D03*
X012987Y007243D03*
X012987Y007250D03*
X012987Y007256D03*
X012999Y007306D03*
X012999Y007313D03*
X012999Y007319D03*
X013006Y007338D03*
X013006Y007344D03*
X013006Y007351D03*
X013018Y007395D03*
X013018Y007401D03*
X013018Y007407D03*
X013025Y007426D03*
X013025Y007432D03*
X013025Y007439D03*
X013037Y007489D03*
X013037Y007495D03*
X013037Y007502D03*
X013043Y007514D03*
X013043Y007521D03*
X013043Y007527D03*
X013043Y007533D03*
X013050Y007546D03*
X013050Y007552D03*
X013050Y007558D03*
X013050Y007565D03*
X013056Y007577D03*
X013056Y007584D03*
X013056Y007590D03*
X013062Y007609D03*
X013062Y007615D03*
X013062Y007621D03*
X013069Y007640D03*
X013069Y007647D03*
X013069Y007653D03*
X013075Y007672D03*
X013075Y007678D03*
X013075Y007684D03*
X013088Y007729D03*
X013088Y007735D03*
X013088Y007741D03*
X013094Y007760D03*
X013094Y007766D03*
X013094Y007773D03*
X013106Y007823D03*
X013106Y007829D03*
X013106Y007836D03*
X013113Y007848D03*
X013113Y007855D03*
X013113Y007861D03*
X013113Y007867D03*
X013125Y007911D03*
X013125Y007918D03*
X013125Y007924D03*
X013132Y007943D03*
X013132Y007949D03*
X013132Y007955D03*
X013138Y007974D03*
X013138Y007981D03*
X013138Y007987D03*
X013144Y008006D03*
X013144Y008012D03*
X013144Y008018D03*
X013157Y008062D03*
X013157Y008069D03*
X013157Y008075D03*
X013163Y008094D03*
X013163Y008100D03*
X013163Y008107D03*
X013176Y008157D03*
X013176Y008163D03*
X013176Y008170D03*
X013182Y008182D03*
X013182Y008188D03*
X013182Y008195D03*
X013182Y008201D03*
X013195Y008245D03*
X013195Y008251D03*
X013195Y008258D03*
X013201Y008277D03*
X013201Y008283D03*
X013201Y008289D03*
X013207Y008308D03*
X013207Y008314D03*
X013207Y008321D03*
X013214Y008340D03*
X013214Y008346D03*
X013214Y008352D03*
X013220Y008365D03*
X013220Y008371D03*
X013220Y008377D03*
X013220Y008384D03*
X013226Y008396D03*
X013226Y008403D03*
X013226Y008409D03*
X013232Y008428D03*
X013232Y008434D03*
X013232Y008440D03*
X013245Y008491D03*
X013245Y008497D03*
X013245Y008503D03*
X013251Y008516D03*
X013251Y008522D03*
X013251Y008529D03*
X013251Y008535D03*
X013264Y008579D03*
X013302Y008667D03*
X015790Y007269D03*
X015790Y007262D03*
X015790Y007256D03*
X015790Y007250D03*
X015784Y007237D03*
X015784Y007231D03*
X015784Y007225D03*
X015784Y007218D03*
X015771Y007174D03*
X015771Y007168D03*
X015771Y007162D03*
X015765Y007143D03*
X015765Y007136D03*
X015765Y007130D03*
X015752Y007086D03*
X015752Y007080D03*
X015752Y007073D03*
X015752Y007067D03*
X015746Y007054D03*
X015746Y007048D03*
X015746Y007042D03*
X015746Y007036D03*
X015740Y007023D03*
X015740Y007017D03*
X015740Y007010D03*
X015740Y007004D03*
X015734Y006991D03*
X015734Y006985D03*
X015734Y006979D03*
X015734Y006973D03*
X015727Y006960D03*
X015727Y006954D03*
X015727Y006947D03*
X015721Y006928D03*
X015721Y006922D03*
X015721Y006916D03*
X015715Y006897D03*
X015715Y006891D03*
X015715Y006884D03*
X015702Y006840D03*
X015702Y006834D03*
X015702Y006828D03*
X015702Y006821D03*
X015696Y006809D03*
X015696Y006802D03*
X015696Y006796D03*
X015696Y006790D03*
X015683Y006746D03*
X015683Y006739D03*
X015683Y006733D03*
X015683Y006727D03*
X015677Y006714D03*
X015677Y006708D03*
X015677Y006702D03*
X015664Y006651D03*
X015664Y006645D03*
X015664Y006639D03*
X015658Y006620D03*
X015658Y006613D03*
X015658Y006607D03*
X015652Y006595D03*
X015652Y006588D03*
X015652Y006582D03*
X015652Y006576D03*
X015645Y006563D03*
X015645Y006557D03*
X015645Y006550D03*
X015645Y006544D03*
X015633Y006500D03*
X015633Y006494D03*
X015633Y006487D03*
X015633Y006481D03*
X015626Y006469D03*
X015626Y006462D03*
X015626Y006456D03*
X015614Y006406D03*
X015614Y006399D03*
X015614Y006393D03*
X015608Y006374D03*
X015608Y006368D03*
X015608Y006361D03*
X015595Y006317D03*
X015595Y006311D03*
X015595Y006305D03*
X015595Y006298D03*
X015589Y006286D03*
X015589Y006280D03*
X015589Y006273D03*
X015589Y006267D03*
X015582Y006254D03*
X015582Y006248D03*
X015582Y006242D03*
X015582Y006235D03*
X015576Y006223D03*
X015576Y006217D03*
X015576Y006210D03*
X015570Y006191D03*
X015570Y006185D03*
X015570Y006179D03*
X015563Y006160D03*
X015563Y006154D03*
X015563Y006147D03*
X015557Y006128D03*
X015557Y006122D03*
X015557Y006116D03*
X015545Y006072D03*
X015545Y006065D03*
X015545Y006059D03*
X015545Y006053D03*
X015538Y006040D03*
X015538Y006034D03*
X015538Y006028D03*
X015538Y006021D03*
X015526Y005977D03*
X015526Y005971D03*
X015526Y005965D03*
X015519Y005946D03*
X015519Y005939D03*
X015519Y005933D03*
X015507Y005883D03*
X015507Y005876D03*
X015507Y005870D03*
X015500Y005857D03*
X015500Y005851D03*
X015500Y005845D03*
X015500Y005839D03*
X015494Y005826D03*
X015494Y005820D03*
X015494Y005813D03*
X015494Y005807D03*
X015488Y005794D03*
X015488Y005788D03*
X015488Y005782D03*
X015488Y005776D03*
X015475Y005731D03*
X015475Y005725D03*
X015475Y005719D03*
X015469Y005700D03*
X015469Y005694D03*
X015469Y005687D03*
X015456Y005637D03*
X015456Y005631D03*
X015456Y005624D03*
X015450Y005612D03*
X015450Y005605D03*
X015450Y005599D03*
X015450Y005593D03*
X015437Y005549D03*
X015437Y005542D03*
X015437Y005536D03*
X015437Y005530D03*
X015431Y005517D03*
X015431Y005511D03*
X015431Y005505D03*
X015431Y005498D03*
X015425Y005486D03*
X015425Y005479D03*
X015425Y005473D03*
X015419Y005454D03*
X015419Y005448D03*
X015419Y005442D03*
X015412Y005423D03*
X015412Y005416D03*
X015412Y005410D03*
X015406Y005391D03*
X015406Y005385D03*
X015406Y005379D03*
X015400Y005366D03*
X015400Y005360D03*
X015400Y005353D03*
X015400Y005347D03*
X015387Y005303D03*
X015387Y005297D03*
X015387Y005290D03*
X015387Y005284D03*
X015381Y005272D03*
X015381Y005265D03*
X015381Y005259D03*
X015381Y005253D03*
X015368Y005209D03*
X015368Y005202D03*
X015368Y005196D03*
X015362Y005177D03*
X015362Y005171D03*
X015362Y005164D03*
X015349Y005120D03*
X015349Y005114D03*
X015349Y005108D03*
X015349Y005101D03*
X015343Y005089D03*
X015343Y005083D03*
X015343Y005076D03*
X015343Y005070D03*
X015337Y005057D03*
X015337Y005051D03*
X015337Y005045D03*
X015337Y005038D03*
X015330Y005026D03*
X015330Y005020D03*
X015330Y005013D03*
X015330Y005007D03*
X015318Y004963D03*
X015318Y004957D03*
X015318Y004950D03*
X015311Y004931D03*
X015311Y004925D03*
X015311Y004919D03*
X015299Y004875D03*
X015299Y004868D03*
X015299Y004862D03*
X015299Y004856D03*
X015299Y004849D03*
X016817Y005183D03*
X016823Y005190D03*
X016823Y005196D03*
X016823Y005202D03*
X016830Y005221D03*
X016830Y005227D03*
X016830Y005234D03*
X016836Y005253D03*
X016836Y005259D03*
X016836Y005265D03*
X016842Y005278D03*
X016842Y005284D03*
X016842Y005290D03*
X016849Y005309D03*
X016849Y005316D03*
X016849Y005322D03*
X016855Y005341D03*
X016855Y005347D03*
X016855Y005353D03*
X016868Y005398D03*
X016868Y005404D03*
X016868Y005410D03*
X016874Y005429D03*
X016874Y005435D03*
X016874Y005442D03*
X016886Y005486D03*
X016886Y005492D03*
X016886Y005498D03*
X016893Y005517D03*
X016893Y005524D03*
X016893Y005530D03*
X016905Y005580D03*
X016905Y005587D03*
X016905Y005593D03*
X016912Y005605D03*
X016912Y005612D03*
X016912Y005618D03*
X016918Y005637D03*
X016918Y005643D03*
X016918Y005650D03*
X016924Y005668D03*
X016924Y005675D03*
X016924Y005681D03*
X016937Y005725D03*
X016937Y005731D03*
X016937Y005738D03*
X016943Y005757D03*
X016943Y005763D03*
X016943Y005769D03*
X016956Y005813D03*
X016956Y005820D03*
X016956Y005826D03*
X016962Y005845D03*
X016962Y005851D03*
X016962Y005857D03*
X016975Y005908D03*
X016975Y005914D03*
X016975Y005920D03*
X016981Y005933D03*
X016981Y005939D03*
X016981Y005946D03*
X016987Y005965D03*
X016987Y005971D03*
X016987Y005977D03*
X016994Y005996D03*
X016994Y006002D03*
X016994Y006009D03*
X017000Y006028D03*
X017000Y006034D03*
X017000Y006040D03*
X017006Y006053D03*
X017006Y006059D03*
X017006Y006065D03*
X017012Y006084D03*
X017012Y006091D03*
X017012Y006097D03*
X017025Y006141D03*
X017025Y006147D03*
X017025Y006154D03*
X017031Y006172D03*
X017031Y006179D03*
X017031Y006185D03*
X017044Y006235D03*
X017044Y006242D03*
X017044Y006248D03*
X017050Y006261D03*
X017050Y006267D03*
X017050Y006273D03*
X017063Y006324D03*
X017063Y006330D03*
X017063Y006336D03*
X017069Y006355D03*
X017069Y006361D03*
X017069Y006368D03*
X017075Y006380D03*
X017075Y006387D03*
X017075Y006393D03*
X017082Y006412D03*
X017082Y006418D03*
X017082Y006424D03*
X017094Y006469D03*
X017094Y006475D03*
X017094Y006481D03*
X017101Y006500D03*
X017101Y006506D03*
X017101Y006513D03*
X017113Y006563D03*
X017113Y006569D03*
X017113Y006576D03*
X017120Y006588D03*
X017120Y006595D03*
X017120Y006601D03*
X017132Y006651D03*
X017132Y006658D03*
X017132Y006664D03*
X017138Y006683D03*
X017138Y006689D03*
X017138Y006695D03*
X017145Y006708D03*
X017145Y006714D03*
X017145Y006721D03*
X017296Y007426D03*
X017346Y007672D03*
X017346Y007678D03*
X017359Y007722D03*
X017359Y007729D03*
X017359Y007735D03*
X017365Y007754D03*
X017365Y007760D03*
X017365Y007766D03*
X017378Y007810D03*
X017378Y007817D03*
X017378Y007823D03*
X017384Y007842D03*
X017384Y007848D03*
X017384Y007855D03*
X017390Y007873D03*
X017390Y007880D03*
X017390Y007886D03*
X017397Y007899D03*
X017397Y007905D03*
X017397Y007911D03*
X017409Y007962D03*
X016149Y008573D03*
X016149Y008579D03*
X016149Y008585D03*
X016187Y008667D03*
X016193Y008674D03*
X015853Y007432D03*
X015809Y007344D03*
X015803Y007319D03*
X015803Y007313D03*
X012760Y006166D03*
X012760Y006160D03*
X012760Y006154D03*
X012754Y006135D03*
X012754Y006128D03*
X012754Y006122D03*
X012747Y006103D03*
X012747Y006097D03*
X012747Y006091D03*
X012741Y006072D03*
X012741Y006065D03*
X012741Y006059D03*
X012735Y006046D03*
X012735Y006040D03*
X012735Y006034D03*
X012735Y006028D03*
X012728Y006015D03*
X012728Y006009D03*
X012728Y006002D03*
X012722Y005983D03*
X012722Y005977D03*
X012722Y005971D03*
X012710Y005920D03*
X012710Y005914D03*
X012710Y005908D03*
X012703Y005895D03*
X012703Y005889D03*
X012703Y005883D03*
X012703Y005876D03*
X012691Y005832D03*
X012691Y005826D03*
X012691Y005820D03*
X012684Y005801D03*
X012684Y005794D03*
X012684Y005788D03*
X012672Y005738D03*
X012672Y005731D03*
X012672Y005725D03*
X012665Y005713D03*
X012665Y005706D03*
X012665Y005700D03*
X012665Y005694D03*
X012659Y005681D03*
X012659Y005675D03*
X012659Y005668D03*
X012653Y005650D03*
X012653Y005643D03*
X012653Y005637D03*
X012640Y005587D03*
X012640Y005580D03*
X012640Y005574D03*
X012634Y005561D03*
X012634Y005555D03*
X012634Y005549D03*
X012634Y005542D03*
X012621Y005498D03*
X012621Y005492D03*
X012621Y005486D03*
X012615Y005467D03*
X012615Y005461D03*
X012615Y005454D03*
X012602Y005404D03*
X012602Y005398D03*
X012602Y005391D03*
X012596Y005379D03*
X012596Y005372D03*
X012596Y005366D03*
X012596Y005360D03*
X012590Y005347D03*
X012590Y005341D03*
X012590Y005335D03*
X012584Y005316D03*
X012584Y005309D03*
X012584Y005303D03*
X012577Y005284D03*
X012577Y005278D03*
X012577Y005272D03*
X012571Y005253D03*
X012571Y005246D03*
X012571Y005240D03*
X012565Y005227D03*
X012565Y005221D03*
X012565Y005215D03*
X012565Y005209D03*
X012552Y005164D03*
X012552Y005158D03*
X012552Y005152D03*
X012546Y005133D03*
X012546Y005127D03*
X012546Y005120D03*
X012533Y005070D03*
X012533Y005064D03*
X012533Y005057D03*
X012527Y005045D03*
X012527Y005038D03*
X012527Y005032D03*
X012527Y005026D03*
X012514Y004982D03*
X012514Y004975D03*
X012514Y004969D03*
X012508Y004950D03*
X012508Y004944D03*
X012508Y004938D03*
X012502Y004919D03*
X012502Y004912D03*
X012502Y004906D03*
X012495Y004894D03*
X012495Y004887D03*
X012495Y004881D03*
X012495Y004875D03*
D199*
X011837Y004856D03*
X011837Y004849D03*
X011831Y004868D03*
X011831Y004875D03*
X011824Y004894D03*
X011806Y004931D03*
X011799Y004938D03*
X014748Y004944D03*
X014754Y004938D03*
X014754Y004931D03*
X014760Y004925D03*
X014767Y004912D03*
X014773Y004900D03*
X014779Y004881D03*
X014785Y004862D03*
X014785Y004856D03*
X014785Y004849D03*
X009815Y007344D03*
X009815Y007351D03*
X009815Y007357D03*
X009802Y007388D03*
X009796Y007401D03*
X009790Y007414D03*
X009783Y007420D03*
X008618Y008592D03*
X008618Y008598D03*
X008618Y008604D03*
X008593Y008655D03*
X008586Y008667D03*
X008580Y008674D03*
X008391Y008856D03*
X012643Y008674D03*
X012650Y008667D03*
X012656Y008655D03*
X012662Y008648D03*
X012681Y008604D03*
X012681Y008598D03*
X012681Y008592D03*
X013607Y008856D03*
X013796Y008674D03*
X013803Y008667D03*
X013809Y008655D03*
X013815Y008648D03*
X013834Y008604D03*
X013834Y008598D03*
X013834Y008592D03*
X018080Y008661D03*
X018080Y008667D03*
X018087Y008655D03*
X018106Y008617D03*
X018112Y008598D03*
X018112Y008592D03*
X018112Y008585D03*
D200*
X017406Y007955D03*
X017406Y007949D03*
X017400Y007924D03*
X017400Y007918D03*
X017394Y007892D03*
X017381Y007836D03*
X017381Y007829D03*
X017375Y007804D03*
X017375Y007798D03*
X017368Y007773D03*
X017362Y007747D03*
X017362Y007741D03*
X017356Y007716D03*
X017356Y007710D03*
X017350Y007684D03*
X017255Y007225D03*
X017135Y006676D03*
X017135Y006670D03*
X017129Y006645D03*
X017129Y006639D03*
X017123Y006613D03*
X017123Y006607D03*
X017116Y006582D03*
X017110Y006557D03*
X017110Y006550D03*
X017104Y006525D03*
X017104Y006519D03*
X017098Y006494D03*
X017098Y006487D03*
X017091Y006462D03*
X017085Y006437D03*
X017085Y006431D03*
X017079Y006406D03*
X017079Y006399D03*
X017066Y006349D03*
X017066Y006343D03*
X017060Y006317D03*
X017060Y006311D03*
X017053Y006286D03*
X017053Y006280D03*
X017047Y006254D03*
X017041Y006229D03*
X017041Y006223D03*
X017035Y006198D03*
X017035Y006191D03*
X017028Y006166D03*
X017028Y006160D03*
X017022Y006135D03*
X017016Y006109D03*
X017016Y006103D03*
X017009Y006078D03*
X017009Y006072D03*
X016997Y006021D03*
X016997Y006015D03*
X016990Y005990D03*
X016990Y005983D03*
X016978Y005927D03*
X016971Y005902D03*
X016971Y005895D03*
X016965Y005870D03*
X016965Y005864D03*
X016959Y005839D03*
X016959Y005832D03*
X016953Y005807D03*
X016946Y005782D03*
X016946Y005776D03*
X016940Y005750D03*
X016940Y005744D03*
X016934Y005719D03*
X016927Y005694D03*
X016927Y005687D03*
X016921Y005662D03*
X016921Y005656D03*
X016909Y005599D03*
X016902Y005574D03*
X016902Y005568D03*
X016896Y005542D03*
X016896Y005536D03*
X016890Y005511D03*
X016890Y005505D03*
X016883Y005479D03*
X016877Y005454D03*
X016877Y005448D03*
X016871Y005423D03*
X016871Y005416D03*
X016864Y005391D03*
X016858Y005366D03*
X016858Y005360D03*
X016852Y005335D03*
X016852Y005328D03*
X016839Y005272D03*
X016833Y005246D03*
X016833Y005240D03*
X015434Y005524D03*
X015441Y005555D03*
X015447Y005587D03*
X015453Y005618D03*
X015460Y005643D03*
X015460Y005650D03*
X015466Y005675D03*
X015466Y005681D03*
X015472Y005706D03*
X015472Y005713D03*
X015478Y005738D03*
X015485Y005769D03*
X015491Y005801D03*
X015504Y005864D03*
X015510Y005889D03*
X015510Y005895D03*
X015516Y005920D03*
X015516Y005927D03*
X015523Y005952D03*
X015523Y005958D03*
X015529Y005983D03*
X015535Y006015D03*
X015541Y006046D03*
X015548Y006078D03*
X015554Y006109D03*
X015560Y006135D03*
X015560Y006141D03*
X015573Y006198D03*
X015573Y006204D03*
X015579Y006229D03*
X015592Y006292D03*
X015598Y006324D03*
X015604Y006355D03*
X015611Y006380D03*
X015611Y006387D03*
X015617Y006412D03*
X015617Y006418D03*
X015623Y006443D03*
X015623Y006450D03*
X015630Y006475D03*
X015636Y006506D03*
X015642Y006538D03*
X015649Y006569D03*
X015661Y006626D03*
X015661Y006632D03*
X015667Y006658D03*
X015667Y006664D03*
X015674Y006689D03*
X015674Y006695D03*
X015680Y006721D03*
X015686Y006752D03*
X015693Y006784D03*
X015699Y006815D03*
X015705Y006847D03*
X015711Y006872D03*
X015711Y006878D03*
X015718Y006903D03*
X015718Y006910D03*
X015730Y006966D03*
X015737Y006998D03*
X015749Y007061D03*
X015756Y007092D03*
X015762Y007117D03*
X015762Y007124D03*
X015768Y007149D03*
X015768Y007155D03*
X015775Y007180D03*
X015775Y007187D03*
X015781Y007212D03*
X015787Y007243D03*
X015793Y007275D03*
X015800Y007300D03*
X015800Y007306D03*
X015806Y007325D03*
X015806Y007332D03*
X015806Y007338D03*
X015819Y007376D03*
X015825Y007388D03*
X015831Y007401D03*
X015838Y007414D03*
X015844Y007420D03*
X016153Y008592D03*
X016153Y008598D03*
X016153Y008604D03*
X016159Y008617D03*
X016165Y008629D03*
X016171Y008642D03*
X016171Y008648D03*
X016178Y008655D03*
X016184Y008661D03*
X013299Y008661D03*
X013286Y008642D03*
X013280Y008629D03*
X013273Y008617D03*
X013273Y008611D03*
X013267Y008598D03*
X013267Y008592D03*
X013267Y008585D03*
X013261Y008573D03*
X013261Y008566D03*
X013255Y008541D03*
X013248Y008510D03*
X013242Y008485D03*
X013242Y008478D03*
X013236Y008453D03*
X013236Y008447D03*
X013229Y008422D03*
X013229Y008415D03*
X013217Y008359D03*
X013210Y008333D03*
X013210Y008327D03*
X013198Y008270D03*
X013198Y008264D03*
X013191Y008239D03*
X013185Y008207D03*
X013179Y008176D03*
X013173Y008151D03*
X013173Y008144D03*
X013166Y008119D03*
X013166Y008113D03*
X013160Y008088D03*
X013160Y008081D03*
X013154Y008056D03*
X013147Y008025D03*
X013141Y007999D03*
X013141Y007993D03*
X013129Y007936D03*
X013129Y007930D03*
X013122Y007905D03*
X013116Y007873D03*
X013110Y007842D03*
X013103Y007817D03*
X013103Y007810D03*
X013097Y007785D03*
X013097Y007779D03*
X013091Y007754D03*
X013091Y007747D03*
X013084Y007722D03*
X013078Y007691D03*
X013072Y007666D03*
X013072Y007659D03*
X013059Y007603D03*
X013059Y007596D03*
X013053Y007571D03*
X013040Y007508D03*
X013034Y007483D03*
X013034Y007477D03*
X013028Y007451D03*
X013028Y007445D03*
X013021Y007420D03*
X013021Y007414D03*
X013015Y007388D03*
X013009Y007357D03*
X013003Y007332D03*
X013003Y007325D03*
X012996Y007300D03*
X012996Y007294D03*
X012990Y007269D03*
X012990Y007262D03*
X012984Y007237D03*
X012971Y007174D03*
X012965Y007149D03*
X012965Y007143D03*
X012958Y007117D03*
X012958Y007111D03*
X012952Y007086D03*
X012952Y007080D03*
X012946Y007054D03*
X012940Y007023D03*
X012933Y006998D03*
X012933Y006991D03*
X012927Y006966D03*
X012927Y006960D03*
X012921Y006935D03*
X012921Y006928D03*
X012914Y006903D03*
X012902Y006840D03*
X012895Y006815D03*
X012895Y006809D03*
X012883Y006752D03*
X012883Y006746D03*
X012876Y006721D03*
X012870Y006689D03*
X012864Y006664D03*
X012864Y006658D03*
X012858Y006632D03*
X012858Y006626D03*
X012851Y006601D03*
X012851Y006595D03*
X012845Y006569D03*
X012839Y006538D03*
X012832Y006506D03*
X012826Y006481D03*
X012826Y006475D03*
X012814Y006418D03*
X012814Y006412D03*
X012807Y006387D03*
X012801Y006355D03*
X012795Y006330D03*
X012795Y006324D03*
X012788Y006298D03*
X012788Y006292D03*
X012782Y006267D03*
X012782Y006261D03*
X012776Y006235D03*
X012769Y006204D03*
X012763Y006172D03*
X012757Y006147D03*
X012757Y006141D03*
X012744Y006084D03*
X012744Y006078D03*
X012738Y006053D03*
X012725Y005996D03*
X012725Y005990D03*
X012719Y005965D03*
X012719Y005958D03*
X012713Y005933D03*
X012713Y005927D03*
X012706Y005902D03*
X012700Y005870D03*
X012694Y005839D03*
X012688Y005813D03*
X012688Y005807D03*
X012681Y005782D03*
X012681Y005776D03*
X012675Y005750D03*
X012675Y005744D03*
X012669Y005719D03*
X012656Y005662D03*
X012656Y005656D03*
X012650Y005631D03*
X012650Y005624D03*
X012643Y005599D03*
X012643Y005593D03*
X012637Y005568D03*
X012631Y005536D03*
X012625Y005505D03*
X012618Y005479D03*
X012618Y005473D03*
X012612Y005448D03*
X012612Y005442D03*
X012606Y005416D03*
X012606Y005410D03*
X012599Y005385D03*
X012587Y005328D03*
X012587Y005322D03*
X012580Y005297D03*
X012580Y005290D03*
X012568Y005234D03*
X012561Y005202D03*
X012555Y005171D03*
X012549Y005146D03*
X012549Y005139D03*
X012543Y005114D03*
X012543Y005108D03*
X012536Y005083D03*
X012536Y005076D03*
X012530Y005051D03*
X012524Y005020D03*
X012517Y004994D03*
X012517Y004988D03*
X012511Y004963D03*
X012511Y004957D03*
X012499Y004900D03*
X012492Y004868D03*
X010571Y005996D03*
X010621Y006217D03*
X010174Y006298D03*
X010174Y006305D03*
X010180Y006330D03*
X010180Y006336D03*
X010186Y006361D03*
X010193Y006393D03*
X010199Y006418D03*
X010199Y006424D03*
X010205Y006450D03*
X010205Y006456D03*
X010218Y006506D03*
X010218Y006513D03*
X010224Y006538D03*
X010224Y006544D03*
X010237Y006601D03*
X010243Y006626D03*
X010243Y006632D03*
X010249Y006658D03*
X010249Y006664D03*
X010256Y006689D03*
X010262Y006714D03*
X010262Y006721D03*
X010268Y006746D03*
X010268Y006752D03*
X010275Y006777D03*
X010275Y006784D03*
X010281Y006809D03*
X010287Y006834D03*
X010287Y006840D03*
X010294Y006865D03*
X010294Y006872D03*
X010306Y006928D03*
X010312Y006954D03*
X010312Y006960D03*
X010319Y006985D03*
X010319Y006991D03*
X010325Y007017D03*
X010331Y007042D03*
X010331Y007048D03*
X010338Y007073D03*
X010338Y007080D03*
X010344Y007105D03*
X010344Y007111D03*
X010350Y007136D03*
X010356Y007162D03*
X010356Y007168D03*
X010363Y007193D03*
X010363Y007199D03*
X010375Y007256D03*
X010382Y007281D03*
X010382Y007288D03*
X010394Y007344D03*
X010401Y007369D03*
X010401Y007376D03*
X010407Y007401D03*
X010407Y007407D03*
X010413Y007432D03*
X010413Y007439D03*
X010420Y007464D03*
X010426Y007489D03*
X010426Y007495D03*
X010432Y007521D03*
X010432Y007527D03*
X010438Y007552D03*
X010438Y007558D03*
X010445Y007584D03*
X010451Y007609D03*
X010451Y007615D03*
X010464Y007672D03*
X010470Y007697D03*
X010470Y007703D03*
X010476Y007729D03*
X010476Y007735D03*
X010483Y007760D03*
X010483Y007766D03*
X010489Y007792D03*
X010495Y007817D03*
X010495Y007823D03*
X010501Y007848D03*
X010501Y007855D03*
X010508Y007880D03*
X010508Y007886D03*
X010514Y007911D03*
X010520Y007936D03*
X010520Y007943D03*
X010533Y007999D03*
X010539Y008025D03*
X010539Y008031D03*
X010552Y008088D03*
X010552Y008094D03*
X010558Y008119D03*
X010564Y008144D03*
X010564Y008151D03*
X010571Y008176D03*
X010571Y008182D03*
X010577Y008207D03*
X010577Y008214D03*
X010583Y008239D03*
X010590Y008264D03*
X010590Y008270D03*
X010596Y008296D03*
X010596Y008302D03*
X010602Y008327D03*
X010609Y008352D03*
X010609Y008359D03*
X010621Y008415D03*
X010621Y008422D03*
X010627Y008447D03*
X010634Y008472D03*
X010634Y008478D03*
X010640Y008503D03*
X010640Y008510D03*
X010646Y008535D03*
X010646Y008541D03*
X010653Y008560D03*
X010653Y008566D03*
X010659Y008585D03*
X010659Y008592D03*
X010665Y008604D03*
X010665Y008611D03*
X010678Y008642D03*
X010690Y008661D03*
X010697Y008667D03*
X011982Y007962D03*
X011982Y007955D03*
X011976Y007930D03*
X011976Y007924D03*
X011969Y007899D03*
X011969Y007892D03*
X011957Y007836D03*
X011950Y007804D03*
X011938Y007741D03*
X011931Y007716D03*
X011931Y007710D03*
X011925Y007684D03*
X011925Y007678D03*
X011919Y007653D03*
X011919Y007647D03*
X011913Y007621D03*
X011906Y007590D03*
X011900Y007558D03*
X011894Y007527D03*
X011887Y007495D03*
X011881Y007470D03*
X011881Y007464D03*
X011869Y007407D03*
X011869Y007401D03*
X011862Y007376D03*
X011856Y007344D03*
X011850Y007313D03*
X011843Y007281D03*
X011837Y007250D03*
X011831Y007225D03*
X011831Y007218D03*
X011824Y007193D03*
X011824Y007187D03*
X011818Y007162D03*
X011818Y007155D03*
X011812Y007130D03*
X011799Y007067D03*
X011793Y007036D03*
X011780Y006979D03*
X011780Y006973D03*
X011774Y006947D03*
X011774Y006941D03*
X011768Y006916D03*
X011768Y006910D03*
X011761Y006884D03*
X011755Y006853D03*
X011749Y006821D03*
X011743Y006790D03*
X011736Y006758D03*
X011730Y006733D03*
X011730Y006727D03*
X011724Y006702D03*
X011724Y006695D03*
X011711Y006639D03*
X011705Y006607D03*
X011698Y006576D03*
X011692Y006544D03*
X011686Y006513D03*
X011680Y006487D03*
X011680Y006481D03*
X011673Y006456D03*
X011673Y006450D03*
X010168Y006273D03*
X010161Y006248D03*
X010161Y006242D03*
X010155Y006217D03*
X010155Y006210D03*
X010149Y006185D03*
X010149Y006179D03*
X010136Y006128D03*
X010136Y006122D03*
X010130Y006097D03*
X010130Y006091D03*
X010123Y006065D03*
X010117Y006034D03*
X010111Y006009D03*
X010111Y006002D03*
X010105Y005977D03*
X010105Y005971D03*
X010098Y005946D03*
X010092Y005920D03*
X010092Y005914D03*
X010086Y005889D03*
X010086Y005883D03*
X010079Y005857D03*
X010079Y005851D03*
X010067Y005801D03*
X010067Y005794D03*
X010060Y005769D03*
X010060Y005763D03*
X010048Y005706D03*
X010041Y005681D03*
X010041Y005675D03*
X010035Y005650D03*
X010035Y005643D03*
X010029Y005618D03*
X010023Y005593D03*
X010023Y005587D03*
X010016Y005561D03*
X010016Y005555D03*
X010010Y005530D03*
X010010Y005524D03*
X010004Y005498D03*
X009997Y005473D03*
X009997Y005467D03*
X009991Y005442D03*
X009991Y005435D03*
X009979Y005379D03*
X009972Y005353D03*
X009972Y005347D03*
X009966Y005322D03*
X009966Y005316D03*
X009960Y005290D03*
X009953Y005265D03*
X009953Y005259D03*
X009947Y005234D03*
X009947Y005227D03*
X009941Y005202D03*
X009941Y005196D03*
X009934Y005171D03*
X009928Y005146D03*
X009928Y005139D03*
X009922Y005114D03*
X009922Y005108D03*
X009909Y005051D03*
X009903Y005026D03*
X009903Y005020D03*
X009890Y004963D03*
X009884Y004931D03*
X009878Y004906D03*
X009878Y004900D03*
X009871Y004875D03*
X009871Y004868D03*
X008800Y005202D03*
X008807Y005234D03*
X008819Y005290D03*
X008819Y005297D03*
X008826Y005322D03*
X008826Y005328D03*
X008832Y005353D03*
X008832Y005360D03*
X008838Y005385D03*
X008845Y005416D03*
X008851Y005448D03*
X008857Y005473D03*
X008857Y005479D03*
X008863Y005505D03*
X008863Y005511D03*
X008870Y005536D03*
X008870Y005542D03*
X008876Y005568D03*
X008889Y005631D03*
X008895Y005662D03*
X008901Y005687D03*
X008901Y005694D03*
X008908Y005719D03*
X008908Y005725D03*
X008914Y005750D03*
X008914Y005757D03*
X008920Y005782D03*
X008926Y005813D03*
X008933Y005845D03*
X008939Y005870D03*
X008939Y005876D03*
X008945Y005902D03*
X008945Y005908D03*
X008958Y005965D03*
X008964Y005996D03*
X008977Y006053D03*
X008977Y006059D03*
X008983Y006084D03*
X008983Y006091D03*
X008989Y006116D03*
X008989Y006122D03*
X008996Y006147D03*
X009002Y006179D03*
X009008Y006210D03*
X009015Y006242D03*
X009021Y006267D03*
X009021Y006273D03*
X009027Y006298D03*
X009027Y006305D03*
X009034Y006330D03*
X009034Y006336D03*
X009046Y006393D03*
X009052Y006424D03*
X009059Y006450D03*
X009059Y006456D03*
X009065Y006481D03*
X009065Y006487D03*
X009071Y006513D03*
X009071Y006519D03*
X009078Y006544D03*
X009084Y006576D03*
X009090Y006607D03*
X009096Y006632D03*
X009096Y006639D03*
X009103Y006664D03*
X009103Y006670D03*
X008227Y007225D03*
X007792Y007357D03*
X007792Y007363D03*
X007799Y007388D03*
X007805Y007420D03*
X007811Y007451D03*
X007818Y007477D03*
X007818Y007483D03*
X007824Y007508D03*
X007824Y007514D03*
X007830Y007540D03*
X007836Y007571D03*
X007843Y007603D03*
X007855Y007659D03*
X007855Y007666D03*
X007862Y007691D03*
X007862Y007697D03*
X007874Y007754D03*
X007881Y007785D03*
X007887Y007810D03*
X007887Y007817D03*
X007893Y007842D03*
X007893Y007848D03*
X007900Y007873D03*
X007906Y007905D03*
X007912Y007936D03*
X007918Y007962D03*
X007918Y007968D03*
X007925Y007993D03*
X007925Y007999D03*
X007931Y008025D03*
X007931Y008031D03*
X007944Y008088D03*
X007950Y008119D03*
X007956Y008144D03*
X007956Y008151D03*
X007963Y008176D03*
X007963Y008182D03*
X007969Y008207D03*
X007975Y008239D03*
X007981Y008270D03*
X007988Y008296D03*
X007988Y008302D03*
X007994Y008327D03*
X007994Y008333D03*
X008000Y008359D03*
X008000Y008365D03*
X008013Y008422D03*
X008019Y008453D03*
X008032Y008510D03*
X008032Y008516D03*
X008038Y008541D03*
X008044Y008566D03*
X008044Y008573D03*
X008051Y008585D03*
X008051Y008592D03*
X008051Y008598D03*
X008057Y008611D03*
X008057Y008617D03*
X008063Y008629D03*
X008070Y008642D03*
X008076Y008655D03*
X008082Y008661D03*
X007786Y007332D03*
X007786Y007325D03*
X007774Y007269D03*
X007767Y007237D03*
X007761Y007206D03*
X007755Y007180D03*
X007755Y007174D03*
X007748Y007149D03*
X007748Y007143D03*
X007742Y007117D03*
X007736Y007086D03*
X007729Y007054D03*
X007723Y007029D03*
X007723Y007023D03*
X007717Y006998D03*
X007717Y006991D03*
X007704Y006935D03*
X007698Y006903D03*
X007685Y006847D03*
X007685Y006840D03*
X007679Y006815D03*
X007679Y006809D03*
X007673Y006784D03*
X007666Y006752D03*
X007660Y006721D03*
X007654Y006695D03*
X007654Y006689D03*
X007648Y006664D03*
X007648Y006658D03*
X007641Y006632D03*
X007641Y006626D03*
X007635Y006601D03*
X007629Y006569D03*
X007616Y006513D03*
X007616Y006506D03*
X007610Y006481D03*
X007610Y006475D03*
X007603Y006450D03*
X007597Y006418D03*
X007591Y006387D03*
X007585Y006361D03*
X007585Y006355D03*
X007578Y006330D03*
X007578Y006324D03*
X007572Y006298D03*
X007572Y006292D03*
X007566Y006267D03*
X007559Y006235D03*
X007547Y006179D03*
X007547Y006172D03*
X007540Y006147D03*
X007540Y006141D03*
X007528Y006084D03*
X007521Y006053D03*
X007515Y006028D03*
X007515Y006021D03*
X007509Y005996D03*
X007509Y005990D03*
X007503Y005965D03*
X007503Y005958D03*
X007496Y005933D03*
X007490Y005902D03*
X007484Y005870D03*
X007477Y005845D03*
X007477Y005839D03*
X007471Y005813D03*
X007471Y005807D03*
X007459Y005750D03*
X007452Y005719D03*
X007446Y005694D03*
X007446Y005687D03*
X007440Y005662D03*
X007440Y005656D03*
X007433Y005631D03*
X007433Y005624D03*
X007427Y005599D03*
X007421Y005568D03*
X007414Y005536D03*
X007408Y005511D03*
X007408Y005505D03*
X007402Y005479D03*
X007402Y005473D03*
X007389Y005416D03*
X007383Y005385D03*
X007370Y005328D03*
X007370Y005322D03*
X007364Y005297D03*
X007364Y005290D03*
X007358Y005265D03*
X007351Y005234D03*
X007345Y005202D03*
X007339Y005177D03*
X007339Y005171D03*
X007333Y005146D03*
X007333Y005139D03*
X007326Y005114D03*
X007320Y005083D03*
X007314Y005051D03*
X007301Y004994D03*
X007301Y004988D03*
X007295Y004963D03*
X007295Y004957D03*
X007288Y004931D03*
X007282Y004900D03*
X007276Y004868D03*
X015302Y004881D03*
X015308Y004906D03*
X015308Y004912D03*
X015315Y004938D03*
X015315Y004944D03*
X015321Y004969D03*
X015321Y004975D03*
X015327Y005001D03*
X015334Y005032D03*
X015346Y005095D03*
X015352Y005127D03*
X015359Y005152D03*
X015359Y005158D03*
X015365Y005183D03*
X015365Y005190D03*
X015371Y005215D03*
X015371Y005221D03*
X015378Y005246D03*
X015384Y005278D03*
X015390Y005309D03*
X015396Y005341D03*
X015403Y005372D03*
X015415Y005429D03*
X015415Y005435D03*
X015422Y005461D03*
X015422Y005467D03*
D201*
X014763Y004919D03*
X014776Y004894D03*
X014776Y004887D03*
X014782Y004875D03*
X014782Y004868D03*
X011821Y004900D03*
X011821Y004906D03*
X011809Y004925D03*
X009812Y007363D03*
X009812Y007369D03*
X009793Y007407D03*
X008602Y008636D03*
X008602Y008642D03*
X012665Y008642D03*
X012665Y008636D03*
X012678Y008617D03*
X012678Y008611D03*
X013818Y008636D03*
X013818Y008642D03*
X013831Y008617D03*
X013831Y008611D03*
X018090Y008648D03*
X018102Y008629D03*
X018102Y008623D03*
X018109Y008611D03*
X018109Y008604D03*
D202*
X018096Y008636D03*
X018096Y008642D03*
X013825Y008629D03*
X013825Y008623D03*
X013806Y008661D03*
X012672Y008629D03*
X012672Y008623D03*
X012653Y008661D03*
X009805Y007382D03*
X009805Y007376D03*
X009799Y007395D03*
X008615Y008611D03*
X008615Y008617D03*
X008608Y008623D03*
X008608Y008629D03*
X008596Y008648D03*
X008589Y008661D03*
X011815Y004919D03*
X011815Y004912D03*
X011828Y004887D03*
X011828Y004881D03*
X014770Y004906D03*
D203*
X015340Y005064D03*
X015409Y005398D03*
X015409Y005404D03*
X015428Y005492D03*
X015497Y005832D03*
X015567Y006166D03*
X015567Y006172D03*
X015586Y006261D03*
X015655Y006601D03*
X015724Y006935D03*
X015724Y006941D03*
X015743Y007029D03*
X015812Y007351D03*
X015812Y007357D03*
X017142Y006702D03*
X017072Y006374D03*
X017003Y006046D03*
X016984Y005958D03*
X016984Y005952D03*
X016915Y005631D03*
X016915Y005624D03*
X016846Y005303D03*
X016846Y005297D03*
X016827Y005215D03*
X016827Y005209D03*
X012889Y006777D03*
X012889Y006784D03*
X012908Y006872D03*
X012977Y007206D03*
X013047Y007540D03*
X013066Y007628D03*
X013066Y007634D03*
X013135Y007962D03*
X013135Y007968D03*
X013204Y008296D03*
X013204Y008302D03*
X013223Y008390D03*
X013292Y008655D03*
X011963Y007867D03*
X011944Y007773D03*
X011875Y007439D03*
X011875Y007432D03*
X011806Y007099D03*
X011787Y007004D03*
X011717Y006670D03*
X011717Y006664D03*
X012820Y006450D03*
X012820Y006443D03*
X012751Y006116D03*
X012751Y006109D03*
X012732Y006021D03*
X012662Y005687D03*
X012593Y005353D03*
X012574Y005265D03*
X012574Y005259D03*
X012505Y004931D03*
X012505Y004925D03*
X010142Y006154D03*
X010212Y006481D03*
X010231Y006569D03*
X010231Y006576D03*
X010300Y006897D03*
X010300Y006903D03*
X010369Y007225D03*
X010369Y007231D03*
X010388Y007313D03*
X010388Y007319D03*
X010457Y007640D03*
X010457Y007647D03*
X010527Y007968D03*
X010527Y007974D03*
X010546Y008056D03*
X010546Y008062D03*
X010615Y008384D03*
X010615Y008390D03*
X010684Y008648D03*
X010684Y008655D03*
X008026Y008485D03*
X008026Y008478D03*
X008007Y008390D03*
X007937Y008056D03*
X007868Y007722D03*
X007849Y007634D03*
X007849Y007628D03*
X007780Y007300D03*
X007780Y007294D03*
X007711Y006966D03*
X007711Y006960D03*
X007692Y006872D03*
X007622Y006538D03*
X007553Y006204D03*
X007534Y006116D03*
X007465Y005782D03*
X007396Y005448D03*
X007377Y005360D03*
X007377Y005353D03*
X007307Y005026D03*
X007307Y005020D03*
X008813Y005265D03*
X008882Y005599D03*
X008952Y005933D03*
X008952Y005939D03*
X008971Y006028D03*
X009040Y006361D03*
X009109Y006695D03*
X009109Y006702D03*
X010073Y005826D03*
X010054Y005738D03*
X009985Y005410D03*
X009916Y005083D03*
X009916Y005076D03*
X009897Y004994D03*
X009897Y004988D03*
X017387Y007861D03*
X017387Y007867D03*
D204*
X018118Y008548D03*
X018118Y008554D03*
X018118Y008560D03*
X018061Y008686D03*
X013840Y008566D03*
X013840Y008560D03*
X013840Y008554D03*
X013840Y008548D03*
X013790Y008680D03*
X012688Y008566D03*
X012688Y008560D03*
X012688Y008554D03*
X012688Y008548D03*
X012637Y008680D03*
X009821Y007313D03*
X009821Y007306D03*
X008624Y008548D03*
X008624Y008554D03*
X008624Y008560D03*
X008624Y008566D03*
X008574Y008680D03*
X014735Y004957D03*
D205*
X016285Y004982D03*
X016285Y004988D03*
X016285Y004994D03*
X016291Y005013D03*
X016291Y005020D03*
X016291Y005026D03*
X016297Y005045D03*
X016297Y005051D03*
X016297Y005057D03*
X016304Y005070D03*
X016304Y005076D03*
X016304Y005083D03*
X016304Y005089D03*
X016310Y005101D03*
X016310Y005108D03*
X016310Y005114D03*
X016310Y005120D03*
X016316Y005133D03*
X016316Y005139D03*
X016316Y005146D03*
X016323Y005158D03*
X016323Y005164D03*
X016323Y005171D03*
X016323Y005177D03*
X016921Y007999D03*
X011585Y008428D03*
X011585Y008434D03*
X011585Y008440D03*
X011579Y008409D03*
X011579Y008403D03*
X011579Y008396D03*
X011572Y008377D03*
X011572Y008371D03*
X011572Y008365D03*
X011566Y008352D03*
X011566Y008346D03*
X011566Y008340D03*
X011566Y008333D03*
X011560Y008321D03*
X011560Y008314D03*
X011560Y008308D03*
X011560Y008302D03*
X011554Y008289D03*
X011554Y008283D03*
X011554Y008277D03*
X011554Y008270D03*
X011547Y008258D03*
X011547Y008251D03*
X011547Y008245D03*
X011547Y008239D03*
X011541Y008233D03*
X011541Y008226D03*
X011541Y008220D03*
X011541Y008214D03*
X011535Y008201D03*
X011535Y008195D03*
X011535Y008188D03*
X011535Y008182D03*
X011528Y008170D03*
X011528Y008163D03*
X011528Y008157D03*
X011528Y008151D03*
X011522Y008138D03*
X011522Y008132D03*
X011522Y008125D03*
X011522Y008119D03*
X011516Y008113D03*
X011516Y008107D03*
X011516Y008100D03*
X011516Y008094D03*
X011516Y008088D03*
X011509Y008081D03*
X011509Y008075D03*
X011509Y008069D03*
X011509Y008062D03*
X011509Y008056D03*
X011503Y008050D03*
X011503Y008044D03*
X011503Y008037D03*
X011503Y008031D03*
X011497Y008018D03*
X011497Y008012D03*
X011497Y008006D03*
X011497Y007999D03*
X011491Y007987D03*
X011491Y007981D03*
X011491Y007974D03*
X011491Y007968D03*
X008719Y007199D03*
X008719Y007193D03*
X008712Y007168D03*
X008712Y007162D03*
X008706Y007136D03*
X008706Y007130D03*
X008700Y007111D03*
X008700Y007105D03*
X008693Y007080D03*
X008693Y007073D03*
X008687Y007048D03*
X008687Y007042D03*
X008681Y007017D03*
X008681Y007010D03*
X008674Y006985D03*
X008674Y006979D03*
X008668Y006954D03*
X008668Y006947D03*
X008662Y006928D03*
X008662Y006922D03*
X008656Y006897D03*
X008656Y006891D03*
X008649Y006865D03*
X008649Y006859D03*
X008643Y006834D03*
X008643Y006828D03*
X008637Y006802D03*
X008637Y006796D03*
X008630Y006777D03*
X008630Y006771D03*
X008630Y006765D03*
X008624Y006746D03*
X008624Y006739D03*
X008624Y006733D03*
X008296Y005164D03*
X008296Y005158D03*
X008296Y005152D03*
X008290Y005133D03*
X008290Y005127D03*
X008290Y005120D03*
X008284Y005108D03*
X008284Y005101D03*
X008284Y005095D03*
X008284Y005089D03*
X008278Y005076D03*
X008278Y005070D03*
X008278Y005064D03*
X008278Y005057D03*
X008271Y005045D03*
X008271Y005038D03*
X008271Y005032D03*
X008271Y005026D03*
X008265Y005013D03*
X008265Y005007D03*
X008265Y005001D03*
X008265Y004994D03*
X008259Y004982D03*
D206*
X008262Y004988D03*
X008274Y005051D03*
X008281Y005083D03*
X008293Y005139D03*
X008293Y005146D03*
X008300Y005171D03*
X008300Y005177D03*
X008627Y006752D03*
X008627Y006758D03*
X008633Y006784D03*
X008633Y006790D03*
X008646Y006840D03*
X008646Y006847D03*
X008646Y006853D03*
X008659Y006903D03*
X008659Y006910D03*
X008659Y006916D03*
X008665Y006935D03*
X008665Y006941D03*
X008678Y006991D03*
X008678Y006998D03*
X008678Y007004D03*
X008684Y007023D03*
X008684Y007029D03*
X008684Y007036D03*
X008696Y007086D03*
X008696Y007092D03*
X008696Y007099D03*
X008703Y007117D03*
X008703Y007124D03*
X008715Y007174D03*
X008715Y007180D03*
X008715Y007187D03*
X011531Y008176D03*
X011538Y008207D03*
X011550Y008264D03*
X011569Y008359D03*
X011582Y008415D03*
X011582Y008422D03*
X011588Y008447D03*
X011588Y008453D03*
X016313Y005127D03*
X016307Y005095D03*
X016294Y005038D03*
X016294Y005032D03*
D207*
X011122Y004994D03*
X011122Y004988D03*
D208*
X011119Y005001D03*
X011226Y005505D03*
X009052Y007540D03*
D209*
X008722Y007212D03*
X008722Y007206D03*
X008709Y007155D03*
X008709Y007149D03*
X008709Y007143D03*
X008690Y007067D03*
X008690Y007061D03*
X008690Y007054D03*
X008671Y006973D03*
X008671Y006966D03*
X008671Y006960D03*
X008652Y006884D03*
X008652Y006878D03*
X008652Y006872D03*
X008640Y006821D03*
X008640Y006815D03*
X008640Y006809D03*
X008621Y006727D03*
X008287Y005114D03*
X008268Y005020D03*
X011525Y008144D03*
X011557Y008296D03*
X011563Y008327D03*
X011576Y008384D03*
X011576Y008390D03*
X016319Y005152D03*
X016301Y005064D03*
X016288Y005007D03*
X016288Y005001D03*
D210*
X011113Y005013D03*
X009046Y007546D03*
D211*
X009040Y007558D03*
X011113Y005020D03*
D212*
X011109Y005026D03*
X011109Y005032D03*
X011727Y008894D03*
D213*
X013897Y005026D03*
D214*
X011198Y005492D03*
X011103Y005045D03*
X009037Y007571D03*
X017189Y008888D03*
D215*
X013888Y005045D03*
D216*
X011103Y005051D03*
X009030Y007577D03*
D217*
X009027Y007584D03*
X011100Y005057D03*
D218*
X011434Y005908D03*
X011440Y005939D03*
X013878Y005070D03*
X011730Y008831D03*
D219*
X016600Y007489D03*
X011176Y005486D03*
X011087Y005076D03*
D220*
X011087Y005083D03*
X009015Y007603D03*
X016606Y007508D03*
X016606Y007502D03*
X016612Y007514D03*
D221*
X013872Y005083D03*
X011390Y005738D03*
X011383Y005725D03*
D222*
X011084Y005089D03*
X016616Y007521D03*
D223*
X013869Y005089D03*
X011380Y005713D03*
X011380Y005719D03*
X011374Y005700D03*
D224*
X011078Y005095D03*
X009005Y007615D03*
X016622Y007533D03*
D225*
X016625Y007540D03*
X016631Y007546D03*
X016820Y008434D03*
X016820Y008440D03*
X016820Y008447D03*
X016820Y008453D03*
X011075Y005101D03*
D226*
X011068Y005114D03*
X016650Y007571D03*
D227*
X016814Y008321D03*
X016814Y008327D03*
X016814Y008333D03*
X011062Y005120D03*
D228*
X011327Y005612D03*
X013847Y005120D03*
D229*
X011056Y005127D03*
X016663Y007590D03*
X016814Y008296D03*
X016814Y008302D03*
X016814Y008308D03*
D230*
X016814Y008283D03*
X016814Y008277D03*
X016669Y007596D03*
X011050Y005133D03*
D231*
X011040Y005146D03*
X016823Y008226D03*
D232*
X016827Y008201D03*
X016701Y007628D03*
X011031Y005152D03*
D233*
X011024Y005158D03*
X016713Y007634D03*
D234*
X013809Y005158D03*
X009071Y007470D03*
D235*
X011012Y005164D03*
X016833Y008157D03*
X016833Y008163D03*
D236*
X016842Y008132D03*
X016742Y007653D03*
X011002Y005171D03*
D237*
X010990Y005177D03*
D238*
X011254Y005524D03*
D239*
X011267Y005536D03*
D240*
X011273Y005542D03*
X009074Y007464D03*
X017189Y008863D03*
D241*
X011730Y008869D03*
X011295Y005568D03*
D242*
X011302Y005574D03*
D243*
X011333Y005618D03*
D244*
X011342Y005637D03*
D245*
X011349Y005643D03*
D246*
X011368Y005681D03*
X011368Y005687D03*
D247*
X011402Y005776D03*
X011402Y005782D03*
D248*
X010571Y006002D03*
D249*
X010568Y006009D03*
X010612Y006210D03*
X017264Y007237D03*
X017302Y007395D03*
X017302Y007401D03*
D250*
X017274Y007243D03*
X013607Y008900D03*
X010564Y006015D03*
X008221Y007237D03*
X008391Y008900D03*
D251*
X008262Y007458D03*
X010599Y006204D03*
X010561Y006021D03*
X017277Y007250D03*
X017302Y007382D03*
X017302Y007388D03*
D252*
X017305Y007376D03*
X017305Y007369D03*
X017305Y007363D03*
X010558Y006028D03*
D253*
X010561Y006034D03*
X010593Y006191D03*
X008211Y007250D03*
X008211Y007256D03*
X017283Y007262D03*
X017283Y007269D03*
X017290Y007275D03*
X017290Y007281D03*
X017302Y007357D03*
D254*
X017305Y007351D03*
X017305Y007344D03*
X017305Y007338D03*
X017299Y007319D03*
X017299Y007313D03*
X017299Y007306D03*
X017293Y007294D03*
X017293Y007288D03*
X010558Y006046D03*
X010558Y006040D03*
X008252Y007451D03*
X008208Y007262D03*
D255*
X010586Y006185D03*
X010555Y006059D03*
X010555Y006053D03*
D256*
X010558Y006065D03*
X010558Y006072D03*
X010577Y006166D03*
X010583Y006179D03*
X008208Y007269D03*
X008240Y007439D03*
D257*
X008237Y007432D03*
X008205Y007281D03*
X008205Y007275D03*
X010568Y006147D03*
X010568Y006141D03*
X010574Y006154D03*
X010574Y006160D03*
X010561Y006116D03*
X010555Y006084D03*
X010555Y006078D03*
D258*
X010558Y006091D03*
X010558Y006097D03*
X010558Y006103D03*
X010558Y006109D03*
D259*
X010564Y006122D03*
X010564Y006128D03*
X010564Y006135D03*
X008202Y007288D03*
X008233Y007426D03*
D260*
X008249Y007445D03*
X010580Y006172D03*
X017296Y007300D03*
X017302Y007325D03*
X017302Y007332D03*
D261*
X017280Y007256D03*
X010596Y006198D03*
D262*
X011125Y006223D03*
X011125Y006229D03*
X011125Y006235D03*
X011138Y006273D03*
X011138Y006280D03*
X011138Y006286D03*
X011138Y006292D03*
X011144Y006305D03*
X011144Y006311D03*
X011144Y006317D03*
X011144Y006324D03*
X011157Y006368D03*
X011157Y006374D03*
X011157Y006380D03*
X011157Y006387D03*
X016650Y006739D03*
X016650Y006746D03*
X016657Y006771D03*
X016657Y006777D03*
X016669Y006828D03*
X016669Y006834D03*
X016688Y006916D03*
X016688Y006922D03*
X016688Y006928D03*
X016701Y006979D03*
X016701Y006985D03*
X016701Y006991D03*
X016707Y007010D03*
X016707Y007017D03*
X016707Y007023D03*
X016720Y007067D03*
X016720Y007073D03*
X016720Y007080D03*
X016726Y007099D03*
X016726Y007105D03*
X016726Y007111D03*
X016738Y007155D03*
X016738Y007162D03*
X016738Y007168D03*
X016738Y007174D03*
X016915Y008006D03*
D263*
X016748Y007212D03*
X016742Y007180D03*
X016735Y007149D03*
X016729Y007117D03*
X016723Y007092D03*
X016723Y007086D03*
X016716Y007061D03*
X016710Y007029D03*
X016704Y007004D03*
X016704Y006998D03*
X016697Y006973D03*
X016697Y006966D03*
X016691Y006941D03*
X016691Y006935D03*
X016685Y006910D03*
X016685Y006903D03*
X016679Y006884D03*
X016679Y006878D03*
X016679Y006872D03*
X016672Y006853D03*
X016672Y006847D03*
X016672Y006840D03*
X016666Y006821D03*
X016666Y006815D03*
X016660Y006790D03*
X016660Y006784D03*
X016653Y006765D03*
X016653Y006758D03*
X016653Y006752D03*
X016647Y006733D03*
X016647Y006727D03*
X011494Y007993D03*
X011500Y008025D03*
X011166Y006424D03*
X011166Y006418D03*
X011160Y006393D03*
X011153Y006361D03*
X011147Y006330D03*
X011141Y006298D03*
X011128Y006242D03*
D264*
X011131Y006248D03*
X011131Y006254D03*
X011131Y006261D03*
X011131Y006267D03*
X011150Y006336D03*
X011150Y006343D03*
X011150Y006349D03*
X011150Y006355D03*
X011163Y006399D03*
X011163Y006406D03*
X011163Y006412D03*
X016663Y006796D03*
X016663Y006802D03*
X016663Y006809D03*
X016675Y006859D03*
X016675Y006865D03*
X016682Y006891D03*
X016682Y006897D03*
X016694Y006947D03*
X016694Y006954D03*
X016694Y006960D03*
X016713Y007036D03*
X016713Y007042D03*
X016713Y007048D03*
X016713Y007054D03*
X016732Y007124D03*
X016732Y007130D03*
X016732Y007136D03*
X016732Y007143D03*
X016745Y007187D03*
X016745Y007193D03*
X016745Y007199D03*
X016745Y007206D03*
D265*
X017261Y007231D03*
X017299Y007407D03*
X008221Y007231D03*
D266*
X008218Y007243D03*
D267*
X008205Y007294D03*
X008205Y007300D03*
X008224Y007414D03*
X008230Y007420D03*
D268*
X008221Y007407D03*
X008202Y007319D03*
X008202Y007313D03*
X008202Y007306D03*
D269*
X008205Y007325D03*
X008205Y007332D03*
X008205Y007338D03*
X008205Y007344D03*
X008205Y007351D03*
X008211Y007376D03*
X008211Y007382D03*
D270*
X008215Y007388D03*
X008208Y007369D03*
X008208Y007363D03*
X008208Y007357D03*
D271*
X008054Y008604D03*
X008060Y008623D03*
X008066Y008636D03*
X008073Y008648D03*
X010662Y008598D03*
X010668Y008617D03*
X010668Y008623D03*
X010675Y008629D03*
X010675Y008636D03*
X013270Y008604D03*
X013277Y008623D03*
X013283Y008636D03*
X013289Y008648D03*
X015822Y007382D03*
X015828Y007395D03*
X015834Y007407D03*
X015815Y007369D03*
X015815Y007363D03*
X017296Y007414D03*
X017296Y007420D03*
X016156Y008611D03*
X016162Y008623D03*
X016168Y008636D03*
D272*
X008218Y007401D03*
X008218Y007395D03*
D273*
X009065Y007495D03*
D274*
X016603Y007495D03*
D275*
X009062Y007502D03*
D276*
X009059Y007514D03*
X009059Y007521D03*
D277*
X016619Y007527D03*
D278*
X009052Y007533D03*
D279*
X009037Y007565D03*
D280*
X008993Y007628D03*
X016653Y007577D03*
X016811Y008340D03*
D281*
X016660Y007584D03*
X011727Y008907D03*
D282*
X008977Y007640D03*
X016675Y007603D03*
D283*
X009008Y007609D03*
D284*
X016682Y007609D03*
D285*
X016688Y007615D03*
X016820Y008233D03*
X016820Y008239D03*
D286*
X016814Y008377D03*
X016814Y008384D03*
X016814Y008390D03*
X016814Y008396D03*
X016814Y008403D03*
X008996Y007621D03*
D287*
X016694Y007621D03*
X016820Y008220D03*
X017186Y008907D03*
D288*
X016811Y008314D03*
X008986Y007634D03*
D289*
X016723Y007640D03*
D290*
X008967Y007647D03*
D291*
X016729Y007647D03*
X016836Y008151D03*
D292*
X008958Y007653D03*
D293*
X008945Y007659D03*
X016833Y008170D03*
D294*
X016852Y008100D03*
X016757Y007659D03*
D295*
X016846Y008119D03*
X016846Y008125D03*
X008920Y007666D03*
D296*
X016786Y007666D03*
X016868Y008069D03*
D297*
X016997Y007968D03*
D298*
X016965Y007974D03*
D299*
X016949Y007981D03*
D300*
X016937Y007987D03*
D301*
X016931Y007993D03*
D302*
X016909Y008012D03*
D303*
X016905Y008018D03*
D304*
X016899Y008025D03*
D305*
X016893Y008031D03*
D306*
X016886Y008037D03*
D307*
X016883Y008044D03*
D308*
X016880Y008050D03*
D309*
X016877Y008056D03*
D310*
X016871Y008062D03*
D311*
X016864Y008075D03*
D312*
X016864Y008081D03*
D313*
X016861Y008088D03*
D314*
X016858Y008094D03*
D315*
X016852Y008107D03*
D316*
X016849Y008113D03*
D317*
X016842Y008138D03*
D318*
X016839Y008144D03*
D319*
X016830Y008176D03*
X016830Y008182D03*
D320*
X016827Y008188D03*
D321*
X016823Y008195D03*
D322*
X016823Y008207D03*
X016823Y008214D03*
D323*
X016817Y008258D03*
X016817Y008264D03*
X016817Y008270D03*
D324*
X016817Y008289D03*
D325*
X016817Y008409D03*
X016817Y008415D03*
X016817Y008422D03*
X016817Y008428D03*
D326*
X016187Y008459D03*
D327*
X016178Y008466D03*
D328*
X016171Y008472D03*
D329*
X013607Y008705D03*
X008391Y008705D03*
D330*
X008391Y008711D03*
X008391Y008718D03*
X013607Y008718D03*
D331*
X013610Y008711D03*
D332*
X011730Y008749D03*
X017186Y008711D03*
D333*
X013607Y008724D03*
X008391Y008724D03*
D334*
X008391Y008730D03*
X013607Y008730D03*
D335*
X013607Y008737D03*
X008391Y008737D03*
X008391Y008743D03*
D336*
X011727Y008737D03*
D337*
X013610Y008743D03*
D338*
X013607Y008749D03*
X008391Y008749D03*
D339*
X008391Y008755D03*
D340*
X011730Y008755D03*
D341*
X013607Y008755D03*
D342*
X013607Y008762D03*
X008391Y008762D03*
D343*
X008391Y008768D03*
X013607Y008768D03*
D344*
X013607Y008774D03*
X008391Y008774D03*
D345*
X008391Y008781D03*
X013607Y008781D03*
D346*
X011727Y008806D03*
X017189Y008781D03*
D347*
X013607Y008787D03*
X008391Y008787D03*
D348*
X008391Y008793D03*
X013607Y008793D03*
D349*
X011730Y008793D03*
D350*
X013610Y008800D03*
X008394Y008800D03*
D351*
X008391Y008806D03*
X013607Y008806D03*
D352*
X017189Y008825D03*
D353*
X013607Y008831D03*
D354*
X013607Y008863D03*
X008391Y008863D03*
D355*
X011727Y008863D03*
D356*
X008391Y008869D03*
D357*
X013607Y008869D03*
D358*
X013610Y008875D03*
X008394Y008875D03*
D359*
X008391Y008881D03*
X013607Y008881D03*
D360*
X017186Y008894D03*
D361*
X013610Y008907D03*
X008394Y008907D03*
D362*
X019352Y007580D02*
X020102Y007580D01*
X020102Y010580D01*
X021852Y010580D01*
X021852Y007580D01*
X020102Y007580D01*
X019352Y007580D02*
X019352Y010580D01*
X020102Y010580D01*
X020102Y006580D02*
X019352Y006580D01*
X019352Y003580D01*
X020102Y003580D01*
X020102Y006580D01*
X021852Y006580D01*
X021852Y003580D01*
X020102Y003580D01*
D363*
X000980Y010500D02*
X000982Y010535D01*
X000988Y010570D01*
X000998Y010604D01*
X001011Y010637D01*
X001028Y010668D01*
X001049Y010696D01*
X001072Y010723D01*
X001099Y010746D01*
X001127Y010767D01*
X001158Y010784D01*
X001191Y010797D01*
X001225Y010807D01*
X001260Y010813D01*
X001295Y010815D01*
X001330Y010813D01*
X001365Y010807D01*
X001399Y010797D01*
X001432Y010784D01*
X001463Y010767D01*
X001491Y010746D01*
X001518Y010723D01*
X001541Y010696D01*
X001562Y010668D01*
X001579Y010637D01*
X001592Y010604D01*
X001602Y010570D01*
X001608Y010535D01*
X001610Y010500D01*
X001608Y010465D01*
X001602Y010430D01*
X001592Y010396D01*
X001579Y010363D01*
X001562Y010332D01*
X001541Y010304D01*
X001518Y010277D01*
X001491Y010254D01*
X001463Y010233D01*
X001432Y010216D01*
X001399Y010203D01*
X001365Y010193D01*
X001330Y010187D01*
X001295Y010185D01*
X001260Y010187D01*
X001225Y010193D01*
X001191Y010203D01*
X001158Y010216D01*
X001127Y010233D01*
X001099Y010254D01*
X001072Y010277D01*
X001049Y010304D01*
X001028Y010332D01*
X001011Y010363D01*
X000998Y010396D01*
X000988Y010430D01*
X000982Y010465D01*
X000980Y010500D01*
M02*
