G75*
%MOIN*%
%OFA0B0*%
%FSLAX25Y25*%
%IPPOS*%
%LPD*%
%AMOC8*
5,1,8,0,0,1.08239X$1,22.5*
%
%ADD10C,0.00400*%
%ADD11C,0.00000*%
%ADD12C,0.00600*%
%ADD13C,0.00800*%
%ADD14C,0.00500*%
%ADD15C,0.00300*%
%ADD16C,0.02200*%
%ADD17C,0.00200*%
%ADD18C,0.00787*%
D10*
X0073331Y0030600D02*
X0075733Y0030600D01*
X0074532Y0030600D02*
X0074532Y0034203D01*
X0075733Y0033002D01*
X0077014Y0034203D02*
X0077014Y0030600D01*
X0079416Y0034203D01*
X0079416Y0030600D01*
X0080697Y0030600D02*
X0081898Y0031801D01*
X0081298Y0031801D02*
X0083099Y0031801D01*
X0083099Y0030600D02*
X0083099Y0034203D01*
X0081298Y0034203D01*
X0080697Y0033603D01*
X0080697Y0032402D01*
X0081298Y0031801D01*
X0080686Y0007734D02*
X0079652Y0007734D01*
X0079135Y0007216D01*
X0079135Y0006699D01*
X0081203Y0004631D01*
X0079135Y0004631D01*
X0077981Y0005148D02*
X0075912Y0007216D01*
X0075912Y0005148D01*
X0076429Y0004631D01*
X0077463Y0004631D01*
X0077981Y0005148D01*
X0077981Y0007216D01*
X0077463Y0007734D01*
X0076429Y0007734D01*
X0075912Y0007216D01*
X0080686Y0007734D02*
X0081203Y0007216D01*
X0082358Y0007734D02*
X0084426Y0004631D01*
X0085580Y0004631D02*
X0087649Y0004631D01*
X0086615Y0004631D02*
X0086615Y0007734D01*
X0087649Y0006699D01*
X0088803Y0004631D02*
X0090872Y0004631D01*
X0089837Y0004631D02*
X0089837Y0007734D01*
X0090872Y0006699D01*
X0095249Y0006182D02*
X0095249Y0004631D01*
X0095249Y0006182D02*
X0095766Y0006699D01*
X0097317Y0006699D01*
X0097317Y0004631D01*
X0098471Y0005148D02*
X0098471Y0006182D01*
X0098988Y0006699D01*
X0100023Y0006699D01*
X0100540Y0006182D01*
X0100540Y0005148D01*
X0100023Y0004631D01*
X0098988Y0004631D01*
X0098471Y0005148D01*
X0101694Y0005148D02*
X0102211Y0005665D01*
X0103245Y0005665D01*
X0103763Y0006182D01*
X0103245Y0006699D01*
X0101694Y0006699D01*
X0101694Y0005148D02*
X0102211Y0004631D01*
X0103763Y0004631D01*
X0104897Y0006699D02*
X0105414Y0006699D01*
X0106448Y0005665D01*
X0106448Y0004631D02*
X0106448Y0006699D01*
X0107602Y0006182D02*
X0107602Y0005665D01*
X0109671Y0005665D01*
X0109671Y0005148D02*
X0109671Y0006182D01*
X0109154Y0006699D01*
X0108120Y0006699D01*
X0107602Y0006182D01*
X0108120Y0004631D02*
X0109154Y0004631D01*
X0109671Y0005148D01*
X0110825Y0004631D02*
X0110825Y0006182D01*
X0111342Y0006699D01*
X0112377Y0006699D01*
X0112894Y0006182D01*
X0114048Y0006182D02*
X0114565Y0005665D01*
X0116116Y0005665D01*
X0116116Y0004631D02*
X0116116Y0007734D01*
X0114565Y0007734D01*
X0114048Y0007216D01*
X0114048Y0006182D01*
X0112894Y0004631D02*
X0112894Y0007734D01*
X0117271Y0006699D02*
X0118822Y0006699D01*
X0119339Y0006182D01*
X0119339Y0005148D01*
X0118822Y0004631D01*
X0117271Y0004631D01*
X0120493Y0004631D02*
X0120493Y0007734D01*
X0121528Y0006699D01*
X0122562Y0007734D01*
X0122562Y0004631D01*
X0126879Y0004631D02*
X0127396Y0004631D01*
X0127396Y0005148D01*
X0126879Y0005148D01*
X0126879Y0004631D01*
X0128550Y0004631D02*
X0128550Y0006699D01*
X0129585Y0007734D01*
X0130619Y0006699D01*
X0130619Y0004631D01*
X0130619Y0006182D02*
X0128550Y0006182D01*
X0060872Y0072899D02*
X0059671Y0072899D01*
X0060271Y0072899D02*
X0060271Y0076502D01*
X0059671Y0076502D02*
X0060872Y0076502D01*
X0058416Y0075902D02*
X0058416Y0073500D01*
X0057816Y0072899D01*
X0056615Y0072899D01*
X0056014Y0073500D01*
X0054733Y0073500D02*
X0054733Y0074701D01*
X0052932Y0074701D01*
X0052331Y0074100D01*
X0052331Y0073500D01*
X0052932Y0072899D01*
X0054133Y0072899D01*
X0054733Y0073500D01*
X0054733Y0074701D02*
X0053532Y0075902D01*
X0052331Y0076502D01*
X0056014Y0075902D02*
X0056615Y0076502D01*
X0057816Y0076502D01*
X0058416Y0075902D01*
X0130808Y0078902D02*
X0133877Y0078902D01*
X0131575Y0081204D01*
X0131575Y0076600D01*
X0135411Y0077367D02*
X0136179Y0076600D01*
X0137713Y0076600D01*
X0138481Y0077367D01*
X0138481Y0080437D01*
X0137713Y0081204D01*
X0136179Y0081204D01*
X0135411Y0080437D01*
X0140015Y0081204D02*
X0141550Y0081204D01*
X0140783Y0081204D02*
X0140783Y0076600D01*
X0141550Y0076600D02*
X0140015Y0076600D01*
X0139506Y0133600D02*
X0139506Y0135668D01*
X0137954Y0135668D01*
X0137437Y0135151D01*
X0137437Y0133600D01*
X0136283Y0133600D02*
X0134732Y0133600D01*
X0134215Y0134117D01*
X0134732Y0134634D01*
X0135766Y0134634D01*
X0136283Y0135151D01*
X0135766Y0135668D01*
X0134215Y0135668D01*
X0133060Y0135668D02*
X0132026Y0135668D01*
X0132543Y0136186D02*
X0132543Y0134117D01*
X0132026Y0133600D01*
X0130912Y0133600D02*
X0130912Y0135668D01*
X0130912Y0134634D02*
X0129878Y0135668D01*
X0129360Y0135668D01*
X0128226Y0135668D02*
X0128226Y0134117D01*
X0127709Y0133600D01*
X0126158Y0133600D01*
X0126158Y0135668D01*
X0125003Y0135668D02*
X0124486Y0135668D01*
X0123969Y0135151D01*
X0123452Y0135668D01*
X0122935Y0135151D01*
X0122935Y0133600D01*
X0123969Y0133600D02*
X0123969Y0135151D01*
X0125003Y0135668D02*
X0125003Y0133600D01*
X0121781Y0134117D02*
X0121781Y0135151D01*
X0121264Y0135668D01*
X0120229Y0135668D01*
X0119712Y0135151D01*
X0119712Y0134634D01*
X0121781Y0134634D01*
X0121781Y0134117D02*
X0121264Y0133600D01*
X0120229Y0133600D01*
X0118558Y0133600D02*
X0118558Y0135668D01*
X0117007Y0135668D01*
X0116489Y0135151D01*
X0116489Y0133600D01*
X0114818Y0134117D02*
X0114301Y0133600D01*
X0114818Y0134117D02*
X0114818Y0136186D01*
X0115335Y0135668D02*
X0114301Y0135668D01*
X0113187Y0135151D02*
X0112670Y0135668D01*
X0111118Y0135668D01*
X0111635Y0134634D02*
X0112670Y0134634D01*
X0113187Y0135151D01*
X0113187Y0133600D02*
X0111635Y0133600D01*
X0111118Y0134117D01*
X0111635Y0134634D01*
X0106741Y0133600D02*
X0106741Y0136703D01*
X0103518Y0135668D02*
X0102484Y0135668D01*
X0103001Y0136186D02*
X0103001Y0134117D01*
X0102484Y0133600D01*
X0101370Y0134117D02*
X0100853Y0133600D01*
X0099301Y0133600D01*
X0099301Y0136703D01*
X0099301Y0135668D02*
X0100853Y0135668D01*
X0101370Y0135151D01*
X0101370Y0134117D01*
X0104673Y0133600D02*
X0106741Y0133600D01*
X0140620Y0133600D02*
X0141654Y0133600D01*
X0141137Y0133600D02*
X0141137Y0136703D01*
X0141654Y0136703D02*
X0140620Y0136703D01*
X0146031Y0136703D02*
X0146031Y0133600D01*
X0147583Y0133600D01*
X0148100Y0134117D01*
X0148100Y0135151D01*
X0147583Y0135668D01*
X0146031Y0135668D01*
X0149254Y0135151D02*
X0149254Y0134634D01*
X0151323Y0134634D01*
X0151323Y0134117D02*
X0151323Y0135151D01*
X0150805Y0135668D01*
X0149771Y0135668D01*
X0149254Y0135151D01*
X0149771Y0133600D02*
X0150805Y0133600D01*
X0151323Y0134117D01*
X0152437Y0133600D02*
X0152954Y0134117D01*
X0152954Y0136186D01*
X0153471Y0135668D02*
X0152437Y0135668D01*
X0154625Y0135151D02*
X0154625Y0133600D01*
X0154625Y0135151D02*
X0155142Y0135668D01*
X0156694Y0135668D01*
X0156694Y0133600D01*
X0157848Y0134634D02*
X0159917Y0134634D01*
X0159917Y0134117D02*
X0159917Y0135151D01*
X0159399Y0135668D01*
X0158365Y0135668D01*
X0157848Y0135151D01*
X0157848Y0134634D01*
X0158365Y0133600D02*
X0159399Y0133600D01*
X0159917Y0134117D01*
X0161071Y0133600D02*
X0161071Y0135151D01*
X0161588Y0135668D01*
X0162105Y0135151D01*
X0162105Y0133600D01*
X0163139Y0133600D02*
X0163139Y0135668D01*
X0162622Y0135668D01*
X0162105Y0135151D01*
X0164294Y0135668D02*
X0164294Y0133083D01*
X0164811Y0132566D01*
X0165328Y0132566D01*
X0165845Y0133600D02*
X0164294Y0133600D01*
X0165845Y0133600D02*
X0166362Y0134117D01*
X0166362Y0135151D01*
X0165845Y0135668D01*
X0164294Y0135668D01*
X0167516Y0135668D02*
X0167516Y0133600D01*
X0169068Y0133600D01*
X0169585Y0134117D01*
X0169585Y0135668D01*
X0170739Y0135668D02*
X0170739Y0133600D01*
X0170739Y0135151D02*
X0172808Y0135151D01*
X0172808Y0135668D02*
X0172808Y0133600D01*
X0172808Y0135668D02*
X0171773Y0136703D01*
X0170739Y0135668D01*
X0177145Y0135668D02*
X0177145Y0134634D01*
X0178179Y0133600D01*
X0179333Y0133600D02*
X0180884Y0133600D01*
X0181402Y0134117D01*
X0181402Y0135151D01*
X0180884Y0135668D01*
X0179333Y0135668D01*
X0178179Y0136703D02*
X0177145Y0135668D01*
X0182516Y0136703D02*
X0183550Y0135668D01*
X0183550Y0134634D01*
X0182516Y0133600D01*
D11*
X0179915Y0139695D02*
X0042120Y0139695D01*
X0041169Y0139684D01*
X0040218Y0139649D01*
X0039268Y0139592D01*
X0038320Y0139511D01*
X0037374Y0139408D01*
X0036431Y0139282D01*
X0035492Y0139133D01*
X0034556Y0138962D01*
X0033625Y0138767D01*
X0032698Y0138551D01*
X0031777Y0138312D01*
X0030862Y0138051D01*
X0029954Y0137768D01*
X0029053Y0137463D01*
X0028159Y0137137D01*
X0027274Y0136788D01*
X0026397Y0136419D01*
X0025529Y0136029D01*
X0024672Y0135617D01*
X0023824Y0135185D01*
X0022987Y0134733D01*
X0022161Y0134261D01*
X0021347Y0133769D01*
X0020545Y0133257D01*
X0019755Y0132726D01*
X0018979Y0132176D01*
X0018216Y0131608D01*
X0017467Y0131021D01*
X0016733Y0130416D01*
X0016013Y0129794D01*
X0015308Y0129154D01*
X0014620Y0128498D01*
X0013947Y0127825D01*
X0013291Y0127137D01*
X0012651Y0126432D01*
X0012029Y0125712D01*
X0011424Y0124978D01*
X0010837Y0124229D01*
X0010269Y0123466D01*
X0009719Y0122690D01*
X0009188Y0121900D01*
X0008676Y0121098D01*
X0008184Y0120284D01*
X0007712Y0119458D01*
X0007260Y0118621D01*
X0006828Y0117773D01*
X0006416Y0116916D01*
X0006026Y0116048D01*
X0005657Y0115171D01*
X0005308Y0114286D01*
X0004982Y0113392D01*
X0004677Y0112491D01*
X0004394Y0111583D01*
X0004133Y0110668D01*
X0003894Y0109747D01*
X0003678Y0108820D01*
X0003483Y0107889D01*
X0003312Y0106953D01*
X0003163Y0106014D01*
X0003037Y0105071D01*
X0002934Y0104125D01*
X0002853Y0103177D01*
X0002796Y0102227D01*
X0002761Y0101276D01*
X0002750Y0100325D01*
X0002750Y0041270D01*
X0002761Y0040319D01*
X0002796Y0039368D01*
X0002853Y0038418D01*
X0002934Y0037470D01*
X0003037Y0036524D01*
X0003163Y0035581D01*
X0003312Y0034642D01*
X0003483Y0033706D01*
X0003678Y0032775D01*
X0003894Y0031848D01*
X0004133Y0030927D01*
X0004394Y0030012D01*
X0004677Y0029104D01*
X0004982Y0028203D01*
X0005308Y0027309D01*
X0005657Y0026424D01*
X0006026Y0025547D01*
X0006416Y0024679D01*
X0006828Y0023822D01*
X0007260Y0022974D01*
X0007712Y0022137D01*
X0008184Y0021311D01*
X0008676Y0020497D01*
X0009188Y0019695D01*
X0009719Y0018905D01*
X0010269Y0018129D01*
X0010837Y0017366D01*
X0011424Y0016617D01*
X0012029Y0015883D01*
X0012651Y0015163D01*
X0013291Y0014458D01*
X0013947Y0013770D01*
X0014620Y0013097D01*
X0015308Y0012441D01*
X0016013Y0011801D01*
X0016733Y0011179D01*
X0017467Y0010574D01*
X0018216Y0009987D01*
X0018979Y0009419D01*
X0019755Y0008869D01*
X0020545Y0008338D01*
X0021347Y0007826D01*
X0022161Y0007334D01*
X0022987Y0006862D01*
X0023824Y0006410D01*
X0024672Y0005978D01*
X0025529Y0005566D01*
X0026397Y0005176D01*
X0027274Y0004807D01*
X0028159Y0004458D01*
X0029053Y0004132D01*
X0029954Y0003827D01*
X0030862Y0003544D01*
X0031777Y0003283D01*
X0032698Y0003044D01*
X0033625Y0002828D01*
X0034556Y0002633D01*
X0035492Y0002462D01*
X0036431Y0002313D01*
X0037374Y0002187D01*
X0038320Y0002084D01*
X0039268Y0002003D01*
X0040218Y0001946D01*
X0041169Y0001911D01*
X0042120Y0001900D01*
X0179915Y0001900D01*
X0180866Y0001911D01*
X0181817Y0001946D01*
X0182767Y0002003D01*
X0183715Y0002084D01*
X0184661Y0002187D01*
X0185604Y0002313D01*
X0186543Y0002462D01*
X0187479Y0002633D01*
X0188410Y0002828D01*
X0189337Y0003044D01*
X0190258Y0003283D01*
X0191173Y0003544D01*
X0192081Y0003827D01*
X0192982Y0004132D01*
X0193876Y0004458D01*
X0194761Y0004807D01*
X0195638Y0005176D01*
X0196506Y0005566D01*
X0197363Y0005978D01*
X0198211Y0006410D01*
X0199048Y0006862D01*
X0199874Y0007334D01*
X0200688Y0007826D01*
X0201490Y0008338D01*
X0202280Y0008869D01*
X0203056Y0009419D01*
X0203819Y0009987D01*
X0204568Y0010574D01*
X0205302Y0011179D01*
X0206022Y0011801D01*
X0206727Y0012441D01*
X0207415Y0013097D01*
X0208088Y0013770D01*
X0208744Y0014458D01*
X0209384Y0015163D01*
X0210006Y0015883D01*
X0210611Y0016617D01*
X0211198Y0017366D01*
X0211766Y0018129D01*
X0212316Y0018905D01*
X0212847Y0019695D01*
X0213359Y0020497D01*
X0213851Y0021311D01*
X0214323Y0022137D01*
X0214775Y0022974D01*
X0215207Y0023822D01*
X0215619Y0024679D01*
X0216009Y0025547D01*
X0216378Y0026424D01*
X0216727Y0027309D01*
X0217053Y0028203D01*
X0217358Y0029104D01*
X0217641Y0030012D01*
X0217902Y0030927D01*
X0218141Y0031848D01*
X0218357Y0032775D01*
X0218552Y0033706D01*
X0218723Y0034642D01*
X0218872Y0035581D01*
X0218998Y0036524D01*
X0219101Y0037470D01*
X0219182Y0038418D01*
X0219239Y0039368D01*
X0219274Y0040319D01*
X0219285Y0041270D01*
X0219285Y0100325D01*
X0219274Y0101276D01*
X0219239Y0102227D01*
X0219182Y0103177D01*
X0219101Y0104125D01*
X0218998Y0105071D01*
X0218872Y0106014D01*
X0218723Y0106953D01*
X0218552Y0107889D01*
X0218357Y0108820D01*
X0218141Y0109747D01*
X0217902Y0110668D01*
X0217641Y0111583D01*
X0217358Y0112491D01*
X0217053Y0113392D01*
X0216727Y0114286D01*
X0216378Y0115171D01*
X0216009Y0116048D01*
X0215619Y0116916D01*
X0215207Y0117773D01*
X0214775Y0118621D01*
X0214323Y0119458D01*
X0213851Y0120284D01*
X0213359Y0121098D01*
X0212847Y0121900D01*
X0212316Y0122690D01*
X0211766Y0123466D01*
X0211198Y0124229D01*
X0210611Y0124978D01*
X0210006Y0125712D01*
X0209384Y0126432D01*
X0208744Y0127137D01*
X0208088Y0127825D01*
X0207415Y0128498D01*
X0206727Y0129154D01*
X0206022Y0129794D01*
X0205302Y0130416D01*
X0204568Y0131021D01*
X0203819Y0131608D01*
X0203056Y0132176D01*
X0202280Y0132726D01*
X0201490Y0133257D01*
X0200688Y0133769D01*
X0199874Y0134261D01*
X0199048Y0134733D01*
X0198211Y0135185D01*
X0197363Y0135617D01*
X0196506Y0136029D01*
X0195638Y0136419D01*
X0194761Y0136788D01*
X0193876Y0137137D01*
X0192982Y0137463D01*
X0192081Y0137768D01*
X0191173Y0138051D01*
X0190258Y0138312D01*
X0189337Y0138551D01*
X0188410Y0138767D01*
X0187479Y0138962D01*
X0186543Y0139133D01*
X0185604Y0139282D01*
X0184661Y0139408D01*
X0183715Y0139511D01*
X0182767Y0139592D01*
X0181817Y0139649D01*
X0180866Y0139684D01*
X0179915Y0139695D01*
D12*
X0040346Y0004450D02*
X0037410Y0004450D01*
X0038878Y0004450D02*
X0038878Y0008854D01*
X0040346Y0007386D01*
X0042014Y0008120D02*
X0042014Y0006652D01*
X0042748Y0005918D01*
X0044950Y0005918D01*
X0044950Y0004450D02*
X0044950Y0008854D01*
X0042748Y0008854D01*
X0042014Y0008120D01*
X0054675Y0059802D02*
X0060825Y0059802D01*
X0060825Y0071002D02*
X0054675Y0071002D01*
X0151023Y0009869D02*
X0151023Y0009135D01*
X0151023Y0007667D02*
X0151023Y0004731D01*
X0151757Y0004731D02*
X0150289Y0004731D01*
X0153425Y0004731D02*
X0153425Y0006933D01*
X0154159Y0007667D01*
X0156361Y0007667D01*
X0156361Y0004731D01*
X0157962Y0004731D02*
X0159430Y0004731D01*
X0158696Y0004731D02*
X0158696Y0007667D01*
X0159430Y0007667D01*
X0158696Y0009135D02*
X0158696Y0009869D01*
X0161098Y0009135D02*
X0162566Y0007667D01*
X0164034Y0009135D01*
X0164034Y0004731D01*
X0161098Y0004731D02*
X0161098Y0009135D01*
X0151757Y0007667D02*
X0151023Y0007667D01*
X0170306Y0006933D02*
X0170306Y0004731D01*
X0172508Y0004731D01*
X0173242Y0005465D01*
X0172508Y0006199D01*
X0170306Y0006199D01*
X0170306Y0006933D02*
X0171040Y0007667D01*
X0172508Y0007667D01*
X0175577Y0009135D02*
X0175577Y0004731D01*
X0176311Y0004731D02*
X0174843Y0004731D01*
X0177979Y0006199D02*
X0180915Y0006199D01*
X0180915Y0006933D02*
X0180181Y0007667D01*
X0178713Y0007667D01*
X0177979Y0006933D01*
X0177979Y0006199D01*
X0178713Y0004731D02*
X0180181Y0004731D01*
X0180915Y0005465D01*
X0180915Y0006933D01*
X0182583Y0007667D02*
X0183317Y0006933D01*
X0185519Y0006933D01*
X0185519Y0004731D02*
X0185519Y0009135D01*
X0183317Y0009135D01*
X0182583Y0008401D01*
X0182583Y0007667D01*
X0183317Y0006933D02*
X0182583Y0006199D01*
X0182583Y0005465D01*
X0183317Y0004731D01*
X0185519Y0004731D01*
X0176311Y0009135D02*
X0175577Y0009135D01*
X0174850Y0047800D02*
X0171650Y0047800D01*
X0171650Y0050000D01*
X0171650Y0056800D02*
X0171650Y0059000D01*
X0174850Y0059000D01*
X0170350Y0073800D02*
X0167150Y0073800D01*
X0167150Y0076000D01*
X0167150Y0082800D02*
X0167150Y0085000D01*
X0170350Y0085000D01*
X0043950Y0132450D02*
X0043950Y0136854D01*
X0041748Y0136854D01*
X0041014Y0136120D01*
X0041014Y0134652D01*
X0041748Y0133918D01*
X0043950Y0133918D01*
X0039346Y0132450D02*
X0036410Y0135386D01*
X0036410Y0136120D01*
X0037144Y0136854D01*
X0038612Y0136854D01*
X0039346Y0136120D01*
X0039346Y0132450D02*
X0036410Y0132450D01*
D13*
X0069451Y0093699D02*
X0069451Y0091731D01*
X0069451Y0093699D02*
X0071419Y0093699D01*
X0080081Y0093699D02*
X0082049Y0091731D01*
X0082049Y0083069D02*
X0082049Y0081101D01*
X0080081Y0081101D01*
X0071419Y0081101D02*
X0069451Y0081101D01*
X0069451Y0083069D01*
X0097451Y0083069D02*
X0099419Y0081101D01*
X0108081Y0081101D02*
X0110049Y0081101D01*
X0110049Y0083069D01*
X0110049Y0091731D02*
X0110049Y0093699D01*
X0108081Y0093699D01*
X0099419Y0093699D02*
X0097451Y0093699D01*
X0097451Y0091731D01*
X0095262Y0058896D02*
X0096246Y0057912D01*
X0084238Y0058896D02*
X0083254Y0057912D01*
X0083254Y0046888D02*
X0084238Y0045904D01*
X0095262Y0045904D02*
X0096246Y0046888D01*
X0122650Y0046959D02*
X0122650Y0050341D01*
X0127193Y0051841D02*
X0129307Y0051841D01*
X0133850Y0050341D02*
X0133850Y0046959D01*
X0142526Y0044463D02*
X0142526Y0038557D01*
X0151974Y0038557D01*
X0151974Y0044463D01*
X0155526Y0044463D02*
X0155526Y0038557D01*
X0164974Y0038557D01*
X0164974Y0044463D01*
X0164974Y0052337D02*
X0164974Y0056668D01*
X0163400Y0058243D01*
X0157100Y0058243D01*
X0155526Y0056668D01*
X0155526Y0052337D01*
X0151974Y0052337D02*
X0151974Y0056668D01*
X0150400Y0058243D01*
X0144100Y0058243D01*
X0142526Y0056668D01*
X0142526Y0052337D01*
D14*
X0143250Y0049900D02*
X0151250Y0049900D01*
X0156250Y0049900D02*
X0164250Y0049900D01*
X0156593Y0083557D02*
X0155018Y0083557D01*
X0156593Y0083557D02*
X0156593Y0085132D01*
X0138482Y0083557D02*
X0136907Y0083557D01*
X0136907Y0085132D01*
X0139269Y0100487D02*
X0139271Y0100526D01*
X0139277Y0100565D01*
X0139287Y0100603D01*
X0139300Y0100640D01*
X0139317Y0100675D01*
X0139337Y0100709D01*
X0139361Y0100740D01*
X0139388Y0100769D01*
X0139417Y0100795D01*
X0139449Y0100818D01*
X0139483Y0100838D01*
X0139519Y0100854D01*
X0139556Y0100866D01*
X0139595Y0100875D01*
X0139634Y0100880D01*
X0139673Y0100881D01*
X0139712Y0100878D01*
X0139751Y0100871D01*
X0139788Y0100860D01*
X0139825Y0100846D01*
X0139860Y0100828D01*
X0139893Y0100807D01*
X0139924Y0100782D01*
X0139952Y0100755D01*
X0139977Y0100725D01*
X0139999Y0100692D01*
X0140018Y0100658D01*
X0140033Y0100622D01*
X0140045Y0100584D01*
X0140053Y0100546D01*
X0140057Y0100507D01*
X0140057Y0100467D01*
X0140053Y0100428D01*
X0140045Y0100390D01*
X0140033Y0100352D01*
X0140018Y0100316D01*
X0139999Y0100282D01*
X0139977Y0100249D01*
X0139952Y0100219D01*
X0139924Y0100192D01*
X0139893Y0100167D01*
X0139860Y0100146D01*
X0139825Y0100128D01*
X0139788Y0100114D01*
X0139751Y0100103D01*
X0139712Y0100096D01*
X0139673Y0100093D01*
X0139634Y0100094D01*
X0139595Y0100099D01*
X0139556Y0100108D01*
X0139519Y0100120D01*
X0139483Y0100136D01*
X0139449Y0100156D01*
X0139417Y0100179D01*
X0139388Y0100205D01*
X0139361Y0100234D01*
X0139337Y0100265D01*
X0139317Y0100299D01*
X0139300Y0100334D01*
X0139287Y0100371D01*
X0139277Y0100409D01*
X0139271Y0100448D01*
X0139269Y0100487D01*
X0136907Y0101668D02*
X0138482Y0103243D01*
X0155018Y0103243D02*
X0156593Y0103243D01*
X0156593Y0101668D01*
X0080892Y0060274D02*
X0080894Y0060336D01*
X0080900Y0060399D01*
X0080910Y0060460D01*
X0080924Y0060521D01*
X0080941Y0060581D01*
X0080962Y0060640D01*
X0080988Y0060697D01*
X0081016Y0060752D01*
X0081048Y0060806D01*
X0081084Y0060857D01*
X0081122Y0060907D01*
X0081164Y0060953D01*
X0081208Y0060997D01*
X0081256Y0061038D01*
X0081305Y0061076D01*
X0081357Y0061110D01*
X0081411Y0061141D01*
X0081467Y0061169D01*
X0081525Y0061193D01*
X0081584Y0061214D01*
X0081644Y0061230D01*
X0081705Y0061243D01*
X0081767Y0061252D01*
X0081829Y0061257D01*
X0081892Y0061258D01*
X0081954Y0061255D01*
X0082016Y0061248D01*
X0082078Y0061237D01*
X0082138Y0061222D01*
X0082198Y0061204D01*
X0082256Y0061182D01*
X0082313Y0061156D01*
X0082368Y0061126D01*
X0082421Y0061093D01*
X0082472Y0061057D01*
X0082520Y0061018D01*
X0082566Y0060975D01*
X0082609Y0060930D01*
X0082649Y0060882D01*
X0082686Y0060832D01*
X0082720Y0060779D01*
X0082751Y0060725D01*
X0082777Y0060669D01*
X0082801Y0060611D01*
X0082820Y0060551D01*
X0082836Y0060491D01*
X0082848Y0060429D01*
X0082856Y0060368D01*
X0082860Y0060305D01*
X0082860Y0060243D01*
X0082856Y0060180D01*
X0082848Y0060119D01*
X0082836Y0060057D01*
X0082820Y0059997D01*
X0082801Y0059937D01*
X0082777Y0059879D01*
X0082751Y0059823D01*
X0082720Y0059769D01*
X0082686Y0059716D01*
X0082649Y0059666D01*
X0082609Y0059618D01*
X0082566Y0059573D01*
X0082520Y0059530D01*
X0082472Y0059491D01*
X0082421Y0059455D01*
X0082368Y0059422D01*
X0082313Y0059392D01*
X0082256Y0059366D01*
X0082198Y0059344D01*
X0082138Y0059326D01*
X0082078Y0059311D01*
X0082016Y0059300D01*
X0081954Y0059293D01*
X0081892Y0059290D01*
X0081829Y0059291D01*
X0081767Y0059296D01*
X0081705Y0059305D01*
X0081644Y0059318D01*
X0081584Y0059334D01*
X0081525Y0059355D01*
X0081467Y0059379D01*
X0081411Y0059407D01*
X0081357Y0059438D01*
X0081305Y0059472D01*
X0081256Y0059510D01*
X0081208Y0059551D01*
X0081164Y0059595D01*
X0081122Y0059641D01*
X0081084Y0059691D01*
X0081048Y0059742D01*
X0081016Y0059796D01*
X0080988Y0059851D01*
X0080962Y0059908D01*
X0080941Y0059967D01*
X0080924Y0060027D01*
X0080910Y0060088D01*
X0080900Y0060149D01*
X0080894Y0060212D01*
X0080892Y0060274D01*
D15*
X0076603Y0065167D02*
X0075986Y0064550D01*
X0073517Y0064550D01*
X0072900Y0065167D01*
X0072900Y0066402D01*
X0073517Y0067019D01*
X0072900Y0068233D02*
X0072900Y0070702D01*
X0072900Y0069468D02*
X0076603Y0069468D01*
X0075369Y0068233D01*
X0075986Y0067019D02*
X0076603Y0066402D01*
X0076603Y0065167D01*
X0087864Y0063502D02*
X0090333Y0063502D01*
X0088482Y0065353D01*
X0088482Y0061650D01*
X0091548Y0062267D02*
X0092165Y0061650D01*
X0093399Y0061650D01*
X0094016Y0062267D01*
X0094016Y0064736D01*
X0093399Y0065353D01*
X0092165Y0065353D01*
X0091548Y0064736D01*
X0100542Y0058608D02*
X0100542Y0057374D01*
X0101159Y0056757D01*
X0101159Y0055542D02*
X0100542Y0054925D01*
X0100542Y0053691D01*
X0101159Y0053073D01*
X0103628Y0053073D01*
X0104245Y0053691D01*
X0104245Y0054925D01*
X0103628Y0055542D01*
X0103628Y0056757D02*
X0104245Y0057374D01*
X0104245Y0058608D01*
X0103628Y0059225D01*
X0103011Y0059225D01*
X0102393Y0058608D01*
X0101776Y0059225D01*
X0101159Y0059225D01*
X0100542Y0058608D01*
X0102393Y0058608D02*
X0102393Y0057991D01*
X0100542Y0051852D02*
X0100542Y0050618D01*
X0100542Y0051235D02*
X0104245Y0051235D01*
X0104245Y0050618D02*
X0104245Y0051852D01*
X0115400Y0045836D02*
X0115400Y0043367D01*
X0115400Y0044601D02*
X0119103Y0044601D01*
X0117869Y0043367D01*
X0117869Y0042152D02*
X0117252Y0041535D01*
X0117252Y0039684D01*
X0119103Y0039684D02*
X0115400Y0039684D01*
X0115400Y0041535D01*
X0116017Y0042152D01*
X0116634Y0042152D01*
X0117252Y0041535D01*
X0117869Y0042152D02*
X0118486Y0042152D01*
X0119103Y0041535D01*
X0119103Y0039684D01*
X0119103Y0038469D02*
X0119103Y0036001D01*
X0115400Y0036001D01*
X0117252Y0036001D02*
X0117252Y0037235D01*
X0102102Y0037641D02*
X0101619Y0037157D01*
X0099684Y0037157D01*
X0099200Y0037641D01*
X0099200Y0038608D01*
X0099684Y0039092D01*
X0099200Y0040103D02*
X0101135Y0042038D01*
X0101619Y0042038D01*
X0102102Y0041555D01*
X0102102Y0040587D01*
X0101619Y0040103D01*
X0101619Y0039092D02*
X0102102Y0038608D01*
X0102102Y0037641D01*
X0099200Y0040103D02*
X0099200Y0042038D01*
X0123564Y0058667D02*
X0124182Y0058050D01*
X0125416Y0058050D01*
X0126033Y0058667D01*
X0127248Y0058667D02*
X0127865Y0058050D01*
X0129099Y0058050D01*
X0129716Y0058667D01*
X0129716Y0061136D01*
X0129099Y0061753D01*
X0127865Y0061753D01*
X0127248Y0061136D01*
X0126033Y0061753D02*
X0126033Y0059902D01*
X0124799Y0060519D01*
X0124182Y0060519D01*
X0123564Y0059902D01*
X0123564Y0058667D01*
X0123564Y0061753D02*
X0126033Y0061753D01*
X0130937Y0061753D02*
X0132172Y0061753D01*
X0131555Y0061753D02*
X0131555Y0058050D01*
X0132172Y0058050D02*
X0130937Y0058050D01*
X0156800Y0064734D02*
X0156800Y0065701D01*
X0157284Y0066185D01*
X0156800Y0067197D02*
X0156800Y0069131D01*
X0156800Y0068164D02*
X0159702Y0068164D01*
X0158735Y0067197D01*
X0159219Y0066185D02*
X0159702Y0065701D01*
X0159702Y0064734D01*
X0159219Y0064250D01*
X0157284Y0064250D01*
X0156800Y0064734D01*
X0157284Y0070143D02*
X0157767Y0070143D01*
X0158251Y0070627D01*
X0158251Y0071594D01*
X0157767Y0072078D01*
X0157284Y0072078D01*
X0156800Y0071594D01*
X0156800Y0070627D01*
X0157284Y0070143D01*
X0158251Y0070627D02*
X0158735Y0070143D01*
X0159219Y0070143D01*
X0159702Y0070627D01*
X0159702Y0071594D01*
X0159219Y0072078D01*
X0158735Y0072078D01*
X0158251Y0071594D01*
X0161112Y0073334D02*
X0161595Y0072850D01*
X0162563Y0072850D01*
X0163047Y0073334D01*
X0164058Y0073334D02*
X0164058Y0075269D01*
X0164542Y0075752D01*
X0165993Y0075752D01*
X0165993Y0072850D01*
X0164542Y0072850D01*
X0164058Y0073334D01*
X0163047Y0075269D02*
X0162563Y0075752D01*
X0161595Y0075752D01*
X0161112Y0075269D01*
X0161112Y0074785D01*
X0161595Y0074301D01*
X0161112Y0073817D01*
X0161112Y0073334D01*
X0161595Y0074301D02*
X0162079Y0074301D01*
X0179772Y0075034D02*
X0180256Y0074550D01*
X0181223Y0074550D01*
X0181707Y0075034D01*
X0182719Y0074550D02*
X0184653Y0074550D01*
X0183686Y0074550D02*
X0183686Y0077452D01*
X0184653Y0076485D01*
X0185665Y0076969D02*
X0186149Y0077452D01*
X0187116Y0077452D01*
X0187600Y0076969D01*
X0187600Y0075034D01*
X0187116Y0074550D01*
X0186149Y0074550D01*
X0185665Y0075034D01*
X0181707Y0076969D02*
X0181223Y0077452D01*
X0180256Y0077452D01*
X0179772Y0076969D01*
X0179772Y0076485D01*
X0180256Y0076001D01*
X0179772Y0075517D01*
X0179772Y0075034D01*
X0180256Y0076001D02*
X0180739Y0076001D01*
X0192219Y0070469D02*
X0192219Y0068534D01*
X0192702Y0068050D01*
X0193670Y0068050D01*
X0194153Y0068534D01*
X0193670Y0069501D02*
X0192219Y0069501D01*
X0192219Y0070469D02*
X0192702Y0070952D01*
X0193670Y0070952D01*
X0194153Y0070469D01*
X0194153Y0069985D01*
X0193670Y0069501D01*
X0195165Y0069501D02*
X0195165Y0070469D01*
X0195649Y0070952D01*
X0197100Y0070952D01*
X0197100Y0068050D01*
X0197100Y0069017D02*
X0195649Y0069017D01*
X0195165Y0069501D01*
X0196133Y0069017D02*
X0195165Y0068050D01*
X0187800Y0066352D02*
X0187800Y0063450D01*
X0186349Y0063450D01*
X0185865Y0063934D01*
X0185865Y0065869D01*
X0186349Y0066352D01*
X0187800Y0066352D01*
X0184853Y0065869D02*
X0184370Y0066352D01*
X0183402Y0066352D01*
X0182919Y0065869D01*
X0182919Y0065385D01*
X0184853Y0063450D01*
X0182919Y0063450D01*
X0195900Y0058497D02*
X0196384Y0058497D01*
X0198319Y0060431D01*
X0198802Y0060431D01*
X0198802Y0058497D01*
X0198319Y0057485D02*
X0197351Y0057485D01*
X0196867Y0057001D01*
X0196867Y0055550D01*
X0195900Y0055550D02*
X0198802Y0055550D01*
X0198802Y0057001D01*
X0198319Y0057485D01*
X0196867Y0056517D02*
X0195900Y0057485D01*
X0170600Y0050452D02*
X0170600Y0047550D01*
X0169149Y0047550D01*
X0168665Y0048034D01*
X0168665Y0049969D01*
X0169149Y0050452D01*
X0170600Y0050452D01*
X0167653Y0049001D02*
X0165719Y0049001D01*
X0166202Y0047550D02*
X0166202Y0050452D01*
X0167653Y0049001D01*
X0180050Y0038581D02*
X0180050Y0036647D01*
X0181985Y0038581D01*
X0182469Y0038581D01*
X0182952Y0038098D01*
X0182952Y0037130D01*
X0182469Y0036647D01*
X0182469Y0035635D02*
X0181501Y0035635D01*
X0181017Y0035151D01*
X0181017Y0033700D01*
X0180050Y0033700D02*
X0182952Y0033700D01*
X0182952Y0035151D01*
X0182469Y0035635D01*
X0181017Y0034667D02*
X0180050Y0035635D01*
X0185986Y0035152D02*
X0185986Y0032250D01*
X0186953Y0032250D02*
X0185019Y0032250D01*
X0186953Y0034185D02*
X0185986Y0035152D01*
X0187965Y0034669D02*
X0188449Y0035152D01*
X0189900Y0035152D01*
X0189900Y0032250D01*
X0188449Y0032250D01*
X0187965Y0032734D01*
X0187965Y0034669D01*
X0192219Y0035452D02*
X0193186Y0034969D01*
X0194153Y0034001D01*
X0192702Y0034001D01*
X0192219Y0033517D01*
X0192219Y0033034D01*
X0192702Y0032550D01*
X0193670Y0032550D01*
X0194153Y0033034D01*
X0194153Y0034001D01*
X0195165Y0034001D02*
X0195165Y0034969D01*
X0195649Y0035452D01*
X0197100Y0035452D01*
X0197100Y0032550D01*
X0197100Y0033517D02*
X0195649Y0033517D01*
X0195165Y0034001D01*
X0196133Y0033517D02*
X0195165Y0032550D01*
X0162993Y0034897D02*
X0162509Y0034413D01*
X0161542Y0034413D01*
X0161058Y0034897D01*
X0160047Y0034897D02*
X0160047Y0035380D01*
X0159563Y0035864D01*
X0158595Y0035864D01*
X0158112Y0035380D01*
X0158112Y0034897D01*
X0158595Y0034413D01*
X0159563Y0034413D01*
X0160047Y0034897D01*
X0159563Y0035864D02*
X0160047Y0036348D01*
X0160047Y0036832D01*
X0159563Y0037315D01*
X0158595Y0037315D01*
X0158112Y0036832D01*
X0158112Y0036348D01*
X0158595Y0035864D01*
X0161058Y0036832D02*
X0161542Y0037315D01*
X0162509Y0037315D01*
X0162993Y0036832D01*
X0162993Y0034897D01*
X0149993Y0034547D02*
X0149509Y0034063D01*
X0148542Y0034063D01*
X0148058Y0034547D01*
X0147047Y0034547D02*
X0146563Y0034063D01*
X0145595Y0034063D01*
X0145112Y0034547D01*
X0145112Y0036482D01*
X0145595Y0036965D01*
X0146563Y0036965D01*
X0147047Y0036482D01*
X0147047Y0035998D01*
X0146563Y0035514D01*
X0145112Y0035514D01*
X0148058Y0036482D02*
X0148542Y0036965D01*
X0149509Y0036965D01*
X0149993Y0036482D01*
X0149993Y0034547D01*
X0084716Y0074167D02*
X0084716Y0076636D01*
X0084099Y0077253D01*
X0082865Y0077253D01*
X0082248Y0076636D01*
X0081033Y0076636D02*
X0080416Y0077253D01*
X0079182Y0077253D01*
X0078564Y0076636D01*
X0078564Y0076019D01*
X0079182Y0075402D01*
X0078564Y0074784D01*
X0078564Y0074167D01*
X0079182Y0073550D01*
X0080416Y0073550D01*
X0081033Y0074167D01*
X0082248Y0074167D02*
X0082865Y0073550D01*
X0084099Y0073550D01*
X0084716Y0074167D01*
X0079799Y0075402D02*
X0079182Y0075402D01*
X0067922Y0082050D02*
X0066687Y0082050D01*
X0067305Y0082050D02*
X0067305Y0085753D01*
X0067922Y0085753D02*
X0066687Y0085753D01*
X0065466Y0085136D02*
X0065466Y0082667D01*
X0064849Y0082050D01*
X0063615Y0082050D01*
X0062998Y0082667D01*
X0061783Y0082050D02*
X0059314Y0082050D01*
X0060549Y0082050D02*
X0060549Y0085753D01*
X0061783Y0084519D01*
X0062998Y0085136D02*
X0063615Y0085753D01*
X0064849Y0085753D01*
X0065466Y0085136D01*
X0086512Y0098034D02*
X0086995Y0097550D01*
X0087963Y0097550D01*
X0088447Y0098034D01*
X0088447Y0099001D02*
X0087479Y0099485D01*
X0086995Y0099485D01*
X0086512Y0099001D01*
X0086512Y0098034D01*
X0088447Y0099001D02*
X0088447Y0100452D01*
X0086512Y0100452D01*
X0089458Y0099969D02*
X0089942Y0100452D01*
X0090909Y0100452D01*
X0091393Y0099969D01*
X0091393Y0098034D01*
X0090909Y0097550D01*
X0089942Y0097550D01*
X0089458Y0098034D01*
X0112314Y0084136D02*
X0112314Y0083519D01*
X0114783Y0081050D01*
X0112314Y0081050D01*
X0115998Y0081667D02*
X0116615Y0081050D01*
X0117849Y0081050D01*
X0118466Y0081667D01*
X0118466Y0084136D01*
X0117849Y0084753D01*
X0116615Y0084753D01*
X0115998Y0084136D01*
X0114783Y0084136D02*
X0114166Y0084753D01*
X0112932Y0084753D01*
X0112314Y0084136D01*
X0119687Y0084753D02*
X0120922Y0084753D01*
X0120305Y0084753D02*
X0120305Y0081050D01*
X0120922Y0081050D02*
X0119687Y0081050D01*
X0068600Y0044636D02*
X0068600Y0042167D01*
X0067983Y0041550D01*
X0066748Y0041550D01*
X0066131Y0042167D01*
X0064917Y0042167D02*
X0064917Y0041550D01*
X0064917Y0042167D02*
X0062448Y0044636D01*
X0062448Y0045253D01*
X0064917Y0045253D01*
X0066131Y0044636D02*
X0066748Y0045253D01*
X0067983Y0045253D01*
X0068600Y0044636D01*
X0016100Y0045753D02*
X0016100Y0042050D01*
X0016100Y0043284D02*
X0014248Y0043284D01*
X0013631Y0043902D01*
X0013631Y0045136D01*
X0014248Y0045753D01*
X0016100Y0045753D01*
X0014866Y0043284D02*
X0013631Y0042050D01*
X0012417Y0043902D02*
X0009948Y0043902D01*
X0010565Y0045753D02*
X0010565Y0042050D01*
X0012417Y0043902D02*
X0010565Y0045753D01*
X0009948Y0038753D02*
X0012417Y0038753D01*
X0012417Y0036902D01*
X0011182Y0037519D01*
X0010565Y0037519D01*
X0009948Y0036902D01*
X0009948Y0035667D01*
X0010565Y0035050D01*
X0011800Y0035050D01*
X0012417Y0035667D01*
X0013631Y0035050D02*
X0014866Y0036284D01*
X0014248Y0036284D02*
X0016100Y0036284D01*
X0016100Y0035050D02*
X0016100Y0038753D01*
X0014248Y0038753D01*
X0013631Y0038136D01*
X0013631Y0036902D01*
X0014248Y0036284D01*
X0007862Y0101551D02*
X0004960Y0101551D01*
X0005927Y0101551D02*
X0005927Y0103003D01*
X0006411Y0103486D01*
X0007379Y0103486D01*
X0007862Y0103003D01*
X0007862Y0101551D01*
X0005927Y0102519D02*
X0004960Y0103486D01*
X0005444Y0104498D02*
X0004960Y0104982D01*
X0004960Y0105949D01*
X0005444Y0106433D01*
X0005927Y0106433D01*
X0006411Y0105949D01*
X0006411Y0105465D01*
X0006411Y0105949D02*
X0006895Y0106433D01*
X0007379Y0106433D01*
X0007862Y0105949D01*
X0007862Y0104982D01*
X0007379Y0104498D01*
X0192272Y0107534D02*
X0192756Y0107050D01*
X0193723Y0107050D01*
X0194207Y0107534D01*
X0192272Y0109469D01*
X0192272Y0107534D01*
X0192272Y0109469D02*
X0192756Y0109952D01*
X0193723Y0109952D01*
X0194207Y0109469D01*
X0194207Y0107534D01*
X0195219Y0107050D02*
X0197153Y0107050D01*
X0196186Y0107050D02*
X0196186Y0109952D01*
X0197153Y0108985D01*
X0198165Y0109469D02*
X0198165Y0108501D01*
X0198649Y0108017D01*
X0200100Y0108017D01*
X0200100Y0107050D02*
X0200100Y0109952D01*
X0198649Y0109952D01*
X0198165Y0109469D01*
X0199133Y0108017D02*
X0198165Y0107050D01*
X0197100Y0095952D02*
X0195649Y0095952D01*
X0195165Y0095469D01*
X0195165Y0094501D01*
X0195649Y0094017D01*
X0197100Y0094017D01*
X0197100Y0093050D02*
X0197100Y0095952D01*
X0196133Y0094017D02*
X0195165Y0093050D01*
X0194153Y0093534D02*
X0194153Y0094017D01*
X0193670Y0094501D01*
X0192702Y0094501D01*
X0192219Y0094017D01*
X0192219Y0093534D01*
X0192702Y0093050D01*
X0193670Y0093050D01*
X0194153Y0093534D01*
X0193670Y0094501D02*
X0194153Y0094985D01*
X0194153Y0095469D01*
X0193670Y0095952D01*
X0192702Y0095952D01*
X0192219Y0095469D01*
X0192219Y0094985D01*
X0192702Y0094501D01*
X0193095Y0088752D02*
X0194063Y0088752D01*
X0194547Y0088269D01*
X0193095Y0088752D02*
X0192612Y0088269D01*
X0192612Y0087785D01*
X0194547Y0085850D01*
X0192612Y0085850D01*
X0195558Y0085850D02*
X0197493Y0085850D01*
X0196526Y0085850D02*
X0196526Y0088752D01*
X0197493Y0087785D01*
X0198505Y0088269D02*
X0198988Y0088752D01*
X0199956Y0088752D01*
X0200440Y0088269D01*
X0200440Y0086334D01*
X0199956Y0085850D01*
X0198988Y0085850D01*
X0198505Y0086334D01*
X0201272Y0119050D02*
X0203207Y0119050D01*
X0202239Y0119050D02*
X0202239Y0121952D01*
X0203207Y0120985D01*
X0205186Y0121952D02*
X0205186Y0119050D01*
X0206153Y0119050D02*
X0204219Y0119050D01*
X0207165Y0119050D02*
X0208133Y0120017D01*
X0207649Y0120017D02*
X0209100Y0120017D01*
X0209100Y0119050D02*
X0209100Y0121952D01*
X0207649Y0121952D01*
X0207165Y0121469D01*
X0207165Y0120501D01*
X0207649Y0120017D01*
X0206153Y0120985D02*
X0205186Y0121952D01*
D16*
X0169750Y0096520D02*
X0169750Y0096280D01*
X0153870Y0068400D02*
X0153630Y0068400D01*
X0105370Y0041400D02*
X0105130Y0041400D01*
X0091500Y0075280D02*
X0091500Y0075520D01*
D17*
X0133200Y0071188D02*
X0133200Y0069720D01*
X0134668Y0071188D01*
X0135035Y0071188D01*
X0135402Y0070821D01*
X0135402Y0070087D01*
X0135035Y0069720D01*
X0135035Y0068978D02*
X0134668Y0068978D01*
X0134301Y0068611D01*
X0134301Y0067510D01*
X0134301Y0068611D02*
X0133934Y0068978D01*
X0133567Y0068978D01*
X0133200Y0068611D01*
X0133200Y0067510D01*
X0135402Y0067510D01*
X0135402Y0068611D01*
X0135035Y0068978D01*
X0135402Y0066768D02*
X0135402Y0065300D01*
X0133200Y0065300D01*
X0134301Y0065300D02*
X0134301Y0066034D01*
X0141350Y0066071D02*
X0141350Y0065337D01*
X0141717Y0064970D01*
X0143185Y0064970D01*
X0143552Y0065337D01*
X0143552Y0066071D01*
X0143185Y0066438D01*
X0142818Y0067180D02*
X0143552Y0067914D01*
X0141350Y0067914D01*
X0141350Y0067180D02*
X0141350Y0068648D01*
X0141717Y0069390D02*
X0141350Y0069757D01*
X0141350Y0070491D01*
X0141717Y0070858D01*
X0142084Y0070858D01*
X0142451Y0070491D01*
X0142451Y0069390D01*
X0141717Y0069390D01*
X0142451Y0069390D02*
X0143185Y0070124D01*
X0143552Y0070858D01*
X0141717Y0066438D02*
X0141350Y0066071D01*
X0163050Y0066301D02*
X0163417Y0066668D01*
X0163050Y0066301D02*
X0163050Y0065567D01*
X0163417Y0065200D01*
X0164885Y0065200D01*
X0165252Y0065567D01*
X0165252Y0066301D01*
X0164885Y0066668D01*
X0164518Y0067410D02*
X0165252Y0068144D01*
X0163050Y0068144D01*
X0163050Y0067410D02*
X0163050Y0068878D01*
X0164151Y0069620D02*
X0164151Y0071088D01*
X0163050Y0070721D02*
X0165252Y0070721D01*
X0164151Y0069620D01*
X0164462Y0060602D02*
X0165930Y0060602D01*
X0165930Y0059501D01*
X0165196Y0059868D01*
X0164829Y0059868D01*
X0164462Y0059501D01*
X0164462Y0058767D01*
X0164829Y0058400D01*
X0165563Y0058400D01*
X0165930Y0058767D01*
X0166672Y0058400D02*
X0168140Y0058400D01*
X0167406Y0058400D02*
X0167406Y0060602D01*
X0168140Y0059868D01*
X0168882Y0060235D02*
X0169249Y0060602D01*
X0169983Y0060602D01*
X0170350Y0060235D01*
X0170350Y0058767D01*
X0169983Y0058400D01*
X0169249Y0058400D01*
X0168882Y0058767D01*
X0179900Y0045178D02*
X0179900Y0043710D01*
X0179900Y0044444D02*
X0182102Y0044444D01*
X0181368Y0043710D01*
X0181735Y0042968D02*
X0181001Y0042968D01*
X0180634Y0042601D01*
X0180634Y0041500D01*
X0180634Y0042234D02*
X0179900Y0042968D01*
X0179900Y0041500D02*
X0182102Y0041500D01*
X0182102Y0042601D01*
X0181735Y0042968D01*
X0170783Y0091900D02*
X0170049Y0091900D01*
X0169682Y0092267D01*
X0168940Y0091900D02*
X0167472Y0091900D01*
X0168206Y0091900D02*
X0168206Y0094102D01*
X0168940Y0093368D01*
X0169682Y0093735D02*
X0170049Y0094102D01*
X0170783Y0094102D01*
X0171150Y0093735D01*
X0171150Y0092267D01*
X0170783Y0091900D01*
X0166730Y0091900D02*
X0166730Y0092267D01*
X0165262Y0093735D01*
X0165262Y0094102D01*
X0166730Y0094102D01*
X0166893Y0098900D02*
X0166159Y0098900D01*
X0165792Y0099267D01*
X0165792Y0100735D01*
X0166159Y0101102D01*
X0166893Y0101102D01*
X0167260Y0100735D01*
X0167260Y0100368D01*
X0166893Y0100001D01*
X0165792Y0100001D01*
X0166893Y0098900D02*
X0167260Y0099267D01*
X0168002Y0098900D02*
X0169470Y0098900D01*
X0168736Y0098900D02*
X0168736Y0101102D01*
X0169470Y0100368D01*
X0170212Y0100735D02*
X0170579Y0101102D01*
X0171313Y0101102D01*
X0171680Y0100735D01*
X0171680Y0099267D01*
X0171313Y0098900D01*
X0170579Y0098900D01*
X0170212Y0099267D01*
D18*
X0059719Y0069928D03*
M02*
