G75*
%MOIN*%
%OFA0B0*%
%FSLAX25Y25*%
%IPPOS*%
%LPD*%
%AMOC8*
5,1,8,0,0,1.08239X$1,22.5*
%
%ADD10C,0.06737*%
%ADD11R,0.03359X0.04934*%
%ADD12OC8,0.06800*%
%ADD13C,0.13900*%
%ADD14R,0.12611X0.04343*%
%ADD15C,0.08200*%
%ADD16R,0.03359X0.04146*%
D10*
X0203049Y0040798D02*
X0208986Y0040798D01*
X0208986Y0050798D02*
X0203049Y0050798D01*
X0203049Y0060798D02*
X0208986Y0060798D01*
X0208986Y0080798D02*
X0203049Y0080798D01*
X0203049Y0090798D02*
X0208986Y0090798D01*
X0208986Y0100798D02*
X0203049Y0100798D01*
D11*
X0017182Y0096831D03*
X0008718Y0096831D03*
X0008718Y0113169D03*
X0017182Y0113169D03*
D12*
X0026018Y0015798D03*
X0036018Y0015798D03*
X0046018Y0015798D03*
X0056018Y0015798D03*
X0066018Y0015798D03*
X0076018Y0015798D03*
X0086018Y0015798D03*
X0096018Y0015798D03*
X0106018Y0015798D03*
X0116018Y0015798D03*
X0126018Y0015798D03*
X0136018Y0015798D03*
X0146018Y0015798D03*
X0156018Y0015798D03*
X0166018Y0015798D03*
X0176018Y0015798D03*
X0186018Y0015798D03*
X0196018Y0015798D03*
X0196018Y0025798D03*
X0186018Y0025798D03*
X0176018Y0025798D03*
X0166018Y0025798D03*
X0156018Y0025798D03*
X0146018Y0025798D03*
X0136018Y0025798D03*
X0126018Y0025798D03*
X0116018Y0025798D03*
X0106018Y0025798D03*
X0096018Y0025798D03*
X0086018Y0025798D03*
X0076018Y0025798D03*
X0066018Y0025798D03*
X0056018Y0025798D03*
X0046018Y0025798D03*
X0036018Y0025798D03*
X0026018Y0025798D03*
X0026018Y0115798D03*
X0036018Y0115798D03*
X0046018Y0115798D03*
X0056018Y0115798D03*
X0066018Y0115798D03*
X0076018Y0115798D03*
X0086018Y0115798D03*
X0096018Y0115798D03*
X0106018Y0115798D03*
X0116018Y0115798D03*
X0126018Y0115798D03*
X0136018Y0115798D03*
X0146018Y0115798D03*
X0156018Y0115798D03*
X0166018Y0115798D03*
X0176018Y0115798D03*
X0186018Y0115798D03*
X0196018Y0115798D03*
X0196018Y0125798D03*
X0186018Y0125798D03*
X0176018Y0125798D03*
X0166018Y0125798D03*
X0156018Y0125798D03*
X0146018Y0125798D03*
X0136018Y0125798D03*
X0126018Y0125798D03*
X0116018Y0125798D03*
X0106018Y0125798D03*
X0096018Y0125798D03*
X0086018Y0125798D03*
X0076018Y0125798D03*
X0066018Y0125798D03*
X0056018Y0125798D03*
X0046018Y0125798D03*
X0036018Y0125798D03*
X0026018Y0125798D03*
D13*
X0041750Y0091250D03*
X0041750Y0039550D03*
D14*
X0058333Y0051620D03*
X0058333Y0061463D03*
X0058333Y0069337D03*
X0058333Y0079180D03*
D15*
X0056018Y0105798D03*
X0066018Y0105798D03*
X0076018Y0105798D03*
X0086018Y0105798D03*
X0096018Y0105798D03*
X0106018Y0105798D03*
X0116018Y0105798D03*
X0166352Y0105668D03*
X0176352Y0105668D03*
X0186352Y0105668D03*
X0046018Y0105798D03*
X0036018Y0105798D03*
X0026018Y0105798D03*
D16*
X0015423Y0032254D03*
X0012077Y0032254D03*
X0012077Y0026546D03*
X0015423Y0026546D03*
M02*
