G75*
%MOIN*%
%OFA0B0*%
%FSLAX25Y25*%
%IPPOS*%
%LPD*%
%AMOC8*
5,1,8,0,0,1.08239X$1,22.5*
%
%ADD10C,0.01981*%
%ADD11R,0.10643X0.10643*%
%ADD12R,0.04737X0.05131*%
%ADD13C,0.01902*%
%ADD14R,0.07414X0.07414*%
%ADD15R,0.02769X0.03359*%
%ADD16R,0.05131X0.04737*%
%ADD17R,0.07099X0.06312*%
%ADD18R,0.02965X0.05524*%
%ADD19R,0.01920X0.03950*%
%ADD20R,0.03950X0.01920*%
%ADD21R,0.13202X0.13202*%
%ADD22C,0.06737*%
%ADD23OC8,0.06800*%
%ADD24C,0.13900*%
%ADD25C,0.08200*%
%ADD26R,0.04343X0.03162*%
%ADD27R,0.06312X0.04737*%
D10*
X0081285Y0048463D02*
X0082861Y0048463D01*
X0081285Y0048463D02*
X0081285Y0048463D01*
X0082861Y0048463D01*
X0082861Y0048463D01*
X0082861Y0050431D02*
X0081285Y0050431D01*
X0081285Y0050431D01*
X0082861Y0050431D01*
X0082861Y0050431D01*
X0082861Y0052400D02*
X0081285Y0052400D01*
X0081285Y0052400D01*
X0082861Y0052400D01*
X0082861Y0052400D01*
X0082861Y0054369D02*
X0081285Y0054369D01*
X0081285Y0054369D01*
X0082861Y0054369D01*
X0082861Y0054369D01*
X0082861Y0056337D02*
X0081285Y0056337D01*
X0081285Y0056337D01*
X0082861Y0056337D01*
X0082861Y0056337D01*
X0085813Y0059289D02*
X0085813Y0060865D01*
X0085813Y0060865D01*
X0085813Y0059289D01*
X0085813Y0059289D01*
X0087781Y0059289D02*
X0087781Y0060865D01*
X0087781Y0060865D01*
X0087781Y0059289D01*
X0087781Y0059289D01*
X0089750Y0059289D02*
X0089750Y0060865D01*
X0089750Y0060865D01*
X0089750Y0059289D01*
X0089750Y0059289D01*
X0091719Y0059289D02*
X0091719Y0060865D01*
X0091719Y0060865D01*
X0091719Y0059289D01*
X0091719Y0059289D01*
X0093687Y0059289D02*
X0093687Y0060865D01*
X0093687Y0060865D01*
X0093687Y0059289D01*
X0093687Y0059289D01*
X0096639Y0056337D02*
X0098215Y0056337D01*
X0098215Y0056337D01*
X0096639Y0056337D01*
X0096639Y0056337D01*
X0096639Y0054369D02*
X0098215Y0054369D01*
X0098215Y0054369D01*
X0096639Y0054369D01*
X0096639Y0054369D01*
X0096639Y0052400D02*
X0098215Y0052400D01*
X0098215Y0052400D01*
X0096639Y0052400D01*
X0096639Y0052400D01*
X0096639Y0050431D02*
X0098215Y0050431D01*
X0098215Y0050431D01*
X0096639Y0050431D01*
X0096639Y0050431D01*
X0096639Y0048463D02*
X0098215Y0048463D01*
X0098215Y0048463D01*
X0096639Y0048463D01*
X0096639Y0048463D01*
X0093687Y0045511D02*
X0093687Y0043935D01*
X0093687Y0043935D01*
X0093687Y0045511D01*
X0093687Y0045511D01*
X0091719Y0045511D02*
X0091719Y0043935D01*
X0091719Y0043935D01*
X0091719Y0045511D01*
X0091719Y0045511D01*
X0089750Y0045511D02*
X0089750Y0043935D01*
X0089750Y0043935D01*
X0089750Y0045511D01*
X0089750Y0045511D01*
X0087781Y0045511D02*
X0087781Y0043935D01*
X0087781Y0043935D01*
X0087781Y0045511D01*
X0087781Y0045511D01*
X0085813Y0045511D02*
X0085813Y0043935D01*
X0085813Y0043935D01*
X0085813Y0045511D01*
X0085813Y0045511D01*
D11*
X0089750Y0052400D03*
D12*
X0105250Y0044746D03*
X0112250Y0044746D03*
X0112250Y0038054D03*
X0105250Y0038054D03*
X0138250Y0045304D03*
X0138250Y0051996D03*
X0138500Y0065054D03*
X0146250Y0065054D03*
X0153750Y0065054D03*
X0153750Y0071746D03*
X0146250Y0071746D03*
X0138500Y0071746D03*
X0182404Y0070400D03*
X0189096Y0070400D03*
X0186750Y0060246D03*
X0186750Y0053554D03*
X0186750Y0045246D03*
X0186750Y0038554D03*
X0176596Y0036400D03*
X0169904Y0036400D03*
X0169904Y0043400D03*
X0176596Y0043400D03*
X0182404Y0094400D03*
X0189096Y0094400D03*
X0203404Y0109400D03*
X0210096Y0109400D03*
X0210096Y0116400D03*
X0203404Y0116400D03*
X0089750Y0092746D03*
X0089750Y0086054D03*
X0080250Y0070246D03*
X0080250Y0063554D03*
X0026096Y0043400D03*
X0019404Y0043400D03*
X0019404Y0036400D03*
X0026096Y0036400D03*
X0018002Y0104951D03*
X0011309Y0104951D03*
D13*
X0068821Y0090353D02*
X0071065Y0090353D01*
X0071065Y0088384D02*
X0068821Y0088384D01*
X0068821Y0086416D02*
X0071065Y0086416D01*
X0071065Y0084447D02*
X0068821Y0084447D01*
X0072797Y0082715D02*
X0072797Y0080471D01*
X0074766Y0080471D02*
X0074766Y0082715D01*
X0076734Y0082715D02*
X0076734Y0080471D01*
X0078703Y0080471D02*
X0078703Y0082715D01*
X0080435Y0084447D02*
X0082679Y0084447D01*
X0082679Y0086416D02*
X0080435Y0086416D01*
X0080435Y0088384D02*
X0082679Y0088384D01*
X0082679Y0090353D02*
X0080435Y0090353D01*
X0078703Y0092085D02*
X0078703Y0094329D01*
X0076734Y0094329D02*
X0076734Y0092085D01*
X0074766Y0092085D02*
X0074766Y0094329D01*
X0072797Y0094329D02*
X0072797Y0092085D01*
X0096821Y0090353D02*
X0099065Y0090353D01*
X0099065Y0088384D02*
X0096821Y0088384D01*
X0096821Y0086416D02*
X0099065Y0086416D01*
X0099065Y0084447D02*
X0096821Y0084447D01*
X0100797Y0082715D02*
X0100797Y0080471D01*
X0102766Y0080471D02*
X0102766Y0082715D01*
X0104734Y0082715D02*
X0104734Y0080471D01*
X0106703Y0080471D02*
X0106703Y0082715D01*
X0108435Y0084447D02*
X0110679Y0084447D01*
X0110679Y0086416D02*
X0108435Y0086416D01*
X0108435Y0088384D02*
X0110679Y0088384D01*
X0110679Y0090353D02*
X0108435Y0090353D01*
X0106703Y0092085D02*
X0106703Y0094329D01*
X0104734Y0094329D02*
X0104734Y0092085D01*
X0102766Y0092085D02*
X0102766Y0094329D01*
X0100797Y0094329D02*
X0100797Y0092085D01*
D14*
X0103750Y0087400D03*
X0075750Y0087400D03*
D15*
X0087026Y0038861D03*
X0090175Y0038861D03*
X0093325Y0038861D03*
X0096474Y0038861D03*
X0096474Y0033939D03*
X0093325Y0033939D03*
X0090175Y0033939D03*
X0087026Y0033939D03*
D16*
X0079096Y0043400D03*
X0072404Y0043400D03*
X0088154Y0068400D03*
X0094846Y0068400D03*
X0094846Y0075400D03*
X0088154Y0075400D03*
X0166404Y0089400D03*
X0173096Y0089400D03*
X0182404Y0087400D03*
X0189096Y0087400D03*
X0189096Y0080400D03*
X0182404Y0080400D03*
X0175096Y0069400D03*
X0168404Y0069400D03*
X0168404Y0063400D03*
X0175096Y0063400D03*
X0193250Y0060246D03*
X0193250Y0053554D03*
X0193250Y0045246D03*
X0193250Y0038554D03*
X0173096Y0096400D03*
X0166404Y0096400D03*
D17*
X0160250Y0053912D03*
X0147250Y0053912D03*
X0147250Y0042888D03*
X0160250Y0042888D03*
D18*
X0131990Y0043531D03*
X0128250Y0043531D03*
X0124510Y0043531D03*
X0124510Y0053769D03*
X0131990Y0053769D03*
D19*
X0139860Y0083557D03*
X0141829Y0083557D03*
X0143797Y0083557D03*
X0145766Y0083557D03*
X0147734Y0083557D03*
X0149703Y0083557D03*
X0151671Y0083557D03*
X0153640Y0083557D03*
X0153640Y0103243D03*
X0151671Y0103243D03*
X0149703Y0103243D03*
X0147734Y0103243D03*
X0145766Y0103243D03*
X0143797Y0103243D03*
X0141829Y0103243D03*
X0139860Y0103243D03*
D20*
X0136907Y0100290D03*
X0136907Y0098321D03*
X0136907Y0096353D03*
X0136907Y0094384D03*
X0136907Y0092416D03*
X0136907Y0090447D03*
X0136907Y0088479D03*
X0136907Y0086510D03*
X0156593Y0086510D03*
X0156593Y0088479D03*
X0156593Y0090447D03*
X0156593Y0092416D03*
X0156593Y0094384D03*
X0156593Y0096353D03*
X0156593Y0098321D03*
X0156593Y0100290D03*
D21*
X0146750Y0093400D03*
D22*
X0203049Y0090798D02*
X0208986Y0090798D01*
X0208986Y0100798D02*
X0203049Y0100798D01*
X0203049Y0080798D02*
X0208986Y0080798D01*
X0208986Y0060798D02*
X0203049Y0060798D01*
X0203049Y0050798D02*
X0208986Y0050798D01*
X0208986Y0040798D02*
X0203049Y0040798D01*
D23*
X0026018Y0015798D03*
X0036018Y0015798D03*
X0046018Y0015798D03*
X0056018Y0015798D03*
X0066018Y0015798D03*
X0076018Y0015798D03*
X0086018Y0015798D03*
X0096018Y0015798D03*
X0106018Y0015798D03*
X0116018Y0015798D03*
X0126018Y0015798D03*
X0136018Y0015798D03*
X0146018Y0015798D03*
X0156018Y0015798D03*
X0166018Y0015798D03*
X0176018Y0015798D03*
X0186018Y0015798D03*
X0196018Y0015798D03*
X0196018Y0025798D03*
X0186018Y0025798D03*
X0176018Y0025798D03*
X0166018Y0025798D03*
X0156018Y0025798D03*
X0146018Y0025798D03*
X0136018Y0025798D03*
X0126018Y0025798D03*
X0116018Y0025798D03*
X0106018Y0025798D03*
X0096018Y0025798D03*
X0086018Y0025798D03*
X0076018Y0025798D03*
X0066018Y0025798D03*
X0056018Y0025798D03*
X0046018Y0025798D03*
X0036018Y0025798D03*
X0026018Y0025798D03*
X0026018Y0115798D03*
X0036018Y0115798D03*
X0046018Y0115798D03*
X0056018Y0115798D03*
X0066018Y0115798D03*
X0076018Y0115798D03*
X0086018Y0115798D03*
X0096018Y0115798D03*
X0106018Y0115798D03*
X0116018Y0115798D03*
X0126018Y0115798D03*
X0136018Y0115798D03*
X0146018Y0115798D03*
X0156018Y0115798D03*
X0166018Y0115798D03*
X0176018Y0115798D03*
X0186018Y0115798D03*
X0196018Y0115798D03*
X0196018Y0125798D03*
X0186018Y0125798D03*
X0176018Y0125798D03*
X0166018Y0125798D03*
X0156018Y0125798D03*
X0146018Y0125798D03*
X0136018Y0125798D03*
X0126018Y0125798D03*
X0116018Y0125798D03*
X0106018Y0125798D03*
X0096018Y0125798D03*
X0086018Y0125798D03*
X0076018Y0125798D03*
X0066018Y0125798D03*
X0056018Y0125798D03*
X0046018Y0125798D03*
X0036018Y0125798D03*
X0026018Y0125798D03*
D24*
X0041750Y0091250D03*
X0041750Y0039550D03*
D25*
X0046018Y0105798D03*
X0056018Y0105798D03*
X0066018Y0105798D03*
X0076018Y0105798D03*
X0086018Y0105798D03*
X0096018Y0105798D03*
X0106018Y0105798D03*
X0116018Y0105798D03*
X0166352Y0105668D03*
X0176352Y0105668D03*
X0186352Y0105668D03*
X0036018Y0105798D03*
X0026018Y0105798D03*
D26*
X0053222Y0069140D03*
X0053222Y0065400D03*
X0053222Y0061660D03*
X0062278Y0061660D03*
X0062278Y0065400D03*
X0062278Y0069140D03*
D27*
X0165419Y0079400D03*
X0174081Y0075660D03*
X0174081Y0083140D03*
X0178581Y0057140D03*
X0169919Y0053400D03*
X0178581Y0049660D03*
M02*
