%
M48
M72
T01C0.01500
T02C0.03937
T03C0.04000
T04C0.09100
%
T01
X8750Y32400
X18750Y32400
X62750Y58400
X66250Y51400
X84620Y61770
X92750Y63900
X104750Y66463
X94750Y71900
X103250Y77400
X109750Y76400
X120250Y70400
X114750Y66400
X114750Y53400
X103750Y48400
X97250Y44900
X82750Y38400
X72372Y38958
X101750Y33400
X111750Y32900
X125750Y38400
X138250Y40900
X161250Y30900
X186750Y49400
X180695Y60955
X190750Y65400
X195750Y65400
X195750Y73400
X200750Y73400
X188750Y75400
X166250Y85900
X156750Y81400
X157482Y76857
X148750Y76400
X145750Y79400
X142750Y76400
X158500Y65054
X157250Y57200
X151250Y57200
X132750Y89400
X132750Y93400
X132750Y99400
X114813Y90660
X109500Y95400
X99750Y96400
X94750Y93400
X88750Y97400
X84925Y93312
X94750Y82900
X89750Y82400
X81750Y80650
X71750Y77400
X67750Y77400
X62750Y72400
X80250Y73900
X66000Y88650
X65750Y94400
X69750Y94200
X35313Y67819
X17750Y108400
X140550Y111400
X154850Y106400
X157750Y103800
X173000Y92900
X213750Y107400
X209750Y120400
T02
X206018Y100798
X206018Y90798
X206018Y80798
X206018Y60798
X206018Y50798
X206018Y40798
T03
X26018Y15798
X36018Y15798
X46018Y15798
X56018Y15798
X66018Y15798
X76018Y15798
X86018Y15798
X96018Y15798
X106018Y15798
X116018Y15798
X126018Y15798
X136018Y15798
X146018Y15798
X156018Y15798
X166018Y15798
X176018Y15798
X186018Y15798
X196018Y15798
X196018Y25798
X186018Y25798
X176018Y25798
X166018Y25798
X156018Y25798
X146018Y25798
X136018Y25798
X126018Y25798
X116018Y25798
X106018Y25798
X96018Y25798
X86018Y25798
X76018Y25798
X66018Y25798
X56018Y25798
X46018Y25798
X36018Y25798
X26018Y25798
X26018Y105798
X36018Y105798
X46018Y105798
X56018Y105798
X66018Y105798
X76018Y105798
X86018Y105798
X96018Y105798
X106018Y105798
X116018Y105798
X116018Y115798
X106018Y115798
X96018Y115798
X86018Y115798
X76018Y115798
X66018Y115798
X56018Y115798
X46018Y115798
X36018Y115798
X26018Y115798
X26018Y125798
X36018Y125798
X46018Y125798
X56018Y125798
X66018Y125798
X76018Y125798
X86018Y125798
X96018Y125798
X106018Y125798
X116018Y125798
X126018Y125798
X136018Y125798
X146018Y125798
X156018Y125798
X166018Y125798
X176018Y125798
X186018Y125798
X196018Y125798
X196018Y115798
X186018Y115798
X176018Y115798
X166018Y115798
X156018Y115798
X146018Y115798
X136018Y115798
X126018Y115798
X166352Y105668
X176352Y105668
X186352Y105668
T04
X41750Y91250
X41750Y39550
M30
