G75*
%MOIN*%
%OFA0B0*%
%FSLAX25Y25*%
%IPPOS*%
%LPD*%
%AMOC8*
5,1,8,0,0,1.08239X$1,22.5*
%
%ADD10C,0.00984*%
%ADD11R,0.07874X0.07874*%
%ADD12R,0.03937X0.04331*%
%ADD13R,0.01772X0.01772*%
%ADD14C,0.00800*%
%ADD15R,0.01969X0.02559*%
%ADD16R,0.04331X0.03937*%
%ADD17R,0.06299X0.05512*%
%ADD18R,0.02165X0.04724*%
%ADD19R,0.01120X0.03150*%
%ADD20R,0.03150X0.01120*%
%ADD21R,0.05118X0.05118*%
%ADD22R,0.03543X0.02362*%
%ADD23R,0.05512X0.03937*%
D10*
X0081285Y0048463D02*
X0082860Y0048463D01*
X0082860Y0050431D02*
X0081285Y0050431D01*
X0081285Y0052400D02*
X0082860Y0052400D01*
X0082860Y0054369D02*
X0081285Y0054369D01*
X0081285Y0056337D02*
X0082860Y0056337D01*
X0085813Y0059290D02*
X0085813Y0060865D01*
X0087781Y0060865D02*
X0087781Y0059290D01*
X0089750Y0059290D02*
X0089750Y0060865D01*
X0091719Y0060865D02*
X0091719Y0059290D01*
X0093687Y0059290D02*
X0093687Y0060865D01*
X0096640Y0056337D02*
X0098215Y0056337D01*
X0098215Y0054369D02*
X0096640Y0054369D01*
X0096640Y0052400D02*
X0098215Y0052400D01*
X0098215Y0050431D02*
X0096640Y0050431D01*
X0096640Y0048463D02*
X0098215Y0048463D01*
X0093687Y0045510D02*
X0093687Y0043935D01*
X0091719Y0043935D02*
X0091719Y0045510D01*
X0089750Y0045510D02*
X0089750Y0043935D01*
X0087781Y0043935D02*
X0087781Y0045510D01*
X0085813Y0045510D02*
X0085813Y0043935D01*
D11*
X0089750Y0052400D03*
D12*
X0019404Y0036400D03*
X0026096Y0036400D03*
X0026096Y0043400D03*
X0019404Y0043400D03*
X0080250Y0063554D03*
X0080250Y0070246D03*
X0089750Y0086054D03*
X0089750Y0092746D03*
X0138500Y0071746D03*
X0146250Y0071746D03*
X0153750Y0071746D03*
X0153750Y0065054D03*
X0146250Y0065054D03*
X0138500Y0065054D03*
X0138250Y0051996D03*
X0138250Y0045304D03*
X0112250Y0044746D03*
X0105250Y0044746D03*
X0105250Y0038054D03*
X0112250Y0038054D03*
X0169904Y0036400D03*
X0176596Y0036400D03*
X0186750Y0038554D03*
X0186750Y0045246D03*
X0176596Y0043400D03*
X0169904Y0043400D03*
X0186750Y0053554D03*
X0186750Y0060246D03*
X0189096Y0070400D03*
X0182404Y0070400D03*
X0182404Y0094400D03*
X0189096Y0094400D03*
X0203404Y0109400D03*
X0210096Y0109400D03*
X0210096Y0116400D03*
X0203404Y0116400D03*
X0018002Y0104951D03*
X0011309Y0104951D03*
D13*
X0074274Y0088876D03*
X0077226Y0088876D03*
X0077226Y0085924D03*
X0074274Y0085924D03*
X0102274Y0085924D03*
X0105226Y0085924D03*
X0105226Y0088876D03*
X0102274Y0088876D03*
D14*
X0099222Y0088384D02*
X0096663Y0088384D01*
X0096663Y0090353D02*
X0099222Y0090353D01*
X0100797Y0091928D02*
X0100797Y0094487D01*
X0102766Y0094487D02*
X0102766Y0091928D01*
X0104734Y0091928D02*
X0104734Y0094487D01*
X0106703Y0094487D02*
X0106703Y0091928D01*
X0108278Y0090353D02*
X0110837Y0090353D01*
X0110837Y0088384D02*
X0108278Y0088384D01*
X0108278Y0086416D02*
X0110837Y0086416D01*
X0110837Y0084447D02*
X0108278Y0084447D01*
X0106703Y0082872D02*
X0106703Y0080313D01*
X0104734Y0080313D02*
X0104734Y0082872D01*
X0102766Y0082872D02*
X0102766Y0080313D01*
X0100797Y0080313D02*
X0100797Y0082872D01*
X0099222Y0084447D02*
X0096663Y0084447D01*
X0096663Y0086416D02*
X0099222Y0086416D01*
X0082837Y0086416D02*
X0080278Y0086416D01*
X0080278Y0084447D02*
X0082837Y0084447D01*
X0078703Y0082872D02*
X0078703Y0080313D01*
X0076734Y0080313D02*
X0076734Y0082872D01*
X0074766Y0082872D02*
X0074766Y0080313D01*
X0072797Y0080313D02*
X0072797Y0082872D01*
X0071222Y0084447D02*
X0068663Y0084447D01*
X0068663Y0086416D02*
X0071222Y0086416D01*
X0071222Y0088384D02*
X0068663Y0088384D01*
X0068663Y0090353D02*
X0071222Y0090353D01*
X0072797Y0091928D02*
X0072797Y0094487D01*
X0074766Y0094487D02*
X0074766Y0091928D01*
X0076734Y0091928D02*
X0076734Y0094487D01*
X0078703Y0094487D02*
X0078703Y0091928D01*
X0080278Y0090353D02*
X0082837Y0090353D01*
X0082837Y0088384D02*
X0080278Y0088384D01*
D15*
X0087026Y0038861D03*
X0090175Y0038861D03*
X0093325Y0038861D03*
X0096474Y0038861D03*
X0096474Y0033939D03*
X0093325Y0033939D03*
X0090175Y0033939D03*
X0087026Y0033939D03*
D16*
X0079096Y0043400D03*
X0072404Y0043400D03*
X0088154Y0068400D03*
X0094846Y0068400D03*
X0094846Y0075400D03*
X0088154Y0075400D03*
X0166404Y0089400D03*
X0173096Y0089400D03*
X0182404Y0087400D03*
X0189096Y0087400D03*
X0189096Y0080400D03*
X0182404Y0080400D03*
X0175096Y0069400D03*
X0168404Y0069400D03*
X0168404Y0063400D03*
X0175096Y0063400D03*
X0193250Y0060246D03*
X0193250Y0053554D03*
X0193250Y0045246D03*
X0193250Y0038554D03*
X0173096Y0096400D03*
X0166404Y0096400D03*
D17*
X0160250Y0053912D03*
X0147250Y0053912D03*
X0147250Y0042888D03*
X0160250Y0042888D03*
D18*
X0131990Y0043531D03*
X0128250Y0043531D03*
X0124510Y0043531D03*
X0124510Y0053769D03*
X0131990Y0053769D03*
D19*
X0139860Y0083557D03*
X0141829Y0083557D03*
X0143797Y0083557D03*
X0145766Y0083557D03*
X0147734Y0083557D03*
X0149703Y0083557D03*
X0151671Y0083557D03*
X0153640Y0083557D03*
X0153640Y0103243D03*
X0151671Y0103243D03*
X0149703Y0103243D03*
X0147734Y0103243D03*
X0145766Y0103243D03*
X0143797Y0103243D03*
X0141829Y0103243D03*
X0139860Y0103243D03*
D20*
X0136907Y0100290D03*
X0136907Y0098321D03*
X0136907Y0096353D03*
X0136907Y0094384D03*
X0136907Y0092416D03*
X0136907Y0090447D03*
X0136907Y0088479D03*
X0136907Y0086510D03*
X0156593Y0086510D03*
X0156593Y0088479D03*
X0156593Y0090447D03*
X0156593Y0092416D03*
X0156593Y0094384D03*
X0156593Y0096353D03*
X0156593Y0098321D03*
X0156593Y0100290D03*
D21*
X0149900Y0096550D03*
X0143600Y0096550D03*
X0143600Y0090250D03*
X0149900Y0090250D03*
D22*
X0062278Y0069140D03*
X0062278Y0065400D03*
X0062278Y0061660D03*
X0053222Y0061660D03*
X0053222Y0065400D03*
X0053222Y0069140D03*
D23*
X0165419Y0079400D03*
X0174081Y0075660D03*
X0174081Y0083140D03*
X0178581Y0057140D03*
X0169919Y0053400D03*
X0178581Y0049660D03*
M02*
