%
M48
M72
T01C0.0150
T02C0.0394
T03C0.0400
%
T01
X9550Y5425
X11250Y3575
X12000Y2825
X10500Y2575
X14000Y2725
X16000Y3325
X12350Y5825
X13600Y6275
X13450Y6725
X14350Y7075
X14350Y7475
X15400Y7075
X15400Y6525
X16100Y6825
X14400Y6625
X13150Y7325
X12400Y8925
X12400Y9825
X10300Y8925
X9850Y10125
X9300Y12475
X10550Y12625
X11750Y12625
X11400Y13825
X9300Y15475
X11000Y16625
X11500Y16625
X14200Y14125
X15300Y14125
X17550Y13175
X19900Y13350
X21750Y13325
X21825Y12725
X20900Y11925
X19650Y11575
X20950Y10825
X21400Y10475
X19800Y10425
X19800Y9325
X20800Y9325
X21800Y7925
X22800Y7425
X21350Y6775
X21700Y6025
X21200Y5825
X21200Y5325
X21700Y5025
X21400Y4725
X20400Y5725
X19200Y6825
X15900Y8525
X15900Y9175
X17730Y9815
X13900Y11725
X18100Y14975
X19200Y14975
X19900Y14975
X20500Y15525
X20900Y15825
X21750Y14975
X19600Y16025
X17200Y15775
X26450Y13875
X27500Y13875
X28250Y13275
X27850Y13075
X27150Y13075
X29950Y12725
X26600Y16725
X28400Y17225
X28400Y18025
X30600Y17525
X25400Y7725
X24900Y6975
X24900Y5625
X24598Y5323
X24900Y5025
X24400Y4225
X24800Y3925
X23600Y3625
X26135Y4625
X26750Y4425
X26700Y5675
X26700Y6775
X30425Y5975
X29325Y3675
X26700Y2925
X21000Y3625
X20600Y3625
X20100Y3225
T02
X8000Y875
X9000Y875
X10000Y875
X11000Y875
X12000Y875
X13000Y875
X14000Y875
X15000Y875
X16000Y875
X17000Y875
X18000Y875
X19000Y875
X20000Y875
X21000Y875
X22000Y875
X23000Y875
X24000Y875
X25000Y875
X26000Y875
X27000Y875
X28000Y875
X29000Y875
X30000Y875
X30000Y1875
X29000Y1875
X28000Y1875
X27000Y1875
X26000Y1875
X25000Y1875
X24000Y1875
X23000Y1875
X22000Y1875
X21000Y1875
X20000Y1875
X19000Y1875
X18000Y1875
X17000Y1875
X16000Y1875
X15000Y1875
X14000Y1875
X13000Y1875
X12000Y1875
X11000Y1875
X10000Y1875
X9000Y1875
X8000Y1875
X12350Y4525
X13350Y4525
X15900Y4525
X16900Y4525
X17900Y4525
X18900Y4525
X32800Y4525
X32800Y5525
X32800Y6525
X32800Y8525
X32800Y9525
X32800Y10525
X32800Y13025
X32800Y14025
X32800Y16025
X32800Y17025
X30000Y19875
X29000Y19875
X28000Y19875
X27000Y19875
X26000Y19875
X25000Y19875
X24000Y19875
X23000Y19875
X22000Y19875
X21000Y19875
X20000Y19875
X19000Y19875
X18000Y19875
X17000Y19875
X16000Y19875
X15000Y19875
X14000Y19875
X13000Y19875
X12000Y19875
X11000Y19875
X10000Y19875
X9000Y19875
X8000Y19875
X8000Y20875
X9000Y20875
X10000Y20875
X11000Y20875
X12000Y20875
X13000Y20875
X14000Y20875
X15000Y20875
X16000Y20875
X17000Y20875
X18000Y20875
X19000Y20875
X20000Y20875
X21000Y20875
X22000Y20875
X23000Y20875
X24000Y20875
X25000Y20875
X26000Y20875
X27000Y20875
X28000Y20875
X29000Y20875
X30000Y20875
T03
X24000Y17875
X24000Y16875
X24000Y15875
X24000Y14875
X24000Y13875
X24000Y12875
X24000Y11875
X24000Y10875
X24000Y9875
X24000Y8875
X26000Y8875
X27000Y8875
X27000Y9875
X26000Y9875
X26000Y10875
X27000Y10875
X27000Y11875
X26000Y11875
X21000Y12875
X17000Y17875
X16000Y17875
X15000Y17875
X14000Y17875
X13000Y17875
X12000Y17875
X11000Y17875
X10000Y17875
X9000Y17875
X8000Y17875
X24200Y3375
M30
