%TF.GenerationSoftware,KiCad,Pcbnew,(6.0.0-rc1-458-g78ff9a857a)*%
%TF.CreationDate,2022-03-27T00:09:46+00:00*%
%TF.ProjectId,belamini_cape_C1,62656c61-6d69-46e6-995f-636170655f43,rev?*%
%TF.SameCoordinates,Original*%
%TF.FileFunction,Soldermask,Top*%
%TF.FilePolarity,Negative*%
%FSLAX46Y46*%
G04 Gerber Fmt 4.6, Leading zero omitted, Abs format (unit mm)*
G04 Created by KiCad (PCBNEW (6.0.0-rc1-458-g78ff9a857a)) date 2022-03-27 00:09:46*
%MOMM*%
%LPD*%
G01*
G04 APERTURE LIST*
G04 Aperture macros list*
%AMRoundRect*
0 Rectangle with rounded corners*
0 $1 Rounding radius*
0 $2 $3 $4 $5 $6 $7 $8 $9 X,Y pos of 4 corners*
0 Add a 4 corners polygon primitive as box body*
4,1,4,$2,$3,$4,$5,$6,$7,$8,$9,$2,$3,0*
0 Add four circle primitives for the rounded corners*
1,1,$1+$1,$2,$3*
1,1,$1+$1,$4,$5*
1,1,$1+$1,$6,$7*
1,1,$1+$1,$8,$9*
0 Add four rect primitives between the rounded corners*
20,1,$1+$1,$2,$3,$4,$5,0*
20,1,$1+$1,$4,$5,$6,$7,0*
20,1,$1+$1,$6,$7,$8,$9,0*
20,1,$1+$1,$8,$9,$2,$3,0*%
%AMOutline5P*
0 Free polygon, 5 corners , with rotation*
0 The origin of the aperture is its center*
0 number of corners: always 5*
0 $1 to $10 corner X, Y*
0 $11 Rotation angle, in degrees counterclockwise*
0 create outline with 5 corners*
4,1,5,$1,$2,$3,$4,$5,$6,$7,$8,$9,$10,$1,$2,$11*%
%AMOutline6P*
0 Free polygon, 6 corners , with rotation*
0 The origin of the aperture is its center*
0 number of corners: always 6*
0 $1 to $12 corner X, Y*
0 $13 Rotation angle, in degrees counterclockwise*
0 create outline with 6 corners*
4,1,6,$1,$2,$3,$4,$5,$6,$7,$8,$9,$10,$11,$12,$1,$2,$13*%
%AMOutline7P*
0 Free polygon, 7 corners , with rotation*
0 The origin of the aperture is its center*
0 number of corners: always 7*
0 $1 to $14 corner X, Y*
0 $15 Rotation angle, in degrees counterclockwise*
0 create outline with 7 corners*
4,1,7,$1,$2,$3,$4,$5,$6,$7,$8,$9,$10,$11,$12,$13,$14,$1,$2,$15*%
%AMOutline8P*
0 Free polygon, 8 corners , with rotation*
0 The origin of the aperture is its center*
0 number of corners: always 8*
0 $1 to $16 corner X, Y*
0 $17 Rotation angle, in degrees counterclockwise*
0 create outline with 8 corners*
4,1,8,$1,$2,$3,$4,$5,$6,$7,$8,$9,$10,$11,$12,$13,$14,$15,$16,$1,$2,$17*%
G04 Aperture macros list end*
%ADD10RoundRect,0.250000X-0.845000X0.620000X-0.845000X-0.620000X0.845000X-0.620000X0.845000X0.620000X0*%
%ADD11O,2.190000X1.740000*%
%ADD12Outline8P,-0.760000X0.380000X-0.380000X0.760000X0.380000X0.760000X0.760000X0.380000X0.760000X-0.380000X0.380000X-0.760000X-0.380000X-0.760000X-0.760000X-0.380000X90.000000*%
%ADD13R,0.650000X1.050000*%
%ADD14R,1.700000X1.700000*%
%ADD15O,1.700000X1.700000*%
%ADD16RoundRect,0.101600X-1.500000X-0.450000X1.500000X-0.450000X1.500000X0.450000X-1.500000X0.450000X0*%
%ADD17C,3.530600*%
%ADD18R,0.650000X0.850000*%
G04 APERTURE END LIST*
D10*
%TO.C,J3*%
X172655000Y-107560000D03*
D11*
X172655000Y-110100000D03*
X172655000Y-112640000D03*
%TD*%
D12*
%TO.C,P2*%
X126900000Y-93560000D03*
X126900000Y-91020000D03*
X129440000Y-93560000D03*
X129440000Y-91020000D03*
X131980000Y-93560000D03*
X131980000Y-91020000D03*
X134520000Y-93560000D03*
X134520000Y-91020000D03*
X137060000Y-93560000D03*
X137060000Y-91020000D03*
X139600000Y-93560000D03*
X139600000Y-91020000D03*
X142140000Y-93560000D03*
X142140000Y-91020000D03*
X144680000Y-93560000D03*
X144680000Y-91020000D03*
X147220000Y-93560000D03*
X147220000Y-91020000D03*
X149760000Y-93560000D03*
X149760000Y-91020000D03*
X152300000Y-93560000D03*
X152300000Y-91020000D03*
X154840000Y-93560000D03*
X154840000Y-91020000D03*
X157380000Y-93560000D03*
X157380000Y-91020000D03*
X159920000Y-93560000D03*
X159920000Y-91020000D03*
X162460000Y-93560000D03*
X162460000Y-91020000D03*
X165000000Y-93560000D03*
X165000000Y-91020000D03*
X167540000Y-93560000D03*
X167540000Y-91020000D03*
X170080000Y-93560000D03*
X170080000Y-91020000D03*
%TD*%
D13*
%TO.C,S1*%
X124666900Y-94241200D03*
X124666900Y-98391200D03*
X122516900Y-94241200D03*
X122516900Y-98391200D03*
%TD*%
D14*
%TO.C,J2*%
X167600000Y-96150000D03*
D15*
X165060000Y-96150000D03*
X162520000Y-96150000D03*
%TD*%
D16*
%TO.C,J5*%
X135119100Y-102827250D03*
X135119100Y-105327250D03*
X135119100Y-107327250D03*
X135119100Y-109827250D03*
D17*
X130907100Y-112893150D03*
X130907100Y-99761350D03*
%TD*%
D18*
%TO.C,D5*%
X123370100Y-114793600D03*
X124220100Y-114793600D03*
X124220100Y-116243600D03*
X123370100Y-116243600D03*
%TD*%
D14*
%TO.C,J1*%
X149766100Y-96113600D03*
D15*
X147226100Y-96113600D03*
X144686100Y-96113600D03*
X142146100Y-96113600D03*
X139606100Y-96113600D03*
X137066100Y-96113600D03*
X134526100Y-96113600D03*
X131986100Y-96113600D03*
X129446100Y-96113600D03*
X126906100Y-96113600D03*
%TD*%
D12*
%TO.C,P1*%
X126910000Y-118970000D03*
X126910000Y-116430000D03*
X129450000Y-118970000D03*
X129450000Y-116430000D03*
X131990000Y-118970000D03*
X131990000Y-116430000D03*
X134530000Y-118970000D03*
X134530000Y-116430000D03*
X137070000Y-118970000D03*
X137070000Y-116430000D03*
X139610000Y-118970000D03*
X139610000Y-116430000D03*
X142150000Y-118970000D03*
X142150000Y-116430000D03*
X144690000Y-118970000D03*
X144690000Y-116430000D03*
X147230000Y-118970000D03*
X147230000Y-116430000D03*
X149770000Y-118970000D03*
X149770000Y-116430000D03*
X152310000Y-118970000D03*
X152310000Y-116430000D03*
X154850000Y-118970000D03*
X154850000Y-116430000D03*
X157390000Y-118970000D03*
X157390000Y-116430000D03*
X159930000Y-118970000D03*
X159930000Y-116430000D03*
X162470000Y-118970000D03*
X162470000Y-116430000D03*
X165010000Y-118970000D03*
X165010000Y-116430000D03*
X167550000Y-118970000D03*
X167550000Y-116430000D03*
X170090000Y-118970000D03*
X170090000Y-116430000D03*
%TD*%
D10*
%TO.C,J4*%
X172605000Y-97410000D03*
D11*
X172605000Y-99950000D03*
X172605000Y-102490000D03*
%TD*%
M02*
