M48
; DRILL file {KiCad (6.0.0-rc1-458-g78ff9a857a)} date Sunday, 27 March 2022 at 00:09:38
; FORMAT={-:-/ absolute / metric / decimal}
; #@! TF.CreationDate,2022-03-27T00:09:38+00:00
; #@! TF.GenerationSoftware,Kicad,Pcbnew,(6.0.0-rc1-458-g78ff9a857a)
; #@! TF.FileFunction,Plated,1,4,PTH
FMAT,2
METRIC
; #@! TA.AperFunction,Plated,PTH,ViaDrill
T1C0.381
; #@! TA.AperFunction,Plated,PTH,ViaDrill
T2C0.400
; #@! TA.AperFunction,Plated,PTH,ComponentDrill
T3C1.000
; #@! TA.AperFunction,Plated,PTH,ComponentDrill
T4C1.190
; #@! TA.AperFunction,Plated,PTH,ComponentDrill
T5C2.311
%
G90
G05
T1
X122.525Y-114.757
X124.811Y-95.453
X125.065Y-114.757
X129.272Y-105.76
X136.154Y-108.127
X136.241Y-104.597
X136.654Y-109.855
X137.003Y-99.009
X137.067Y-100.469
X138.019Y-99.059
X141.0Y-102.5
X141.874Y-99.285
X142.845Y-98.247
X143.169Y-101.845
X144.369Y-99.263
X144.369Y-101.93
X149.465Y-99.959
X152.243Y-113.233
X154.021Y-97.739
X154.021Y-99.263
X154.021Y-100.279
X155.418Y-112.598
X156.002Y-94.691
X156.561Y-103.581
X157.323Y-102.819
X158.085Y-103.581
X158.72Y-108.457
X159.635Y-95.961
X160.117Y-102.311
X160.15Y-108.457
X160.303Y-103.465
X160.371Y-96.621
X160.562Y-106.463
X161.26Y-115.138
X162.53Y-101.168
X164.245Y-99.39
X166.199Y-107.504
X167.737Y-110.439
X168.245Y-103.835
X168.753Y-106.375
X170.023Y-104.343
X170.023Y-106.375
X171.293Y-104.343
X173.579Y-92.405
X174.595Y-95.707
T2
X138.182Y-108.172
X138.95Y-106.175
X139.106Y-104.543
X140.05Y-113.25
X141.463Y-110.688
X142.202Y-112.748
X142.45Y-103.45
X142.5Y-106.4
X143.394Y-103.196
X144.093Y-100.332
X145.15Y-108.55
X145.323Y-103.352
X145.5Y-98.325
X146.3Y-103.35
X148.15Y-109.5
X148.25Y-102.95
X148.275Y-98.85
X149.35Y-110.75
X156.73Y-107.73
X163.4Y-110.6
X165.65Y-98.0
T3
X126.9Y-91.02
X126.9Y-93.56
X126.906Y-96.114
X126.91Y-116.43
X126.91Y-118.97
X129.44Y-91.02
X129.44Y-93.56
X129.446Y-96.114
X129.45Y-116.43
X129.45Y-118.97
X131.98Y-91.02
X131.98Y-93.56
X131.986Y-96.114
X131.99Y-116.43
X131.99Y-118.97
X134.52Y-91.02
X134.52Y-93.56
X134.526Y-96.114
X134.53Y-116.43
X134.53Y-118.97
X137.06Y-91.02
X137.06Y-93.56
X137.066Y-96.114
X137.07Y-116.43
X137.07Y-118.97
X139.6Y-91.02
X139.6Y-93.56
X139.606Y-96.114
X139.61Y-116.43
X139.61Y-118.97
X142.14Y-91.02
X142.14Y-93.56
X142.146Y-96.114
X142.15Y-116.43
X142.15Y-118.97
X144.68Y-91.02
X144.68Y-93.56
X144.686Y-96.114
X144.69Y-116.43
X144.69Y-118.97
X147.22Y-91.02
X147.22Y-93.56
X147.226Y-96.114
X147.23Y-116.43
X147.23Y-118.97
X149.76Y-91.02
X149.76Y-93.56
X149.766Y-96.114
X149.77Y-116.43
X149.77Y-118.97
X152.3Y-91.02
X152.3Y-93.56
X152.31Y-116.43
X152.31Y-118.97
X154.84Y-91.02
X154.84Y-93.56
X154.85Y-116.43
X154.85Y-118.97
X157.38Y-91.02
X157.38Y-93.56
X157.39Y-116.43
X157.39Y-118.97
X159.92Y-91.02
X159.92Y-93.56
X159.93Y-116.43
X159.93Y-118.97
X162.46Y-91.02
X162.46Y-93.56
X162.47Y-116.43
X162.47Y-118.97
X162.52Y-96.15
X165.0Y-91.02
X165.0Y-93.56
X165.01Y-116.43
X165.01Y-118.97
X165.06Y-96.15
X167.54Y-91.02
X167.54Y-93.56
X167.55Y-116.43
X167.55Y-118.97
X167.6Y-96.15
X170.08Y-91.02
X170.08Y-93.56
X170.09Y-116.43
X170.09Y-118.97
T4
X172.605Y-97.41
X172.605Y-99.95
X172.605Y-102.49
X172.655Y-107.56
X172.655Y-110.1
X172.655Y-112.64
T5
X130.907Y-99.761
X130.907Y-112.893
T0
M30
