%TF.GenerationSoftware,KiCad,Pcbnew,(6.0.0-rc1-458-g78ff9a857a)*%
%TF.CreationDate,2022-03-27T00:09:45+00:00*%
%TF.ProjectId,belamini_cape_C1,62656c61-6d69-46e6-995f-636170655f43,rev?*%
%TF.SameCoordinates,Original*%
%TF.FileFunction,Legend,Bot*%
%TF.FilePolarity,Positive*%
%FSLAX46Y46*%
G04 Gerber Fmt 4.6, Leading zero omitted, Abs format (unit mm)*
G04 Created by KiCad (PCBNEW (6.0.0-rc1-458-g78ff9a857a)) date 2022-03-27 00:09:45*
%MOMM*%
%LPD*%
G01*
G04 APERTURE LIST*
%ADD10C,0.120000*%
%ADD11C,0.152400*%
%ADD12C,0.150000*%
%ADD13C,0.200000*%
%ADD14C,0.100000*%
G04 APERTURE END LIST*
D10*
X141661803Y-98950000D02*
G75*
G03*
X141661803Y-98950000I-111803J0D01*
G01*
X144700000Y-102450000D02*
G75*
G03*
X144700000Y-102450000I-100000J0D01*
G01*
X155141421Y-95900000D02*
G75*
G03*
X155141421Y-95900000I-141421J0D01*
G01*
X166478000Y-89369300D02*
X166516100Y-89331200D01*
X166592300Y-89216900D01*
X166630400Y-89140700D01*
X166668500Y-89026400D01*
X166706600Y-88835900D01*
X166706600Y-88683500D01*
X166668500Y-88493000D01*
X166630400Y-88378700D01*
X166592300Y-88302500D01*
X166516100Y-88188200D01*
X166478000Y-88150100D01*
X165830300Y-89026400D02*
X165906500Y-89064500D01*
X166058900Y-89064500D01*
X166135100Y-89026400D01*
X166173200Y-88988300D01*
X166211300Y-88912100D01*
X166211300Y-88683500D01*
X166173200Y-88607300D01*
X166135100Y-88569200D01*
X166058900Y-88531100D01*
X165906500Y-88531100D01*
X165830300Y-88569200D01*
X165563600Y-89369300D02*
X165525500Y-89331200D01*
X165449300Y-89216900D01*
X165411200Y-89140700D01*
X165373100Y-89026400D01*
X165335000Y-88835900D01*
X165335000Y-88683500D01*
X165373100Y-88493000D01*
X165411200Y-88378700D01*
X165449300Y-88302500D01*
X165525500Y-88188200D01*
X165563600Y-88150100D01*
X164382500Y-88835900D02*
X164001500Y-88835900D01*
X164458700Y-89064500D02*
X164192000Y-88264400D01*
X163925300Y-89064500D01*
X163315700Y-88531100D02*
X163315700Y-89064500D01*
X163658600Y-88531100D02*
X163658600Y-88950200D01*
X163620500Y-89026400D01*
X163544300Y-89064500D01*
X163430000Y-89064500D01*
X163353800Y-89026400D01*
X163315700Y-88988300D01*
X162591800Y-88531100D02*
X162591800Y-89178800D01*
X162629900Y-89255000D01*
X162668000Y-89293100D01*
X162744200Y-89331200D01*
X162858500Y-89331200D01*
X162934700Y-89293100D01*
X162591800Y-89026400D02*
X162668000Y-89064500D01*
X162820400Y-89064500D01*
X162896600Y-89026400D01*
X162934700Y-88988300D01*
X162972800Y-88912100D01*
X162972800Y-88683500D01*
X162934700Y-88607300D01*
X162896600Y-88569200D01*
X162820400Y-88531100D01*
X162668000Y-88531100D01*
X162591800Y-88569200D01*
X162210800Y-89064500D02*
X162210800Y-88531100D01*
X162210800Y-88607300D02*
X162172700Y-88569200D01*
X162096500Y-88531100D01*
X161982200Y-88531100D01*
X161906000Y-88569200D01*
X161867900Y-88645400D01*
X161867900Y-89064500D01*
X161867900Y-88645400D02*
X161829800Y-88569200D01*
X161753600Y-88531100D01*
X161639300Y-88531100D01*
X161563100Y-88569200D01*
X161525000Y-88645400D01*
X161525000Y-89064500D01*
X160839200Y-89026400D02*
X160915400Y-89064500D01*
X161067800Y-89064500D01*
X161144000Y-89026400D01*
X161182100Y-88950200D01*
X161182100Y-88645400D01*
X161144000Y-88569200D01*
X161067800Y-88531100D01*
X160915400Y-88531100D01*
X160839200Y-88569200D01*
X160801100Y-88645400D01*
X160801100Y-88721600D01*
X161182100Y-88797800D01*
X160458200Y-88531100D02*
X160458200Y-89064500D01*
X160458200Y-88607300D02*
X160420100Y-88569200D01*
X160343900Y-88531100D01*
X160229600Y-88531100D01*
X160153400Y-88569200D01*
X160115300Y-88645400D01*
X160115300Y-89064500D01*
X159848600Y-88531100D02*
X159543800Y-88531100D01*
X159734300Y-88264400D02*
X159734300Y-88950200D01*
X159696200Y-89026400D01*
X159620000Y-89064500D01*
X159543800Y-89064500D01*
X158972300Y-89026400D02*
X159048500Y-89064500D01*
X159200900Y-89064500D01*
X159277100Y-89026400D01*
X159315200Y-88950200D01*
X159315200Y-88645400D01*
X159277100Y-88569200D01*
X159200900Y-88531100D01*
X159048500Y-88531100D01*
X158972300Y-88569200D01*
X158934200Y-88645400D01*
X158934200Y-88721600D01*
X159315200Y-88797800D01*
X158248400Y-89064500D02*
X158248400Y-88264400D01*
X158248400Y-89026400D02*
X158324600Y-89064500D01*
X158477000Y-89064500D01*
X158553200Y-89026400D01*
X158591300Y-88988300D01*
X158629400Y-88912100D01*
X158629400Y-88683500D01*
X158591300Y-88607300D01*
X158553200Y-88569200D01*
X158477000Y-88531100D01*
X158324600Y-88531100D01*
X158248400Y-88569200D01*
X157257800Y-89064500D02*
X157257800Y-88264400D01*
X156876800Y-88531100D02*
X156876800Y-89064500D01*
X156876800Y-88607300D02*
X156838700Y-88569200D01*
X156762500Y-88531100D01*
X156648200Y-88531100D01*
X156572000Y-88569200D01*
X156533900Y-88645400D01*
X156533900Y-89064500D01*
X156191000Y-89026400D02*
X156114800Y-89064500D01*
X155962400Y-89064500D01*
X155886200Y-89026400D01*
X155848100Y-88950200D01*
X155848100Y-88912100D01*
X155886200Y-88835900D01*
X155962400Y-88797800D01*
X156076700Y-88797800D01*
X156152900Y-88759700D01*
X156191000Y-88683500D01*
X156191000Y-88645400D01*
X156152900Y-88569200D01*
X156076700Y-88531100D01*
X155962400Y-88531100D01*
X155886200Y-88569200D01*
X155619500Y-88531100D02*
X155314700Y-88531100D01*
X155505200Y-88264400D02*
X155505200Y-88950200D01*
X155467100Y-89026400D01*
X155390900Y-89064500D01*
X155314700Y-89064500D01*
X155048000Y-89064500D02*
X155048000Y-88531100D01*
X155048000Y-88683500D02*
X155009900Y-88607300D01*
X154971800Y-88569200D01*
X154895600Y-88531100D01*
X154819400Y-88531100D01*
X154209800Y-88531100D02*
X154209800Y-89064500D01*
X154552700Y-88531100D02*
X154552700Y-88950200D01*
X154514600Y-89026400D01*
X154438400Y-89064500D01*
X154324100Y-89064500D01*
X154247900Y-89026400D01*
X154209800Y-88988300D01*
X153828800Y-89064500D02*
X153828800Y-88531100D01*
X153828800Y-88607300D02*
X153790700Y-88569200D01*
X153714500Y-88531100D01*
X153600200Y-88531100D01*
X153524000Y-88569200D01*
X153485900Y-88645400D01*
X153485900Y-89064500D01*
X153485900Y-88645400D02*
X153447800Y-88569200D01*
X153371600Y-88531100D01*
X153257300Y-88531100D01*
X153181100Y-88569200D01*
X153143000Y-88645400D01*
X153143000Y-89064500D01*
X152457200Y-89026400D02*
X152533400Y-89064500D01*
X152685800Y-89064500D01*
X152762000Y-89026400D01*
X152800100Y-88950200D01*
X152800100Y-88645400D01*
X152762000Y-88569200D01*
X152685800Y-88531100D01*
X152533400Y-88531100D01*
X152457200Y-88569200D01*
X152419100Y-88645400D01*
X152419100Y-88721600D01*
X152800100Y-88797800D01*
X152076200Y-88531100D02*
X152076200Y-89064500D01*
X152076200Y-88607300D02*
X152038100Y-88569200D01*
X151961900Y-88531100D01*
X151847600Y-88531100D01*
X151771400Y-88569200D01*
X151733300Y-88645400D01*
X151733300Y-89064500D01*
X151466600Y-88531100D02*
X151161800Y-88531100D01*
X151352300Y-88264400D02*
X151352300Y-88950200D01*
X151314200Y-89026400D01*
X151238000Y-89064500D01*
X151161800Y-89064500D01*
X150933200Y-89026400D02*
X150857000Y-89064500D01*
X150704600Y-89064500D01*
X150628400Y-89026400D01*
X150590300Y-88950200D01*
X150590300Y-88912100D01*
X150628400Y-88835900D01*
X150704600Y-88797800D01*
X150818900Y-88797800D01*
X150895100Y-88759700D01*
X150933200Y-88683500D01*
X150933200Y-88645400D01*
X150895100Y-88569200D01*
X150818900Y-88531100D01*
X150704600Y-88531100D01*
X150628400Y-88569200D01*
X149256800Y-89064500D02*
X149637800Y-89064500D01*
X149637800Y-88264400D01*
X149104400Y-88531100D02*
X148799600Y-88531100D01*
X148990100Y-88264400D02*
X148990100Y-88950200D01*
X148952000Y-89026400D01*
X148875800Y-89064500D01*
X148799600Y-89064500D01*
X148190000Y-89064500D02*
X148190000Y-88264400D01*
X148190000Y-89026400D02*
X148266200Y-89064500D01*
X148418600Y-89064500D01*
X148494800Y-89026400D01*
X148532900Y-88988300D01*
X148571000Y-88912100D01*
X148571000Y-88683500D01*
X148532900Y-88607300D01*
X148494800Y-88569200D01*
X148418600Y-88531100D01*
X148266200Y-88531100D01*
X148190000Y-88569200D01*
D11*
X131430944Y-121878880D02*
X131430944Y-120761280D01*
X131005192Y-120761280D01*
X130898754Y-120814500D01*
X130845535Y-120867719D01*
X130792316Y-120974157D01*
X130792316Y-121133814D01*
X130845535Y-121240252D01*
X130898754Y-121293471D01*
X131005192Y-121346690D01*
X131430944Y-121346690D01*
X129727935Y-121878880D02*
X130366563Y-121878880D01*
X130047249Y-121878880D02*
X130047249Y-120761280D01*
X130153687Y-120920938D01*
X130260125Y-121027376D01*
X130366563Y-121080595D01*
D10*
X153300159Y-121594044D02*
X152919159Y-121594044D01*
X153376359Y-121822644D02*
X153109659Y-121022544D01*
X152842959Y-121822644D01*
X152576259Y-121746444D02*
X152538159Y-121784544D01*
X152576259Y-121822644D01*
X152614359Y-121784544D01*
X152576259Y-121746444D01*
X152576259Y-121822644D01*
X151585659Y-121822644D02*
X151585659Y-121022544D01*
X151318959Y-121594044D01*
X151052259Y-121022544D01*
X151052259Y-121822644D01*
X150328359Y-121784544D02*
X150404559Y-121822644D01*
X150556959Y-121822644D01*
X150633159Y-121784544D01*
X150671259Y-121746444D01*
X150709359Y-121670244D01*
X150709359Y-121441644D01*
X150671259Y-121365444D01*
X150633159Y-121327344D01*
X150556959Y-121289244D01*
X150404559Y-121289244D01*
X150328359Y-121327344D01*
X149985459Y-121822644D02*
X149985459Y-121022544D01*
X149680659Y-121022544D01*
X149604459Y-121060644D01*
X149566359Y-121098744D01*
X149528259Y-121174944D01*
X149528259Y-121289244D01*
X149566359Y-121365444D01*
X149604459Y-121403544D01*
X149680659Y-121441644D01*
X149985459Y-121441644D01*
X149185359Y-121822644D02*
X149185359Y-121022544D01*
X148842459Y-121822644D02*
X148842459Y-121403544D01*
X148880559Y-121327344D01*
X148956759Y-121289244D01*
X149071059Y-121289244D01*
X149147259Y-121327344D01*
X149185359Y-121365444D01*
X148156659Y-121784544D02*
X148232859Y-121822644D01*
X148385259Y-121822644D01*
X148461459Y-121784544D01*
X148499559Y-121708344D01*
X148499559Y-121403544D01*
X148461459Y-121327344D01*
X148385259Y-121289244D01*
X148232859Y-121289244D01*
X148156659Y-121327344D01*
X148118559Y-121403544D01*
X148118559Y-121479744D01*
X148499559Y-121555944D01*
X147775659Y-121822644D02*
X147775659Y-121289244D01*
X147775659Y-121441644D02*
X147737559Y-121365444D01*
X147699459Y-121327344D01*
X147623259Y-121289244D01*
X147547059Y-121289244D01*
X147318459Y-121784544D02*
X147242259Y-121822644D01*
X147089859Y-121822644D01*
X147013659Y-121784544D01*
X146975559Y-121708344D01*
X146975559Y-121670244D01*
X147013659Y-121594044D01*
X147089859Y-121555944D01*
X147204159Y-121555944D01*
X147280359Y-121517844D01*
X147318459Y-121441644D01*
X147318459Y-121403544D01*
X147280359Y-121327344D01*
X147204159Y-121289244D01*
X147089859Y-121289244D01*
X147013659Y-121327344D01*
X146518359Y-121822644D02*
X146594559Y-121784544D01*
X146632659Y-121746444D01*
X146670759Y-121670244D01*
X146670759Y-121441644D01*
X146632659Y-121365444D01*
X146594559Y-121327344D01*
X146518359Y-121289244D01*
X146404059Y-121289244D01*
X146327859Y-121327344D01*
X146289759Y-121365444D01*
X146251659Y-121441644D01*
X146251659Y-121670244D01*
X146289759Y-121746444D01*
X146327859Y-121784544D01*
X146404059Y-121822644D01*
X146518359Y-121822644D01*
X145908759Y-121289244D02*
X145908759Y-121822644D01*
X145908759Y-121365444D02*
X145870659Y-121327344D01*
X145794459Y-121289244D01*
X145680159Y-121289244D01*
X145603959Y-121327344D01*
X145565859Y-121403544D01*
X145565859Y-121822644D01*
X144422859Y-121022544D02*
X144346659Y-121022544D01*
X144270459Y-121060644D01*
X144232359Y-121098744D01*
X144194259Y-121174944D01*
X144156159Y-121327344D01*
X144156159Y-121517844D01*
X144194259Y-121670244D01*
X144232359Y-121746444D01*
X144270459Y-121784544D01*
X144346659Y-121822644D01*
X144422859Y-121822644D01*
X144499059Y-121784544D01*
X144537159Y-121746444D01*
X144575259Y-121670244D01*
X144613359Y-121517844D01*
X144613359Y-121327344D01*
X144575259Y-121174944D01*
X144537159Y-121098744D01*
X144499059Y-121060644D01*
X144422859Y-121022544D01*
X143889459Y-121022544D02*
X143394159Y-121022544D01*
X143660859Y-121327344D01*
X143546559Y-121327344D01*
X143470359Y-121365444D01*
X143432259Y-121403544D01*
X143394159Y-121479744D01*
X143394159Y-121670244D01*
X143432259Y-121746444D01*
X143470359Y-121784544D01*
X143546559Y-121822644D01*
X143775159Y-121822644D01*
X143851359Y-121784544D01*
X143889459Y-121746444D01*
X142479759Y-120984444D02*
X143165559Y-122013144D01*
X142251159Y-121098744D02*
X142213059Y-121060644D01*
X142136859Y-121022544D01*
X141946359Y-121022544D01*
X141870159Y-121060644D01*
X141832059Y-121098744D01*
X141793959Y-121174944D01*
X141793959Y-121251144D01*
X141832059Y-121365444D01*
X142289259Y-121822644D01*
X141793959Y-121822644D01*
X141489159Y-121098744D02*
X141451059Y-121060644D01*
X141374859Y-121022544D01*
X141184359Y-121022544D01*
X141108159Y-121060644D01*
X141070059Y-121098744D01*
X141031959Y-121174944D01*
X141031959Y-121251144D01*
X141070059Y-121365444D01*
X141527259Y-121822644D01*
X141031959Y-121822644D01*
D12*
X156495238Y-108457142D02*
X157104761Y-108457142D01*
X156800000Y-108761904D02*
X156800000Y-108152380D01*
D11*
X131176944Y-89366880D02*
X131176944Y-88249280D01*
X130751192Y-88249280D01*
X130644754Y-88302500D01*
X130591535Y-88355719D01*
X130538316Y-88462157D01*
X130538316Y-88621814D01*
X130591535Y-88728252D01*
X130644754Y-88781471D01*
X130751192Y-88834690D01*
X131176944Y-88834690D01*
X130112563Y-88355719D02*
X130059344Y-88302500D01*
X129952906Y-88249280D01*
X129686811Y-88249280D01*
X129580373Y-88302500D01*
X129527154Y-88355719D01*
X129473935Y-88462157D01*
X129473935Y-88568595D01*
X129527154Y-88728252D01*
X130165782Y-89366880D01*
X129473935Y-89366880D01*
D12*
X159495238Y-108457142D02*
X160104761Y-108457142D01*
X159800000Y-108761904D02*
X159800000Y-108152380D01*
D13*
X166731930Y-121222115D02*
X166572273Y-121275334D01*
X166519054Y-121328553D01*
X166465835Y-121434991D01*
X166465835Y-121594648D01*
X166519054Y-121701086D01*
X166572273Y-121754305D01*
X166678711Y-121807524D01*
X167104463Y-121807524D01*
X167104463Y-120689924D01*
X166731930Y-120689924D01*
X166625492Y-120743144D01*
X166572273Y-120796363D01*
X166519054Y-120902801D01*
X166519054Y-121009239D01*
X166572273Y-121115677D01*
X166625492Y-121168896D01*
X166731930Y-121222115D01*
X167104463Y-121222115D01*
X165561111Y-121754305D02*
X165667549Y-121807524D01*
X165880425Y-121807524D01*
X165986863Y-121754305D01*
X166040082Y-121647867D01*
X166040082Y-121222115D01*
X165986863Y-121115677D01*
X165880425Y-121062458D01*
X165667549Y-121062458D01*
X165561111Y-121115677D01*
X165507892Y-121222115D01*
X165507892Y-121328553D01*
X166040082Y-121434991D01*
X164869263Y-121807524D02*
X164975701Y-121754305D01*
X165028920Y-121647867D01*
X165028920Y-120689924D01*
X163964539Y-121807524D02*
X163964539Y-121222115D01*
X164017759Y-121115677D01*
X164124197Y-121062458D01*
X164337073Y-121062458D01*
X164443511Y-121115677D01*
X163964539Y-121754305D02*
X164070978Y-121807524D01*
X164337073Y-121807524D01*
X164443511Y-121754305D01*
X164496730Y-121647867D01*
X164496730Y-121541429D01*
X164443511Y-121434991D01*
X164337073Y-121381772D01*
X164070978Y-121381772D01*
X163964539Y-121328553D01*
X162580844Y-121807524D02*
X162580844Y-120689924D01*
X162208311Y-121488210D01*
X161835778Y-120689924D01*
X161835778Y-121807524D01*
X161303587Y-121807524D02*
X161303587Y-121062458D01*
X161303587Y-120689924D02*
X161356806Y-120743144D01*
X161303587Y-120796363D01*
X161250368Y-120743144D01*
X161303587Y-120689924D01*
X161303587Y-120796363D01*
X160771397Y-121062458D02*
X160771397Y-121807524D01*
X160771397Y-121168896D02*
X160718178Y-121115677D01*
X160611739Y-121062458D01*
X160452082Y-121062458D01*
X160345644Y-121115677D01*
X160292425Y-121222115D01*
X160292425Y-121807524D01*
X159760235Y-121807524D02*
X159760235Y-121062458D01*
X159760235Y-120689924D02*
X159813454Y-120743144D01*
X159760235Y-120796363D01*
X159707016Y-120743144D01*
X159760235Y-120689924D01*
X159760235Y-120796363D01*
D12*
%TO.C,R9*%
X169933333Y-105561904D02*
X170200000Y-105180952D01*
X170390476Y-105561904D02*
X170390476Y-104761904D01*
X170085714Y-104761904D01*
X170009523Y-104800000D01*
X169971428Y-104838095D01*
X169933333Y-104914285D01*
X169933333Y-105028571D01*
X169971428Y-105104761D01*
X170009523Y-105142857D01*
X170085714Y-105180952D01*
X170390476Y-105180952D01*
X169552380Y-105561904D02*
X169400000Y-105561904D01*
X169323809Y-105523809D01*
X169285714Y-105485714D01*
X169209523Y-105371428D01*
X169171428Y-105219047D01*
X169171428Y-104914285D01*
X169209523Y-104838095D01*
X169247619Y-104800000D01*
X169323809Y-104761904D01*
X169476190Y-104761904D01*
X169552380Y-104800000D01*
X169590476Y-104838095D01*
X169628571Y-104914285D01*
X169628571Y-105104761D01*
X169590476Y-105180952D01*
X169552380Y-105219047D01*
X169476190Y-105257142D01*
X169323809Y-105257142D01*
X169247619Y-105219047D01*
X169209523Y-105180952D01*
X169171428Y-105104761D01*
%TO.C,D4*%
X163590476Y-110961904D02*
X163590476Y-110161904D01*
X163400000Y-110161904D01*
X163285714Y-110200000D01*
X163209523Y-110276190D01*
X163171428Y-110352380D01*
X163133333Y-110504761D01*
X163133333Y-110619047D01*
X163171428Y-110771428D01*
X163209523Y-110847619D01*
X163285714Y-110923809D01*
X163400000Y-110961904D01*
X163590476Y-110961904D01*
X162447619Y-110428571D02*
X162447619Y-110961904D01*
X162638095Y-110123809D02*
X162828571Y-110695238D01*
X162333333Y-110695238D01*
%TO.C,IC3*%
X144380952Y-103661904D02*
X144380952Y-102861904D01*
X143542857Y-103585714D02*
X143580952Y-103623809D01*
X143695238Y-103661904D01*
X143771428Y-103661904D01*
X143885714Y-103623809D01*
X143961904Y-103547619D01*
X144000000Y-103471428D01*
X144038095Y-103319047D01*
X144038095Y-103204761D01*
X144000000Y-103052380D01*
X143961904Y-102976190D01*
X143885714Y-102900000D01*
X143771428Y-102861904D01*
X143695238Y-102861904D01*
X143580952Y-102900000D01*
X143542857Y-102938095D01*
X143276190Y-102861904D02*
X142780952Y-102861904D01*
X143047619Y-103166666D01*
X142933333Y-103166666D01*
X142857142Y-103204761D01*
X142819047Y-103242857D01*
X142780952Y-103319047D01*
X142780952Y-103509523D01*
X142819047Y-103585714D01*
X142857142Y-103623809D01*
X142933333Y-103661904D01*
X143161904Y-103661904D01*
X143238095Y-103623809D01*
X143276190Y-103585714D01*
%TO.C,C19*%
X161685714Y-97685714D02*
X161723809Y-97647619D01*
X161761904Y-97533333D01*
X161761904Y-97457142D01*
X161723809Y-97342857D01*
X161647619Y-97266666D01*
X161571428Y-97228571D01*
X161419047Y-97190476D01*
X161304761Y-97190476D01*
X161152380Y-97228571D01*
X161076190Y-97266666D01*
X161000000Y-97342857D01*
X160961904Y-97457142D01*
X160961904Y-97533333D01*
X161000000Y-97647619D01*
X161038095Y-97685714D01*
X161761904Y-98447619D02*
X161761904Y-97990476D01*
X161761904Y-98219047D02*
X160961904Y-98219047D01*
X161076190Y-98142857D01*
X161152380Y-98066666D01*
X161190476Y-97990476D01*
X161761904Y-98828571D02*
X161761904Y-98980952D01*
X161723809Y-99057142D01*
X161685714Y-99095238D01*
X161571428Y-99171428D01*
X161419047Y-99209523D01*
X161114285Y-99209523D01*
X161038095Y-99171428D01*
X161000000Y-99133333D01*
X160961904Y-99057142D01*
X160961904Y-98904761D01*
X161000000Y-98828571D01*
X161038095Y-98790476D01*
X161114285Y-98752380D01*
X161304761Y-98752380D01*
X161380952Y-98790476D01*
X161419047Y-98828571D01*
X161457142Y-98904761D01*
X161457142Y-99057142D01*
X161419047Y-99133333D01*
X161380952Y-99171428D01*
X161304761Y-99209523D01*
%TO.C,C14*%
X161914285Y-105685714D02*
X161952380Y-105723809D01*
X162066666Y-105761904D01*
X162142857Y-105761904D01*
X162257142Y-105723809D01*
X162333333Y-105647619D01*
X162371428Y-105571428D01*
X162409523Y-105419047D01*
X162409523Y-105304761D01*
X162371428Y-105152380D01*
X162333333Y-105076190D01*
X162257142Y-105000000D01*
X162142857Y-104961904D01*
X162066666Y-104961904D01*
X161952380Y-105000000D01*
X161914285Y-105038095D01*
X161152380Y-105761904D02*
X161609523Y-105761904D01*
X161380952Y-105761904D02*
X161380952Y-104961904D01*
X161457142Y-105076190D01*
X161533333Y-105152380D01*
X161609523Y-105190476D01*
X160466666Y-105228571D02*
X160466666Y-105761904D01*
X160657142Y-104923809D02*
X160847619Y-105495238D01*
X160352380Y-105495238D01*
%TO.C,C22*%
X136335714Y-109485714D02*
X136373809Y-109447619D01*
X136411904Y-109333333D01*
X136411904Y-109257142D01*
X136373809Y-109142857D01*
X136297619Y-109066666D01*
X136221428Y-109028571D01*
X136069047Y-108990476D01*
X135954761Y-108990476D01*
X135802380Y-109028571D01*
X135726190Y-109066666D01*
X135650000Y-109142857D01*
X135611904Y-109257142D01*
X135611904Y-109333333D01*
X135650000Y-109447619D01*
X135688095Y-109485714D01*
X135688095Y-109790476D02*
X135650000Y-109828571D01*
X135611904Y-109904761D01*
X135611904Y-110095238D01*
X135650000Y-110171428D01*
X135688095Y-110209523D01*
X135764285Y-110247619D01*
X135840476Y-110247619D01*
X135954761Y-110209523D01*
X136411904Y-109752380D01*
X136411904Y-110247619D01*
X135688095Y-110552380D02*
X135650000Y-110590476D01*
X135611904Y-110666666D01*
X135611904Y-110857142D01*
X135650000Y-110933333D01*
X135688095Y-110971428D01*
X135764285Y-111009523D01*
X135840476Y-111009523D01*
X135954761Y-110971428D01*
X136411904Y-110514285D01*
X136411904Y-111009523D01*
%TO.C,C10*%
X150935714Y-107785714D02*
X150973809Y-107747619D01*
X151011904Y-107633333D01*
X151011904Y-107557142D01*
X150973809Y-107442857D01*
X150897619Y-107366666D01*
X150821428Y-107328571D01*
X150669047Y-107290476D01*
X150554761Y-107290476D01*
X150402380Y-107328571D01*
X150326190Y-107366666D01*
X150250000Y-107442857D01*
X150211904Y-107557142D01*
X150211904Y-107633333D01*
X150250000Y-107747619D01*
X150288095Y-107785714D01*
X151011904Y-108547619D02*
X151011904Y-108090476D01*
X151011904Y-108319047D02*
X150211904Y-108319047D01*
X150326190Y-108242857D01*
X150402380Y-108166666D01*
X150440476Y-108090476D01*
X150211904Y-109042857D02*
X150211904Y-109119047D01*
X150250000Y-109195238D01*
X150288095Y-109233333D01*
X150364285Y-109271428D01*
X150516666Y-109309523D01*
X150707142Y-109309523D01*
X150859523Y-109271428D01*
X150935714Y-109233333D01*
X150973809Y-109195238D01*
X151011904Y-109119047D01*
X151011904Y-109042857D01*
X150973809Y-108966666D01*
X150935714Y-108928571D01*
X150859523Y-108890476D01*
X150707142Y-108852380D01*
X150516666Y-108852380D01*
X150364285Y-108890476D01*
X150288095Y-108928571D01*
X150250000Y-108966666D01*
X150211904Y-109042857D01*
%TO.C,R5*%
X123983333Y-114211904D02*
X124250000Y-113830952D01*
X124440476Y-114211904D02*
X124440476Y-113411904D01*
X124135714Y-113411904D01*
X124059523Y-113450000D01*
X124021428Y-113488095D01*
X123983333Y-113564285D01*
X123983333Y-113678571D01*
X124021428Y-113754761D01*
X124059523Y-113792857D01*
X124135714Y-113830952D01*
X124440476Y-113830952D01*
X123259523Y-113411904D02*
X123640476Y-113411904D01*
X123678571Y-113792857D01*
X123640476Y-113754761D01*
X123564285Y-113716666D01*
X123373809Y-113716666D01*
X123297619Y-113754761D01*
X123259523Y-113792857D01*
X123221428Y-113869047D01*
X123221428Y-114059523D01*
X123259523Y-114135714D01*
X123297619Y-114173809D01*
X123373809Y-114211904D01*
X123564285Y-114211904D01*
X123640476Y-114173809D01*
X123678571Y-114135714D01*
D14*
%TO.C,C23*%
X137514285Y-107214285D02*
X137542857Y-107185714D01*
X137571428Y-107100000D01*
X137571428Y-107042857D01*
X137542857Y-106957142D01*
X137485714Y-106900000D01*
X137428571Y-106871428D01*
X137314285Y-106842857D01*
X137228571Y-106842857D01*
X137114285Y-106871428D01*
X137057142Y-106900000D01*
X137000000Y-106957142D01*
X136971428Y-107042857D01*
X136971428Y-107100000D01*
X137000000Y-107185714D01*
X137028571Y-107214285D01*
X137028571Y-107442857D02*
X137000000Y-107471428D01*
X136971428Y-107528571D01*
X136971428Y-107671428D01*
X137000000Y-107728571D01*
X137028571Y-107757142D01*
X137085714Y-107785714D01*
X137142857Y-107785714D01*
X137228571Y-107757142D01*
X137571428Y-107414285D01*
X137571428Y-107785714D01*
X136971428Y-107985714D02*
X136971428Y-108357142D01*
X137200000Y-108157142D01*
X137200000Y-108242857D01*
X137228571Y-108300000D01*
X137257142Y-108328571D01*
X137314285Y-108357142D01*
X137457142Y-108357142D01*
X137514285Y-108328571D01*
X137542857Y-108300000D01*
X137571428Y-108242857D01*
X137571428Y-108071428D01*
X137542857Y-108014285D01*
X137514285Y-107985714D01*
D12*
%TO.C,RN1*%
X146452380Y-115061904D02*
X146719047Y-114680952D01*
X146909523Y-115061904D02*
X146909523Y-114261904D01*
X146604761Y-114261904D01*
X146528571Y-114300000D01*
X146490476Y-114338095D01*
X146452380Y-114414285D01*
X146452380Y-114528571D01*
X146490476Y-114604761D01*
X146528571Y-114642857D01*
X146604761Y-114680952D01*
X146909523Y-114680952D01*
X146109523Y-115061904D02*
X146109523Y-114261904D01*
X145652380Y-115061904D01*
X145652380Y-114261904D01*
X144852380Y-115061904D02*
X145309523Y-115061904D01*
X145080952Y-115061904D02*
X145080952Y-114261904D01*
X145157142Y-114376190D01*
X145233333Y-114452380D01*
X145309523Y-114490476D01*
%TO.C,C15*%
X161914285Y-107085714D02*
X161952380Y-107123809D01*
X162066666Y-107161904D01*
X162142857Y-107161904D01*
X162257142Y-107123809D01*
X162333333Y-107047619D01*
X162371428Y-106971428D01*
X162409523Y-106819047D01*
X162409523Y-106704761D01*
X162371428Y-106552380D01*
X162333333Y-106476190D01*
X162257142Y-106400000D01*
X162142857Y-106361904D01*
X162066666Y-106361904D01*
X161952380Y-106400000D01*
X161914285Y-106438095D01*
X161152380Y-107161904D02*
X161609523Y-107161904D01*
X161380952Y-107161904D02*
X161380952Y-106361904D01*
X161457142Y-106476190D01*
X161533333Y-106552380D01*
X161609523Y-106590476D01*
X160428571Y-106361904D02*
X160809523Y-106361904D01*
X160847619Y-106742857D01*
X160809523Y-106704761D01*
X160733333Y-106666666D01*
X160542857Y-106666666D01*
X160466666Y-106704761D01*
X160428571Y-106742857D01*
X160390476Y-106819047D01*
X160390476Y-107009523D01*
X160428571Y-107085714D01*
X160466666Y-107123809D01*
X160542857Y-107161904D01*
X160733333Y-107161904D01*
X160809523Y-107123809D01*
X160847619Y-107085714D01*
%TO.C,IC5*%
X154480952Y-113761904D02*
X154480952Y-112961904D01*
X153642857Y-113685714D02*
X153680952Y-113723809D01*
X153795238Y-113761904D01*
X153871428Y-113761904D01*
X153985714Y-113723809D01*
X154061904Y-113647619D01*
X154100000Y-113571428D01*
X154138095Y-113419047D01*
X154138095Y-113304761D01*
X154100000Y-113152380D01*
X154061904Y-113076190D01*
X153985714Y-113000000D01*
X153871428Y-112961904D01*
X153795238Y-112961904D01*
X153680952Y-113000000D01*
X153642857Y-113038095D01*
X152919047Y-112961904D02*
X153300000Y-112961904D01*
X153338095Y-113342857D01*
X153300000Y-113304761D01*
X153223809Y-113266666D01*
X153033333Y-113266666D01*
X152957142Y-113304761D01*
X152919047Y-113342857D01*
X152880952Y-113419047D01*
X152880952Y-113609523D01*
X152919047Y-113685714D01*
X152957142Y-113723809D01*
X153033333Y-113761904D01*
X153223809Y-113761904D01*
X153300000Y-113723809D01*
X153338095Y-113685714D01*
%TO.C,R1*%
X166561904Y-111866666D02*
X166180952Y-111600000D01*
X166561904Y-111409523D02*
X165761904Y-111409523D01*
X165761904Y-111714285D01*
X165800000Y-111790476D01*
X165838095Y-111828571D01*
X165914285Y-111866666D01*
X166028571Y-111866666D01*
X166104761Y-111828571D01*
X166142857Y-111790476D01*
X166180952Y-111714285D01*
X166180952Y-111409523D01*
X166561904Y-112628571D02*
X166561904Y-112171428D01*
X166561904Y-112400000D02*
X165761904Y-112400000D01*
X165876190Y-112323809D01*
X165952380Y-112247619D01*
X165990476Y-112171428D01*
%TO.C,C4*%
X143335714Y-114066666D02*
X143373809Y-114028571D01*
X143411904Y-113914285D01*
X143411904Y-113838095D01*
X143373809Y-113723809D01*
X143297619Y-113647619D01*
X143221428Y-113609523D01*
X143069047Y-113571428D01*
X142954761Y-113571428D01*
X142802380Y-113609523D01*
X142726190Y-113647619D01*
X142650000Y-113723809D01*
X142611904Y-113838095D01*
X142611904Y-113914285D01*
X142650000Y-114028571D01*
X142688095Y-114066666D01*
X142878571Y-114752380D02*
X143411904Y-114752380D01*
X142573809Y-114561904D02*
X143145238Y-114371428D01*
X143145238Y-114866666D01*
%TO.C,IC6*%
X135780952Y-104361904D02*
X135780952Y-103561904D01*
X134942857Y-104285714D02*
X134980952Y-104323809D01*
X135095238Y-104361904D01*
X135171428Y-104361904D01*
X135285714Y-104323809D01*
X135361904Y-104247619D01*
X135400000Y-104171428D01*
X135438095Y-104019047D01*
X135438095Y-103904761D01*
X135400000Y-103752380D01*
X135361904Y-103676190D01*
X135285714Y-103600000D01*
X135171428Y-103561904D01*
X135095238Y-103561904D01*
X134980952Y-103600000D01*
X134942857Y-103638095D01*
X134257142Y-103561904D02*
X134409523Y-103561904D01*
X134485714Y-103600000D01*
X134523809Y-103638095D01*
X134600000Y-103752380D01*
X134638095Y-103904761D01*
X134638095Y-104209523D01*
X134600000Y-104285714D01*
X134561904Y-104323809D01*
X134485714Y-104361904D01*
X134333333Y-104361904D01*
X134257142Y-104323809D01*
X134219047Y-104285714D01*
X134180952Y-104209523D01*
X134180952Y-104019047D01*
X134219047Y-103942857D01*
X134257142Y-103904761D01*
X134333333Y-103866666D01*
X134485714Y-103866666D01*
X134561904Y-103904761D01*
X134600000Y-103942857D01*
X134638095Y-104019047D01*
%TO.C,FB1*%
X150642857Y-111833333D02*
X150642857Y-111566666D01*
X151061904Y-111566666D02*
X150261904Y-111566666D01*
X150261904Y-111947619D01*
X150642857Y-112519047D02*
X150680952Y-112633333D01*
X150719047Y-112671428D01*
X150795238Y-112709523D01*
X150909523Y-112709523D01*
X150985714Y-112671428D01*
X151023809Y-112633333D01*
X151061904Y-112557142D01*
X151061904Y-112252380D01*
X150261904Y-112252380D01*
X150261904Y-112519047D01*
X150300000Y-112595238D01*
X150338095Y-112633333D01*
X150414285Y-112671428D01*
X150490476Y-112671428D01*
X150566666Y-112633333D01*
X150604761Y-112595238D01*
X150642857Y-112519047D01*
X150642857Y-112252380D01*
X151061904Y-113471428D02*
X151061904Y-113014285D01*
X151061904Y-113242857D02*
X150261904Y-113242857D01*
X150376190Y-113166666D01*
X150452380Y-113090476D01*
X150490476Y-113014285D01*
%TO.C,C13*%
X170514285Y-102885714D02*
X170552380Y-102923809D01*
X170666666Y-102961904D01*
X170742857Y-102961904D01*
X170857142Y-102923809D01*
X170933333Y-102847619D01*
X170971428Y-102771428D01*
X171009523Y-102619047D01*
X171009523Y-102504761D01*
X170971428Y-102352380D01*
X170933333Y-102276190D01*
X170857142Y-102200000D01*
X170742857Y-102161904D01*
X170666666Y-102161904D01*
X170552380Y-102200000D01*
X170514285Y-102238095D01*
X169752380Y-102961904D02*
X170209523Y-102961904D01*
X169980952Y-102961904D02*
X169980952Y-102161904D01*
X170057142Y-102276190D01*
X170133333Y-102352380D01*
X170209523Y-102390476D01*
X169485714Y-102161904D02*
X168990476Y-102161904D01*
X169257142Y-102466666D01*
X169142857Y-102466666D01*
X169066666Y-102504761D01*
X169028571Y-102542857D01*
X168990476Y-102619047D01*
X168990476Y-102809523D01*
X169028571Y-102885714D01*
X169066666Y-102923809D01*
X169142857Y-102961904D01*
X169371428Y-102961904D01*
X169447619Y-102923809D01*
X169485714Y-102885714D01*
%TO.C,R12*%
X151764285Y-106811904D02*
X152030952Y-106430952D01*
X152221428Y-106811904D02*
X152221428Y-106011904D01*
X151916666Y-106011904D01*
X151840476Y-106050000D01*
X151802380Y-106088095D01*
X151764285Y-106164285D01*
X151764285Y-106278571D01*
X151802380Y-106354761D01*
X151840476Y-106392857D01*
X151916666Y-106430952D01*
X152221428Y-106430952D01*
X151002380Y-106811904D02*
X151459523Y-106811904D01*
X151230952Y-106811904D02*
X151230952Y-106011904D01*
X151307142Y-106126190D01*
X151383333Y-106202380D01*
X151459523Y-106240476D01*
X150697619Y-106088095D02*
X150659523Y-106050000D01*
X150583333Y-106011904D01*
X150392857Y-106011904D01*
X150316666Y-106050000D01*
X150278571Y-106088095D01*
X150240476Y-106164285D01*
X150240476Y-106240476D01*
X150278571Y-106354761D01*
X150735714Y-106811904D01*
X150240476Y-106811904D01*
%TO.C,R4*%
X124033333Y-112361904D02*
X124300000Y-111980952D01*
X124490476Y-112361904D02*
X124490476Y-111561904D01*
X124185714Y-111561904D01*
X124109523Y-111600000D01*
X124071428Y-111638095D01*
X124033333Y-111714285D01*
X124033333Y-111828571D01*
X124071428Y-111904761D01*
X124109523Y-111942857D01*
X124185714Y-111980952D01*
X124490476Y-111980952D01*
X123347619Y-111828571D02*
X123347619Y-112361904D01*
X123538095Y-111523809D02*
X123728571Y-112095238D01*
X123233333Y-112095238D01*
%TO.C,R3*%
X124133333Y-98011904D02*
X124400000Y-97630952D01*
X124590476Y-98011904D02*
X124590476Y-97211904D01*
X124285714Y-97211904D01*
X124209523Y-97250000D01*
X124171428Y-97288095D01*
X124133333Y-97364285D01*
X124133333Y-97478571D01*
X124171428Y-97554761D01*
X124209523Y-97592857D01*
X124285714Y-97630952D01*
X124590476Y-97630952D01*
X123866666Y-97211904D02*
X123371428Y-97211904D01*
X123638095Y-97516666D01*
X123523809Y-97516666D01*
X123447619Y-97554761D01*
X123409523Y-97592857D01*
X123371428Y-97669047D01*
X123371428Y-97859523D01*
X123409523Y-97935714D01*
X123447619Y-97973809D01*
X123523809Y-98011904D01*
X123752380Y-98011904D01*
X123828571Y-97973809D01*
X123866666Y-97935714D01*
%TO.C,C16*%
X157714285Y-104085714D02*
X157752380Y-104123809D01*
X157866666Y-104161904D01*
X157942857Y-104161904D01*
X158057142Y-104123809D01*
X158133333Y-104047619D01*
X158171428Y-103971428D01*
X158209523Y-103819047D01*
X158209523Y-103704761D01*
X158171428Y-103552380D01*
X158133333Y-103476190D01*
X158057142Y-103400000D01*
X157942857Y-103361904D01*
X157866666Y-103361904D01*
X157752380Y-103400000D01*
X157714285Y-103438095D01*
X156952380Y-104161904D02*
X157409523Y-104161904D01*
X157180952Y-104161904D02*
X157180952Y-103361904D01*
X157257142Y-103476190D01*
X157333333Y-103552380D01*
X157409523Y-103590476D01*
X156266666Y-103361904D02*
X156419047Y-103361904D01*
X156495238Y-103400000D01*
X156533333Y-103438095D01*
X156609523Y-103552380D01*
X156647619Y-103704761D01*
X156647619Y-104009523D01*
X156609523Y-104085714D01*
X156571428Y-104123809D01*
X156495238Y-104161904D01*
X156342857Y-104161904D01*
X156266666Y-104123809D01*
X156228571Y-104085714D01*
X156190476Y-104009523D01*
X156190476Y-103819047D01*
X156228571Y-103742857D01*
X156266666Y-103704761D01*
X156342857Y-103666666D01*
X156495238Y-103666666D01*
X156571428Y-103704761D01*
X156609523Y-103742857D01*
X156647619Y-103819047D01*
%TO.C,C24*%
X134935714Y-101035714D02*
X134973809Y-100997619D01*
X135011904Y-100883333D01*
X135011904Y-100807142D01*
X134973809Y-100692857D01*
X134897619Y-100616666D01*
X134821428Y-100578571D01*
X134669047Y-100540476D01*
X134554761Y-100540476D01*
X134402380Y-100578571D01*
X134326190Y-100616666D01*
X134250000Y-100692857D01*
X134211904Y-100807142D01*
X134211904Y-100883333D01*
X134250000Y-100997619D01*
X134288095Y-101035714D01*
X134288095Y-101340476D02*
X134250000Y-101378571D01*
X134211904Y-101454761D01*
X134211904Y-101645238D01*
X134250000Y-101721428D01*
X134288095Y-101759523D01*
X134364285Y-101797619D01*
X134440476Y-101797619D01*
X134554761Y-101759523D01*
X135011904Y-101302380D01*
X135011904Y-101797619D01*
X134478571Y-102483333D02*
X135011904Y-102483333D01*
X134173809Y-102292857D02*
X134745238Y-102102380D01*
X134745238Y-102597619D01*
%TO.C,C9*%
X157933333Y-113885714D02*
X157971428Y-113923809D01*
X158085714Y-113961904D01*
X158161904Y-113961904D01*
X158276190Y-113923809D01*
X158352380Y-113847619D01*
X158390476Y-113771428D01*
X158428571Y-113619047D01*
X158428571Y-113504761D01*
X158390476Y-113352380D01*
X158352380Y-113276190D01*
X158276190Y-113200000D01*
X158161904Y-113161904D01*
X158085714Y-113161904D01*
X157971428Y-113200000D01*
X157933333Y-113238095D01*
X157552380Y-113961904D02*
X157400000Y-113961904D01*
X157323809Y-113923809D01*
X157285714Y-113885714D01*
X157209523Y-113771428D01*
X157171428Y-113619047D01*
X157171428Y-113314285D01*
X157209523Y-113238095D01*
X157247619Y-113200000D01*
X157323809Y-113161904D01*
X157476190Y-113161904D01*
X157552380Y-113200000D01*
X157590476Y-113238095D01*
X157628571Y-113314285D01*
X157628571Y-113504761D01*
X157590476Y-113580952D01*
X157552380Y-113619047D01*
X157476190Y-113657142D01*
X157323809Y-113657142D01*
X157247619Y-113619047D01*
X157209523Y-113580952D01*
X157171428Y-113504761D01*
%TO.C,R11*%
X173242857Y-92452380D02*
X173576190Y-91976190D01*
X173814285Y-92452380D02*
X173814285Y-91452380D01*
X173433333Y-91452380D01*
X173338095Y-91500000D01*
X173290476Y-91547619D01*
X173242857Y-91642857D01*
X173242857Y-91785714D01*
X173290476Y-91880952D01*
X173338095Y-91928571D01*
X173433333Y-91976190D01*
X173814285Y-91976190D01*
X172290476Y-92452380D02*
X172861904Y-92452380D01*
X172576190Y-92452380D02*
X172576190Y-91452380D01*
X172671428Y-91595238D01*
X172766666Y-91690476D01*
X172861904Y-91738095D01*
X171338095Y-92452380D02*
X171909523Y-92452380D01*
X171623809Y-92452380D02*
X171623809Y-91452380D01*
X171719047Y-91595238D01*
X171814285Y-91690476D01*
X171909523Y-91738095D01*
%TO.C,C18*%
X160314285Y-104085714D02*
X160352380Y-104123809D01*
X160466666Y-104161904D01*
X160542857Y-104161904D01*
X160657142Y-104123809D01*
X160733333Y-104047619D01*
X160771428Y-103971428D01*
X160809523Y-103819047D01*
X160809523Y-103704761D01*
X160771428Y-103552380D01*
X160733333Y-103476190D01*
X160657142Y-103400000D01*
X160542857Y-103361904D01*
X160466666Y-103361904D01*
X160352380Y-103400000D01*
X160314285Y-103438095D01*
X159552380Y-104161904D02*
X160009523Y-104161904D01*
X159780952Y-104161904D02*
X159780952Y-103361904D01*
X159857142Y-103476190D01*
X159933333Y-103552380D01*
X160009523Y-103590476D01*
X159095238Y-103704761D02*
X159171428Y-103666666D01*
X159209523Y-103628571D01*
X159247619Y-103552380D01*
X159247619Y-103514285D01*
X159209523Y-103438095D01*
X159171428Y-103400000D01*
X159095238Y-103361904D01*
X158942857Y-103361904D01*
X158866666Y-103400000D01*
X158828571Y-103438095D01*
X158790476Y-103514285D01*
X158790476Y-103552380D01*
X158828571Y-103628571D01*
X158866666Y-103666666D01*
X158942857Y-103704761D01*
X159095238Y-103704761D01*
X159171428Y-103742857D01*
X159209523Y-103780952D01*
X159247619Y-103857142D01*
X159247619Y-104009523D01*
X159209523Y-104085714D01*
X159171428Y-104123809D01*
X159095238Y-104161904D01*
X158942857Y-104161904D01*
X158866666Y-104123809D01*
X158828571Y-104085714D01*
X158790476Y-104009523D01*
X158790476Y-103857142D01*
X158828571Y-103780952D01*
X158866666Y-103742857D01*
X158942857Y-103704761D01*
%TO.C,R14*%
X139664285Y-114261904D02*
X139930952Y-113880952D01*
X140121428Y-114261904D02*
X140121428Y-113461904D01*
X139816666Y-113461904D01*
X139740476Y-113500000D01*
X139702380Y-113538095D01*
X139664285Y-113614285D01*
X139664285Y-113728571D01*
X139702380Y-113804761D01*
X139740476Y-113842857D01*
X139816666Y-113880952D01*
X140121428Y-113880952D01*
X138902380Y-114261904D02*
X139359523Y-114261904D01*
X139130952Y-114261904D02*
X139130952Y-113461904D01*
X139207142Y-113576190D01*
X139283333Y-113652380D01*
X139359523Y-113690476D01*
X138216666Y-113728571D02*
X138216666Y-114261904D01*
X138407142Y-113423809D02*
X138597619Y-113995238D01*
X138102380Y-113995238D01*
%TO.C,R6*%
X171161904Y-112066666D02*
X170780952Y-111800000D01*
X171161904Y-111609523D02*
X170361904Y-111609523D01*
X170361904Y-111914285D01*
X170400000Y-111990476D01*
X170438095Y-112028571D01*
X170514285Y-112066666D01*
X170628571Y-112066666D01*
X170704761Y-112028571D01*
X170742857Y-111990476D01*
X170780952Y-111914285D01*
X170780952Y-111609523D01*
X170361904Y-112752380D02*
X170361904Y-112600000D01*
X170400000Y-112523809D01*
X170438095Y-112485714D01*
X170552380Y-112409523D01*
X170704761Y-112371428D01*
X171009523Y-112371428D01*
X171085714Y-112409523D01*
X171123809Y-112447619D01*
X171161904Y-112523809D01*
X171161904Y-112676190D01*
X171123809Y-112752380D01*
X171085714Y-112790476D01*
X171009523Y-112828571D01*
X170819047Y-112828571D01*
X170742857Y-112790476D01*
X170704761Y-112752380D01*
X170666666Y-112676190D01*
X170666666Y-112523809D01*
X170704761Y-112447619D01*
X170742857Y-112409523D01*
X170819047Y-112371428D01*
%TO.C,C1*%
X141735714Y-114066666D02*
X141773809Y-114028571D01*
X141811904Y-113914285D01*
X141811904Y-113838095D01*
X141773809Y-113723809D01*
X141697619Y-113647619D01*
X141621428Y-113609523D01*
X141469047Y-113571428D01*
X141354761Y-113571428D01*
X141202380Y-113609523D01*
X141126190Y-113647619D01*
X141050000Y-113723809D01*
X141011904Y-113838095D01*
X141011904Y-113914285D01*
X141050000Y-114028571D01*
X141088095Y-114066666D01*
X141811904Y-114828571D02*
X141811904Y-114371428D01*
X141811904Y-114600000D02*
X141011904Y-114600000D01*
X141126190Y-114523809D01*
X141202380Y-114447619D01*
X141240476Y-114371428D01*
%TO.C,R13*%
X151764285Y-105561904D02*
X152030952Y-105180952D01*
X152221428Y-105561904D02*
X152221428Y-104761904D01*
X151916666Y-104761904D01*
X151840476Y-104800000D01*
X151802380Y-104838095D01*
X151764285Y-104914285D01*
X151764285Y-105028571D01*
X151802380Y-105104761D01*
X151840476Y-105142857D01*
X151916666Y-105180952D01*
X152221428Y-105180952D01*
X151002380Y-105561904D02*
X151459523Y-105561904D01*
X151230952Y-105561904D02*
X151230952Y-104761904D01*
X151307142Y-104876190D01*
X151383333Y-104952380D01*
X151459523Y-104990476D01*
X150735714Y-104761904D02*
X150240476Y-104761904D01*
X150507142Y-105066666D01*
X150392857Y-105066666D01*
X150316666Y-105104761D01*
X150278571Y-105142857D01*
X150240476Y-105219047D01*
X150240476Y-105409523D01*
X150278571Y-105485714D01*
X150316666Y-105523809D01*
X150392857Y-105561904D01*
X150621428Y-105561904D01*
X150697619Y-105523809D01*
X150735714Y-105485714D01*
%TO.C,C12*%
X170514285Y-101085714D02*
X170552380Y-101123809D01*
X170666666Y-101161904D01*
X170742857Y-101161904D01*
X170857142Y-101123809D01*
X170933333Y-101047619D01*
X170971428Y-100971428D01*
X171009523Y-100819047D01*
X171009523Y-100704761D01*
X170971428Y-100552380D01*
X170933333Y-100476190D01*
X170857142Y-100400000D01*
X170742857Y-100361904D01*
X170666666Y-100361904D01*
X170552380Y-100400000D01*
X170514285Y-100438095D01*
X169752380Y-101161904D02*
X170209523Y-101161904D01*
X169980952Y-101161904D02*
X169980952Y-100361904D01*
X170057142Y-100476190D01*
X170133333Y-100552380D01*
X170209523Y-100590476D01*
X169447619Y-100438095D02*
X169409523Y-100400000D01*
X169333333Y-100361904D01*
X169142857Y-100361904D01*
X169066666Y-100400000D01*
X169028571Y-100438095D01*
X168990476Y-100514285D01*
X168990476Y-100590476D01*
X169028571Y-100704761D01*
X169485714Y-101161904D01*
X168990476Y-101161904D01*
%TO.C,FB2*%
X155266666Y-103742857D02*
X155533333Y-103742857D01*
X155533333Y-104161904D02*
X155533333Y-103361904D01*
X155152380Y-103361904D01*
X154580952Y-103742857D02*
X154466666Y-103780952D01*
X154428571Y-103819047D01*
X154390476Y-103895238D01*
X154390476Y-104009523D01*
X154428571Y-104085714D01*
X154466666Y-104123809D01*
X154542857Y-104161904D01*
X154847619Y-104161904D01*
X154847619Y-103361904D01*
X154580952Y-103361904D01*
X154504761Y-103400000D01*
X154466666Y-103438095D01*
X154428571Y-103514285D01*
X154428571Y-103590476D01*
X154466666Y-103666666D01*
X154504761Y-103704761D01*
X154580952Y-103742857D01*
X154847619Y-103742857D01*
X154085714Y-103438095D02*
X154047619Y-103400000D01*
X153971428Y-103361904D01*
X153780952Y-103361904D01*
X153704761Y-103400000D01*
X153666666Y-103438095D01*
X153628571Y-103514285D01*
X153628571Y-103590476D01*
X153666666Y-103704761D01*
X154123809Y-104161904D01*
X153628571Y-104161904D01*
%TO.C,C2*%
X150935714Y-110216666D02*
X150973809Y-110178571D01*
X151011904Y-110064285D01*
X151011904Y-109988095D01*
X150973809Y-109873809D01*
X150897619Y-109797619D01*
X150821428Y-109759523D01*
X150669047Y-109721428D01*
X150554761Y-109721428D01*
X150402380Y-109759523D01*
X150326190Y-109797619D01*
X150250000Y-109873809D01*
X150211904Y-109988095D01*
X150211904Y-110064285D01*
X150250000Y-110178571D01*
X150288095Y-110216666D01*
X150288095Y-110521428D02*
X150250000Y-110559523D01*
X150211904Y-110635714D01*
X150211904Y-110826190D01*
X150250000Y-110902380D01*
X150288095Y-110940476D01*
X150364285Y-110978571D01*
X150440476Y-110978571D01*
X150554761Y-110940476D01*
X151011904Y-110483333D01*
X151011904Y-110978571D01*
%TO.C,C6*%
X153383333Y-106835714D02*
X153421428Y-106873809D01*
X153535714Y-106911904D01*
X153611904Y-106911904D01*
X153726190Y-106873809D01*
X153802380Y-106797619D01*
X153840476Y-106721428D01*
X153878571Y-106569047D01*
X153878571Y-106454761D01*
X153840476Y-106302380D01*
X153802380Y-106226190D01*
X153726190Y-106150000D01*
X153611904Y-106111904D01*
X153535714Y-106111904D01*
X153421428Y-106150000D01*
X153383333Y-106188095D01*
X152697619Y-106111904D02*
X152850000Y-106111904D01*
X152926190Y-106150000D01*
X152964285Y-106188095D01*
X153040476Y-106302380D01*
X153078571Y-106454761D01*
X153078571Y-106759523D01*
X153040476Y-106835714D01*
X153002380Y-106873809D01*
X152926190Y-106911904D01*
X152773809Y-106911904D01*
X152697619Y-106873809D01*
X152659523Y-106835714D01*
X152621428Y-106759523D01*
X152621428Y-106569047D01*
X152659523Y-106492857D01*
X152697619Y-106454761D01*
X152773809Y-106416666D01*
X152926190Y-106416666D01*
X153002380Y-106454761D01*
X153040476Y-106492857D01*
X153078571Y-106569047D01*
%TO.C,R10*%
X170578571Y-95807142D02*
X170878571Y-95378571D01*
X171092857Y-95807142D02*
X171092857Y-94907142D01*
X170750000Y-94907142D01*
X170664285Y-94950000D01*
X170621428Y-94992857D01*
X170578571Y-95078571D01*
X170578571Y-95207142D01*
X170621428Y-95292857D01*
X170664285Y-95335714D01*
X170750000Y-95378571D01*
X171092857Y-95378571D01*
X169721428Y-95807142D02*
X170235714Y-95807142D01*
X169978571Y-95807142D02*
X169978571Y-94907142D01*
X170064285Y-95035714D01*
X170150000Y-95121428D01*
X170235714Y-95164285D01*
X169164285Y-94907142D02*
X169078571Y-94907142D01*
X168992857Y-94950000D01*
X168950000Y-94992857D01*
X168907142Y-95078571D01*
X168864285Y-95250000D01*
X168864285Y-95464285D01*
X168907142Y-95635714D01*
X168950000Y-95721428D01*
X168992857Y-95764285D01*
X169078571Y-95807142D01*
X169164285Y-95807142D01*
X169250000Y-95764285D01*
X169292857Y-95721428D01*
X169335714Y-95635714D01*
X169378571Y-95464285D01*
X169378571Y-95250000D01*
X169335714Y-95078571D01*
X169292857Y-94992857D01*
X169250000Y-94950000D01*
X169164285Y-94907142D01*
%TO.C,IC1*%
X140380952Y-98511904D02*
X140380952Y-97711904D01*
X139542857Y-98435714D02*
X139580952Y-98473809D01*
X139695238Y-98511904D01*
X139771428Y-98511904D01*
X139885714Y-98473809D01*
X139961904Y-98397619D01*
X140000000Y-98321428D01*
X140038095Y-98169047D01*
X140038095Y-98054761D01*
X140000000Y-97902380D01*
X139961904Y-97826190D01*
X139885714Y-97750000D01*
X139771428Y-97711904D01*
X139695238Y-97711904D01*
X139580952Y-97750000D01*
X139542857Y-97788095D01*
X138780952Y-98511904D02*
X139238095Y-98511904D01*
X139009523Y-98511904D02*
X139009523Y-97711904D01*
X139085714Y-97826190D01*
X139161904Y-97902380D01*
X139238095Y-97940476D01*
%TO.C,C3*%
X137435714Y-109816666D02*
X137473809Y-109778571D01*
X137511904Y-109664285D01*
X137511904Y-109588095D01*
X137473809Y-109473809D01*
X137397619Y-109397619D01*
X137321428Y-109359523D01*
X137169047Y-109321428D01*
X137054761Y-109321428D01*
X136902380Y-109359523D01*
X136826190Y-109397619D01*
X136750000Y-109473809D01*
X136711904Y-109588095D01*
X136711904Y-109664285D01*
X136750000Y-109778571D01*
X136788095Y-109816666D01*
X136711904Y-110083333D02*
X136711904Y-110578571D01*
X137016666Y-110311904D01*
X137016666Y-110426190D01*
X137054761Y-110502380D01*
X137092857Y-110540476D01*
X137169047Y-110578571D01*
X137359523Y-110578571D01*
X137435714Y-110540476D01*
X137473809Y-110502380D01*
X137511904Y-110426190D01*
X137511904Y-110197619D01*
X137473809Y-110121428D01*
X137435714Y-110083333D01*
%TO.C,C8*%
X161133333Y-113885714D02*
X161171428Y-113923809D01*
X161285714Y-113961904D01*
X161361904Y-113961904D01*
X161476190Y-113923809D01*
X161552380Y-113847619D01*
X161590476Y-113771428D01*
X161628571Y-113619047D01*
X161628571Y-113504761D01*
X161590476Y-113352380D01*
X161552380Y-113276190D01*
X161476190Y-113200000D01*
X161361904Y-113161904D01*
X161285714Y-113161904D01*
X161171428Y-113200000D01*
X161133333Y-113238095D01*
X160676190Y-113504761D02*
X160752380Y-113466666D01*
X160790476Y-113428571D01*
X160828571Y-113352380D01*
X160828571Y-113314285D01*
X160790476Y-113238095D01*
X160752380Y-113200000D01*
X160676190Y-113161904D01*
X160523809Y-113161904D01*
X160447619Y-113200000D01*
X160409523Y-113238095D01*
X160371428Y-113314285D01*
X160371428Y-113352380D01*
X160409523Y-113428571D01*
X160447619Y-113466666D01*
X160523809Y-113504761D01*
X160676190Y-113504761D01*
X160752380Y-113542857D01*
X160790476Y-113580952D01*
X160828571Y-113657142D01*
X160828571Y-113809523D01*
X160790476Y-113885714D01*
X160752380Y-113923809D01*
X160676190Y-113961904D01*
X160523809Y-113961904D01*
X160447619Y-113923809D01*
X160409523Y-113885714D01*
X160371428Y-113809523D01*
X160371428Y-113657142D01*
X160409523Y-113580952D01*
X160447619Y-113542857D01*
X160523809Y-113504761D01*
%TO.C,R8*%
X170133333Y-99561904D02*
X170400000Y-99180952D01*
X170590476Y-99561904D02*
X170590476Y-98761904D01*
X170285714Y-98761904D01*
X170209523Y-98800000D01*
X170171428Y-98838095D01*
X170133333Y-98914285D01*
X170133333Y-99028571D01*
X170171428Y-99104761D01*
X170209523Y-99142857D01*
X170285714Y-99180952D01*
X170590476Y-99180952D01*
X169676190Y-99104761D02*
X169752380Y-99066666D01*
X169790476Y-99028571D01*
X169828571Y-98952380D01*
X169828571Y-98914285D01*
X169790476Y-98838095D01*
X169752380Y-98800000D01*
X169676190Y-98761904D01*
X169523809Y-98761904D01*
X169447619Y-98800000D01*
X169409523Y-98838095D01*
X169371428Y-98914285D01*
X169371428Y-98952380D01*
X169409523Y-99028571D01*
X169447619Y-99066666D01*
X169523809Y-99104761D01*
X169676190Y-99104761D01*
X169752380Y-99142857D01*
X169790476Y-99180952D01*
X169828571Y-99257142D01*
X169828571Y-99409523D01*
X169790476Y-99485714D01*
X169752380Y-99523809D01*
X169676190Y-99561904D01*
X169523809Y-99561904D01*
X169447619Y-99523809D01*
X169409523Y-99485714D01*
X169371428Y-99409523D01*
X169371428Y-99257142D01*
X169409523Y-99180952D01*
X169447619Y-99142857D01*
X169523809Y-99104761D01*
%TO.C,C11*%
X151764285Y-104135714D02*
X151802380Y-104173809D01*
X151916666Y-104211904D01*
X151992857Y-104211904D01*
X152107142Y-104173809D01*
X152183333Y-104097619D01*
X152221428Y-104021428D01*
X152259523Y-103869047D01*
X152259523Y-103754761D01*
X152221428Y-103602380D01*
X152183333Y-103526190D01*
X152107142Y-103450000D01*
X151992857Y-103411904D01*
X151916666Y-103411904D01*
X151802380Y-103450000D01*
X151764285Y-103488095D01*
X151002380Y-104211904D02*
X151459523Y-104211904D01*
X151230952Y-104211904D02*
X151230952Y-103411904D01*
X151307142Y-103526190D01*
X151383333Y-103602380D01*
X151459523Y-103640476D01*
X150240476Y-104211904D02*
X150697619Y-104211904D01*
X150469047Y-104211904D02*
X150469047Y-103411904D01*
X150545238Y-103526190D01*
X150621428Y-103602380D01*
X150697619Y-103640476D01*
%TO.C,C21*%
X138414285Y-103835714D02*
X138452380Y-103873809D01*
X138566666Y-103911904D01*
X138642857Y-103911904D01*
X138757142Y-103873809D01*
X138833333Y-103797619D01*
X138871428Y-103721428D01*
X138909523Y-103569047D01*
X138909523Y-103454761D01*
X138871428Y-103302380D01*
X138833333Y-103226190D01*
X138757142Y-103150000D01*
X138642857Y-103111904D01*
X138566666Y-103111904D01*
X138452380Y-103150000D01*
X138414285Y-103188095D01*
X138109523Y-103188095D02*
X138071428Y-103150000D01*
X137995238Y-103111904D01*
X137804761Y-103111904D01*
X137728571Y-103150000D01*
X137690476Y-103188095D01*
X137652380Y-103264285D01*
X137652380Y-103340476D01*
X137690476Y-103454761D01*
X138147619Y-103911904D01*
X137652380Y-103911904D01*
X136890476Y-103911904D02*
X137347619Y-103911904D01*
X137119047Y-103911904D02*
X137119047Y-103111904D01*
X137195238Y-103226190D01*
X137271428Y-103302380D01*
X137347619Y-103340476D01*
%TO.C,C20*%
X140914285Y-103885714D02*
X140952380Y-103923809D01*
X141066666Y-103961904D01*
X141142857Y-103961904D01*
X141257142Y-103923809D01*
X141333333Y-103847619D01*
X141371428Y-103771428D01*
X141409523Y-103619047D01*
X141409523Y-103504761D01*
X141371428Y-103352380D01*
X141333333Y-103276190D01*
X141257142Y-103200000D01*
X141142857Y-103161904D01*
X141066666Y-103161904D01*
X140952380Y-103200000D01*
X140914285Y-103238095D01*
X140609523Y-103238095D02*
X140571428Y-103200000D01*
X140495238Y-103161904D01*
X140304761Y-103161904D01*
X140228571Y-103200000D01*
X140190476Y-103238095D01*
X140152380Y-103314285D01*
X140152380Y-103390476D01*
X140190476Y-103504761D01*
X140647619Y-103961904D01*
X140152380Y-103961904D01*
X139657142Y-103161904D02*
X139580952Y-103161904D01*
X139504761Y-103200000D01*
X139466666Y-103238095D01*
X139428571Y-103314285D01*
X139390476Y-103466666D01*
X139390476Y-103657142D01*
X139428571Y-103809523D01*
X139466666Y-103885714D01*
X139504761Y-103923809D01*
X139580952Y-103961904D01*
X139657142Y-103961904D01*
X139733333Y-103923809D01*
X139771428Y-103885714D01*
X139809523Y-103809523D01*
X139847619Y-103657142D01*
X139847619Y-103466666D01*
X139809523Y-103314285D01*
X139771428Y-103238095D01*
X139733333Y-103200000D01*
X139657142Y-103161904D01*
%TO.C,D3*%
X162590476Y-104361904D02*
X162590476Y-103561904D01*
X162400000Y-103561904D01*
X162285714Y-103600000D01*
X162209523Y-103676190D01*
X162171428Y-103752380D01*
X162133333Y-103904761D01*
X162133333Y-104019047D01*
X162171428Y-104171428D01*
X162209523Y-104247619D01*
X162285714Y-104323809D01*
X162400000Y-104361904D01*
X162590476Y-104361904D01*
X161866666Y-103561904D02*
X161371428Y-103561904D01*
X161638095Y-103866666D01*
X161523809Y-103866666D01*
X161447619Y-103904761D01*
X161409523Y-103942857D01*
X161371428Y-104019047D01*
X161371428Y-104209523D01*
X161409523Y-104285714D01*
X161447619Y-104323809D01*
X161523809Y-104361904D01*
X161752380Y-104361904D01*
X161828571Y-104323809D01*
X161866666Y-104285714D01*
%TO.C,R2*%
X164333333Y-115361904D02*
X164600000Y-114980952D01*
X164790476Y-115361904D02*
X164790476Y-114561904D01*
X164485714Y-114561904D01*
X164409523Y-114600000D01*
X164371428Y-114638095D01*
X164333333Y-114714285D01*
X164333333Y-114828571D01*
X164371428Y-114904761D01*
X164409523Y-114942857D01*
X164485714Y-114980952D01*
X164790476Y-114980952D01*
X164028571Y-114638095D02*
X163990476Y-114600000D01*
X163914285Y-114561904D01*
X163723809Y-114561904D01*
X163647619Y-114600000D01*
X163609523Y-114638095D01*
X163571428Y-114714285D01*
X163571428Y-114790476D01*
X163609523Y-114904761D01*
X164066666Y-115361904D01*
X163571428Y-115361904D01*
%TO.C,IC4*%
X158180952Y-95861904D02*
X158180952Y-95061904D01*
X157342857Y-95785714D02*
X157380952Y-95823809D01*
X157495238Y-95861904D01*
X157571428Y-95861904D01*
X157685714Y-95823809D01*
X157761904Y-95747619D01*
X157800000Y-95671428D01*
X157838095Y-95519047D01*
X157838095Y-95404761D01*
X157800000Y-95252380D01*
X157761904Y-95176190D01*
X157685714Y-95100000D01*
X157571428Y-95061904D01*
X157495238Y-95061904D01*
X157380952Y-95100000D01*
X157342857Y-95138095D01*
X156657142Y-95328571D02*
X156657142Y-95861904D01*
X156847619Y-95023809D02*
X157038095Y-95595238D01*
X156542857Y-95595238D01*
%TO.C,D1*%
X168190476Y-114761904D02*
X168190476Y-113961904D01*
X168000000Y-113961904D01*
X167885714Y-114000000D01*
X167809523Y-114076190D01*
X167771428Y-114152380D01*
X167733333Y-114304761D01*
X167733333Y-114419047D01*
X167771428Y-114571428D01*
X167809523Y-114647619D01*
X167885714Y-114723809D01*
X168000000Y-114761904D01*
X168190476Y-114761904D01*
X166971428Y-114761904D02*
X167428571Y-114761904D01*
X167200000Y-114761904D02*
X167200000Y-113961904D01*
X167276190Y-114076190D01*
X167352380Y-114152380D01*
X167428571Y-114190476D01*
%TO.C,C7*%
X155433333Y-108985714D02*
X155471428Y-109023809D01*
X155585714Y-109061904D01*
X155661904Y-109061904D01*
X155776190Y-109023809D01*
X155852380Y-108947619D01*
X155890476Y-108871428D01*
X155928571Y-108719047D01*
X155928571Y-108604761D01*
X155890476Y-108452380D01*
X155852380Y-108376190D01*
X155776190Y-108300000D01*
X155661904Y-108261904D01*
X155585714Y-108261904D01*
X155471428Y-108300000D01*
X155433333Y-108338095D01*
X155166666Y-108261904D02*
X154633333Y-108261904D01*
X154976190Y-109061904D01*
%TO.C,C17*%
X161685714Y-100285714D02*
X161723809Y-100247619D01*
X161761904Y-100133333D01*
X161761904Y-100057142D01*
X161723809Y-99942857D01*
X161647619Y-99866666D01*
X161571428Y-99828571D01*
X161419047Y-99790476D01*
X161304761Y-99790476D01*
X161152380Y-99828571D01*
X161076190Y-99866666D01*
X161000000Y-99942857D01*
X160961904Y-100057142D01*
X160961904Y-100133333D01*
X161000000Y-100247619D01*
X161038095Y-100285714D01*
X161761904Y-101047619D02*
X161761904Y-100590476D01*
X161761904Y-100819047D02*
X160961904Y-100819047D01*
X161076190Y-100742857D01*
X161152380Y-100666666D01*
X161190476Y-100590476D01*
X160961904Y-101314285D02*
X160961904Y-101847619D01*
X161761904Y-101504761D01*
%TO.C,IC2*%
X147580952Y-98611904D02*
X147580952Y-97811904D01*
X146742857Y-98535714D02*
X146780952Y-98573809D01*
X146895238Y-98611904D01*
X146971428Y-98611904D01*
X147085714Y-98573809D01*
X147161904Y-98497619D01*
X147200000Y-98421428D01*
X147238095Y-98269047D01*
X147238095Y-98154761D01*
X147200000Y-98002380D01*
X147161904Y-97926190D01*
X147085714Y-97850000D01*
X146971428Y-97811904D01*
X146895238Y-97811904D01*
X146780952Y-97850000D01*
X146742857Y-97888095D01*
X146438095Y-97888095D02*
X146400000Y-97850000D01*
X146323809Y-97811904D01*
X146133333Y-97811904D01*
X146057142Y-97850000D01*
X146019047Y-97888095D01*
X145980952Y-97964285D01*
X145980952Y-98040476D01*
X146019047Y-98154761D01*
X146476190Y-98611904D01*
X145980952Y-98611904D01*
%TO.C,R7*%
X171180004Y-108400266D02*
X170799052Y-108133600D01*
X171180004Y-107943123D02*
X170380004Y-107943123D01*
X170380004Y-108247885D01*
X170418100Y-108324076D01*
X170456195Y-108362171D01*
X170532385Y-108400266D01*
X170646671Y-108400266D01*
X170722861Y-108362171D01*
X170760957Y-108324076D01*
X170799052Y-108247885D01*
X170799052Y-107943123D01*
X170380004Y-108666933D02*
X170380004Y-109200266D01*
X171180004Y-108857409D01*
%TO.C,C5*%
X143133333Y-98585714D02*
X143171428Y-98623809D01*
X143285714Y-98661904D01*
X143361904Y-98661904D01*
X143476190Y-98623809D01*
X143552380Y-98547619D01*
X143590476Y-98471428D01*
X143628571Y-98319047D01*
X143628571Y-98204761D01*
X143590476Y-98052380D01*
X143552380Y-97976190D01*
X143476190Y-97900000D01*
X143361904Y-97861904D01*
X143285714Y-97861904D01*
X143171428Y-97900000D01*
X143133333Y-97938095D01*
X142409523Y-97861904D02*
X142790476Y-97861904D01*
X142828571Y-98242857D01*
X142790476Y-98204761D01*
X142714285Y-98166666D01*
X142523809Y-98166666D01*
X142447619Y-98204761D01*
X142409523Y-98242857D01*
X142371428Y-98319047D01*
X142371428Y-98509523D01*
X142409523Y-98585714D01*
X142447619Y-98623809D01*
X142523809Y-98661904D01*
X142714285Y-98661904D01*
X142790476Y-98623809D01*
X142828571Y-98585714D01*
%TO.C,D2*%
X168190476Y-106961904D02*
X168190476Y-106161904D01*
X168000000Y-106161904D01*
X167885714Y-106200000D01*
X167809523Y-106276190D01*
X167771428Y-106352380D01*
X167733333Y-106504761D01*
X167733333Y-106619047D01*
X167771428Y-106771428D01*
X167809523Y-106847619D01*
X167885714Y-106923809D01*
X168000000Y-106961904D01*
X168190476Y-106961904D01*
X167428571Y-106238095D02*
X167390476Y-106200000D01*
X167314285Y-106161904D01*
X167123809Y-106161904D01*
X167047619Y-106200000D01*
X167009523Y-106238095D01*
X166971428Y-106314285D01*
X166971428Y-106390476D01*
X167009523Y-106504761D01*
X167466666Y-106961904D01*
X166971428Y-106961904D01*
D10*
%TO.C,R9*%
X167245842Y-104582100D02*
X167720358Y-104582100D01*
X167245842Y-105627100D02*
X167720358Y-105627100D01*
%TO.C,D4*%
X164562100Y-110982600D02*
X163912100Y-110982600D01*
X164562100Y-110982600D02*
X165212100Y-110982600D01*
X164562100Y-107862600D02*
X163912100Y-107862600D01*
X164562100Y-107862600D02*
X166237100Y-107862600D01*
%TO.C,IC3*%
X141190000Y-104690000D02*
X141190000Y-105165000D01*
X141665000Y-109910000D02*
X141190000Y-109910000D01*
X145935000Y-104690000D02*
X146410000Y-104690000D01*
X141665000Y-104690000D02*
X141190000Y-104690000D01*
X146410000Y-104690000D02*
X146410000Y-105165000D01*
X145935000Y-109910000D02*
X146410000Y-109910000D01*
X146410000Y-109910000D02*
X146410000Y-109435000D01*
%TO.C,C19*%
X163278520Y-99010600D02*
X163559680Y-99010600D01*
X163278520Y-97990600D02*
X163559680Y-97990600D01*
%TO.C,C14*%
X163786520Y-104848600D02*
X164067680Y-104848600D01*
X163786520Y-105868600D02*
X164067680Y-105868600D01*
%TO.C,C22*%
X138810000Y-109909420D02*
X138810000Y-110190580D01*
X137790000Y-109909420D02*
X137790000Y-110190580D01*
%TO.C,C10*%
X148509420Y-107940000D02*
X148790580Y-107940000D01*
X148509420Y-108960000D02*
X148790580Y-108960000D01*
%TO.C,R5*%
X126318358Y-114263100D02*
X125843842Y-114263100D01*
X126318358Y-113218100D02*
X125843842Y-113218100D01*
%TO.C,C23*%
X139190580Y-108160000D02*
X138909420Y-108160000D01*
X139190580Y-107140000D02*
X138909420Y-107140000D01*
%TO.C,RN1*%
X144330000Y-113050000D02*
X144330000Y-112250000D01*
X147770000Y-113050000D02*
X147770000Y-112250000D01*
%TO.C,C15*%
X163786520Y-106372600D02*
X164067680Y-106372600D01*
X163786520Y-107392600D02*
X164067680Y-107392600D01*
%TO.C,IC5*%
X154460000Y-110629100D02*
X154460000Y-112429100D01*
X151340000Y-110629100D02*
X151340000Y-109829100D01*
X154460000Y-110629100D02*
X154460000Y-109829100D01*
X151340000Y-110629100D02*
X151340000Y-111429100D01*
%TO.C,R1*%
X164545358Y-112485100D02*
X164070842Y-112485100D01*
X164545358Y-111440100D02*
X164070842Y-111440100D01*
%TO.C,C4*%
X142490000Y-112140580D02*
X142490000Y-111859420D01*
X143510000Y-112140580D02*
X143510000Y-111859420D01*
%TO.C,IC6*%
X135000000Y-104840000D02*
X134200000Y-104840000D01*
X135000000Y-107960000D02*
X135800000Y-107960000D01*
X135000000Y-104840000D02*
X136800000Y-104840000D01*
X135000000Y-107960000D02*
X134200000Y-107960000D01*
%TO.C,FB1*%
X149910000Y-112337221D02*
X149910000Y-112662779D01*
X148890000Y-112337221D02*
X148890000Y-112662779D01*
%TO.C,C13*%
X167623680Y-103074600D02*
X167342520Y-103074600D01*
X167623680Y-102054600D02*
X167342520Y-102054600D01*
%TO.C,R12*%
X148887258Y-106327500D02*
X148412742Y-106327500D01*
X148887258Y-107372500D02*
X148412742Y-107372500D01*
%TO.C,R4*%
X125843842Y-112485100D02*
X126318358Y-112485100D01*
X125843842Y-111440100D02*
X126318358Y-111440100D01*
%TO.C,R3*%
X124262358Y-96851100D02*
X123787842Y-96851100D01*
X124262358Y-95806100D02*
X123787842Y-95806100D01*
%TO.C,C16*%
X157960100Y-105472020D02*
X157960100Y-105753180D01*
X156940100Y-105472020D02*
X156940100Y-105753180D01*
%TO.C,C24*%
X135315000Y-101690580D02*
X135315000Y-101409420D01*
X136335000Y-101690580D02*
X136335000Y-101409420D01*
%TO.C,C9*%
X158830000Y-109978748D02*
X158830000Y-111401252D01*
X157010000Y-109978748D02*
X157010000Y-111401252D01*
%TO.C,R11*%
X172562742Y-92898100D02*
X173037258Y-92898100D01*
X172562742Y-93943100D02*
X173037258Y-93943100D01*
%TO.C,C18*%
X158845100Y-105472020D02*
X158845100Y-105753180D01*
X159865100Y-105472020D02*
X159865100Y-105753180D01*
%TO.C,R14*%
X138812742Y-111827500D02*
X139287258Y-111827500D01*
X138812742Y-112872500D02*
X139287258Y-112872500D01*
%TO.C,R6*%
X169910600Y-112106342D02*
X169910600Y-112580858D01*
X168865600Y-112106342D02*
X168865600Y-112580858D01*
%TO.C,C1*%
X140890000Y-112140580D02*
X140890000Y-111859420D01*
X141910000Y-112140580D02*
X141910000Y-111859420D01*
%TO.C,R13*%
X148887258Y-104847500D02*
X148412742Y-104847500D01*
X148887258Y-105892500D02*
X148412742Y-105892500D01*
%TO.C,C12*%
X167623680Y-100276600D02*
X167342520Y-100276600D01*
X167623680Y-101296600D02*
X167342520Y-101296600D01*
%TO.C,FB2*%
X154971600Y-105775379D02*
X154971600Y-105449821D01*
X155991600Y-105775379D02*
X155991600Y-105449821D01*
%TO.C,C2*%
X148559420Y-110610000D02*
X148840580Y-110610000D01*
X148559420Y-109590000D02*
X148840580Y-109590000D01*
%TO.C,C6*%
X153040580Y-107190000D02*
X152759420Y-107190000D01*
X153040580Y-108210000D02*
X152759420Y-108210000D01*
%TO.C,R10*%
X172579842Y-95721100D02*
X173054358Y-95721100D01*
X172579842Y-94676100D02*
X173054358Y-94676100D01*
%TO.C,IC1*%
X140678100Y-99176600D02*
X141153100Y-99176600D01*
X138408100Y-99176600D02*
X137933100Y-99176600D01*
X137933100Y-99176600D02*
X137933100Y-99651600D01*
X140678100Y-102396600D02*
X141153100Y-102396600D01*
X138408100Y-102396600D02*
X137933100Y-102396600D01*
X141153100Y-102396600D02*
X141153100Y-101921600D01*
X137933100Y-102396600D02*
X137933100Y-101921600D01*
%TO.C,C3*%
X139340000Y-109909420D02*
X139340000Y-110190580D01*
X140360000Y-109909420D02*
X140360000Y-110190580D01*
%TO.C,C8*%
X160065000Y-109981348D02*
X160065000Y-111403852D01*
X161885000Y-109981348D02*
X161885000Y-111403852D01*
%TO.C,R8*%
X167245842Y-98486100D02*
X167720358Y-98486100D01*
X167245842Y-99531100D02*
X167720358Y-99531100D01*
%TO.C,C11*%
X148509420Y-104310000D02*
X148790580Y-104310000D01*
X148509420Y-103290000D02*
X148790580Y-103290000D01*
%TO.C,C21*%
X138810000Y-105540580D02*
X138810000Y-105259420D01*
X137790000Y-105540580D02*
X137790000Y-105259420D01*
%TO.C,C20*%
X140360000Y-105540580D02*
X140360000Y-105259420D01*
X139340000Y-105540580D02*
X139340000Y-105259420D01*
%TO.C,D3*%
X163419100Y-101258600D02*
X162769100Y-101258600D01*
X163419100Y-101258600D02*
X165094100Y-101258600D01*
X163419100Y-104378600D02*
X164069100Y-104378600D01*
X163419100Y-104378600D02*
X162769100Y-104378600D01*
%TO.C,R2*%
X164545358Y-113218100D02*
X164070842Y-113218100D01*
X164545358Y-114263100D02*
X164070842Y-114263100D01*
%TO.C,IC4*%
X154967100Y-97127600D02*
X154967100Y-96652600D01*
X154967100Y-101397600D02*
X154967100Y-101872600D01*
X154967100Y-101872600D02*
X155442100Y-101872600D01*
X160187100Y-101872600D02*
X159712100Y-101872600D01*
X160187100Y-101397600D02*
X160187100Y-101872600D01*
X160187100Y-97127600D02*
X160187100Y-96652600D01*
X160187100Y-96652600D02*
X159712100Y-96652600D01*
%TO.C,D1*%
X167002100Y-110858600D02*
X168472100Y-110858600D01*
X168472100Y-110858600D02*
X168472100Y-113143600D01*
X167002100Y-113143600D02*
X167002100Y-110858600D01*
%TO.C,C7*%
X155850000Y-110429420D02*
X155850000Y-110710580D01*
X154830000Y-110429420D02*
X154830000Y-110710580D01*
%TO.C,C17*%
X163278520Y-99768600D02*
X163559680Y-99768600D01*
X163278520Y-100788600D02*
X163559680Y-100788600D01*
%TO.C,IC2*%
X147790100Y-102396600D02*
X148265100Y-102396600D01*
X147790100Y-99176600D02*
X148265100Y-99176600D01*
X148265100Y-102396600D02*
X148265100Y-101921600D01*
X145045100Y-99176600D02*
X145045100Y-99651600D01*
X148265100Y-99176600D02*
X148265100Y-99651600D01*
X145520100Y-99176600D02*
X145045100Y-99176600D01*
X145520100Y-102396600D02*
X145045100Y-102396600D01*
%TO.C,R7*%
X169910600Y-108770858D02*
X169910600Y-108296342D01*
X168865600Y-108770858D02*
X168865600Y-108296342D01*
%TO.C,C5*%
X142589100Y-100340580D02*
X142589100Y-100059420D01*
X143609100Y-100340580D02*
X143609100Y-100059420D01*
%TO.C,D2*%
X168472100Y-110018600D02*
X167002100Y-110018600D01*
X168472100Y-107733600D02*
X168472100Y-110018600D01*
X167002100Y-110018600D02*
X167002100Y-107733600D01*
%TD*%
M02*
