G75*
%MOIN*%
%OFA0B0*%
%FSLAX24Y24*%
%IPPOS*%
%LPD*%
%AMOC8*
5,1,8,0,0,1.08239X$1,22.5*
%
%ADD10R,0.0434X0.0218*%
%ADD11C,0.0198*%
%ADD12R,0.1064X0.1064*%
%ADD13R,0.0513X0.0474*%
%ADD14R,0.0218X0.0434*%
%ADD15R,0.0474X0.0513*%
%ADD16R,0.0277X0.0336*%
%ADD17R,0.0946X0.0316*%
%ADD18R,0.0631X0.0710*%
%ADD19R,0.0674X0.0674*%
%ADD20C,0.0674*%
%ADD21R,0.0297X0.0552*%
%ADD22R,0.0820X0.0820*%
%ADD23C,0.0820*%
%ADD24R,0.0395X0.0192*%
%ADD25R,0.0192X0.0395*%
%ADD26R,0.1320X0.1320*%
%ADD27C,0.0674*%
%ADD28R,0.0336X0.0277*%
%ADD29R,0.0200X0.0470*%
%ADD30R,0.0710X0.0631*%
%ADD31C,0.0680*%
%ADD32R,0.0493X0.0336*%
%ADD33OC8,0.0680*%
%ADD34R,0.0631X0.0474*%
D10*
X010109Y013129D03*
X010109Y013385D03*
X010109Y013641D03*
X010109Y013897D03*
X010109Y014153D03*
X010109Y014409D03*
X010109Y014665D03*
X010109Y014921D03*
X012491Y014921D03*
X012491Y014665D03*
X012491Y014409D03*
X012491Y014153D03*
X012491Y013897D03*
X012491Y013641D03*
X012491Y013385D03*
X012491Y013129D03*
D11*
X016453Y013122D02*
X016611Y013122D01*
X016611Y013319D02*
X016453Y013319D01*
X016453Y012925D02*
X016611Y012925D01*
X016611Y012728D02*
X016453Y012728D01*
X016453Y012531D02*
X016611Y012531D01*
X016906Y012236D02*
X016906Y012078D01*
X017103Y012078D02*
X017103Y012236D01*
X017300Y012236D02*
X017300Y012078D01*
X017497Y012078D02*
X017497Y012236D01*
X017694Y012236D02*
X017694Y012078D01*
X017989Y012531D02*
X018147Y012531D01*
X018147Y012728D02*
X017989Y012728D01*
X017989Y012925D02*
X018147Y012925D01*
X018147Y013122D02*
X017989Y013122D01*
X017989Y013319D02*
X018147Y013319D01*
X017694Y013614D02*
X017694Y013772D01*
X017497Y013772D02*
X017497Y013614D01*
X017300Y013614D02*
X017300Y013772D01*
X017103Y013772D02*
X017103Y013614D01*
X016906Y013614D02*
X016906Y013772D01*
D12*
X017300Y012925D03*
D13*
X018765Y012725D03*
X019435Y012725D03*
X019435Y013325D03*
X018765Y013325D03*
X018565Y011525D03*
X019235Y011525D03*
X017375Y010175D03*
X016705Y010175D03*
X019765Y006925D03*
X020435Y006925D03*
X020435Y006125D03*
X019765Y006125D03*
X019765Y005125D03*
X020435Y005125D03*
X020435Y004325D03*
X019765Y004325D03*
X022365Y003461D03*
X023035Y003461D03*
X025465Y003325D03*
X026135Y003325D03*
X026135Y004225D03*
X025465Y004225D03*
X025465Y005025D03*
X026135Y005025D03*
X026135Y005825D03*
X025465Y005825D03*
X025265Y007125D03*
X025935Y007125D03*
X029300Y007210D03*
X030052Y007216D03*
X030052Y006547D03*
X029300Y006540D03*
X029300Y005910D03*
X030052Y005926D03*
X030052Y005256D03*
X029300Y005240D03*
X029362Y004316D03*
X028692Y004316D03*
X028702Y003575D03*
X029372Y003575D03*
X029380Y002816D03*
X030024Y002816D03*
X030694Y002816D03*
X028711Y002816D03*
X029450Y008440D03*
X029450Y009110D03*
X030300Y009110D03*
X030300Y008440D03*
X027735Y014525D03*
X027065Y014525D03*
X027065Y015825D03*
X027735Y015825D03*
X029365Y017525D03*
X030035Y017525D03*
X013835Y014625D03*
X013165Y014625D03*
X013165Y013825D03*
X013835Y013825D03*
X009300Y013560D03*
X009300Y014090D03*
X009300Y014760D03*
X009300Y012890D03*
X009265Y006275D03*
X009935Y006275D03*
X009985Y003325D03*
X009315Y003325D03*
D14*
X019032Y008593D03*
X019288Y008593D03*
X019544Y008593D03*
X019800Y008593D03*
X020056Y008593D03*
X020312Y008593D03*
X020568Y008593D03*
X020568Y010857D03*
X020312Y010857D03*
X020056Y010857D03*
X019800Y010857D03*
X019544Y010857D03*
X019288Y010857D03*
X019032Y010857D03*
X019032Y014293D03*
X019288Y014293D03*
X019544Y014293D03*
X019800Y014293D03*
X020056Y014293D03*
X020312Y014293D03*
X020568Y014293D03*
X020568Y016557D03*
X020312Y016557D03*
X020056Y016557D03*
X019800Y016557D03*
X019544Y016557D03*
X019288Y016557D03*
X019032Y016557D03*
D15*
X021300Y015760D03*
X021300Y015090D03*
X016335Y014125D03*
X015665Y014125D03*
X013835Y013025D03*
X013165Y013025D03*
X013165Y012225D03*
X013835Y012225D03*
X013900Y011260D03*
X013050Y011260D03*
X013050Y010590D03*
X013900Y010590D03*
X009850Y010640D03*
X009850Y011310D03*
X009900Y008460D03*
X009900Y007790D03*
X008650Y005260D03*
X008650Y004590D03*
X011250Y004810D03*
X011250Y004140D03*
X016765Y006125D03*
X017435Y006125D03*
X018065Y006125D03*
X018735Y006125D03*
X021400Y009290D03*
X021400Y009960D03*
X028650Y009110D03*
X028650Y008440D03*
X030800Y007210D03*
X030800Y006540D03*
X030800Y005910D03*
X030800Y005240D03*
X030696Y004318D03*
X030027Y004318D03*
X030027Y003573D03*
X030696Y003573D03*
X023022Y002725D03*
X022353Y002725D03*
X028650Y012590D03*
X029450Y012590D03*
X029450Y013260D03*
X028650Y013260D03*
X028565Y014525D03*
X029235Y014525D03*
X030065Y014525D03*
X030735Y014525D03*
X027735Y016725D03*
X027065Y016725D03*
X009435Y016125D03*
X008765Y016125D03*
D16*
X010028Y016271D03*
X010343Y016271D03*
X010657Y016271D03*
X010972Y016271D03*
X011528Y016271D03*
X011843Y016271D03*
X012157Y016271D03*
X012472Y016271D03*
X012472Y015779D03*
X012157Y015779D03*
X011843Y015779D03*
X011528Y015779D03*
X010972Y015779D03*
X010657Y015779D03*
X010343Y015779D03*
X010028Y015779D03*
X015328Y011671D03*
X015643Y011671D03*
X015957Y011671D03*
X016272Y011671D03*
X016272Y011179D03*
X015957Y011179D03*
X015643Y011179D03*
X015328Y011179D03*
X011772Y009171D03*
X011457Y009171D03*
X011143Y009171D03*
X010828Y009171D03*
X010828Y008679D03*
X011143Y008679D03*
X011457Y008679D03*
X011772Y008679D03*
D17*
X028676Y009875D03*
X028676Y010375D03*
X028676Y010875D03*
X028676Y011375D03*
X030724Y011375D03*
X030724Y010875D03*
X030724Y010375D03*
X030724Y009875D03*
X030724Y015275D03*
X030724Y015775D03*
X030724Y016275D03*
X030724Y016775D03*
X028676Y016775D03*
X028676Y016275D03*
X028676Y015775D03*
X028676Y015275D03*
D18*
X029149Y018575D03*
X030251Y018575D03*
X028451Y007011D03*
X027349Y007011D03*
X027349Y005875D03*
X028451Y005875D03*
D19*
X008000Y000875D03*
X008000Y019875D03*
D20*
X009000Y019875D03*
X010000Y019875D03*
X011000Y019875D03*
X012000Y019875D03*
X013000Y019875D03*
X014000Y019875D03*
X015000Y019875D03*
X016000Y019875D03*
X017000Y019875D03*
X018000Y019875D03*
X019000Y019875D03*
X020000Y019875D03*
X021000Y019875D03*
X022000Y019875D03*
X023000Y019875D03*
X024000Y019875D03*
X025000Y019875D03*
X026000Y019875D03*
X027000Y019875D03*
X028000Y019875D03*
X029000Y019875D03*
X030000Y019875D03*
X030000Y020875D03*
X029000Y020875D03*
X028000Y020875D03*
X027000Y020875D03*
X026000Y020875D03*
X025000Y020875D03*
X024000Y020875D03*
X023000Y020875D03*
X022000Y020875D03*
X021000Y020875D03*
X020000Y020875D03*
X019000Y020875D03*
X018000Y020875D03*
X017000Y020875D03*
X016000Y020875D03*
X015000Y020875D03*
X014000Y020875D03*
X013000Y020875D03*
X012000Y020875D03*
X011000Y020875D03*
X010000Y020875D03*
X009000Y020875D03*
X008000Y020875D03*
X008000Y001875D03*
X009000Y001875D03*
X010000Y001875D03*
X011000Y001875D03*
X012000Y001875D03*
X013000Y001875D03*
X014000Y001875D03*
X015000Y001875D03*
X016000Y001875D03*
X017000Y001875D03*
X018000Y001875D03*
X019000Y001875D03*
X020000Y001875D03*
X021000Y001875D03*
X022000Y001875D03*
X023000Y001875D03*
X024000Y001875D03*
X025000Y001875D03*
X026000Y001875D03*
X027000Y001875D03*
X028000Y001875D03*
X029000Y001875D03*
X030000Y001875D03*
X030000Y000875D03*
X029000Y000875D03*
X028000Y000875D03*
X027000Y000875D03*
X026000Y000875D03*
X025000Y000875D03*
X024000Y000875D03*
X023000Y000875D03*
X022000Y000875D03*
X021000Y000875D03*
X020000Y000875D03*
X019000Y000875D03*
X018000Y000875D03*
X017000Y000875D03*
X016000Y000875D03*
X015000Y000875D03*
X014000Y000875D03*
X013000Y000875D03*
X012000Y000875D03*
X011000Y000875D03*
X010000Y000875D03*
X009000Y000875D03*
D21*
X009276Y004413D03*
X009650Y004413D03*
X010024Y004413D03*
X010024Y005437D03*
X009276Y005437D03*
D22*
X026000Y011875D03*
X027000Y011875D03*
D23*
X027000Y010875D03*
X026000Y010875D03*
X026000Y009875D03*
X027000Y009875D03*
X027000Y008875D03*
X026000Y008875D03*
D24*
X024184Y005914D03*
X024184Y005717D03*
X024184Y005520D03*
X024184Y005323D03*
X024184Y005127D03*
X024184Y004930D03*
X024184Y004733D03*
X024184Y004536D03*
X022216Y004536D03*
X022216Y004733D03*
X022216Y004930D03*
X022216Y005127D03*
X022216Y005323D03*
X022216Y005520D03*
X022216Y005717D03*
X022216Y005914D03*
D25*
X022511Y006209D03*
X022708Y006209D03*
X022905Y006209D03*
X023102Y006209D03*
X023298Y006209D03*
X023495Y006209D03*
X023692Y006209D03*
X023889Y006209D03*
X023889Y004241D03*
X023692Y004241D03*
X023495Y004241D03*
X023298Y004241D03*
X023102Y004241D03*
X022905Y004241D03*
X022708Y004241D03*
X022511Y004241D03*
D26*
X023200Y005225D03*
D27*
X018900Y004822D02*
X018900Y004228D01*
X017900Y004228D02*
X017900Y004822D01*
X016900Y004822D02*
X016900Y004228D01*
X015900Y004228D02*
X015900Y004822D01*
X013350Y004822D02*
X013350Y004228D01*
X012350Y004228D02*
X012350Y004822D01*
X032503Y004525D02*
X033097Y004525D01*
X033097Y005525D02*
X032503Y005525D01*
X032503Y006525D02*
X033097Y006525D01*
X033097Y008525D02*
X032503Y008525D01*
X032503Y009525D02*
X033097Y009525D01*
X033097Y010525D02*
X032503Y010525D01*
X032503Y013025D02*
X033097Y013025D01*
X033097Y014025D02*
X032503Y014025D01*
X032503Y016025D02*
X033097Y016025D01*
X033097Y017025D02*
X032503Y017025D01*
D28*
X022546Y015597D03*
X022546Y015282D03*
X022546Y014968D03*
X022546Y014653D03*
X022054Y014653D03*
X022054Y014968D03*
X022054Y015282D03*
X022054Y015597D03*
X022104Y011197D03*
X022104Y010882D03*
X022104Y010568D03*
X022104Y010253D03*
X022596Y010253D03*
X022596Y010568D03*
X022596Y010882D03*
X022596Y011197D03*
D29*
X012168Y012074D03*
X011912Y012074D03*
X011656Y012074D03*
X011400Y012074D03*
X011144Y012074D03*
X010888Y012074D03*
X010632Y012074D03*
X010632Y009776D03*
X010888Y009776D03*
X011144Y009776D03*
X011400Y009776D03*
X011656Y009776D03*
X011912Y009776D03*
X012168Y009776D03*
D30*
X030550Y012374D03*
X030550Y013476D03*
D31*
X024300Y013875D02*
X023700Y013875D01*
X023700Y012875D02*
X024300Y012875D01*
X024300Y011875D02*
X023700Y011875D01*
X023700Y010875D02*
X024300Y010875D01*
X024300Y009875D02*
X023700Y009875D01*
X023700Y008875D02*
X024300Y008875D01*
X024300Y014875D02*
X023700Y014875D01*
X023700Y015875D02*
X024300Y015875D01*
X024300Y016875D02*
X023700Y016875D01*
X023700Y017875D02*
X024300Y017875D01*
X017000Y018175D02*
X017000Y017575D01*
X016000Y017575D02*
X016000Y018175D01*
X015000Y018175D02*
X015000Y017575D01*
X014000Y017575D02*
X014000Y018175D01*
X013000Y018175D02*
X013000Y017575D01*
X012000Y017575D02*
X012000Y018175D01*
X011000Y018175D02*
X011000Y017575D01*
X010000Y017575D02*
X010000Y018175D01*
X009000Y018175D02*
X009000Y017575D01*
X008000Y017575D02*
X008000Y018175D01*
D32*
X031615Y003490D03*
X031615Y002643D03*
X033249Y002643D03*
X033249Y003490D03*
D33*
X024200Y003375D03*
X021000Y012875D03*
D34*
X027813Y004911D03*
X026947Y004537D03*
X027813Y004162D03*
X027813Y003547D03*
X026947Y003173D03*
X027813Y002799D03*
M02*
