%
M48
M72
T01C0.0150
T02C0.0394
T03C0.0400
T04C0.0910
%
T01
X875Y3240
X1875Y3240
X6275Y5840
X6625Y5140
X8462Y6177
X9275Y6390
X10475Y6646
X9475Y7190
X10325Y7740
X10975Y7640
X12025Y7040
X11475Y6640
X11475Y5340
X10375Y4840
X9725Y4490
X8275Y3840
X7237Y3896
X10175Y3340
X11175Y3290
X12575Y3840
X13825Y4090
X16125Y3090
X18200Y5290
X19075Y6540
X19575Y6540
X19575Y7340
X20075Y7340
X18875Y8390
X17300Y9290
X16625Y8590
X15675Y8140
X15748Y7686
X14875Y7640
X14575Y7940
X14275Y7640
X15850Y6505
X15725Y5720
X15125Y5720
X13275Y8940
X13275Y9340
X13275Y9940
X11481Y9066
X10950Y9540
X9975Y9640
X9475Y9340
X8875Y9740
X8492Y9331
X9475Y8290
X8975Y8240
X8175Y8065
X7175Y7740
X6775Y7740
X6275Y7240
X8025Y7390
X6600Y8865
X6575Y9440
X6975Y9420
X3531Y6782
X1775Y10840
X14055Y11140
X15485Y10640
X15775Y10380
T02
X20602Y10080
X20602Y9080
X20602Y8080
X20602Y6080
X20602Y5080
X20602Y4080
T03
X2602Y1580
X3602Y1580
X4602Y1580
X5602Y1580
X6602Y1580
X7602Y1580
X8602Y1580
X9602Y1580
X10602Y1580
X11602Y1580
X12602Y1580
X13602Y1580
X14602Y1580
X15602Y1580
X16602Y1580
X17602Y1580
X18602Y1580
X19602Y1580
X19602Y2580
X18602Y2580
X17602Y2580
X16602Y2580
X15602Y2580
X14602Y2580
X13602Y2580
X12602Y2580
X11602Y2580
X10602Y2580
X9602Y2580
X8602Y2580
X7602Y2580
X6602Y2580
X5602Y2580
X4602Y2580
X3602Y2580
X2602Y2580
X2602Y10580
X3602Y10580
X4602Y10580
X5602Y10580
X6602Y10580
X7602Y10580
X8602Y10580
X9602Y10580
X10602Y10580
X11602Y10580
X11602Y11580
X10602Y11580
X9602Y11580
X8602Y11580
X7602Y11580
X6602Y11580
X5602Y11580
X4602Y11580
X3602Y11580
X2602Y11580
X2602Y12580
X3602Y12580
X4602Y12580
X5602Y12580
X6602Y12580
X7602Y12580
X8602Y12580
X9602Y12580
X10602Y12580
X11602Y12580
X12602Y12580
X13602Y12580
X14602Y12580
X15602Y12580
X16602Y12580
X17602Y12580
X18602Y12580
X19602Y12580
X19602Y11580
X18602Y11580
X17602Y11580
X16602Y11580
X15602Y11580
X14602Y11580
X13602Y11580
X12602Y11580
X16635Y10567
X17635Y10567
X18635Y10567
T04
X4175Y9125
X4175Y3955
M30
