%
M48
M72
T01C0.0150
T02C0.0394
T03C0.0400
%
T01
X1200Y2550
X1440Y2950
X5600Y8390
X5680Y8790
X5797Y9276
X7040Y9430
X7600Y11670
X7040Y12950
X8960Y13750
X9840Y14470
X9120Y15270
X8560Y16230
X8480Y16710
X8080Y17030
X8080Y17510
X7600Y16070
X7170Y16930
X6820Y16710
X6660Y16320
X6560Y15930
X7680Y19270
X7040Y20390
X6690Y21920
X6435Y22222
X6681Y22591
X7040Y23670
X6552Y24544
X6155Y24424
X5760Y24390
X4400Y25430
X8400Y25030
X9040Y25030
X9200Y24470
X9251Y24070
X9600Y24310
X10080Y23910
X9680Y25110
X11200Y25030
X11920Y25030
X12560Y25030
X11840Y23910
X12136Y23598
X11520Y23670
X11280Y23350
X10342Y22515
X9870Y21940
X9120Y22710
X9040Y21190
X9360Y19350
X9840Y18390
X9827Y17712
X11360Y16950
X11680Y15110
X11920Y14790
X11760Y14390
X11360Y12950
X11920Y12070
X13280Y13750
X13200Y14550
X14080Y14470
X13440Y11990
X14080Y10950
X13280Y10230
X14240Y8390
X14720Y8390
X15040Y8710
X16080Y8630
X15600Y1910
X11360Y9350
X9840Y10950
X8960Y11190
X9120Y12150
X9040Y10230
X14162Y17708
X14119Y18434
X13600Y19350
X14286Y21185
X14090Y21943
X13218Y22310
X14080Y23710
X13920Y24310
X14080Y24710
X14522Y25090
X14560Y24310
X15200Y23430
X16160Y24710
X11949Y19608
X11360Y20390
T02
X10920Y27030
X11920Y27030
X12920Y27030
X9920Y27030
X8920Y27030
X7920Y27030
X6920Y27030
X5920Y27030
X4920Y27030
X3920Y27030
X1920Y27030
X1920Y26030
X1920Y25030
X1920Y24030
X1920Y23030
X1920Y22030
X1920Y21030
X1920Y20030
X1920Y19030
X1920Y18030
X1920Y17030
X1920Y16030
X1920Y15030
X1920Y14030
X1920Y13030
X1920Y12030
X1920Y11030
X920Y11030
X920Y12030
X920Y13030
X920Y14030
X920Y15030
X920Y16030
X920Y17030
X920Y18030
X920Y19030
X920Y20030
X920Y21030
X920Y22030
X920Y23030
X920Y24030
X920Y25030
X920Y26030
X920Y27030
X920Y28030
X920Y29030
X920Y30030
X920Y31030
X920Y32030
X920Y33030
X1920Y33030
X1920Y32030
X1920Y31030
X1920Y30030
X1920Y29030
X1920Y28030
X3920Y20030
X3920Y19030
X3920Y18030
X3920Y17030
X3920Y16030
X3920Y15030
X3920Y14030
X3920Y13030
X3920Y12030
X3920Y11030
X4240Y7570
X4240Y6570
X3240Y6570
X3240Y7570
X2240Y7570
X2240Y6570
X2240Y3570
X2240Y2570
X3240Y2570
X3240Y3570
X4240Y3570
X4240Y2570
X5240Y2570
X5240Y3570
X6240Y3570
X6240Y2570
X7240Y2570
X7240Y3570
X8240Y3570
X8240Y2570
X9240Y2570
X9240Y3570
X10240Y3570
X10240Y2570
X11240Y2570
X11240Y3570
X12240Y3570
X12240Y2570
X13240Y2570
X13240Y3570
X14240Y3570
X14240Y2570
X15240Y2570
X15240Y3570
X16240Y3570
X16240Y2570
X17240Y2570
X17240Y3570
X18240Y3570
X18240Y2570
X18240Y6570
X18240Y7570
X17240Y7570
X17240Y6570
X16240Y6570
X16240Y7570
X15240Y7570
X15240Y6570
X14240Y6570
X14240Y7570
X13240Y7570
X13240Y6570
X12240Y6570
X12240Y7570
X11240Y7570
X11240Y6570
X10240Y6570
X10240Y7570
X9240Y7570
X9240Y6570
X8240Y6570
X8240Y7570
X7240Y7570
X7240Y6570
X6240Y6570
X6240Y7570
X5240Y7570
X5240Y6570
X19920Y11030
X19920Y12030
X19920Y13030
X19920Y14030
X19920Y15030
X19920Y16030
X19920Y17030
X19920Y18030
X19920Y19030
X19920Y20030
X19920Y21030
X19920Y22030
X19920Y23030
X19920Y24030
X19920Y25030
X19920Y26030
X19920Y27030
X19920Y28030
X19920Y29030
X19920Y30030
X19920Y31030
X19920Y32030
X19920Y33030
X20920Y33030
X20920Y32030
X20920Y31030
X20920Y30030
X20920Y29030
X20920Y28030
X20920Y27030
X20920Y26030
X20920Y25030
X20920Y24030
X20920Y23030
X20920Y22030
X20920Y21030
X20920Y20030
X20920Y19030
X20920Y18030
X20920Y17030
X20920Y16030
X20920Y15030
X20920Y14030
X20920Y13030
X20920Y12030
X20920Y11030
T03
X17780Y23990
X16780Y23990
X16780Y25990
X17780Y25990
M30
