G75*
%MOIN*%
%OFA0B0*%
%FSLAX24Y24*%
%IPPOS*%
%LPD*%
%AMOC8*
5,1,8,0,0,1.08239X$1,22.5*
%
%ADD10R,0.0674X0.0674*%
%ADD11C,0.0674*%
%ADD12C,0.0680*%
D10*
X001920Y011030D03*
X020920Y011030D03*
D11*
X002240Y002570D03*
X002240Y003570D03*
X003240Y003570D03*
X003240Y002570D03*
X004240Y002570D03*
X004240Y003570D03*
X005240Y003570D03*
X005240Y002570D03*
X006240Y002570D03*
X006240Y003570D03*
X007240Y003570D03*
X007240Y002570D03*
X008240Y002570D03*
X008240Y003570D03*
X009240Y003570D03*
X009240Y002570D03*
X010240Y002570D03*
X010240Y003570D03*
X011240Y003570D03*
X011240Y002570D03*
X012240Y002570D03*
X012240Y003570D03*
X013240Y003570D03*
X013240Y002570D03*
X014240Y002570D03*
X014240Y003570D03*
X015240Y003570D03*
X015240Y002570D03*
X016240Y002570D03*
X016240Y003570D03*
X017240Y003570D03*
X017240Y002570D03*
X018240Y002570D03*
X018240Y003570D03*
X018240Y006570D03*
X018240Y007570D03*
X017240Y007570D03*
X017240Y006570D03*
X016240Y006570D03*
X016240Y007570D03*
X015240Y007570D03*
X015240Y006570D03*
X014240Y006570D03*
X014240Y007570D03*
X013240Y007570D03*
X013240Y006570D03*
X012240Y006570D03*
X012240Y007570D03*
X011240Y007570D03*
X011240Y006570D03*
X010240Y006570D03*
X010240Y007570D03*
X009240Y007570D03*
X009240Y006570D03*
X008240Y006570D03*
X008240Y007570D03*
X007240Y007570D03*
X007240Y006570D03*
X006240Y006570D03*
X006240Y007570D03*
X005240Y007570D03*
X005240Y006570D03*
X004240Y006570D03*
X004240Y007570D03*
X003240Y007570D03*
X003240Y006570D03*
X002240Y006570D03*
X002240Y007570D03*
X000920Y011030D03*
X000920Y012030D03*
X000920Y013030D03*
X000920Y014030D03*
X000920Y015030D03*
X000920Y016030D03*
X000920Y017030D03*
X000920Y018030D03*
X000920Y019030D03*
X000920Y020030D03*
X000920Y021030D03*
X000920Y022030D03*
X000920Y023030D03*
X000920Y024030D03*
X000920Y025030D03*
X000920Y026030D03*
X000920Y027030D03*
X000920Y028030D03*
X000920Y029030D03*
X000920Y030030D03*
X000920Y031030D03*
X000920Y032030D03*
X000920Y033030D03*
X001920Y033030D03*
X001920Y032030D03*
X001920Y031030D03*
X001920Y030030D03*
X001920Y029030D03*
X001920Y028030D03*
X001920Y027030D03*
X001920Y026030D03*
X001920Y025030D03*
X001920Y024030D03*
X001920Y023030D03*
X001920Y022030D03*
X001920Y021030D03*
X001920Y020030D03*
X001920Y019030D03*
X001920Y018030D03*
X001920Y017030D03*
X001920Y016030D03*
X001920Y015030D03*
X001920Y014030D03*
X001920Y013030D03*
X001920Y012030D03*
X003920Y012030D03*
X003920Y011030D03*
X003920Y013030D03*
X003920Y014030D03*
X003920Y015030D03*
X003920Y016030D03*
X003920Y017030D03*
X003920Y018030D03*
X003920Y019030D03*
X003920Y020030D03*
X003920Y027030D03*
X004920Y027030D03*
X005920Y027030D03*
X006920Y027030D03*
X007920Y027030D03*
X008920Y027030D03*
X009920Y027030D03*
X010920Y027030D03*
X011920Y027030D03*
X012920Y027030D03*
X019920Y027030D03*
X019920Y026030D03*
X019920Y025030D03*
X019920Y024030D03*
X019920Y023030D03*
X019920Y022030D03*
X019920Y021030D03*
X019920Y020030D03*
X019920Y019030D03*
X019920Y018030D03*
X019920Y017030D03*
X019920Y016030D03*
X019920Y015030D03*
X019920Y014030D03*
X019920Y013030D03*
X019920Y012030D03*
X019920Y011030D03*
X020920Y012030D03*
X020920Y013030D03*
X020920Y014030D03*
X020920Y015030D03*
X020920Y016030D03*
X020920Y017030D03*
X020920Y018030D03*
X020920Y019030D03*
X020920Y020030D03*
X020920Y021030D03*
X020920Y022030D03*
X020920Y023030D03*
X020920Y024030D03*
X020920Y025030D03*
X020920Y026030D03*
X020920Y027030D03*
X020920Y028030D03*
X020920Y029030D03*
X020920Y030030D03*
X020920Y031030D03*
X020920Y032030D03*
X020920Y033030D03*
X019920Y033030D03*
X019920Y032030D03*
X019920Y031030D03*
X019920Y030030D03*
X019920Y029030D03*
X019920Y028030D03*
D12*
X017780Y026290D02*
X017780Y025690D01*
X017780Y024290D02*
X017780Y023690D01*
X016780Y023690D02*
X016780Y024290D01*
X016780Y025690D02*
X016780Y026290D01*
M02*
