%
M48
M72
T01C0.0394
T02C0.0400
%
T01
X2230Y3050
X3230Y3050
X4230Y3050
X5230Y3050
X6230Y3050
X7230Y3050
X8230Y3050
X9230Y3050
X10230Y3050
X11230Y3050
X12230Y3050
X13230Y3050
X14230Y3050
X15230Y3050
X16230Y3050
X17230Y3050
X18230Y3050
X18230Y4050
X17230Y4050
X16230Y4050
X15230Y4050
X14230Y4050
X13230Y4050
X12230Y4050
X11230Y4050
X10230Y4050
X9230Y4050
X8230Y4050
X7230Y4050
X6230Y4050
X5230Y4050
X4230Y4050
X3230Y4050
X2230Y4050
T02
X2230Y1550
X3230Y1550
X4230Y1550
X5230Y1550
X6230Y1550
X7230Y1550
X8230Y1550
X9230Y1550
X10230Y1550
X11230Y1550
X12230Y1550
X13230Y1550
X14230Y1550
X15230Y1550
X16230Y1550
X17230Y1550
X18230Y1550
X18230Y5550
X17230Y5550
X16230Y5550
X15230Y5550
X14230Y5550
X13230Y5550
X12230Y5550
X11230Y5550
X10230Y5550
X9230Y5550
X8230Y5550
X7230Y5550
X6230Y5550
X5230Y5550
X4230Y5550
X3230Y5550
X2230Y5550
M30
