G75*
%MOIN*%
%OFA0B0*%
%FSLAX24Y24*%
%IPPOS*%
%LPD*%
%AMOC8*
5,1,8,0,0,1.08239X$1,22.5*
%
%ADD10R,0.0354X0.0138*%
%ADD11R,0.0433X0.0394*%
D10*
X007049Y009674D03*
X007049Y009930D03*
X007049Y010186D03*
X007049Y010442D03*
X007049Y010698D03*
X007049Y010954D03*
X007049Y011210D03*
X007049Y011466D03*
X007049Y013174D03*
X007049Y013430D03*
X007049Y013686D03*
X007049Y013942D03*
X007049Y014198D03*
X007049Y014454D03*
X007049Y014710D03*
X007049Y014966D03*
X007049Y017174D03*
X007049Y017430D03*
X007049Y017686D03*
X007049Y017942D03*
X007049Y018198D03*
X007049Y018454D03*
X007049Y018710D03*
X007049Y018966D03*
X007049Y020674D03*
X007049Y020930D03*
X007049Y021186D03*
X007049Y021442D03*
X007049Y021698D03*
X007049Y021954D03*
X007049Y022210D03*
X007049Y022466D03*
X009431Y022466D03*
X009431Y022210D03*
X009431Y021954D03*
X009431Y021698D03*
X009431Y021442D03*
X009431Y021186D03*
X009431Y020930D03*
X009431Y020674D03*
X009431Y018966D03*
X009431Y018710D03*
X009431Y018454D03*
X009431Y018198D03*
X009431Y017942D03*
X009431Y017686D03*
X009431Y017430D03*
X009431Y017174D03*
X009431Y014966D03*
X009431Y014710D03*
X009431Y014454D03*
X009431Y014198D03*
X009431Y013942D03*
X009431Y013686D03*
X009431Y013430D03*
X009431Y013174D03*
X009431Y011466D03*
X009431Y011210D03*
X009431Y010954D03*
X009431Y010698D03*
X009431Y010442D03*
X009431Y010186D03*
X009431Y009930D03*
X009431Y009674D03*
X011349Y009654D03*
X011349Y009910D03*
X011349Y010166D03*
X011349Y010422D03*
X011349Y010678D03*
X011349Y010934D03*
X011349Y011190D03*
X011349Y011446D03*
X011349Y013174D03*
X011349Y013430D03*
X011349Y013686D03*
X011349Y013942D03*
X011349Y014198D03*
X011349Y014454D03*
X011349Y014710D03*
X011349Y014966D03*
X011349Y017174D03*
X011349Y017430D03*
X011349Y017686D03*
X011349Y017942D03*
X011349Y018198D03*
X011349Y018454D03*
X011349Y018710D03*
X011349Y018966D03*
X011349Y020674D03*
X011349Y020930D03*
X011349Y021186D03*
X011349Y021442D03*
X011349Y021698D03*
X011349Y021954D03*
X011349Y022210D03*
X011349Y022466D03*
X013731Y022466D03*
X013731Y022210D03*
X013731Y021954D03*
X013731Y021698D03*
X013731Y021442D03*
X013731Y021186D03*
X013731Y020930D03*
X013731Y020674D03*
X013731Y018966D03*
X013731Y018710D03*
X013731Y018454D03*
X013731Y018198D03*
X013731Y017942D03*
X013731Y017686D03*
X013731Y017430D03*
X013731Y017174D03*
X013731Y014966D03*
X013731Y014710D03*
X013731Y014454D03*
X013731Y014198D03*
X013731Y013942D03*
X013731Y013686D03*
X013731Y013430D03*
X013731Y013174D03*
X013731Y011446D03*
X013731Y011190D03*
X013731Y010934D03*
X013731Y010678D03*
X013731Y010422D03*
X013731Y010166D03*
X013731Y009910D03*
X013731Y009654D03*
D11*
X013055Y012070D03*
X012385Y012070D03*
X008655Y012070D03*
X007985Y012070D03*
X008065Y019590D03*
X008735Y019590D03*
X012465Y019590D03*
X013135Y019590D03*
X015680Y024055D03*
X015680Y024725D03*
X015680Y025415D03*
X015680Y026085D03*
X012880Y026085D03*
X012880Y025415D03*
X011920Y025415D03*
X011920Y026085D03*
X010960Y026085D03*
X010960Y025415D03*
X010000Y025415D03*
X010000Y026085D03*
X009040Y026085D03*
X009040Y025415D03*
X008080Y025415D03*
X008080Y026085D03*
X007120Y026085D03*
X007120Y025415D03*
X006160Y025415D03*
X006160Y026085D03*
X003920Y026085D03*
X003920Y025415D03*
M02*
