G75*
%MOIN*%
%OFA0B0*%
%FSLAX24Y24*%
%IPPOS*%
%LPD*%
%AMOC8*
5,1,8,0,0,1.08239X$1,22.5*
%
%ADD10C,0.0594*%
%ADD11C,0.0740*%
%ADD12C,0.0120*%
D10*
X002230Y003050D03*
X003230Y003050D03*
X004230Y003050D03*
X005230Y003050D03*
X006230Y003050D03*
X007230Y003050D03*
X008230Y003050D03*
X009230Y003050D03*
X010230Y003050D03*
X011230Y003050D03*
X012230Y003050D03*
X013230Y003050D03*
X014230Y003050D03*
X015230Y003050D03*
X016230Y003050D03*
X017230Y003050D03*
X018230Y003050D03*
X018230Y004050D03*
X017230Y004050D03*
X016230Y004050D03*
X015230Y004050D03*
X014230Y004050D03*
X013230Y004050D03*
X012230Y004050D03*
X011230Y004050D03*
X010230Y004050D03*
X009230Y004050D03*
X008230Y004050D03*
X007230Y004050D03*
X006230Y004050D03*
X005230Y004050D03*
X004230Y004050D03*
X003230Y004050D03*
X002230Y004050D03*
D11*
X002230Y001550D03*
X003230Y001550D03*
X004230Y001550D03*
X005230Y001550D03*
X006230Y001550D03*
X007230Y001550D03*
X008230Y001550D03*
X009230Y001550D03*
X010230Y001550D03*
X011230Y001550D03*
X012230Y001550D03*
X013230Y001550D03*
X014230Y001550D03*
X015230Y001550D03*
X016230Y001550D03*
X017230Y001550D03*
X018230Y001550D03*
X018230Y005550D03*
X017230Y005550D03*
X016230Y005550D03*
X015230Y005550D03*
X014230Y005550D03*
X013230Y005550D03*
X012230Y005550D03*
X011230Y005550D03*
X010230Y005550D03*
X009230Y005550D03*
X008230Y005550D03*
X007230Y005550D03*
X006230Y005550D03*
X005230Y005550D03*
X004230Y005550D03*
X003230Y005550D03*
X002230Y005550D03*
D12*
X002230Y004050D01*
X003230Y004050D02*
X003230Y005550D01*
X004230Y005550D02*
X004230Y004050D01*
X005230Y004050D02*
X005230Y005550D01*
X006230Y005550D02*
X006230Y004050D01*
X007230Y004050D02*
X007230Y005550D01*
X008230Y005550D02*
X008230Y004050D01*
X009230Y004050D02*
X009230Y005550D01*
X010230Y005550D02*
X010230Y004050D01*
X011230Y004050D02*
X011230Y005550D01*
X012230Y005550D02*
X012230Y004050D01*
X013230Y004050D02*
X013230Y005550D01*
X014230Y005550D02*
X014230Y004050D01*
X015230Y004050D02*
X015230Y005550D01*
X016230Y005550D02*
X016230Y004050D01*
X017230Y004050D02*
X017230Y005550D01*
X018230Y005550D02*
X018230Y004050D01*
X018230Y003050D02*
X018230Y001550D01*
X017230Y001550D02*
X017230Y003050D01*
X016230Y003050D02*
X016230Y001550D01*
X015230Y001550D02*
X015230Y003050D01*
X014230Y003050D02*
X014230Y001550D01*
X013230Y001550D02*
X013230Y003050D01*
X012230Y003050D02*
X012230Y001550D01*
X011230Y001550D02*
X011230Y003050D01*
X010230Y003050D02*
X010230Y001550D01*
X009230Y001550D02*
X009230Y003050D01*
X008230Y003050D02*
X008230Y001550D01*
X007230Y001550D02*
X007230Y003050D01*
X006230Y003050D02*
X006230Y001550D01*
X005230Y001550D02*
X005230Y003050D01*
X004230Y003050D02*
X004230Y001550D01*
X003230Y001550D02*
X003230Y003050D01*
X002230Y003050D02*
X002230Y001550D01*
M02*
