G75*
%MOIN*%
%OFA0B0*%
%FSLAX24Y24*%
%IPPOS*%
%LPD*%
%AMOC8*
5,1,8,0,0,1.08239X$1,22.5*
%
%ADD10C,0.0098*%
%ADD11R,0.0787X0.0787*%
%ADD12R,0.0394X0.0433*%
%ADD13R,0.0177X0.0177*%
%ADD14C,0.0080*%
%ADD15R,0.0197X0.0256*%
%ADD16R,0.0433X0.0394*%
%ADD17R,0.0630X0.0551*%
%ADD18R,0.0217X0.0472*%
%ADD19R,0.0112X0.0315*%
%ADD20R,0.0315X0.0112*%
%ADD21R,0.0512X0.0512*%
%ADD22R,0.0354X0.0236*%
D10*
X008129Y004846D02*
X008286Y004846D01*
X008286Y005043D02*
X008129Y005043D01*
X008129Y005240D02*
X008286Y005240D01*
X008286Y005437D02*
X008129Y005437D01*
X008129Y005634D02*
X008286Y005634D01*
X008581Y005929D02*
X008581Y006086D01*
X008778Y006086D02*
X008778Y005929D01*
X008975Y005929D02*
X008975Y006086D01*
X009172Y006086D02*
X009172Y005929D01*
X009369Y005929D02*
X009369Y006086D01*
X009664Y005634D02*
X009821Y005634D01*
X009821Y005437D02*
X009664Y005437D01*
X009664Y005240D02*
X009821Y005240D01*
X009821Y005043D02*
X009664Y005043D01*
X009664Y004846D02*
X009821Y004846D01*
X009369Y004551D02*
X009369Y004394D01*
X009172Y004394D02*
X009172Y004551D01*
X008975Y004551D02*
X008975Y004394D01*
X008778Y004394D02*
X008778Y004551D01*
X008581Y004551D02*
X008581Y004394D01*
D11*
X008975Y005240D03*
D12*
X001940Y003640D03*
X002610Y003640D03*
X002610Y004340D03*
X001940Y004340D03*
X008025Y006355D03*
X008025Y007025D03*
X008975Y008605D03*
X008975Y009275D03*
X013850Y007175D03*
X014625Y007175D03*
X015375Y007175D03*
X015375Y006505D03*
X014625Y006505D03*
X013850Y006505D03*
X013825Y005200D03*
X013825Y004530D03*
X011225Y004475D03*
X010525Y004475D03*
X010525Y003805D03*
X011225Y003805D03*
X017825Y003855D03*
X017825Y004525D03*
X018575Y004525D03*
X018575Y003855D03*
X018575Y005355D03*
X017825Y005355D03*
X017825Y006025D03*
X018575Y006025D03*
X001800Y010495D03*
X001131Y010495D03*
D13*
X007427Y008888D03*
X007723Y008888D03*
X007723Y008592D03*
X007427Y008592D03*
X010227Y008592D03*
X010523Y008592D03*
X010523Y008888D03*
X010227Y008888D03*
D14*
X009922Y008838D02*
X009666Y008838D01*
X009666Y009035D02*
X009922Y009035D01*
X010080Y009193D02*
X010080Y009449D01*
X010277Y009449D02*
X010277Y009193D01*
X010473Y009193D02*
X010473Y009449D01*
X010670Y009449D02*
X010670Y009193D01*
X010828Y009035D02*
X011084Y009035D01*
X011084Y008838D02*
X010828Y008838D01*
X010828Y008642D02*
X011084Y008642D01*
X011084Y008445D02*
X010828Y008445D01*
X010670Y008287D02*
X010670Y008031D01*
X010473Y008031D02*
X010473Y008287D01*
X010277Y008287D02*
X010277Y008031D01*
X010080Y008031D02*
X010080Y008287D01*
X009922Y008445D02*
X009666Y008445D01*
X009666Y008642D02*
X009922Y008642D01*
X008284Y008642D02*
X008028Y008642D01*
X008028Y008445D02*
X008284Y008445D01*
X007870Y008287D02*
X007870Y008031D01*
X007673Y008031D02*
X007673Y008287D01*
X007477Y008287D02*
X007477Y008031D01*
X007280Y008031D02*
X007280Y008287D01*
X007122Y008445D02*
X006866Y008445D01*
X006866Y008642D02*
X007122Y008642D01*
X007122Y008838D02*
X006866Y008838D01*
X006866Y009035D02*
X007122Y009035D01*
X007280Y009193D02*
X007280Y009449D01*
X007477Y009449D02*
X007477Y009193D01*
X007673Y009193D02*
X007673Y009449D01*
X007870Y009449D02*
X007870Y009193D01*
X008028Y009035D02*
X008284Y009035D01*
X008284Y008838D02*
X008028Y008838D01*
D15*
X008703Y003886D03*
X009018Y003886D03*
X009332Y003886D03*
X009647Y003886D03*
X009647Y003394D03*
X009332Y003394D03*
X009018Y003394D03*
X008703Y003394D03*
D16*
X007910Y004340D03*
X007240Y004340D03*
X008815Y006840D03*
X009485Y006840D03*
X009485Y007540D03*
X008815Y007540D03*
X016640Y007340D03*
X017310Y007340D03*
X018140Y007340D03*
X018810Y007340D03*
X018810Y008040D03*
X018140Y008040D03*
X017310Y008040D03*
X016640Y008040D03*
X016640Y008940D03*
X017310Y008940D03*
X018140Y008740D03*
X018810Y008740D03*
X018810Y009440D03*
X018140Y009440D03*
X017310Y009640D03*
X016640Y009640D03*
X017075Y006025D03*
X017075Y005355D03*
X017075Y004525D03*
X017075Y003855D03*
X019325Y003855D03*
X019325Y004525D03*
X019325Y005355D03*
X019325Y006025D03*
D17*
X016025Y005391D03*
X014725Y005391D03*
X014725Y004289D03*
X016025Y004289D03*
D18*
X013199Y004353D03*
X012825Y004353D03*
X012451Y004353D03*
X012451Y005377D03*
X013199Y005377D03*
D19*
X013986Y008356D03*
X014183Y008356D03*
X014380Y008356D03*
X014577Y008356D03*
X014773Y008356D03*
X014970Y008356D03*
X015167Y008356D03*
X015364Y008356D03*
X015364Y010324D03*
X015167Y010324D03*
X014970Y010324D03*
X014773Y010324D03*
X014577Y010324D03*
X014380Y010324D03*
X014183Y010324D03*
X013986Y010324D03*
D20*
X013691Y010029D03*
X013691Y009832D03*
X013691Y009635D03*
X013691Y009438D03*
X013691Y009242D03*
X013691Y009045D03*
X013691Y008848D03*
X013691Y008651D03*
X015659Y008651D03*
X015659Y008848D03*
X015659Y009045D03*
X015659Y009242D03*
X015659Y009438D03*
X015659Y009635D03*
X015659Y009832D03*
X015659Y010029D03*
D21*
X014990Y009655D03*
X014360Y009655D03*
X014360Y009025D03*
X014990Y009025D03*
D22*
X006228Y006914D03*
X006228Y006540D03*
X006228Y006166D03*
X005322Y006166D03*
X005322Y006540D03*
X005322Y006914D03*
M02*
